<?xml version="1.0" standalone="no"?>
<!DOCTYPE svg PUBLIC "-//W3C//DTD SVG 20010904//EN"
 "http://www.w3.org/TR/2001/REC-SVG-20010904/DTD/svg10.dtd">
<svg version="1.0" xmlns="http://www.w3.org/2000/svg"
 width="700.000000pt" height="700.000000pt" viewBox="0 0 700.000000 700.000000"
 preserveAspectRatio="xMidYMid meet">
<metadata>
Created by potrace 1.14, written by Peter Selinger 2001-2017
</metadata>
<g transform="translate(0.000000,700.000000) scale(0.100000,-0.100000)"
fill="#000000" stroke="none">
<path d="M3467 6804 c-1 -1 -66 -4 -144 -8 -78 -3 -148 -8 -155 -11 -7 -2 -38
-7 -68 -10 -176 -17 -449 -81 -650 -150 -334 -116 -611 -264 -895 -476 -314
-235 -561 -496 -784 -832 -39 -58 -71 -109 -71 -113 0 -3 -8 -18 -18 -32 -30
-42 -114 -207 -166 -325 -87 -195 -157 -408 -201 -614 -21 -96 -31 -156 -60
-348 -23 -161 -24 -598 0 -785 78 -632 311 -1194 692 -1668 173 -215 426 -464
608 -597 22 -17 42 -32 45 -35 37 -40 346 -224 494 -295 231 -110 571 -221
771 -250 22 -4 47 -8 55 -10 25 -7 158 -25 244 -33 103 -9 565 -9 676 0 375
31 761 139 1105 308 77 38 169 87 205 109 36 22 78 47 93 56 138 78 366 264
547 445 396 394 651 799 808 1280 40 122 77 254 88 315 3 17 9 48 14 70 5 22
11 58 14 80 4 23 8 50 10 60 2 11 7 49 11 85 4 36 9 73 11 83 21 115 21 713
-1 797 -2 8 -6 42 -10 75 -5 50 -55 312 -69 365 -124 458 -320 853 -598 1202
-101 127 -132 161 -283 312 -484 484 -1045 782 -1690 900 -95 18 -262 37 -370
42 -125 6 -255 10 -258 8z m293 -1948 c58 -3 116 -8 130 -11 14 -2 50 -7 80
-10 30 -3 66 -7 80 -9 14 -2 45 -7 70 -10 182 -25 518 -112 752 -194 83 -30
341 -133 376 -151 9 -5 80 -40 157 -77 385 -186 913 -532 1260 -826 11 -9 31
-26 45 -37 l25 -21 -35 -32 c-246 -227 -635 -521 -946 -714 -390 -242 -862
-457 -1209 -549 -229 -62 -358 -89 -540 -115 -300 -43 -735 -45 -975 -4 -19 3
-48 8 -65 10 -258 33 -607 127 -902 245 -504 200 -932 457 -1493 897 -79 62
-300 254 -300 260 0 9 12 19 131 114 324 256 584 435 883 607 488 281 1012
480 1501 570 132 24 146 26 310 46 22 3 96 8 165 11 69 4 126 7 128 9 4 3 262
-3 372 -9z"/>
<path d="M4325 4598 c302 -215 518 -570 562 -922 10 -76 10 -353 1 -421 -19
-139 -71 -312 -130 -430 -99 -197 -266 -391 -432 -500 -31 -21 -56 -39 -56
-40 0 -18 481 134 645 204 11 5 76 33 145 62 141 60 376 178 525 264 168 96
480 307 600 406 136 112 220 184 270 231 l60 58 -25 22 c-14 13 -48 41 -74 63
-27 22 -54 45 -60 50 -6 6 -48 38 -93 72 -562 426 -1179 726 -1858 904 -82 21
-154 39 -159 39 -5 0 31 -28 79 -62z"/>
<path d="M2565 4600 c-178 -50 -522 -170 -630 -220 -11 -5 -67 -30 -125 -55
-58 -25 -112 -49 -120 -54 -8 -4 -76 -40 -150 -78 -332 -172 -729 -439 -969
-650 l-45 -40 43 -39 c24 -21 58 -52 75 -67 62 -57 273 -225 361 -287 50 -36
92 -67 95 -70 13 -13 237 -156 330 -210 167 -97 374 -202 555 -281 50 -22 99
-44 110 -49 119 -54 605 -213 605 -197 0 2 -24 20 -52 39 -263 175 -464 489
-529 823 -15 76 -20 432 -7 520 21 147 56 263 118 393 98 205 228 369 393 493
43 32 70 59 60 58 -10 0 -63 -13 -118 -29z"/>
</g>
</svg>
