<svg xmlns="http://www.w3.org/2000/svg">
  <symbol id="circle" viewBox="0 0 100 100"><circle cx="50" cy="50" r="50"/></symbol>
  <symbol id="filter" viewBox="0 0 24 24"><path d="M4 10h16v3H4zM8 16h8v3H8zM1 4h22v3H1z"/></symbol>
  <symbol id="remove" viewbox="0 0 24 24"><path d="M10.6 12l-7-7 1.3-1.5 7.1 7 7-7L20.6 5l-7 7.1 7 7-1.4 1.5-7.1-7-7 7L3.4 19l7-7.1z"/></symbol>
  <symbol id="search" viewBox="0 0 24 24"><path d="M17.2 15l4.5 4.6-2 2-4.6-4.4c1-.6 1.8-1.3 2.4-2zm-7.7 2c4 0 7.5-3.4 7.5-7.5 0-4-3.4-7.5-7.5-7.5C5.5 2 2 5.4 2 9.5c0 4 3.4 7.5 7.5 7.5zm0-2c3 0 5.5-2.5 5.5-5.5S12.5 4 9.5 4 4 6.5 4 9.5 6.5 15 9.5 15z" fill-rule="evenodd"/></symbol>
</svg>
