<?xml version="1.0" encoding="UTF-8"?>
<svg xmlns="http://www.w3.org/2000/svg" xmlns:xlink="http://www.w3.org/1999/xlink" version="1.2" >
<font id="Century Gothic Bold">
<font-face  font-family="Century Gothic" units-per-em="2048" ascent="1536" descent="-426" font-style="normal" font-weight="700" font-stretch="normal" cap-height="1536" x-height="1024" underline-position="-188" underline-thickness="184" />
<missing-glyph  horiz-adv-x="1536" d="M256 0 L256 1280 L1280 1280 L1280 0 L256 0 Z M288 32 L1248 32 L1248 1248 L288 1248 L288 32 Z " />
<glyph glyph-name="space" unicode="&#x20;" horiz-adv-x="573" d="" />
<glyph glyph-name="exclam" unicode="&#x21;" horiz-adv-x="573" d="M148 1508 L424 1508 L424 433 L148 433 L148 1508 Z M286 314 Q357 314 407.5 264 Q458 214 458 143 Q458 73 407.5 22.5 Q357 -28 286 -28 Q215 -28 165 22 Q115 72 115 143 Q115 214 165 264 Q215 314 286 314 Z " />
<glyph glyph-name="quotedbl" unicode="&#x22;" horiz-adv-x="737" d="M653 1004 L497 1004 L442 1508 L709 1508 L653 1004 Z M242 1004 L86 1004 L31 1508 L298 1508 L242 1004 Z " />
<glyph glyph-name="numbersign" unicode="&#x23;" horiz-adv-x="1229" d="M1110 678 L1110 479 L879 479 L808 0 L607 0 L677 479 L486 479 L416 0 L216 0 L286 479 L61 479 L61 678 L317 678 L347 866 L124 866 L124 1065 L375 1065 L440 1508 L635 1508 L573 1065 L764 1065 L829 1508 L1030 1508 L965 1065 L1167 1065 L1167 866 L936 866 L910 678 L1110 678 Z M736 866 L542 866 L516 678 L705 678 L736 866 Z " />
<glyph glyph-name="dollar" unicode="&#x24;" horiz-adv-x="1147" d="M1039 1301 L846 1113 Q714 1249 585 1249 Q509 1249 461.5 1208.5 Q414 1168 414 1115 Q414 1070 456 1026 Q497 981 622 930 Q844 838 926 773 Q1008 708 1052 617 Q1096 526 1096 413 Q1096 300 1049 204 Q1002 108 928 52 Q854 -4 715 -33 L715 -300 L527 -300 L527 -39 Q396 -24 304 27 Q178 97 70 213 L260 408 Q443 213 614 213 Q701 213 763.5 273.5 Q826 334 826 416 Q826 485 786 537 Q745 589 628 643 Q390 753 306 817.5 Q222 882 180.5 962.5 Q139 1043 139 1134 Q139 1285 249 1392.5 Q359 1500 527 1508 L527 1608 L715 1608 L715 1495 Q812 1472 879.5 1433 Q947 1394 1039 1301 Z " />
<glyph glyph-name="percent" unicode="&#x25;" horiz-adv-x="1761" d="M1352 1536 L1554 1536 L388 -100 L186 -100 L1183 1305 Q1093 1290 1014 1282.5 Q935 1275 868 1275 Q799 1275 722 1282 Q744 1212 744 1155 Q744 1009 642.5 907 Q541 805 395 805 Q248 805 145 907 Q42 1009 42 1154 Q42 1248 88 1328.5 Q134 1409 217.5 1458.5 Q301 1508 383 1508 Q445 1508 554 1484 Q747 1442 894 1442 Q1027 1442 1141.5 1465.5 Q1256 1489 1352 1536 Z M393 1325 Q323 1325 273.5 1275.5 Q224 1226 224 1157 Q224 1087 273.5 1037.5 Q323 988 393 988 Q463 988 512.5 1037.5 Q562 1087 562 1157 Q562 1227 512.5 1276 Q463 1325 393 1325 Z M1368 663 Q1513 663 1616 560 Q1719 457 1719 311 Q1719 166 1616 63 Q1513 -40 1368 -40 Q1222 -40 1119.5 63 Q1017 166 1017 311 Q1017 457 1119.5 560 Q1222 663 1368 663 Z M1367 482 Q1296 482 1246.5 432 Q1197 382 1197 312 Q1197 242 1246.5 192 Q1296 142 1367 142 Q1437 142 1486.5 192 Q1536 242 1536 312 Q1536 382 1486.5 432 Q1437 482 1367 482 Z " />
<glyph glyph-name="ampersand" unicode="&#x26;" horiz-adv-x="1393" d="M1090 578 L1257 387 L1181 318 L1106 250 L1342 0 L1003 0 L906 100 Q674 -37 475 -37 Q306 -37 201.5 62 Q97 161 97 316 Q97 433 156 537 Q215 641 358 752 Q217 943 217 1090 Q217 1199 311 1305 Q405 1411 576 1411 Q749 1411 841.5 1306 Q934 1201 934 1094 Q934 1010 891.5 933 Q849 856 696 705 Q875 494 927 442 Q959 466 1090 578 Z M558 902 Q669 997 669 1070 Q669 1108 644 1132 Q619 1156 578 1156 Q540 1156 513.5 1129 Q487 1102 487 1066 Q487 994 558 902 Z M724 294 Q647 370 507 546 Q358 423 358 331 Q358 288 398.5 252 Q439 216 501 216 Q590 216 724 294 Z " />
<glyph glyph-name="quotesingle" unicode="&#x27;" horiz-adv-x="451" d="M303 1004 L147 1004 L92 1508 L358 1508 L303 1004 Z " />
<glyph glyph-name="parenleft" unicode="&#x28;" horiz-adv-x="778" d="M380 1536 L726 1536 Q548 1335 460.5 1100 Q373 865 373 563 Q373 236 470 -12 Q546 -203 726 -426 L380 -426 Q220 -172 156.5 49.5 Q93 271 93 571 Q93 865 160 1086 Q227 1307 380 1536 Z " />
<glyph glyph-name="parenright" unicode="&#x29;" horiz-adv-x="778" d="M399 -426 L53 -426 Q231 -225 318.5 9.5 Q406 244 406 547 Q406 874 309 1121 Q233 1312 53 1536 L399 1536 Q559 1282 622.5 1060.5 Q686 839 686 539 Q686 245 619 24 Q552 -197 399 -426 Z " />
<glyph glyph-name="asterisk" unicode="&#x2a;" horiz-adv-x="901" d="M331 1508 L585 1508 L506 1207 L732 1420 L849 1200 L544 1122 L849 1035 L717 818 L499 1035 L576 735 L331 735 L408 1035 L185 818 L52 1035 L358 1122 L52 1207 L185 1430 L408 1207 L331 1508 Z " />
<glyph glyph-name="plus" unicode="&#x2b;" horiz-adv-x="1229" d="M490 860 L490 1235 L740 1235 L740 860 L1114 860 L1114 610 L740 610 L740 236 L490 236 L490 610 L115 610 L115 860 L490 860 Z " />
<glyph glyph-name="comma" unicode="&#x2c;" horiz-adv-x="573" d="M269 277 L464 179 L217 -243 L81 -178 L269 277 Z " />
<glyph glyph-name="&amp;#x2d;" unicode="&#x2d;" horiz-adv-x="860" d="M176 669 L684 669 L684 415 L176 415 L176 669 Z " />
<glyph glyph-name="&amp;#xad;" unicode="&#xad;" horiz-adv-x="860" d="M176 669 L684 669 L684 415 L176 415 L176 669 Z " />
<glyph glyph-name="period" unicode="&#x2e;" horiz-adv-x="573" d="M287 285 Q352 285 398 239.5 Q444 194 444 129 Q444 64 398 18 Q352 -28 287 -28 Q222 -28 176 18 Q130 64 130 129 Q130 194 176 239.5 Q222 285 287 285 Z " />
<glyph glyph-name="slash" unicode="&#x2f;" horiz-adv-x="942" d="M44 -262 L705 1513 L899 1513 L237 -262 L44 -262 Z " />
<glyph glyph-name="zero" unicode="0" horiz-adv-x="1147" d="M569 1508 Q730 1508 846.5 1429 Q963 1350 1026.5 1187.5 Q1090 1025 1090 735 Q1090 442 1025.5 279 Q961 116 852 39.5 Q743 -37 577 -37 Q411 -37 298 40 Q185 117 121 274 Q57 431 57 721 Q57 1126 182 1308 Q321 1508 569 1508 Z M576 1242 Q505 1242 450 1196.5 Q395 1151 366 1040 Q337 929 337 715 Q337 436 403.5 329.5 Q470 223 576 223 Q678 223 738 324 Q811 446 811 732 Q811 1022 745.5 1132 Q680 1242 576 1242 Z " />
<glyph glyph-name="one" unicode="1" horiz-adv-x="1147" d="M337 1471 L756 1471 L756 0 L478 0 L478 1208 L175 1208 L337 1471 Z " />
<glyph glyph-name="two" unicode="2" horiz-adv-x="1147" d="M357 997 L84 997 Q95 1235 233.5 1371.5 Q372 1508 589 1508 Q723 1508 825.5 1451.5 Q928 1395 989.5 1288.5 Q1051 1182 1051 1072 Q1051 941 976.5 790 Q902 639 704 433 L539 259 L1063 259 L1063 0 L44 0 L44 134 L499 598 Q664 765 718.5 866.5 Q773 968 773 1050 Q773 1135 716.5 1190.5 Q660 1246 571 1246 Q481 1246 421 1179 Q361 1112 357 997 Z " />
<glyph glyph-name="three" unicode="3" horiz-adv-x="1147" d="M389 1108 L120 1108 Q141 1271 237 1370 Q371 1508 574 1508 Q755 1508 877.5 1393 Q1000 1278 1000 1120 Q1000 1022 946.5 941 Q893 860 791 810 Q925 770 1000.5 670.5 Q1076 571 1076 436 Q1076 238 930 100.5 Q784 -37 558 -37 Q344 -37 209 92.5 Q74 222 61 445 L338 445 Q356 331 417.5 275.5 Q479 220 573 220 Q671 220 735.5 283 Q800 346 800 437 Q800 537 713 606 Q626 675 462 677 L462 917 Q563 925 612.5 948.5 Q662 972 689.5 1013 Q717 1054 717 1100 Q717 1160 675 1199.5 Q633 1239 565 1239 Q505 1239 456 1202.5 Q407 1166 389 1108 Z " />
<glyph glyph-name="four" unicode="4" horiz-adv-x="1147" d="M678 1508 L958 1508 L958 561 L1089 561 L1089 302 L958 302 L958 0 L684 0 L684 302 L42 302 L42 561 L678 1508 Z M684 561 L684 1054 L348 561 L684 561 Z " />
<glyph glyph-name="five" unicode="5" horiz-adv-x="1147" d="M342 1471 L1031 1471 L1031 1213 L551 1213 L491 945 Q516 952 540 955.5 Q564 959 586 959 Q786 959 918.5 822.5 Q1051 686 1051 473 Q1051 258 904.5 110.5 Q758 -37 548 -37 Q360 -37 225 70 Q90 177 48 363 L342 363 Q376 294 431.5 258.5 Q487 223 554 223 Q647 223 712 290 Q777 357 777 462 Q777 564 716.5 629.5 Q656 695 570 695 Q524 695 479.5 672 Q435 649 392 603 L164 654 L342 1471 Z " />
<glyph glyph-name="six" unicode="6" horiz-adv-x="1147" d="M594 1508 L832 1389 L575 889 Q762 889 893 755 Q1024 621 1024 422 Q1024 230 889.5 96.5 Q755 -37 565 -37 Q366 -37 233.5 101.5 Q101 240 101 419 Q101 487 121.5 556 Q142 625 216 768 L594 1508 Z M559 624 Q481 624 428 567.5 Q375 511 375 426 Q375 341 430.5 283 Q486 225 560 225 Q638 225 694 282 Q750 339 750 426 Q750 511 695.5 567.5 Q641 624 559 624 Z " />
<glyph glyph-name="seven" unicode="7" horiz-adv-x="1147" d="M123 1471 L1088 1471 L1088 1324 L424 -37 L187 78 L739 1208 L123 1208 L123 1471 Z " />
<glyph glyph-name="eight" unicode="8" horiz-adv-x="1147" d="M875 797 Q975 733 1029.5 632.5 Q1084 532 1084 415 Q1084 288 1020.5 180 Q957 72 850 17.5 Q743 -37 577 -37 Q399 -37 294 15.5 Q189 68 126 174.5 Q63 281 63 415 Q63 531 113.5 626.5 Q164 722 265 797 Q199 864 165.5 939.5 Q132 1015 132 1099 Q132 1214 187.5 1308.5 Q243 1403 343 1455.5 Q443 1508 574 1508 Q703 1508 801 1455 Q899 1402 955.5 1304.5 Q1012 1207 1012 1095 Q1012 1016 982.5 948.5 Q953 881 875 797 Z M565 1238 Q496 1238 451.5 1192.5 Q407 1147 407 1076 Q407 1005 454 957 Q501 909 570 909 Q641 909 686.5 956 Q732 1003 732 1078 Q732 1149 686 1193.5 Q640 1238 565 1238 Z M576 648 Q475 648 406 586.5 Q337 525 337 440 Q337 351 402 289.5 Q467 228 573 228 Q680 228 743.5 285.5 Q807 343 807 434 Q807 525 741 586.5 Q675 648 576 648 Z " />
<glyph glyph-name="nine" unicode="9" horiz-adv-x="1147" d="M553 -37 L315 81 L572 581 Q385 581 254 715 Q123 849 123 1048 Q123 1241 257.5 1374.5 Q392 1508 582 1508 Q781 1508 913.5 1369.5 Q1046 1231 1046 1051 Q1046 983 1025.5 914.5 Q1005 846 931 703 L553 -37 Z M588 846 Q666 846 719 903 Q772 960 772 1044 Q772 1130 716.5 1188 Q661 1246 587 1246 Q509 1246 453 1188.5 Q397 1131 397 1045 Q397 960 451.5 903 Q506 846 588 846 Z " />
<glyph glyph-name="colon" unicode="&#x3a;" horiz-adv-x="573" d="M287 1116 Q352 1116 398 1070 Q444 1024 444 959 Q444 895 398 849 Q352 803 287 803 Q222 803 176 848.5 Q130 894 130 959 Q130 1024 176 1070 Q222 1116 287 1116 Z M287 285 Q352 285 398 239.5 Q444 194 444 129 Q444 64 398 18 Q352 -28 287 -28 Q222 -28 176 18 Q130 64 130 129 Q130 194 176 239.5 Q222 285 287 285 Z " />
<glyph glyph-name="&amp;#x3b;" unicode="&#x3b;" horiz-adv-x="573" d="M287 1116 Q352 1116 398 1070 Q444 1024 444 959 Q444 894 398 848.5 Q352 803 287 803 Q222 803 176 848.5 Q130 894 130 959 Q130 1024 176 1070 Q222 1116 287 1116 Z M271 278 L462 178 L217 -243 L80 -177 L271 278 Z " />
<glyph glyph-name="&amp;#x37e;" unicode="&#x37e;" horiz-adv-x="573" d="M287 1116 Q352 1116 398 1070 Q444 1024 444 959 Q444 894 398 848.5 Q352 803 287 803 Q222 803 176 848.5 Q130 894 130 959 Q130 1024 176 1070 Q222 1116 287 1116 Z M271 278 L462 178 L217 -243 L80 -177 L271 278 Z " />
<glyph glyph-name="less" unicode="&#x3c;" horiz-adv-x="1229" d="M1114 366 L1114 116 L115 624 L115 846 L1114 1354 L1114 1105 L402 735 L1114 366 Z " />
<glyph glyph-name="equal" unicode="&#x3d;" horiz-adv-x="1229" d="M115 1074 L1114 1074 L1114 824 L115 824 L115 1074 Z M115 646 L1114 646 L1114 396 L115 396 L115 646 Z " />
<glyph glyph-name="greater" unicode="&#x3e;" horiz-adv-x="1229" d="M115 1105 L115 1354 L1114 846 L1114 624 L115 116 L115 366 L828 735 L115 1105 Z " />
<glyph glyph-name="question" unicode="&#x3f;" horiz-adv-x="1147" d="M362 1091 L100 1091 Q98 1284 232 1410 Q366 1536 585 1536 Q726 1536 825 1484 Q924 1432 983.5 1334 Q1043 1236 1043 1128 Q1043 1069 1024 1012 Q1005 955 964 895 Q940 860 849 777 Q762 698 740 665.5 Q718 633 703 579 Q688 525 684 429 L413 429 L412 474 Q412 608 461 717.5 Q510 827 620 923 Q726 1016 748 1051 Q770 1086 770 1133 Q770 1197 716.5 1241.5 Q663 1286 573 1286 Q481 1286 422 1231.5 Q363 1177 362 1091 Z M553 315 Q626 315 677.5 265 Q729 215 729 144 Q729 73 678 22.5 Q627 -28 555 -28 Q483 -28 432.5 22.5 Q382 73 382 144 Q382 215 432 265 Q482 315 553 315 Z " />
<glyph glyph-name="at" unicode="&#x40;" horiz-adv-x="1515" d="M1228 301 L1419 301 Q1310 166 1225.5 104.5 Q1141 43 1029 8 Q917 -27 796 -27 Q582 -27 399 77.5 Q216 182 112 362 Q8 542 8 754 Q8 968 112.5 1152 Q217 1336 397.5 1438 Q578 1540 794 1540 Q1094 1540 1300.5 1347 Q1507 1154 1507 898 Q1507 710 1420.5 574.5 Q1334 439 1185 363 Q1071 305 994 305 Q936 305 901 336 Q874 358 872 412 Q784 315 658 315 Q516 315 421.5 416 Q327 517 327 685 Q327 870 443 1015.5 Q559 1161 751 1161 Q830 1161 892 1128.5 Q954 1096 998 1030 L1019 1135 L1215 1135 L1116 552 Q1106 490 1106 482 Q1106 471 1116.5 461.5 Q1127 452 1141 452 Q1176 452 1235.5 500.5 Q1295 549 1332.5 640.5 Q1370 732 1370 841 Q1370 1003 1299 1127 Q1228 1251 1095 1322 Q962 1393 790 1393 Q609 1393 465 1312.5 Q321 1232 238 1084.5 Q155 937 155 760 Q155 579 239 432 Q323 285 474 203 Q625 121 812 121 Q922 121 1020 162 Q1118 203 1228 301 Z M739 526 Q826 526 883 597.5 Q940 669 940 759 Q940 837 893.5 886.5 Q847 936 777 936 Q695 936 634 868.5 Q573 801 573 705 Q573 624 619 575 Q665 526 739 526 Z " />
<glyph glyph-name="A" unicode="A" horiz-adv-x="1515" d="M616 1471 L900 1471 L1466 0 L1175 0 L1060 303 L460 303 L340 0 L49 0 L616 1471 Z M760 1081 L564 576 L955 576 L760 1081 Z " />
<glyph glyph-name="B" unicode="B" horiz-adv-x="1188" d="M168 0 L168 1471 L399 1471 Q600 1471 693 1445 Q825 1410 903 1315 Q981 1220 981 1091 Q981 1007 945.5 938.5 Q910 870 830 810 Q964 747 1026 652.5 Q1088 558 1088 429 Q1088 305 1024 203 Q960 101 859 50.5 Q758 0 580 0 L168 0 Z M448 1204 L448 894 L509 894 Q611 894 660.5 937 Q710 980 710 1054 Q710 1123 663 1163.5 Q616 1204 520 1204 L448 1204 Z M448 644 L448 267 L518 267 Q692 267 752.5 311 Q813 355 813 439 Q813 534 742 589 Q671 644 506 644 L448 644 Z " />
<glyph glyph-name="C" unicode="C" horiz-adv-x="1597" d="M1520 1212 L1324 1025 Q1124 1236 874 1236 Q663 1236 518.5 1092 Q374 948 374 737 Q374 590 438 476 Q502 362 619 297 Q736 232 879 232 Q1001 232 1102 277.5 Q1203 323 1324 443 L1514 245 Q1351 86 1206 24.5 Q1061 -37 875 -37 Q532 -37 313.5 180.5 Q95 398 95 738 Q95 958 194.5 1129 Q294 1300 479.5 1404 Q665 1508 879 1508 Q1061 1508 1229.5 1431 Q1398 1354 1520 1212 Z " />
<glyph glyph-name="D" unicode="D" horiz-adv-x="1434" d="M169 1471 L501 1471 Q822 1471 978 1391.5 Q1134 1312 1235 1133 Q1336 954 1336 715 Q1336 545 1279.5 402.5 Q1223 260 1123.5 166 Q1024 72 908 36 Q792 0 506 0 L169 0 L169 1471 Z M448 1201 L448 274 L578 274 Q770 274 856.5 318 Q943 362 998 466 Q1053 570 1053 722 Q1053 956 922 1085 Q804 1201 543 1201 L448 1201 Z " />
<glyph glyph-name="E" unicode="E" horiz-adv-x="1065" d="M169 1471 L972 1471 L972 1197 L447 1197 L447 931 L972 931 L972 662 L447 662 L447 275 L972 275 L972 0 L169 0 L169 1471 Z " />
<glyph glyph-name="F" unicode="F" horiz-adv-x="983" d="M172 1471 L902 1471 L902 1198 L449 1198 L449 931 L902 931 L902 662 L449 662 L449 0 L172 0 L172 1471 Z " />
<glyph glyph-name="G" unicode="G" horiz-adv-x="1720" d="M1526 1231 L1329 1036 Q1142 1234 893 1234 Q676 1234 529.5 1090 Q383 946 383 740 Q383 527 535 379 Q687 231 910 231 Q1055 231 1154.5 292 Q1254 353 1315 483 L889 483 L889 746 L1629 746 L1631 684 Q1631 491 1531 318 Q1431 145 1272 54 Q1113 -37 899 -37 Q670 -37 490.5 62.5 Q311 162 206.5 346 Q102 530 102 743 Q102 1035 295 1251 Q524 1508 891 1508 Q1083 1508 1250 1437 Q1391 1377 1526 1231 Z " />
<glyph glyph-name="H" unicode="H" horiz-adv-x="1393" d="M167 1471 L451 1471 L451 916 L943 916 L943 1471 L1226 1471 L1226 0 L943 0 L943 645 L451 645 L451 0 L167 0 L167 1471 Z " />
<glyph glyph-name="I" unicode="I" horiz-adv-x="573" d="M148 1471 L426 1471 L426 0 L148 0 L148 1471 Z " />
<glyph glyph-name="J" unicode="J" horiz-adv-x="983" d="M534 1471 L815 1471 L815 495 Q815 262 778 168 Q741 74 656 18.5 Q571 -37 452 -37 Q209 -37 38 176 L240 365 Q307 289 354 263 Q401 237 445 237 Q490 237 512 275 Q534 313 534 442 L534 1471 Z " />
<glyph glyph-name="K" unicode="K" horiz-adv-x="1270" d="M170 1471 L453 1471 L453 965 L852 1471 L1189 1471 L675 815 L1239 0 L907 0 L453 653 L453 0 L170 0 L170 1471 Z " />
<glyph glyph-name="L" unicode="L" horiz-adv-x="901" d="M168 1471 L448 1471 L448 267 L856 267 L856 0 L168 0 L168 1471 Z " />
<glyph glyph-name="M" unicode="M" horiz-adv-x="1843" d="M310 1471 L584 1471 L924 445 L1269 1471 L1539 1471 L1787 0 L1517 0 L1359 929 L1046 0 L799 0 L490 929 L329 0 L56 0 L310 1471 Z " />
<glyph glyph-name="N" unicode="N" horiz-adv-x="1515" d="M169 1471 L437 1471 L1068 503 L1068 1471 L1348 1471 L1348 0 L1079 0 L449 965 L449 0 L169 0 L169 1471 Z " />
<glyph glyph-name="O" unicode="O" horiz-adv-x="1720" d="M863 1508 Q1175 1508 1399.5 1282 Q1624 1056 1624 731 Q1624 409 1402.5 186 Q1181 -37 865 -37 Q534 -37 315 192 Q96 421 96 736 Q96 947 198 1124 Q300 1301 478.5 1404.5 Q657 1508 863 1508 Z M860 1234 Q656 1234 517 1092 Q378 950 378 731 Q378 487 553 345 Q689 234 865 234 Q1064 234 1204 378 Q1344 522 1344 733 Q1344 943 1203 1088.5 Q1062 1234 860 1234 Z " />
<glyph glyph-name="P" unicode="P" horiz-adv-x="1147" d="M167 1471 L464 1471 Q705 1471 811.5 1426.5 Q918 1382 979.5 1282.5 Q1041 1183 1041 1044 Q1041 890 960.5 788 Q880 686 742 646 Q661 623 447 623 L447 0 L167 0 L167 1471 Z M447 896 L536 896 Q641 896 682 911 Q723 926 746.5 960.5 Q770 995 770 1044 Q770 1129 704 1168 Q656 1197 526 1197 L447 1197 L447 896 Z " />
<glyph glyph-name="Q" unicode="Q" horiz-adv-x="1720" d="M1430 215 L1686 -116 L1354 -116 L1224 51 Q1063 -37 865 -37 Q534 -37 315 191.5 Q96 420 96 736 Q96 947 198 1123.5 Q300 1300 478.5 1404 Q657 1508 862 1508 Q1175 1508 1399.5 1282 Q1624 1056 1624 731 Q1624 432 1430 215 Z M1255 441 Q1344 573 1344 733 Q1344 942 1203 1088 Q1062 1234 862 1234 Q656 1234 517 1092 Q378 950 378 731 Q378 487 553 345 Q690 234 864 234 Q964 234 1052 273 L789 612 L1123 612 L1255 441 Z " />
<glyph glyph-name="R" unicode="R" horiz-adv-x="1188" d="M187 1471 L484 1471 Q728 1471 831.5 1427.5 Q935 1384 998 1283 Q1061 1182 1061 1044 Q1061 899 991.5 801.5 Q922 704 782 654 L1130 0 L824 0 L493 623 L467 623 L467 0 L187 0 L187 1471 Z M467 896 L555 896 Q689 896 739.5 931 Q790 966 790 1047 Q790 1095 765 1130.5 Q740 1166 698 1181.5 Q656 1197 544 1197 L467 1197 L467 896 Z " />
<glyph glyph-name="S" unicode="S" horiz-adv-x="1065" d="M939 1271 L732 1088 Q623 1240 510 1240 Q455 1240 420 1210.5 Q385 1181 385 1144 Q385 1107 410 1074 Q444 1030 615 885 Q775 751 809 716 Q894 630 929.5 551.5 Q965 473 965 380 Q965 199 840 81 Q715 -37 514 -37 Q357 -37 240.5 40 Q124 117 41 282 L276 424 Q382 229 520 229 Q592 229 641 271 Q690 313 690 368 Q690 418 653 468 Q616 518 490 621 Q250 817 180 923.5 Q110 1030 110 1136 Q110 1289 226.5 1398.5 Q343 1508 514 1508 Q624 1508 723.5 1457 Q823 1406 939 1271 Z " />
<glyph glyph-name="T" unicode="T" horiz-adv-x="860" d="M23 1471 L836 1471 L836 1195 L568 1195 L568 0 L284 0 L284 1195 L23 1195 L23 1471 Z " />
<glyph glyph-name="U" unicode="U" horiz-adv-x="1311" d="M158 1471 L439 1471 L439 519 Q439 396 460.5 345 Q482 294 531.5 263.5 Q581 233 651 233 Q725 233 778.5 267 Q832 301 852.5 353.5 Q873 406 873 554 L873 1471 L1154 1471 L1154 594 Q1154 372 1129 286 Q1104 200 1033.5 120 Q963 40 871 1.5 Q779 -37 657 -37 Q497 -37 378.5 36.5 Q260 110 209 220.5 Q158 331 158 594 L158 1471 Z " />
<glyph glyph-name="V" unicode="V" horiz-adv-x="1434" d="M56 1471 L344 1471 L714 426 L1089 1471 L1377 1471 L847 0 L577 0 L56 1471 Z " />
<glyph glyph-name="W" unicode="W" horiz-adv-x="1843" d="M56 1471 L332 1471 L544 532 L807 1471 L1040 1471 L1306 532 L1516 1471 L1792 1471 L1461 0 L1192 0 L921 951 L655 0 L389 0 L56 1471 Z " />
<glyph glyph-name="X" unicode="X" horiz-adv-x="1393" d="M72 1471 L387 1471 L695 1000 L1006 1471 L1321 1471 L853 759 L1350 0 L1035 0 L695 517 L358 0 L41 0 L538 759 L72 1471 Z " />
<glyph glyph-name="Y" unicode="Y" horiz-adv-x="1270" d="M63 1471 L364 1471 L638 943 L910 1471 L1207 1471 L777 637 L777 0 L495 0 L495 637 L63 1471 Z " />
<glyph glyph-name="Z" unicode="Z" horiz-adv-x="1024" d="M90 1471 L980 1471 L455 269 L946 269 L946 0 L47 0 L570 1194 L90 1194 L90 1471 Z " />
<glyph glyph-name="bracketleft" unicode="&#x5b;" horiz-adv-x="655" d="M169 1508 L607 1508 L607 1253 L445 1253 L445 -144 L607 -144 L607 -398 L169 -398 L169 1508 Z " />
<glyph glyph-name="backslash" unicode="&#x5c;" horiz-adv-x="1311" d="M1082 -262 L889 -262 L228 1513 L421 1513 L1082 -262 Z " />
<glyph glyph-name="bracketright" unicode="&#x5d;" horiz-adv-x="655" d="M486 -398 L48 -398 L48 -143 L210 -143 L210 1254 L48 1254 L48 1508 L486 1508 L486 -398 Z " />
<glyph glyph-name="asciicircum" unicode="&#x5e;" horiz-adv-x="1229" d="M497 1471 L729 1471 L1119 366 L877 366 L615 1114 L352 366 L109 366 L497 1471 Z " />
<glyph glyph-name="underscore" unicode="&#x5f;" horiz-adv-x="1024" d="M-12 -154 L1036 -154 L1036 -256 L-12 -256 L-12 -154 Z " />
<glyph glyph-name="grave" unicode="&#x60;" horiz-adv-x="860" d="M382 1679 L621 1287 L425 1287 L59 1679 L382 1679 Z " />
<glyph glyph-name="a" unicode="a" horiz-adv-x="1352" d="M942 1088 L1214 1088 L1214 0 L942 0 L942 115 Q862 39 781.5 5.5 Q701 -28 607 -28 Q396 -28 242 135.5 Q88 299 88 542 Q88 794 237 955 Q386 1116 599 1116 Q697 1116 783 1079 Q869 1042 942 968 L942 1088 Z M655 864 Q528 864 444 774.5 Q360 685 360 545 Q360 404 445.5 313 Q531 222 656 222 Q785 222 870 311.5 Q955 401 955 546 Q955 688 870 776 Q785 864 655 864 Z " />
<glyph glyph-name="b" unicode="b" horiz-adv-x="1352" d="M409 1508 L409 968 Q483 1042 569 1079 Q655 1116 753 1116 Q966 1116 1115 955 Q1264 794 1264 542 Q1264 299 1110 135.5 Q956 -28 745 -28 Q651 -28 570 5.5 Q489 39 409 115 L409 0 L138 0 L138 1508 L409 1508 Z M696 864 Q567 864 482 776 Q397 688 397 546 Q397 401 482 311.5 Q567 222 696 222 Q821 222 906.5 313 Q992 404 992 545 Q992 685 908 774.5 Q824 864 696 864 Z " />
<glyph glyph-name="c" unicode="c" horiz-adv-x="1311" d="M1203 868 L976 743 Q912 810 849.5 836 Q787 862 703 862 Q550 862 455.5 770.5 Q361 679 361 536 Q361 397 452 309 Q543 221 691 221 Q874 221 976 346 L1191 199 Q1016 -28 697 -28 Q410 -28 247.5 142 Q85 312 85 540 Q85 698 164 831 Q243 964 384.5 1040 Q526 1116 701 1116 Q863 1116 992 1051.5 Q1121 987 1203 868 Z " />
<glyph glyph-name="d" unicode="d" horiz-adv-x="1352" d="M942 1508 L1214 1508 L1214 0 L942 0 L942 115 Q862 39 781.5 5.5 Q701 -28 607 -28 Q396 -28 242 135.5 Q88 299 88 542 Q88 794 237 955 Q386 1116 599 1116 Q697 1116 783 1079 Q869 1042 942 968 L942 1508 Z M655 864 Q528 864 444 774.5 Q360 685 360 545 Q360 404 445.5 313 Q531 222 656 222 Q785 222 870 311.5 Q955 401 955 546 Q955 688 870 776 Q785 864 655 864 Z " />
<glyph glyph-name="e" unicode="e" horiz-adv-x="1311" d="M1228 465 L351 465 Q370 349 452.5 280.5 Q535 212 663 212 Q816 212 926 319 L1156 211 Q1070 89 950 30.5 Q830 -28 665 -28 Q409 -28 248 133.5 Q87 295 87 538 Q87 787 247.5 951.5 Q408 1116 650 1116 Q907 1116 1068 951.5 Q1229 787 1229 517 L1228 465 Z M954 680 Q927 771 847.5 828 Q768 885 663 885 Q549 885 463 821 Q409 781 363 680 L954 680 Z " />
<glyph glyph-name="f" unicode="f" horiz-adv-x="573" d="M8 1088 L105 1088 Q106 1302 112 1341 Q123 1431 187.5 1483.5 Q252 1536 370 1536 Q455 1536 562 1497 L562 1289 Q503 1306 465 1306 Q417 1306 395 1286 Q379 1271 379 1224 L378 1088 L551 1088 L551 856 L378 856 L378 0 L105 0 L105 856 L8 856 L8 1088 Z " />
<glyph glyph-name="g" unicode="g" horiz-adv-x="1352" d="M942 1088 L1214 1088 L1214 156 Q1214 -120 1103 -250 Q954 -426 654 -426 Q494 -426 385 -386 Q276 -346 201 -268.5 Q126 -191 90 -80 L391 -80 Q431 -126 494 -149.5 Q557 -173 643 -173 Q753 -173 820 -139 Q887 -105 914.5 -51 Q942 3 942 135 Q870 63 791 31.5 Q712 0 612 0 Q393 0 242 158 Q91 316 91 558 Q91 817 251 974 Q396 1116 597 1116 Q691 1116 774.5 1081.5 Q858 1047 942 968 L942 1088 Z M659 861 Q530 861 446 774.5 Q362 688 362 557 Q362 421 448 334 Q534 247 664 247 Q791 247 873.5 332 Q956 417 956 555 Q956 691 873 776 Q790 861 659 861 Z " />
<glyph glyph-name="h" unicode="h" horiz-adv-x="1229" d="M139 1508 L410 1508 L410 978 Q490 1047 571 1081.5 Q652 1116 735 1116 Q897 1116 1008 1004 Q1103 907 1103 719 L1103 0 L834 0 L834 477 Q834 666 816 733 Q798 800 754.5 833 Q711 866 647 866 Q564 866 504.5 811 Q445 756 422 661 Q410 612 410 437 L410 0 L139 0 L139 1508 Z " />
<glyph glyph-name="i" unicode="i" horiz-adv-x="491" d="M245 1536 Q317 1536 368.5 1484 Q420 1432 420 1358 Q420 1285 369 1233.5 Q318 1182 247 1182 Q174 1182 122.5 1234.5 Q71 1287 71 1362 Q71 1434 122 1485 Q173 1536 245 1536 Z M108 1088 L382 1088 L382 0 L108 0 L108 1088 Z " />
<glyph glyph-name="j" unicode="j" horiz-adv-x="532" d="M266 1536 Q339 1536 390.5 1484 Q442 1432 442 1358 Q442 1285 391 1233 Q340 1181 269 1181 Q196 1181 144.5 1234 Q93 1287 93 1362 Q93 1434 143.5 1485 Q194 1536 266 1536 Z M130 1088 L403 1088 L403 -36 Q403 -191 372.5 -267.5 Q342 -344 276 -385 Q210 -426 117 -426 Q35 -426 -87 -385 L-87 -170 Q-23 -201 26 -201 Q78 -201 104 -170 Q130 -139 130 -56 L130 1088 Z " />
<glyph glyph-name="k" unicode="k" horiz-adv-x="1188" d="M140 1508 L413 1508 L413 639 L815 1088 L1157 1088 L689 566 L1214 0 L875 0 L413 501 L413 0 L140 0 L140 1508 Z " />
<glyph glyph-name="l" unicode="l" horiz-adv-x="491" d="M109 1508 L382 1508 L382 0 L109 0 L109 1508 Z " />
<glyph glyph-name="m" unicode="m" horiz-adv-x="1925" d="M136 1088 L410 1088 L410 963 Q480 1040 565.5 1078 Q651 1116 752 1116 Q854 1116 936 1066 Q1018 1016 1068 920 Q1133 1016 1227.5 1066 Q1322 1116 1434 1116 Q1550 1116 1638 1062 Q1726 1008 1764.5 921 Q1803 834 1803 638 L1803 0 L1528 0 L1528 552 Q1528 737 1482 802.5 Q1436 868 1344 868 Q1274 868 1218.5 828 Q1163 788 1136 717.5 Q1109 647 1109 491 L1109 0 L834 0 L834 527 Q834 673 812.5 738.5 Q791 804 748 836 Q705 868 644 868 Q576 868 520.5 827.5 Q465 787 437.5 714 Q410 641 410 484 L410 0 L136 0 L136 1088 Z " />
<glyph glyph-name="n" unicode="n" horiz-adv-x="1229" d="M138 1088 L410 1088 L410 977 Q503 1055 578.5 1085.5 Q654 1116 733 1116 Q895 1116 1008 1003 Q1103 907 1103 719 L1103 0 L833 0 L833 477 Q833 672 815.5 736 Q798 800 754.5 833.5 Q711 867 647 867 Q564 867 504.5 811.5 Q445 756 422 658 Q410 607 410 437 L410 0 L138 0 L138 1088 Z " />
<glyph glyph-name="o" unicode="o" horiz-adv-x="1311" d="M649 1116 Q803 1116 938.5 1039 Q1074 962 1150 830 Q1226 698 1226 545 Q1226 391 1149.5 257 Q1073 123 941 47.5 Q809 -28 650 -28 Q416 -28 250.5 138.5 Q85 305 85 543 Q85 798 272 968 Q436 1116 649 1116 Z M653 859 Q526 859 441.5 770.5 Q357 682 357 544 Q357 402 440.5 314 Q524 226 652 226 Q780 226 865 315 Q950 404 950 544 Q950 684 866.5 771.5 Q783 859 653 859 Z " />
<glyph glyph-name="p" unicode="p" horiz-adv-x="1352" d="M409 1088 L409 968 Q483 1042 569 1079 Q655 1116 753 1116 Q966 1116 1115 955 Q1264 794 1264 542 Q1264 299 1110 135.5 Q956 -28 745 -28 Q651 -28 570 5.5 Q489 39 409 115 L409 -398 L138 -398 L138 1088 L409 1088 Z M696 864 Q567 864 482 776 Q397 688 397 546 Q397 401 482 311.5 Q567 222 696 222 Q821 222 906.5 313 Q992 404 992 545 Q992 685 908 774.5 Q824 864 696 864 Z " />
<glyph glyph-name="q" unicode="q" horiz-adv-x="1352" d="M942 1088 L1214 1088 L1214 -398 L942 -398 L942 115 Q862 39 781.5 5.5 Q701 -28 607 -28 Q396 -28 242 135.5 Q88 299 88 542 Q88 794 237 955 Q386 1116 599 1116 Q697 1116 783 1079 Q869 1042 942 968 L942 1088 Z M655 864 Q528 864 444 774.5 Q360 685 360 545 Q360 404 445.5 313 Q531 222 656 222 Q785 222 870 311.5 Q955 401 955 546 Q955 688 870 776 Q785 864 655 864 Z " />
<glyph glyph-name="r" unicode="r" horiz-adv-x="655" d="M74 1088 L308 1088 L308 951 Q346 1032 409 1074 Q472 1116 547 1116 Q600 1116 658 1088 L573 853 Q525 877 494 877 Q431 877 387.5 799 Q344 721 344 493 L345 440 L345 0 L74 0 L74 1088 Z " />
<glyph glyph-name="s" unicode="s" horiz-adv-x="901" d="M804 936 L635 767 Q532 869 448 869 Q402 869 376 849.5 Q350 830 350 801 Q350 779 366.5 760.5 Q383 742 448 710 L548 660 Q706 582 765 501 Q824 420 824 311 Q824 166 717.5 69 Q611 -28 432 -28 Q194 -28 52 158 L220 341 Q268 285 332.5 250.5 Q397 216 447 216 Q501 216 534 242 Q567 268 567 302 Q567 365 448 425 L356 471 Q92 604 92 804 Q92 933 191.5 1024.5 Q291 1116 446 1116 Q552 1116 645.5 1069.5 Q739 1023 804 936 Z " />
<glyph glyph-name="t" unicode="t" horiz-adv-x="614" d="M171 1489 L443 1489 L443 1088 L605 1088 L605 853 L443 853 L443 0 L171 0 L171 853 L31 853 L31 1088 L171 1088 L171 1489 Z " />
<glyph glyph-name="u" unicode="u" horiz-adv-x="1229" d="M137 1088 L413 1088 L413 564 Q413 411 434 351.5 Q455 292 501.5 259 Q548 226 616 226 Q684 226 731.5 258.5 Q779 291 802 354 Q819 401 819 555 L819 1088 L1093 1088 L1093 627 Q1093 342 1048 237 Q993 109 886 40.5 Q779 -28 614 -28 Q435 -28 324.5 52 Q214 132 169 275 Q137 374 137 635 L137 1088 Z " />
<glyph glyph-name="v" unicode="v" horiz-adv-x="1147" d="M21 1088 L299 1088 L574 446 L848 1088 L1125 1088 L662 0 L485 0 L21 1088 Z " />
<glyph glyph-name="w" unicode="w" horiz-adv-x="1638" d="M17 1088 L284 1088 L503 469 L739 1088 L902 1088 L1133 476 L1352 1088 L1621 1088 L1224 0 L1051 0 L819 620 L580 0 L409 0 L17 1088 Z " />
<glyph glyph-name="x" unicode="x" horiz-adv-x="1147" d="M40 1088 L357 1088 L570 791 L786 1088 L1100 1088 L728 573 L1146 0 L829 0 L570 357 L314 0 L1 0 L413 573 L40 1088 Z " />
<glyph glyph-name="y" unicode="y" horiz-adv-x="1188" d="M17 1088 L296 1088 L579 405 L891 1088 L1171 1088 L489 -398 L207 -398 L431 81 L17 1088 Z " />
<glyph glyph-name="z" unicode="z" horiz-adv-x="942" d="M91 1088 L926 1088 L436 231 L898 231 L898 0 L16 0 L508 857 L91 857 L91 1088 Z " />
<glyph glyph-name="braceleft" unicode="&#x7b;" horiz-adv-x="696" d="M13 390 L13 630 Q102 634 144.5 665 Q187 696 209.5 762 Q232 828 232 985 Q232 1183 250 1255.5 Q268 1328 307.5 1371.5 Q347 1415 423.5 1443 Q500 1471 644 1471 L697 1471 L697 1231 Q590 1231 557 1219.5 Q524 1208 508.5 1182 Q493 1156 493 1086 Q493 960 481 805 Q473 704 426 624 Q391 565 305 509 Q378 467 421 402.5 Q464 338 478 239 Q484 196 492 -41 Q495 -128 503 -149 Q516 -180 551.5 -196 Q587 -212 697 -212 L697 -451 L644 -451 Q499 -451 429 -427.5 Q359 -404 315 -358.5 Q271 -313 251.5 -243.5 Q232 -174 232 -4 Q232 186 211.5 252.5 Q191 319 147.5 352 Q104 385 13 390 Z " />
<glyph glyph-name="bar" unicode="&#x7c;" horiz-adv-x="1229" d="M536 1508 L694 1508 L694 -398 L536 -398 L536 1508 Z " />
<glyph glyph-name="braceright" unicode="&#x7d;" horiz-adv-x="696" d="M683 630 L683 390 Q594 385 551.5 354.5 Q509 324 486 257.5 Q463 191 463 34 Q463 -164 445.5 -236 Q428 -308 388.5 -351.5 Q349 -395 272.5 -423 Q196 -451 52 -451 L-1 -451 L-1 -212 Q106 -212 138.5 -200.5 Q171 -189 187 -163 Q203 -137 203 -67 Q203 60 215 215 Q222 316 269 395 Q305 455 391 510 Q318 552 275 616.5 Q232 681 218 781 Q212 823 204 1060 Q201 1148 192 1168 Q179 1200 143.5 1215.5 Q108 1231 -1 1231 L-1 1471 L52 1471 Q197 1471 266.5 1447 Q336 1423 380.5 1377.5 Q425 1332 444.5 1262.5 Q464 1193 464 1023 Q464 833 484.5 767 Q505 701 548 668 Q591 635 683 630 Z " />
<glyph glyph-name="asciitilde" unicode="&#x7e;" horiz-adv-x="1229" d="M100 564 L100 883 Q252 957 350 957 Q414 957 490.5 935.5 Q567 914 694 853 Q777 812 803 805 Q838 795 872 795 Q983 795 1130 908 L1130 586 Q1004 514 883 514 Q817 514 750 532 Q683 550 532 617 Q436 659 403.5 667.5 Q371 676 338 676 Q288 676 237 654 Q186 632 100 564 Z " />
<glyph glyph-name="Adieresis" unicode="&#xc4;" horiz-adv-x="1515" d="M616 1471 L900 1471 L1466 0 L1175 0 L1060 303 L460 303 L340 0 L49 0 L616 1471 Z M760 1081 L564 576 L955 576 L760 1081 Z M535 1871 Q595 1871 637 1829 Q679 1787 679 1728 Q679 1668 637 1626 Q595 1584 535 1584 Q476 1584 434 1626 Q392 1668 392 1728 Q392 1787 434 1829 Q476 1871 535 1871 Z M978 1871 Q1038 1871 1080 1829 Q1122 1787 1122 1728 Q1122 1668 1080 1626 Q1038 1584 978 1584 Q919 1584 877 1626 Q835 1668 835 1728 Q835 1787 877 1829 Q919 1871 978 1871 Z " />
<glyph glyph-name="Aring" unicode="&#xc5;" horiz-adv-x="1515" d="M616 1471 L900 1471 L1466 0 L1175 0 L1060 303 L460 303 L340 0 L49 0 L616 1471 Z M760 1081 L564 576 L955 576 L760 1081 Z M757 2032 Q848 2032 912 1966.5 Q976 1901 976 1809 Q976 1716 911.5 1650.5 Q847 1585 757 1585 Q667 1585 602.5 1650.5 Q538 1716 538 1809 Q538 1901 602 1966.5 Q666 2032 757 2032 Z M757 1903 Q723 1903 699 1877 Q675 1851 675 1814 Q675 1776 699.5 1750 Q724 1724 757 1724 Q790 1724 814.5 1750 Q839 1776 839 1814 Q839 1851 815 1877 Q791 1903 757 1903 Z " />
<glyph glyph-name="Ccedilla" unicode="&#xc7;" horiz-adv-x="1597" d="M1520 1212 L1324 1025 Q1124 1236 874 1236 Q663 1236 518.5 1092 Q374 948 374 737 Q374 590 438 476 Q502 362 619 297 Q736 232 879 232 Q1001 232 1102 277.5 Q1203 323 1324 443 L1514 245 Q1351 86 1206 24.5 Q1061 -37 875 -37 Q532 -37 313.5 180.5 Q95 398 95 738 Q95 958 194.5 1129 Q294 1300 479.5 1404 Q665 1508 879 1508 Q1061 1508 1229.5 1431 Q1398 1354 1520 1212 Z M713 16 L882 16 L870 -30 Q937 -45 975.5 -88.5 Q1014 -132 1014 -184 Q1014 -265 946 -323 Q878 -381 757 -381 Q659 -381 535 -335 L571 -206 Q643 -229 712 -229 Q763 -229 788 -209.5 Q813 -190 813 -158 Q813 -132 794 -117 Q775 -102 734 -102 L678 -104 L713 16 Z " />
<glyph glyph-name="Eacute" unicode="&#xc9;" horiz-adv-x="1065" d="M169 1471 L972 1471 L972 1197 L447 1197 L447 931 L972 931 L972 662 L447 662 L447 275 L972 275 L972 0 L169 0 L169 1471 Z M617 1977 L940 1977 L574 1585 L378 1585 L617 1977 Z " />
<glyph glyph-name="Ntilde" unicode="&#xd1;" horiz-adv-x="1515" d="M169 1471 L437 1471 L1068 503 L1068 1471 L1348 1471 L1348 0 L1079 0 L449 965 L449 0 L169 0 L169 1471 Z M452 1589 L342 1754 Q470 1853 601 1853 Q650 1853 769 1819 Q850 1797 898 1797 Q982 1797 1072 1849 L1176 1693 Q1050 1585 932 1585 Q869 1585 781 1612 Q709 1633 690 1637 Q664 1641 628 1641 Q540 1641 452 1589 Z " />
<glyph glyph-name="Odieresis" unicode="&#xd6;" horiz-adv-x="1720" d="M863 1508 Q1175 1508 1399.5 1282 Q1624 1056 1624 731 Q1624 409 1402.5 186 Q1181 -37 865 -37 Q534 -37 315 192 Q96 421 96 736 Q96 947 198 1124 Q300 1301 478.5 1404.5 Q657 1508 863 1508 Z M860 1234 Q656 1234 517 1092 Q378 950 378 731 Q378 487 553 345 Q689 234 865 234 Q1064 234 1204 378 Q1344 522 1344 733 Q1344 943 1203 1088.5 Q1062 1234 860 1234 Z M638 1871 Q698 1871 740 1829 Q782 1787 782 1728 Q782 1668 740 1626 Q698 1584 638 1584 Q579 1584 537 1626 Q495 1668 495 1728 Q495 1787 537 1829 Q579 1871 638 1871 Z M1081 1871 Q1141 1871 1183 1829 Q1225 1787 1225 1728 Q1225 1668 1183 1626 Q1141 1584 1081 1584 Q1022 1584 980 1626 Q938 1668 938 1728 Q938 1787 980 1829 Q1022 1871 1081 1871 Z " />
<glyph glyph-name="Udieresis" unicode="&#xdc;" horiz-adv-x="1311" d="M158 1471 L439 1471 L439 519 Q439 396 460.5 345 Q482 294 531.5 263.5 Q581 233 651 233 Q725 233 778.5 267 Q832 301 852.5 353.5 Q873 406 873 554 L873 1471 L1154 1471 L1154 594 Q1154 372 1129 286 Q1104 200 1033.5 120 Q963 40 871 1.5 Q779 -37 657 -37 Q497 -37 378.5 36.5 Q260 110 209 220.5 Q158 331 158 594 L158 1471 Z M434 1871 Q494 1871 536 1829 Q578 1787 578 1728 Q578 1668 536 1626 Q494 1584 434 1584 Q375 1584 333 1626 Q291 1668 291 1728 Q291 1787 333 1829 Q375 1871 434 1871 Z M877 1871 Q937 1871 979 1829 Q1021 1787 1021 1728 Q1021 1668 979 1626 Q937 1584 877 1584 Q818 1584 776 1626 Q734 1668 734 1728 Q734 1787 776 1829 Q818 1871 877 1871 Z " />
<glyph glyph-name="aacute" unicode="&#xe1;" horiz-adv-x="1352" d="M942 1088 L1214 1088 L1214 0 L942 0 L942 115 Q862 39 781.5 5.5 Q701 -28 607 -28 Q396 -28 242 135.5 Q88 299 88 542 Q88 794 237 955 Q386 1116 599 1116 Q697 1116 783 1079 Q869 1042 942 968 L942 1088 Z M655 864 Q528 864 444 774.5 Q360 685 360 545 Q360 404 445.5 313 Q531 222 656 222 Q785 222 870 311.5 Q955 401 955 546 Q955 688 870 776 Q785 864 655 864 Z M724 1679 L1047 1679 L681 1287 L485 1287 L724 1679 Z " />
<glyph glyph-name="agrave" unicode="&#xe0;" horiz-adv-x="1352" d="M942 1088 L1214 1088 L1214 0 L942 0 L942 115 Q862 39 781.5 5.5 Q701 -28 607 -28 Q396 -28 242 135.5 Q88 299 88 542 Q88 794 237 955 Q386 1116 599 1116 Q697 1116 783 1079 Q869 1042 942 968 L942 1088 Z M655 864 Q528 864 444 774.5 Q360 685 360 545 Q360 404 445.5 313 Q531 222 656 222 Q785 222 870 311.5 Q955 401 955 546 Q955 688 870 776 Q785 864 655 864 Z M628 1679 L867 1287 L671 1287 L305 1679 L628 1679 Z " />
<glyph glyph-name="acircumflex" unicode="&#xe2;" horiz-adv-x="1352" d="M942 1088 L1214 1088 L1214 0 L942 0 L942 115 Q862 39 781.5 5.5 Q701 -28 607 -28 Q396 -28 242 135.5 Q88 299 88 542 Q88 794 237 955 Q386 1116 599 1116 Q697 1116 783 1079 Q869 1042 942 968 L942 1088 Z M655 864 Q528 864 444 774.5 Q360 685 360 545 Q360 404 445.5 313 Q531 222 656 222 Q785 222 870 311.5 Q955 401 955 546 Q955 688 870 776 Q785 864 655 864 Z M267 1287 L567 1570 L786 1570 L1084 1287 L786 1287 L678 1418 L567 1287 L267 1287 Z " />
<glyph glyph-name="adieresis" unicode="&#xe4;" horiz-adv-x="1352" d="M942 1088 L1214 1088 L1214 0 L942 0 L942 115 Q862 39 781.5 5.5 Q701 -28 607 -28 Q396 -28 242 135.5 Q88 299 88 542 Q88 794 237 955 Q386 1116 599 1116 Q697 1116 783 1079 Q869 1042 942 968 L942 1088 Z M655 864 Q528 864 444 774.5 Q360 685 360 545 Q360 404 445.5 313 Q531 222 656 222 Q785 222 870 311.5 Q955 401 955 546 Q955 688 870 776 Q785 864 655 864 Z M454 1573 Q514 1573 556 1531 Q598 1489 598 1430 Q598 1370 556 1328 Q514 1286 454 1286 Q395 1286 353 1328 Q311 1370 311 1430 Q311 1489 353 1531 Q395 1573 454 1573 Z M897 1573 Q957 1573 999 1531 Q1041 1489 1041 1430 Q1041 1370 999 1328 Q957 1286 897 1286 Q838 1286 796 1328 Q754 1370 754 1430 Q754 1489 796 1531 Q838 1573 897 1573 Z " />
<glyph glyph-name="atilde" unicode="&#xe3;" horiz-adv-x="1352" d="M942 1088 L1214 1088 L1214 0 L942 0 L942 115 Q862 39 781.5 5.5 Q701 -28 607 -28 Q396 -28 242 135.5 Q88 299 88 542 Q88 794 237 955 Q386 1116 599 1116 Q697 1116 783 1079 Q869 1042 942 968 L942 1088 Z M655 864 Q528 864 444 774.5 Q360 685 360 545 Q360 404 445.5 313 Q531 222 656 222 Q785 222 870 311.5 Q955 401 955 546 Q955 688 870 776 Q785 864 655 864 Z M369 1291 L259 1456 Q387 1555 518 1555 Q567 1555 686 1521 Q767 1499 815 1499 Q899 1499 989 1551 L1093 1395 Q967 1287 849 1287 Q786 1287 698 1314 Q626 1335 607 1339 Q581 1343 545 1343 Q457 1343 369 1291 Z " />
<glyph glyph-name="aring" unicode="&#xe5;" horiz-adv-x="1352" d="M942 1088 L1214 1088 L1214 0 L942 0 L942 115 Q862 39 781.5 5.5 Q701 -28 607 -28 Q396 -28 242 135.5 Q88 299 88 542 Q88 794 237 955 Q386 1116 599 1116 Q697 1116 783 1079 Q869 1042 942 968 L942 1088 Z M655 864 Q528 864 444 774.5 Q360 685 360 545 Q360 404 445.5 313 Q531 222 656 222 Q785 222 870 311.5 Q955 401 955 546 Q955 688 870 776 Q785 864 655 864 Z M676 1734 Q767 1734 831 1668.5 Q895 1603 895 1511 Q895 1418 830.5 1352.5 Q766 1287 676 1287 Q586 1287 521.5 1352.5 Q457 1418 457 1511 Q457 1603 521 1668.5 Q585 1734 676 1734 Z M676 1605 Q642 1605 618 1579 Q594 1553 594 1516 Q594 1478 618.5 1452 Q643 1426 676 1426 Q709 1426 733.5 1452 Q758 1478 758 1516 Q758 1553 734 1579 Q710 1605 676 1605 Z " />
<glyph glyph-name="ccedilla" unicode="&#xe7;" horiz-adv-x="1311" d="M1203 868 L976 743 Q912 810 849.5 836 Q787 862 703 862 Q550 862 455.5 770.5 Q361 679 361 536 Q361 397 452 309 Q543 221 691 221 Q874 221 976 346 L1191 199 Q1016 -28 697 -28 Q410 -28 247.5 142 Q85 312 85 540 Q85 698 164 831 Q243 964 384.5 1040 Q526 1116 701 1116 Q863 1116 992 1051.5 Q1121 987 1203 868 Z M570 16 L739 16 L727 -30 Q794 -45 832.5 -88.5 Q871 -132 871 -184 Q871 -265 803 -323 Q735 -381 614 -381 Q516 -381 392 -335 L428 -206 Q500 -229 569 -229 Q620 -229 645 -209.5 Q670 -190 670 -158 Q670 -132 651 -117 Q632 -102 591 -102 L535 -104 L570 16 Z " />
<glyph glyph-name="eacute" unicode="&#xe9;" horiz-adv-x="1311" d="M1228 465 L351 465 Q370 349 452.5 280.5 Q535 212 663 212 Q816 212 926 319 L1156 211 Q1070 89 950 30.5 Q830 -28 665 -28 Q409 -28 248 133.5 Q87 295 87 538 Q87 787 247.5 951.5 Q408 1116 650 1116 Q907 1116 1068 951.5 Q1229 787 1229 517 L1228 465 Z M954 680 Q927 771 847.5 828 Q768 885 663 885 Q549 885 463 821 Q409 781 363 680 L954 680 Z M703 1679 L1026 1679 L660 1287 L464 1287 L703 1679 Z " />
<glyph glyph-name="egrave" unicode="&#xe8;" horiz-adv-x="1311" d="M1228 465 L351 465 Q370 349 452.5 280.5 Q535 212 663 212 Q816 212 926 319 L1156 211 Q1070 89 950 30.5 Q830 -28 665 -28 Q409 -28 248 133.5 Q87 295 87 538 Q87 787 247.5 951.5 Q408 1116 650 1116 Q907 1116 1068 951.5 Q1229 787 1229 517 L1228 465 Z M954 680 Q927 771 847.5 828 Q768 885 663 885 Q549 885 463 821 Q409 781 363 680 L954 680 Z M607 1679 L846 1287 L650 1287 L284 1679 L607 1679 Z " />
<glyph glyph-name="ecircumflex" unicode="&#xea;" horiz-adv-x="1311" d="M1228 465 L351 465 Q370 349 452.5 280.5 Q535 212 663 212 Q816 212 926 319 L1156 211 Q1070 89 950 30.5 Q830 -28 665 -28 Q409 -28 248 133.5 Q87 295 87 538 Q87 787 247.5 951.5 Q408 1116 650 1116 Q907 1116 1068 951.5 Q1229 787 1229 517 L1228 465 Z M954 680 Q927 771 847.5 828 Q768 885 663 885 Q549 885 463 821 Q409 781 363 680 L954 680 Z M247 1287 L547 1570 L766 1570 L1064 1287 L766 1287 L658 1418 L547 1287 L247 1287 Z " />
<glyph glyph-name="edieresis" unicode="&#xeb;" horiz-adv-x="1311" d="M1228 465 L351 465 Q370 349 452.5 280.5 Q535 212 663 212 Q816 212 926 319 L1156 211 Q1070 89 950 30.5 Q830 -28 665 -28 Q409 -28 248 133.5 Q87 295 87 538 Q87 787 247.5 951.5 Q408 1116 650 1116 Q907 1116 1068 951.5 Q1229 787 1229 517 L1228 465 Z M954 680 Q927 771 847.5 828 Q768 885 663 885 Q549 885 463 821 Q409 781 363 680 L954 680 Z M434 1573 Q494 1573 536 1531 Q578 1489 578 1430 Q578 1370 536 1328 Q494 1286 434 1286 Q375 1286 333 1328 Q291 1370 291 1430 Q291 1489 333 1531 Q375 1573 434 1573 Z M877 1573 Q937 1573 979 1531 Q1021 1489 1021 1430 Q1021 1370 979 1328 Q937 1286 877 1286 Q818 1286 776 1328 Q734 1370 734 1430 Q734 1489 776 1531 Q818 1573 877 1573 Z " />
<glyph glyph-name="iacute" unicode="&#xed;" horiz-adv-x="491" d="M108 1088 L382 1088 L382 0 L108 0 L108 1088 Z M294 1679 L617 1679 L251 1287 L55 1287 L294 1679 Z " />
<glyph glyph-name="igrave" unicode="&#xec;" horiz-adv-x="491" d="M108 1088 L382 1088 L382 0 L108 0 L108 1088 Z M198 1679 L437 1287 L241 1287 L-125 1679 L198 1679 Z " />
<glyph glyph-name="icircumflex" unicode="&#xee;" horiz-adv-x="491" d="M108 1088 L382 1088 L382 0 L108 0 L108 1088 Z M-163 1287 L137 1570 L356 1570 L654 1287 L356 1287 L248 1418 L137 1287 L-163 1287 Z " />
<glyph glyph-name="idieresis" unicode="&#xef;" horiz-adv-x="491" d="M108 1088 L382 1088 L382 0 L108 0 L108 1088 Z M24 1573 Q84 1573 126 1531 Q168 1489 168 1430 Q168 1370 126 1328 Q84 1286 24 1286 Q-35 1286 -77 1328 Q-119 1370 -119 1430 Q-119 1489 -77 1531 Q-35 1573 24 1573 Z M467 1573 Q527 1573 569 1531 Q611 1489 611 1430 Q611 1370 569 1328 Q527 1286 467 1286 Q408 1286 366 1328 Q324 1370 324 1430 Q324 1489 366 1531 Q408 1573 467 1573 Z " />
<glyph glyph-name="ntilde" unicode="&#xf1;" horiz-adv-x="1229" d="M138 1088 L410 1088 L410 977 Q503 1055 578.5 1085.5 Q654 1116 733 1116 Q895 1116 1008 1003 Q1103 907 1103 719 L1103 0 L833 0 L833 477 Q833 672 815.5 736 Q798 800 754.5 833.5 Q711 867 647 867 Q564 867 504.5 811.5 Q445 756 422 658 Q410 607 410 437 L410 0 L138 0 L138 1088 Z M308 1291 L198 1456 Q326 1555 457 1555 Q506 1555 625 1521 Q706 1499 754 1499 Q838 1499 928 1551 L1032 1395 Q906 1287 788 1287 Q725 1287 637 1314 Q565 1335 546 1339 Q520 1343 484 1343 Q396 1343 308 1291 Z " />
<glyph glyph-name="oacute" unicode="&#xf3;" horiz-adv-x="1311" d="M649 1116 Q803 1116 938.5 1039 Q1074 962 1150 830 Q1226 698 1226 545 Q1226 391 1149.5 257 Q1073 123 941 47.5 Q809 -28 650 -28 Q416 -28 250.5 138.5 Q85 305 85 543 Q85 798 272 968 Q436 1116 649 1116 Z M653 859 Q526 859 441.5 770.5 Q357 682 357 544 Q357 402 440.5 314 Q524 226 652 226 Q780 226 865 315 Q950 404 950 544 Q950 684 866.5 771.5 Q783 859 653 859 Z M703 1679 L1026 1679 L660 1287 L464 1287 L703 1679 Z " />
<glyph glyph-name="ograve" unicode="&#xf2;" horiz-adv-x="1311" d="M649 1116 Q803 1116 938.5 1039 Q1074 962 1150 830 Q1226 698 1226 545 Q1226 391 1149.5 257 Q1073 123 941 47.5 Q809 -28 650 -28 Q416 -28 250.5 138.5 Q85 305 85 543 Q85 798 272 968 Q436 1116 649 1116 Z M653 859 Q526 859 441.5 770.5 Q357 682 357 544 Q357 402 440.5 314 Q524 226 652 226 Q780 226 865 315 Q950 404 950 544 Q950 684 866.5 771.5 Q783 859 653 859 Z M607 1679 L846 1287 L650 1287 L284 1679 L607 1679 Z " />
<glyph glyph-name="ocircumflex" unicode="&#xf4;" horiz-adv-x="1311" d="M649 1116 Q803 1116 938.5 1039 Q1074 962 1150 830 Q1226 698 1226 545 Q1226 391 1149.5 257 Q1073 123 941 47.5 Q809 -28 650 -28 Q416 -28 250.5 138.5 Q85 305 85 543 Q85 798 272 968 Q436 1116 649 1116 Z M653 859 Q526 859 441.5 770.5 Q357 682 357 544 Q357 402 440.5 314 Q524 226 652 226 Q780 226 865 315 Q950 404 950 544 Q950 684 866.5 771.5 Q783 859 653 859 Z M247 1287 L547 1570 L766 1570 L1064 1287 L766 1287 L658 1418 L547 1287 L247 1287 Z " />
<glyph glyph-name="odieresis" unicode="&#xf6;" horiz-adv-x="1311" d="M649 1116 Q803 1116 938.5 1039 Q1074 962 1150 830 Q1226 698 1226 545 Q1226 391 1149.5 257 Q1073 123 941 47.5 Q809 -28 650 -28 Q416 -28 250.5 138.5 Q85 305 85 543 Q85 798 272 968 Q436 1116 649 1116 Z M653 859 Q526 859 441.5 770.5 Q357 682 357 544 Q357 402 440.5 314 Q524 226 652 226 Q780 226 865 315 Q950 404 950 544 Q950 684 866.5 771.5 Q783 859 653 859 Z M433 1573 Q493 1573 535 1531 Q577 1489 577 1430 Q577 1370 535 1328 Q493 1286 433 1286 Q374 1286 332 1328 Q290 1370 290 1430 Q290 1489 332 1531 Q374 1573 433 1573 Z M876 1573 Q936 1573 978 1531 Q1020 1489 1020 1430 Q1020 1370 978 1328 Q936 1286 876 1286 Q817 1286 775 1328 Q733 1370 733 1430 Q733 1489 775 1531 Q817 1573 876 1573 Z " />
<glyph glyph-name="otilde" unicode="&#xf5;" horiz-adv-x="1311" d="M649 1116 Q803 1116 938.5 1039 Q1074 962 1150 830 Q1226 698 1226 545 Q1226 391 1149.5 257 Q1073 123 941 47.5 Q809 -28 650 -28 Q416 -28 250.5 138.5 Q85 305 85 543 Q85 798 272 968 Q436 1116 649 1116 Z M653 859 Q526 859 441.5 770.5 Q357 682 357 544 Q357 402 440.5 314 Q524 226 652 226 Q780 226 865 315 Q950 404 950 544 Q950 684 866.5 771.5 Q783 859 653 859 Z M349 1291 L239 1456 Q367 1555 498 1555 Q547 1555 666 1521 Q747 1499 795 1499 Q879 1499 969 1551 L1073 1395 Q947 1287 829 1287 Q766 1287 678 1314 Q606 1335 587 1339 Q561 1343 525 1343 Q437 1343 349 1291 Z " />
<glyph glyph-name="uacute" unicode="&#xfa;" horiz-adv-x="1229" d="M137 1088 L413 1088 L413 564 Q413 411 434 351.5 Q455 292 501.5 259 Q548 226 616 226 Q684 226 731.5 258.5 Q779 291 802 354 Q819 401 819 555 L819 1088 L1093 1088 L1093 627 Q1093 342 1048 237 Q993 109 886 40.5 Q779 -28 614 -28 Q435 -28 324.5 52 Q214 132 169 275 Q137 374 137 635 L137 1088 Z M663 1679 L986 1679 L620 1287 L424 1287 L663 1679 Z " />
<glyph glyph-name="ugrave" unicode="&#xf9;" horiz-adv-x="1229" d="M137 1088 L413 1088 L413 564 Q413 411 434 351.5 Q455 292 501.5 259 Q548 226 616 226 Q684 226 731.5 258.5 Q779 291 802 354 Q819 401 819 555 L819 1088 L1093 1088 L1093 627 Q1093 342 1048 237 Q993 109 886 40.5 Q779 -28 614 -28 Q435 -28 324.5 52 Q214 132 169 275 Q137 374 137 635 L137 1088 Z M567 1679 L806 1287 L610 1287 L244 1679 L567 1679 Z " />
<glyph glyph-name="ucircumflex" unicode="&#xfb;" horiz-adv-x="1229" d="M137 1088 L413 1088 L413 564 Q413 411 434 351.5 Q455 292 501.5 259 Q548 226 616 226 Q684 226 731.5 258.5 Q779 291 802 354 Q819 401 819 555 L819 1088 L1093 1088 L1093 627 Q1093 342 1048 237 Q993 109 886 40.5 Q779 -28 614 -28 Q435 -28 324.5 52 Q214 132 169 275 Q137 374 137 635 L137 1088 Z M206 1287 L506 1570 L725 1570 L1023 1287 L725 1287 L617 1418 L506 1287 L206 1287 Z " />
<glyph glyph-name="udieresis" unicode="&#xfc;" horiz-adv-x="1229" d="M137 1088 L413 1088 L413 564 Q413 411 434 351.5 Q455 292 501.5 259 Q548 226 616 226 Q684 226 731.5 258.5 Q779 291 802 354 Q819 401 819 555 L819 1088 L1093 1088 L1093 627 Q1093 342 1048 237 Q993 109 886 40.5 Q779 -28 614 -28 Q435 -28 324.5 52 Q214 132 169 275 Q137 374 137 635 L137 1088 Z M393 1573 Q453 1573 495 1531 Q537 1489 537 1430 Q537 1370 495 1328 Q453 1286 393 1286 Q334 1286 292 1328 Q250 1370 250 1430 Q250 1489 292 1531 Q334 1573 393 1573 Z M836 1573 Q896 1573 938 1531 Q980 1489 980 1430 Q980 1370 938 1328 Q896 1286 836 1286 Q777 1286 735 1328 Q693 1370 693 1430 Q693 1489 735 1531 Q777 1573 836 1573 Z " />
<glyph glyph-name="dagger" unicode="&#x2020;" horiz-adv-x="1147" d="M442 1508 L709 1508 L661 960 L1114 1009 L1114 738 L661 793 L709 -398 L442 -398 L492 793 L40 738 L40 1009 L492 960 L442 1508 Z " />
<glyph glyph-name="degree" unicode="&#xb0;" horiz-adv-x="819" d="M755 1164 Q755 1019 654 919.5 Q553 820 409 820 Q265 820 165 920 Q65 1020 65 1167 Q65 1308 167.5 1408 Q270 1508 412 1508 Q554 1508 654.5 1408 Q755 1308 755 1164 Z M636 1162 Q636 1261 571 1328 Q506 1395 413 1395 Q318 1395 251 1327.5 Q184 1260 184 1164 Q184 1070 251.5 1001 Q319 932 412 932 Q504 932 570 999.5 Q636 1067 636 1162 Z " />
<glyph glyph-name="cent" unicode="&#xa2;" horiz-adv-x="1147" d="M821 1326 L976 1259 L882 1049 Q992 980 1051 885 L828 753 Q805 784 776 812 L521 235 Q576 214 628 214 Q753 214 849 312 L1024 142 Q938 54 838 13 Q738 -28 609 -28 Q514 -28 419 0 L308 -243 L155 -177 L275 87 Q84 275 84 545 Q84 713 154 843 Q224 973 349 1044.5 Q474 1116 629 1116 Q672 1116 725 1108 L821 1326 Z M619 870 Q496 863 425.5 778 Q355 693 355 540 Q355 442 393 357 L619 870 Z " />
<glyph glyph-name="sterling" unicode="&#xa3;" horiz-adv-x="1147" d="M1012 1096 L731 1096 Q700 1251 586 1251 Q525 1251 484 1207.5 Q443 1164 443 1094 Q443 1053 471 980 L502 899 L842 899 L842 647 L575 647 Q587 578 587 538 Q587 423 519 255 Q558 250 658 232 Q692 226 713 226 Q756 226 784 252 Q822 286 836 336 L1095 336 Q1091 237 1038 149.5 Q985 62 896 12.5 Q807 -37 710 -37 Q667 -37 567 -23 Q413 0 337 0 Q239 0 143 -34 L49 204 Q134 238 208 248 Q263 344 283 411 Q303 478 303 553 Q303 594 294 647 L54 647 L54 899 L208 899 Q161 999 161 1100 Q161 1222 210.5 1310.5 Q260 1399 364 1453.5 Q468 1508 590 1508 Q710 1508 808.5 1455 Q907 1402 959 1308.5 Q1011 1215 1012 1096 Z " />
<glyph glyph-name="section" unicode="&#xa7;" horiz-adv-x="1147" d="M985 1152 L720 1152 Q690 1285 559 1285 Q506 1285 477 1261.5 Q448 1238 448 1204 Q448 1168 471 1139 Q502 1101 616 1023 L807 892 Q936 804 985 721 Q1034 638 1034 538 Q1034 433 978.5 352 Q923 271 820 231 Q913 154 951.5 78 Q990 2 990 -89 Q990 -233 881.5 -329.5 Q773 -426 584 -426 Q406 -426 299.5 -329.5 Q193 -233 168 -48 L427 -48 Q454 -118 492.5 -147 Q531 -176 585 -176 Q646 -176 680 -146 Q714 -116 714 -75 Q714 -50 694 -21 Q673 7 605 55 L329 247 Q200 338 153.5 418 Q107 498 107 603 Q107 715 163.5 799.5 Q220 884 306 916 Q237 972 202.5 1041 Q168 1110 168 1191 Q168 1335 279 1435.5 Q390 1536 567 1536 Q736 1536 855 1425 Q974 1314 985 1152 Z M463 796 Q401 769 371.5 728 Q342 687 342 643 Q342 596 384 547 Q407 519 507 449 L660 342 Q741 380 761 407 Q792 448 792 493 Q792 531 761.5 571.5 Q731 612 625 684 L463 796 Z " />
<glyph glyph-name="bullet" unicode="&#x2022;" horiz-adv-x="1229" d="M614 1053 Q741 1053 831 963 Q921 873 921 746 Q921 618 831 528 Q741 438 614 438 Q487 438 397 528 Q307 618 307 746 Q307 873 397 963 Q487 1053 614 1053 Z " />
<glyph glyph-name="paragraph" unicode="&#xb6;" horiz-adv-x="1229" d="M552 -379 L552 710 Q368 711 265.5 815 Q163 919 163 1104 Q163 1307 274.5 1410 Q386 1513 636 1513 L1056 1513 L1056 1397 L974 1397 L974 -379 L835 -379 L835 1397 L691 1397 L691 -379 L552 -379 Z " />
<glyph glyph-name="germandbls" unicode="&#xdf;" horiz-adv-x="1229" d="M579 705 L579 949 Q682 949 742 997.5 Q802 1046 802 1124 Q802 1191 755 1237 Q708 1283 638 1283 Q572 1283 515.5 1242 Q459 1201 434.5 1132 Q410 1063 410 895 L410 0 L137 0 L137 895 Q137 1139 195 1264 Q253 1389 371.5 1462.5 Q490 1536 647 1536 Q839 1536 958.5 1426.5 Q1078 1317 1078 1162 Q1078 1077 1041 1006 Q1004 935 940.5 891.5 Q877 848 768 829 Q888 808 970.5 749 Q1053 690 1097 604.5 Q1141 519 1141 411 Q1141 286 1084.5 185 Q1028 84 926 28 Q824 -28 698 -28 Q613 -28 530 6 L530 261 Q593 228 657 228 Q748 228 809.5 292.5 Q871 357 871 448 Q871 520 835.5 577.5 Q800 635 739 668 Q678 701 579 705 Z " />
<glyph glyph-name="registered" unicode="&#xae;" horiz-adv-x="1515" d="M1524 755 Q1524 550 1421.5 373.5 Q1319 197 1141.5 94.5 Q964 -8 758 -8 Q553 -8 375 94.5 Q197 197 94.5 373.5 Q-8 550 -8 756 Q-8 961 94.5 1138 Q197 1315 374.5 1417.5 Q552 1520 758 1520 Q964 1520 1141.5 1417.5 Q1319 1315 1421.5 1138 Q1524 961 1524 755 Z M1366 753 Q1366 1007 1188.5 1184.5 Q1011 1362 760 1362 Q507 1362 328.5 1185 Q150 1008 150 758 Q150 596 230.5 457 Q311 318 453 237 Q595 156 758 156 Q920 156 1062 236.5 Q1204 317 1285 455.5 Q1366 594 1366 753 Z M441 1173 L812 1173 Q929 1173 984 1147 Q1039 1121 1072.5 1065 Q1106 1009 1106 930 Q1106 863 1085.5 820.5 Q1065 778 1008 737 Q1054 711 1071 678.5 Q1088 646 1092 564 Q1099 408 1105.5 382.5 Q1112 357 1141 334 L931 334 Q917 368 913 391 Q909 414 908 470 Q905 581 896 607 Q887 633 864.5 646 Q842 659 774 659 L625 659 L625 334 L441 334 L441 1173 Z M625 1012 L625 813 L779 813 Q868 813 897 837 Q926 861 926 914 Q926 967 897.5 989.5 Q869 1012 780 1012 L625 1012 Z " />
<glyph glyph-name="copyright" unicode="&#xa9;" horiz-adv-x="1515" d="M1524 757 Q1524 552 1421.5 374.5 Q1319 197 1141 94.5 Q963 -8 758 -8 Q553 -8 375 94.5 Q197 197 94.5 374.5 Q-8 552 -8 757 Q-8 961 94.5 1138 Q197 1315 374.5 1417.5 Q552 1520 758 1520 Q964 1520 1141.5 1417.5 Q1319 1315 1421.5 1138 Q1524 961 1524 757 Z M1366 754 Q1366 1007 1188.5 1184.5 Q1011 1362 759 1362 Q595 1362 453.5 1281 Q312 1200 231 1059.5 Q150 919 150 758 Q150 597 231 457.5 Q312 318 453.5 237 Q595 156 757 156 Q920 156 1062 237 Q1204 318 1285 456.5 Q1366 595 1366 754 Z M980 616 L1156 616 Q1139 485 1038 400 Q937 315 790 315 Q602 315 481.5 441.5 Q361 568 361 770 Q361 966 480 1088 Q599 1210 784 1210 Q933 1210 1029 1135 Q1125 1060 1156 917 L980 917 Q963 991 912 1031 Q861 1071 786 1071 Q675 1071 603 990.5 Q531 910 531 772 Q531 630 607.5 542.5 Q684 455 790 455 Q865 455 918 500 Q971 545 980 616 Z " />
<glyph glyph-name="trademark" unicode="&#x2122;" horiz-adv-x="2048" d="M1905 1471 L1905 631 L1729 631 L1729 1322 L1454 631 L1366 631 L1100 1322 L1100 631 L924 631 L924 1471 L1191 1471 L1410 931 L1640 1471 L1905 1471 Z M809 1471 L809 1324 L547 1324 L547 631 L365 631 L365 1324 L101 1324 L101 1471 L809 1471 Z " />
<glyph glyph-name="acute" unicode="&#xb4;" horiz-adv-x="860" d="M478 1679 L801 1679 L435 1287 L239 1287 L478 1679 Z " />
<glyph glyph-name="dieresis" unicode="&#xa8;" horiz-adv-x="1024" d="M290 1573 Q350 1573 392 1531 Q434 1489 434 1430 Q434 1370 392 1328 Q350 1286 290 1286 Q231 1286 189 1328 Q147 1370 147 1430 Q147 1489 189 1531 Q231 1573 290 1573 Z M733 1573 Q793 1573 835 1531 Q877 1489 877 1430 Q877 1370 835 1328 Q793 1286 733 1286 Q674 1286 632 1328 Q590 1370 590 1430 Q590 1489 632 1531 Q674 1573 733 1573 Z " />
<glyph glyph-name="notequal" unicode="&#x2260;" horiz-adv-x="1124" d="M803 1074 L1061 1074 L1061 824 L696 824 L620 646 L1061 646 L1061 396 L513 396 L327 -37 L134 -37 L320 396 L62 396 L62 646 L427 646 L503 824 L62 824 L62 1074 L610 1074 L796 1508 L989 1508 L803 1074 Z " />
<glyph glyph-name="AE" unicode="&#xc6;" horiz-adv-x="1843" d="M774 1471 L1737 1471 L1737 1197 L1220 1197 L1220 930 L1737 930 L1737 661 L1220 661 L1220 274 L1737 274 L1737 0 L941 0 L941 304 L492 304 L345 0 L57 0 L774 1471 Z M941 579 L941 1223 L624 579 L941 579 Z " />
<glyph glyph-name="Oslash" unicode="&#xd8;" horiz-adv-x="1720" d="M1429 1251 Q1625 1032 1625 731 Q1625 409 1403.5 186 Q1182 -37 867 -37 Q628 -37 441 88 L270 -114 L143 -8 L314 194 Q211 299 154 440 Q97 581 97 736 Q97 947 199 1123.5 Q301 1300 479.5 1404 Q658 1508 863 1508 Q1101 1508 1306 1363 L1467 1553 L1593 1449 L1429 1251 Z M493 405 L1129 1154 Q1016 1234 862 1234 Q657 1234 518 1092 Q379 950 379 731 Q379 537 493 405 Z M1245 1038 L620 300 Q732 234 867 234 Q1065 234 1205 378 Q1345 522 1345 733 Q1345 902 1245 1038 Z " />
<glyph glyph-name="infinity" unicode="&#x221e;" horiz-adv-x="1460" d="M679 843 Q756 969 834 1020 Q912 1071 1002 1071 Q1135 1071 1222 977 Q1309 883 1309 722 Q1309 561 1222 467 Q1135 373 1002 373 Q912 373 834.5 423.5 Q757 474 679 601 Q620 519 542 474 Q464 429 392 429 Q289 429 219.5 509 Q150 589 150 722 Q150 855 219.5 934.5 Q289 1014 392 1014 Q464 1014 542 969.5 Q620 925 679 843 Z M772 724 Q856 595 890 566 Q943 521 1005 521 Q1080 521 1121.5 579 Q1163 637 1163 726 Q1163 818 1119 871 Q1075 924 1008 924 Q954 924 902.5 885.5 Q851 847 772 724 Z M593 726 Q493 867 403 867 Q356 867 323 829.5 Q290 792 290 727 Q290 660 322.5 621.5 Q355 583 403 583 Q443 583 476 606 Q528 642 593 726 Z " />
<glyph glyph-name="plusminus" unicode="&#xb1;" horiz-adv-x="1124" d="M437 1079 L437 1454 L687 1454 L687 1079 L1061 1079 L1061 829 L687 829 L687 455 L437 455 L437 829 L62 829 L62 1079 L437 1079 Z M62 250 L1061 250 L1061 0 L62 0 L62 250 Z " />
<glyph glyph-name="lessequal" unicode="&#x2264;" horiz-adv-x="1124" d="M1061 568 L1061 318 L62 827 L62 1048 L1061 1556 L1061 1307 L349 937 L1061 568 Z M62 206 L1061 206 L1061 -44 L62 -44 L62 206 Z " />
<glyph glyph-name="greaterequal" unicode="&#x2265;" horiz-adv-x="1124" d="M62 568 L775 937 L62 1307 L62 1556 L1061 1048 L1061 827 L62 318 L62 568 Z M1061 206 L1061 -44 L62 -44 L62 206 L1061 206 Z " />
<glyph glyph-name="yen" unicode="&#xa5;" horiz-adv-x="1147" d="M48 1471 L339 1471 L574 948 L809 1471 L1100 1471 L789 779 L1053 779 L1053 616 L715 616 L715 488 L1053 488 L1053 319 L715 319 L715 0 L432 0 L432 319 L93 319 L93 488 L432 488 L432 616 L93 616 L93 779 L358 779 L48 1471 Z " />
<glyph glyph-name="mu1" unicode="&#xb5;" horiz-adv-x="1180" d="M88 -398 L88 1088 L365 1088 L365 517 Q365 390 389.5 333.5 Q414 277 470.5 240 Q527 203 592 203 Q657 203 707.5 237 Q758 271 784.5 335 Q811 399 811 525 L811 1088 L1091 1088 L1091 0 L811 0 L811 127 Q768 43 712.5 7 Q657 -29 588 -29 Q520 -29 464.5 5.5 Q409 40 365 119 L365 -398 L88 -398 Z " />
<glyph glyph-name="partialdiff" unicode="&#x2202;" horiz-adv-x="1012" d="M380 1123 L243 1207 Q295 1348 393 1419.5 Q491 1491 613 1491 Q717 1491 798 1434 Q879 1377 928.5 1254 Q978 1131 978 943 Q978 651 876 383 Q799 181 658 78 Q517 -25 356 -25 Q217 -25 131 67.5 Q45 160 45 329 Q45 495 134.5 635.5 Q224 776 393 859.5 Q562 943 786 943 L827 942 Q826 1134 764.5 1221.5 Q703 1309 608 1309 Q541 1309 489 1271 Q437 1233 380 1123 Z M815 758 L771 759 Q630 759 514.5 703 Q399 647 336.5 546 Q274 445 274 338 Q274 262 315.5 213.5 Q357 165 415 165 Q545 165 660.5 316.5 Q776 468 815 758 Z " />
<glyph glyph-name="summation" unicode="&#x2211;" horiz-adv-x="1460" d="M139 1508 L1376 1508 L1376 1344 L388 1344 L995 569 L346 -237 L1386 -237 L1386 -398 L122 -398 L122 -211 L742 561 L139 1333 L139 1508 Z " />
<glyph glyph-name="product" unicode="&#x220f;" horiz-adv-x="1685" d="M162 1508 L1524 1508 L1524 -398 L1333 -398 L1333 1334 L355 1334 L355 -398 L162 -398 L162 1508 Z " />
<glyph glyph-name="pi1" unicode="&#xf006;" horiz-adv-x="1124" d="M0 1063 L1124 1063 L1124 861 L955 861 L955 0 L667 0 L667 861 L459 861 L459 0 L167 0 L167 861 L0 861 L0 1063 Z " />
<glyph glyph-name="integral" unicode="&#x222b;" horiz-adv-x="561" d="M201 948 Q201 1157 217 1447 Q227 1631 271 1739 Q296 1799 342.5 1831 Q389 1863 435 1863 Q484 1863 522 1830 Q560 1797 560 1756 Q560 1710 533.5 1681 Q507 1652 468 1652 Q433 1652 392 1688 Q369 1708 352 1708 Q334 1708 323 1693.5 Q312 1679 312 1644 Q312 1602 321 1499 Q358 1089 358 834 Q358 767 343 267 Q334 -38 259 -143 Q204 -220 118 -220 Q66 -220 33 -186 Q0 -152 0 -99 Q0 -55 25.5 -27.5 Q51 0 90 0 Q130 0 160 -33 Q188 -64 208 -64 Q225 -64 236 -49.5 Q247 -35 247 -3 Q247 39 238 117 Q201 433 201 948 Z " />
<glyph glyph-name="ordfeminine" unicode="&#xaa;" horiz-adv-x="737" d="M459 1491 L659 1491 L659 810 L459 810 L459 866 Q426 830 387.5 812 Q349 794 306 794 Q206 794 126.5 892.5 Q47 991 47 1150 Q47 1314 124 1411 Q201 1508 302 1508 Q346 1508 385 1489.5 Q424 1471 459 1433 L459 1491 Z M356 1329 Q313 1329 280.5 1282.5 Q248 1236 248 1152 Q248 1067 285 1013 Q314 972 357 972 Q400 972 433 1018.5 Q466 1065 466 1152 Q466 1238 433 1283.5 Q400 1329 356 1329 Z " />
<glyph glyph-name="ordmasculine" unicode="&#xba;" horiz-adv-x="737" d="M365 1508 Q499 1508 596 1406 Q693 1304 693 1151 Q693 997 597.5 895.5 Q502 794 366 794 Q235 794 140 896.5 Q45 999 45 1150 Q45 1302 141 1405 Q237 1508 365 1508 Z M368 1326 Q319 1326 283 1279 Q247 1232 247 1151 Q247 1067 282.5 1020.5 Q318 974 368 974 Q418 974 454.5 1021 Q491 1068 491 1151 Q491 1233 455 1279.5 Q419 1326 368 1326 Z " />
<glyph glyph-name="Ohm" unicode="&#x2126;" horiz-adv-x="1573" d="M462 206 Q330 262 248 345.5 Q166 429 121.5 547.5 Q77 666 77 811 Q77 1121 268.5 1312 Q460 1503 777 1503 Q1019 1503 1172 1421 Q1325 1339 1417.5 1177.5 Q1510 1016 1510 813 Q1510 600 1412 445 Q1314 290 1128 208 L1458 231 L1530 231 L1530 0 L888 0 L888 243 Q993 293 1056 364.5 Q1119 436 1156.5 546 Q1194 656 1194 784 Q1194 1028 1081 1156 Q968 1284 787 1284 Q613 1284 500.5 1152.5 Q388 1021 388 789 Q388 661 427 550 Q466 439 531 365.5 Q596 292 700 243 L700 0 L55 0 L55 230 L153 230 L462 206 Z " />
<glyph glyph-name="ae" unicode="&#xe6;" horiz-adv-x="2212" d="M992 1088 L1243 1088 L1243 1008 Q1379 1116 1565 1116 Q1723 1116 1856 1039.5 Q1989 963 2061.5 828 Q2134 693 2134 525 L2132 463 L1256 463 Q1280 344 1362 276.5 Q1444 209 1574 209 Q1649 209 1708.5 234 Q1768 259 1830 319 L2060 211 Q2006 132 1935 81 Q1864 30 1772 1 Q1680 -28 1572 -28 Q1372 -28 1243 78 L1243 0 L992 0 L992 138 Q913 49 828 10.5 Q743 -28 632 -28 Q401 -28 245 134 Q89 296 89 541 Q89 782 248.5 949 Q408 1116 629 1116 Q750 1116 853 1063 Q924 1027 992 946 L992 1088 Z M1860 676 Q1835 769 1758.5 826 Q1682 883 1574 883 Q1464 883 1385 830 Q1306 777 1269 676 L1860 676 Z M683 868 Q548 868 457.5 775.5 Q367 683 367 542 Q367 403 455.5 312 Q544 221 680 221 Q821 221 907.5 311 Q994 401 994 550 Q994 688 905.5 778 Q817 868 683 868 Z " />
<glyph glyph-name="oslash" unicode="&#xf8;" horiz-adv-x="1352" d="M1123 900 Q1247 740 1247 545 Q1247 391 1170.5 257 Q1094 123 962 47.5 Q830 -28 672 -28 Q504 -28 369 60 L239 -85 L114 22 L244 168 Q106 327 106 543 Q106 797 292 966 Q456 1116 671 1116 Q849 1116 1002 1013 L1128 1153 L1251 1043 L1123 900 Z M423 367 L829 820 Q761 859 675 859 Q548 859 463 770.5 Q378 682 378 544 Q378 450 423 367 Z M939 696 L544 255 Q607 226 675 226 Q801 226 886 315 Q971 404 971 544 Q971 626 939 696 Z " />
<glyph glyph-name="questiondown" unicode="&#xbf;" horiz-adv-x="1147" d="M588 795 Q515 795 463.5 845 Q412 895 412 966 Q412 1037 463 1087.5 Q514 1138 586 1138 Q657 1138 708 1087.5 Q759 1037 759 966 Q759 895 709 845 Q659 795 588 795 Z M779 18 L1041 18 Q1043 -174 909 -300 Q775 -426 556 -426 Q415 -426 315.5 -374.5 Q216 -323 157 -224.5 Q98 -126 98 -18 Q98 41 116.5 98 Q135 155 176 215 Q201 250 292 333 Q378 412 400.5 444 Q423 476 438 530.5 Q453 585 457 681 L727 681 L729 636 Q729 502 680 392.5 Q631 283 521 187 Q415 94 393 58.5 Q371 23 371 -23 Q371 -87 424 -131.5 Q477 -176 568 -176 Q660 -176 719 -121.5 Q778 -67 779 18 Z " />
<glyph glyph-name="exclamdown" unicode="&#xa1;" horiz-adv-x="573" d="M286 1138 Q357 1138 407.5 1088 Q458 1038 458 967 Q458 896 407.5 846 Q357 796 286 796 Q215 796 165 846 Q115 896 115 967 Q115 1038 165 1088 Q215 1138 286 1138 Z M424 -398 L149 -398 L149 677 L424 677 L424 -398 Z " />
<glyph glyph-name="logicalnot" unicode="&#xac;" horiz-adv-x="1229" d="M115 1074 L1114 1074 L1114 396 L865 397 L865 825 L115 824 L115 1074 Z " />
<glyph glyph-name="radical" unicode="&#x221a;" horiz-adv-x="1124" d="M1047 1869 L1121 1869 L809 -78 L313 943 L115 852 L81 916 L382 1067 L787 244 L1047 1869 Z " />
<glyph glyph-name="florin" unicode="&#x192;" horiz-adv-x="1147" d="M1078 1453 L1045 1214 Q963 1273 906 1273 Q865 1273 841 1239 Q817 1205 800 1083 L779 934 L1003 934 L969 700 L743 700 L637 -56 Q617 -202 578 -275 Q539 -348 476 -387 Q413 -426 339 -426 Q281 -426 221 -407 Q161 -388 72 -336 L106 -94 Q201 -168 266 -168 Q305 -168 327 -139 Q349 -110 363 -7 L470 700 L243 700 L277 934 L504 934 L537 1183 Q563 1370 632.5 1453 Q702 1536 831 1536 Q896 1536 948.5 1519.5 Q1001 1503 1078 1453 Z " />
<glyph glyph-name="approxequal" unicode="&#x2248;" horiz-adv-x="1124" d="M47 806 L47 1124 Q199 1198 297 1198 Q361 1198 437.5 1177 Q514 1156 641 1094 Q724 1053 750 1046 Q785 1036 819 1036 Q930 1036 1077 1149 L1077 827 Q951 755 830 755 Q764 755 697 773 Q630 791 479 858 Q383 900 350.5 909 Q318 918 285 918 Q235 918 184 895.5 Q133 873 47 806 Z M47 323 L47 642 Q199 716 297 716 Q361 716 437.5 694.5 Q514 673 641 611 Q724 571 750 564 Q785 554 819 554 Q930 554 1077 667 L1077 344 Q951 273 830 273 Q764 273 697 290.5 Q630 308 479 375 Q383 418 350.5 426.5 Q318 435 285 435 Q235 435 184 412.5 Q133 390 47 323 Z " />
<glyph glyph-name="increment" unicode="&#x2206;" horiz-adv-x="1253" d="M1226 0 L26 0 L654 1387 L1226 0 Z M990 82 L591 1049 L151 82 L990 82 Z " />
<glyph glyph-name="guillemotleft" unicode="&#xab;" horiz-adv-x="942" d="M208 1088 L463 1088 L278 540 L463 0 L208 0 L25 540 L208 1088 Z M662 1088 L917 1088 L732 540 L917 0 L662 0 L478 540 L662 1088 Z " />
<glyph glyph-name="guillemotright" unicode="&#xbb;" horiz-adv-x="942" d="M733 0 L478 0 L664 548 L478 1088 L733 1088 L917 548 L733 0 Z M280 0 L25 0 L210 548 L25 1088 L280 1088 L463 548 L280 0 Z " />
<glyph glyph-name="ellipsis" unicode="&#x2026;" horiz-adv-x="2048" d="M1023 285 Q1088 285 1134 239.5 Q1180 194 1180 129 Q1180 64 1134 18 Q1088 -28 1023 -28 Q958 -28 912.5 18 Q867 64 867 129 Q867 194 912.5 239.5 Q958 285 1023 285 Z M341 285 Q406 285 452 239.5 Q498 194 498 129 Q498 64 452 18 Q406 -28 341 -28 Q276 -28 230 18 Q184 64 184 129 Q184 194 230 239.5 Q276 285 341 285 Z M1706 285 Q1771 285 1817 239.5 Q1863 194 1863 129 Q1863 64 1817 18 Q1771 -28 1706 -28 Q1641 -28 1595 18 Q1549 64 1549 129 Q1549 194 1595 239.5 Q1641 285 1706 285 Z " />
<glyph glyph-name="nbspace" unicode="&#xa0;" horiz-adv-x="573" d="" />
<glyph glyph-name="Agrave" unicode="&#xc0;" horiz-adv-x="1515" d="M616 1471 L900 1471 L1466 0 L1175 0 L1060 303 L460 303 L340 0 L49 0 L616 1471 Z M760 1081 L564 576 L955 576 L760 1081 Z M709 1977 L948 1585 L752 1585 L386 1977 L709 1977 Z " />
<glyph glyph-name="Atilde" unicode="&#xc3;" horiz-adv-x="1515" d="M616 1471 L900 1471 L1466 0 L1175 0 L1060 303 L460 303 L340 0 L49 0 L616 1471 Z M760 1081 L564 576 L955 576 L760 1081 Z M451 1589 L341 1754 Q469 1853 600 1853 Q649 1853 768 1819 Q849 1797 897 1797 Q981 1797 1071 1849 L1175 1693 Q1049 1585 931 1585 Q868 1585 780 1612 Q708 1633 689 1637 Q663 1641 627 1641 Q539 1641 451 1589 Z " />
<glyph glyph-name="Otilde" unicode="&#xd5;" horiz-adv-x="1720" d="M863 1508 Q1175 1508 1399.5 1282 Q1624 1056 1624 731 Q1624 409 1402.5 186 Q1181 -37 865 -37 Q534 -37 315 192 Q96 421 96 736 Q96 947 198 1124 Q300 1301 478.5 1404.5 Q657 1508 863 1508 Z M860 1234 Q656 1234 517 1092 Q378 950 378 731 Q378 487 553 345 Q689 234 865 234 Q1064 234 1204 378 Q1344 522 1344 733 Q1344 943 1203 1088.5 Q1062 1234 860 1234 Z M553 1589 L443 1754 Q571 1853 702 1853 Q751 1853 870 1819 Q951 1797 999 1797 Q1083 1797 1173 1849 L1277 1693 Q1151 1585 1033 1585 Q970 1585 882 1612 Q810 1633 791 1637 Q765 1641 729 1641 Q641 1641 553 1589 Z " />
<glyph glyph-name="OE" unicode="&#x152;" horiz-adv-x="2171" d="M1305 1471 L2082 1471 L2082 1196 L1588 1196 L1588 929 L2082 929 L2082 661 L1588 661 L1588 274 L2082 274 L2082 0 L1305 0 L1305 135 Q1205 46 1091.5 4.5 Q978 -37 840 -37 Q630 -37 461 61 Q292 159 193 338.5 Q94 518 94 733 Q94 947 192.5 1125 Q291 1303 466.5 1405.5 Q642 1508 842 1508 Q967 1508 1082 1467.5 Q1197 1427 1305 1340 L1305 1471 Z M835 1239 Q649 1239 513 1094.5 Q377 950 377 736 Q377 589 439 475 Q501 361 613 296 Q725 231 855 231 Q1043 231 1173.5 371 Q1304 511 1304 727 Q1304 872 1242.5 989 Q1181 1106 1070 1172.5 Q959 1239 835 1239 Z " />
<glyph glyph-name="oe" unicode="&#x153;" horiz-adv-x="2212" d="M2131 461 L1250 461 Q1267 347 1351.5 277.5 Q1436 208 1565 208 Q1706 208 1819 310 L2056 202 Q1962 85 1840.5 28.5 Q1719 -28 1562 -28 Q1269 -28 1110 180 Q1026 76 914 24 Q802 -28 663 -28 Q416 -28 249 138.5 Q82 305 82 546 Q82 779 252.5 947.5 Q423 1116 663 1116 Q755 1116 841.5 1090 Q928 1064 1000 1015 Q1054 979 1110 905 Q1282 1116 1560 1116 Q1732 1116 1863 1037 Q1994 958 2063.5 819.5 Q2133 681 2131 461 Z M1860 675 Q1829 774 1750.5 827.5 Q1672 881 1563 881 Q1453 881 1369.5 824 Q1286 767 1259 675 L1860 675 Z M666 869 Q578 869 507 827.5 Q436 786 395.5 710 Q355 634 355 542 Q355 451 394.5 375 Q434 299 502.5 258.5 Q571 218 659 218 Q795 218 882.5 308.5 Q970 399 970 546 Q970 684 881.5 776.5 Q793 869 666 869 Z " />
<glyph glyph-name="endash" unicode="&#x2013;" horiz-adv-x="1024" d="M-12 469 L-12 711 L1036 711 L1036 469 L-12 469 Z " />
<glyph glyph-name="emdash" unicode="&#x2014;" horiz-adv-x="2048" d="M-12 469 L-12 711 L2060 711 L2060 469 L-12 469 Z " />
<glyph glyph-name="quotedblleft" unicode="&#x201c;" horiz-adv-x="983" d="M415 947 L163 947 L163 1086 Q163 1217 195.5 1312.5 Q228 1408 305 1508 L403 1431 Q366 1377 348.5 1338 Q331 1299 314 1234 L415 1234 L415 947 Z M823 947 L571 947 L571 1086 Q571 1217 603 1312.5 Q635 1408 713 1508 L811 1431 Q774 1377 756.5 1338 Q739 1299 722 1234 L823 1234 L823 947 Z " />
<glyph glyph-name="quotedblright" unicode="&#x201d;" horiz-adv-x="983" d="M568 1508 L820 1508 L820 1370 Q820 1238 787.5 1143 Q755 1048 677 947 L580 1024 Q617 1078 634.5 1117.5 Q652 1157 668 1222 L568 1222 L568 1508 Z M160 1508 L412 1508 L412 1370 Q412 1238 379.5 1143 Q347 1048 270 947 L172 1024 Q209 1078 226.5 1117.5 Q244 1157 261 1222 L160 1222 L160 1508 Z " />
<glyph glyph-name="quoteleft" unicode="&#x2018;" horiz-adv-x="573" d="M419 947 L167 947 L167 1086 Q167 1217 199.5 1312.5 Q232 1408 309 1508 L407 1431 Q370 1377 352.5 1338 Q335 1299 318 1234 L419 1234 L419 947 Z " />
<glyph glyph-name="quoteright" unicode="&#x2019;" horiz-adv-x="573" d="M155 1508 L407 1508 L407 1370 Q407 1238 374.5 1143 Q342 1048 265 947 L167 1024 Q204 1078 221.5 1117.5 Q239 1157 256 1222 L155 1222 L155 1508 Z " />
<glyph glyph-name="divide" unicode="&#xf7;" horiz-adv-x="1124" d="M401 1326 L723 1326 L723 1005 L401 1005 L401 1326 Z M62 860 L1061 860 L1061 610 L62 610 L62 860 Z M401 466 L723 466 L723 145 L401 145 L401 466 Z " />
<glyph glyph-name="lozenge" unicode="&#x25ca;" horiz-adv-x="1012" d="M549 1422 L967 709 L549 0 L438 0 L47 709 L438 1422 L549 1422 Z M495 1325 L155 709 L495 94 L854 709 L495 1325 Z " />
<glyph glyph-name="ydieresis" unicode="&#xff;" horiz-adv-x="1188" d="M17 1088 L296 1088 L579 405 L891 1088 L1171 1088 L489 -398 L207 -398 L431 81 L17 1088 Z M372 1573 Q432 1573 474 1531 Q516 1489 516 1430 Q516 1370 474 1328 Q432 1286 372 1286 Q313 1286 271 1328 Q229 1370 229 1430 Q229 1489 271 1531 Q313 1573 372 1573 Z M815 1573 Q875 1573 917 1531 Q959 1489 959 1430 Q959 1370 917 1328 Q875 1286 815 1286 Q756 1286 714 1328 Q672 1370 672 1430 Q672 1489 714 1531 Q756 1573 815 1573 Z " />
<glyph glyph-name="Ydieresis" unicode="&#x178;" horiz-adv-x="1270" d="M63 1471 L364 1471 L638 943 L910 1471 L1207 1471 L777 637 L777 0 L495 0 L495 637 L63 1471 Z M423 1871 Q483 1871 525 1829 Q567 1787 567 1728 Q567 1668 525 1626 Q483 1584 423 1584 Q364 1584 322 1626 Q280 1668 280 1728 Q280 1787 322 1829 Q364 1871 423 1871 Z M866 1871 Q926 1871 968 1829 Q1010 1787 1010 1728 Q1010 1668 968 1626 Q926 1584 866 1584 Q807 1584 765 1626 Q723 1668 723 1728 Q723 1787 765 1829 Q807 1871 866 1871 Z " />
<glyph glyph-name="&amp;#x2044;" unicode="&#x2044;" horiz-adv-x="328" d="M-235 -37 L391 1508 L562 1508 L-64 -37 L-235 -37 Z " />
<glyph glyph-name="&amp;#x2215;" unicode="&#x2215;" horiz-adv-x="328" d="M-235 -37 L391 1508 L562 1508 L-64 -37 L-235 -37 Z " />
<glyph glyph-name="Euro" unicode="&#x20ac;" horiz-adv-x="1147" d="M449 508 Q509 376 631 303.5 Q753 231 907 231 Q1006 231 1110 272 L1110 -10 Q1018 -37 903 -37 Q630 -37 428 107 Q226 251 154 508 L10 508 L49 672 L127 672 Q125 691 125 737 Q125 780 127 799 L10 799 L51 963 L156 963 Q231 1217 438.5 1362 Q646 1507 907 1507 Q1009 1507 1110 1477 L1049 1214 Q972 1239 901 1239 Q757 1239 636 1166 Q515 1093 451 963 L989 963 L952 799 L403 799 Q399 759 399 737 Q399 712 403 672 L922 672 L883 508 L449 508 Z " />
<glyph glyph-name="guilsinglleft" unicode="&#x2039;" horiz-adv-x="491" d="M210 1088 L465 1088 L280 540 L465 0 L210 0 L27 540 L210 1088 Z " />
<glyph glyph-name="guilsinglright" unicode="&#x203a;" horiz-adv-x="491" d="M282 0 L27 0 L212 548 L27 1088 L282 1088 L465 548 L282 0 Z " />
<glyph glyph-name="&amp;#xf001;" unicode="&#xf001;" horiz-adv-x="1064" d="M4 1088 L105 1088 Q105 1253 150.5 1341 Q196 1429 292.5 1482.5 Q389 1536 527 1536 Q647 1536 734.5 1497 Q822 1458 872 1390.5 Q922 1323 941 1210 L657 1210 Q642 1257 606.5 1282 Q571 1307 524 1307 Q481 1307 445.5 1283 Q410 1259 392 1215 Q379 1185 379 1088 L539 1088 L539 858 L379 858 L379 0 L105 0 L105 858 L4 858 L4 1088 Z M668 1088 L941 1088 L941 0 L668 0 L668 1088 Z " />
<glyph glyph-name="&amp;#xfb01;" unicode="&#xfb01;" horiz-adv-x="1064" d="M4 1088 L105 1088 Q105 1253 150.5 1341 Q196 1429 292.5 1482.5 Q389 1536 527 1536 Q647 1536 734.5 1497 Q822 1458 872 1390.5 Q922 1323 941 1210 L657 1210 Q642 1257 606.5 1282 Q571 1307 524 1307 Q481 1307 445.5 1283 Q410 1259 392 1215 Q379 1185 379 1088 L539 1088 L539 858 L379 858 L379 0 L105 0 L105 858 L4 858 L4 1088 Z M668 1088 L941 1088 L941 0 L668 0 L668 1088 Z " />
<glyph glyph-name="&amp;#xf002;" unicode="&#xf002;" horiz-adv-x="1064" d="M4 1088 L106 1088 Q106 1250 152.5 1341 Q199 1432 293 1484 Q387 1536 524 1536 Q665 1536 759.5 1483.5 Q854 1431 898 1347 Q942 1263 942 1088 L942 0 L668 0 L668 1067 Q668 1202 642 1245 Q605 1307 525 1307 Q479 1307 445.5 1284 Q412 1261 395.5 1220 Q379 1179 379 1088 L538 1088 L538 858 L379 858 L379 0 L106 0 L106 858 L4 858 L4 1088 Z " />
<glyph glyph-name="&amp;#xfb02;" unicode="&#xfb02;" horiz-adv-x="1064" d="M4 1088 L106 1088 Q106 1250 152.5 1341 Q199 1432 293 1484 Q387 1536 524 1536 Q665 1536 759.5 1483.5 Q854 1431 898 1347 Q942 1263 942 1088 L942 0 L668 0 L668 1067 Q668 1202 642 1245 Q605 1307 525 1307 Q479 1307 445.5 1284 Q412 1261 395.5 1220 Q379 1179 379 1088 L538 1088 L538 858 L379 858 L379 0 L106 0 L106 858 L4 858 L4 1088 Z " />
<glyph glyph-name="daggerdbl" unicode="&#x2021;" horiz-adv-x="1147" d="M439 1508 L708 1508 L657 1040 L1111 1088 L1111 819 L657 872 L708 548 L657 227 L1111 282 L1111 8 L657 61 L708 -398 L439 -398 L488 61 L39 8 L39 282 L488 227 L439 548 L488 872 L39 819 L39 1088 L488 1040 L439 1508 Z " />
<glyph glyph-name="periodcentered" unicode="&#x2219;" horiz-adv-x="573" d="M287 892 Q352 892 398 846 Q444 800 444 735 Q444 670 398 624 Q352 578 287 578 Q222 578 176 624 Q130 670 130 735 Q130 800 176 846 Q222 892 287 892 Z " />
<glyph glyph-name="quotesinglbase" unicode="&#x201a;" horiz-adv-x="573" d="M155 286 L407 286 L407 148 Q407 16 374.5 -79 Q342 -174 265 -274 L167 -198 Q204 -143 221.5 -104 Q239 -65 256 0 L155 0 L155 286 Z " />
<glyph glyph-name="quotedblbase" unicode="&#x201e;" horiz-adv-x="983" d="M568 286 L820 286 L820 148 Q820 16 787.5 -79 Q755 -174 677 -274 L580 -198 Q617 -143 634.5 -104 Q652 -65 668 0 L568 0 L568 286 Z M160 286 L412 286 L412 148 Q412 16 379.5 -79 Q347 -174 270 -274 L172 -198 Q209 -143 226.5 -104 Q244 -65 261 0 L160 0 L160 286 Z " />
<glyph glyph-name="perthousand" unicode="&#x2030;" horiz-adv-x="2621" d="M1351 1536 L1553 1536 L387 -100 L185 -100 L1182 1305 Q1092 1290 1013 1282.5 Q934 1275 867 1275 Q798 1275 721 1282 Q743 1212 743 1155 Q743 1009 641.5 907 Q540 805 394 805 Q247 805 144 907 Q41 1009 41 1154 Q41 1248 87 1328.5 Q133 1409 216.5 1458.5 Q300 1508 382 1508 Q444 1508 553 1484 Q746 1442 893 1442 Q1026 1442 1140.5 1465.5 Q1255 1489 1351 1536 Z M392 1325 Q322 1325 272.5 1275.5 Q223 1226 223 1157 Q223 1087 272.5 1037.5 Q322 988 392 988 Q462 988 511.5 1037.5 Q561 1087 561 1157 Q561 1227 511.5 1276 Q462 1325 392 1325 Z M2229 663 Q2375 663 2477.5 560 Q2580 457 2580 311 Q2580 166 2477.5 63 Q2375 -40 2229 -40 Q2084 -40 1981 63 Q1878 166 1878 311 Q1878 457 1981 560 Q2084 663 2229 663 Z M2228 482 Q2158 482 2108 432 Q2058 382 2058 312 Q2058 242 2108 192 Q2158 142 2228 142 Q2299 142 2348.5 192 Q2398 242 2398 312 Q2398 382 2348.5 432 Q2299 482 2228 482 Z M1367 663 Q1512 663 1615 560 Q1718 457 1718 311 Q1718 166 1615 63 Q1512 -40 1367 -40 Q1221 -40 1118.5 63 Q1016 166 1016 311 Q1016 457 1118.5 560 Q1221 663 1367 663 Z M1366 482 Q1295 482 1245.5 432 Q1196 382 1196 312 Q1196 242 1245.5 192 Q1295 142 1366 142 Q1436 142 1485.5 192 Q1535 242 1535 312 Q1535 382 1485.5 432 Q1436 482 1366 482 Z " />
<glyph glyph-name="Acircumflex" unicode="&#xc2;" horiz-adv-x="1515" d="M616 1471 L900 1471 L1466 0 L1175 0 L1060 303 L460 303 L340 0 L49 0 L616 1471 Z M760 1081 L564 576 L955 576 L760 1081 Z M349 1585 L649 1868 L868 1868 L1166 1585 L868 1585 L760 1716 L649 1585 L349 1585 Z " />
<glyph glyph-name="Ecircumflex" unicode="&#xca;" horiz-adv-x="1065" d="M169 1471 L972 1471 L972 1197 L447 1197 L447 931 L972 931 L972 662 L447 662 L447 275 L972 275 L972 0 L169 0 L169 1471 Z M160 1585 L460 1868 L679 1868 L977 1585 L679 1585 L571 1716 L460 1585 L160 1585 Z " />
<glyph glyph-name="Aacute" unicode="&#xc1;" horiz-adv-x="1515" d="M616 1471 L900 1471 L1466 0 L1175 0 L1060 303 L460 303 L340 0 L49 0 L616 1471 Z M760 1081 L564 576 L955 576 L760 1081 Z M805 1977 L1128 1977 L762 1585 L566 1585 L805 1977 Z " />
<glyph glyph-name="Edieresis" unicode="&#xcb;" horiz-adv-x="1065" d="M169 1471 L972 1471 L972 1197 L447 1197 L447 931 L972 931 L972 662 L447 662 L447 275 L972 275 L972 0 L169 0 L169 1471 Z M347 1871 Q407 1871 449 1829 Q491 1787 491 1728 Q491 1668 449 1626 Q407 1584 347 1584 Q288 1584 246 1626 Q204 1668 204 1728 Q204 1787 246 1829 Q288 1871 347 1871 Z M790 1871 Q850 1871 892 1829 Q934 1787 934 1728 Q934 1668 892 1626 Q850 1584 790 1584 Q731 1584 689 1626 Q647 1668 647 1728 Q647 1787 689 1829 Q731 1871 790 1871 Z " />
<glyph glyph-name="Egrave" unicode="&#xc8;" horiz-adv-x="1065" d="M169 1471 L972 1471 L972 1197 L447 1197 L447 931 L972 931 L972 662 L447 662 L447 275 L972 275 L972 0 L169 0 L169 1471 Z M520 1977 L759 1585 L563 1585 L197 1977 L520 1977 Z " />
<glyph glyph-name="Iacute" unicode="&#xcd;" horiz-adv-x="573" d="M148 1471 L426 1471 L426 0 L148 0 L148 1471 Z M335 1977 L658 1977 L292 1585 L96 1585 L335 1977 Z " />
<glyph glyph-name="Icircumflex" unicode="&#xce;" horiz-adv-x="573" d="M148 1471 L426 1471 L426 0 L148 0 L148 1471 Z M-122 1585 L178 1868 L397 1868 L695 1585 L397 1585 L289 1716 L178 1585 L-122 1585 Z " />
<glyph glyph-name="Idieresis" unicode="&#xcf;" horiz-adv-x="573" d="M148 1471 L426 1471 L426 0 L148 0 L148 1471 Z M65 1871 Q125 1871 167 1829 Q209 1787 209 1728 Q209 1668 167 1626 Q125 1584 65 1584 Q6 1584 -36 1626 Q-78 1668 -78 1728 Q-78 1787 -36 1829 Q6 1871 65 1871 Z M508 1871 Q568 1871 610 1829 Q652 1787 652 1728 Q652 1668 610 1626 Q568 1584 508 1584 Q449 1584 407 1626 Q365 1668 365 1728 Q365 1787 407 1829 Q449 1871 508 1871 Z " />
<glyph glyph-name="Igrave" unicode="&#xcc;" horiz-adv-x="573" d="M148 1471 L426 1471 L426 0 L148 0 L148 1471 Z M239 1977 L478 1585 L282 1585 L-84 1977 L239 1977 Z " />
<glyph glyph-name="Oacute" unicode="&#xd3;" horiz-adv-x="1720" d="M863 1508 Q1175 1508 1399.5 1282 Q1624 1056 1624 731 Q1624 409 1402.5 186 Q1181 -37 865 -37 Q534 -37 315 192 Q96 421 96 736 Q96 947 198 1124 Q300 1301 478.5 1404.5 Q657 1508 863 1508 Z M860 1234 Q656 1234 517 1092 Q378 950 378 731 Q378 487 553 345 Q689 234 865 234 Q1064 234 1204 378 Q1344 522 1344 733 Q1344 943 1203 1088.5 Q1062 1234 860 1234 Z M908 1977 L1231 1977 L865 1585 L669 1585 L908 1977 Z " />
<glyph glyph-name="Ocircumflex" unicode="&#xd4;" horiz-adv-x="1720" d="M863 1508 Q1175 1508 1399.5 1282 Q1624 1056 1624 731 Q1624 409 1402.5 186 Q1181 -37 865 -37 Q534 -37 315 192 Q96 421 96 736 Q96 947 198 1124 Q300 1301 478.5 1404.5 Q657 1508 863 1508 Z M860 1234 Q656 1234 517 1092 Q378 950 378 731 Q378 487 553 345 Q689 234 865 234 Q1064 234 1204 378 Q1344 522 1344 733 Q1344 943 1203 1088.5 Q1062 1234 860 1234 Z M451 1585 L751 1868 L970 1868 L1268 1585 L970 1585 L862 1716 L751 1585 L451 1585 Z " />
<glyph glyph-name="apple" unicode="&#xf000;" horiz-adv-x="1617" d="" />
<glyph glyph-name="Ograve" unicode="&#xd2;" horiz-adv-x="1720" d="M863 1508 Q1175 1508 1399.5 1282 Q1624 1056 1624 731 Q1624 409 1402.5 186 Q1181 -37 865 -37 Q534 -37 315 192 Q96 421 96 736 Q96 947 198 1124 Q300 1301 478.5 1404.5 Q657 1508 863 1508 Z M860 1234 Q656 1234 517 1092 Q378 950 378 731 Q378 487 553 345 Q689 234 865 234 Q1064 234 1204 378 Q1344 522 1344 733 Q1344 943 1203 1088.5 Q1062 1234 860 1234 Z M812 1977 L1051 1585 L855 1585 L489 1977 L812 1977 Z " />
<glyph glyph-name="Uacute" unicode="&#xda;" horiz-adv-x="1311" d="M158 1471 L439 1471 L439 519 Q439 396 460.5 345 Q482 294 531.5 263.5 Q581 233 651 233 Q725 233 778.5 267 Q832 301 852.5 353.5 Q873 406 873 554 L873 1471 L1154 1471 L1154 594 Q1154 372 1129 286 Q1104 200 1033.5 120 Q963 40 871 1.5 Q779 -37 657 -37 Q497 -37 378.5 36.5 Q260 110 209 220.5 Q158 331 158 594 L158 1471 Z M703 1977 L1026 1977 L660 1585 L464 1585 L703 1977 Z " />
<glyph glyph-name="Ucircumflex" unicode="&#xdb;" horiz-adv-x="1311" d="M158 1471 L439 1471 L439 519 Q439 396 460.5 345 Q482 294 531.5 263.5 Q581 233 651 233 Q725 233 778.5 267 Q832 301 852.5 353.5 Q873 406 873 554 L873 1471 L1154 1471 L1154 594 Q1154 372 1129 286 Q1104 200 1033.5 120 Q963 40 871 1.5 Q779 -37 657 -37 Q497 -37 378.5 36.5 Q260 110 209 220.5 Q158 331 158 594 L158 1471 Z M247 1585 L547 1868 L766 1868 L1064 1585 L766 1585 L658 1716 L547 1585 L247 1585 Z " />
<glyph glyph-name="Ugrave" unicode="&#xd9;" horiz-adv-x="1311" d="M158 1471 L439 1471 L439 519 Q439 396 460.5 345 Q482 294 531.5 263.5 Q581 233 651 233 Q725 233 778.5 267 Q832 301 852.5 353.5 Q873 406 873 554 L873 1471 L1154 1471 L1154 594 Q1154 372 1129 286 Q1104 200 1033.5 120 Q963 40 871 1.5 Q779 -37 657 -37 Q497 -37 378.5 36.5 Q260 110 209 220.5 Q158 331 158 594 L158 1471 Z M607 1977 L846 1585 L650 1585 L284 1977 L607 1977 Z " />
<glyph glyph-name="dotlessi" unicode="&#x131;" horiz-adv-x="491" d="M108 1088 L382 1088 L382 0 L108 0 L108 1088 Z " />
<glyph glyph-name="circumflex" unicode="&#x2c6;" horiz-adv-x="1106" d="M144 1287 L444 1570 L663 1570 L961 1287 L663 1287 L555 1418 L444 1287 L144 1287 Z " />
<glyph glyph-name="tilde" unicode="&#x2dc;" horiz-adv-x="983" d="M185 1291 L75 1456 Q203 1555 334 1555 Q383 1555 502 1521 Q583 1499 631 1499 Q715 1499 805 1551 L909 1395 Q783 1287 665 1287 Q602 1287 514 1314 Q442 1335 423 1339 Q397 1343 361 1343 Q273 1343 185 1291 Z " />
<glyph glyph-name="macron" unicode="&#x2c9;" horiz-adv-x="860" d="M145 1287 L145 1508 L714 1508 L714 1287 L145 1287 Z " />
<glyph glyph-name="breve" unicode="&#x2d8;" horiz-adv-x="983" d="M85 1568 L306 1568 Q332 1527 378.5 1506.5 Q425 1486 492 1486 Q560 1486 615 1510 Q651 1526 678 1568 L899 1568 Q880 1441 777.5 1364 Q675 1287 491 1287 Q367 1287 283.5 1321.5 Q200 1356 149 1420 Q98 1484 85 1568 Z " />
<glyph glyph-name="dotaccent" unicode="&#x2d9;" horiz-adv-x="573" d="M286 1573 Q346 1573 388 1531 Q430 1489 430 1430 Q430 1370 388 1328 Q346 1286 286 1286 Q227 1286 185 1328 Q143 1370 143 1430 Q143 1489 185 1531 Q227 1573 286 1573 Z " />
<glyph glyph-name="ring" unicode="&#x2da;" horiz-adv-x="737" d="M368 1734 Q459 1734 523 1668.5 Q587 1603 587 1511 Q587 1418 522.5 1352.5 Q458 1287 368 1287 Q278 1287 213.5 1352.5 Q149 1418 149 1511 Q149 1603 213 1668.5 Q277 1734 368 1734 Z M368 1605 Q334 1605 310 1579 Q286 1553 286 1516 Q286 1478 310.5 1452 Q335 1426 368 1426 Q401 1426 425.5 1452 Q450 1478 450 1516 Q450 1553 426 1579 Q402 1605 368 1605 Z " />
<glyph glyph-name="cedilla" unicode="&#xb8;" horiz-adv-x="696" d="M262 16 L431 16 L419 -30 Q486 -45 524.5 -88.5 Q563 -132 563 -184 Q563 -265 495 -323 Q427 -381 306 -381 Q208 -381 84 -335 L120 -206 Q192 -229 261 -229 Q312 -229 337 -209.5 Q362 -190 362 -158 Q362 -132 343 -117 Q324 -102 283 -102 L227 -104 L262 16 Z " />
<glyph glyph-name="hungarumlaut" unicode="&#x2dd;" horiz-adv-x="1434" d="M568 1679 L891 1679 L525 1287 L329 1287 L568 1679 Z M1014 1679 L1337 1679 L972 1287 L775 1287 L1014 1679 Z " />
<glyph glyph-name="ogonek" unicode="&#x2db;" horiz-adv-x="696" d="M338 0 L482 0 Q342 -83 342 -165 Q342 -206 371 -232 Q400 -258 446 -258 Q480 -258 533 -231 L533 -390 Q464 -405 405 -405 Q287 -405 224 -351 Q161 -297 161 -216 Q161 -155 206 -97 Q251 -39 338 0 Z " />
<glyph glyph-name="caron" unicode="&#x2c7;" horiz-adv-x="1106" d="M144 1570 L444 1570 L555 1438 L663 1570 L961 1570 L663 1287 L444 1287 L144 1570 Z " />
<glyph glyph-name="Lslash" unicode="&#x141;" horiz-adv-x="983" d="M489 995 L713 1257 L713 1001 L489 739 L489 267 L898 267 L898 0 L209 0 L209 411 L41 214 L41 472 L209 668 L209 1471 L489 1471 L489 995 Z " />
<glyph glyph-name="lslash" unicode="&#x142;" horiz-adv-x="655" d="M465 1030 L573 1152 L573 904 L465 782 L465 0 L191 0 L191 477 L82 356 L82 601 L191 724 L191 1508 L465 1508 L465 1030 Z " />
<glyph glyph-name="Scaron" unicode="&#x160;" horiz-adv-x="1065" d="M939 1271 L732 1088 Q623 1240 510 1240 Q455 1240 420 1210.5 Q385 1181 385 1144 Q385 1107 410 1074 Q444 1030 615 885 Q775 751 809 716 Q894 630 929.5 551.5 Q965 473 965 380 Q965 199 840 81 Q715 -37 514 -37 Q357 -37 240.5 40 Q124 117 41 282 L276 424 Q382 229 520 229 Q592 229 641 271 Q690 313 690 368 Q690 418 653 468 Q616 518 490 621 Q250 817 180 923.5 Q110 1030 110 1136 Q110 1289 226.5 1398.5 Q343 1508 514 1508 Q624 1508 723.5 1457 Q823 1406 939 1271 Z M124 1868 L424 1868 L535 1736 L643 1868 L941 1868 L643 1585 L424 1585 L124 1868 Z " />
<glyph glyph-name="scaron" unicode="&#x161;" horiz-adv-x="901" d="M804 936 L635 767 Q532 869 448 869 Q402 869 376 849.5 Q350 830 350 801 Q350 779 366.5 760.5 Q383 742 448 710 L548 660 Q706 582 765 501 Q824 420 824 311 Q824 166 717.5 69 Q611 -28 432 -28 Q194 -28 52 158 L220 341 Q268 285 332.5 250.5 Q397 216 447 216 Q501 216 534 242 Q567 268 567 302 Q567 365 448 425 L356 471 Q92 604 92 804 Q92 933 191.5 1024.5 Q291 1116 446 1116 Q552 1116 645.5 1069.5 Q739 1023 804 936 Z M42 1570 L342 1570 L453 1438 L561 1570 L859 1570 L561 1287 L342 1287 L42 1570 Z " />
<glyph glyph-name="Zcaron" unicode="&#x17d;" horiz-adv-x="1024" d="M90 1471 L980 1471 L455 269 L946 269 L946 0 L47 0 L570 1194 L90 1194 L90 1471 Z M103 1868 L403 1868 L514 1736 L622 1868 L920 1868 L622 1585 L403 1585 L103 1868 Z " />
<glyph glyph-name="zcaron" unicode="&#x17e;" horiz-adv-x="942" d="M91 1088 L926 1088 L436 231 L898 231 L898 0 L16 0 L508 857 L91 857 L91 1088 Z M62 1570 L362 1570 L473 1438 L581 1570 L879 1570 L581 1287 L362 1287 L62 1570 Z " />
<glyph glyph-name="brokenbar" unicode="&#xa6;" horiz-adv-x="1229" d="M537 744 L537 1508 L695 1508 L695 799 L537 744 Z M537 -398 L537 512 L695 567 L695 -398 L537 -398 Z " />
<glyph glyph-name="Eth" unicode="&#xd0;" horiz-adv-x="1520" d="M219 1471 L576 1471 Q896 1471 1052 1391.5 Q1208 1312 1309 1133 Q1410 954 1410 715 Q1410 545 1353.5 402.5 Q1297 260 1197.5 166 Q1098 72 982 36 Q866 0 580 0 L219 0 L219 654 L50 654 L50 817 L219 817 L219 1471 Z M498 1201 L498 817 L800 817 L800 654 L498 654 L498 274 L652 274 Q844 274 930.5 318 Q1017 362 1072 466 Q1127 570 1127 722 Q1127 956 996 1085 Q878 1201 617 1201 L498 1201 Z " />
<glyph glyph-name="eth" unicode="&#xf0;" horiz-adv-x="1311" d="M384 1508 L649 1508 L731 1448 L930 1508 L980 1351 L876 1317 Q1048 1158 1140 966 Q1232 774 1232 582 Q1232 315 1065.5 143.5 Q899 -28 653 -28 Q418 -28 252.5 139 Q87 306 87 544 Q87 796 273 969 Q431 1116 625 1116 Q688 1116 753 1088 Q726 1152 649 1247 L384 1165 L333 1324 L525 1385 Q429 1474 384 1508 Z M657 858 Q528 858 444 771 Q360 684 360 544 Q360 402 442.5 314 Q525 226 653 226 Q782 226 868 315 Q954 404 954 543 Q954 681 870 769.5 Q786 858 657 858 Z " />
<glyph glyph-name="Yacute" unicode="&#xdd;" horiz-adv-x="1270" d="M63 1471 L364 1471 L638 943 L910 1471 L1207 1471 L777 637 L777 0 L495 0 L495 637 L63 1471 Z M683 1977 L1006 1977 L640 1585 L444 1585 L683 1977 Z " />
<glyph glyph-name="yacute" unicode="&#xfd;" horiz-adv-x="1188" d="M17 1088 L296 1088 L579 405 L891 1088 L1171 1088 L489 -398 L207 -398 L431 81 L17 1088 Z M641 1679 L964 1679 L598 1287 L402 1287 L641 1679 Z " />
<glyph glyph-name="Thorn" unicode="&#xde;" horiz-adv-x="1147" d="M167 1471 L447 1471 L447 1159 Q703 1159 809.5 1115.5 Q916 1072 978.5 972.5 Q1041 873 1041 733 Q1041 578 960.5 476.5 Q880 375 742 335 Q661 311 447 311 L447 0 L167 0 L167 1471 Z M447 584 L536 584 Q641 584 682 599 Q723 614 746.5 649 Q770 684 770 733 Q770 817 704 857 Q656 886 526 886 L447 886 L447 584 Z " />
<glyph glyph-name="thorn" unicode="&#xfe;" horiz-adv-x="1352" d="M409 1508 L409 968 Q483 1042 569 1079 Q655 1116 753 1116 Q966 1116 1115 955 Q1264 794 1264 542 Q1264 299 1110 135.5 Q956 -28 745 -28 Q651 -28 570 5.5 Q489 39 409 115 L409 -398 L138 -398 L138 1508 L409 1508 Z M696 864 Q567 864 482 776 Q397 688 397 546 Q397 401 482 311.5 Q567 222 696 222 Q821 222 906.5 313 Q992 404 992 545 Q992 685 908 774.5 Q824 864 696 864 Z " />
<glyph glyph-name="minus" unicode="&#x2212;" horiz-adv-x="1229" d="M115 860 L1114 860 L1114 610 L115 610 L115 860 Z " />
<glyph glyph-name="multiply" unicode="&#xd7;" horiz-adv-x="1229" d="M613 588 L296 272 L148 419 L465 736 L148 1053 L296 1201 L613 884 L929 1201 L1077 1053 L760 736 L1077 419 L929 272 L613 588 Z " />
<glyph glyph-name="onesuperior" unicode="&#xb9;" horiz-adv-x="688" d="M199 1489 L464 1489 L464 733 L276 733 L276 1332 L83 1332 L199 1489 Z " />
<glyph glyph-name="twosuperior" unicode="&#xb2;" horiz-adv-x="688" d="M227 1227 L42 1227 Q48 1359 130.5 1433.5 Q213 1508 353 1508 Q492 1508 564.5 1434 Q637 1360 637 1278 Q637 1211 593 1134 Q549 1057 429 952 L359 890 L644 890 L644 733 L19 733 L19 821 L291 1053 Q388 1136 418 1183 Q448 1230 448 1267 Q448 1303 419.5 1326.5 Q391 1350 342 1350 Q290 1350 259 1318 Q228 1286 227 1227 Z " />
<glyph glyph-name="threesuperior" unicode="&#xb3;" horiz-adv-x="688" d="M244 1282 L61 1282 Q84 1390 140 1439 Q218 1508 342 1508 Q459 1508 532.5 1447.5 Q606 1387 606 1307 Q606 1211 513 1158 Q579 1131 616.5 1078.5 Q654 1026 654 966 Q654 865 566 790 Q478 715 332 715 Q196 715 114.5 788 Q33 861 30 981 L214 981 Q233 870 340 870 Q395 870 430 897.5 Q465 925 465 961 Q465 1060 268 1066 L268 1204 Q356 1204 389 1226.5 Q422 1249 422 1286 Q422 1314 401.5 1333.5 Q381 1353 347 1353 Q280 1353 244 1282 Z " />
<glyph glyph-name="onehalf" unicode="&#xbd;" horiz-adv-x="1720" d="M207 1489 L472 1489 L472 733 L284 733 L284 1332 L91 1332 L207 1489 Z M426 -37 L1052 1508 L1223 1508 L597 -37 L426 -37 Z M1251 494 L1066 494 Q1072 626 1154.5 700.5 Q1237 775 1377 775 Q1516 775 1588.5 701 Q1661 627 1661 545 Q1661 478 1617 401 Q1573 324 1453 219 L1383 157 L1668 157 L1668 0 L1043 0 L1043 88 L1315 320 Q1412 403 1442 450 Q1472 497 1472 534 Q1472 570 1443.5 593.5 Q1415 617 1366 617 Q1314 617 1283 585 Q1252 553 1251 494 Z " />
<glyph glyph-name="onequarter" unicode="&#xbc;" horiz-adv-x="1720" d="M207 1489 L472 1489 L472 733 L284 733 L284 1332 L91 1332 L207 1489 Z M462 -37 L1088 1508 L1259 1508 L633 -37 L462 -37 Z M1424 775 L1606 775 L1606 290 L1684 290 L1684 150 L1606 150 L1606 0 L1437 0 L1437 150 L1042 150 L1042 298 L1424 775 Z M1437 290 L1437 559 L1220 290 L1437 290 Z " />
<glyph glyph-name="threequarters" unicode="&#xbe;" horiz-adv-x="1720" d="M252 1282 L69 1282 Q92 1390 148 1439 Q226 1508 350 1508 Q467 1508 540.5 1447.5 Q614 1387 614 1307 Q614 1211 521 1158 Q587 1131 624.5 1078.5 Q662 1026 662 966 Q662 865 574 790 Q486 715 340 715 Q204 715 122.5 788 Q41 861 38 981 L222 981 Q241 870 348 870 Q403 870 438 897.5 Q473 925 473 961 Q473 1060 276 1066 L276 1204 Q364 1204 397 1226.5 Q430 1249 430 1286 Q430 1314 409.5 1333.5 Q389 1353 355 1353 Q288 1353 252 1282 Z M486 -37 L1112 1508 L1283 1508 L657 -37 L486 -37 Z M1424 775 L1606 775 L1606 290 L1684 290 L1684 150 L1606 150 L1606 0 L1437 0 L1437 150 L1042 150 L1042 298 L1424 775 Z M1437 290 L1437 559 L1220 290 L1437 290 Z " />
<glyph glyph-name="franc" unicode="&#x20a3;" horiz-adv-x="983" d="M449 413 L675 413 L675 250 L449 250 L449 0 L172 0 L172 250 L0 250 L0 413 L172 413 L172 1471 L902 1471 L902 1198 L449 1198 L449 931 L902 931 L902 662 L449 662 L449 413 Z " />
<glyph glyph-name="Gbreve" unicode="&#x11e;" horiz-adv-x="1720" d="M1526 1231 L1329 1036 Q1142 1234 893 1234 Q676 1234 529.5 1090 Q383 946 383 740 Q383 527 535 379 Q687 231 910 231 Q1055 231 1154.5 292 Q1254 353 1315 483 L889 483 L889 746 L1629 746 L1631 684 Q1631 491 1531 318 Q1431 145 1272 54 Q1113 -37 899 -37 Q670 -37 490.5 62.5 Q311 162 206.5 346 Q102 530 102 743 Q102 1035 295 1251 Q524 1508 891 1508 Q1083 1508 1250 1437 Q1391 1377 1526 1231 Z M453 1864 L674 1864 Q700 1823 746.5 1802.5 Q793 1782 860 1782 Q928 1782 983 1806 Q1019 1822 1046 1864 L1267 1864 Q1248 1737 1145.5 1660 Q1043 1583 859 1583 Q735 1583 651.5 1617.5 Q568 1652 517 1716 Q466 1780 453 1864 Z " />
<glyph glyph-name="gbreve" unicode="&#x11f;" horiz-adv-x="1352" d="M942 1088 L1214 1088 L1214 156 Q1214 -120 1103 -250 Q954 -426 654 -426 Q494 -426 385 -386 Q276 -346 201 -268.5 Q126 -191 90 -80 L391 -80 Q431 -126 494 -149.5 Q557 -173 643 -173 Q753 -173 820 -139 Q887 -105 914.5 -51 Q942 3 942 135 Q870 63 791 31.5 Q712 0 612 0 Q393 0 242 158 Q91 316 91 558 Q91 817 251 974 Q396 1116 597 1116 Q691 1116 774.5 1081.5 Q858 1047 942 968 L942 1088 Z M659 861 Q530 861 446 774.5 Q362 688 362 557 Q362 421 448 334 Q534 247 664 247 Q791 247 873.5 332 Q956 417 956 555 Q956 691 873 776 Q790 861 659 861 Z M305 1568 L526 1568 Q552 1527 598.5 1506.5 Q645 1486 712 1486 Q780 1486 835 1510 Q871 1526 898 1568 L1119 1568 Q1100 1441 997.5 1364 Q895 1287 711 1287 Q587 1287 503.5 1321.5 Q420 1356 369 1420 Q318 1484 305 1568 Z " />
<glyph glyph-name="Idot" unicode="&#x130;" horiz-adv-x="573" d="M148 1471 L426 1471 L426 0 L148 0 L148 1471 Z M286 1869 Q346 1869 388 1827 Q430 1785 430 1726 Q430 1666 388 1624 Q346 1582 286 1582 Q227 1582 185 1624 Q143 1666 143 1726 Q143 1785 185 1827 Q227 1869 286 1869 Z " />
<glyph glyph-name="Scedilla" unicode="&#x15e;" horiz-adv-x="1065" d="M939 1271 L732 1088 Q623 1240 510 1240 Q455 1240 420 1210.5 Q385 1181 385 1144 Q385 1107 410 1074 Q444 1030 615 885 Q775 751 809 716 Q894 630 929.5 551.5 Q965 473 965 380 Q965 199 840 81 Q715 -37 514 -37 Q357 -37 240.5 40 Q124 117 41 282 L276 424 Q382 229 520 229 Q592 229 641 271 Q690 313 690 368 Q690 418 653 468 Q616 518 490 621 Q250 817 180 923.5 Q110 1030 110 1136 Q110 1289 226.5 1398.5 Q343 1508 514 1508 Q624 1508 723.5 1457 Q823 1406 939 1271 Z M447 16 L616 16 L604 -30 Q671 -45 709.5 -88.5 Q748 -132 748 -184 Q748 -265 680 -323 Q612 -381 491 -381 Q393 -381 269 -335 L305 -206 Q377 -229 446 -229 Q497 -229 522 -209.5 Q547 -190 547 -158 Q547 -132 528 -117 Q509 -102 468 -102 L412 -104 L447 16 Z " />
<glyph glyph-name="scedilla" unicode="&#x15f;" horiz-adv-x="901" d="M804 936 L635 767 Q532 869 448 869 Q402 869 376 849.5 Q350 830 350 801 Q350 779 366.5 760.5 Q383 742 448 710 L548 660 Q706 582 765 501 Q824 420 824 311 Q824 166 717.5 69 Q611 -28 432 -28 Q194 -28 52 158 L220 341 Q268 285 332.5 250.5 Q397 216 447 216 Q501 216 534 242 Q567 268 567 302 Q567 365 448 425 L356 471 Q92 604 92 804 Q92 933 191.5 1024.5 Q291 1116 446 1116 Q552 1116 645.5 1069.5 Q739 1023 804 936 Z M365 16 L534 16 L522 -30 Q589 -45 627.5 -88.5 Q666 -132 666 -184 Q666 -265 598 -323 Q530 -381 409 -381 Q311 -381 187 -335 L223 -206 Q295 -229 364 -229 Q415 -229 440 -209.5 Q465 -190 465 -158 Q465 -132 446 -117 Q427 -102 386 -102 L330 -104 L365 16 Z " />
<glyph glyph-name="Cacute" unicode="&#x106;" horiz-adv-x="1597" d="M1520 1212 L1324 1025 Q1124 1236 874 1236 Q663 1236 518.5 1092 Q374 948 374 737 Q374 590 438 476 Q502 362 619 297 Q736 232 879 232 Q1001 232 1102 277.5 Q1203 323 1324 443 L1514 245 Q1351 86 1206 24.5 Q1061 -37 875 -37 Q532 -37 313.5 180.5 Q95 398 95 738 Q95 958 194.5 1129 Q294 1300 479.5 1404 Q665 1508 879 1508 Q1061 1508 1229.5 1431 Q1398 1354 1520 1212 Z M895 1975 L1218 1975 L852 1583 L656 1583 L895 1975 Z " />
<glyph glyph-name="cacute" unicode="&#x107;" horiz-adv-x="1311" d="M1203 868 L976 743 Q912 810 849.5 836 Q787 862 703 862 Q550 862 455.5 770.5 Q361 679 361 536 Q361 397 452 309 Q543 221 691 221 Q874 221 976 346 L1191 199 Q1016 -28 697 -28 Q410 -28 247.5 142 Q85 312 85 540 Q85 698 164 831 Q243 964 384.5 1040 Q526 1116 701 1116 Q863 1116 992 1051.5 Q1121 987 1203 868 Z M740 1679 L1063 1679 L697 1287 L501 1287 L740 1679 Z " />
<glyph glyph-name="Ccaron" unicode="&#x10c;" horiz-adv-x="1597" d="M1520 1212 L1324 1025 Q1124 1236 874 1236 Q663 1236 518.5 1092 Q374 948 374 737 Q374 590 438 476 Q502 362 619 297 Q736 232 879 232 Q1001 232 1102 277.5 Q1203 323 1324 443 L1514 245 Q1351 86 1206 24.5 Q1061 -37 875 -37 Q532 -37 313.5 180.5 Q95 398 95 738 Q95 958 194.5 1129 Q294 1300 479.5 1404 Q665 1508 879 1508 Q1061 1508 1229.5 1431 Q1398 1354 1520 1212 Z M463 1866 L763 1866 L874 1734 L982 1866 L1280 1866 L982 1583 L763 1583 L463 1866 Z " />
<glyph glyph-name="ccaron" unicode="&#x10d;" horiz-adv-x="1311" d="M1203 868 L976 743 Q912 810 849.5 836 Q787 862 703 862 Q550 862 455.5 770.5 Q361 679 361 536 Q361 397 452 309 Q543 221 691 221 Q874 221 976 346 L1191 199 Q1016 -28 697 -28 Q410 -28 247.5 142 Q85 312 85 540 Q85 698 164 831 Q243 964 384.5 1040 Q526 1116 701 1116 Q863 1116 992 1051.5 Q1121 987 1203 868 Z M283 1570 L583 1570 L694 1438 L802 1570 L1100 1570 L802 1287 L583 1287 L283 1570 Z " />
<glyph glyph-name="dmacron" unicode="&#x111;" horiz-adv-x="1352" d="M942 1508 L1214 1508 L1214 1394 L1351 1394 L1351 1231 L1214 1231 L1214 0 L942 0 L942 115 Q862 39 781.5 5.5 Q701 -28 607 -28 Q396 -28 242 135.5 Q88 299 88 542 Q88 794 237 955 Q386 1116 599 1116 Q697 1116 783 1079 Q869 1042 942 968 L942 1231 L515 1231 L515 1394 L942 1394 L942 1508 Z M655 864 Q528 864 444 774.5 Q360 685 360 545 Q360 404 445.5 313 Q531 222 656 222 Q785 222 870 311.5 Q955 401 955 546 Q955 688 870 776 Q785 864 655 864 Z " />
<glyph glyph-name="overscore" unicode="&#xaf;" horiz-adv-x="1024" d="M-12 1685 L1036 1685 L1036 1583 L-12 1583 L-12 1685 Z " />
<glyph glyph-name="middot" unicode="&#xb7;" horiz-adv-x="682" d="M696 897 Q756 897 798 855.5 Q840 814 840 754 Q840 695 798 653 Q756 611 696 611 Q637 611 595 653 Q553 695 553 754 Q553 814 595 855.5 Q637 897 696 897 Z " />
<glyph glyph-name="foursuperior" unicode="&#xf003;" horiz-adv-x="688" d="M400 1508 L582 1508 L582 1023 L660 1023 L660 883 L582 883 L582 733 L413 733 L413 883 L18 883 L18 1031 L400 1508 Z M413 1023 L413 1292 L196 1023 L413 1023 Z " />
<glyph glyph-name="Abreve" unicode="&#x102;" horiz-adv-x="1515" d="M616 1471 L900 1471 L1466 0 L1175 0 L1060 303 L460 303 L340 0 L49 0 L616 1471 Z M760 1081 L564 576 L955 576 L760 1081 Z M360 1866 L581 1866 Q607 1825 653.5 1804.5 Q700 1784 767 1784 Q835 1784 890 1808 Q926 1824 953 1866 L1174 1866 Q1155 1739 1052.5 1662 Q950 1585 766 1585 Q642 1585 558.5 1619.5 Q475 1654 424 1718 Q373 1782 360 1866 Z " />
<glyph glyph-name="abreve" unicode="&#x103;" horiz-adv-x="1352" d="M942 1088 L1214 1088 L1214 0 L942 0 L942 115 Q862 39 781.5 5.5 Q701 -28 607 -28 Q396 -28 242 135.5 Q88 299 88 542 Q88 794 237 955 Q386 1116 599 1116 Q697 1116 783 1079 Q869 1042 942 968 L942 1088 Z M655 864 Q528 864 444 774.5 Q360 685 360 545 Q360 404 445.5 313 Q531 222 656 222 Q785 222 870 311.5 Q955 401 955 546 Q955 688 870 776 Q785 864 655 864 Z M251 1568 L472 1568 Q498 1527 544.5 1506.5 Q591 1486 658 1486 Q726 1486 781 1510 Q817 1526 844 1568 L1065 1568 Q1046 1441 943.5 1364 Q841 1287 657 1287 Q533 1287 449.5 1321.5 Q366 1356 315 1420 Q264 1484 251 1568 Z " />
<glyph glyph-name="Aogonek" unicode="&#x104;" horiz-adv-x="1515" d="M616 1471 L900 1471 L1466 0 L1175 0 L1060 303 L460 303 L340 0 L49 0 L616 1471 Z M760 1081 L564 576 L955 576 L760 1081 Z M1313 0 L1457 0 Q1317 -83 1317 -165 Q1317 -206 1346 -232 Q1375 -258 1421 -258 Q1455 -258 1508 -231 L1508 -390 Q1439 -405 1380 -405 Q1262 -405 1199 -351 Q1136 -297 1136 -216 Q1136 -155 1181 -97 Q1226 -39 1313 0 Z " />
<glyph glyph-name="aogonek" unicode="&#x105;" horiz-adv-x="1352" d="M942 1088 L1214 1088 L1214 0 L942 0 L942 115 Q862 39 781.5 5.5 Q701 -28 607 -28 Q396 -28 242 135.5 Q88 299 88 542 Q88 794 237 955 Q386 1116 599 1116 Q697 1116 783 1079 Q869 1042 942 968 L942 1088 Z M655 864 Q528 864 444 774.5 Q360 685 360 545 Q360 404 445.5 313 Q531 222 656 222 Q785 222 870 311.5 Q955 401 955 546 Q955 688 870 776 Q785 864 655 864 Z M1084 0 L1228 0 Q1088 -83 1088 -165 Q1088 -206 1117 -232 Q1146 -258 1192 -258 Q1226 -258 1279 -231 L1279 -390 Q1210 -405 1151 -405 Q1033 -405 970 -351 Q907 -297 907 -216 Q907 -155 952 -97 Q997 -39 1084 0 Z " />
<glyph glyph-name="Dcaron" unicode="&#x10e;" horiz-adv-x="1434" d="M169 1471 L501 1471 Q822 1471 978 1391.5 Q1134 1312 1235 1133 Q1336 954 1336 715 Q1336 545 1279.5 402.5 Q1223 260 1123.5 166 Q1024 72 908 36 Q792 0 506 0 L169 0 L169 1471 Z M448 1201 L448 274 L578 274 Q770 274 856.5 318 Q943 362 998 466 Q1053 570 1053 722 Q1053 956 922 1085 Q804 1201 543 1201 L448 1201 Z M160 1868 L460 1868 L571 1736 L679 1868 L977 1868 L679 1585 L460 1585 L160 1868 Z " />
<glyph glyph-name="dcaron" unicode="&#x10f;" horiz-adv-x="1477" d="M942 1508 L1214 1508 L1214 0 L942 0 L942 115 Q862 39 781.5 5.5 Q701 -28 607 -28 Q396 -28 242 135.5 Q88 299 88 542 Q88 794 237 955 Q386 1116 599 1116 Q697 1116 783 1079 Q869 1042 942 968 L942 1508 Z M655 864 Q528 864 444 774.5 Q360 685 360 545 Q360 404 445.5 313 Q531 222 656 222 Q785 222 870 311.5 Q955 401 955 546 Q955 688 870 776 Q785 864 655 864 Z M1289 1508 L1541 1508 L1541 1370 Q1541 1238 1508.5 1143 Q1476 1048 1399 947 L1301 1024 Q1338 1078 1355.5 1117.5 Q1373 1157 1390 1222 L1289 1222 L1289 1508 Z " />
<glyph glyph-name="Dslash" unicode="&#x110;" horiz-adv-x="1520" d="M219 1471 L576 1471 Q896 1471 1052 1391.5 Q1208 1312 1309 1133 Q1410 954 1410 715 Q1410 545 1353.5 402.5 Q1297 260 1197.5 166 Q1098 72 982 36 Q866 0 580 0 L219 0 L219 654 L50 654 L50 817 L219 817 L219 1471 Z M498 1201 L498 817 L800 817 L800 654 L498 654 L498 274 L652 274 Q844 274 930.5 318 Q1017 362 1072 466 Q1127 570 1127 722 Q1127 956 996 1085 Q878 1201 617 1201 L498 1201 Z " />
<glyph glyph-name="Eogonek" unicode="&#x118;" horiz-adv-x="1065" d="M169 1471 L972 1471 L972 1197 L447 1197 L447 931 L972 931 L972 662 L447 662 L447 275 L972 275 L972 0 L169 0 L169 1471 Z M693 0 L837 0 Q697 -83 697 -165 Q697 -206 726 -232 Q755 -258 801 -258 Q835 -258 888 -231 L888 -390 Q819 -405 760 -405 Q642 -405 579 -351 Q516 -297 516 -216 Q516 -155 561 -97 Q606 -39 693 0 Z " />
<glyph glyph-name="eogonek" unicode="&#x119;" horiz-adv-x="1311" d="M1228 465 L351 465 Q370 349 452.5 280.5 Q535 212 663 212 Q816 212 926 319 L1156 211 Q1070 89 950 30.5 Q830 -28 665 -28 Q409 -28 248 133.5 Q87 295 87 538 Q87 787 247.5 951.5 Q408 1116 650 1116 Q907 1116 1068 951.5 Q1229 787 1229 517 L1228 465 Z M954 680 Q927 771 847.5 828 Q768 885 663 885 Q549 885 463 821 Q409 781 363 680 L954 680 Z M638 0 L782 0 Q642 -83 642 -165 Q642 -206 671 -232 Q700 -258 746 -258 Q780 -258 833 -231 L833 -390 Q764 -405 705 -405 Q587 -405 524 -351 Q461 -297 461 -216 Q461 -155 506 -97 Q551 -39 638 0 Z " />
<glyph glyph-name="Ecaron" unicode="&#x11a;" horiz-adv-x="1065" d="M169 1471 L972 1471 L972 1197 L447 1197 L447 931 L972 931 L972 662 L447 662 L447 275 L972 275 L972 0 L169 0 L169 1471 Z M194 1868 L494 1868 L605 1736 L713 1868 L1011 1868 L713 1585 L494 1585 L194 1868 Z " />
<glyph glyph-name="ecaron" unicode="&#x11b;" horiz-adv-x="1311" d="M1228 465 L351 465 Q370 349 452.5 280.5 Q535 212 663 212 Q816 212 926 319 L1156 211 Q1070 89 950 30.5 Q830 -28 665 -28 Q409 -28 248 133.5 Q87 295 87 538 Q87 787 247.5 951.5 Q408 1116 650 1116 Q907 1116 1068 951.5 Q1229 787 1229 517 L1228 465 Z M954 680 Q927 771 847.5 828 Q768 885 663 885 Q549 885 463 821 Q409 781 363 680 L954 680 Z M247 1570 L547 1570 L658 1438 L766 1570 L1064 1570 L766 1287 L547 1287 L247 1570 Z " />
<glyph glyph-name="IJ" unicode="&#x132;" horiz-adv-x="1556" d="M148 1471 L426 1471 L426 0 L148 0 L148 1471 Z M1107 1471 L1388 1471 L1388 495 Q1388 291 1360.5 193 Q1333 95 1244 29 Q1155 -37 1024 -37 Q782 -37 611 176 L813 365 Q923 237 1019 237 Q1070 237 1088.5 281 Q1107 325 1107 442 L1107 1471 Z " />
<glyph glyph-name="ij" unicode="&#x133;" horiz-adv-x="1024" d="M936 1361 Q936 1288 884.5 1236.5 Q833 1185 760 1185 Q688 1185 636 1236.5 Q584 1288 584 1361 Q584 1434 636 1485.5 Q688 1537 760 1537 Q833 1537 884.5 1485.5 Q936 1434 936 1361 Z M423 1361 Q423 1288 371 1236.5 Q319 1185 247 1185 Q175 1185 123 1236.5 Q71 1288 71 1361 Q71 1433 123 1484.5 Q175 1536 247 1536 Q320 1536 371.5 1485 Q423 1434 423 1361 Z M110 1088 L384 1088 L384 0 L110 0 L110 1088 Z M623 1088 L897 1088 L897 -36 Q897 -277 814 -351.5 Q731 -426 612 -426 Q526 -426 407 -385 L407 -170 Q469 -201 519 -201 Q567 -201 595 -172.5 Q623 -144 623 -56 L623 1088 Z " />
<glyph glyph-name="Lacute" unicode="&#x139;" horiz-adv-x="901" d="M168 1471 L448 1471 L448 267 L856 267 L856 0 L168 0 L168 1471 Z M453 1977 L776 1977 L410 1585 L214 1585 L453 1977 Z " />
<glyph glyph-name="lacute" unicode="&#x13a;" horiz-adv-x="491" d="M109 1508 L382 1508 L382 0 L109 0 L109 1508 Z M258 1977 L581 1977 L215 1585 L19 1585 L258 1977 Z " />
<glyph glyph-name="Lcaron" unicode="&#x13d;" horiz-adv-x="901" d="M168 1471 L448 1471 L448 267 L856 267 L856 0 L168 0 L168 1471 Z M580 1508 L832 1508 L832 1370 Q832 1238 799.5 1143 Q767 1048 690 947 L592 1024 Q629 1078 646.5 1117.5 Q664 1157 681 1222 L580 1222 L580 1508 Z " />
<glyph glyph-name="lcaron" unicode="&#x13e;" horiz-adv-x="645" d="M109 1508 L382 1508 L382 0 L109 0 L109 1508 Z M480 1508 L732 1508 L732 1370 Q732 1238 699.5 1143 Q667 1048 590 947 L492 1024 Q529 1078 546.5 1117.5 Q564 1157 581 1222 L480 1222 L480 1508 Z " />
<glyph glyph-name="Ldot" unicode="&#x13f;" horiz-adv-x="901" d="M168 1471 L448 1471 L448 267 L856 267 L856 0 L168 0 L168 1471 Z M676 897 Q736 897 778 855.5 Q820 814 820 754 Q820 695 778 653 Q736 611 676 611 Q617 611 575 653 Q533 695 533 754 Q533 814 575 855.5 Q617 897 676 897 Z " />
<glyph glyph-name="ldot" unicode="&#x140;" horiz-adv-x="711" d="M109 1508 L382 1508 L382 0 L109 0 L109 1508 Z M596 897 Q656 897 698 855.5 Q740 814 740 754 Q740 695 698 653 Q656 611 596 611 Q537 611 495 653 Q453 695 453 754 Q453 814 495 855.5 Q537 897 596 897 Z " />
<glyph glyph-name="Nacute" unicode="&#x143;" horiz-adv-x="1515" d="M169 1471 L437 1471 L1068 503 L1068 1471 L1348 1471 L1348 0 L1079 0 L449 965 L449 0 L169 0 L169 1471 Z M845 1977 L1168 1977 L802 1585 L606 1585 L845 1977 Z " />
<glyph glyph-name="nacute" unicode="&#x144;" horiz-adv-x="1229" d="M138 1088 L410 1088 L410 977 Q503 1055 578.5 1085.5 Q654 1116 733 1116 Q895 1116 1008 1003 Q1103 907 1103 719 L1103 0 L833 0 L833 477 Q833 672 815.5 736 Q798 800 754.5 833.5 Q711 867 647 867 Q564 867 504.5 811.5 Q445 756 422 658 Q410 607 410 437 L410 0 L138 0 L138 1088 Z M651 1679 L974 1679 L608 1287 L412 1287 L651 1679 Z " />
<glyph glyph-name="Ncaron" unicode="&#x147;" horiz-adv-x="1515" d="M169 1471 L437 1471 L1068 503 L1068 1471 L1348 1471 L1348 0 L1079 0 L449 965 L449 0 L169 0 L169 1471 Z M311 1868 L611 1868 L722 1736 L830 1868 L1128 1868 L830 1585 L611 1585 L311 1868 Z " />
<glyph glyph-name="ncaron" unicode="&#x148;" horiz-adv-x="1229" d="M138 1088 L410 1088 L410 977 Q503 1055 578.5 1085.5 Q654 1116 733 1116 Q895 1116 1008 1003 Q1103 907 1103 719 L1103 0 L833 0 L833 477 Q833 672 815.5 736 Q798 800 754.5 833.5 Q711 867 647 867 Q564 867 504.5 811.5 Q445 756 422 658 Q410 607 410 437 L410 0 L138 0 L138 1088 Z M297 1570 L597 1570 L708 1438 L816 1570 L1114 1570 L816 1287 L597 1287 L297 1570 Z " />
<glyph glyph-name="napostrophe" unicode="&#x149;" horiz-adv-x="1317" d="M226 1088 L498 1088 L498 977 Q591 1055 666.5 1085.5 Q742 1116 821 1116 Q983 1116 1096 1003 Q1191 907 1191 719 L1191 0 L921 0 L921 477 Q921 672 903.5 736 Q886 800 842.5 833.5 Q799 867 735 867 Q652 867 592.5 811.5 Q533 756 510 658 Q498 607 498 437 L498 0 L226 0 L226 1088 Z M-51 1508 L201 1508 L201 1370 Q201 1238 168.5 1143 Q136 1048 59 947 L-39 1024 Q-2 1078 15.5 1117.5 Q33 1157 50 1222 L-51 1222 L-51 1508 Z " />
<glyph glyph-name="Odblacute" unicode="&#x150;" horiz-adv-x="1720" d="M863 1508 Q1175 1508 1399.5 1282 Q1624 1056 1624 731 Q1624 409 1402.5 186 Q1181 -37 865 -37 Q534 -37 315 192 Q96 421 96 736 Q96 947 198 1124 Q300 1301 478.5 1404.5 Q657 1508 863 1508 Z M860 1234 Q656 1234 517 1092 Q378 950 378 731 Q378 487 553 345 Q689 234 865 234 Q1064 234 1204 378 Q1344 522 1344 733 Q1344 943 1203 1088.5 Q1062 1234 860 1234 Z M793 1977 L1116 1977 L750 1585 L554 1585 L793 1977 Z M1239 1977 L1562 1977 L1197 1585 L1000 1585 L1239 1977 Z " />
<glyph glyph-name="odblacute" unicode="&#x151;" horiz-adv-x="1311" d="M649 1116 Q803 1116 938.5 1039 Q1074 962 1150 830 Q1226 698 1226 545 Q1226 391 1149.5 257 Q1073 123 941 47.5 Q809 -28 650 -28 Q416 -28 250.5 138.5 Q85 305 85 543 Q85 798 272 968 Q436 1116 649 1116 Z M653 859 Q526 859 441.5 770.5 Q357 682 357 544 Q357 402 440.5 314 Q524 226 652 226 Q780 226 865 315 Q950 404 950 544 Q950 684 866.5 771.5 Q783 859 653 859 Z M611 1679 L934 1679 L568 1287 L372 1287 L611 1679 Z M1057 1679 L1380 1679 L1015 1287 L818 1287 L1057 1679 Z " />
<glyph glyph-name="Racute" unicode="&#x154;" horiz-adv-x="1188" d="M187 1471 L484 1471 Q728 1471 831.5 1427.5 Q935 1384 998 1283 Q1061 1182 1061 1044 Q1061 899 991.5 801.5 Q922 704 782 654 L1130 0 L824 0 L493 623 L467 623 L467 0 L187 0 L187 1471 Z M467 896 L555 896 Q689 896 739.5 931 Q790 966 790 1047 Q790 1095 765 1130.5 Q740 1166 698 1181.5 Q656 1197 544 1197 L467 1197 L467 896 Z M678 1977 L1001 1977 L635 1585 L439 1585 L678 1977 Z " />
<glyph glyph-name="racute" unicode="&#x155;" horiz-adv-x="655" d="M74 1088 L308 1088 L308 951 Q346 1032 409 1074 Q472 1116 547 1116 Q600 1116 658 1088 L573 853 Q525 877 494 877 Q431 877 387.5 799 Q344 721 344 493 L345 440 L345 0 L74 0 L74 1088 Z M403 1679 L726 1679 L360 1287 L164 1287 L403 1679 Z " />
<glyph glyph-name="Rcaron" unicode="&#x158;" horiz-adv-x="1188" d="M187 1471 L484 1471 Q728 1471 831.5 1427.5 Q935 1384 998 1283 Q1061 1182 1061 1044 Q1061 899 991.5 801.5 Q922 704 782 654 L1130 0 L824 0 L493 623 L467 623 L467 0 L187 0 L187 1471 Z M467 896 L555 896 Q689 896 739.5 931 Q790 966 790 1047 Q790 1095 765 1130.5 Q740 1166 698 1181.5 Q656 1197 544 1197 L467 1197 L467 896 Z M185 1868 L485 1868 L596 1736 L704 1868 L1002 1868 L704 1585 L485 1585 L185 1868 Z " />
<glyph glyph-name="rcaron" unicode="&#x159;" horiz-adv-x="655" d="M74 1088 L308 1088 L308 951 Q346 1032 409 1074 Q472 1116 547 1116 Q600 1116 658 1088 L573 853 Q525 877 494 877 Q431 877 387.5 799 Q344 721 344 493 L345 440 L345 0 L74 0 L74 1088 Z M-81 1570 L219 1570 L330 1438 L438 1570 L736 1570 L438 1287 L219 1287 L-81 1570 Z " />
<glyph glyph-name="Sacute" unicode="&#x15a;" horiz-adv-x="1065" d="M939 1271 L732 1088 Q623 1240 510 1240 Q455 1240 420 1210.5 Q385 1181 385 1144 Q385 1107 410 1074 Q444 1030 615 885 Q775 751 809 716 Q894 630 929.5 551.5 Q965 473 965 380 Q965 199 840 81 Q715 -37 514 -37 Q357 -37 240.5 40 Q124 117 41 282 L276 424 Q382 229 520 229 Q592 229 641 271 Q690 313 690 368 Q690 418 653 468 Q616 518 490 621 Q250 817 180 923.5 Q110 1030 110 1136 Q110 1289 226.5 1398.5 Q343 1508 514 1508 Q624 1508 723.5 1457 Q823 1406 939 1271 Z M508 1977 L831 1977 L465 1585 L269 1585 L508 1977 Z " />
<glyph glyph-name="sacute" unicode="&#x15b;" horiz-adv-x="901" d="M804 936 L635 767 Q532 869 448 869 Q402 869 376 849.5 Q350 830 350 801 Q350 779 366.5 760.5 Q383 742 448 710 L548 660 Q706 582 765 501 Q824 420 824 311 Q824 166 717.5 69 Q611 -28 432 -28 Q194 -28 52 158 L220 341 Q268 285 332.5 250.5 Q397 216 447 216 Q501 216 534 242 Q567 268 567 302 Q567 365 448 425 L356 471 Q92 604 92 804 Q92 933 191.5 1024.5 Q291 1116 446 1116 Q552 1116 645.5 1069.5 Q739 1023 804 936 Z M478 1679 L801 1679 L435 1287 L239 1287 L478 1679 Z " />
<glyph glyph-name="Tcedilla" unicode="&#x162;" horiz-adv-x="860" d="M23 1471 L836 1471 L836 1195 L572 1195 L572 0 L288 0 L288 1195 L23 1195 L23 1471 Z M340 -121 L520 -121 L520 -150 Q520 -280 501 -328.5 Q482 -377 420 -428 L367 -374 Q414 -336 428 -286 L340 -286 L340 -121 Z " />
<glyph glyph-name="tcedilla" unicode="&#x163;" horiz-adv-x="614" d="M171 1489 L443 1489 L443 1088 L605 1088 L605 853 L443 853 L443 0 L171 0 L171 853 L31 853 L31 1088 L171 1088 L171 1489 Z M217 -121 L397 -121 L397 -150 Q397 -280 378 -328.5 Q359 -377 297 -428 L244 -374 Q291 -336 305 -286 L217 -286 L217 -121 Z " />
<glyph glyph-name="Tcaron" unicode="&#x164;" horiz-adv-x="860" d="M23 1471 L836 1471 L836 1195 L568 1195 L568 0 L284 0 L284 1195 L23 1195 L23 1471 Z M24 1868 L324 1868 L435 1736 L543 1868 L841 1868 L543 1585 L324 1585 L24 1868 Z " />
<glyph glyph-name="tcaron" unicode="&#x165;" horiz-adv-x="735" d="M595 1508 L799 1508 L799 1458 Q799 1260 684 1120 L605 1181 Q670 1262 677 1339 L595 1339 L595 1508 Z M171 1489 L443 1489 L443 1088 L605 1088 L605 853 L443 853 L443 0 L171 0 L171 853 L31 853 L31 1088 L171 1088 L171 1489 Z " />
<glyph glyph-name="Uring" unicode="&#x16e;" horiz-adv-x="1311" d="M158 1471 L439 1471 L439 519 Q439 396 460.5 345 Q482 294 531.5 263.5 Q581 233 651 233 Q725 233 778.5 267 Q832 301 852.5 353.5 Q873 406 873 554 L873 1471 L1154 1471 L1154 594 Q1154 372 1129 286 Q1104 200 1033.5 120 Q963 40 871 1.5 Q779 -37 657 -37 Q497 -37 378.5 36.5 Q260 110 209 220.5 Q158 331 158 594 L158 1471 Z M668 2032 Q759 2032 823 1966.5 Q887 1901 887 1809 Q887 1716 822.5 1650.5 Q758 1585 668 1585 Q578 1585 513.5 1650.5 Q449 1716 449 1809 Q449 1901 513 1966.5 Q577 2032 668 2032 Z M668 1903 Q634 1903 610 1877 Q586 1851 586 1814 Q586 1776 610.5 1750 Q635 1724 668 1724 Q701 1724 725.5 1750 Q750 1776 750 1814 Q750 1851 726 1877 Q702 1903 668 1903 Z " />
<glyph glyph-name="uring" unicode="&#x16f;" horiz-adv-x="1229" d="M137 1088 L413 1088 L413 564 Q413 411 434 351.5 Q455 292 501.5 259 Q548 226 616 226 Q684 226 731.5 258.5 Q779 291 802 354 Q819 401 819 555 L819 1088 L1093 1088 L1093 627 Q1093 342 1048 237 Q993 109 886 40.5 Q779 -28 614 -28 Q435 -28 324.5 52 Q214 132 169 275 Q137 374 137 635 L137 1088 Z M571 1734 Q662 1734 726 1668.5 Q790 1603 790 1511 Q790 1418 725.5 1352.5 Q661 1287 571 1287 Q481 1287 416.5 1352.5 Q352 1418 352 1511 Q352 1603 416 1668.5 Q480 1734 571 1734 Z M571 1605 Q537 1605 513 1579 Q489 1553 489 1516 Q489 1478 513.5 1452 Q538 1426 571 1426 Q604 1426 628.5 1452 Q653 1478 653 1516 Q653 1553 629 1579 Q605 1605 571 1605 Z " />
<glyph glyph-name="Udblacute" unicode="&#x170;" horiz-adv-x="1311" d="M158 1471 L439 1471 L439 519 Q439 396 460.5 345 Q482 294 531.5 263.5 Q581 233 651 233 Q725 233 778.5 267 Q832 301 852.5 353.5 Q873 406 873 554 L873 1471 L1154 1471 L1154 594 Q1154 372 1129 286 Q1104 200 1033.5 120 Q963 40 871 1.5 Q779 -37 657 -37 Q497 -37 378.5 36.5 Q260 110 209 220.5 Q158 331 158 594 L158 1471 Z M568 1977 L891 1977 L525 1585 L329 1585 L568 1977 Z M1014 1977 L1337 1977 L972 1585 L775 1585 L1014 1977 Z " />
<glyph glyph-name="udblacute" unicode="&#x171;" horiz-adv-x="1229" d="M137 1088 L413 1088 L413 564 Q413 411 434 351.5 Q455 292 501.5 259 Q548 226 616 226 Q684 226 731.5 258.5 Q779 291 802 354 Q819 401 819 555 L819 1088 L1093 1088 L1093 627 Q1093 342 1048 237 Q993 109 886 40.5 Q779 -28 614 -28 Q435 -28 324.5 52 Q214 132 169 275 Q137 374 137 635 L137 1088 Z M468 1679 L791 1679 L425 1287 L229 1287 L468 1679 Z M914 1679 L1237 1679 L872 1287 L675 1287 L914 1679 Z " />
<glyph glyph-name="Zacute" unicode="&#x179;" horiz-adv-x="1024" d="M90 1471 L980 1471 L455 269 L946 269 L946 0 L47 0 L570 1194 L90 1194 L90 1471 Z M578 1977 L901 1977 L535 1585 L339 1585 L578 1977 Z " />
<glyph glyph-name="zacute" unicode="&#x17a;" horiz-adv-x="942" d="M91 1088 L926 1088 L436 231 L898 231 L898 0 L16 0 L508 857 L91 857 L91 1088 Z M478 1679 L801 1679 L435 1287 L239 1287 L478 1679 Z " />
<glyph glyph-name="Zdot" unicode="&#x17b;" horiz-adv-x="1024" d="M90 1471 L980 1471 L455 269 L946 269 L946 0 L47 0 L570 1194 L90 1194 L90 1471 Z M486 1871 Q546 1871 588 1829 Q630 1787 630 1728 Q630 1668 588 1626 Q546 1584 486 1584 Q427 1584 385 1626 Q343 1668 343 1728 Q343 1787 385 1829 Q427 1871 486 1871 Z " />
<glyph glyph-name="zdot" unicode="&#x17c;" horiz-adv-x="942" d="M91 1088 L926 1088 L436 231 L898 231 L898 0 L16 0 L508 857 L91 857 L91 1088 Z M486 1573 Q546 1573 588 1531 Q630 1489 630 1430 Q630 1370 588 1328 Q546 1286 486 1286 Q427 1286 385 1328 Q343 1370 343 1430 Q343 1489 385 1531 Q427 1573 486 1573 Z " />
<glyph glyph-name="noGamma" unicode="&#xf100;" horiz-adv-x="1101" d="M167 1467 L1067 1467 L1067 1239 L468 1239 L468 0 L167 0 L167 1467 Z " />
<glyph glyph-name="noTheta" unicode="&#xf101;" horiz-adv-x="1635" d="M828 1503 Q1154 1503 1346 1308.5 Q1538 1114 1538 744 Q1538 354 1345.5 156.5 Q1153 -41 835 -41 Q469 -41 282.5 165.5 Q96 372 96 735 Q96 1079 277 1291 Q458 1503 828 1503 Z M828 1290 Q627 1290 518 1160 Q409 1030 409 723 Q409 433 520.5 304 Q632 175 817 175 Q942 175 1038.5 236.5 Q1135 298 1182 419.5 Q1229 541 1229 730 Q1229 1055 1110.5 1172.5 Q992 1290 828 1290 Z M559 865 L1080 865 L1080 634 L559 634 L559 865 Z " />
<glyph glyph-name="noPhi" unicode="&#xf102;" horiz-adv-x="1896" d="M794 1503 L1097 1503 L1097 1335 Q1800 1301 1800 730 Q1800 428 1611 274 Q1422 120 1098 113 L1098 -175 L794 -175 L794 113 Q432 128 264 288 Q96 448 96 720 Q96 881 152 1009.5 Q208 1138 358.5 1229.5 Q509 1321 794 1337 L794 1503 Z M794 1125 Q653 1118 563 1055 Q473 992 439.5 906 Q406 820 406 726 Q406 637 439 548 Q472 459 561 395 Q650 331 794 325 L794 1125 Z M1097 1123 L1097 325 Q1216 337 1299 376.5 Q1382 416 1434.5 509.5 Q1487 603 1487 726 Q1487 903 1383.5 1009.5 Q1280 1116 1097 1123 Z " />
<glyph glyph-name="noalpha" unicode="&#xf103;" horiz-adv-x="1352" d="M952 228 Q815 -28 544 -28 Q335 -28 210 112.5 Q85 253 85 506 Q85 745 213.5 912.5 Q342 1080 565 1080 Q804 1080 946 850 Q957 936 991 1051 L1275 1051 Q1205 829 1205 561 Q1205 263 1291 0 L1006 0 Q968 118 952 228 Z M654 894 Q521 894 451.5 795 Q382 696 382 518 Q382 335 457.5 250.5 Q533 166 646 166 Q774 166 850 266 Q926 366 926 544 Q926 701 855 797.5 Q784 894 654 894 Z " />
<glyph glyph-name="nodelta" unicode="&#xf104;" horiz-adv-x="1347" d="M625 958 Q393 1134 393 1295 Q393 1410 499 1482.5 Q605 1555 811 1555 Q905 1555 1075 1520 L1075 1329 Q955 1356 872 1356 Q685 1356 685 1262 Q685 1223 720.5 1183 Q756 1143 861 1066 Q1074 911 1168 785 Q1262 659 1262 485 Q1262 258 1108.5 115 Q955 -28 687 -28 Q388 -28 236.5 120.5 Q85 269 85 483 Q85 698 228.5 830.5 Q372 963 625 958 Z M677 816 Q383 816 383 477 Q383 333 457.5 245.5 Q532 158 672 158 Q814 158 889.5 248.5 Q965 339 965 499 Q965 646 889 731 Q813 816 677 816 Z " />
<glyph glyph-name="noepsilon" unicode="&#xf105;" horiz-adv-x="1113" d="M1027 -3 Q914 -28 760 -28 Q546 -28 394.5 38.5 Q243 105 164 233.5 Q85 362 85 523 Q85 766 252 923 Q419 1080 752 1080 Q887 1080 1008 1053 L1008 854 Q888 882 759 882 Q607 882 506.5 814.5 Q406 747 390 631 L1003 631 L1003 444 L390 444 Q429 170 789 170 Q905 170 1027 195 L1027 -3 Z " />
<glyph glyph-name="nosigma" unicode="&#xf106;" horiz-adv-x="1509" d="M1146 861 Q1259 732 1259 536 Q1259 289 1099.5 130.5 Q940 -28 673 -28 Q404 -28 244.5 132 Q85 292 85 538 Q85 781 252 930.5 Q419 1080 641 1080 Q688 1080 773 1073 Q880 1063 941 1063 L1474 1063 L1474 861 L1146 861 Z M667 911 Q531 911 455.5 815.5 Q380 720 380 528 Q380 347 457 252.5 Q534 158 677 158 Q805 158 885 256 Q965 354 965 551 Q965 723 884 817 Q803 911 667 911 Z " />
<glyph glyph-name="notau" unicode="&#xf107;" horiz-adv-x="1110" d="M34 1063 L1077 1063 L1077 859 L700 859 L700 0 L410 0 L410 859 L34 859 L34 1063 Z " />
<glyph glyph-name="nophi" unicode="&#xf108;" horiz-adv-x="1659" d="M683 1331 L973 1331 L973 1076 Q1292 1061 1433 909.5 Q1574 758 1574 527 Q1574 315 1438.5 162 Q1303 9 977 -13 L977 -389 L681 -389 L681 -15 Q373 4 229 149.5 Q85 295 85 531 Q85 708 167.5 834 Q250 960 362.5 1006 Q475 1052 683 1079 L683 1331 Z M684 894 Q382 880 382 524 Q382 346 465 256.5 Q548 167 684 167 L684 894 Z M975 894 L975 167 Q1277 183 1277 538 Q1277 696 1201 794 Q1125 892 975 894 Z " />
<glyph glyph-name="underscoredbl" unicode="&#x2017;" horiz-adv-x="1024" d="M-12 -113 L1036 -113 L1036 -215 L-12 -215 L-12 -113 Z M-12 -290 L1036 -290 L1036 -392 L-12 -392 L-12 -290 Z " />
<glyph glyph-name="minute" unicode="&#x2032;" horiz-adv-x="451" d="M287 1004 L131 1004 L147 1508 L413 1508 L287 1004 Z " />
<glyph glyph-name="second" unicode="&#x2033;" horiz-adv-x="737" d="M636 1004 L480 1004 L496 1508 L763 1508 L636 1004 Z M225 1004 L69 1004 L85 1508 L352 1508 L225 1004 Z " />
<glyph glyph-name="exclamdbl" unicode="&#x203c;" horiz-adv-x="1153" d="M143 1508 L419 1508 L419 433 L143 433 L143 1508 Z M735 1508 L1010 1508 L1010 433 L735 433 L735 1508 Z M281 314 Q351 314 402 265 Q453 216 453 143 Q453 73 402.5 22.5 Q352 -28 281 -28 Q211 -28 160.5 22.5 Q110 73 110 143 Q110 217 161 265.5 Q212 314 281 314 Z M872 314 Q942 314 993 265 Q1044 216 1044 143 Q1044 73 994 22.5 Q944 -28 872 -28 Q801 -28 751 22 Q701 72 701 143 Q701 214 751.5 264 Q802 314 872 314 Z " />
<glyph glyph-name="nsuperior" unicode="&#x207f;" horiz-adv-x="700" d="M77 1256 L278 1256 L278 1202 Q352 1273 432 1273 Q521 1273 576 1206 Q631 1139 631 1021 L631 575 L431 575 L431 875 Q431 1010 418 1052.5 Q405 1095 365 1095 Q319 1095 298.5 1040 Q278 985 278 851 L278 575 L77 575 L77 1256 Z " />
<glyph glyph-name="peseta" unicode="&#x20a7;" horiz-adv-x="2368" d="M1046 1088 L1136 1088 L1136 1489 L1408 1489 L1408 1088 L1763 1088 Q1825 1116 1907 1116 Q2135 1116 2271 936 L2102 767 Q2003 869 1915 869 Q1875 869 1846 851.5 Q1817 834 1817 801 Q1817 777 1835.5 758.5 Q1854 740 1915 710 L2015 660 Q2171 583 2231 501.5 Q2291 420 2291 311 Q2291 165 2183.5 68.5 Q2076 -28 1899 -28 Q1661 -28 1519 158 L1687 341 Q1722 297 1788.5 256.5 Q1855 216 1914 216 Q1965 216 1999.5 241 Q2034 266 2034 302 Q2034 365 1915 425 L1823 471 Q1559 604 1559 804 Q1559 827 1564 853 L1408 853 L1408 0 L1136 0 L1136 853 L1002 853 Q894 619 447 608 L447 0 L167 0 L167 1471 L509 1471 Q679 1471 775.5 1441.5 Q872 1412 952 1318 Q1032 1224 1046 1088 Z M447 872 Q638 871 703.5 914.5 Q769 958 769 1045 Q769 1130 711.5 1164 Q654 1198 518 1198 L447 1198 L447 872 Z " />
<glyph glyph-name="afii61248" unicode="&#x2105;" horiz-adv-x="1805" d="M693 1340 L524 1254 Q473 1328 397 1328 Q327 1328 286.5 1275.5 Q246 1223 246 1146 Q246 1069 285 1020 Q324 971 389 971 Q478 971 524 1050 L686 947 Q583 794 393 794 Q228 794 135 900 Q42 1006 42 1149 Q42 1302 143 1405 Q244 1508 396 1508 Q595 1508 693 1340 Z M509 -37 L1136 1508 L1307 1508 L680 -37 L509 -37 Z M1435 698 Q1570 698 1666 594 Q1762 490 1762 341 Q1762 193 1668.5 88 Q1575 -17 1436 -17 Q1301 -17 1208 88 Q1115 193 1115 339 Q1115 491 1211.5 594.5 Q1308 698 1435 698 Z M1438 515 Q1386 515 1351.5 466 Q1317 417 1317 341 Q1317 264 1350.5 214 Q1384 164 1438 164 Q1490 164 1525.5 212.5 Q1561 261 1561 340 Q1561 412 1529 463.5 Q1497 515 1438 515 Z " />
<glyph glyph-name="afii61289" unicode="&#x2113;" horiz-adv-x="989" d="M65 371 L21 628 L169 700 Q169 1032 209.5 1171 Q250 1310 352.5 1400.5 Q455 1491 595 1491 Q745 1491 835 1391.5 Q925 1292 925 1144 Q925 1000 829 870.5 Q733 741 451 562 Q450 335 494 264 Q538 193 627 193 Q732 193 894 316 L894 75 Q750 -24 599 -24 Q232 -24 178 423 Q123 395 65 371 Z M451 859 Q587 958 636.5 1023 Q686 1088 686 1154 Q686 1203 659 1232.5 Q632 1262 592 1262 Q538 1262 497 1201.5 Q456 1141 453 942 L451 859 Z " />
<glyph glyph-name="arrowleft" unicode="&#x2190;" horiz-adv-x="2048" d="M492 876 L568 876 Q487 706 373 567 L1968 567 L1968 466 L373 466 Q475 364 571 157 L493 157 Q270 410 79 498 L79 543 Q256 614 492 876 Z " />
<glyph glyph-name="arrowup" unicode="&#x2191;" horiz-adv-x="1024" d="M153 1050 Q415 1286 486 1463 L532 1463 Q619 1271 872 1048 L872 971 Q665 1067 563 1168 L563 -429 L462 -429 L462 1168 Q323 1054 153 973 L153 1050 Z " />
<glyph glyph-name="arrowright" unicode="&#x2192;" horiz-adv-x="2048" d="M1555 876 Q1792 614 1968 543 L1968 498 Q1777 410 1554 157 L1477 157 Q1572 364 1674 466 L79 466 L79 567 L1674 567 Q1560 706 1479 876 L1555 876 Z " />
<glyph glyph-name="arrowdown" unicode="&#x2193;" horiz-adv-x="1024" d="M153 -16 L153 60 Q323 -21 462 -135 L462 1463 L563 1463 L563 -135 Q665 -33 872 62 L872 -15 Q619 -238 532 -429 L486 -429 Q415 -253 153 -16 Z " />
<glyph glyph-name="arrowboth" unicode="&#x2194;" horiz-adv-x="2048" d="M1968 540 L1968 495 Q1787 416 1562 158 L1482 158 Q1551 330 1676 469 L371 469 Q496 330 565 158 L485 158 Q261 416 79 495 L79 540 Q261 619 485 878 L565 878 Q496 706 371 567 L1676 567 Q1551 706 1482 878 L1562 878 Q1787 619 1968 540 Z " />
<glyph glyph-name="arrowupdn" unicode="&#x2195;" horiz-adv-x="1024" d="M489 1463 L534 1463 Q613 1281 871 1056 L871 976 Q700 1045 560 1171 L560 -135 Q700 -9 871 59 L871 -20 Q613 -245 534 -427 L489 -427 Q410 -245 152 -20 L152 59 Q323 -9 463 -135 L463 1171 Q323 1045 152 976 L152 1056 Q410 1281 489 1463 Z " />
<glyph glyph-name="arrowupdnbse" unicode="&#x21a8;" horiz-adv-x="1024" d="M489 1463 L534 1463 Q613 1281 871 1056 L871 976 Q700 1045 560 1171 L560 -135 Q700 -9 871 59 L871 -20 Q613 -245 534 -427 L489 -427 Q410 -245 152 -20 L152 59 Q323 -9 463 -135 L463 1171 Q323 1045 152 976 L152 1056 Q410 1281 489 1463 Z M154 -522 L871 -522 L871 -620 L154 -620 L154 -522 Z " />
<glyph glyph-name="orthogonal" unicode="&#x221f;" horiz-adv-x="2005" d="M362 1279 L462 1279 L462 100 L1643 100 L1643 0 L362 0 L362 1279 Z " />
<glyph glyph-name="intersection" unicode="&#x2229;" horiz-adv-x="1206" d="M239 0 L129 0 L129 621 L131 859 Q132 975 149.5 1068 Q167 1161 208 1237 Q249 1313 314 1372.5 Q379 1432 453.5 1462 Q528 1492 603 1492 Q721 1492 828 1423.5 Q935 1355 993 1249.5 Q1051 1144 1064.5 1025.5 Q1078 907 1078 621 L1078 0 L968 0 L968 628 Q968 871 958 976.5 Q948 1082 906 1166.5 Q864 1251 778.5 1306 Q693 1361 603 1361 Q513 1361 428.5 1306 Q344 1251 302.5 1169 Q261 1087 250 979.5 Q239 872 239 628 L239 0 Z " />
<glyph glyph-name="equivalence" unicode="&#x2261;" horiz-adv-x="1229" d="M115 1288 L1114 1288 L1114 1038 L115 1038 L115 1288 Z M115 860 L1114 860 L1114 610 L115 610 L115 860 Z M115 432 L1114 432 L1114 182 L115 182 L115 432 Z " />
<glyph glyph-name="H22073" unicode="&#x25a1;" horiz-adv-x="1237" d="M146 944 L1090 944 L1090 0 L146 0 L146 944 Z M222 868 L222 76 L1014 76 L1014 868 L222 868 Z " />
<glyph glyph-name="H18543" unicode="&#x25aa;" horiz-adv-x="726" d="M594 909 L594 445 L131 445 L131 908 L594 909 Z " />
<glyph glyph-name="H18551" unicode="&#x25ab;" horiz-adv-x="726" d="M594 909 L594 445 L131 445 L131 908 L594 909 Z M518 833 L207 832 L207 521 L518 521 L518 833 Z " />
<glyph glyph-name="H18533" unicode="&#x25cf;" horiz-adv-x="1237" d="M619 1018 Q800 1018 929.5 889 Q1059 760 1059 578 Q1059 396 930 266.5 Q801 137 619 137 Q437 137 307.5 266.5 Q178 396 178 578 Q178 767 309.5 892.5 Q441 1018 619 1018 Z " />
<glyph glyph-name="openbullet" unicode="&#x25e6;" horiz-adv-x="726" d="M363 928 Q464 928 539 856 Q614 784 614 677 Q614 573 540.5 499.5 Q467 426 363 426 Q259 426 185.5 499.5 Q112 573 112 677 Q112 781 186 854.5 Q260 928 363 928 Z M363 852 Q292 852 240 802 Q188 752 188 677 Q188 604 239.5 553 Q291 502 363 502 Q435 502 486.5 553 Q538 604 538 677 Q538 751 486 801.5 Q434 852 363 852 Z " />
<glyph glyph-name="commaaccent" unicode="&#xf004;" horiz-adv-x="574" d="M252 -75 L424 -165 L203 -544 L80 -485 L252 -75 Z " />
<glyph glyph-name="Amacron" unicode="&#x100;" horiz-adv-x="1515" d="M616 1471 L900 1471 L1466 0 L1175 0 L1060 303 L460 303 L340 0 L49 0 L616 1471 Z M760 1081 L564 576 L955 576 L760 1081 Z M473 1585 L473 1806 L1042 1806 L1042 1585 L473 1585 Z " />
<glyph glyph-name="amacron" unicode="&#x101;" horiz-adv-x="1352" d="M942 1088 L1214 1088 L1214 0 L942 0 L942 115 Q862 39 781.5 5.5 Q701 -28 607 -28 Q396 -28 242 135.5 Q88 299 88 542 Q88 794 237 955 Q386 1116 599 1116 Q697 1116 783 1079 Q869 1042 942 968 L942 1088 Z M655 864 Q528 864 444 774.5 Q360 685 360 545 Q360 404 445.5 313 Q531 222 656 222 Q785 222 870 311.5 Q955 401 955 546 Q955 688 870 776 Q785 864 655 864 Z M366 1287 L366 1508 L935 1508 L935 1287 L366 1287 Z " />
<glyph glyph-name="Ccircumflex" unicode="&#x108;" horiz-adv-x="1597" d="M1520 1212 L1324 1025 Q1124 1236 874 1236 Q663 1236 518.5 1092 Q374 948 374 737 Q374 590 438 476 Q502 362 619 297 Q736 232 879 232 Q1001 232 1102 277.5 Q1203 323 1324 443 L1514 245 Q1351 86 1206 24.5 Q1061 -37 875 -37 Q532 -37 313.5 180.5 Q95 398 95 738 Q95 958 194.5 1129 Q294 1300 479.5 1404 Q665 1508 879 1508 Q1061 1508 1229.5 1431 Q1398 1354 1520 1212 Z M436 1585 L736 1868 L955 1868 L1253 1585 L955 1585 L847 1716 L736 1585 L436 1585 Z " />
<glyph glyph-name="ccircumflex" unicode="&#x109;" horiz-adv-x="1311" d="M1203 868 L976 743 Q912 810 849.5 836 Q787 862 703 862 Q550 862 455.5 770.5 Q361 679 361 536 Q361 397 452 309 Q543 221 691 221 Q874 221 976 346 L1191 199 Q1016 -28 697 -28 Q410 -28 247.5 142 Q85 312 85 540 Q85 698 164 831 Q243 964 384.5 1040 Q526 1116 701 1116 Q863 1116 992 1051.5 Q1121 987 1203 868 Z M235 1287 L535 1570 L754 1570 L1052 1287 L754 1287 L646 1418 L535 1287 L235 1287 Z " />
<glyph glyph-name="Cdot" unicode="&#x10a;" horiz-adv-x="1597" d="M1520 1212 L1324 1025 Q1124 1236 874 1236 Q663 1236 518.5 1092 Q374 948 374 737 Q374 590 438 476 Q502 362 619 297 Q736 232 879 232 Q1001 232 1102 277.5 Q1203 323 1324 443 L1514 245 Q1351 86 1206 24.5 Q1061 -37 875 -37 Q532 -37 313.5 180.5 Q95 398 95 738 Q95 958 194.5 1129 Q294 1300 479.5 1404 Q665 1508 879 1508 Q1061 1508 1229.5 1431 Q1398 1354 1520 1212 Z M857 1871 Q917 1871 959 1829 Q1001 1787 1001 1728 Q1001 1668 959 1626 Q917 1584 857 1584 Q798 1584 756 1626 Q714 1668 714 1728 Q714 1787 756 1829 Q798 1871 857 1871 Z " />
<glyph glyph-name="cdot" unicode="&#x10b;" horiz-adv-x="1311" d="M1203 868 L976 743 Q912 810 849.5 836 Q787 862 703 862 Q550 862 455.5 770.5 Q361 679 361 536 Q361 397 452 309 Q543 221 691 221 Q874 221 976 346 L1191 199 Q1016 -28 697 -28 Q410 -28 247.5 142 Q85 312 85 540 Q85 698 164 831 Q243 964 384.5 1040 Q526 1116 701 1116 Q863 1116 992 1051.5 Q1121 987 1203 868 Z M681 1573 Q741 1573 783 1531 Q825 1489 825 1430 Q825 1370 783 1328 Q741 1286 681 1286 Q622 1286 580 1328 Q538 1370 538 1430 Q538 1489 580 1531 Q622 1573 681 1573 Z " />
<glyph glyph-name="Emacron" unicode="&#x112;" horiz-adv-x="1065" d="M169 1471 L972 1471 L972 1197 L447 1197 L447 931 L972 931 L972 662 L447 662 L447 275 L972 275 L972 0 L169 0 L169 1471 Z M286 1585 L286 1806 L855 1806 L855 1585 L286 1585 Z " />
<glyph glyph-name="emacron" unicode="&#x113;" horiz-adv-x="1311" d="M1228 465 L351 465 Q370 349 452.5 280.5 Q535 212 663 212 Q816 212 926 319 L1156 211 Q1070 89 950 30.5 Q830 -28 665 -28 Q409 -28 248 133.5 Q87 295 87 538 Q87 787 247.5 951.5 Q408 1116 650 1116 Q907 1116 1068 951.5 Q1229 787 1229 517 L1228 465 Z M954 680 Q927 771 847.5 828 Q768 885 663 885 Q549 885 463 821 Q409 781 363 680 L954 680 Z M374 1287 L374 1508 L943 1508 L943 1287 L374 1287 Z " />
<glyph glyph-name="Ebreve" unicode="&#x114;" horiz-adv-x="1065" d="M169 1471 L972 1471 L972 1197 L447 1197 L447 931 L972 931 L972 662 L447 662 L447 275 L972 275 L972 0 L169 0 L169 1471 Z M164 1866 L385 1866 Q411 1825 457.5 1804.5 Q504 1784 571 1784 Q639 1784 694 1808 Q730 1824 757 1866 L978 1866 Q959 1739 856.5 1662 Q754 1585 570 1585 Q446 1585 362.5 1619.5 Q279 1654 228 1718 Q177 1782 164 1866 Z " />
<glyph glyph-name="ebreve" unicode="&#x115;" horiz-adv-x="1311" d="M1228 465 L351 465 Q370 349 452.5 280.5 Q535 212 663 212 Q816 212 926 319 L1156 211 Q1070 89 950 30.5 Q830 -28 665 -28 Q409 -28 248 133.5 Q87 295 87 538 Q87 787 247.5 951.5 Q408 1116 650 1116 Q907 1116 1068 951.5 Q1229 787 1229 517 L1228 465 Z M954 680 Q927 771 847.5 828 Q768 885 663 885 Q549 885 463 821 Q409 781 363 680 L954 680 Z M251 1568 L472 1568 Q498 1527 544.5 1506.5 Q591 1486 658 1486 Q726 1486 781 1510 Q817 1526 844 1568 L1065 1568 Q1046 1441 943.5 1364 Q841 1287 657 1287 Q533 1287 449.5 1321.5 Q366 1356 315 1420 Q264 1484 251 1568 Z " />
<glyph glyph-name="Edot" unicode="&#x116;" horiz-adv-x="1065" d="M169 1471 L972 1471 L972 1197 L447 1197 L447 931 L972 931 L972 662 L447 662 L447 275 L972 275 L972 0 L169 0 L169 1471 Z M570 1871 Q630 1871 672 1829 Q714 1787 714 1728 Q714 1668 672 1626 Q630 1584 570 1584 Q511 1584 469 1626 Q427 1668 427 1728 Q427 1787 469 1829 Q511 1871 570 1871 Z " />
<glyph glyph-name="edot" unicode="&#x117;" horiz-adv-x="1311" d="M1228 465 L351 465 Q370 349 452.5 280.5 Q535 212 663 212 Q816 212 926 319 L1156 211 Q1070 89 950 30.5 Q830 -28 665 -28 Q409 -28 248 133.5 Q87 295 87 538 Q87 787 247.5 951.5 Q408 1116 650 1116 Q907 1116 1068 951.5 Q1229 787 1229 517 L1228 465 Z M954 680 Q927 771 847.5 828 Q768 885 663 885 Q549 885 463 821 Q409 781 363 680 L954 680 Z M658 1573 Q718 1573 760 1531 Q802 1489 802 1430 Q802 1370 760 1328 Q718 1286 658 1286 Q599 1286 557 1328 Q515 1370 515 1430 Q515 1489 557 1531 Q599 1573 658 1573 Z " />
<glyph glyph-name="Gcircumflex" unicode="&#x11c;" horiz-adv-x="1720" d="M1526 1231 L1329 1036 Q1142 1234 893 1234 Q676 1234 529.5 1090 Q383 946 383 740 Q383 527 535 379 Q687 231 910 231 Q1055 231 1154.5 292 Q1254 353 1315 483 L889 483 L889 746 L1629 746 L1631 684 Q1631 491 1531 318 Q1431 145 1272 54 Q1113 -37 899 -37 Q670 -37 490.5 62.5 Q311 162 206.5 346 Q102 530 102 743 Q102 1035 295 1251 Q524 1508 891 1508 Q1083 1508 1250 1437 Q1391 1377 1526 1231 Z M458 1585 L758 1868 L977 1868 L1275 1585 L977 1585 L869 1716 L758 1585 L458 1585 Z " />
<glyph glyph-name="gcircumflex" unicode="&#x11d;" horiz-adv-x="1352" d="M942 1088 L1214 1088 L1214 156 Q1214 -120 1103 -250 Q954 -426 654 -426 Q494 -426 385 -386 Q276 -346 201 -268.5 Q126 -191 90 -80 L391 -80 Q431 -126 494 -149.5 Q557 -173 643 -173 Q753 -173 820 -139 Q887 -105 914.5 -51 Q942 3 942 135 Q870 63 791 31.5 Q712 0 612 0 Q393 0 242 158 Q91 316 91 558 Q91 817 251 974 Q396 1116 597 1116 Q691 1116 774.5 1081.5 Q858 1047 942 968 L942 1088 Z M659 861 Q530 861 446 774.5 Q362 688 362 557 Q362 421 448 334 Q534 247 664 247 Q791 247 873.5 332 Q956 417 956 555 Q956 691 873 776 Q790 861 659 861 Z M243 1287 L543 1570 L762 1570 L1060 1287 L762 1287 L654 1418 L543 1287 L243 1287 Z " />
<glyph glyph-name="Gdot" unicode="&#x120;" horiz-adv-x="1720" d="M1526 1231 L1329 1036 Q1142 1234 893 1234 Q676 1234 529.5 1090 Q383 946 383 740 Q383 527 535 379 Q687 231 910 231 Q1055 231 1154.5 292 Q1254 353 1315 483 L889 483 L889 746 L1629 746 L1631 684 Q1631 491 1531 318 Q1431 145 1272 54 Q1113 -37 899 -37 Q670 -37 490.5 62.5 Q311 162 206.5 346 Q102 530 102 743 Q102 1035 295 1251 Q524 1508 891 1508 Q1083 1508 1250 1437 Q1391 1377 1526 1231 Z M866 1871 Q926 1871 968 1829 Q1010 1787 1010 1728 Q1010 1668 968 1626 Q926 1584 866 1584 Q807 1584 765 1626 Q723 1668 723 1728 Q723 1787 765 1829 Q807 1871 866 1871 Z " />
<glyph glyph-name="gdot" unicode="&#x121;" horiz-adv-x="1352" d="M942 1088 L1214 1088 L1214 156 Q1214 -120 1103 -250 Q954 -426 654 -426 Q494 -426 385 -386 Q276 -346 201 -268.5 Q126 -191 90 -80 L391 -80 Q431 -126 494 -149.5 Q557 -173 643 -173 Q753 -173 820 -139 Q887 -105 914.5 -51 Q942 3 942 135 Q870 63 791 31.5 Q712 0 612 0 Q393 0 242 158 Q91 316 91 558 Q91 817 251 974 Q396 1116 597 1116 Q691 1116 774.5 1081.5 Q858 1047 942 968 L942 1088 Z M659 861 Q530 861 446 774.5 Q362 688 362 557 Q362 421 448 334 Q534 247 664 247 Q791 247 873.5 332 Q956 417 956 555 Q956 691 873 776 Q790 861 659 861 Z M651 1573 Q711 1573 753 1531 Q795 1489 795 1430 Q795 1370 753 1328 Q711 1286 651 1286 Q592 1286 550 1328 Q508 1370 508 1430 Q508 1489 550 1531 Q592 1573 651 1573 Z " />
<glyph glyph-name="Gcedilla" unicode="&#x122;" horiz-adv-x="1720" d="M1526 1231 L1329 1036 Q1142 1234 893 1234 Q676 1234 529.5 1090 Q383 946 383 740 Q383 527 535 379 Q687 231 910 231 Q1055 231 1154.5 292 Q1254 353 1315 483 L889 483 L889 746 L1629 746 L1631 684 Q1631 491 1531 318 Q1431 145 1272 54 Q1113 -37 899 -37 Q670 -37 490.5 62.5 Q311 162 206.5 346 Q102 530 102 743 Q102 1035 295 1251 Q524 1508 891 1508 Q1083 1508 1250 1437 Q1391 1377 1526 1231 Z M787 16 L956 16 L944 -30 Q1011 -45 1049.5 -88.5 Q1088 -132 1088 -184 Q1088 -265 1020 -323 Q952 -381 831 -381 Q733 -381 609 -335 L645 -206 Q717 -229 786 -229 Q837 -229 862 -209.5 Q887 -190 887 -158 Q887 -132 868 -117 Q849 -102 808 -102 L752 -104 L787 16 Z " />
<glyph glyph-name="gcedilla" unicode="&#x123;" horiz-adv-x="1352" d="M942 1088 L1214 1088 L1214 156 Q1214 -120 1103 -250 Q954 -426 654 -426 Q494 -426 385 -386 Q276 -346 201 -268.5 Q126 -191 90 -80 L391 -80 Q431 -126 494 -149.5 Q557 -173 643 -173 Q753 -173 820 -139 Q887 -105 914.5 -51 Q942 3 942 135 Q870 63 791 31.5 Q712 0 612 0 Q393 0 242 158 Q91 316 91 558 Q91 817 251 974 Q396 1116 597 1116 Q691 1116 774.5 1081.5 Q858 1047 942 968 L942 1088 Z M659 861 Q530 861 446 774.5 Q362 688 362 557 Q362 421 448 334 Q534 247 664 247 Q791 247 873.5 332 Q956 417 956 555 Q956 691 873 776 Q790 861 659 861 Z M803 1247 L551 1247 L551 1386 Q551 1517 583.5 1612.5 Q616 1708 693 1808 L791 1731 Q754 1677 736.5 1638 Q719 1599 702 1534 L803 1534 L803 1247 Z " />
<glyph glyph-name="Hcircumflex" unicode="&#x124;" horiz-adv-x="1393" d="M167 1471 L451 1471 L451 916 L943 916 L943 1471 L1226 1471 L1226 0 L943 0 L943 645 L451 645 L451 0 L167 0 L167 1471 Z M288 1585 L588 1868 L807 1868 L1105 1585 L807 1585 L699 1716 L588 1585 L288 1585 Z " />
<glyph glyph-name="hcircumflex" unicode="&#x125;" horiz-adv-x="1229" d="M137 1508 L408 1508 L408 978 Q488 1047 569 1081.5 Q650 1116 733 1116 Q895 1116 1006 1004 Q1101 907 1101 719 L1101 0 L832 0 L832 477 Q832 666 814 733 Q796 800 752.5 833 Q709 866 645 866 Q562 866 502.5 811 Q443 756 420 661 Q408 612 408 437 L408 0 L137 0 L137 1508 Z M211 1583 L511 1866 L730 1866 L1028 1583 L730 1583 L622 1714 L511 1583 L211 1583 Z " />
<glyph glyph-name="Hbar" unicode="&#x126;" horiz-adv-x="1393" d="M450 1292 L942 1292 L942 1471 L1225 1471 L1225 1292 L1358 1292 L1358 1129 L1225 1129 L1225 0 L942 0 L942 645 L450 645 L450 0 L167 0 L167 1129 L34 1129 L34 1292 L167 1292 L167 1471 L450 1471 L450 1292 Z M450 1129 L450 916 L942 916 L942 1129 L450 1129 Z " />
<glyph glyph-name="hbar" unicode="&#x127;" horiz-adv-x="1229" d="M410 1384 L731 1384 L731 1221 L410 1221 L410 978 Q563 1116 733 1116 Q897 1116 1001.5 1013 Q1106 910 1106 719 L1106 0 L833 0 L833 477 Q833 643 819.5 715 Q806 787 761.5 826.5 Q717 866 647 866 Q564 866 504 811 Q444 756 427 683 Q410 610 410 437 L410 0 L137 0 L137 1221 L0 1221 L0 1384 L137 1384 L137 1508 L410 1508 L410 1384 Z " />
<glyph glyph-name="Itilde" unicode="&#x128;" horiz-adv-x="573" d="M148 1471 L426 1471 L426 0 L148 0 L148 1471 Z M-20 1589 L-130 1754 Q-2 1853 129 1853 Q178 1853 297 1819 Q378 1797 426 1797 Q510 1797 600 1849 L704 1693 Q578 1585 460 1585 Q397 1585 309 1612 Q237 1633 218 1637 Q192 1641 156 1641 Q68 1641 -20 1589 Z " />
<glyph glyph-name="itilde" unicode="&#x129;" horiz-adv-x="491" d="M109 1088 L383 1088 L383 0 L109 0 L109 1088 Z M-61 1291 L-171 1456 Q-43 1555 88 1555 Q137 1555 256 1521 Q337 1499 385 1499 Q469 1499 559 1551 L663 1395 Q537 1287 419 1287 Q356 1287 268 1314 Q196 1335 177 1339 Q151 1343 115 1343 Q27 1343 -61 1291 Z " />
<glyph glyph-name="Imacron" unicode="&#x12a;" horiz-adv-x="573" d="M148 1471 L426 1471 L426 0 L148 0 L148 1471 Z M2 1585 L2 1806 L571 1806 L571 1585 L2 1585 Z " />
<glyph glyph-name="imacron" unicode="&#x12b;" horiz-adv-x="491" d="M109 1088 L383 1088 L383 0 L109 0 L109 1088 Z M-39 1287 L-39 1508 L530 1508 L530 1287 L-39 1287 Z " />
<glyph glyph-name="Ibreve" unicode="&#x12c;" horiz-adv-x="573" d="M148 1471 L426 1471 L426 0 L148 0 L148 1471 Z M-120 1866 L101 1866 Q127 1825 173.5 1804.5 Q220 1784 287 1784 Q355 1784 410 1808 Q446 1824 473 1866 L694 1866 Q675 1739 572.5 1662 Q470 1585 286 1585 Q162 1585 78.5 1619.5 Q-5 1654 -56 1718 Q-107 1782 -120 1866 Z " />
<glyph glyph-name="ibreve" unicode="&#x12d;" horiz-adv-x="491" d="M109 1088 L383 1088 L383 0 L109 0 L109 1088 Z M-162 1568 L59 1568 Q85 1527 131.5 1506.5 Q178 1486 245 1486 Q313 1486 368 1510 Q404 1526 431 1568 L652 1568 Q633 1441 530.5 1364 Q428 1287 244 1287 Q120 1287 36.5 1321.5 Q-47 1356 -98 1420 Q-149 1484 -162 1568 Z " />
<glyph glyph-name="Iogonek" unicode="&#x12e;" horiz-adv-x="573" d="M148 1471 L426 1471 L426 0 L148 0 L148 1471 Z M282 0 L426 0 Q286 -83 286 -165 Q286 -206 315 -232 Q344 -258 390 -258 Q424 -258 477 -231 L477 -390 Q408 -405 349 -405 Q231 -405 168 -351 Q105 -297 105 -216 Q105 -155 150 -97 Q195 -39 282 0 Z " />
<glyph glyph-name="iogonek" unicode="&#x12f;" horiz-adv-x="491" d="M245 1536 Q317 1536 368.5 1484 Q420 1432 420 1358 Q420 1285 369 1233.5 Q318 1182 247 1182 Q174 1182 122.5 1234.5 Q71 1287 71 1362 Q71 1434 122 1485 Q173 1536 245 1536 Z M108 1088 L382 1088 L382 0 L108 0 L108 1088 Z M238 0 L382 0 Q242 -83 242 -165 Q242 -206 271 -232 Q300 -258 346 -258 Q380 -258 433 -231 L433 -390 Q364 -405 305 -405 Q187 -405 124 -351 Q61 -297 61 -216 Q61 -155 106 -97 Q151 -39 238 0 Z " />
<glyph glyph-name="Jcircumflex" unicode="&#x134;" horiz-adv-x="983" d="M534 1471 L815 1471 L815 495 Q815 262 778 168 Q741 74 656 18.5 Q571 -37 452 -37 Q209 -37 38 176 L240 365 Q307 289 354 263 Q401 237 445 237 Q490 237 512 275 Q534 313 534 442 L534 1471 Z M156 1585 L456 1868 L675 1868 L973 1585 L675 1585 L567 1716 L456 1585 L156 1585 Z " />
<glyph glyph-name="jcircumflex" unicode="&#x135;" horiz-adv-x="532" d="M-142 1287 L158 1570 L377 1570 L675 1287 L377 1287 L269 1418 L158 1287 L-142 1287 Z M130 1088 L404 1088 L404 -36 Q404 -276 320.5 -351 Q237 -426 118 -426 Q32 -426 -87 -385 L-87 -170 Q-24 -201 26 -201 Q79 -201 104.5 -170 Q130 -139 130 -56 L130 1088 Z " />
<glyph glyph-name="Kcedilla" unicode="&#x136;" horiz-adv-x="1270" d="M170 1471 L453 1471 L453 965 L852 1471 L1189 1471 L675 815 L1239 0 L907 0 L453 653 L453 0 L170 0 L170 1471 Z M507 -79 Q568 -75 603 -75 Q720 -75 778.5 -127.5 Q837 -180 837 -250 Q837 -326 772 -386.5 Q707 -447 580 -447 Q497 -447 386 -411 L421 -280 Q491 -296 531 -296 Q637 -296 637 -225 Q637 -168 556 -168 Q532 -168 481 -173 L507 -79 Z " />
<glyph glyph-name="kcedilla" unicode="&#x137;" horiz-adv-x="1188" d="M140 1508 L413 1508 L413 639 L815 1088 L1157 1088 L689 566 L1214 0 L875 0 L413 501 L413 0 L140 0 L140 1508 Z M479 -79 Q540 -75 575 -75 Q692 -75 750.5 -127.5 Q809 -180 809 -250 Q809 -326 744 -386.5 Q679 -447 552 -447 Q469 -447 358 -411 L393 -280 Q463 -296 503 -296 Q609 -296 609 -225 Q609 -168 528 -168 Q504 -168 453 -173 L479 -79 Z " />
<glyph glyph-name="kgreenlandic" unicode="&#x138;" horiz-adv-x="1188" d="M140 1088 L413 1088 L413 639 L815 1088 L1157 1088 L689 566 L1214 0 L875 0 L413 501 L413 0 L140 0 L140 1088 Z " />
<glyph glyph-name="Lcedilla" unicode="&#x13b;" horiz-adv-x="901" d="M168 1471 L448 1471 L448 267 L856 267 L856 0 L168 0 L168 1471 Z M335 -79 Q396 -75 431 -75 Q548 -75 606.5 -127.5 Q665 -180 665 -250 Q665 -326 600 -386.5 Q535 -447 408 -447 Q325 -447 214 -411 L249 -280 Q319 -296 359 -296 Q465 -296 465 -225 Q465 -168 384 -168 Q360 -168 309 -173 L335 -79 Z " />
<glyph glyph-name="lcedilla" unicode="&#x13c;" horiz-adv-x="491" d="M109 1508 L382 1508 L382 0 L109 0 L109 1508 Z M118 -79 Q179 -75 214 -75 Q331 -75 389.5 -127.5 Q448 -180 448 -250 Q448 -326 383 -386.5 Q318 -447 191 -447 Q108 -447 -3 -411 L32 -280 Q102 -296 142 -296 Q248 -296 248 -225 Q248 -168 167 -168 Q143 -168 92 -173 L118 -79 Z " />
<glyph glyph-name="Ncedilla" unicode="&#x145;" horiz-adv-x="1515" d="M169 1471 L437 1471 L1068 503 L1068 1471 L1348 1471 L1348 0 L1079 0 L449 965 L449 0 L169 0 L169 1471 Z M631 -79 Q692 -75 727 -75 Q844 -75 902.5 -127.5 Q961 -180 961 -250 Q961 -326 896 -386.5 Q831 -447 704 -447 Q621 -447 510 -411 L545 -280 Q615 -296 655 -296 Q761 -296 761 -225 Q761 -168 680 -168 Q656 -168 605 -173 L631 -79 Z " />
<glyph glyph-name="ncedilla" unicode="&#x146;" horiz-adv-x="1229" d="M138 1088 L410 1088 L410 977 Q503 1055 578.5 1085.5 Q654 1116 733 1116 Q895 1116 1008 1003 Q1103 907 1103 719 L1103 0 L833 0 L833 477 Q833 672 815.5 736 Q798 800 754.5 833.5 Q711 867 647 867 Q564 867 504.5 811.5 Q445 756 422 658 Q410 607 410 437 L410 0 L138 0 L138 1088 Z M500 -79 Q561 -75 596 -75 Q713 -75 771.5 -127.5 Q830 -180 830 -250 Q830 -326 765 -386.5 Q700 -447 573 -447 Q490 -447 379 -411 L414 -280 Q484 -296 524 -296 Q630 -296 630 -225 Q630 -168 549 -168 Q525 -168 474 -173 L500 -79 Z " />
<glyph glyph-name="Eng" unicode="&#x14a;" horiz-adv-x="1622" d="M451 1315 Q624 1508 870 1508 Q1145 1508 1335 1292 Q1525 1076 1525 733 Q1525 401 1382 182 Q1239 -37 974 -37 Q845 -37 753 10 Q661 57 573 176 L772 362 Q869 234 969 234 Q1095 234 1169 373 Q1243 512 1243 715 Q1243 966 1131 1102.5 Q1019 1239 848 1239 Q636 1239 451 972 L451 0 L167 0 L167 1471 L451 1471 L451 1315 Z " />
<glyph glyph-name="eng" unicode="&#x14b;" horiz-adv-x="1229" d="M1105 719 L1105 -36 Q1105 -276 1022 -351 Q939 -426 820 -426 Q734 -426 615 -385 L615 -170 Q677 -201 727 -201 Q776 -201 804 -172 Q832 -143 832 -56 L832 481 Q832 651 820 718.5 Q808 786 762.5 826.5 Q717 867 646 867 Q564 867 504 811 Q444 755 427 680.5 Q410 606 410 437 L410 0 L137 0 L137 1088 L410 1088 L410 977 Q569 1116 734 1116 Q898 1116 1001.5 1011.5 Q1105 907 1105 719 Z " />
<glyph glyph-name="Omacron" unicode="&#x14c;" horiz-adv-x="1720" d="M863 1508 Q1175 1508 1399.5 1282 Q1624 1056 1624 731 Q1624 409 1402.5 186 Q1181 -37 865 -37 Q534 -37 315 192 Q96 421 96 736 Q96 947 198 1124 Q300 1301 478.5 1404.5 Q657 1508 863 1508 Z M860 1234 Q656 1234 517 1092 Q378 950 378 731 Q378 487 553 345 Q689 234 865 234 Q1064 234 1204 378 Q1344 522 1344 733 Q1344 943 1203 1088.5 Q1062 1234 860 1234 Z M575 1585 L575 1806 L1144 1806 L1144 1585 L575 1585 Z " />
<glyph glyph-name="omacron" unicode="&#x14d;" horiz-adv-x="1311" d="M649 1116 Q803 1116 938.5 1039 Q1074 962 1150 830 Q1226 698 1226 545 Q1226 391 1149.5 257 Q1073 123 941 47.5 Q809 -28 650 -28 Q416 -28 250.5 138.5 Q85 305 85 543 Q85 798 272 968 Q436 1116 649 1116 Z M653 859 Q526 859 441.5 770.5 Q357 682 357 544 Q357 402 440.5 314 Q524 226 652 226 Q780 226 865 315 Q950 404 950 544 Q950 684 866.5 771.5 Q783 859 653 859 Z M371 1287 L371 1508 L940 1508 L940 1287 L371 1287 Z " />
<glyph glyph-name="Obreve" unicode="&#x14e;" horiz-adv-x="1720" d="M863 1508 Q1175 1508 1399.5 1282 Q1624 1056 1624 731 Q1624 409 1402.5 186 Q1181 -37 865 -37 Q534 -37 315 192 Q96 421 96 736 Q96 947 198 1124 Q300 1301 478.5 1404.5 Q657 1508 863 1508 Z M860 1234 Q656 1234 517 1092 Q378 950 378 731 Q378 487 553 345 Q689 234 865 234 Q1064 234 1204 378 Q1344 522 1344 733 Q1344 943 1203 1088.5 Q1062 1234 860 1234 Z M453 1866 L674 1866 Q700 1825 746.5 1804.5 Q793 1784 860 1784 Q928 1784 983 1808 Q1019 1824 1046 1866 L1267 1866 Q1248 1739 1145.5 1662 Q1043 1585 859 1585 Q735 1585 651.5 1619.5 Q568 1654 517 1718 Q466 1782 453 1866 Z " />
<glyph glyph-name="obreve" unicode="&#x14f;" horiz-adv-x="1311" d="M649 1116 Q803 1116 938.5 1039 Q1074 962 1150 830 Q1226 698 1226 545 Q1226 391 1149.5 257 Q1073 123 941 47.5 Q809 -28 650 -28 Q416 -28 250.5 138.5 Q85 305 85 543 Q85 798 272 968 Q436 1116 649 1116 Z M653 859 Q526 859 441.5 770.5 Q357 682 357 544 Q357 402 440.5 314 Q524 226 652 226 Q780 226 865 315 Q950 404 950 544 Q950 684 866.5 771.5 Q783 859 653 859 Z M248 1568 L469 1568 Q495 1527 541.5 1506.5 Q588 1486 655 1486 Q723 1486 778 1510 Q814 1526 841 1568 L1062 1568 Q1043 1441 940.5 1364 Q838 1287 654 1287 Q530 1287 446.5 1321.5 Q363 1356 312 1420 Q261 1484 248 1568 Z " />
<glyph glyph-name="Rcedilla" unicode="&#x156;" horiz-adv-x="1188" d="M187 1471 L484 1471 Q728 1471 831.5 1427.5 Q935 1384 998 1283 Q1061 1182 1061 1044 Q1061 899 991.5 801.5 Q922 704 782 654 L1130 0 L824 0 L493 623 L467 623 L467 0 L187 0 L187 1471 Z M467 896 L555 896 Q689 896 739.5 931 Q790 966 790 1047 Q790 1095 765 1130.5 Q740 1166 698 1181.5 Q656 1197 544 1197 L467 1197 L467 896 Z M479 -79 Q540 -75 575 -75 Q692 -75 750.5 -127.5 Q809 -180 809 -250 Q809 -326 744 -386.5 Q679 -447 552 -447 Q469 -447 358 -411 L393 -280 Q463 -296 503 -296 Q609 -296 609 -225 Q609 -168 528 -168 Q504 -168 453 -173 L479 -79 Z " />
<glyph glyph-name="rcedilla" unicode="&#x157;" horiz-adv-x="655" d="M74 1088 L308 1088 L308 951 Q346 1032 409 1074 Q472 1116 547 1116 Q600 1116 658 1088 L573 853 Q525 877 494 877 Q431 877 387.5 799 Q344 721 344 493 L345 440 L345 0 L74 0 L74 1088 Z M212 -79 Q273 -75 308 -75 Q425 -75 483.5 -127.5 Q542 -180 542 -250 Q542 -326 477 -386.5 Q412 -447 285 -447 Q202 -447 91 -411 L126 -280 Q196 -296 236 -296 Q342 -296 342 -225 Q342 -168 261 -168 Q237 -168 186 -173 L212 -79 Z " />
<glyph glyph-name="Scircumflex" unicode="&#x15c;" horiz-adv-x="1065" d="M939 1271 L732 1088 Q623 1240 510 1240 Q455 1240 420 1210.5 Q385 1181 385 1144 Q385 1107 410 1074 Q444 1030 615 885 Q775 751 809 716 Q894 630 929.5 551.5 Q965 473 965 380 Q965 199 840 81 Q715 -37 514 -37 Q357 -37 240.5 40 Q124 117 41 282 L276 424 Q382 229 520 229 Q592 229 641 271 Q690 313 690 368 Q690 418 653 468 Q616 518 490 621 Q250 817 180 923.5 Q110 1030 110 1136 Q110 1289 226.5 1398.5 Q343 1508 514 1508 Q624 1508 723.5 1457 Q823 1406 939 1271 Z M95 1585 L395 1868 L614 1868 L912 1585 L614 1585 L506 1716 L395 1585 L95 1585 Z " />
<glyph glyph-name="scircumflex" unicode="&#x15d;" horiz-adv-x="901" d="M805 936 L636 767 Q533 869 449 869 Q403 869 377 849.5 Q351 830 351 801 Q351 779 367.5 760.5 Q384 742 449 710 L549 660 Q707 582 766 501 Q825 420 825 311 Q825 166 718.5 69 Q612 -28 433 -28 Q195 -28 53 158 L221 341 Q269 285 333.5 250.5 Q398 216 448 216 Q502 216 535 242 Q568 268 568 302 Q568 365 449 425 L357 471 Q93 604 93 804 Q93 933 192.5 1024.5 Q292 1116 447 1116 Q553 1116 646.5 1069.5 Q740 1023 805 936 Z M30 1287 L330 1570 L549 1570 L847 1287 L549 1287 L441 1418 L330 1287 L30 1287 Z " />
<glyph glyph-name="Tbar" unicode="&#x166;" horiz-adv-x="860" d="M572 792 L788 792 L788 629 L572 629 L572 0 L288 0 L288 629 L71 629 L71 792 L288 792 L288 1195 L23 1195 L23 1471 L836 1471 L836 1195 L572 1195 L572 792 Z " />
<glyph glyph-name="tbar" unicode="&#x167;" horiz-adv-x="614" d="M443 616 L629 616 L629 453 L443 453 L443 0 L171 0 L171 453 L7 453 L7 616 L171 616 L171 853 L31 853 L31 1088 L171 1088 L171 1489 L443 1489 L443 1088 L605 1088 L605 853 L443 853 L443 616 Z " />
<glyph glyph-name="Utilde" unicode="&#x168;" horiz-adv-x="1311" d="M158 1471 L439 1471 L439 519 Q439 396 460.5 345 Q482 294 531.5 263.5 Q581 233 651 233 Q725 233 778.5 267 Q832 301 852.5 353.5 Q873 406 873 554 L873 1471 L1154 1471 L1154 594 Q1154 372 1129 286 Q1104 200 1033.5 120 Q963 40 871 1.5 Q779 -37 657 -37 Q497 -37 378.5 36.5 Q260 110 209 220.5 Q158 331 158 594 L158 1471 Z M349 1589 L239 1754 Q367 1853 498 1853 Q547 1853 666 1819 Q747 1797 795 1797 Q879 1797 969 1849 L1073 1693 Q947 1585 829 1585 Q766 1585 678 1612 Q606 1633 587 1637 Q561 1641 525 1641 Q437 1641 349 1589 Z " />
<glyph glyph-name="utilde" unicode="&#x169;" horiz-adv-x="1229" d="M137 1088 L413 1088 L413 564 Q413 411 434 351.5 Q455 292 501.5 259 Q548 226 616 226 Q684 226 731.5 258.5 Q779 291 802 354 Q819 401 819 555 L819 1088 L1093 1088 L1093 627 Q1093 342 1048 237 Q993 109 886 40.5 Q779 -28 614 -28 Q435 -28 324.5 52 Q214 132 169 275 Q137 374 137 635 L137 1088 Z M308 1291 L198 1456 Q326 1555 457 1555 Q506 1555 625 1521 Q706 1499 754 1499 Q838 1499 928 1551 L1032 1395 Q906 1287 788 1287 Q725 1287 637 1314 Q565 1335 546 1339 Q520 1343 484 1343 Q396 1343 308 1291 Z " />
<glyph glyph-name="Umacron" unicode="&#x16a;" horiz-adv-x="1311" d="M158 1471 L439 1471 L439 519 Q439 396 460.5 345 Q482 294 531.5 263.5 Q581 233 651 233 Q725 233 778.5 267 Q832 301 852.5 353.5 Q873 406 873 554 L873 1471 L1154 1471 L1154 594 Q1154 372 1129 286 Q1104 200 1033.5 120 Q963 40 871 1.5 Q779 -37 657 -37 Q497 -37 378.5 36.5 Q260 110 209 220.5 Q158 331 158 594 L158 1471 Z M372 1585 L372 1806 L941 1806 L941 1585 L372 1585 Z " />
<glyph glyph-name="umacron" unicode="&#x16b;" horiz-adv-x="1229" d="M137 1088 L413 1088 L413 564 Q413 411 434 351.5 Q455 292 501.5 259 Q548 226 616 226 Q684 226 731.5 258.5 Q779 291 802 354 Q819 401 819 555 L819 1088 L1093 1088 L1093 627 Q1093 342 1048 237 Q993 109 886 40.5 Q779 -28 614 -28 Q435 -28 324.5 52 Q214 132 169 275 Q137 374 137 635 L137 1088 Z M330 1287 L330 1508 L899 1508 L899 1287 L330 1287 Z " />
<glyph glyph-name="Ubreve" unicode="&#x16c;" horiz-adv-x="1311" d="M158 1471 L439 1471 L439 519 Q439 396 460.5 345 Q482 294 531.5 263.5 Q581 233 651 233 Q725 233 778.5 267 Q832 301 852.5 353.5 Q873 406 873 554 L873 1471 L1154 1471 L1154 594 Q1154 372 1129 286 Q1104 200 1033.5 120 Q963 40 871 1.5 Q779 -37 657 -37 Q497 -37 378.5 36.5 Q260 110 209 220.5 Q158 331 158 594 L158 1471 Z M249 1866 L470 1866 Q496 1825 542.5 1804.5 Q589 1784 656 1784 Q724 1784 779 1808 Q815 1824 842 1866 L1063 1866 Q1044 1739 941.5 1662 Q839 1585 655 1585 Q531 1585 447.5 1619.5 Q364 1654 313 1718 Q262 1782 249 1866 Z " />
<glyph glyph-name="ubreve" unicode="&#x16d;" horiz-adv-x="1229" d="M137 1088 L413 1088 L413 564 Q413 411 434 351.5 Q455 292 501.5 259 Q548 226 616 226 Q684 226 731.5 258.5 Q779 291 802 354 Q819 401 819 555 L819 1088 L1093 1088 L1093 627 Q1093 342 1048 237 Q993 109 886 40.5 Q779 -28 614 -28 Q435 -28 324.5 52 Q214 132 169 275 Q137 374 137 635 L137 1088 Z M208 1568 L429 1568 Q455 1527 501.5 1506.5 Q548 1486 615 1486 Q683 1486 738 1510 Q774 1526 801 1568 L1022 1568 Q1003 1441 900.5 1364 Q798 1287 614 1287 Q490 1287 406.5 1321.5 Q323 1356 272 1420 Q221 1484 208 1568 Z " />
<glyph glyph-name="Uogonek" unicode="&#x172;" horiz-adv-x="1311" d="M158 1471 L439 1471 L439 519 Q439 396 460.5 345 Q482 294 531.5 263.5 Q581 233 651 233 Q725 233 778.5 267 Q832 301 852.5 353.5 Q873 406 873 554 L873 1471 L1154 1471 L1154 594 Q1154 372 1129 286 Q1104 200 1033.5 120 Q963 40 871 1.5 Q779 -37 657 -37 Q497 -37 378.5 36.5 Q260 110 209 220.5 Q158 331 158 594 L158 1471 Z M673 0 L817 0 Q677 -83 677 -165 Q677 -206 706 -232 Q735 -258 781 -258 Q815 -258 868 -231 L868 -390 Q799 -405 740 -405 Q622 -405 559 -351 Q496 -297 496 -216 Q496 -155 541 -97 Q586 -39 673 0 Z " />
<glyph glyph-name="uogonek" unicode="&#x173;" horiz-adv-x="1229" d="M137 1088 L413 1088 L413 564 Q413 411 434 351.5 Q455 292 501.5 259 Q548 226 616 226 Q684 226 731.5 258.5 Q779 291 802 354 Q819 401 819 555 L819 1088 L1093 1088 L1093 627 Q1093 342 1048 237 Q993 109 886 40.5 Q779 -28 614 -28 Q435 -28 324.5 52 Q214 132 169 275 Q137 374 137 635 L137 1088 Z M642 0 L786 0 Q646 -83 646 -165 Q646 -206 675 -232 Q704 -258 750 -258 Q784 -258 837 -231 L837 -390 Q768 -405 709 -405 Q591 -405 528 -351 Q465 -297 465 -216 Q465 -155 510 -97 Q555 -39 642 0 Z " />
<glyph glyph-name="Wcircumflex" unicode="&#x174;" horiz-adv-x="1843" d="M56 1471 L332 1471 L544 532 L807 1471 L1040 1471 L1306 532 L1516 1471 L1792 1471 L1461 0 L1192 0 L921 951 L655 0 L389 0 L56 1471 Z M515 1585 L815 1868 L1034 1868 L1332 1585 L1034 1585 L926 1716 L815 1585 L515 1585 Z " />
<glyph glyph-name="wcircumflex" unicode="&#x175;" horiz-adv-x="1638" d="M17 1088 L284 1088 L503 469 L739 1088 L902 1088 L1133 476 L1352 1088 L1621 1088 L1224 0 L1051 0 L819 620 L580 0 L409 0 L17 1088 Z M410 1287 L710 1570 L929 1570 L1227 1287 L929 1287 L821 1418 L710 1287 L410 1287 Z " />
<glyph glyph-name="Ycircumflex" unicode="&#x176;" horiz-adv-x="1270" d="M63 1471 L364 1471 L638 943 L910 1471 L1207 1471 L777 637 L777 0 L495 0 L495 637 L63 1471 Z M226 1585 L526 1868 L745 1868 L1043 1585 L745 1585 L637 1716 L526 1585 L226 1585 Z " />
<glyph glyph-name="ycircumflex" unicode="&#x177;" horiz-adv-x="1188" d="M17 1088 L296 1088 L579 405 L891 1088 L1171 1088 L489 -398 L207 -398 L431 81 L17 1088 Z M186 1287 L486 1570 L705 1570 L1003 1287 L705 1287 L597 1418 L486 1287 L186 1287 Z " />
<glyph glyph-name="longs" unicode="&#x17f;" horiz-adv-x="491" d="M566 1497 L566 1289 Q508 1306 468 1306 Q415 1306 398.5 1286 Q382 1266 382 1182 L382 0 L109 0 L109 1146 Q109 1322 123.5 1383.5 Q138 1445 201 1490.5 Q264 1536 374 1536 Q465 1536 566 1497 Z " />
<glyph glyph-name="Aringacute" unicode="&#x1fa;" horiz-adv-x="1515" d="M616 1471 L900 1471 L1466 0 L1175 0 L1060 303 L460 303 L340 0 L49 0 L616 1471 Z M760 1081 L564 576 L955 576 L760 1081 Z M757 1858 Q848 1858 912 1792.5 Q976 1727 976 1635 Q976 1542 911.5 1476.5 Q847 1411 757 1411 Q667 1411 602.5 1476.5 Q538 1542 538 1635 Q538 1727 602 1792.5 Q666 1858 757 1858 Z M757 1729 Q723 1729 699 1703 Q675 1677 675 1640 Q675 1602 699.5 1576 Q724 1550 757 1550 Q790 1550 814.5 1576 Q839 1602 839 1640 Q839 1677 815 1703 Q791 1729 757 1729 Z M805 2297 L1128 2297 L762 1905 L566 1905 L805 2297 Z " />
<glyph glyph-name="aringacute" unicode="&#x1fb;" horiz-adv-x="1352" d="M942 1088 L1214 1088 L1214 0 L942 0 L942 115 Q862 39 781.5 5.5 Q701 -28 607 -28 Q396 -28 242 135.5 Q88 299 88 542 Q88 794 237 955 Q386 1116 599 1116 Q697 1116 783 1079 Q869 1042 942 968 L942 1088 Z M655 864 Q528 864 444 774.5 Q360 685 360 545 Q360 404 445.5 313 Q531 222 656 222 Q785 222 870 311.5 Q955 401 955 546 Q955 688 870 776 Q785 864 655 864 Z M676 1686 Q767 1686 831 1620.5 Q895 1555 895 1463 Q895 1370 830.5 1304.5 Q766 1239 676 1239 Q586 1239 521.5 1304.5 Q457 1370 457 1463 Q457 1555 521 1620.5 Q585 1686 676 1686 Z M676 1557 Q642 1557 618 1531 Q594 1505 594 1468 Q594 1430 618.5 1404 Q643 1378 676 1378 Q709 1378 733.5 1404 Q758 1430 758 1468 Q758 1505 734 1531 Q710 1557 676 1557 Z M724 2168 L1047 2168 L681 1776 L485 1776 L724 2168 Z " />
<glyph glyph-name="AEacute" unicode="&#x1fc;" horiz-adv-x="1843" d="M774 1471 L1737 1471 L1737 1197 L1220 1197 L1220 930 L1737 930 L1737 661 L1220 661 L1220 274 L1737 274 L1737 0 L941 0 L941 304 L492 304 L345 0 L57 0 L774 1471 Z M941 579 L941 1223 L624 579 L941 579 Z M1157 1977 L1480 1977 L1114 1585 L918 1585 L1157 1977 Z " />
<glyph glyph-name="aeacute" unicode="&#x1fd;" horiz-adv-x="2212" d="M992 1088 L1243 1088 L1243 1008 Q1379 1116 1565 1116 Q1723 1116 1856 1039.5 Q1989 963 2061.5 828 Q2134 693 2134 525 L2132 463 L1256 463 Q1280 344 1362 276.5 Q1444 209 1574 209 Q1649 209 1708.5 234 Q1768 259 1830 319 L2060 211 Q2006 132 1935 81 Q1864 30 1772 1 Q1680 -28 1572 -28 Q1372 -28 1243 78 L1243 0 L992 0 L992 138 Q913 49 828 10.5 Q743 -28 632 -28 Q401 -28 245 134 Q89 296 89 541 Q89 782 248.5 949 Q408 1116 629 1116 Q750 1116 853 1063 Q924 1027 992 946 L992 1088 Z M1860 676 Q1835 769 1758.5 826 Q1682 883 1574 883 Q1464 883 1385 830 Q1306 777 1269 676 L1860 676 Z M683 868 Q548 868 457.5 775.5 Q367 683 367 542 Q367 403 455.5 312 Q544 221 680 221 Q821 221 907.5 311 Q994 401 994 550 Q994 688 905.5 778 Q817 868 683 868 Z M1160 1679 L1483 1679 L1117 1287 L921 1287 L1160 1679 Z " />
<glyph glyph-name="Oslashacute" unicode="&#x1fe;" horiz-adv-x="1720" d="M1429 1251 Q1625 1032 1625 731 Q1625 409 1403.5 186 Q1182 -37 867 -37 Q628 -37 441 88 L270 -114 L143 -8 L314 194 Q211 299 154 440 Q97 581 97 736 Q97 947 199 1123.5 Q301 1300 479.5 1404 Q658 1508 863 1508 Q1101 1508 1306 1363 L1467 1553 L1593 1449 L1429 1251 Z M493 405 L1129 1154 Q1016 1234 862 1234 Q657 1234 518 1092 Q379 950 379 731 Q379 537 493 405 Z M1245 1038 L620 300 Q732 234 867 234 Q1065 234 1205 378 Q1345 522 1345 733 Q1345 902 1245 1038 Z M909 1977 L1232 1977 L866 1585 L670 1585 L909 1977 Z " />
<glyph glyph-name="oslashacute" unicode="&#x1ff;" horiz-adv-x="1352" d="M1123 900 Q1247 740 1247 545 Q1247 391 1170.5 257 Q1094 123 962 47.5 Q830 -28 672 -28 Q504 -28 369 60 L239 -85 L114 22 L244 168 Q106 327 106 543 Q106 797 292 966 Q456 1116 671 1116 Q849 1116 1002 1013 L1128 1153 L1251 1043 L1123 900 Z M423 367 L829 820 Q761 859 675 859 Q548 859 463 770.5 Q378 682 378 544 Q378 450 423 367 Z M939 696 L544 255 Q607 226 675 226 Q801 226 886 315 Q971 404 971 544 Q971 626 939 696 Z M727 1679 L1050 1679 L684 1287 L488 1287 L727 1679 Z " />
<glyph glyph-name="tonos" unicode="&#x384;" horiz-adv-x="860" d="M571 1639 L528 1257 L332 1257 L288 1639 L571 1639 Z " />
<glyph glyph-name="dieresistonos" unicode="&#x385;" horiz-adv-x="860" d="M571 1639 L528 1257 L332 1257 L288 1639 L571 1639 Z M260 1387 Q260 1333 222.5 1295.5 Q185 1258 130 1258 Q76 1258 38.5 1295.5 Q1 1333 1 1387 Q1 1441 38.5 1478.5 Q76 1516 130 1516 Q184 1517 222 1479.5 Q260 1442 260 1387 Z M858 1387 Q858 1333 820.5 1295.5 Q783 1258 729 1258 Q675 1258 637.5 1295.5 Q600 1333 600 1387 Q600 1441 637.5 1478.5 Q675 1516 729 1516 Q783 1517 821 1479.5 Q859 1442 858 1387 Z " />
<glyph glyph-name="Alphatonos" unicode="&#x386;" horiz-adv-x="1515" d="M616 1471 L900 1471 L1466 0 L1175 0 L1060 303 L460 303 L340 0 L49 0 L616 1471 Z M760 1081 L564 576 L955 576 L760 1081 Z M385 1508 L342 1126 L146 1126 L102 1508 L385 1508 Z " />
<glyph glyph-name="anoteleia" unicode="&#x387;" horiz-adv-x="573" d="M444 959 Q444 894 398 848.5 Q352 803 287 803 Q221 803 175.5 848 Q130 893 130 959 Q130 1024 175.5 1070 Q221 1116 287 1116 Q352 1116 398 1070 Q444 1024 444 959 Z " />
<glyph glyph-name="Epsilontonos" unicode="&#x388;" horiz-adv-x="1228" d="M332 1471 L1135 1471 L1135 1197 L610 1197 L610 931 L1135 931 L1135 662 L610 662 L610 275 L1135 275 L1135 0 L332 0 L332 1471 Z M183 1508 L140 1126 L-56 1126 L-100 1508 L183 1508 Z " />
<glyph glyph-name="Etatonos" unicode="&#x389;" horiz-adv-x="1556" d="M330 1471 L614 1471 L614 916 L1106 916 L1106 1471 L1389 1471 L1389 0 L1106 0 L1106 645 L614 645 L614 0 L330 0 L330 1471 Z M183 1508 L140 1126 L-56 1126 L-100 1508 L183 1508 Z " />
<glyph glyph-name="Iotatonos" unicode="&#x38a;" horiz-adv-x="736" d="M311 1471 L589 1471 L589 0 L311 0 L311 1471 Z M183 1508 L140 1126 L-56 1126 L-100 1508 L183 1508 Z " />
<glyph glyph-name="Omicrontonos" unicode="&#x38c;" horiz-adv-x="1793" d="M936 1508 Q1248 1508 1472.5 1282 Q1697 1056 1697 731 Q1697 409 1475.5 186 Q1254 -37 938 -37 Q607 -37 388 192 Q169 421 169 736 Q169 947 271 1124 Q373 1301 551.5 1404.5 Q730 1508 936 1508 Z M933 1234 Q729 1234 590 1092 Q451 950 451 731 Q451 487 626 345 Q762 234 938 234 Q1137 234 1277 378 Q1417 522 1417 733 Q1417 943 1276 1088.5 Q1135 1234 933 1234 Z M183 1508 L140 1126 L-56 1126 L-100 1508 L183 1508 Z " />
<glyph glyph-name="Upsilontonos" unicode="&#x38e;" horiz-adv-x="1443" d="M236 1471 L537 1471 L811 943 L1083 1471 L1380 1471 L950 637 L950 0 L668 0 L668 637 L236 1471 Z M183 1508 L140 1126 L-56 1126 L-100 1508 L183 1508 Z " />
<glyph glyph-name="Omegatonos" unicode="&#x38f;" horiz-adv-x="1824" d="M1351 277 L1724 277 L1724 0 L1047 0 L1047 333 Q1415 519 1415 836 Q1415 1017 1290 1125 Q1165 1233 949 1233 Q731 1233 606.5 1122.5 Q482 1012 482 836 Q482 521 850 333 L850 0 L173 0 L173 277 L546 277 Q200 499 200 837 Q200 1140 409 1323.5 Q618 1507 949 1507 Q1290 1507 1493.5 1320 Q1697 1133 1697 837 Q1697 499 1351 277 Z M183 1508 L140 1126 L-56 1126 L-100 1508 L183 1508 Z " />
<glyph glyph-name="iotadieresistonos" unicode="&#x390;" horiz-adv-x="491" d="M108 1088 L382 1088 L382 0 L108 0 L108 1088 Z M387 1639 L344 1257 L148 1257 L104 1639 L387 1639 Z M76 1387 Q76 1333 38.5 1295.5 Q1 1258 -54 1258 Q-108 1258 -145.5 1295.5 Q-183 1333 -183 1387 Q-183 1441 -145.5 1478.5 Q-108 1516 -54 1516 Q0 1517 38 1479.5 Q76 1442 76 1387 Z M674 1387 Q674 1333 636.5 1295.5 Q599 1258 545 1258 Q491 1258 453.5 1295.5 Q416 1333 416 1387 Q416 1441 453.5 1478.5 Q491 1516 545 1516 Q599 1517 637 1479.5 Q675 1442 674 1387 Z " />
<glyph glyph-name="Alpha" unicode="&#x391;" horiz-adv-x="1515" d="M616 1471 L900 1471 L1466 0 L1175 0 L1060 303 L460 303 L340 0 L49 0 L616 1471 Z M760 1081 L564 576 L955 576 L760 1081 Z " />
<glyph glyph-name="Beta" unicode="&#x392;" horiz-adv-x="1188" d="M168 0 L168 1471 L399 1471 Q600 1471 693 1445 Q825 1410 903 1315 Q981 1220 981 1091 Q981 1007 945.5 938.5 Q910 870 830 810 Q964 747 1026 652.5 Q1088 558 1088 429 Q1088 305 1024 203 Q960 101 859 50.5 Q758 0 580 0 L168 0 Z M448 1204 L448 894 L509 894 Q611 894 660.5 937 Q710 980 710 1054 Q710 1123 663 1163.5 Q616 1204 520 1204 L448 1204 Z M448 644 L448 267 L518 267 Q692 267 752.5 311 Q813 355 813 439 Q813 534 742 589 Q671 644 506 644 L448 644 Z " />
<glyph glyph-name="Gamma" unicode="&#x393;" horiz-adv-x="948" d="M167 1471 L897 1471 L897 1197 L444 1197 L444 0 L167 0 L167 1471 Z " />
<glyph glyph-name="Delta" unicode="&#x394;" horiz-adv-x="1515" d="M1444 0 L76 0 L76 235 L633 1471 L884 1471 L1444 235 L1444 0 Z M1117 275 L757 1081 L400 275 L1117 275 Z " />
<glyph glyph-name="Epsilon" unicode="&#x395;" horiz-adv-x="1065" d="M169 1471 L972 1471 L972 1197 L447 1197 L447 931 L972 931 L972 662 L447 662 L447 275 L972 275 L972 0 L169 0 L169 1471 Z " />
<glyph glyph-name="Zeta" unicode="&#x396;" horiz-adv-x="1024" d="M90 1471 L980 1471 L455 269 L946 269 L946 0 L47 0 L570 1194 L90 1194 L90 1471 Z " />
<glyph glyph-name="Eta" unicode="&#x397;" horiz-adv-x="1393" d="M167 1471 L451 1471 L451 916 L943 916 L943 1471 L1226 1471 L1226 0 L943 0 L943 645 L451 645 L451 0 L167 0 L167 1471 Z " />
<glyph glyph-name="Theta" unicode="&#x398;" horiz-adv-x="1720" d="M1624 731 Q1624 409 1404.5 186 Q1185 -37 865 -37 Q540 -37 318 187 Q96 411 96 736 Q96 1062 322.5 1285 Q549 1508 863 1508 Q1180 1508 1402 1282 Q1624 1056 1624 731 Z M378 731 Q378 508 523.5 371 Q669 234 865 234 Q1069 234 1206.5 379.5 Q1344 525 1344 733 Q1344 942 1204.5 1088 Q1065 1234 860 1234 Q651 1234 514.5 1090.5 Q378 947 378 731 Z M598 876 L1124 876 L1124 607 L598 607 L598 876 Z " />
<glyph glyph-name="Iota" unicode="&#x399;" horiz-adv-x="573" d="M148 1471 L426 1471 L426 0 L148 0 L148 1471 Z " />
<glyph glyph-name="Kappa" unicode="&#x39a;" horiz-adv-x="1270" d="M170 1471 L453 1471 L453 965 L852 1471 L1189 1471 L675 815 L1239 0 L907 0 L453 653 L453 0 L170 0 L170 1471 Z " />
<glyph glyph-name="Lambda" unicode="&#x39b;" horiz-adv-x="1421" d="M1120 0 L713 1081 L299 0 L2 0 L569 1471 L853 1471 L1419 0 L1120 0 Z " />
<glyph glyph-name="Mu" unicode="&#x39c;" horiz-adv-x="1843" d="M310 1471 L584 1471 L924 445 L1269 1471 L1539 1471 L1787 0 L1517 0 L1359 929 L1046 0 L799 0 L490 929 L329 0 L56 0 L310 1471 Z " />
<glyph glyph-name="Nu" unicode="&#x39d;" horiz-adv-x="1515" d="M169 1471 L437 1471 L1068 503 L1068 1471 L1348 1471 L1348 0 L1079 0 L449 965 L449 0 L169 0 L169 1471 Z " />
<glyph glyph-name="Xi" unicode="&#x39e;" horiz-adv-x="1083" d="M973 1197 L110 1197 L110 1471 L973 1471 L973 1197 Z M973 662 L110 662 L110 931 L973 931 L973 662 Z M973 0 L110 0 L110 275 L973 275 L973 0 Z " />
<glyph glyph-name="Omicron" unicode="&#x39f;" horiz-adv-x="1720" d="M863 1508 Q1175 1508 1399.5 1282 Q1624 1056 1624 731 Q1624 409 1402.5 186 Q1181 -37 865 -37 Q534 -37 315 192 Q96 421 96 736 Q96 947 198 1124 Q300 1301 478.5 1404.5 Q657 1508 863 1508 Z M860 1234 Q656 1234 517 1092 Q378 950 378 731 Q378 487 553 345 Q689 234 865 234 Q1064 234 1204 378 Q1344 522 1344 733 Q1344 943 1203 1088.5 Q1062 1234 860 1234 Z " />
<glyph glyph-name="Pi" unicode="&#x3a0;" horiz-adv-x="1393" d="M167 1471 L1226 1471 L1226 0 L943 0 L943 1209 L451 1209 L451 0 L167 0 L167 1471 Z " />
<glyph glyph-name="Rho" unicode="&#x3a1;" horiz-adv-x="1147" d="M167 1471 L464 1471 Q705 1471 811.5 1426.5 Q918 1382 979.5 1282.5 Q1041 1183 1041 1044 Q1041 890 960.5 788 Q880 686 742 646 Q661 623 447 623 L447 0 L167 0 L167 1471 Z M447 896 L536 896 Q641 896 682 911 Q723 926 746.5 960.5 Q770 995 770 1044 Q770 1129 704 1168 Q656 1197 526 1197 L447 1197 L447 896 Z " />
<glyph glyph-name="Sigma" unicode="&#x3a3;" horiz-adv-x="1027" d="M26 0 L414 734 L32 1471 L934 1471 L934 1197 L476 1197 L718 733 L473 275 L947 275 L947 0 L26 0 Z " />
<glyph glyph-name="Tau" unicode="&#x3a4;" horiz-adv-x="860" d="M23 1471 L836 1471 L836 1195 L568 1195 L568 0 L284 0 L284 1195 L23 1195 L23 1471 Z " />
<glyph glyph-name="Upsilon" unicode="&#x3a5;" horiz-adv-x="1270" d="M63 1471 L364 1471 L638 943 L910 1471 L1207 1471 L777 637 L777 0 L495 0 L495 637 L63 1471 Z " />
<glyph glyph-name="Phi" unicode="&#x3a6;" horiz-adv-x="1760" d="M1022 148 L1022 0 L738 0 L738 148 Q425 178 251 332.5 Q77 487 77 743 Q77 998 263.5 1160.5 Q450 1323 738 1340 L738 1471 L1022 1471 L1022 1340 Q1321 1318 1502 1159.5 Q1683 1001 1683 745 Q1683 471 1507 314 Q1331 157 1022 148 Z M1022 1084 L1022 405 Q1398 439 1398 745 Q1398 1048 1022 1084 Z M738 1084 Q362 1051 362 744 Q362 442 738 405 L738 1084 Z " />
<glyph glyph-name="Chi" unicode="&#x3a7;" horiz-adv-x="1393" d="M72 1471 L387 1471 L695 1000 L1006 1471 L1321 1471 L853 759 L1350 0 L1035 0 L695 517 L358 0 L41 0 L538 759 L72 1471 Z " />
<glyph glyph-name="Psi" unicode="&#x3a8;" horiz-adv-x="1682" d="M981 369 L981 0 L701 0 L701 369 Q130 437 130 971 L130 1471 L411 1471 L411 1004 Q411 808 476.5 730.5 Q542 653 701 629 L701 1471 L981 1471 L981 628 Q1142 655 1206.5 731 Q1271 807 1271 1004 L1271 1471 L1552 1471 L1552 962 Q1552 438 981 369 Z " />
<glyph glyph-name="Omega" unicode="&#x3a9;" horiz-adv-x="1751" d="M1278 277 L1651 277 L1651 0 L974 0 L974 333 Q1342 519 1342 836 Q1342 1017 1217 1125 Q1092 1233 876 1233 Q658 1233 533.5 1122.5 Q409 1012 409 836 Q409 521 777 333 L777 0 L100 0 L100 277 L473 277 Q127 499 127 837 Q127 1140 336 1323.5 Q545 1507 876 1507 Q1217 1507 1420.5 1320 Q1624 1133 1624 837 Q1624 499 1278 277 Z " />
<glyph glyph-name="Iotadieresis" unicode="&#x3aa;" horiz-adv-x="573" d="M148 1471 L426 1471 L426 0 L148 0 L148 1471 Z M65 1871 Q125 1871 167 1829 Q209 1787 209 1728 Q209 1668 167 1626 Q125 1584 65 1584 Q6 1584 -36 1626 Q-78 1668 -78 1728 Q-78 1787 -36 1829 Q6 1871 65 1871 Z M508 1871 Q568 1871 610 1829 Q652 1787 652 1728 Q652 1668 610 1626 Q568 1584 508 1584 Q449 1584 407 1626 Q365 1668 365 1728 Q365 1787 407 1829 Q449 1871 508 1871 Z " />
<glyph glyph-name="Upsilondieresis" unicode="&#x3ab;" horiz-adv-x="1270" d="M63 1471 L364 1471 L638 943 L910 1471 L1207 1471 L777 637 L777 0 L495 0 L495 637 L63 1471 Z M423 1871 Q483 1871 525 1829 Q567 1787 567 1728 Q567 1668 525 1626 Q483 1584 423 1584 Q364 1584 322 1626 Q280 1668 280 1728 Q280 1787 322 1829 Q364 1871 423 1871 Z M866 1871 Q926 1871 968 1829 Q1010 1787 1010 1728 Q1010 1668 968 1626 Q926 1584 866 1584 Q807 1584 765 1626 Q723 1668 723 1728 Q723 1787 765 1829 Q807 1871 866 1871 Z " />
<glyph glyph-name="alphatonos" unicode="&#x3ac;" horiz-adv-x="1352" d="M942 1088 L1214 1088 L1214 0 L942 0 L942 115 Q862 39 781.5 5.5 Q701 -28 607 -28 Q396 -28 242 135.5 Q88 299 88 542 Q88 794 237 955 Q386 1116 599 1116 Q697 1116 783 1079 Q869 1042 942 968 L942 1088 Z M655 864 Q528 864 444 774.5 Q360 685 360 545 Q360 404 445.5 313 Q531 222 656 222 Q785 222 870 311.5 Q955 401 955 546 Q955 688 870 776 Q785 864 655 864 Z M817 1639 L774 1257 L578 1257 L534 1639 L817 1639 Z " />
<glyph glyph-name="epsilontonos" unicode="&#x3ad;" horiz-adv-x="897" d="M880 96 Q736 -28 515 -28 Q328 -28 207 62 Q86 152 86 310 Q86 506 289 581 Q137 669 137 811 Q137 951 241.5 1033.5 Q346 1116 505 1116 Q678 1116 819 1004 L711 816 Q610 881 543 881 Q488 881 452.5 848 Q417 815 417 766 Q417 656 554 656 L608 656 L608 461 L537 461 Q475 461 434 425.5 Q393 390 393 334 Q393 278 435.5 246 Q478 214 545 214 Q642 214 758 305 L880 96 Z M590 1639 L547 1257 L351 1257 L307 1639 L590 1639 Z " />
<glyph glyph-name="etatonos" unicode="&#x3ae;" horiz-adv-x="1229" d="M138 1088 L410 1088 L410 977 Q575 1116 733 1116 Q883 1116 993 1018 Q1103 920 1103 719 L1103 -398 L833 -398 L833 477 Q833 625 824 698.5 Q815 772 769.5 819.5 Q724 867 647 867 Q562 867 506.5 818 Q451 769 430.5 691 Q410 613 410 437 L410 0 L138 0 L138 1088 Z M756 1639 L713 1257 L517 1257 L473 1639 L756 1639 Z " />
<glyph glyph-name="iotatonos" unicode="&#x3af;" horiz-adv-x="491" d="M108 1088 L382 1088 L382 0 L108 0 L108 1088 Z M387 1639 L344 1257 L148 1257 L104 1639 L387 1639 Z " />
<glyph glyph-name="upsilondieresistonos" unicode="&#x3b0;" horiz-adv-x="1229" d="M110 1089 L382 1089 L382 577 Q382 374 440 300 Q498 226 620 226 Q874 226 874 524 Q874 763 604 893 L752 1120 Q1144 904 1144 521 Q1144 284 1004.5 128 Q865 -28 620 -28 Q455 -28 344.5 29.5 Q234 87 172 203.5 Q110 320 110 552 L110 1089 Z M756 1639 L713 1257 L517 1257 L473 1639 L756 1639 Z M445 1387 Q445 1333 407.5 1295.5 Q370 1258 315 1258 Q261 1258 223.5 1295.5 Q186 1333 186 1387 Q186 1441 223.5 1478.5 Q261 1516 315 1516 Q369 1517 407 1479.5 Q445 1442 445 1387 Z M1043 1387 Q1043 1333 1005.5 1295.5 Q968 1258 914 1258 Q860 1258 822.5 1295.5 Q785 1333 785 1387 Q785 1441 822.5 1478.5 Q860 1516 914 1516 Q968 1517 1006 1479.5 Q1044 1442 1043 1387 Z " />
<glyph glyph-name="alpha" unicode="&#x3b1;" horiz-adv-x="1352" d="M942 1088 L1214 1088 L1214 0 L942 0 L942 115 Q862 39 781.5 5.5 Q701 -28 607 -28 Q396 -28 242 135.5 Q88 299 88 542 Q88 794 237 955 Q386 1116 599 1116 Q697 1116 783 1079 Q869 1042 942 968 L942 1088 Z M655 864 Q528 864 444 774.5 Q360 685 360 545 Q360 404 445.5 313 Q531 222 656 222 Q785 222 870 311.5 Q955 401 955 546 Q955 688 870 776 Q785 864 655 864 Z " />
<glyph glyph-name="beta" unicode="&#x3b2;" horiz-adv-x="1267" d="M402 83 L402 -398 L130 -398 L130 1072 Q130 1282 253 1409 Q376 1536 583 1536 Q774 1536 890.5 1432 Q1007 1328 1007 1169 Q1007 1011 846 895 Q1182 794 1182 481 Q1182 251 1045 112 Q908 -27 688 -27 Q509 -27 402 83 Z M528 716 L528 947 Q735 978 735 1138 Q735 1203 696.5 1244.5 Q658 1286 593 1286 Q402 1286 402 1021 L402 483 Q402 363 467.5 293 Q533 223 654 223 Q767 223 838.5 286 Q910 349 910 452 Q910 716 535 716 L528 716 Z " />
<glyph glyph-name="gamma" unicode="&#x3b3;" horiz-adv-x="1147" d="M710 114 L710 -398 L436 -398 L436 113 L21 1088 L299 1088 L574 446 L848 1088 L1125 1088 L710 114 Z " />
<glyph glyph-name="delta" unicode="&#x3b4;" horiz-adv-x="1228" d="M397 898 Q252 1011 252 1161 Q252 1337 379.5 1436.5 Q507 1536 708 1536 Q838 1536 1016 1493 L945 1247 Q811 1281 719 1281 Q524 1281 524 1164 Q524 1095 582 1057.5 Q640 1020 776 967 Q1143 824 1143 480 Q1143 266 988.5 119 Q834 -28 614 -28 Q395 -28 240 117 Q85 262 85 460 Q85 770 397 898 Z M614 739 Q507 739 432 662.5 Q357 586 357 477 Q357 368 430.5 293.5 Q504 219 614 219 Q724 219 797.5 293.5 Q871 368 871 477 Q871 587 795 663 Q719 739 614 739 Z " />
<glyph glyph-name="epsilon" unicode="&#x3b5;" horiz-adv-x="897" d="M880 96 Q736 -28 515 -28 Q328 -28 207 62 Q86 152 86 310 Q86 506 289 581 Q137 669 137 811 Q137 951 241.5 1033.5 Q346 1116 505 1116 Q678 1116 819 1004 L711 816 Q610 881 543 881 Q488 881 452.5 848 Q417 815 417 766 Q417 656 554 656 L608 656 L608 461 L537 461 Q475 461 434 425.5 Q393 390 393 334 Q393 278 435.5 246 Q478 214 545 214 Q642 214 758 305 L880 96 Z " />
<glyph glyph-name="zeta" unicode="&#x3b6;" horiz-adv-x="974" d="M340 -393 L398 -152 Q475 -183 572 -183 Q708 -183 708 -94 Q708 -31 639 -9 Q438 37 327 86.5 Q216 136 146 250.5 Q76 365 76 532 Q76 709 186.5 872 Q297 1035 574 1253 L166 1253 L166 1508 L951 1508 L951 1281 Q642 1063 495 889 Q348 715 348 542 Q348 418 403 367 Q458 316 615 274 Q844 213 909 129.5 Q974 46 974 -78 Q974 -245 863 -335.5 Q752 -426 571 -426 Q473 -426 340 -393 Z " />
<glyph glyph-name="eta" unicode="&#x3b7;" horiz-adv-x="1229" d="M138 1088 L410 1088 L410 977 Q575 1116 733 1116 Q883 1116 993 1018 Q1103 920 1103 719 L1103 -398 L833 -398 L833 477 Q833 625 824 698.5 Q815 772 769.5 819.5 Q724 867 647 867 Q562 867 506.5 818 Q451 769 430.5 691 Q410 613 410 437 L410 0 L138 0 L138 1088 Z " />
<glyph glyph-name="theta" unicode="&#x3b8;" horiz-adv-x="1341" d="M665 -28 Q385 -28 235 178.5 Q85 385 85 752 Q85 1110 238.5 1323 Q392 1536 669 1536 Q956 1536 1106 1333 Q1256 1130 1256 755 Q1256 379 1105 175.5 Q954 -28 665 -28 Z M363 880 L975 880 Q938 1282 668 1282 Q402 1282 363 880 Z M973 625 L363 625 Q404 226 667 226 Q933 226 973 625 Z " />
<glyph glyph-name="iota" unicode="&#x3b9;" horiz-adv-x="491" d="M108 1088 L382 1088 L382 0 L108 0 L108 1088 Z " />
<glyph glyph-name="kappa" unicode="&#x3ba;" horiz-adv-x="1188" d="M140 1089 L413 1089 L413 639 L815 1088 L1157 1088 L689 566 L1214 0 L875 0 L413 501 L413 0 L140 0 L140 1089 Z " />
<glyph glyph-name="lambda" unicode="&#x3bb;" horiz-adv-x="1188" d="M1171 0 L891 0 L579 683 L296 0 L17 0 L431 1007 L197 1508 L479 1508 L1171 0 Z " />
<glyph glyph-name="mu" unicode="&#x3bc;" horiz-adv-x="1229" d="M1097 0 L825 0 L825 111 Q695 -19 559 -19 Q459 -19 402 44 L402 -398 L132 -398 L132 1088 L402 1088 L402 611 Q402 463 411 389.5 Q420 316 465.5 268.5 Q511 221 588 221 Q673 221 728.5 270 Q784 319 804.5 397 Q825 475 825 651 L825 1088 L1097 1088 L1097 0 Z " />
<glyph glyph-name="nu" unicode="&#x3bd;" horiz-adv-x="1147" d="M21 1088 L299 1088 L574 446 L848 1088 L1125 1088 L662 0 L485 0 L21 1088 Z " />
<glyph glyph-name="xi" unicode="&#x3be;" horiz-adv-x="974" d="M340 -392 L398 -152 Q484 -183 573 -183 Q708 -183 708 -95 Q708 -54 674.5 -35.5 Q641 -17 492 20 Q76 119 76 460 Q76 733 327 871 Q151 979 151 1175 Q151 1350 279 1443 Q407 1536 619 1536 Q775 1536 939 1490 L865 1246 Q739 1280 611 1280 Q423 1280 423 1136 Q423 1057 502.5 1013 Q582 969 710 969 L857 969 L857 714 L631 714 Q498 714 423 655 Q348 596 348 487 Q348 397 402 352.5 Q456 308 619 265 Q851 204 912.5 122.5 Q974 41 974 -78 Q974 -246 862.5 -336 Q751 -426 566 -426 Q466 -426 340 -392 Z " />
<glyph glyph-name="omicron" unicode="&#x3bf;" horiz-adv-x="1311" d="M649 1116 Q803 1116 938.5 1039 Q1074 962 1150 830 Q1226 698 1226 545 Q1226 391 1149.5 257 Q1073 123 941 47.5 Q809 -28 650 -28 Q416 -28 250.5 138.5 Q85 305 85 543 Q85 798 272 968 Q436 1116 649 1116 Z M653 859 Q526 859 441.5 770.5 Q357 682 357 544 Q357 402 440.5 314 Q524 226 652 226 Q780 226 865 315 Q950 404 950 544 Q950 684 866.5 771.5 Q783 859 653 859 Z " />
<glyph glyph-name="pi" unicode="&#x3c0;" horiz-adv-x="1382" d="M1322 833 L1142 833 L1142 0 L870 0 L870 833 L502 833 L502 0 L230 0 L230 833 L60 833 L60 1088 L1322 1088 L1322 833 Z " />
<glyph glyph-name="rho" unicode="&#x3c1;" horiz-adv-x="1336" d="M384 127 L384 -398 L110 -398 L110 543 Q110 780 274 948 Q438 1116 674 1116 Q911 1116 1081 950 Q1251 784 1251 545 Q1251 296 1102 134 Q953 -28 719 -28 Q533 -28 384 127 Z M382 544 Q382 405 463.5 315.5 Q545 226 677 226 Q808 226 891.5 316 Q975 406 975 544 Q975 683 893 771 Q811 859 678 859 Q550 859 466 770.5 Q382 682 382 544 Z " />
<glyph glyph-name="sigma1" unicode="&#x3c2;" horiz-adv-x="1199" d="M1171 868 L944 743 Q820 862 670 862 Q532 862 446.5 788.5 Q361 715 361 582 Q361 465 432.5 394 Q504 323 693 269 Q909 207 980.5 125.5 Q1052 44 1052 -78 Q1052 -245 941 -335.5 Q830 -426 649 -426 Q551 -426 418 -393 L476 -152 Q550 -183 650 -183 Q727 -183 756.5 -163 Q786 -143 786 -94 Q786 -31 636 4 Q340 73 212.5 206.5 Q85 340 85 556 Q85 817 247.5 966.5 Q410 1116 680 1116 Q822 1116 956.5 1050 Q1091 984 1171 868 Z " />
<glyph glyph-name="sigma" unicode="&#x3c3;" horiz-adv-x="1468" d="M1408 833 L1136 833 Q1226 735 1226 545 Q1226 310 1061 141 Q896 -28 650 -28 Q414 -28 249.5 138 Q85 304 85 543 Q85 786 254 951 Q423 1116 649 1116 Q742 1116 828 1088 L1408 1088 L1408 833 Z M653 859 Q522 859 439.5 769 Q357 679 357 544 Q357 405 438.5 315.5 Q520 226 652 226 Q783 226 866.5 316 Q950 406 950 544 Q950 683 868 771 Q786 859 653 859 Z " />
<glyph glyph-name="tau" unicode="&#x3c4;" horiz-adv-x="852" d="M792 833 L562 833 L562 0 L290 0 L290 833 L60 833 L60 1088 L792 1088 L792 833 Z " />
<glyph glyph-name="upsilon" unicode="&#x3c5;" horiz-adv-x="1229" d="M110 1089 L382 1089 L382 577 Q382 374 440 300 Q498 226 620 226 Q874 226 874 524 Q874 763 604 893 L752 1120 Q1144 904 1144 521 Q1144 284 1004.5 128 Q865 -28 620 -28 Q455 -28 344.5 29.5 Q234 87 172 203.5 Q110 320 110 552 L110 1089 Z " />
<glyph glyph-name="phi" unicode="&#x3c6;" horiz-adv-x="1632" d="M947 -23 L947 -398 L675 -398 L675 -22 Q85 39 85 546 Q85 717 192.5 866 Q300 1015 494 1108 L570 843 Q357 719 357 543 Q357 405 431.5 332 Q506 259 675 232 L675 1109 Q752 1116 814 1116 Q1156 1116 1351.5 966.5 Q1547 817 1547 546 Q1547 60 947 -23 Z M947 857 L947 232 Q1275 276 1275 543 Q1275 836 947 857 Z " />
<glyph glyph-name="chi" unicode="&#x3c7;" horiz-adv-x="1147" d="M1100 1088 L719 386 L1146 -398 L844 -398 L571 132 L299 -398 L1 -398 L424 382 L40 1088 L342 1088 L572 636 L801 1088 L1100 1088 Z " />
<glyph glyph-name="psi" unicode="&#x3c8;" horiz-adv-x="1560" d="M916 -22 L916 -398 L644 -398 L644 -22 Q110 38 110 556 L110 1088 L382 1088 L382 628 Q382 394 448.5 326 Q515 258 644 242 L644 1088 L916 1088 L916 241 Q1079 264 1128.5 347 Q1178 430 1178 628 L1178 1088 L1450 1088 L1450 547 Q1450 40 916 -22 Z " />
<glyph glyph-name="omega" unicode="&#x3c9;" horiz-adv-x="1756" d="M878 133 Q777 -28 578 -28 Q344 -28 213 113 Q82 254 82 502 Q82 771 251.5 938 Q421 1105 715 1119 L736 861 Q354 813 354 498 Q354 218 567 218 Q743 218 743 494 L743 625 L1012 625 L1012 494 Q1012 218 1189 218 Q1402 218 1402 498 Q1402 666 1310 749.5 Q1218 833 1020 861 L1041 1119 Q1331 1105 1502.5 938.5 Q1674 772 1674 502 Q1674 254 1543 113 Q1412 -28 1178 -28 Q966 -28 878 133 Z " />
<glyph glyph-name="iotadieresis" unicode="&#x3ca;" horiz-adv-x="491" d="M108 1088 L382 1088 L382 0 L108 0 L108 1088 Z M24 1573 Q84 1573 126 1531 Q168 1489 168 1430 Q168 1370 126 1328 Q84 1286 24 1286 Q-35 1286 -77 1328 Q-119 1370 -119 1430 Q-119 1489 -77 1531 Q-35 1573 24 1573 Z M467 1573 Q527 1573 569 1531 Q611 1489 611 1430 Q611 1370 569 1328 Q527 1286 467 1286 Q408 1286 366 1328 Q324 1370 324 1430 Q324 1489 366 1531 Q408 1573 467 1573 Z " />
<glyph glyph-name="upsilondieresis" unicode="&#x3cb;" horiz-adv-x="1229" d="M110 1089 L382 1089 L382 577 Q382 374 440 300 Q498 226 620 226 Q874 226 874 524 Q874 763 604 893 L752 1120 Q1144 904 1144 521 Q1144 284 1004.5 128 Q865 -28 620 -28 Q455 -28 344.5 29.5 Q234 87 172 203.5 Q110 320 110 552 L110 1089 Z M392 1573 Q452 1573 494 1531 Q536 1489 536 1430 Q536 1370 494 1328 Q452 1286 392 1286 Q333 1286 291 1328 Q249 1370 249 1430 Q249 1489 291 1531 Q333 1573 392 1573 Z M835 1573 Q895 1573 937 1531 Q979 1489 979 1430 Q979 1370 937 1328 Q895 1286 835 1286 Q776 1286 734 1328 Q692 1370 692 1430 Q692 1489 734 1531 Q776 1573 835 1573 Z " />
<glyph glyph-name="omicrontonos" unicode="&#x3cc;" horiz-adv-x="1311" d="M649 1116 Q803 1116 938.5 1039 Q1074 962 1150 830 Q1226 698 1226 545 Q1226 391 1149.5 257 Q1073 123 941 47.5 Q809 -28 650 -28 Q416 -28 250.5 138.5 Q85 305 85 543 Q85 798 272 968 Q436 1116 649 1116 Z M653 859 Q526 859 441.5 770.5 Q357 682 357 544 Q357 402 440.5 314 Q524 226 652 226 Q780 226 865 315 Q950 404 950 544 Q950 684 866.5 771.5 Q783 859 653 859 Z M797 1639 L754 1257 L558 1257 L514 1639 L797 1639 Z " />
<glyph glyph-name="upsilontonos" unicode="&#x3cd;" horiz-adv-x="1229" d="M110 1089 L382 1089 L382 577 Q382 374 440 300 Q498 226 620 226 Q874 226 874 524 Q874 763 604 893 L752 1120 Q1144 904 1144 521 Q1144 284 1004.5 128 Q865 -28 620 -28 Q455 -28 344.5 29.5 Q234 87 172 203.5 Q110 320 110 552 L110 1089 Z M756 1639 L713 1257 L517 1257 L473 1639 L756 1639 Z " />
<glyph glyph-name="omegatonos" unicode="&#x3ce;" horiz-adv-x="1756" d="M878 133 Q777 -28 578 -28 Q344 -28 213 113 Q82 254 82 502 Q82 771 251.5 938 Q421 1105 715 1119 L736 861 Q354 813 354 498 Q354 218 567 218 Q743 218 743 494 L743 625 L1012 625 L1012 494 Q1012 218 1189 218 Q1402 218 1402 498 Q1402 666 1310 749.5 Q1218 833 1020 861 L1041 1119 Q1331 1105 1502.5 938.5 Q1674 772 1674 502 Q1674 254 1543 113 Q1412 -28 1178 -28 Q966 -28 878 133 Z M1019 1639 L976 1257 L780 1257 L736 1639 L1019 1639 Z " />
<glyph glyph-name="afii10023" unicode="&#x401;" horiz-adv-x="1065" d="M169 1471 L972 1471 L972 1197 L447 1197 L447 931 L972 931 L972 662 L447 662 L447 275 L972 275 L972 0 L169 0 L169 1471 Z M347 1871 Q407 1871 449 1829 Q491 1787 491 1728 Q491 1668 449 1626 Q407 1584 347 1584 Q288 1584 246 1626 Q204 1668 204 1728 Q204 1787 246 1829 Q288 1871 347 1871 Z M790 1871 Q850 1871 892 1829 Q934 1787 934 1728 Q934 1668 892 1626 Q850 1584 790 1584 Q731 1584 689 1626 Q647 1668 647 1728 Q647 1787 689 1829 Q731 1871 790 1871 Z " />
<glyph glyph-name="afii10051" unicode="&#x402;" horiz-adv-x="1413" d="M569 0 L284 0 L284 1195 L20 1195 L20 1471 L833 1471 L833 1195 L569 1195 L569 916 L689 916 Q940 916 1071 873 Q1202 830 1269.5 716 Q1337 602 1337 429 Q1337 221 1248 93.5 Q1159 -34 983 -34 Q871 -34 715 13 L800 247 Q866 223 908 223 Q1050 223 1050 415 Q1050 513 1006.5 565 Q963 617 889.5 631 Q816 645 663 645 L569 645 L569 0 Z " />
<glyph glyph-name="afii10052" unicode="&#x403;" horiz-adv-x="948" d="M167 1471 L897 1471 L897 1197 L444 1197 L444 0 L167 0 L167 1471 Z M691 1977 L1014 1977 L648 1585 L452 1585 L691 1977 Z " />
<glyph glyph-name="afii10053" unicode="&#x404;" horiz-adv-x="1597" d="M1325 443 L1515 245 Q1343 75 1193 19 Q1043 -37 876 -37 Q525 -37 310.5 184.5 Q96 406 96 738 Q96 1084 331 1296 Q566 1508 880 1508 Q1058 1508 1230 1431 Q1402 1354 1521 1212 L1325 1025 Q1130 1236 875 1236 Q689 1236 549.5 1119 Q410 1002 390 851 L954 851 L954 596 L390 596 Q447 405 583 318.5 Q719 232 880 232 Q1121 232 1325 443 Z " />
<glyph glyph-name="afii10054" unicode="&#x405;" horiz-adv-x="1065" d="M939 1271 L732 1088 Q623 1240 510 1240 Q455 1240 420 1210.5 Q385 1181 385 1144 Q385 1107 410 1074 Q444 1030 615 885 Q775 751 809 716 Q894 630 929.5 551.5 Q965 473 965 380 Q965 199 840 81 Q715 -37 514 -37 Q357 -37 240.5 40 Q124 117 41 282 L276 424 Q382 229 520 229 Q592 229 641 271 Q690 313 690 368 Q690 418 653 468 Q616 518 490 621 Q250 817 180 923.5 Q110 1030 110 1136 Q110 1289 226.5 1398.5 Q343 1508 514 1508 Q624 1508 723.5 1457 Q823 1406 939 1271 Z " />
<glyph glyph-name="afii10055" unicode="&#x406;" horiz-adv-x="573" d="M148 1471 L426 1471 L426 0 L148 0 L148 1471 Z " />
<glyph glyph-name="afii10056" unicode="&#x407;" horiz-adv-x="573" d="M148 1471 L426 1471 L426 0 L148 0 L148 1471 Z M65 1871 Q125 1871 167 1829 Q209 1787 209 1728 Q209 1668 167 1626 Q125 1584 65 1584 Q6 1584 -36 1626 Q-78 1668 -78 1728 Q-78 1787 -36 1829 Q6 1871 65 1871 Z M508 1871 Q568 1871 610 1829 Q652 1787 652 1728 Q652 1668 610 1626 Q568 1584 508 1584 Q449 1584 407 1626 Q365 1668 365 1728 Q365 1787 407 1829 Q449 1871 508 1871 Z " />
<glyph glyph-name="afii10057" unicode="&#x408;" horiz-adv-x="983" d="M534 1471 L815 1471 L815 495 Q815 262 778 168 Q741 74 656 18.5 Q571 -37 452 -37 Q209 -37 38 176 L240 365 Q307 289 354 263 Q401 237 445 237 Q490 237 512 275 Q534 313 534 442 L534 1471 Z " />
<glyph glyph-name="afii10058" unicode="&#x409;" horiz-adv-x="2034" d="M1086 916 L1379 916 Q1565 916 1675.5 880.5 Q1786 845 1871.5 726.5 Q1957 608 1957 446 Q1957 290 1875 178.5 Q1793 67 1691.5 33.5 Q1590 0 1419 0 L1120 0 L713 1081 L299 0 L2 0 L569 1471 L853 1471 L1086 916 Z M1167 666 L1321 267 L1388 267 Q1562 267 1621 310 Q1680 353 1680 457 Q1680 666 1375 666 L1167 666 Z " />
<glyph glyph-name="afii10059" unicode="&#x40a;" horiz-adv-x="1941" d="M943 0 L943 648 L451 648 L451 0 L167 0 L167 1471 L451 1471 L451 916 L943 916 L943 1471 L1226 1471 L1226 916 L1304 916 Q1591 916 1728.5 780.5 Q1866 645 1866 448 Q1866 297 1793 191.5 Q1720 86 1623 43 Q1526 0 1359 0 L943 0 Z M1226 648 L1226 267 L1297 267 Q1472 267 1530.5 313.5 Q1589 360 1589 452 Q1589 649 1331 649 L1284 648 L1226 648 Z " />
<glyph glyph-name="afii10060" unicode="&#x40b;" horiz-adv-x="1403" d="M569 1195 L569 916 L662 916 Q867 916 963.5 895 Q1060 874 1147.5 805 Q1235 736 1270.5 638 Q1306 540 1306 381 L1306 0 L1023 0 L1023 376 Q1023 535 954 590 Q885 645 687 645 L569 645 L569 0 L284 0 L284 1195 L20 1195 L20 1471 L833 1471 L833 1195 L569 1195 Z " />
<glyph glyph-name="afii10061" unicode="&#x40c;" horiz-adv-x="1266" d="M167 1471 L450 1471 L450 965 L849 1471 L1186 1471 L672 815 L1236 0 L904 0 L450 653 L450 0 L167 0 L167 1471 Z M751 1977 L1074 1977 L708 1585 L512 1585 L751 1977 Z " />
<glyph glyph-name="afii10062" unicode="&#x40e;" horiz-adv-x="1313" d="M579 336 L57 1471 L373 1471 L719 651 L1003 1471 L1291 1471 L899 419 Q798 149 679.5 57.5 Q561 -34 427 -34 Q209 -34 25 180 L209 365 Q319 237 426 237 Q474 237 505 260 Q536 283 579 336 Z M274 1865 L495 1865 Q521 1824 567.5 1803.5 Q614 1783 681 1783 Q749 1783 804 1807 Q840 1823 867 1865 L1088 1865 Q1069 1738 966.5 1661 Q864 1584 680 1584 Q556 1584 472.5 1618.5 Q389 1653 338 1717 Q287 1781 274 1865 Z " />
<glyph glyph-name="afii10145" unicode="&#x40f;" horiz-adv-x="1393" d="M167 0 L167 1471 L451 1471 L451 252 L942 252 L942 1471 L1226 1471 L1226 0 L827 0 L827 -220 L565 -220 L565 0 L167 0 Z " />
<glyph glyph-name="afii10017" unicode="&#x410;" horiz-adv-x="1515" d="M616 1471 L900 1471 L1466 0 L1175 0 L1060 303 L460 303 L340 0 L49 0 L616 1471 Z M760 1081 L564 576 L955 576 L760 1081 Z " />
<glyph glyph-name="afii10018" unicode="&#x411;" horiz-adv-x="1165" d="M167 0 L167 1471 L936 1471 L936 1198 L447 1198 L447 916 L508 916 Q694 916 812 875 Q930 834 1008.5 720.5 Q1087 607 1087 452 Q1087 298 1028 206.5 Q969 115 865.5 57.5 Q762 0 579 0 L167 0 Z M447 666 L447 267 L517 267 Q709 267 760 317 Q811 367 811 452 Q811 666 505 666 L447 666 Z " />
<glyph glyph-name="afii10019" unicode="&#x412;" horiz-adv-x="1188" d="M168 0 L168 1471 L399 1471 Q600 1471 693 1445 Q825 1410 903 1315 Q981 1220 981 1091 Q981 1007 945.5 938.5 Q910 870 830 810 Q964 747 1026 652.5 Q1088 558 1088 429 Q1088 305 1024 203 Q960 101 859 50.5 Q758 0 580 0 L168 0 Z M448 1204 L448 894 L509 894 Q611 894 660.5 937 Q710 980 710 1054 Q710 1123 663 1163.5 Q616 1204 520 1204 L448 1204 Z M448 644 L448 267 L518 267 Q692 267 752.5 311 Q813 355 813 439 Q813 534 742 589 Q671 644 506 644 L448 644 Z " />
<glyph glyph-name="afii10020" unicode="&#x413;" horiz-adv-x="948" d="M167 1471 L897 1471 L897 1197 L444 1197 L444 0 L167 0 L167 1471 Z " />
<glyph glyph-name="afii10021" unicode="&#x414;" horiz-adv-x="1579" d="M646 1471 L929 1471 L1402 263 L1566 263 L1566 -220 L1295 -220 L1295 0 L283 0 L283 -220 L12 -220 L12 263 L175 263 L646 1471 Z M790 1081 L468 263 L1111 263 L790 1081 Z " />
<glyph glyph-name="afii10022" unicode="&#x415;" horiz-adv-x="1065" d="M169 1471 L972 1471 L972 1197 L447 1197 L447 931 L972 931 L972 662 L447 662 L447 275 L972 275 L972 0 L169 0 L169 1471 Z " />
<glyph glyph-name="afii10024" unicode="&#x416;" horiz-adv-x="1915" d="M815 653 L776 695 L362 0 L30 0 L573 851 L80 1471 L417 1471 L815 945 L815 1471 L1099 1471 L1099 945 L1497 1471 L1835 1471 L1341 851 L1884 0 L1552 0 L1138 695 L1099 653 L1099 0 L815 0 L815 653 Z " />
<glyph glyph-name="afii10025" unicode="&#x417;" horiz-adv-x="1094" d="M238 383 Q349 228 498 228 Q597 228 658 284 Q719 340 719 433 Q719 524 659.5 584 Q600 644 413 644 L353 644 L353 894 L413 894 Q524 894 581.5 945 Q639 996 639 1082 Q639 1161 591 1207 Q543 1253 464 1253 Q370 1253 271 1160 L106 1344 Q239 1464 328 1487.5 Q417 1511 492 1511 Q672 1511 794.5 1406 Q917 1301 917 1123 Q917 1044 889.5 969 Q862 894 736 810 Q994 695 994 417 Q994 212 856.5 87.5 Q719 -37 503 -37 Q367 -37 259 12.5 Q151 62 24 226 L238 383 Z " />
<glyph glyph-name="afii10026" unicode="&#x418;" horiz-adv-x="1407" d="M1240 1471 L1240 0 L960 0 L960 921 L411 0 L167 0 L167 1471 L447 1471 L447 520 L1004 1471 L1240 1471 Z " />
<glyph glyph-name="afii10027" unicode="&#x419;" horiz-adv-x="1407" d="M1240 1471 L1240 0 L960 0 L960 921 L411 0 L167 0 L167 1471 L447 1471 L447 520 L1004 1471 L1240 1471 Z M306 1865 L527 1865 Q553 1824 599.5 1803.5 Q646 1783 713 1783 Q781 1783 836 1807 Q872 1823 899 1865 L1120 1865 Q1101 1738 998.5 1661 Q896 1584 712 1584 Q588 1584 504.5 1618.5 Q421 1653 370 1717 Q319 1781 306 1865 Z " />
<glyph glyph-name="afii10028" unicode="&#x41a;" horiz-adv-x="1270" d="M170 1471 L453 1471 L453 965 L852 1471 L1189 1471 L675 815 L1239 0 L907 0 L453 653 L453 0 L170 0 L170 1471 Z " />
<glyph glyph-name="afii10029" unicode="&#x41b;" horiz-adv-x="1421" d="M1120 0 L713 1081 L299 0 L2 0 L569 1471 L853 1471 L1419 0 L1120 0 Z " />
<glyph glyph-name="afii10030" unicode="&#x41c;" horiz-adv-x="1843" d="M310 1471 L584 1471 L924 445 L1269 1471 L1539 1471 L1787 0 L1517 0 L1359 929 L1046 0 L799 0 L490 929 L329 0 L56 0 L310 1471 Z " />
<glyph glyph-name="afii10031" unicode="&#x41d;" horiz-adv-x="1393" d="M167 1471 L451 1471 L451 916 L943 916 L943 1471 L1226 1471 L1226 0 L943 0 L943 645 L451 645 L451 0 L167 0 L167 1471 Z " />
<glyph glyph-name="afii10032" unicode="&#x41e;" horiz-adv-x="1720" d="M863 1508 Q1175 1508 1399.5 1282 Q1624 1056 1624 731 Q1624 409 1402.5 186 Q1181 -37 865 -37 Q534 -37 315 192 Q96 421 96 736 Q96 947 198 1124 Q300 1301 478.5 1404.5 Q657 1508 863 1508 Z M860 1234 Q656 1234 517 1092 Q378 950 378 731 Q378 487 553 345 Q689 234 865 234 Q1064 234 1204 378 Q1344 522 1344 733 Q1344 943 1203 1088.5 Q1062 1234 860 1234 Z " />
<glyph glyph-name="afii10033" unicode="&#x41f;" horiz-adv-x="1393" d="M167 1471 L1226 1471 L1226 0 L943 0 L943 1209 L451 1209 L451 0 L167 0 L167 1471 Z " />
<glyph glyph-name="afii10034" unicode="&#x420;" horiz-adv-x="1147" d="M167 1471 L464 1471 Q705 1471 811.5 1426.5 Q918 1382 979.5 1282.5 Q1041 1183 1041 1044 Q1041 890 960.5 788 Q880 686 742 646 Q661 623 447 623 L447 0 L167 0 L167 1471 Z M447 896 L536 896 Q641 896 682 911 Q723 926 746.5 960.5 Q770 995 770 1044 Q770 1129 704 1168 Q656 1197 526 1197 L447 1197 L447 896 Z " />
<glyph glyph-name="afii10035" unicode="&#x421;" horiz-adv-x="1597" d="M1520 1212 L1324 1025 Q1124 1236 874 1236 Q663 1236 518.5 1092 Q374 948 374 737 Q374 590 438 476 Q502 362 619 297 Q736 232 879 232 Q1001 232 1102 277.5 Q1203 323 1324 443 L1514 245 Q1351 86 1206 24.5 Q1061 -37 875 -37 Q532 -37 313.5 180.5 Q95 398 95 738 Q95 958 194.5 1129 Q294 1300 479.5 1404 Q665 1508 879 1508 Q1061 1508 1229.5 1431 Q1398 1354 1520 1212 Z " />
<glyph glyph-name="afii10036" unicode="&#x422;" horiz-adv-x="860" d="M23 1471 L836 1471 L836 1195 L568 1195 L568 0 L284 0 L284 1195 L23 1195 L23 1471 Z " />
<glyph glyph-name="afii10037" unicode="&#x423;" horiz-adv-x="1313" d="M579 336 L57 1471 L373 1471 L719 651 L1003 1471 L1291 1471 L899 419 Q798 149 679.5 57.5 Q561 -34 427 -34 Q209 -34 25 180 L209 365 Q319 237 426 237 Q474 237 505 260 Q536 283 579 336 Z " />
<glyph glyph-name="afii10038" unicode="&#x424;" horiz-adv-x="1544" d="M904 1471 L904 1281 L966 1281 Q1496 1281 1496 844 Q1496 720 1454.5 633.5 Q1413 547 1332.5 490.5 Q1252 434 1166.5 416.5 Q1081 399 904 399 L904 0 L622 0 L622 399 Q437 399 318.5 436 Q200 473 124 576.5 Q48 680 48 836 Q48 983 109 1084 Q170 1185 281.5 1233 Q393 1281 622 1281 L622 1471 L904 1471 Z M622 1023 L557 1023 Q410 1023 361 975.5 Q312 928 312 837 Q312 730 371.5 689 Q431 648 546 648 L622 648 L622 1023 Z M904 1023 L904 648 L996 648 Q1138 648 1184 701 Q1230 754 1230 839 Q1230 926 1181.5 974.5 Q1133 1023 986 1023 L904 1023 Z " />
<glyph glyph-name="afii10039" unicode="&#x425;" horiz-adv-x="1393" d="M72 1471 L387 1471 L695 1000 L1006 1471 L1321 1471 L853 759 L1350 0 L1035 0 L695 517 L358 0 L41 0 L538 759 L72 1471 Z " />
<glyph glyph-name="afii10040" unicode="&#x426;" horiz-adv-x="1536" d="M167 0 L167 1471 L451 1471 L451 252 L943 252 L943 1471 L1226 1471 L1226 252 L1525 252 L1525 -220 L1263 -220 L1263 0 L167 0 Z " />
<glyph glyph-name="afii10041" unicode="&#x427;" horiz-adv-x="1262" d="M812 644 L718 644 Q515 644 418.5 665 Q322 686 234 754.5 Q146 823 110 920.5 Q74 1018 74 1179 L74 1471 L358 1471 L358 1184 Q358 1034 412 975 Q466 916 642 916 L812 916 L812 1471 L1094 1471 L1094 0 L812 0 L812 644 Z " />
<glyph glyph-name="afii10042" unicode="&#x428;" horiz-adv-x="1976" d="M844 252 L844 1471 L1126 1471 L1126 252 L1526 252 L1526 1471 L1810 1471 L1810 0 L167 0 L167 1471 L451 1471 L451 252 L844 252 Z " />
<glyph glyph-name="afii10043" unicode="&#x429;" horiz-adv-x="2097" d="M1504 252 L1504 1471 L1786 1471 L1786 252 L2086 252 L2086 -220 L1824 -220 L1824 0 L143 0 L143 1471 L427 1471 L427 252 L820 252 L820 1471 L1102 1471 L1102 252 L1504 252 Z " />
<glyph glyph-name="afii10044" unicode="&#x42a;" horiz-adv-x="1337" d="M341 0 L341 1208 L12 1208 L12 1471 L620 1471 L620 916 L682 916 Q856 916 972 876 Q1088 836 1174.5 721 Q1261 606 1261 447 Q1261 298 1185.5 190.5 Q1110 83 1013 41.5 Q916 0 753 0 L341 0 Z M620 666 L620 267 L691 267 Q847 267 916 308.5 Q985 350 985 457 Q985 666 678 666 L620 666 Z " />
<glyph glyph-name="afii10045" unicode="&#x42b;" horiz-adv-x="1735" d="M1290 1471 L1568 1471 L1568 0 L1290 0 L1290 1471 Z M167 0 L167 1471 L447 1471 L447 916 L508 916 Q683 916 799.5 875.5 Q916 835 1001 721.5 Q1086 608 1086 448 Q1086 297 1013 192 Q940 87 843.5 43.5 Q747 0 579 0 L167 0 Z M447 666 L447 267 L517 267 Q691 267 750 310 Q809 353 809 457 Q809 666 505 666 L447 666 Z " />
<glyph glyph-name="afii10046" unicode="&#x42c;" horiz-adv-x="1163" d="M167 0 L167 1471 L447 1471 L447 916 L508 916 Q683 916 799.5 875.5 Q916 835 1001 721.5 Q1086 608 1086 448 Q1086 297 1013 192 Q940 87 843.5 43.5 Q747 0 579 0 L167 0 Z M447 666 L447 267 L517 267 Q691 267 750 310 Q809 353 809 457 Q809 666 505 666 L447 666 Z " />
<glyph glyph-name="afii10047" unicode="&#x42d;" horiz-adv-x="1597" d="M272 443 L82 245 Q254 75 404 19 Q554 -37 721 -37 Q1072 -37 1286.5 184.5 Q1501 406 1501 738 Q1501 1084 1266 1296 Q1031 1508 717 1508 Q539 1508 367 1431 Q195 1354 76 1212 L272 1025 Q467 1236 722 1236 Q908 1236 1047.5 1119 Q1187 1002 1207 851 L643 851 L643 596 L1207 596 Q1150 405 1014 318.5 Q878 232 717 232 Q476 232 272 443 Z " />
<glyph glyph-name="afii10048" unicode="&#x42e;" horiz-adv-x="2251" d="M445 916 L635 916 Q767 1251 967.5 1379.5 Q1168 1508 1392 1508 Q1696 1508 1925 1285.5 Q2154 1063 2154 731 Q2154 409 1932 186 Q1710 -37 1395 -37 Q1114 -37 886.5 147.5 Q659 332 635 644 L445 644 L445 0 L167 0 L167 1471 L445 1471 L445 916 Z M1873 733 Q1873 934 1736 1084 Q1599 1234 1390 1234 Q1193 1234 1050.5 1095 Q908 956 908 731 Q908 508 1054 371 Q1200 234 1395 234 Q1594 234 1733.5 379 Q1873 524 1873 733 Z " />
<glyph glyph-name="afii10049" unicode="&#x42f;" horiz-adv-x="1202" d="M1035 1471 L1035 0 L755 0 L755 592 L685 592 L389 0 L83 0 L416 638 Q126 721 126 1024 Q126 1132 156.5 1212 Q187 1292 243.5 1347.5 Q300 1403 374.5 1429.5 Q449 1456 493 1460 Q537 1464 738 1471 L1035 1471 Z M755 865 L755 1197 L678 1197 Q573 1197 527 1184.5 Q481 1172 452 1130.5 Q423 1089 423 1028 Q423 937 481 901 Q539 865 667 865 L755 865 Z " />
<glyph glyph-name="afii10065" unicode="&#x430;" horiz-adv-x="1352" d="M942 1088 L1214 1088 L1214 0 L942 0 L942 115 Q862 39 781.5 5.5 Q701 -28 607 -28 Q396 -28 242 135.5 Q88 299 88 542 Q88 794 237 955 Q386 1116 599 1116 Q697 1116 783 1079 Q869 1042 942 968 L942 1088 Z M655 864 Q528 864 444 774.5 Q360 685 360 545 Q360 404 445.5 313 Q531 222 656 222 Q785 222 870 311.5 Q955 401 955 546 Q955 688 870 776 Q785 864 655 864 Z " />
<glyph glyph-name="afii10066" unicode="&#x431;" horiz-adv-x="1335" d="M1178 1531 L1178 1273 Q1061 1260 951 1259 Q751 1257 650 1241.5 Q549 1226 472 1169.5 Q395 1113 363 1039.5 Q331 966 324 828 Q442 1111 729 1111 Q940 1111 1094.5 956.5 Q1249 802 1249 558 Q1249 306 1083 139 Q917 -28 673 -28 Q474 -28 322.5 94 Q171 216 128 384.5 Q85 553 85 744 Q85 989 146 1142.5 Q207 1296 306.5 1373 Q406 1450 537 1476 Q668 1502 922 1513 Q1094 1521 1178 1531 Z M973 544 Q973 680 891.5 769.5 Q810 859 676 859 Q548 859 464 769 Q380 679 380 544 Q380 402 463.5 314.5 Q547 227 675 227 Q801 227 887 314.5 Q973 402 973 544 Z " />
<glyph glyph-name="afii10067" unicode="&#x432;" horiz-adv-x="1096" d="M138 0 L138 1088 L575 1088 Q790 1088 867 1003.5 Q944 919 944 812 Q944 653 786 583 Q1002 509 1002 304 Q1002 193 945 120.5 Q888 48 800.5 24 Q713 0 556 0 L138 0 Z M412 660 L517 660 Q584 660 620.5 693.5 Q657 727 657 768 Q657 829 622 863 Q587 897 539 897 L504 896 L412 896 L412 660 Z M412 210 L549 210 Q629 210 661.5 247.5 Q694 285 694 321 Q694 374 657.5 418 Q621 462 526 462 L412 462 L412 210 Z " />
<glyph glyph-name="afii10068" unicode="&#x433;" horiz-adv-x="819" d="M137 1088 L772 1088 L772 828 L411 828 L411 0 L137 0 L137 1088 Z " />
<glyph glyph-name="afii10069" unicode="&#x434;" horiz-adv-x="1333" d="M279 0 L279 -189 L36 -189 L36 231 L200 231 L575 1088 L751 1088 L1131 231 L1298 231 L1298 -189 L1038 -189 L1038 0 L279 0 Z M841 231 L663 689 L479 231 L841 231 Z " />
<glyph glyph-name="afii10070" unicode="&#x435;" horiz-adv-x="1311" d="M1228 465 L351 465 Q370 349 452.5 280.5 Q535 212 663 212 Q816 212 926 319 L1156 211 Q1070 89 950 30.5 Q830 -28 665 -28 Q409 -28 248 133.5 Q87 295 87 538 Q87 787 247.5 951.5 Q408 1116 650 1116 Q907 1116 1068 951.5 Q1229 787 1229 517 L1228 465 Z M954 680 Q927 771 847.5 828 Q768 885 663 885 Q549 885 463 821 Q409 781 363 680 L954 680 Z " />
<glyph glyph-name="afii10072" unicode="&#x436;" horiz-adv-x="1651" d="M689 350 L660 384 L336 0 L-26 0 L465 558 L-20 1088 L313 1088 L689 681 L689 1088 L962 1088 L962 681 L1337 1088 L1671 1088 L1186 558 L1677 0 L1315 0 L991 384 L962 350 L962 0 L689 0 L689 350 Z " />
<glyph glyph-name="afii10073" unicode="&#x437;" horiz-adv-x="922" d="M320 461 L320 656 L374 656 Q429 656 470 682 Q511 708 511 766 Q511 816 474.5 848.5 Q438 881 385 881 Q318 881 217 816 L109 1004 Q250 1116 423 1116 Q582 1116 686.5 1033.5 Q791 951 791 811 Q791 669 639 581 Q842 506 842 310 Q842 164 728 68 Q614 -28 413 -28 Q192 -28 48 96 L199 286 Q296 214 383 214 Q453 214 494 247.5 Q535 281 535 334 Q535 385 496.5 423 Q458 461 391 461 L320 461 Z " />
<glyph glyph-name="afii10074" unicode="&#x438;" horiz-adv-x="1229" d="M282 0 L137 0 L137 1088 L403 1088 L403 449 L960 1088 L1091 1088 L1091 0 L825 0 L825 626 L282 0 Z " />
<glyph glyph-name="afii10075" unicode="&#x439;" horiz-adv-x="1229" d="M282 0 L137 0 L137 1088 L403 1088 L403 449 L960 1088 L1091 1088 L1091 0 L825 0 L825 626 L282 0 Z M217 1568 L438 1568 Q464 1527 510.5 1506.5 Q557 1486 624 1486 Q692 1486 747 1510 Q783 1526 810 1568 L1031 1568 Q1012 1441 909.5 1364 Q807 1287 623 1287 Q499 1287 415.5 1321.5 Q332 1356 281 1420 Q230 1484 217 1568 Z " />
<glyph glyph-name="afii10076" unicode="&#x43a;" horiz-adv-x="1100" d="M138 1088 L411 1088 L411 681 L787 1088 L1120 1088 L635 558 L1126 0 L764 0 L440 384 L411 350 L411 0 L138 0 L138 1088 Z " />
<glyph glyph-name="afii10077" unicode="&#x43b;" horiz-adv-x="1116" d="M1110 0 L832 0 L560 687 L283 0 L6 0 L470 1088 L646 1088 L1110 0 Z " />
<glyph glyph-name="afii10078" unicode="&#x43c;" horiz-adv-x="1604" d="M804 402 L1138 1088 L1318 1088 L1590 0 L1323 0 L1178 638 L854 0 L742 0 L425 638 L279 0 L13 0 L285 1088 L465 1088 L804 402 Z " />
<glyph glyph-name="afii10079" unicode="&#x43d;" horiz-adv-x="1229" d="M411 696 L817 696 L817 1088 L1091 1088 L1091 0 L817 0 L817 451 L411 451 L411 0 L137 0 L137 1088 L411 1088 L411 696 Z " />
<glyph glyph-name="afii10080" unicode="&#x43e;" horiz-adv-x="1311" d="M649 1116 Q803 1116 938.5 1039 Q1074 962 1150 830 Q1226 698 1226 545 Q1226 391 1149.5 257 Q1073 123 941 47.5 Q809 -28 650 -28 Q416 -28 250.5 138.5 Q85 305 85 543 Q85 798 272 968 Q436 1116 649 1116 Z M653 859 Q526 859 441.5 770.5 Q357 682 357 544 Q357 402 440.5 314 Q524 226 652 226 Q780 226 865 315 Q950 404 950 544 Q950 684 866.5 771.5 Q783 859 653 859 Z " />
<glyph glyph-name="afii10081" unicode="&#x43f;" horiz-adv-x="1229" d="M411 0 L137 0 L137 1088 L1091 1088 L1091 0 L817 0 L817 825 L411 825 L411 0 Z " />
<glyph glyph-name="afii10082" unicode="&#x440;" horiz-adv-x="1352" d="M409 1088 L409 968 Q483 1042 569 1079 Q655 1116 753 1116 Q966 1116 1115 955 Q1264 794 1264 542 Q1264 299 1110 135.5 Q956 -28 745 -28 Q651 -28 570 5.5 Q489 39 409 115 L409 -398 L138 -398 L138 1088 L409 1088 Z M696 864 Q567 864 482 776 Q397 688 397 546 Q397 401 482 311.5 Q567 222 696 222 Q821 222 906.5 313 Q992 404 992 545 Q992 685 908 774.5 Q824 864 696 864 Z " />
</font>
</svg>
