<?xml version="1.0" encoding="UTF-8"?>
<svg xmlns="http://www.w3.org/2000/svg" xmlns:xlink="http://www.w3.org/1999/xlink" version="1.2" >
<font id="Rockwell Italic">
<font-face  font-family="Rockwell" units-per-em="2048" ascent="1415" descent="-456" font-style="italic" font-weight="400" font-stretch="normal" slope="-13" cap-height="1536" x-height="1024" underline-position="-160" underline-thickness="102" />
<missing-glyph  horiz-adv-x="1536" d="M256 0 L256 1280 L1280 1280 L1280 0 L256 0 Z M288 32 L1248 32 L1248 1248 L288 1248 L288 32 Z " />
<glyph glyph-name="space" unicode="&#x20;" horiz-adv-x="512" d="" />
<glyph glyph-name="exclam" unicode="&#x21;" horiz-adv-x="575" d="M309 370 L209 370 L300 958 L401 1391 L594 1391 L501 990 L309 370 Z M105 235 L346 235 L290 0 L49 0 L105 235 Z " />
<glyph glyph-name="quotedbl" unicode="&#x22;" horiz-adv-x="854" d="M646 831 L677 1127 Q689 1247 703 1299 Q717 1351 751.5 1383 Q786 1415 834 1415 Q912 1415 912 1344 Q912 1303 829 1126 L690 831 L646 831 Z M276 831 L307 1127 Q319 1247 333 1299 Q347 1351 381.5 1383 Q416 1415 463 1415 Q542 1415 542 1344 Q542 1303 458 1126 L320 831 L276 831 Z " />
<glyph glyph-name="numbersign" unicode="&#x23;" horiz-adv-x="1366" d="M596 1021 L992 1021 L1073 1412 L1220 1412 L1139 1021 L1324 1021 L1324 874 L1108 874 L1035 521 L1324 521 L1324 374 L1004 374 L923 -17 L776 -17 L857 374 L461 374 L380 -17 L233 -17 L314 374 L129 374 L129 521 L345 521 L418 874 L129 874 L129 1021 L449 1021 L530 1412 L677 1412 L596 1021 Z M565 874 L492 521 L888 521 L961 874 L565 874 Z " />
<glyph glyph-name="dollar" unicode="&#x24;" horiz-adv-x="981" d="M308 0 Q197 29 123 119 Q49 209 49 314 Q49 351 57 412 L232 412 Q224 368 224 342 Q224 203 343 147 L460 645 Q245 788 245 996 Q245 1137 339 1255 Q433 1373 633 1381 L641 1415 L779 1415 L767 1367 Q879 1339 939 1262.5 Q999 1186 999 1093 Q999 1041 980 971 L820 971 Q835 1023 835 1077 Q835 1194 734 1228 L623 751 Q631 745 642 738 Q880 591 880 382 Q880 218 761.5 100.5 Q643 -17 443 -17 L405 -176 L267 -176 L308 0 Z M505 836 L599 1235 Q502 1224 456 1160.5 Q410 1097 410 1023 Q410 916 505 836 Z M579 563 L477 129 Q583 142 644 212 Q705 282 705 367 Q705 481 579 563 Z " />
<glyph glyph-name="percent" unicode="&#x25;" horiz-adv-x="2048" d="M294 957 Q294 1058 339.5 1174 Q385 1290 472 1352.5 Q559 1415 669 1415 Q797 1415 861.5 1339 Q926 1263 926 1129 Q926 952 827.5 814.5 Q729 677 556 677 Q426 677 360 754 Q294 831 294 957 Z M445 953 Q445 872 482.5 832 Q520 792 570 792 Q660 792 721 906.5 Q782 1021 782 1155 Q782 1214 751 1257 Q720 1300 657 1300 Q570 1300 507.5 1185.5 Q445 1071 445 953 Z M290 0 L1718 1391 L1851 1391 L423 0 L290 0 Z M1227 258 Q1227 441 1330 577 Q1433 713 1604 713 Q1730 713 1794 637.5 Q1858 562 1858 429 Q1858 257 1762 118 Q1666 -21 1489 -21 Q1359 -21 1293 56 Q1227 133 1227 258 Z M1378 254 Q1378 171 1415.5 131.5 Q1453 92 1503 92 Q1593 92 1653.5 206.5 Q1714 321 1714 455 Q1714 515 1683.5 557.5 Q1653 600 1590 600 Q1490 600 1434 473.5 Q1378 347 1378 254 Z " />
<glyph glyph-name="ampersand" unicode="&#x26;" horiz-adv-x="1280" d="M1043 715 L1304 715 L1267 557 L1149 557 Q1057 352 936 233 L971 163 L1169 163 L1130 0 L862 0 L806 110 Q643 -22 448 -22 Q254 -22 149.5 93.5 Q45 209 45 374 Q45 693 440 875 Q382 1017 382 1105 Q382 1231 472 1322 Q562 1413 701 1413 Q832 1413 910 1343 Q988 1273 988 1162 Q988 946 662 799 L862 387 Q966 511 1043 715 Z M599 939 Q811 1030 811 1158 Q811 1213 778.5 1241 Q746 1269 700 1269 Q648 1269 603 1229 Q558 1189 558 1104 Q558 1038 599 939 Z M511 726 Q246 602 246 396 Q246 290 316 216.5 Q386 143 493 143 Q620 143 737 253 L511 726 Z " />
<glyph glyph-name="quotesingle" unicode="&#x27;" horiz-adv-x="449" d="M259 831 L290 1127 Q302 1247 316 1299 Q330 1351 364.5 1383 Q399 1415 446 1415 Q525 1415 525 1344 Q525 1303 441 1126 L303 831 L259 831 Z " />
<glyph glyph-name="parenleft" unicode="&#x28;" horiz-adv-x="768" d="M919 1413 L889 1282 Q565 1159 438 842 Q311 525 311 221 Q311 -84 517 -304 L485 -443 Q326 -342 230 -140 Q134 62 134 317 Q134 693 323.5 992.5 Q513 1292 919 1413 Z " />
<glyph glyph-name="parenright" unicode="&#x29;" horiz-adv-x="768" d="M-147 -443 L-116 -312 Q209 -189 335.5 128.5 Q462 446 462 748 Q462 1054 256 1274 L288 1413 Q444 1314 541.5 1111.5 Q639 909 639 653 Q639 277 449 -23 Q259 -323 -147 -443 Z " />
<glyph glyph-name="asterisk" unicode="&#x2a;" horiz-adv-x="1067" d="M837 1374 L800 1209 Q714 1101 686 981 Q829 1000 925 1068 L1100 1083 L1115 898 L943 880 Q846 918 727 918 Q716 918 700 917 Q768 781 848 723 L917 564 L749 492 L677 652 Q680 678 680 699 Q680 805 638 898 Q540 811 500 691 L367 576 L245 713 L374 828 Q471 846 591 941 Q476 1004 355 1011 L207 1100 L299 1261 L451 1173 Q510 1070 631 993 Q641 1037 641 1106 Q641 1174 624 1248 L660 1413 L837 1374 Z " />
<glyph glyph-name="plus" unicode="&#x2b;" horiz-adv-x="1366" d="M181 776 L651 776 L651 1245 L807 1245 L807 776 L1277 776 L1277 619 L807 619 L807 149 L651 149 L651 619 L181 619 L181 776 Z " />
<glyph glyph-name="comma" unicode="&#x2c;" horiz-adv-x="575" d="M109 235 L350 235 L302 30 Q268 -114 194 -191.5 Q120 -269 -23 -278 L-3 -192 Q145 -173 183 0 L53 0 L109 235 Z " />
<glyph glyph-name="&amp;#x2d;" unicode="&#x2d;" horiz-adv-x="788" d="M118 573 L695 573 L653 396 L76 396 L118 573 Z " />
<glyph glyph-name="&amp;#xad;" unicode="&#xad;" horiz-adv-x="788" d="M118 573 L695 573 L653 396 L76 396 L118 573 Z " />
<glyph glyph-name="period" unicode="&#x2e;" horiz-adv-x="575" d="M108 235 L349 235 L293 0 L52 0 L108 235 Z " />
<glyph glyph-name="slash" unicode="&#x2f;" horiz-adv-x="897" d="M932 1415 L1111 1415 L69 -22 L-110 -22 L932 1415 Z " />
<glyph glyph-name="zero" unicode="0" horiz-adv-x="1087" d="M110 401 Q110 663 206.5 913 Q303 1163 431 1289 Q559 1415 728 1415 Q893 1415 981 1294 Q1069 1173 1069 974 Q1069 815 1023.5 635 Q978 455 888.5 291 Q799 127 686 53 Q573 -21 459 -21 Q312 -21 211 92 Q110 205 110 401 Z M288 366 Q288 253 334.5 189.5 Q381 126 463 126 Q644 126 769.5 452.5 Q895 779 895 1028 Q895 1269 716 1269 Q527 1269 407.5 929 Q288 589 288 366 Z " />
<glyph glyph-name="one" unicode="1" horiz-adv-x="1087" d="M387 163 L637 1228 L477 1228 L515 1391 L856 1391 L568 163 L714 163 L676 0 L189 0 L227 163 L387 163 Z " />
<glyph glyph-name="two" unicode="2" horiz-adv-x="1087" d="M744 479 L910 479 L797 0 L29 0 Q48 128 114.5 257.5 Q181 387 284.5 488.5 Q388 590 559 719 Q716 837 779.5 921.5 Q843 1006 843 1107 Q843 1179 796.5 1224 Q750 1269 682 1269 Q569 1269 488 1152.5 Q407 1036 378 875 L204 875 Q250 1130 375.5 1272.5 Q501 1415 692 1415 Q832 1415 928 1331 Q1024 1247 1024 1097 Q1024 1000 983 911.5 Q942 823 874.5 758.5 Q807 694 674 598 Q488 465 394 368 Q300 271 253 163 L670 163 L744 479 Z " />
<glyph glyph-name="three" unicode="3" horiz-adv-x="1087" d="M99 459 L274 459 Q267 402 267 377 Q267 275 321 201.5 Q375 128 490 128 Q626 128 700 224 Q774 320 774 431 Q774 539 698.5 596 Q623 653 520 653 Q496 653 460 650 L496 802 Q684 802 785 876.5 Q886 951 886 1089 Q886 1179 832.5 1224.5 Q779 1270 699 1270 Q517 1270 443 1018 L274 1018 Q309 1192 421 1303.5 Q533 1415 707 1415 Q864 1415 965 1324.5 Q1066 1234 1066 1088 Q1066 958 987 855 Q908 752 760 718 Q962 634 962 424 Q962 240 835 109.5 Q708 -21 491 -21 Q299 -21 194.5 91 Q90 203 90 367 Q90 413 99 459 Z " />
<glyph glyph-name="four" unicode="4" horiz-adv-x="1087" d="M586 382 L112 382 Q107 469 55 544 L854 1402 L1007 1402 L799 518 L1007 518 L976 382 L767 382 L716 163 L848 163 L809 0 L368 0 L406 163 L535 163 L586 382 Z M618 518 L755 1102 L212 518 L618 518 Z " />
<glyph glyph-name="five" unicode="5" horiz-adv-x="1087" d="M113 443 L288 443 Q276 388 276 341 Q276 239 327 183 Q378 127 464 127 Q602 127 693 268.5 Q784 410 784 552 Q784 635 734 691.5 Q684 748 598 748 Q479 748 383 639 Q334 693 265 730 L431 1391 L1114 1391 L1031 1038 L865 1038 L908 1222 L540 1222 L445 841 Q536 901 636 901 Q777 901 873 799 Q969 697 969 530 Q969 324 832 151.5 Q695 -21 464 -21 Q284 -21 192.5 87.5 Q101 196 101 336 Q101 383 113 443 Z " />
<glyph glyph-name="six" unicode="6" horiz-adv-x="1087" d="M1094 995 L939 995 Q948 1049 948 1090 Q948 1164 906 1217 Q864 1270 777 1270 Q531 1270 415 784 Q503 870 623 870 Q774 870 870 761 Q966 652 966 486 Q966 364 909.5 237 Q853 110 746 44.5 Q639 -21 521 -21 Q358 -21 261.5 98.5 Q165 218 165 397 Q165 617 252.5 888.5 Q340 1160 470.5 1287.5 Q601 1415 774 1415 Q914 1415 1008.5 1330 Q1103 1245 1103 1090 Q1103 1040 1094 995 Z M363 560 Q345 466 345 376 Q345 262 392.5 194.5 Q440 127 532 127 Q651 127 723.5 241 Q796 355 796 490 Q796 581 740.5 649.5 Q685 718 590 718 Q452 718 363 560 Z " />
<glyph glyph-name="seven" unicode="7" horiz-adv-x="1087" d="M524 163 L667 163 L629 0 L153 0 L191 163 L329 163 Q426 487 606 782 Q786 1077 912 1222 L413 1222 L371 1041 L205 1041 L287 1391 L1151 1391 L1115 1241 Q930 1023 760.5 711.5 Q591 400 524 163 Z " />
<glyph glyph-name="eight" unicode="8" horiz-adv-x="1087" d="M402 754 Q283 843 283 996 Q283 1157 392.5 1286 Q502 1415 702 1415 Q862 1415 957.5 1324.5 Q1053 1234 1053 1081 Q1053 939 982 841 Q911 743 790 704 Q935 621 935 434 Q935 249 803.5 114 Q672 -21 466 -21 Q311 -21 202 69.5 Q93 160 93 331 Q93 481 175.5 592.5 Q258 704 402 754 Z M452 989 Q452 901 498.5 849 Q545 797 632 797 Q744 797 813.5 887.5 Q883 978 883 1082 Q883 1170 833 1219.5 Q783 1269 699 1269 Q586 1269 519 1183.5 Q452 1098 452 989 Z M280 329 Q280 231 333.5 178.5 Q387 126 475 126 Q598 126 674.5 226 Q751 326 751 450 Q751 542 694.5 595.5 Q638 649 545 649 Q421 649 350.5 549 Q280 449 280 329 Z " />
<glyph glyph-name="nine" unicode="9" horiz-adv-x="1087" d="M111 401 L272 401 Q263 361 263 319 Q263 124 429 124 Q666 124 794 608 Q695 525 581 525 Q430 525 337 636 Q244 747 244 911 Q244 1111 369 1263 Q494 1415 682 1415 Q850 1415 946 1298.5 Q1042 1182 1042 989 Q1042 770 950.5 490 Q859 210 725.5 94.5 Q592 -21 434 -21 Q308 -21 205 59.5 Q102 140 102 302 Q102 349 111 401 Z M849 841 Q867 925 867 1012 Q867 1148 812 1208 Q757 1268 670 1268 Q549 1268 479.5 1156 Q410 1044 410 910 Q410 798 468 736.5 Q526 675 611 675 Q763 675 849 841 Z " />
<glyph glyph-name="colon" unicode="&#x3a;" horiz-adv-x="575" d="M277 968 L519 968 L463 732 L222 732 L277 968 Z M106 235 L347 235 L291 0 L50 0 L106 235 Z " />
<glyph glyph-name="semicolon" unicode="&#x3b;" horiz-adv-x="575" d="M278 968 L519 968 L463 732 L222 732 L278 968 Z M106 235 L347 235 L299 30 Q265 -114 191 -191.5 Q117 -269 -26 -278 L-6 -192 Q142 -173 180 0 L50 0 L106 235 Z " />
<glyph glyph-name="less" unicode="&#x3c;" horiz-adv-x="1366" d="M1277 167 L181 626 L181 768 L1277 1228 L1277 1058 L395 697 L1277 337 L1277 167 Z " />
<glyph glyph-name="equal" unicode="&#x3d;" horiz-adv-x="1366" d="M181 1011 L1277 1011 L1277 854 L181 854 L181 1011 Z M181 540 L1277 540 L1277 384 L181 384 L181 540 Z " />
<glyph glyph-name="greater" unicode="&#x3e;" horiz-adv-x="1366" d="M181 1228 L1277 768 L1277 626 L181 167 L181 337 L1063 697 L181 1058 L181 1228 Z " />
<glyph glyph-name="question" unicode="&#x3f;" horiz-adv-x="938" d="M426 367 L330 367 L413 796 Q472 782 522 782 Q653 782 732 875 Q811 968 811 1086 Q811 1159 767.5 1210 Q724 1261 637 1261 Q459 1261 396 1060 L243 1060 Q287 1247 401.5 1330 Q516 1413 663 1413 Q822 1413 907.5 1323 Q993 1233 993 1089 Q993 899 866 769.5 Q739 640 570 640 Q551 640 516 643 L426 367 Z M231 235 L473 235 L417 0 L176 0 L231 235 Z " />
<glyph glyph-name="at" unicode="&#x40;" horiz-adv-x="2068" d="M1206 138 Q1061 -28 899 -28 Q752 -28 644.5 96 Q537 220 537 420 Q537 568 610 721.5 Q683 875 805 967 Q927 1059 1056 1059 Q1246 1059 1358 875 L1392 1030 L1571 1030 L1427 359 Q1397 219 1397 203 Q1397 175 1419 156.5 Q1441 138 1465 138 Q1518 138 1615.5 205 Q1713 272 1783 406 Q1853 540 1853 691 Q1853 968 1647 1145 Q1441 1322 1138 1322 Q768 1322 536 1071.5 Q304 821 304 462 Q304 90 534 -109 Q764 -308 1165 -308 Q1400 -308 1584.5 -229 Q1769 -150 1869 -6 L2050 -6 Q1971 -172 1744 -314 Q1517 -456 1167 -456 Q679 -456 417.5 -208.5 Q156 39 156 444 Q156 721 287 973.5 Q418 1226 640 1347 Q862 1468 1147 1468 Q1531 1468 1766 1240 Q2001 1012 2001 688 Q2001 410 1813 190.5 Q1625 -29 1398 -29 Q1212 -29 1206 138 Z M722 403 Q722 278 785 199 Q848 120 935 120 Q1072 120 1186.5 271 Q1301 422 1301 624 Q1301 755 1235.5 832.5 Q1170 910 1069 910 Q917 910 819.5 743.5 Q722 577 722 403 Z " />
<glyph glyph-name="A" unicode="A" horiz-adv-x="1323" d="M917 487 L429 487 L257 163 L408 163 L370 0 L-125 0 L-87 163 L41 163 L641 1228 L487 1228 L525 1391 L1204 1391 L1166 1228 L1022 1228 L1146 163 L1275 163 L1237 0 L745 0 L784 163 L948 163 L917 487 Z M902 650 L850 1228 L816 1228 L517 650 L902 650 Z " />
<glyph glyph-name="B" unicode="B" horiz-adv-x="1153" d="M132 163 L382 1228 L248 1228 L287 1391 L631 1391 Q827 1391 923.5 1367.5 Q1020 1344 1082.5 1263.5 Q1145 1183 1145 1067 Q1145 933 1065 840.5 Q985 748 834 714 Q930 678 986 593.5 Q1042 509 1042 405 Q1042 304 989.5 212.5 Q937 121 859.5 75 Q782 29 687.5 14.5 Q593 0 405 0 L-22 0 L16 163 L132 163 Z M485 806 L571 806 Q720 806 789 824.5 Q858 843 904.5 903.5 Q951 964 951 1049 Q951 1118 918 1162 Q885 1206 835 1217 Q785 1228 664 1228 L584 1228 L485 806 Z M334 163 L445 163 Q584 163 635 169.5 Q686 176 733.5 205 Q781 234 812.5 294.5 Q844 355 844 430 Q844 514 804.5 567.5 Q765 621 709 633 Q653 645 518 645 L445 645 L334 163 Z " />
<glyph glyph-name="C" unicode="C" horiz-adv-x="1473" d="M1230 413 L1363 293 Q1110 -22 725 -22 Q546 -22 411 50.5 Q276 123 199.5 264.5 Q123 406 123 576 Q123 776 229 967.5 Q335 1159 537 1286 Q739 1413 1007 1413 Q1264 1413 1408 1272 L1436 1391 L1600 1391 L1511 1008 L1347 1008 Q1294 1244 991 1244 Q807 1244 656 1145 Q505 1046 419.5 880.5 Q334 715 334 550 Q334 377 449 261 Q564 145 741 145 Q1002 145 1230 413 Z " />
<glyph glyph-name="D" unicode="D" horiz-adv-x="1450" d="M130 163 L380 1228 L239 1228 L277 1391 L609 1391 Q825 1391 940 1375 Q1055 1359 1168 1286.5 Q1281 1214 1346 1089.5 Q1411 965 1411 818 Q1411 612 1327 441 Q1243 270 1119 171 Q995 72 829.5 36 Q664 0 332 0 L-26 0 L12 163 L130 163 Z M332 163 L418 163 Q690 163 840 215.5 Q990 268 1094.5 449.5 Q1199 631 1199 828 Q1199 968 1127.5 1069 Q1056 1170 951 1199 Q846 1228 657 1228 L582 1228 L332 163 Z " />
<glyph glyph-name="E" unicode="E" horiz-adv-x="1174" d="M127 163 L376 1228 L244 1228 L282 1391 L1285 1391 L1187 972 L1022 972 L1082 1228 L578 1228 L478 801 L911 801 L875 638 L440 638 L329 163 L846 163 L911 429 L1074 429 L974 0 L-38 0 L0 163 L127 163 Z " />
<glyph glyph-name="F" unicode="F" horiz-adv-x="1067" d="M112 163 L362 1228 L226 1228 L264 1391 L1262 1391 L1164 972 L999 972 L1059 1228 L564 1228 L464 803 L888 803 L850 640 L426 640 L315 163 L464 163 L426 0 L-51 0 L-13 163 L112 163 Z " />
<glyph glyph-name="G" unicode="G" horiz-adv-x="1599" d="M981 507 L1019 670 L1536 670 Q1459 322 1246 150 Q1033 -22 751 -22 Q470 -22 300.5 150 Q131 322 131 573 Q131 743 229 943.5 Q327 1144 541.5 1278.5 Q756 1413 1040 1413 Q1326 1413 1474 1256 L1506 1391 L1666 1391 L1578 1016 L1418 1016 Q1326 1248 1025 1248 Q741 1248 542 1046 Q343 844 343 563 Q343 362 461.5 256.5 Q580 151 765 151 Q941 151 1080.5 248 Q1220 345 1280 507 L981 507 Z " />
<glyph glyph-name="H" unicode="H" horiz-adv-x="1386" d="M125 163 L374 1228 L239 1228 L277 1391 L742 1391 L703 1228 L576 1228 L479 812 L1058 812 L1155 1228 L1020 1228 L1058 1391 L1493 1391 L1455 1228 L1357 1228 L1107 163 L1240 163 L1202 0 L742 0 L780 163 L905 163 L1020 649 L441 649 L327 163 L458 163 L419 0 L-34 0 L4 163 L125 163 Z " />
<glyph glyph-name="I" unicode="I" horiz-adv-x="598" d="M128 163 L378 1228 L262 1228 L300 1391 L722 1391 L684 1228 L579 1228 L330 163 L456 163 L418 0 L-20 0 L18 163 L128 163 Z " />
<glyph glyph-name="J" unicode="J" horiz-adv-x="598" d="M-267 -437 L-223 -250 Q-70 -250 1.5 -165.5 Q73 -81 130 163 L379 1228 L260 1228 L298 1391 L727 1391 L689 1228 L581 1228 L338 189 Q250 -186 112 -313.5 Q-26 -441 -267 -437 Z " />
<glyph glyph-name="K" unicode="K" horiz-adv-x="1217" d="M124 163 L374 1228 L243 1228 L281 1391 L747 1391 L709 1228 L576 1228 L326 163 L450 163 L412 0 L-34 0 L4 163 L124 163 Z M471 724 L1049 1228 L900 1228 L938 1391 L1414 1391 L1375 1228 L1283 1228 L697 714 L1035 163 L1155 163 L1116 0 L648 0 L686 163 L815 163 L471 724 Z " />
<glyph glyph-name="L" unicode="L" horiz-adv-x="1004" d="M125 163 L375 1228 L229 1228 L267 1391 L762 1391 L723 1228 L577 1228 L327 163 L786 163 L883 575 L1048 575 L913 0 L-51 0 L-13 163 L125 163 Z " />
<glyph glyph-name="M" unicode="M" horiz-adv-x="1706" d="M124 163 L374 1228 L247 1228 L285 1391 L702 1391 L831 427 L1412 1391 L1841 1391 L1803 1228 L1678 1228 L1428 163 L1567 163 L1529 0 L1095 0 L1133 163 L1263 163 L1507 1228 L756 -7 L715 -7 L545 1228 L291 163 L414 163 L374 0 L-32 0 L6 163 L124 163 Z " />
<glyph glyph-name="N" unicode="N" horiz-adv-x="1430" d="M128 163 L377 1228 L223 1228 L262 1391 L665 1391 L1026 286 L1247 1228 L1105 1228 L1143 1391 L1584 1391 L1546 1228 L1412 1228 L1121 -12 L922 -12 L534 1190 L293 163 L428 163 L389 0 L-46 0 L-8 163 L128 163 Z " />
<glyph glyph-name="O" unicode="O" horiz-adv-x="1599" d="M133 540 Q133 726 221.5 926.5 Q310 1127 507 1270 Q704 1413 972 1413 Q1250 1413 1405 1257 Q1560 1101 1560 850 Q1560 655 1462.5 453.5 Q1365 252 1173.5 115 Q982 -22 717 -22 Q421 -22 277 146 Q133 314 133 540 Z M345 531 Q345 385 440 267.5 Q535 150 726 150 Q910 150 1050 259 Q1190 368 1267.5 539.5 Q1345 711 1345 864 Q1345 1019 1243 1131.5 Q1141 1244 963 1244 Q788 1244 637.5 1132 Q487 1020 416 853 Q345 686 345 531 Z " />
<glyph glyph-name="P" unicode="P" horiz-adv-x="1110" d="M129 163 L379 1228 L245 1228 L283 1391 L658 1391 Q795 1391 867.5 1379.5 Q940 1368 1015 1320 Q1090 1272 1133.5 1188.5 Q1177 1105 1177 1004 Q1177 855 1099 735 Q1021 615 890.5 573 Q760 531 540 531 L417 531 L331 163 L490 163 L455 0 L-37 0 L1 163 L129 163 Z M455 693 L564 693 Q713 693 790.5 715.5 Q868 738 922.5 816.5 Q977 895 977 1009 Q977 1093 935.5 1146.5 Q894 1200 836.5 1214 Q779 1228 663 1228 L581 1228 L455 693 Z " />
<glyph glyph-name="Q" unicode="Q" horiz-adv-x="1599" d="M852 -12 Q883 -23 965 -54 Q1089 -102 1171 -102 Q1211 -102 1258 -95 L1136 -262 Q1100 -265 1081 -265 Q981 -265 811 -169 Q712 -112 650.5 -90 Q589 -68 518 -68 Q414 -68 343 -121 L298 -52 Q353 6 447 26 Q133 180 133 549 Q133 745 232 946 Q331 1147 520 1280 Q709 1413 972 1413 Q1261 1413 1410.5 1251.5 Q1560 1090 1560 850 Q1560 562 1367 301.5 Q1174 41 852 -12 Z M345 531 Q345 385 440 267.5 Q535 150 726 150 Q996 150 1170.5 382 Q1345 614 1345 864 Q1345 1019 1243 1131.5 Q1141 1244 962 1244 Q787 1244 637 1131.5 Q487 1019 416 852 Q345 685 345 531 Z " />
<glyph glyph-name="R" unicode="R" horiz-adv-x="1194" d="M125 163 L375 1228 L241 1228 L279 1391 L687 1391 Q860 1391 923.5 1383.5 Q987 1376 1055.5 1337 Q1124 1298 1162.5 1227 Q1201 1156 1201 1060 Q1201 905 1104 799.5 Q1007 694 830 669 L950 163 L1101 163 L1062 0 L795 0 L647 658 L443 658 L327 163 L458 163 L420 0 L-29 0 L9 163 L125 163 Z M481 821 L588 821 Q757 821 829.5 837 Q902 853 948.5 910 Q995 967 995 1051 Q995 1123 958.5 1166.5 Q922 1210 869.5 1219 Q817 1228 668 1228 L577 1228 L481 821 Z " />
<glyph glyph-name="S" unicode="S" horiz-adv-x="1067" d="M0 0 L89 382 L258 382 L229 257 Q335 137 491 137 Q599 137 672 199.5 Q745 262 745 352 Q745 431 696 489.5 Q647 548 504 644 Q353 747 293.5 835.5 Q234 924 234 1041 Q234 1208 350.5 1310.5 Q467 1413 649 1413 Q829 1413 943 1296 L964 1391 L1132 1391 L1044 1014 L876 1014 L901 1120 Q862 1181 790.5 1219 Q719 1257 643 1257 Q546 1257 481 1204 Q416 1151 416 1063 Q416 998 458 941.5 Q500 885 622 803 Q748 719 804.5 668.5 Q861 618 896 545.5 Q931 473 931 382 Q931 199 801.5 88.5 Q672 -22 469 -22 Q305 -22 186 74 L169 0 L0 0 Z " />
<glyph glyph-name="T" unicode="T" horiz-adv-x="1194" d="M415 163 L665 1228 L369 1228 L289 876 L120 876 L241 1391 L1369 1391 L1248 876 L1083 876 L1165 1228 L867 1228 L617 163 L747 163 L709 0 L253 0 L289 163 L415 163 Z " />
<glyph glyph-name="U" unicode="U" horiz-adv-x="1300" d="M274 1391 L722 1391 L683 1228 L562 1228 L395 515 Q361 371 361 326 Q361 238 427 188 Q493 138 588 138 Q696 138 761.5 181 Q827 224 862.5 302 Q898 380 934 532 L1097 1228 L975 1228 L1013 1391 L1454 1391 L1416 1228 L1299 1228 L1132 515 Q1082 303 1024 198.5 Q966 94 851 36 Q736 -22 576 -22 Q366 -22 264 70 Q162 162 162 304 Q162 382 199 538 L360 1228 L236 1228 L274 1391 Z " />
<glyph glyph-name="V" unicode="V" horiz-adv-x="1386" d="M374 -14 L314 1228 L158 1228 L196 1391 L667 1391 L629 1228 L507 1228 L553 310 L1190 1228 L1016 1228 L1054 1391 L1554 1391 L1515 1228 L1395 1228 L536 -14 L374 -14 Z " />
<glyph glyph-name="W" unicode="W" horiz-adv-x="2028" d="M328 -14 L302 1228 L151 1228 L189 1391 L664 1391 L625 1228 L493 1228 L513 345 L1031 1228 L874 1228 L912 1391 L1467 1391 L1429 1228 L1299 1228 L1318 345 L1833 1228 L1696 1228 L1734 1391 L2161 1391 L2122 1228 L2026 1228 L1308 -14 L1136 -14 L1111 1032 L505 -14 L328 -14 Z " />
<glyph glyph-name="X" unicode="X" horiz-adv-x="1300" d="M588 718 L404 1228 L266 1228 L304 1391 L731 1391 L693 1228 L588 1228 L719 857 L1073 1228 L931 1228 L969 1391 L1405 1391 L1367 1228 L1274 1228 L778 704 L980 163 L1098 163 L1059 0 L624 0 L663 163 L795 163 L648 564 L269 163 L403 163 L365 0 L-69 0 L-31 163 L62 163 L588 718 Z " />
<glyph glyph-name="Y" unicode="Y" horiz-adv-x="1174" d="M488 626 L279 1228 L134 1228 L172 1391 L631 1391 L592 1228 L462 1228 L624 769 L1049 1228 L881 1228 L920 1391 L1400 1391 L1362 1228 L1246 1228 L690 626 L581 163 L722 163 L684 0 L207 0 L246 163 L379 163 L488 626 Z " />
<glyph glyph-name="Z" unicode="Z" horiz-adv-x="1153" d="M-18 0 L21 163 L926 1228 L465 1228 L405 972 L239 972 L337 1391 L1215 1391 L1177 1228 L269 163 L790 163 L856 443 L1021 443 L917 0 L-18 0 Z " />
<glyph glyph-name="bracketleft" unicode="&#x5b;" horiz-adv-x="641" d="M395 -273 L361 -409 L-63 -409 L361 1391 L785 1391 L753 1255 L507 1255 L149 -273 L395 -273 Z " />
<glyph glyph-name="backslash" unicode="&#x5c;" horiz-adv-x="897" d="M377 1415 L755 -22 L602 -22 L224 1415 L377 1415 Z " />
<glyph glyph-name="bracketright" unicode="&#x5d;" horiz-adv-x="641" d="M-120 -273 L126 -273 L484 1255 L238 1255 L272 1391 L696 1391 L272 -409 L-152 -409 L-120 -273 Z " />
<glyph glyph-name="asciicircum" unicode="&#x5e;" horiz-adv-x="874" d="M240 590 L55 590 L408 1391 L553 1391 L908 590 L727 590 L480 1187 L240 590 Z " />
<glyph glyph-name="underscore" unicode="&#x5f;" horiz-adv-x="1024" d="M-52 -154 L996 -154 L996 -256 L-52 -256 L-52 -154 Z " />
<glyph glyph-name="grave" unicode="&#x60;" horiz-adv-x="682" d="M670 1125 L530 1125 L150 1411 L507 1411 L670 1125 Z " />
<glyph glyph-name="a" unicode="a" horiz-adv-x="1087" d="M846 163 L967 163 L932 0 L637 0 L668 135 Q529 -16 355 -16 Q242 -16 152.5 61 Q63 138 63 266 Q63 412 181 507.5 Q299 603 473 603 Q608 603 743 532 L768 640 Q781 696 781 720 Q781 783 731 816.5 Q681 850 609 850 Q467 850 371 712 L219 781 Q278 872 392 933.5 Q506 995 641 995 Q793 995 877 929 Q961 863 961 758 Q961 693 939 593 L846 163 Z M714 400 L671 420 Q571 464 487 464 Q377 464 310 407.5 Q243 351 243 272 Q243 205 289.5 166.5 Q336 128 412 128 Q530 128 678 255 L714 400 Z " />
<glyph glyph-name="b" unicode="b" horiz-adv-x="1260" d="M121 163 L371 1228 L235 1228 L274 1391 L590 1391 L464 852 Q608 995 795 995 Q963 995 1072.5 882 Q1182 769 1182 581 Q1182 330 1029 157 Q876 -16 644 -16 Q432 -16 302 163 L264 0 L-27 0 L11 163 L121 163 Z M370 403 Q370 281 439.5 211.5 Q509 142 618 142 Q780 142 889.5 272 Q999 402 999 570 Q999 696 928 763.5 Q857 831 747 831 Q584 831 477 694 Q370 557 370 403 Z " />
<glyph glyph-name="c" unicode="c" horiz-adv-x="1024" d="M767 293 L900 196 Q732 -28 474 -28 Q291 -28 176.5 88 Q62 204 62 373 Q62 610 221 802.5 Q380 995 598 995 Q766 995 866 886 L886 968 L1046 968 L977 677 L817 677 Q801 758 739.5 801 Q678 844 601 844 Q461 844 359 708.5 Q257 573 257 394 Q257 273 320 198.5 Q383 124 500 124 Q649 124 767 293 Z " />
<glyph glyph-name="d" unicode="d" horiz-adv-x="1237" d="M974 163 L1109 163 L1070 0 L755 0 L783 119 Q645 -16 459 -16 Q280 -16 174 105.5 Q68 227 68 416 Q68 645 228.5 820 Q389 995 603 995 Q810 995 948 822 L1044 1228 L893 1228 L931 1391 L1262 1391 L974 163 Z M255 419 Q255 296 324.5 220.5 Q394 145 507 145 Q659 145 769.5 275.5 Q880 406 880 579 Q880 705 803.5 769.5 Q727 834 622 834 Q472 834 363.5 705 Q255 576 255 419 Z " />
<glyph glyph-name="e" unicode="e" horiz-adv-x="1130" d="M1044 440 L284 440 Q277 411 277 385 Q277 265 346 198 Q415 131 519 131 Q664 131 765 269 L954 188 Q897 93 777 32.5 Q657 -28 521 -28 Q312 -28 196 93 Q80 214 80 403 Q80 554 156.5 689 Q233 824 361 909.5 Q489 995 641 995 Q825 995 941.5 874.5 Q1058 754 1058 560 Q1058 497 1044 440 Z M873 576 Q876 607 876 626 Q876 706 812.5 771.5 Q749 837 644 837 Q537 837 450.5 766.5 Q364 696 320 576 L873 576 Z " />
<glyph glyph-name="f" unicode="f" horiz-adv-x="575" d="M302 163 L441 163 L403 0 L-25 0 L13 163 L121 163 L271 805 L128 805 L167 967 L310 967 L326 1036 Q374 1242 453 1328.5 Q532 1415 653 1415 Q750 1415 848 1353 L775 1228 Q718 1265 671 1265 Q610 1265 574.5 1219 Q539 1173 501 1013 L490 967 L617 967 L579 805 L452 805 L302 163 Z " />
<glyph glyph-name="g" unicode="g" horiz-adv-x="1237" d="M992 968 L1308 968 L1269 805 L1135 805 L973 112 Q924 -97 866 -207.5 Q808 -318 692 -387 Q576 -456 397 -456 Q118 -456 -30 -293 L67 -158 Q212 -310 407 -310 Q564 -310 652 -213 Q740 -116 792 112 Q646 -28 469 -28 Q295 -28 184.5 92 Q74 212 74 403 Q74 623 234.5 803 Q395 983 614 983 Q829 983 954 805 L992 968 Z M261 410 Q261 289 330 211.5 Q399 134 514 134 Q681 134 786 276 Q891 418 891 576 Q891 673 822 747.5 Q753 822 634 822 Q476 822 368.5 697 Q261 572 261 410 Z " />
<glyph glyph-name="h" unicode="h" horiz-adv-x="1130" d="M875 163 L1019 163 L981 0 L655 0 L782 537 Q815 681 815 712 Q815 812 711 812 Q613 812 420 682 L298 163 L442 163 L404 0 L-37 0 L1 163 L117 163 L367 1228 L239 1228 L277 1391 L586 1391 L460 854 Q644 983 777 983 Q885 983 942.5 914 Q1000 845 1000 759 Q1000 694 959 520 L875 163 Z " />
<glyph glyph-name="i" unicode="i" horiz-adv-x="575" d="M376 1301 Q376 1348 409 1381.5 Q442 1415 488 1415 Q536 1415 568 1381 Q600 1347 600 1301 Q600 1254 567.5 1220.5 Q535 1187 488 1187 Q443 1187 409.5 1220.5 Q376 1254 376 1301 Z M139 163 L290 805 L157 805 L195 968 L509 968 L320 163 L461 163 L423 0 L-6 0 L32 163 L139 163 Z " />
<glyph glyph-name="j" unicode="j" horiz-adv-x="575" d="M370 1301 Q370 1348 402.5 1381.5 Q435 1415 482 1415 Q529 1415 561.5 1381.5 Q594 1348 594 1301 Q594 1254 561 1220.5 Q528 1187 482 1187 Q435 1187 402.5 1221 Q370 1255 370 1301 Z M200 968 L514 968 L319 134 Q257 -130 218.5 -223.5 Q180 -317 101 -371 Q22 -425 -98 -425 Q-148 -425 -192 -413 L-157 -264 L-139 -266 Q-122 -267 -114 -267 Q-51 -267 0 -225.5 Q51 -184 72.5 -118.5 Q94 -53 143 155 L295 805 L162 805 L200 968 Z " />
<glyph glyph-name="k" unicode="k" horiz-adv-x="1067" d="M127 163 L377 1228 L237 1228 L276 1391 L594 1391 L388 516 L812 823 L659 823 L693 968 L1177 968 L1143 823 L1046 823 L594 493 L812 163 L968 163 L930 0 L712 0 L388 493 L308 163 L456 163 L417 0 L-26 0 L12 163 L127 163 Z " />
<glyph glyph-name="l" unicode="l" horiz-adv-x="575" d="M132 163 L382 1228 L252 1228 L290 1391 L601 1391 L313 163 L445 163 L406 0 L-17 0 L21 163 L132 163 Z " />
<glyph glyph-name="m" unicode="m" horiz-adv-x="1729" d="M198 968 L505 968 L477 850 Q666 983 808 983 Q884 983 941 938 Q998 893 1019 822 Q1221 983 1378 983 Q1490 983 1547.5 912.5 Q1605 842 1605 760 Q1605 696 1573 561 L1480 163 L1623 163 L1585 0 L1261 0 L1397 583 Q1418 671 1418 709 Q1418 812 1317 812 Q1209 812 1019 679 L899 163 L1045 163 L1007 0 L680 0 L819 594 Q840 681 840 709 Q840 754 810 782.5 Q780 811 740 811 Q634 811 437 679 L316 163 L461 163 L422 0 L-16 0 L22 163 L135 163 L285 805 L160 805 L198 968 Z " />
<glyph glyph-name="n" unicode="n" horiz-adv-x="1130" d="M187 968 L495 968 L469 855 Q650 983 784 983 Q891 983 948.5 913 Q1006 843 1006 763 Q1006 696 979 581 L881 163 L1024 163 L985 0 L662 0 L801 593 Q823 688 823 712 Q823 756 794 784.5 Q765 813 723 813 Q612 813 429 685 L306 163 L451 163 L413 0 L-28 0 L10 163 L125 163 L276 805 L149 805 L187 968 Z " />
<glyph glyph-name="o" unicode="o" horiz-adv-x="1153" d="M70 390 Q70 539 140 676.5 Q210 814 349.5 904.5 Q489 995 663 995 Q865 995 974 877 Q1083 759 1083 579 Q1083 437 1013.5 288 Q944 139 800 55.5 Q656 -28 495 -28 Q309 -28 189.5 82.5 Q70 193 70 390 Z M272 408 Q272 146 515 146 Q685 146 788 276.5 Q891 407 891 578 Q891 688 820.5 754.5 Q750 821 634 821 Q470 821 371 695 Q272 569 272 408 Z " />
<glyph glyph-name="p" unicode="p" horiz-adv-x="1237" d="M182 -274 L334 -274 L295 -437 L-153 -437 L-115 -274 L1 -274 L254 805 L115 805 L153 968 L473 968 L445 845 Q593 983 771 983 Q936 983 1047.5 862 Q1159 741 1159 548 Q1159 317 1003.5 144.5 Q848 -28 624 -28 Q409 -28 279 140 L182 -274 Z M345 391 Q345 268 416.5 199 Q488 130 598 130 Q762 130 867 257.5 Q972 385 972 553 Q972 679 900.5 748.5 Q829 818 717 818 Q555 818 450 680 Q345 542 345 391 Z " />
<glyph glyph-name="q" unicode="q" horiz-adv-x="1237" d="M879 -274 L1003 -274 L965 -437 L536 -437 L574 -274 L698 -274 L789 113 Q648 -28 460 -28 Q289 -28 176 91.5 Q63 211 63 404 Q63 633 228.5 808 Q394 983 604 983 Q815 983 951 805 L989 968 L1294 968 L1256 805 L1132 805 L879 -274 Z M257 399 Q257 277 325.5 204 Q394 131 506 131 Q665 131 774 269.5 Q883 408 883 575 Q883 681 809.5 750.5 Q736 820 625 820 Q476 820 366.5 697.5 Q257 575 257 399 Z " />
<glyph glyph-name="r" unicode="r" horiz-adv-x="811" d="M307 163 L467 163 L428 0 L-41 0 L-3 163 L124 163 L273 805 L123 805 L163 968 L477 968 L413 694 Q504 846 607.5 914.5 Q711 983 851 983 L894 983 L852 805 Q825 808 806 808 Q679 808 586 749.5 Q493 691 438 591 Q383 491 347 337 L307 163 Z " />
<glyph glyph-name="s" unicode="s" horiz-adv-x="874" d="M20 270 L184 270 Q184 202 244 165 Q304 128 401 128 Q490 128 538.5 164 Q587 200 587 252 Q587 301 545 337.5 Q503 374 397 415 Q290 457 235 490 Q180 523 144 581 Q108 639 108 704 Q108 816 201 899.5 Q294 983 457 983 Q609 983 707 899 L727 968 L888 968 L825 699 L663 699 Q661 773 596 804 Q531 835 454 835 Q374 835 328.5 803 Q283 771 283 723 Q283 684 310 658.5 Q337 633 413 604 Q629 521 698 446 Q767 371 767 265 Q767 139 669.5 61.5 Q572 -16 383 -16 Q207 -16 134 63 L120 0 L-44 0 L20 270 Z " />
<glyph glyph-name="t" unicode="t" horiz-adv-x="598" d="M472 968 L609 968 L571 805 L434 805 L327 349 Q298 225 298 195 Q298 127 370 127 Q420 127 521 183 L482 17 Q390 -28 303 -28 Q221 -28 170 25 Q119 78 119 174 Q119 239 173 462 L253 805 L143 805 L181 968 L291 968 L337 1160 L558 1332 L472 968 Z " />
<glyph glyph-name="u" unicode="u" horiz-adv-x="1130" d="M859 163 L981 163 L943 0 L639 0 L666 112 Q487 -16 348 -16 Q244 -16 183 52 Q122 120 122 198 Q122 257 155 396 L250 805 L130 805 L169 968 L470 968 L346 443 Q309 284 309 247 Q309 204 338.5 177 Q368 150 412 150 Q518 150 708 291 L828 805 L684 805 L722 968 L1047 968 L859 163 Z " />
<glyph glyph-name="v" unicode="v" horiz-adv-x="981" d="M246 -16 L195 805 L83 805 L121 968 L500 968 L462 805 L367 805 L401 226 L792 805 L664 805 L702 968 L1091 968 L1052 805 L967 805 L409 -16 L246 -16 Z " />
<glyph glyph-name="w" unicode="w" horiz-adv-x="1516" d="M226 -16 L196 805 L82 805 L120 968 L477 968 L439 805 L351 805 L373 235 L738 805 L615 805 L653 968 L1077 968 L1038 805 L934 805 L955 235 L1323 805 L1207 805 L1245 968 L1606 968 L1568 805 L1488 805 L968 -16 L810 -16 L787 623 L381 -16 L226 -16 Z " />
<glyph glyph-name="x" unicode="x" horiz-adv-x="1044" d="M436 505 L267 811 L167 811 L205 968 L569 968 L530 823 L436 823 L556 608 L803 823 L680 823 L718 968 L1117 968 L1079 811 L998 811 L623 484 L803 157 L889 157 L851 0 L487 0 L525 145 L634 145 L506 378 L243 145 L376 145 L337 0 L-74 0 L-36 157 L50 157 L436 505 Z " />
<glyph glyph-name="y" unicode="y" horiz-adv-x="1044" d="M81 -274 L273 6 L228 805 L117 805 L156 968 L536 968 L498 805 L397 805 L431 237 L824 805 L691 805 L729 968 L1125 968 L1087 805 L996 805 L146 -437 L-141 -437 L-103 -274 L81 -274 Z " />
<glyph glyph-name="z" unicode="z" horiz-adv-x="854" d="M-53 0 L-15 163 L650 825 L320 825 L272 623 L117 623 L197 968 L900 968 L862 802 L197 147 L561 147 L610 355 L764 355 L680 0 L-53 0 Z " />
<glyph glyph-name="braceleft" unicode="&#x7b;" horiz-adv-x="682" d="M100 556 Q172 558 220 592 Q268 626 287.5 691 Q307 756 307 924 Q307 1139 331 1223 Q355 1307 423 1349 Q491 1391 623 1391 L679 1391 L679 1242 L648 1242 Q548 1242 512 1208.5 Q476 1175 476 1049 Q476 827 466 738 Q456 649 411 586 Q366 523 267 478 Q372 438 424 348.5 Q476 259 476 55 Q476 -133 481.5 -183 Q487 -233 519.5 -259 Q552 -285 648 -285 L679 -285 L679 -434 L623 -434 Q525 -434 469 -415 Q413 -396 371.5 -343.5 Q330 -291 318.5 -213.5 Q307 -136 307 33 Q307 201 287.5 266 Q268 331 219.5 365 Q171 399 100 401 L100 556 Z " />
<glyph glyph-name="bar" unicode="&#x7c;" horiz-adv-x="1079" d="M507 1415 L664 1415 L664 -456 L507 -456 L507 1415 Z " />
<glyph glyph-name="braceright" unicode="&#x7d;" horiz-adv-x="682" d="M666 401 Q594 399 546 365 Q498 331 478.5 265.5 Q459 200 459 33 Q459 -182 435 -266.5 Q411 -351 343 -392.5 Q275 -434 143 -434 L87 -434 L87 -286 L118 -286 Q218 -286 254 -252.5 Q290 -219 290 -93 Q290 130 300 219 Q310 308 355 370.5 Q400 433 499 478 Q394 518 342 608 Q290 698 290 901 Q290 1089 284 1139.5 Q278 1190 245.5 1216 Q213 1242 118 1242 L87 1242 L87 1391 L143 1391 Q241 1391 297 1372 Q353 1353 394.5 1300.5 Q436 1248 447.5 1170.5 Q459 1093 459 924 Q459 756 478 691 Q497 626 546 591.5 Q595 557 666 556 L666 401 Z " />
<glyph glyph-name="asciitilde" unicode="&#x7e;" horiz-adv-x="1194" d="M1191 668 Q1036 540 898 540 Q835 540 776.5 558.5 Q718 577 586 638 Q459 698 393 698 Q258 698 95 558 L95 727 Q252 855 400 855 Q493 855 693 761 Q829 698 897 698 Q1026 698 1191 837 L1191 668 Z " />
<glyph glyph-name="Adieresis" unicode="&#xc4;" horiz-adv-x="1323" d="M917 487 L429 487 L257 163 L408 163 L370 0 L-125 0 L-87 163 L41 163 L641 1228 L487 1228 L525 1391 L1204 1391 L1166 1228 L1022 1228 L1146 163 L1275 163 L1237 0 L745 0 L784 163 L948 163 L917 487 Z M902 650 L850 1228 L816 1228 L517 650 L902 650 Z M983 1611 Q983 1658 1016 1691 Q1049 1724 1095 1724 Q1143 1724 1175 1690.5 Q1207 1657 1207 1612 Q1207 1566 1174.5 1532.5 Q1142 1499 1095 1499 Q1049 1499 1016 1532 Q983 1565 983 1611 Z M567 1612 Q567 1656 598.5 1690 Q630 1724 679 1724 Q726 1724 758.5 1691 Q791 1658 791 1612 Q791 1565 758 1532 Q725 1499 679 1499 Q631 1499 599 1532.5 Q567 1566 567 1612 Z " />
<glyph glyph-name="Aring" unicode="&#xc5;" horiz-adv-x="1323" d="M803 1391 Q671 1452 671 1592 Q671 1682 735.5 1747 Q800 1812 890 1812 Q982 1812 1046 1747.5 Q1110 1683 1110 1593 Q1110 1453 978 1391 L1204 1391 L1166 1228 L1022 1228 L1146 163 L1275 163 L1237 0 L745 0 L784 163 L948 163 L917 487 L429 487 L257 163 L408 163 L370 0 L-125 0 L-87 163 L41 163 L641 1228 L487 1228 L525 1391 L803 1391 Z M770 1592 Q770 1543 805 1507.5 Q840 1472 891 1472 Q940 1472 975.5 1507 Q1011 1542 1011 1593 Q1011 1642 976 1677.5 Q941 1713 891 1713 Q841 1713 805.5 1677.5 Q770 1642 770 1592 Z M902 650 L850 1228 L816 1228 L517 650 L902 650 Z " />
<glyph glyph-name="Ccedilla" unicode="&#xc7;" horiz-adv-x="1473" d="M717 -22 L687 -79 Q770 -86 812.5 -129 Q855 -172 855 -227 Q855 -323 766 -393 Q677 -463 506 -463 Q417 -463 322 -447 L372 -334 Q429 -339 473 -339 Q550 -339 594 -315 Q638 -291 638 -256 Q638 -223 606 -206 Q574 -189 535 -189 Q526 -189 510 -190 L603 -12 Q376 24 249.5 189 Q123 354 123 576 Q123 776 229 967.5 Q335 1159 537 1286 Q739 1413 1007 1413 Q1264 1413 1408 1272 L1436 1391 L1600 1391 L1511 1008 L1347 1008 Q1294 1244 991 1244 Q807 1244 656 1145 Q505 1046 419.5 880.5 Q334 715 334 550 Q334 377 449 261 Q564 145 741 145 Q1002 145 1230 413 L1363 293 Q1111 -22 717 -22 Z " />
<glyph glyph-name="Eacute" unicode="&#xc9;" horiz-adv-x="1174" d="M127 163 L376 1228 L244 1228 L282 1391 L1285 1391 L1187 972 L1022 972 L1082 1228 L578 1228 L478 801 L911 801 L875 638 L440 638 L329 163 L846 163 L911 429 L1074 429 L974 0 L-38 0 L0 163 L127 163 Z M701 1516 L866 1802 L1223 1802 L841 1516 L701 1516 Z " />
<glyph glyph-name="Ntilde" unicode="&#xd1;" horiz-adv-x="1430" d="M128 163 L377 1228 L223 1228 L262 1391 L665 1391 L1026 286 L1247 1228 L1105 1228 L1143 1391 L1584 1391 L1546 1228 L1412 1228 L1121 -12 L922 -12 L534 1190 L293 163 L428 163 L389 0 L-46 0 L-8 163 L128 163 Z M1172 1765 L1285 1765 Q1286 1740 1286 1723 Q1286 1614 1237.5 1547 Q1189 1480 1108 1480 Q1039 1480 891 1573 Q841 1605 812 1605 Q744 1605 740 1495 L624 1495 Q624 1638 680 1702 Q736 1766 815 1766 Q873 1766 990 1696 Q1081 1641 1107 1641 Q1169 1641 1172 1765 Z " />
<glyph glyph-name="Odieresis" unicode="&#xd6;" horiz-adv-x="1599" d="M133 540 Q133 726 221.5 926.5 Q310 1127 507 1270 Q704 1413 972 1413 Q1250 1413 1405 1257 Q1560 1101 1560 850 Q1560 655 1462.5 453.5 Q1365 252 1173.5 115 Q982 -22 717 -22 Q421 -22 277 146 Q133 314 133 540 Z M345 531 Q345 385 440 267.5 Q535 150 726 150 Q910 150 1050 259 Q1190 368 1267.5 539.5 Q1345 711 1345 864 Q1345 1019 1243 1131.5 Q1141 1244 963 1244 Q788 1244 637.5 1132 Q487 1020 416 853 Q345 686 345 531 Z M1121 1611 Q1121 1658 1154 1691 Q1187 1724 1233 1724 Q1281 1724 1313 1690.5 Q1345 1657 1345 1612 Q1345 1566 1312.5 1532.5 Q1280 1499 1233 1499 Q1187 1499 1154 1532 Q1121 1565 1121 1611 Z M705 1612 Q705 1656 736.5 1690 Q768 1724 817 1724 Q864 1724 896.5 1691 Q929 1658 929 1612 Q929 1565 896 1532 Q863 1499 817 1499 Q769 1499 737 1532.5 Q705 1566 705 1612 Z " />
<glyph glyph-name="Udieresis" unicode="&#xdc;" horiz-adv-x="1300" d="M274 1391 L722 1391 L683 1228 L562 1228 L395 515 Q361 371 361 326 Q361 238 427 188 Q493 138 588 138 Q696 138 761.5 181 Q827 224 862.5 302 Q898 380 934 532 L1097 1228 L975 1228 L1013 1391 L1454 1391 L1416 1228 L1299 1228 L1132 515 Q1082 303 1024 198.5 Q966 94 851 36 Q736 -22 576 -22 Q366 -22 264 70 Q162 162 162 304 Q162 382 199 538 L360 1228 L236 1228 L274 1391 Z M996 1611 Q996 1658 1029 1691 Q1062 1724 1108 1724 Q1156 1724 1188 1690.5 Q1220 1657 1220 1612 Q1220 1566 1187.5 1532.5 Q1155 1499 1108 1499 Q1062 1499 1029 1532 Q996 1565 996 1611 Z M580 1612 Q580 1656 611.5 1690 Q643 1724 692 1724 Q739 1724 771.5 1691 Q804 1658 804 1612 Q804 1565 771 1532 Q738 1499 692 1499 Q644 1499 612 1532.5 Q580 1566 580 1612 Z " />
<glyph glyph-name="aacute" unicode="&#xe1;" horiz-adv-x="1087" d="M846 163 L967 163 L932 0 L637 0 L668 135 Q529 -16 355 -16 Q242 -16 152.5 61 Q63 138 63 266 Q63 412 181 507.5 Q299 603 473 603 Q608 603 743 532 L768 640 Q781 696 781 720 Q781 783 731 816.5 Q681 850 609 850 Q467 850 371 712 L219 781 Q278 872 392 933.5 Q506 995 641 995 Q793 995 877 929 Q961 863 961 758 Q961 693 939 593 L846 163 Z M714 400 L671 420 Q571 464 487 464 Q377 464 310 407.5 Q243 351 243 272 Q243 205 289.5 166.5 Q336 128 412 128 Q530 128 678 255 L714 400 Z M587 1125 L752 1411 L1109 1411 L727 1125 L587 1125 Z " />
<glyph glyph-name="agrave" unicode="&#xe0;" horiz-adv-x="1087" d="M846 163 L967 163 L932 0 L637 0 L668 135 Q529 -16 355 -16 Q242 -16 152.5 61 Q63 138 63 266 Q63 412 181 507.5 Q299 603 473 603 Q608 603 743 532 L768 640 Q781 696 781 720 Q781 783 731 816.5 Q681 850 609 850 Q467 850 371 712 L219 781 Q278 872 392 933.5 Q506 995 641 995 Q793 995 877 929 Q961 863 961 758 Q961 693 939 593 L846 163 Z M714 400 L671 420 Q571 464 487 464 Q377 464 310 407.5 Q243 351 243 272 Q243 205 289.5 166.5 Q336 128 412 128 Q530 128 678 255 L714 400 Z M899 1125 L759 1125 L379 1411 L736 1411 L899 1125 Z " />
<glyph glyph-name="acircumflex" unicode="&#xe2;" horiz-adv-x="1087" d="M846 163 L967 163 L932 0 L637 0 L668 135 Q529 -16 355 -16 Q242 -16 152.5 61 Q63 138 63 266 Q63 412 181 507.5 Q299 603 473 603 Q608 603 743 532 L768 640 Q781 696 781 720 Q781 783 731 816.5 Q681 850 609 850 Q467 850 371 712 L219 781 Q278 872 392 933.5 Q506 995 641 995 Q793 995 877 929 Q961 863 961 758 Q961 693 939 593 L846 163 Z M714 400 L671 420 Q571 464 487 464 Q377 464 310 407.5 Q243 351 243 272 Q243 205 289.5 166.5 Q336 128 412 128 Q530 128 678 255 L714 400 Z M378 1105 L623 1411 L885 1411 L982 1105 L845 1105 L723 1264 L516 1105 L378 1105 Z " />
<glyph glyph-name="adieresis" unicode="&#xe4;" horiz-adv-x="1087" d="M846 163 L967 163 L932 0 L637 0 L668 135 Q529 -16 355 -16 Q242 -16 152.5 61 Q63 138 63 266 Q63 412 181 507.5 Q299 603 473 603 Q608 603 743 532 L768 640 Q781 696 781 720 Q781 783 731 816.5 Q681 850 609 850 Q467 850 371 712 L219 781 Q278 872 392 933.5 Q506 995 641 995 Q793 995 877 929 Q961 863 961 758 Q961 693 939 593 L846 163 Z M714 400 L671 420 Q571 464 487 464 Q377 464 310 407.5 Q243 351 243 272 Q243 205 289.5 166.5 Q336 128 412 128 Q530 128 678 255 L714 400 Z M811 1254 Q811 1301 844 1334 Q877 1367 923 1367 Q971 1367 1003 1333.5 Q1035 1300 1035 1255 Q1035 1209 1002.5 1175.5 Q970 1142 923 1142 Q877 1142 844 1175 Q811 1208 811 1254 Z M395 1255 Q395 1299 426.5 1333 Q458 1367 507 1367 Q554 1367 586.5 1334 Q619 1301 619 1255 Q619 1208 586 1175 Q553 1142 507 1142 Q459 1142 427 1175.5 Q395 1209 395 1255 Z " />
<glyph glyph-name="atilde" unicode="&#xe3;" horiz-adv-x="1087" d="M846 163 L967 163 L932 0 L637 0 L668 135 Q529 -16 355 -16 Q242 -16 152.5 61 Q63 138 63 266 Q63 412 181 507.5 Q299 603 473 603 Q608 603 743 532 L768 640 Q781 696 781 720 Q781 783 731 816.5 Q681 850 609 850 Q467 850 371 712 L219 781 Q278 872 392 933.5 Q506 995 641 995 Q793 995 877 929 Q961 863 961 758 Q961 693 939 593 L846 163 Z M714 400 L671 420 Q571 464 487 464 Q377 464 310 407.5 Q243 351 243 272 Q243 205 289.5 166.5 Q336 128 412 128 Q530 128 678 255 L714 400 Z M907 1397 L1020 1397 Q1021 1372 1021 1355 Q1021 1246 972.5 1179 Q924 1112 843 1112 Q774 1112 626 1205 Q576 1237 547 1237 Q479 1237 475 1127 L359 1127 Q359 1270 415 1334 Q471 1398 550 1398 Q608 1398 725 1328 Q816 1273 842 1273 Q904 1273 907 1397 Z " />
<glyph glyph-name="aring" unicode="&#xe5;" horiz-adv-x="1087" d="M846 163 L967 163 L932 0 L637 0 L668 135 Q529 -16 355 -16 Q242 -16 152.5 61 Q63 138 63 266 Q63 412 181 507.5 Q299 603 473 603 Q608 603 743 532 L768 640 Q781 696 781 720 Q781 783 731 816.5 Q681 850 609 850 Q467 850 371 712 L219 781 Q278 872 392 933.5 Q506 995 641 995 Q793 995 877 929 Q961 863 961 758 Q961 693 939 593 L846 163 Z M714 400 L671 420 Q571 464 487 464 Q377 464 310 407.5 Q243 351 243 272 Q243 205 289.5 166.5 Q336 128 412 128 Q530 128 678 255 L714 400 Z M541 1254 Q541 1336 599.5 1395 Q658 1454 740 1454 Q822 1454 880.5 1395.5 Q939 1337 939 1255 Q939 1172 880.5 1114 Q822 1056 740 1056 Q658 1056 599.5 1114 Q541 1172 541 1254 Z M619 1254 Q619 1205 655 1169.5 Q691 1134 740 1134 Q789 1134 825 1169 Q861 1204 861 1255 Q861 1305 825.5 1340 Q790 1375 740 1375 Q688 1375 653.5 1339 Q619 1303 619 1254 Z " />
<glyph glyph-name="ccedilla" unicode="&#xe7;" horiz-adv-x="1024" d="M456 -27 L425 -97 Q493 -104 530.5 -143.5 Q568 -183 568 -238 Q568 -331 479 -387 Q390 -443 248 -443 Q182 -443 93 -429 L126 -342 Q169 -347 208 -347 Q295 -347 341.5 -322 Q388 -297 388 -254 Q388 -223 363 -205 Q338 -187 305 -187 L280 -187 L359 -14 Q228 18 145 124.5 Q62 231 62 373 Q62 610 221 802.5 Q380 995 598 995 Q762 995 866 886 L886 968 L1046 968 L977 677 L817 677 Q801 758 739.5 801 Q678 844 601 844 Q461 844 359 708.5 Q257 573 257 394 Q257 273 320 198.5 Q383 124 500 124 Q649 124 767 293 L900 196 Q815 83 698.5 25 Q582 -33 456 -27 Z " />
<glyph glyph-name="eacute" unicode="&#xe9;" horiz-adv-x="1130" d="M1044 440 L284 440 Q277 411 277 385 Q277 265 346 198 Q415 131 519 131 Q664 131 765 269 L954 188 Q897 93 777 32.5 Q657 -28 521 -28 Q312 -28 196 93 Q80 214 80 403 Q80 554 156.5 689 Q233 824 361 909.5 Q489 995 641 995 Q825 995 941.5 874.5 Q1058 754 1058 560 Q1058 497 1044 440 Z M873 576 Q876 607 876 626 Q876 706 812.5 771.5 Q749 837 644 837 Q537 837 450.5 766.5 Q364 696 320 576 L873 576 Z M531 1125 L696 1411 L1053 1411 L671 1125 L531 1125 Z " />
<glyph glyph-name="egrave" unicode="&#xe8;" horiz-adv-x="1130" d="M1044 440 L284 440 Q277 411 277 385 Q277 265 346 198 Q415 131 519 131 Q664 131 765 269 L954 188 Q897 93 777 32.5 Q657 -28 521 -28 Q312 -28 196 93 Q80 214 80 403 Q80 554 156.5 689 Q233 824 361 909.5 Q489 995 641 995 Q825 995 941.5 874.5 Q1058 754 1058 560 Q1058 497 1044 440 Z M873 576 Q876 607 876 626 Q876 706 812.5 771.5 Q749 837 644 837 Q537 837 450.5 766.5 Q364 696 320 576 L873 576 Z M925 1125 L785 1125 L405 1411 L762 1411 L925 1125 Z " />
<glyph glyph-name="ecircumflex" unicode="&#xea;" horiz-adv-x="1130" d="M1044 440 L284 440 Q277 411 277 385 Q277 265 346 198 Q415 131 519 131 Q664 131 765 269 L954 188 Q897 93 777 32.5 Q657 -28 521 -28 Q312 -28 196 93 Q80 214 80 403 Q80 554 156.5 689 Q233 824 361 909.5 Q489 995 641 995 Q825 995 941.5 874.5 Q1058 754 1058 560 Q1058 497 1044 440 Z M873 576 Q876 607 876 626 Q876 706 812.5 771.5 Q749 837 644 837 Q537 837 450.5 766.5 Q364 696 320 576 L873 576 Z M387 1105 L632 1411 L894 1411 L991 1105 L854 1105 L732 1264 L525 1105 L387 1105 Z " />
<glyph glyph-name="edieresis" unicode="&#xeb;" horiz-adv-x="1130" d="M1044 440 L284 440 Q277 411 277 385 Q277 265 346 198 Q415 131 519 131 Q664 131 765 269 L954 188 Q897 93 777 32.5 Q657 -28 521 -28 Q312 -28 196 93 Q80 214 80 403 Q80 554 156.5 689 Q233 824 361 909.5 Q489 995 641 995 Q825 995 941.5 874.5 Q1058 754 1058 560 Q1058 497 1044 440 Z M873 576 Q876 607 876 626 Q876 706 812.5 771.5 Q749 837 644 837 Q537 837 450.5 766.5 Q364 696 320 576 L873 576 Z M820 1254 Q820 1301 853 1334 Q886 1367 932 1367 Q980 1367 1012 1333.5 Q1044 1300 1044 1255 Q1044 1209 1011.5 1175.5 Q979 1142 932 1142 Q886 1142 853 1175 Q820 1208 820 1254 Z M404 1255 Q404 1299 435.5 1333 Q467 1367 516 1367 Q563 1367 595.5 1334 Q628 1301 628 1255 Q628 1208 595 1175 Q562 1142 516 1142 Q468 1142 436 1175.5 Q404 1209 404 1255 Z " />
<glyph glyph-name="iacute" unicode="&#xed;" horiz-adv-x="575" d="M139 163 L290 805 L157 805 L195 968 L509 968 L320 163 L461 163 L423 0 L-6 0 L32 163 L139 163 Z M253 1125 L418 1411 L775 1411 L393 1125 L253 1125 Z " />
<glyph glyph-name="igrave" unicode="&#xec;" horiz-adv-x="575" d="M139 163 L290 805 L157 805 L195 968 L509 968 L320 163 L461 163 L423 0 L-6 0 L32 163 L139 163 Z M617 1125 L477 1125 L97 1411 L454 1411 L617 1125 Z " />
<glyph glyph-name="icircumflex" unicode="&#xee;" horiz-adv-x="575" d="M139 163 L290 805 L157 805 L195 968 L509 968 L320 163 L461 163 L423 0 L-6 0 L32 163 L139 163 Z M110 1105 L355 1411 L617 1411 L714 1105 L577 1105 L455 1264 L248 1105 L110 1105 Z " />
<glyph glyph-name="idieresis" unicode="&#xef;" horiz-adv-x="575" d="M139 163 L290 805 L157 805 L195 968 L509 968 L320 163 L461 163 L423 0 L-6 0 L32 163 L139 163 Z M539 1254 Q539 1301 572 1334 Q605 1367 651 1367 Q699 1367 731 1333.5 Q763 1300 763 1255 Q763 1209 730.5 1175.5 Q698 1142 651 1142 Q605 1142 572 1175 Q539 1208 539 1254 Z M123 1255 Q123 1299 154.5 1333 Q186 1367 235 1367 Q282 1367 314.5 1334 Q347 1301 347 1255 Q347 1208 314 1175 Q281 1142 235 1142 Q187 1142 155 1175.5 Q123 1209 123 1255 Z " />
<glyph glyph-name="ntilde" unicode="&#xf1;" horiz-adv-x="1130" d="M187 968 L495 968 L469 855 Q650 983 784 983 Q891 983 948.5 913 Q1006 843 1006 763 Q1006 696 979 581 L881 163 L1024 163 L985 0 L662 0 L801 593 Q823 688 823 712 Q823 756 794 784.5 Q765 813 723 813 Q612 813 429 685 L306 163 L451 163 L413 0 L-28 0 L10 163 L125 163 L276 805 L149 805 L187 968 Z M934 1397 L1047 1397 Q1048 1372 1048 1355 Q1048 1246 999.5 1179 Q951 1112 870 1112 Q801 1112 653 1205 Q603 1237 574 1237 Q506 1237 502 1127 L386 1127 Q386 1270 442 1334 Q498 1398 577 1398 Q635 1398 752 1328 Q843 1273 869 1273 Q931 1273 934 1397 Z " />
<glyph glyph-name="oacute" unicode="&#xf3;" horiz-adv-x="1153" d="M70 390 Q70 539 140 676.5 Q210 814 349.5 904.5 Q489 995 663 995 Q865 995 974 877 Q1083 759 1083 579 Q1083 437 1013.5 288 Q944 139 800 55.5 Q656 -28 495 -28 Q309 -28 189.5 82.5 Q70 193 70 390 Z M272 408 Q272 146 515 146 Q685 146 788 276.5 Q891 407 891 578 Q891 688 820.5 754.5 Q750 821 634 821 Q470 821 371 695 Q272 569 272 408 Z M572 1125 L737 1411 L1094 1411 L712 1125 L572 1125 Z " />
<glyph glyph-name="ograve" unicode="&#xf2;" horiz-adv-x="1153" d="M70 390 Q70 539 140 676.5 Q210 814 349.5 904.5 Q489 995 663 995 Q865 995 974 877 Q1083 759 1083 579 Q1083 437 1013.5 288 Q944 139 800 55.5 Q656 -28 495 -28 Q309 -28 189.5 82.5 Q70 193 70 390 Z M272 408 Q272 146 515 146 Q685 146 788 276.5 Q891 407 891 578 Q891 688 820.5 754.5 Q750 821 634 821 Q470 821 371 695 Q272 569 272 408 Z M905 1125 L765 1125 L385 1411 L742 1411 L905 1125 Z " />
<glyph glyph-name="ocircumflex" unicode="&#xf4;" horiz-adv-x="1153" d="M70 390 Q70 539 140 676.5 Q210 814 349.5 904.5 Q489 995 663 995 Q865 995 974 877 Q1083 759 1083 579 Q1083 437 1013.5 288 Q944 139 800 55.5 Q656 -28 495 -28 Q309 -28 189.5 82.5 Q70 193 70 390 Z M272 408 Q272 146 515 146 Q685 146 788 276.5 Q891 407 891 578 Q891 688 820.5 754.5 Q750 821 634 821 Q470 821 371 695 Q272 569 272 408 Z M398 1105 L643 1411 L905 1411 L1002 1105 L865 1105 L743 1264 L536 1105 L398 1105 Z " />
<glyph glyph-name="odieresis" unicode="&#xf6;" horiz-adv-x="1153" d="M70 390 Q70 539 140 676.5 Q210 814 349.5 904.5 Q489 995 663 995 Q865 995 974 877 Q1083 759 1083 579 Q1083 437 1013.5 288 Q944 139 800 55.5 Q656 -28 495 -28 Q309 -28 189.5 82.5 Q70 193 70 390 Z M272 408 Q272 146 515 146 Q685 146 788 276.5 Q891 407 891 578 Q891 688 820.5 754.5 Q750 821 634 821 Q470 821 371 695 Q272 569 272 408 Z M841 1254 Q841 1301 874 1334 Q907 1367 953 1367 Q1001 1367 1033 1333.5 Q1065 1300 1065 1255 Q1065 1209 1032.5 1175.5 Q1000 1142 953 1142 Q907 1142 874 1175 Q841 1208 841 1254 Z M425 1255 Q425 1299 456.5 1333 Q488 1367 537 1367 Q584 1367 616.5 1334 Q649 1301 649 1255 Q649 1208 616 1175 Q583 1142 537 1142 Q489 1142 457 1175.5 Q425 1209 425 1255 Z " />
<glyph glyph-name="otilde" unicode="&#xf5;" horiz-adv-x="1153" d="M70 390 Q70 539 140 676.5 Q210 814 349.5 904.5 Q489 995 663 995 Q865 995 974 877 Q1083 759 1083 579 Q1083 437 1013.5 288 Q944 139 800 55.5 Q656 -28 495 -28 Q309 -28 189.5 82.5 Q70 193 70 390 Z M272 408 Q272 146 515 146 Q685 146 788 276.5 Q891 407 891 578 Q891 688 820.5 754.5 Q750 821 634 821 Q470 821 371 695 Q272 569 272 408 Z M941 1397 L1054 1397 Q1055 1372 1055 1355 Q1055 1246 1006.5 1179 Q958 1112 877 1112 Q808 1112 660 1205 Q610 1237 581 1237 Q513 1237 509 1127 L393 1127 Q393 1270 449 1334 Q505 1398 584 1398 Q642 1398 759 1328 Q850 1273 876 1273 Q938 1273 941 1397 Z " />
<glyph glyph-name="uacute" unicode="&#xfa;" horiz-adv-x="1130" d="M859 163 L981 163 L943 0 L639 0 L666 112 Q487 -16 348 -16 Q244 -16 183 52 Q122 120 122 198 Q122 257 155 396 L250 805 L130 805 L169 968 L470 968 L346 443 Q309 284 309 247 Q309 204 338.5 177 Q368 150 412 150 Q518 150 708 291 L828 805 L684 805 L722 968 L1047 968 L859 163 Z M570 1125 L735 1411 L1092 1411 L710 1125 L570 1125 Z " />
<glyph glyph-name="ugrave" unicode="&#xf9;" horiz-adv-x="1130" d="M859 163 L981 163 L943 0 L639 0 L666 112 Q487 -16 348 -16 Q244 -16 183 52 Q122 120 122 198 Q122 257 155 396 L250 805 L130 805 L169 968 L470 968 L346 443 Q309 284 309 247 Q309 204 338.5 177 Q368 150 412 150 Q518 150 708 291 L828 805 L684 805 L722 968 L1047 968 L859 163 Z M876 1125 L736 1125 L356 1411 L713 1411 L876 1125 Z " />
<glyph glyph-name="ucircumflex" unicode="&#xfb;" horiz-adv-x="1130" d="M859 163 L981 163 L943 0 L639 0 L666 112 Q487 -16 348 -16 Q244 -16 183 52 Q122 120 122 198 Q122 257 155 396 L250 805 L130 805 L169 968 L470 968 L346 443 Q309 284 309 247 Q309 204 338.5 177 Q368 150 412 150 Q518 150 708 291 L828 805 L684 805 L722 968 L1047 968 L859 163 Z M399 1105 L644 1411 L906 1411 L1003 1105 L866 1105 L744 1264 L537 1105 L399 1105 Z " />
<glyph glyph-name="udieresis" unicode="&#xfc;" horiz-adv-x="1130" d="M859 163 L981 163 L943 0 L639 0 L666 112 Q487 -16 348 -16 Q244 -16 183 52 Q122 120 122 198 Q122 257 155 396 L250 805 L130 805 L169 968 L470 968 L346 443 Q309 284 309 247 Q309 204 338.5 177 Q368 150 412 150 Q518 150 708 291 L828 805 L684 805 L722 968 L1047 968 L859 163 Z M797 1254 Q797 1301 830 1334 Q863 1367 909 1367 Q957 1367 989 1333.5 Q1021 1300 1021 1255 Q1021 1209 988.5 1175.5 Q956 1142 909 1142 Q863 1142 830 1175 Q797 1208 797 1254 Z M381 1255 Q381 1299 412.5 1333 Q444 1367 493 1367 Q540 1367 572.5 1334 Q605 1301 605 1255 Q605 1208 572 1175 Q539 1142 493 1142 Q445 1142 413 1175.5 Q381 1209 381 1255 Z " />
<glyph glyph-name="dagger" unicode="&#x2020;" horiz-adv-x="1004" d="M1084 960 L1042 779 L834 779 Q757 829 630 833 Q610 731 610 655 Q610 570 630 515 L343 -437 L245 -437 L422 515 Q505 614 561 833 Q404 833 292 779 L100 779 L142 960 L334 960 Q421 899 577 899 Q595 977 595 1062 Q595 1139 577 1180 L630 1413 L834 1413 L780 1180 Q683 1066 645 899 Q780 901 875 960 L1084 960 Z " />
<glyph glyph-name="degree" unicode="&#xb0;" horiz-adv-x="811" d="M541 1415 Q683 1415 785 1313.5 Q887 1212 887 1069 Q887 927 785.5 825 Q684 723 541 723 Q398 723 296.5 825 Q195 927 195 1069 Q195 1213 296.5 1314 Q398 1415 541 1415 Z M541 1285 Q454 1285 390 1223.5 Q326 1162 326 1070 Q326 981 389.5 918 Q453 855 541 855 Q630 855 693 918.5 Q756 982 756 1070 Q756 1162 692 1223.5 Q628 1285 541 1285 Z " />
<glyph glyph-name="cent" unicode="&#xa2;" horiz-adv-x="1024" d="M744 970 Q813 944 866 886 L886 970 L1046 970 L977 677 L819 677 Q797 785 692 827 L434 131 Q467 124 500 124 Q652 124 767 293 L901 196 Q734 -28 475 -28 Q426 -28 379 -19 L221 -443 L135 -443 L301 0 Q189 49 125.5 148 Q62 247 62 370 Q62 607 219 801 Q376 995 599 995 Q633 995 668 990 L819 1398 L901 1398 L744 970 Z M361 163 L614 843 Q602 844 596 844 Q464 844 360.5 710.5 Q257 577 257 389 Q257 232 361 163 Z " />
<glyph glyph-name="sterling" unicode="&#xa3;" horiz-adv-x="938" d="M343 760 Q319 900 319 985 Q319 1184 432.5 1299.5 Q546 1415 717 1415 Q844 1415 928.5 1346.5 Q1013 1278 1013 1158 Q1013 1103 992 1033 L812 1033 Q837 1102 837 1150 Q837 1202 799.5 1236.5 Q762 1271 707 1271 Q629 1271 566.5 1205 Q504 1139 504 1002 Q504 952 516 867 Q528 777 530 760 L803 760 L770 611 L540 611 Q538 488 522.5 405.5 Q507 323 458 222 Q535 162 605 162 Q712 162 770 331 L891 331 Q805 -21 581 -21 Q468 -21 374 87 Q291 -21 187 -21 Q118 -21 71.5 29 Q25 79 25 153 Q25 230 74.5 287 Q124 344 201 344 Q278 344 353 292 Q372 384 372 471 Q372 525 365 611 L119 611 L154 760 L343 760 Z M306 163 Q245 234 195 234 Q162 234 138.5 211.5 Q115 189 115 152 Q115 120 135 99 Q155 78 185 78 Q250 78 306 163 Z " />
<glyph glyph-name="section" unicode="&#xa7;" horiz-adv-x="918" d="M-27 -120 L128 -67 Q128 -164 191 -225.5 Q254 -287 371 -287 Q469 -287 524 -241.5 Q579 -196 579 -129 Q579 -72 529 -13.5 Q479 45 329 154 Q143 288 85.5 360 Q28 432 28 528 Q28 721 297 856 Q188 958 188 1094 Q188 1238 296 1326.5 Q404 1415 562 1415 Q735 1415 840.5 1329.5 Q946 1244 946 1104 Q946 1092 944 1071 L793 1020 Q794 1046 794 1052 Q794 1139 735 1202 Q676 1265 568 1265 Q461 1265 409 1213.5 Q357 1162 357 1104 Q357 1041 405.5 990 Q454 939 595 850 Q777 736 838.5 661.5 Q900 587 900 483 Q900 375 822.5 285 Q745 195 613 141 Q749 13 749 -126 Q749 -270 635 -354 Q521 -438 367 -438 Q205 -438 91 -349 Q-23 -260 -27 -120 Z M516 227 Q743 313 743 450 Q743 493 708.5 539 Q674 585 564 657 Q430 744 395 772 Q306 739 254 680 Q202 621 202 550 Q202 499 234.5 454 Q267 409 397 316 Q470 264 516 227 Z " />
<glyph glyph-name="bullet" unicode="&#x2022;" horiz-adv-x="725" d="M410 946 Q511 946 586 874.5 Q661 803 661 695 Q661 592 587 518.5 Q513 445 410 445 Q306 445 232.5 518.5 Q159 592 159 695 Q159 799 233 872.5 Q307 946 410 946 Z " />
<glyph glyph-name="paragraph" unicode="&#xb6;" horiz-adv-x="1110" d="M446 -434 L446 563 Q261 571 151.5 683.5 Q42 796 42 973 Q42 1151 157 1271 Q272 1391 515 1391 L1148 1391 L1148 1218 L1004 1218 L1004 -434 L834 -434 L834 1218 L611 1218 L611 -434 L446 -434 Z " />
<glyph glyph-name="germandbls" unicode="&#xdf;" horiz-adv-x="1260" d="M310 163 L431 163 L392 0 L-29 0 L9 163 L126 163 L310 948 Q350 1121 401 1209 Q452 1297 550 1347.5 Q648 1398 782 1398 Q969 1398 1077.5 1303.5 Q1186 1209 1186 1071 Q1186 970 1124.5 884 Q1063 798 948 760 Q1169 667 1169 430 Q1169 243 1033.5 113.5 Q898 -16 695 -16 Q607 -16 511 20 L553 169 Q605 147 684 147 Q826 147 905.5 238.5 Q985 330 985 448 Q985 563 907.5 627 Q830 691 711 691 L687 691 L720 830 Q855 830 927.5 897.5 Q1000 965 1000 1063 Q1000 1152 936 1207.5 Q872 1263 769 1263 Q689 1263 632.5 1228.5 Q576 1194 552 1142.5 Q528 1091 499 968 L310 163 Z " />
<glyph glyph-name="registered" unicode="&#xae;" horiz-adv-x="1516" d="M809 1413 Q999 1413 1177.5 1316.5 Q1356 1220 1459.5 1039.5 Q1563 859 1563 658 Q1563 346 1342.5 124.5 Q1122 -97 809 -97 Q496 -97 275 124.5 Q54 346 54 658 Q54 861 157 1039 Q260 1217 437 1315 Q614 1413 809 1413 Z M809 1287 Q651 1287 502 1206.5 Q353 1126 266 976 Q179 826 179 658 Q179 398 363.5 213.5 Q548 29 809 29 Q1070 29 1254 213.5 Q1438 398 1438 658 Q1438 919 1253 1103 Q1068 1287 809 1287 Z M478 241 L478 1052 L757 1052 Q878 1052 944 1036 Q1010 1020 1057 963 Q1104 906 1104 832 Q1104 747 1042.5 679.5 Q981 612 872 603 Q947 582 1061 399 L1160 241 L1000 241 L928 369 Q846 513 803 549 Q760 585 686 585 L609 585 L609 241 L478 241 Z M609 697 L768 697 Q965 697 965 821 Q965 887 918 914.5 Q871 942 758 942 L609 942 L609 697 Z " />
<glyph glyph-name="copyright" unicode="&#xa9;" horiz-adv-x="1516" d="M809 1413 Q999 1413 1177.5 1316.5 Q1356 1220 1459.5 1039.5 Q1563 859 1563 658 Q1563 346 1342.5 124.5 Q1122 -97 809 -97 Q496 -97 275 124.5 Q54 346 54 658 Q54 861 157 1039 Q260 1217 437 1315 Q614 1413 809 1413 Z M809 1287 Q651 1287 502 1206.5 Q353 1126 266 976 Q179 826 179 658 Q179 398 363.5 213.5 Q548 29 809 29 Q1070 29 1254 213.5 Q1438 398 1438 658 Q1438 919 1253 1103 Q1068 1287 809 1287 Z M1051 535 L1174 499 Q1146 373 1046 299.5 Q946 226 812 226 Q615 226 514.5 350 Q414 474 414 656 Q414 853 521.5 967 Q629 1081 818 1081 Q959 1081 1044 1013.5 Q1129 946 1159 845 L1040 816 Q979 970 815 970 Q689 970 619.5 880.5 Q550 791 550 653 Q550 506 619 424.5 Q688 343 803 343 Q888 343 959 393.5 Q1030 444 1051 535 Z " />
<glyph glyph-name="trademark" unicode="&#x2122;" horiz-adv-x="2048" d="M610 577 L610 1270 L346 1270 L346 1391 L1012 1391 L1012 1270 L746 1270 L746 577 L610 577 Z M1103 577 L1103 1391 L1303 1391 L1509 740 L1708 1391 L1904 1391 L1904 577 L1780 577 L1780 1260 L1570 577 L1447 577 L1228 1270 L1228 577 L1103 577 Z " />
<glyph glyph-name="acute" unicode="&#xb4;" horiz-adv-x="682" d="M337 1125 L502 1411 L859 1411 L477 1125 L337 1125 Z " />
<glyph glyph-name="dieresis" unicode="&#xa8;" horiz-adv-x="682" d="M617 1254 Q617 1301 650 1334 Q683 1367 729 1367 Q777 1367 809 1333.5 Q841 1300 841 1255 Q841 1209 808.5 1175.5 Q776 1142 729 1142 Q683 1142 650 1175 Q617 1208 617 1254 Z M201 1255 Q201 1299 232.5 1333 Q264 1367 313 1367 Q360 1367 392.5 1334 Q425 1301 425 1255 Q425 1208 392 1175 Q359 1142 313 1142 Q265 1142 233 1175.5 Q201 1209 201 1255 Z " />
<glyph glyph-name="notequal" unicode="&#x2260;" horiz-adv-x="1366" d="M919 1011 L1277 1011 L1277 854 L858 854 L735 540 L1277 540 L1277 384 L674 384 L467 -144 L332 -144 L538 384 L181 384 L181 540 L600 540 L723 854 L181 854 L181 1011 L784 1011 L991 1539 L1126 1539 L919 1011 Z " />
<glyph glyph-name="AE" unicode="&#xc6;" horiz-adv-x="1985" d="M1012 633 L659 633 L311 163 L455 163 L417 0 L-82 0 L-44 163 L100 163 L884 1228 L703 1228 L741 1391 L2058 1391 L1960 972 L1795 972 L1852 1228 L1354 1228 L1252 795 L1696 795 L1658 633 L1214 633 L1104 163 L1622 163 L1684 426 L1852 426 L1750 0 L703 0 L741 163 L902 163 L1012 633 Z M1050 795 L1152 1228 L1098 1228 L777 795 L1050 795 Z " />
<glyph glyph-name="Oslash" unicode="&#xd8;" horiz-adv-x="1599" d="M1420 1241 Q1560 1090 1560 849 Q1560 656 1463.5 455 Q1367 254 1174.5 116 Q982 -22 718 -22 Q515 -22 373 64 L290 -27 L193 64 L273 152 Q133 305 133 550 Q133 741 230 942 Q327 1143 517 1278 Q707 1413 970 1413 Q1178 1413 1320 1325 L1403 1418 L1500 1332 L1420 1241 Z M411 306 L1190 1179 Q1098 1244 961 1244 Q697 1244 521 1018.5 Q345 793 345 542 Q345 404 411 306 Z M1281 1085 L503 212 Q594 150 727 150 Q909 150 1049 258.5 Q1189 367 1267 539 Q1345 711 1345 863 Q1345 983 1281 1085 Z " />
<glyph glyph-name="infinity" unicode="&#x221e;" horiz-adv-x="1195" d="M601 789 Q718 939 788 980.5 Q858 1022 934 1022 Q1044 1022 1133 943.5 Q1222 865 1222 701 Q1222 514 1129 439.5 Q1036 365 934 365 Q846 365 776.5 415 Q707 465 601 598 Q465 427 313 427 Q201 427 133.5 509.5 Q66 592 66 694 Q66 787 129.5 874 Q193 961 313 961 Q465 961 601 789 Z M670 695 Q752 568 811.5 522.5 Q871 477 931 477 Q1000 477 1055.5 528 Q1111 579 1111 691 Q1111 795 1059.5 852 Q1008 909 928 909 Q872 909 820 869.5 Q768 830 670 695 Z M532 694 Q410 851 312 851 Q251 851 214 808 Q177 765 177 697 Q177 629 216 584.5 Q255 540 314 540 Q414 540 532 694 Z " />
<glyph glyph-name="plusminus" unicode="&#xb1;" horiz-adv-x="1366" d="M181 945 L651 945 L651 1415 L807 1415 L807 945 L1277 945 L1277 788 L807 788 L807 319 L651 319 L651 788 L181 788 L181 945 Z M181 137 L1277 137 L1277 -20 L181 -20 L181 137 Z " />
<glyph glyph-name="lessequal" unicode="&#x2264;" horiz-adv-x="1366" d="M1277 370 L181 829 L181 971 L1277 1430 L1277 1261 L395 900 L1277 540 L1277 370 Z M181 121 L1277 121 L1277 -36 L181 -36 L181 121 Z " />
<glyph glyph-name="greaterequal" unicode="&#x2265;" horiz-adv-x="1366" d="M181 1430 L1277 971 L1277 829 L181 370 L181 540 L1063 900 L181 1261 L181 1430 Z M181 121 L1277 121 L1277 -36 L181 -36 L181 121 Z " />
<glyph glyph-name="yen" unicode="&#xa5;" horiz-adv-x="1174" d="M842 769 L1194 769 L1168 652 L735 652 L711 626 L670 453 L1122 453 L1096 336 L643 336 L602 163 L743 163 L704 0 L228 0 L266 163 L400 163 L441 336 L37 336 L63 453 L468 453 L509 626 L500 652 L109 652 L135 769 L459 769 L300 1228 L155 1228 L193 1391 L651 1391 L613 1228 L483 1228 L644 769 L1070 1228 L902 1228 L940 1391 L1421 1391 L1383 1228 L1267 1228 L842 769 Z " />
<glyph glyph-name="uni00B5" unicode="&#xb5;" horiz-adv-x="1130" d="M255 968 L435 968 L342 563 Q296 363 296 298 Q296 224 348.5 175.5 Q401 127 489 127 Q580 127 671 189.5 Q762 252 816 490 L925 968 L1103 968 L877 0 L715 0 L735 84 Q603 -25 466 -25 Q324 -25 232 100 L98 -434 L-80 -434 L255 968 Z " />
<glyph glyph-name="partialdiff" unicode="&#x2202;" horiz-adv-x="1012" d="M435 1138 L300 1198 Q364 1348 463.5 1419.5 Q563 1491 660 1491 Q808 1491 895 1352 Q982 1213 982 926 Q982 675 909 452.5 Q836 230 685.5 102.5 Q535 -25 371 -25 Q236 -25 150.5 66.5 Q65 158 65 321 Q65 490 157 632 Q249 774 429.5 848 Q610 922 867 924 Q865 1174 810 1268.5 Q755 1363 662 1363 Q519 1363 435 1138 Z M863 796 Q622 784 505.5 729 Q389 674 317 550 Q245 426 245 303 Q245 215 298.5 163.5 Q352 112 415 112 Q559 112 694 281.5 Q829 451 863 796 Z " />
<glyph glyph-name="summation" unicode="&#x2211;" horiz-adv-x="1460" d="M185 1415 L1422 1415 L1422 1251 L434 1251 L1041 503 L392 -292 L1432 -292 L1432 -456 L168 -456 L168 -266 L788 496 L185 1240 L185 1415 Z " />
<glyph glyph-name="product" unicode="&#x220f;" horiz-adv-x="1685" d="M207 1415 L1569 1415 L1569 -456 L1378 -456 L1378 1241 L398 1241 L398 -456 L207 -456 L207 1415 Z " />
<glyph glyph-name="pi" unicode="&#x3c0;" horiz-adv-x="1280" d="M173 914 L206 1063 L1309 1063 L1273 913 L1152 913 L938 0 L737 0 L950 913 L530 914 L317 0 L114 0 L329 914 L173 914 Z " />
<glyph glyph-name="integral" unicode="&#x222b;" horiz-adv-x="555" d="M245 606 Q245 1218 303.5 1369.5 Q362 1521 481 1521 Q531 1521 567.5 1490 Q604 1459 604 1413 Q604 1370 579 1340 Q554 1310 512 1310 Q477 1310 436 1346 Q413 1366 396 1366 Q356 1366 356 1302 Q356 1260 365 1157 Q402 747 402 474 Q402 -163 355.5 -362.5 Q309 -562 163 -562 Q107 -562 75.5 -528 Q44 -494 44 -441 Q44 -396 69.5 -369 Q95 -342 134 -342 Q174 -342 204 -375 Q232 -406 252 -406 Q291 -406 291 -345 Q291 -304 282 -225 Q245 91 245 606 Z " />
<glyph glyph-name="ordfeminine" unicode="&#xaa;" horiz-adv-x="705" d="M692 902 L778 902 L758 816 L564 816 L585 902 Q495 806 380 806 Q304 806 247.5 854 Q191 902 191 975 Q191 1062 267 1120 Q343 1178 457 1178 Q545 1178 633 1135 L649 1199 Q658 1233 658 1248 Q658 1326 545 1326 Q453 1326 391 1243 L293 1284 Q388 1413 564 1413 Q664 1413 719 1373.5 Q774 1334 774 1268 Q774 1237 758 1172 L692 902 Z M613 1056 Q532 1094 466 1094 Q395 1094 351.5 1060 Q308 1026 308 979 Q308 936 339.5 914 Q371 892 416 892 Q496 892 591 969 L613 1056 Z " />
<glyph glyph-name="ordmasculine" unicode="&#xba;" horiz-adv-x="748" d="M192 1050 Q192 1197 303.5 1305 Q415 1413 577 1413 Q714 1413 782 1339.5 Q850 1266 850 1168 Q850 1009 741.5 904 Q633 799 468 799 Q348 799 270 865 Q192 931 192 1050 Z M323 1050 Q323 903 481 903 Q590 903 658 981 Q726 1059 726 1162 Q726 1227 681 1267.5 Q636 1308 559 1308 Q457 1308 390 1235 Q323 1162 323 1050 Z " />
<glyph glyph-name="uni2126" unicode="&#x2126;" horiz-adv-x="1621" d="M-2 165 L131 165 Q178 165 406 156 Q172 329 172 628 Q172 940 387 1221.5 Q602 1503 969 1503 Q1215 1503 1360 1355.5 Q1505 1208 1505 943 Q1505 799 1452 648.5 Q1399 498 1277.5 366.5 Q1156 235 949 151 Q1120 163 1181 163 L1334 163 L1286 0 L704 0 L747 171 Q943 247 1069 379.5 Q1195 512 1247.5 657.5 Q1300 803 1300 947 Q1300 1139 1211.5 1242 Q1123 1345 960 1345 Q781 1345 656.5 1242 Q532 1139 448 941.5 Q364 744 364 566 Q364 303 561 170 L516 0 L-52 0 L-2 165 Z " />
<glyph glyph-name="ae" unicode="&#xe6;" horiz-adv-x="1772" d="M1683 443 L918 443 Q915 403 915 373 Q915 273 980.5 201.5 Q1046 130 1159 130 Q1312 130 1408 268 L1595 184 Q1446 -28 1163 -28 Q884 -28 780 184 Q702 92 591.5 32 Q481 -28 377 -28 Q238 -28 152.5 58.5 Q67 145 67 265 Q67 405 186 504.5 Q305 604 488 604 Q614 604 759 533 L780 635 L787 659 Q799 704 799 727 Q799 783 751 817.5 Q703 852 623 852 Q469 852 380 715 L226 780 Q373 995 659 995 Q862 995 939 872 Q1083 995 1273 995 Q1477 995 1587.5 872.5 Q1698 750 1698 576 Q1698 509 1683 443 Z M1512 578 Q1514 612 1514 629 Q1514 716 1452.5 780 Q1391 844 1284 844 Q1169 844 1083.5 769.5 Q998 695 959 578 L1512 578 Z M728 400 Q611 469 497 469 Q397 469 322.5 411 Q248 353 248 260 Q248 186 297.5 149 Q347 112 411 112 Q532 112 692 244 L728 400 Z " />
<glyph glyph-name="oslash" unicode="&#xf8;" horiz-adv-x="1153" d="M976 875 Q1083 760 1083 579 Q1083 437 1013.5 288 Q944 139 800 55.5 Q656 -28 495 -28 Q349 -28 241 42 L160 -50 L96 5 L176 96 Q70 204 70 389 Q70 632 239 813.5 Q408 995 661 995 Q809 995 911 930 L990 1020 L1054 968 L976 875 Z M308 246 L782 784 Q718 821 634 821 Q474 821 373 697 Q272 573 272 400 Q272 304 308 246 Z M846 727 L368 185 Q430 146 516 146 Q685 146 788.5 276 Q892 406 892 577 Q892 664 846 727 Z " />
<glyph glyph-name="questiondown" unicode="&#xbf;" horiz-adv-x="938" d="M747 744 L506 744 L562 980 L803 980 L747 744 Z M553 612 L649 612 L566 184 Q507 198 457 198 Q317 198 242 99.5 Q167 1 167 -106 Q167 -180 211 -230.5 Q255 -281 342 -281 Q519 -281 583 -81 L736 -81 Q692 -268 577.5 -350.5 Q463 -433 316 -433 Q157 -433 71.5 -343 Q-14 -253 -14 -110 Q-14 80 113 209.5 Q240 339 409 339 Q427 339 463 337 L553 612 Z " />
<glyph glyph-name="exclamdown" unicode="&#xa1;" horiz-adv-x="575" d="M467 732 L226 732 L281 968 L523 968 L467 732 Z M262 598 L363 598 L272 9 L170 -423 L-23 -423 L71 -23 L262 598 Z " />
<glyph glyph-name="logicalnot" unicode="&#xac;" horiz-adv-x="1366" d="M181 1011 L1277 1011 L1277 384 L1120 384 L1120 854 L181 854 L181 1011 Z " />
<glyph glyph-name="radical" unicode="&#x221a;" horiz-adv-x="1131" d="M1014 1869 L1088 1869 L776 -78 L280 943 L82 852 L48 916 L349 1067 L754 244 L1014 1869 Z " />
<glyph glyph-name="florin" unicode="&#x192;" horiz-adv-x="1130" d="M-1 -405 L41 -250 Q140 -272 193 -272 Q246 -272 276 -244 Q306 -216 327 -120 L553 922 L353 922 L383 1062 L584 1062 L615 1195 Q642 1316 673 1371 Q704 1426 765 1459 Q826 1492 909 1492 Q1000 1492 1126 1454 L1084 1301 Q984 1325 931 1325 Q868 1325 841.5 1294 Q815 1263 792 1165 L768 1062 L972 1062 L941 922 L736 922 L494 -170 Q461 -317 397.5 -374 Q334 -431 228 -431 Q128 -431 -1 -405 Z " />
<glyph glyph-name="approxequal" unicode="&#x2248;" horiz-adv-x="1366" d="M1277 903 Q1122 775 984 775 Q921 775 862.5 793.5 Q804 812 672 874 Q545 933 479 933 Q344 933 181 793 L181 962 Q338 1090 486 1090 Q579 1090 779 996 Q915 933 983 933 Q1116 933 1277 1072 L1277 903 Z M1277 433 Q1122 304 984 304 Q923 304 865 322 Q807 340 672 403 Q545 463 479 463 Q344 463 181 322 L181 492 Q338 620 486 620 Q579 620 779 526 Q915 462 983 462 Q1116 462 1277 602 L1277 433 Z " />
<glyph glyph-name="uni2206" unicode="&#x2206;" horiz-adv-x="1259" d="M1189 0 L-11 0 L617 1387 L1189 0 Z M953 82 L554 1049 L114 82 L953 82 Z " />
<glyph glyph-name="guillemotleft" unicode="&#xab;" horiz-adv-x="938" d="M39 520 L392 968 L596 968 L218 486 L371 0 L204 0 L39 520 Z M461 520 L815 968 L1018 968 L640 486 L794 0 L626 0 L461 520 Z " />
<glyph glyph-name="guillemotright" unicode="&#xbb;" horiz-adv-x="938" d="M901 448 L547 0 L344 0 L722 482 L568 968 L736 968 L901 448 Z M479 448 L125 0 L-78 0 L300 482 L146 968 L313 968 L479 448 Z " />
<glyph glyph-name="ellipsis" unicode="&#x2026;" horiz-adv-x="2048" d="M111 0 L166 235 L408 235 L352 0 L111 0 Z M794 0 L849 235 L1090 235 L1035 0 L794 0 Z M1476 0 L1532 235 L1773 235 L1717 0 L1476 0 Z " />
<glyph glyph-name="uni00A0" unicode="&#xa0;" horiz-adv-x="512" d="" />
<glyph glyph-name="Agrave" unicode="&#xc0;" horiz-adv-x="1323" d="M917 487 L429 487 L257 163 L408 163 L370 0 L-125 0 L-87 163 L41 163 L641 1228 L487 1228 L525 1391 L1204 1391 L1166 1228 L1022 1228 L1146 163 L1275 163 L1237 0 L745 0 L784 163 L948 163 L917 487 Z M902 650 L850 1228 L816 1228 L517 650 L902 650 Z M1044 1516 L904 1516 L524 1802 L881 1802 L1044 1516 Z " />
<glyph glyph-name="Atilde" unicode="&#xc3;" horiz-adv-x="1323" d="M917 487 L429 487 L257 163 L408 163 L370 0 L-125 0 L-87 163 L41 163 L641 1228 L487 1228 L525 1391 L1204 1391 L1166 1228 L1022 1228 L1146 163 L1275 163 L1237 0 L745 0 L784 163 L948 163 L917 487 Z M902 650 L850 1228 L816 1228 L517 650 L902 650 Z M1131 1765 L1244 1765 Q1245 1740 1245 1723 Q1245 1614 1196.5 1547 Q1148 1480 1067 1480 Q998 1480 850 1573 Q800 1605 771 1605 Q703 1605 699 1495 L583 1495 Q583 1638 639 1702 Q695 1766 774 1766 Q832 1766 949 1696 Q1040 1641 1066 1641 Q1128 1641 1131 1765 Z " />
<glyph glyph-name="Otilde" unicode="&#xd5;" horiz-adv-x="1599" d="M133 540 Q133 726 221.5 926.5 Q310 1127 507 1270 Q704 1413 972 1413 Q1250 1413 1405 1257 Q1560 1101 1560 850 Q1560 655 1462.5 453.5 Q1365 252 1173.5 115 Q982 -22 717 -22 Q421 -22 277 146 Q133 314 133 540 Z M345 531 Q345 385 440 267.5 Q535 150 726 150 Q910 150 1050 259 Q1190 368 1267.5 539.5 Q1345 711 1345 864 Q1345 1019 1243 1131.5 Q1141 1244 963 1244 Q788 1244 637.5 1132 Q487 1020 416 853 Q345 686 345 531 Z M1257 1765 L1370 1765 Q1371 1740 1371 1723 Q1371 1614 1322.5 1547 Q1274 1480 1193 1480 Q1124 1480 976 1573 Q926 1605 897 1605 Q829 1605 825 1495 L709 1495 Q709 1638 765 1702 Q821 1766 900 1766 Q958 1766 1075 1696 Q1166 1641 1192 1641 Q1254 1641 1257 1765 Z " />
<glyph glyph-name="OE" unicode="&#x152;" horiz-adv-x="2048" d="M1785 427 L1953 427 L1850 0 L933 0 Q667 0 507 47 Q347 94 243 233 Q139 372 139 567 Q139 716 206 874 Q273 1032 383.5 1143.5 Q494 1255 626 1308 Q758 1361 877.5 1376 Q997 1391 1241 1391 L2159 1391 L2061 972 L1896 972 L1953 1228 L1443 1228 L1343 798 L1791 798 L1753 635 L1305 635 L1194 163 L1723 163 L1785 427 Z M1241 1228 L1152 1228 Q960 1228 837.5 1201.5 Q715 1175 609.5 1097 Q504 1019 429.5 872.5 Q355 726 355 568 Q355 368 480.5 265.5 Q606 163 884 163 L992 163 L1241 1228 Z " />
<glyph glyph-name="oe" unicode="&#x153;" horiz-adv-x="1898" d="M1815 444 L1052 444 Q1046 399 1046 368 Q1046 273 1112 201.5 Q1178 130 1286 130 Q1424 130 1538 270 L1726 190 Q1568 -28 1291 -28 Q1175 -28 1075.5 20 Q976 68 924 149 Q742 -28 502 -28 Q300 -28 183.5 90.5 Q67 209 67 394 Q67 537 142 679.5 Q217 822 356.5 908.5 Q496 995 658 995 Q906 995 1022 825 Q1172 995 1409 995 Q1620 995 1724 866.5 Q1828 738 1828 557 Q1828 496 1815 444 Z M1643 579 Q1645 624 1645 627 Q1645 711 1584 778.5 Q1523 846 1412 846 Q1192 846 1088 579 L1643 579 Z M263 412 Q263 291 330.5 215.5 Q398 140 523 140 Q692 140 792.5 276 Q893 412 893 577 Q893 679 829.5 751 Q766 823 649 823 Q479 823 371 690 Q263 557 263 412 Z " />
<glyph glyph-name="endash" unicode="&#x2013;" horiz-adv-x="1024" d="M-11 585 L1037 585 L1037 440 L-11 440 L-11 585 Z " />
<glyph glyph-name="emdash" unicode="&#x2014;" horiz-adv-x="2048" d="M-1 585 L2071 585 L2071 440 L-1 440 L-1 585 Z " />
<glyph glyph-name="quotedblleft" unicode="&#x201c;" horiz-adv-x="1004" d="M464 878 L223 878 L271 1083 Q305 1227 379 1304.5 Q453 1382 596 1391 L576 1305 Q429 1288 390 1113 L519 1113 L464 878 Z M911 878 L669 878 L718 1083 Q751 1227 825.5 1304.5 Q900 1382 1042 1391 L1022 1305 Q875 1288 836 1113 L966 1113 L911 878 Z " />
<glyph glyph-name="quotedblright" unicode="&#x201d;" horiz-adv-x="1004" d="M353 1391 L594 1391 L546 1185 Q512 1041 438 964 Q364 887 221 878 L241 968 Q389 985 427 1156 L297 1156 L353 1391 Z M799 1391 L1040 1391 L992 1185 Q958 1041 884 964 Q810 887 667 878 L687 968 Q836 985 874 1156 L744 1156 L799 1391 Z " />
<glyph glyph-name="quoteleft" unicode="&#x2018;" horiz-adv-x="575" d="M478 878 L237 878 L285 1083 Q319 1227 393 1304.5 Q467 1382 610 1391 L590 1305 Q443 1288 404 1113 L533 1113 L478 878 Z " />
<glyph glyph-name="quoteright" unicode="&#x2019;" horiz-adv-x="575" d="M357 1391 L598 1391 L550 1185 Q516 1041 442 964 Q368 887 225 878 L245 968 Q393 985 431 1156 L301 1156 L357 1391 Z " />
<glyph glyph-name="divide" unicode="&#xf7;" horiz-adv-x="1366" d="M729 1214 Q769 1214 798 1185.5 Q827 1157 827 1116 Q827 1075 798 1046.5 Q769 1018 729 1018 Q689 1018 660 1046.5 Q631 1075 631 1116 Q631 1157 660 1185.5 Q689 1214 729 1214 Z M181 776 L1277 776 L1277 619 L181 619 L181 776 Z M729 376 Q768 376 797.5 348.5 Q827 321 827 279 Q827 238 798 209.5 Q769 181 729 181 Q689 181 660 209.5 Q631 238 631 279 Q631 320 660 348 Q689 376 729 376 Z " />
<glyph glyph-name="lozenge" unicode="&#x25ca;" horiz-adv-x="1012" d="M600 1422 L1018 709 L600 0 L489 0 L98 709 L489 1422 L600 1422 Z M546 1325 L206 709 L546 94 L905 709 L546 1325 Z " />
<glyph glyph-name="ydieresis" unicode="&#xff;" horiz-adv-x="1044" d="M81 -274 L273 6 L228 805 L117 805 L156 968 L536 968 L498 805 L397 805 L431 237 L824 805 L691 805 L729 968 L1125 968 L1087 805 L996 805 L146 -437 L-141 -437 L-103 -274 L81 -274 Z M775 1254 Q775 1301 808 1334 Q841 1367 887 1367 Q935 1367 967 1333.5 Q999 1300 999 1255 Q999 1209 966.5 1175.5 Q934 1142 887 1142 Q841 1142 808 1175 Q775 1208 775 1254 Z M359 1255 Q359 1299 390.5 1333 Q422 1367 471 1367 Q518 1367 550.5 1334 Q583 1301 583 1255 Q583 1208 550 1175 Q517 1142 471 1142 Q423 1142 391 1175.5 Q359 1209 359 1255 Z " />
<glyph glyph-name="Ydieresis" unicode="&#x178;" horiz-adv-x="1174" d="M488 626 L279 1228 L134 1228 L172 1391 L631 1391 L592 1228 L462 1228 L624 769 L1049 1228 L881 1228 L920 1391 L1400 1391 L1362 1228 L1246 1228 L690 626 L581 163 L722 163 L684 0 L207 0 L246 163 L379 163 L488 626 Z M927 1611 Q927 1658 960 1691 Q993 1724 1039 1724 Q1087 1724 1119 1690.5 Q1151 1657 1151 1612 Q1151 1566 1118.5 1532.5 Q1086 1499 1039 1499 Q993 1499 960 1532 Q927 1565 927 1611 Z M511 1612 Q511 1656 542.5 1690 Q574 1724 623 1724 Q670 1724 702.5 1691 Q735 1658 735 1612 Q735 1565 702 1532 Q669 1499 623 1499 Q575 1499 543 1532.5 Q511 1566 511 1612 Z " />
<glyph glyph-name="fraction" unicode="&#x2215;" horiz-adv-x="662" d="M-407 0 L1021 1391 L1154 1391 L-274 0 L-407 0 Z " />
<glyph glyph-name="Euro" unicode="&#x20ac;" horiz-adv-x="1087" d="M1253 1391 L1194 1028 L1063 1028 Q1055 1146 986 1207 Q917 1268 803 1268 Q677 1268 571 1171.5 Q465 1075 399 899 L862 899 L840 758 L360 758 Q347 690 344 635 L823 635 L801 494 L342 494 Q357 324 433 224.5 Q509 125 618 125 Q724 125 798 179.5 Q872 234 948 346 L1061 252 Q978 113 871.5 45 Q765 -23 608 -23 Q423 -23 305.5 115 Q188 253 166 494 L61 494 L84 635 L164 635 Q172 716 180 758 L76 758 L98 899 L215 899 Q297 1140 457.5 1277.5 Q618 1415 815 1415 Q1002 1415 1096 1296 L1116 1391 L1253 1391 Z " />
<glyph glyph-name="guilsinglleft" unicode="&#x2039;" horiz-adv-x="532" d="M54 519 L408 968 L611 968 L233 485 L383 8 L216 8 L54 519 Z " />
<glyph glyph-name="guilsinglright" unicode="&#x203a;" horiz-adv-x="532" d="M482 457 L128 8 L-75 8 L303 491 L153 968 L320 968 L482 457 Z " />
<glyph glyph-name="uniF001" unicode="&#xf001;" horiz-adv-x="1130" d="M1068 968 L879 163 L1009 163 L971 0 L555 0 L593 163 L698 163 L847 805 L451 805 L301 163 L432 163 L393 0 L-23 0 L15 163 L121 163 L271 805 L121 805 L160 968 L309 968 L320 1015 Q380 1273 470.5 1344 Q561 1415 658 1415 Q756 1415 847 1348 L773 1220 Q714 1262 671 1262 Q617 1262 576 1218 Q535 1174 490 968 L1068 968 Z M1036 1414 Q1082 1414 1115.5 1381.5 Q1149 1349 1149 1301 Q1149 1255 1116 1221.5 Q1083 1188 1036 1188 Q989 1188 956 1221.5 Q923 1255 923 1301 Q923 1350 957 1382 Q991 1414 1036 1414 Z " />
<glyph glyph-name="uniF002" unicode="&#xf002;" horiz-adv-x="1130" d="M1159 1391 L872 163 L1002 163 L964 0 L548 0 L587 163 L690 163 L940 1228 L763 1228 Q708 1260 663 1260 Q597 1260 561 1208.5 Q525 1157 492 1011 L482 968 L626 968 L587 805 L444 805 L293 163 L422 163 L384 0 L-32 0 L6 163 L113 163 L263 805 L113 805 L152 968 L301 968 L311 1011 Q345 1155 381 1234 Q417 1313 489 1364 Q561 1415 651 1415 Q706 1415 763 1391 L1159 1391 Z " />
<glyph glyph-name="daggerdbl" unicode="&#x2021;" horiz-adv-x="1004" d="M1053 968 L1011 790 L813 790 Q746 845 624 849 Q603 756 603 671 Q603 586 624 494 Q501 346 451 130 Q580 134 670 183 L869 183 L826 0 L624 0 Q556 65 441 65 L436 65 Q424 2 424 -59 Q424 -127 442 -192 L386 -437 L190 -437 L248 -192 Q324 -99 372 65 Q245 59 147 0 L-48 0 L-5 183 L190 183 Q276 131 386 130 Q404 188 404 309 Q404 393 379 494 Q504 640 554 849 Q416 844 332 790 L137 790 L179 968 L372 968 Q440 918 569 913 Q583 986 583 1052 Q583 1106 569 1180 L624 1413 L819 1413 L764 1180 Q672 1047 635 913 Q779 921 855 968 L1053 968 Z " />
<glyph glyph-name="middot" unicode="&#x2219;" horiz-adv-x="598" d="M196 580 L251 815 L492 815 L437 580 L196 580 Z " />
<glyph glyph-name="quotesinglbase" unicode="&#x201a;" horiz-adv-x="575" d="M109 235 L350 235 L302 30 Q268 -114 194 -191.5 Q120 -269 -23 -278 L-3 -188 Q145 -171 183 0 L53 0 L109 235 Z " />
<glyph glyph-name="quotedblbase" unicode="&#x201e;" horiz-adv-x="1004" d="M105 235 L346 235 L298 30 Q264 -114 190 -191.5 Q116 -269 -27 -278 L-7 -192 Q141 -173 179 0 L49 0 L105 235 Z M551 235 L792 235 L744 30 Q711 -114 636.5 -191.5 Q562 -269 419 -278 L440 -192 Q587 -173 626 0 L496 0 L551 235 Z " />
<glyph glyph-name="perthousand" unicode="&#x2030;" horiz-adv-x="2218" d="M32 957 Q32 1130 132 1272.5 Q232 1415 407 1415 Q535 1415 599 1339 Q663 1263 663 1129 Q663 952 564.5 814.5 Q466 677 294 677 Q173 677 102.5 749 Q32 821 32 957 Z M182 953 Q182 871 219.5 831.5 Q257 792 308 792 Q398 792 458.5 906.5 Q519 1021 519 1155 Q519 1214 488.5 1257 Q458 1300 395 1300 Q308 1300 245 1185.5 Q182 1071 182 953 Z M-21 0 L1407 1391 L1540 1391 L112 0 L-21 0 Z M852 258 Q852 428 951.5 570.5 Q1051 713 1229 713 Q1354 713 1418.5 637.5 Q1483 562 1483 429 Q1483 253 1384.5 116 Q1286 -21 1113 -21 Q984 -21 918 56 Q852 133 852 258 Z M1002 254 Q1002 172 1039.5 132 Q1077 92 1128 92 Q1222 92 1280.5 211.5 Q1339 331 1339 455 Q1339 517 1307 558.5 Q1275 600 1215 600 Q1115 600 1058.5 473.5 Q1002 347 1002 254 Z M1644 258 Q1644 428 1743.5 570.5 Q1843 713 2021 713 Q2141 713 2208 641 Q2275 569 2275 429 Q2275 253 2177 116 Q2079 -21 1906 -21 Q1776 -21 1710 56 Q1644 133 1644 258 Z M1795 254 Q1795 172 1832 132 Q1869 92 1920 92 Q2014 92 2072.5 211.5 Q2131 331 2131 455 Q2131 517 2099.5 558.5 Q2068 600 2007 600 Q1920 600 1857.5 486 Q1795 372 1795 254 Z " />
<glyph glyph-name="Acircumflex" unicode="&#xc2;" horiz-adv-x="1323" d="M917 487 L429 487 L257 163 L408 163 L370 0 L-125 0 L-87 163 L41 163 L641 1228 L487 1228 L525 1391 L1204 1391 L1166 1228 L1022 1228 L1146 163 L1275 163 L1237 0 L745 0 L784 163 L948 163 L917 487 Z M902 650 L850 1228 L816 1228 L517 650 L902 650 Z M568 1483 L813 1789 L1075 1789 L1172 1483 L1035 1483 L913 1642 L706 1483 L568 1483 Z " />
<glyph glyph-name="Ecircumflex" unicode="&#xca;" horiz-adv-x="1174" d="M127 163 L376 1228 L244 1228 L282 1391 L1285 1391 L1187 972 L1022 972 L1082 1228 L578 1228 L478 801 L911 801 L875 638 L440 638 L329 163 L846 163 L911 429 L1074 429 L974 0 L-38 0 L0 163 L127 163 Z M494 1483 L739 1789 L1001 1789 L1098 1483 L961 1483 L839 1642 L632 1483 L494 1483 Z " />
<glyph glyph-name="Aacute" unicode="&#xc1;" horiz-adv-x="1323" d="M917 487 L429 487 L257 163 L408 163 L370 0 L-125 0 L-87 163 L41 163 L641 1228 L487 1228 L525 1391 L1204 1391 L1166 1228 L1022 1228 L1146 163 L1275 163 L1237 0 L745 0 L784 163 L948 163 L917 487 Z M902 650 L850 1228 L816 1228 L517 650 L902 650 Z M773 1516 L938 1802 L1295 1802 L913 1516 L773 1516 Z " />
<glyph glyph-name="Edieresis" unicode="&#xcb;" horiz-adv-x="1174" d="M127 163 L376 1228 L244 1228 L282 1391 L1285 1391 L1187 972 L1022 972 L1082 1228 L578 1228 L478 801 L911 801 L875 638 L440 638 L329 163 L846 163 L911 429 L1074 429 L974 0 L-38 0 L0 163 L127 163 Z M933 1611 Q933 1658 966 1691 Q999 1724 1045 1724 Q1093 1724 1125 1690.5 Q1157 1657 1157 1612 Q1157 1566 1124.5 1532.5 Q1092 1499 1045 1499 Q999 1499 966 1532 Q933 1565 933 1611 Z M517 1612 Q517 1656 548.5 1690 Q580 1724 629 1724 Q676 1724 708.5 1691 Q741 1658 741 1612 Q741 1565 708 1532 Q675 1499 629 1499 Q581 1499 549 1532.5 Q517 1566 517 1612 Z " />
<glyph glyph-name="Egrave" unicode="&#xc8;" horiz-adv-x="1174" d="M127 163 L376 1228 L244 1228 L282 1391 L1285 1391 L1187 972 L1022 972 L1082 1228 L578 1228 L478 801 L911 801 L875 638 L440 638 L329 163 L846 163 L911 429 L1074 429 L974 0 L-38 0 L0 163 L127 163 Z M1054 1516 L914 1516 L534 1802 L891 1802 L1054 1516 Z " />
<glyph glyph-name="Iacute" unicode="&#xcd;" horiz-adv-x="598" d="M128 163 L378 1228 L262 1228 L300 1391 L722 1391 L684 1228 L579 1228 L330 163 L456 163 L418 0 L-20 0 L18 163 L128 163 Z M425 1516 L590 1802 L947 1802 L565 1516 L425 1516 Z " />
<glyph glyph-name="Icircumflex" unicode="&#xce;" horiz-adv-x="598" d="M128 163 L378 1228 L262 1228 L300 1391 L722 1391 L684 1228 L579 1228 L330 163 L456 163 L418 0 L-20 0 L18 163 L128 163 Z M206 1483 L451 1789 L713 1789 L810 1483 L673 1483 L551 1642 L344 1483 L206 1483 Z " />
<glyph glyph-name="Idieresis" unicode="&#xcf;" horiz-adv-x="598" d="M128 163 L378 1228 L262 1228 L300 1391 L722 1391 L684 1228 L579 1228 L330 163 L456 163 L418 0 L-20 0 L18 163 L128 163 Z M645 1611 Q645 1658 678 1691 Q711 1724 757 1724 Q805 1724 837 1690.5 Q869 1657 869 1612 Q869 1566 836.5 1532.5 Q804 1499 757 1499 Q711 1499 678 1532 Q645 1565 645 1611 Z M229 1612 Q229 1656 260.5 1690 Q292 1724 341 1724 Q388 1724 420.5 1691 Q453 1658 453 1612 Q453 1565 420 1532 Q387 1499 341 1499 Q293 1499 261 1532.5 Q229 1566 229 1612 Z " />
<glyph glyph-name="Igrave" unicode="&#xcc;" horiz-adv-x="598" d="M128 163 L378 1228 L262 1228 L300 1391 L722 1391 L684 1228 L579 1228 L330 163 L456 163 L418 0 L-20 0 L18 163 L128 163 Z M694 1516 L554 1516 L174 1802 L531 1802 L694 1516 Z " />
<glyph glyph-name="Oacute" unicode="&#xd3;" horiz-adv-x="1599" d="M133 540 Q133 726 221.5 926.5 Q310 1127 507 1270 Q704 1413 972 1413 Q1250 1413 1405 1257 Q1560 1101 1560 850 Q1560 655 1462.5 453.5 Q1365 252 1173.5 115 Q982 -22 717 -22 Q421 -22 277 146 Q133 314 133 540 Z M345 531 Q345 385 440 267.5 Q535 150 726 150 Q910 150 1050 259 Q1190 368 1267.5 539.5 Q1345 711 1345 864 Q1345 1019 1243 1131.5 Q1141 1244 963 1244 Q788 1244 637.5 1132 Q487 1020 416 853 Q345 686 345 531 Z M877 1516 L1042 1802 L1399 1802 L1017 1516 L877 1516 Z " />
<glyph glyph-name="Ocircumflex" unicode="&#xd4;" horiz-adv-x="1599" d="M133 540 Q133 726 221.5 926.5 Q310 1127 507 1270 Q704 1413 972 1413 Q1250 1413 1405 1257 Q1560 1101 1560 850 Q1560 655 1462.5 453.5 Q1365 252 1173.5 115 Q982 -22 717 -22 Q421 -22 277 146 Q133 314 133 540 Z M345 531 Q345 385 440 267.5 Q535 150 726 150 Q910 150 1050 259 Q1190 368 1267.5 539.5 Q1345 711 1345 864 Q1345 1019 1243 1131.5 Q1141 1244 963 1244 Q788 1244 637.5 1132 Q487 1020 416 853 Q345 686 345 531 Z M706 1483 L951 1789 L1213 1789 L1310 1483 L1173 1483 L1051 1642 L844 1483 L706 1483 Z " />
<glyph glyph-name="Ograve" unicode="&#xd2;" horiz-adv-x="1599" d="M133 540 Q133 726 221.5 926.5 Q310 1127 507 1270 Q704 1413 972 1413 Q1250 1413 1405 1257 Q1560 1101 1560 850 Q1560 655 1462.5 453.5 Q1365 252 1173.5 115 Q982 -22 717 -22 Q421 -22 277 146 Q133 314 133 540 Z M345 531 Q345 385 440 267.5 Q535 150 726 150 Q910 150 1050 259 Q1190 368 1267.5 539.5 Q1345 711 1345 864 Q1345 1019 1243 1131.5 Q1141 1244 963 1244 Q788 1244 637.5 1132 Q487 1020 416 853 Q345 686 345 531 Z M1194 1516 L1054 1516 L674 1802 L1031 1802 L1194 1516 Z " />
<glyph glyph-name="Uacute" unicode="&#xda;" horiz-adv-x="1300" d="M274 1391 L722 1391 L683 1228 L562 1228 L395 515 Q361 371 361 326 Q361 238 427 188 Q493 138 588 138 Q696 138 761.5 181 Q827 224 862.5 302 Q898 380 934 532 L1097 1228 L975 1228 L1013 1391 L1454 1391 L1416 1228 L1299 1228 L1132 515 Q1082 303 1024 198.5 Q966 94 851 36 Q736 -22 576 -22 Q366 -22 264 70 Q162 162 162 304 Q162 382 199 538 L360 1228 L236 1228 L274 1391 Z M751 1516 L916 1802 L1273 1802 L891 1516 L751 1516 Z " />
<glyph glyph-name="Ucircumflex" unicode="&#xdb;" horiz-adv-x="1300" d="M274 1391 L722 1391 L683 1228 L562 1228 L395 515 Q361 371 361 326 Q361 238 427 188 Q493 138 588 138 Q696 138 761.5 181 Q827 224 862.5 302 Q898 380 934 532 L1097 1228 L975 1228 L1013 1391 L1454 1391 L1416 1228 L1299 1228 L1132 515 Q1082 303 1024 198.5 Q966 94 851 36 Q736 -22 576 -22 Q366 -22 264 70 Q162 162 162 304 Q162 382 199 538 L360 1228 L236 1228 L274 1391 Z M557 1483 L802 1789 L1064 1789 L1161 1483 L1024 1483 L902 1642 L695 1483 L557 1483 Z " />
<glyph glyph-name="Ugrave" unicode="&#xd9;" horiz-adv-x="1300" d="M274 1391 L722 1391 L683 1228 L562 1228 L395 515 Q361 371 361 326 Q361 238 427 188 Q493 138 588 138 Q696 138 761.5 181 Q827 224 862.5 302 Q898 380 934 532 L1097 1228 L975 1228 L1013 1391 L1454 1391 L1416 1228 L1299 1228 L1132 515 Q1082 303 1024 198.5 Q966 94 851 36 Q736 -22 576 -22 Q366 -22 264 70 Q162 162 162 304 Q162 382 199 538 L360 1228 L236 1228 L274 1391 Z M1056 1516 L916 1516 L536 1802 L893 1802 L1056 1516 Z " />
<glyph glyph-name="dotlessi" unicode="&#x131;" horiz-adv-x="575" d="M139 163 L290 805 L157 805 L195 968 L509 968 L320 163 L461 163 L423 0 L-6 0 L32 163 L139 163 Z " />
<glyph glyph-name="circumflex" unicode="&#x2c6;" horiz-adv-x="682" d="M175 1105 L420 1411 L682 1411 L779 1105 L642 1105 L520 1264 L313 1105 L175 1105 Z " />
<glyph glyph-name="tilde" unicode="&#x2dc;" horiz-adv-x="682" d="M736 1397 L849 1397 Q850 1372 850 1355 Q850 1246 801.5 1179 Q753 1112 672 1112 Q603 1112 455 1205 Q405 1237 376 1237 Q308 1237 304 1127 L188 1127 Q188 1270 244 1334 Q300 1398 379 1398 Q437 1398 554 1328 Q645 1273 671 1273 Q733 1273 736 1397 Z " />
<glyph glyph-name="overscore" unicode="&#x2c9;" horiz-adv-x="682" d="M173 1186 L208 1333 L872 1333 L837 1186 L173 1186 Z " />
<glyph glyph-name="breve" unicode="&#x2d8;" horiz-adv-x="682" d="M722 1399 L822 1399 Q788 1269 702.5 1192.5 Q617 1116 513 1116 Q409 1116 343.5 1193 Q278 1270 278 1399 L384 1399 Q389 1330 429.5 1292 Q470 1254 527 1254 Q586 1254 640 1296 Q694 1338 722 1399 Z " />
<glyph glyph-name="dotaccent" unicode="&#x2d9;" horiz-adv-x="682" d="M389 1255 Q389 1299 420.5 1333 Q452 1367 501 1367 Q548 1367 580.5 1334 Q613 1301 613 1255 Q613 1208 580 1175 Q547 1142 501 1142 Q453 1142 421 1175.5 Q389 1209 389 1255 Z " />
<glyph glyph-name="ring" unicode="&#x2da;" horiz-adv-x="682" d="M322 1254 Q322 1336 380.5 1395 Q439 1454 521 1454 Q603 1454 661.5 1395.5 Q720 1337 720 1255 Q720 1172 661.5 1114 Q603 1056 521 1056 Q439 1056 380.5 1114 Q322 1172 322 1254 Z M400 1254 Q400 1205 436 1169.5 Q472 1134 521 1134 Q570 1134 606 1169 Q642 1204 642 1255 Q642 1305 606.5 1340 Q571 1375 521 1375 Q469 1375 434.5 1339 Q400 1303 400 1254 Z " />
<glyph glyph-name="cedilla" unicode="&#xb8;" horiz-adv-x="682" d="M270 18 L220 -97 Q287 -104 325 -143.5 Q363 -183 363 -238 Q363 -332 273.5 -387.5 Q184 -443 43 -443 Q-26 -443 -112 -429 L-79 -342 Q-37 -347 3 -347 Q90 -347 136.5 -322 Q183 -297 183 -254 Q183 -223 158 -205 Q133 -187 99 -187 L74 -187 L168 18 L270 18 Z " />
<glyph glyph-name="hungarumlaut" unicode="&#x2dd;" horiz-adv-x="682" d="M168 1125 L333 1411 L690 1411 L308 1125 L168 1125 Z M590 1125 L755 1411 L1112 1411 L730 1125 L590 1125 Z " />
<glyph glyph-name="ogonek" unicode="&#x2db;" horiz-adv-x="682" d="M117 0 L277 0 Q194 -114 194 -187 Q194 -269 285 -269 Q315 -269 363 -258 L316 -396 Q237 -433 158 -433 Q0 -433 0 -287 Q0 -157 117 0 Z " />
<glyph glyph-name="caron" unicode="&#x2c7;" horiz-adv-x="682" d="M830 1411 L585 1105 L323 1105 L226 1411 L363 1411 L485 1252 L692 1411 L830 1411 Z " />
<glyph glyph-name="Scaron" unicode="&#x160;" horiz-adv-x="1067" d="M0 0 L89 382 L258 382 L229 257 Q335 137 491 137 Q599 137 672 199.5 Q745 262 745 352 Q745 431 696 489.5 Q647 548 504 644 Q353 747 293.5 835.5 Q234 924 234 1041 Q234 1208 350.5 1310.5 Q467 1413 649 1413 Q829 1413 943 1296 L964 1391 L1132 1391 L1044 1014 L876 1014 L901 1120 Q862 1181 790.5 1219 Q719 1257 643 1257 Q546 1257 481 1204 Q416 1151 416 1063 Q416 998 458 941.5 Q500 885 622 803 Q748 719 804.5 668.5 Q861 618 896 545.5 Q931 473 931 382 Q931 199 801.5 88.5 Q672 -22 469 -22 Q305 -22 186 74 L169 0 L0 0 Z M1095 1789 L850 1483 L588 1483 L491 1789 L628 1789 L750 1630 L957 1789 L1095 1789 Z " />
<glyph glyph-name="scaron" unicode="&#x161;" horiz-adv-x="874" d="M20 270 L184 270 Q184 202 244 165 Q304 128 401 128 Q490 128 538.5 164 Q587 200 587 252 Q587 301 545 337.5 Q503 374 397 415 Q290 457 235 490 Q180 523 144 581 Q108 639 108 704 Q108 816 201 899.5 Q294 983 457 983 Q609 983 707 899 L727 968 L888 968 L825 699 L663 699 Q661 773 596 804 Q531 835 454 835 Q374 835 328.5 803 Q283 771 283 723 Q283 684 310 658.5 Q337 633 413 604 Q629 521 698 446 Q767 371 767 265 Q767 139 669.5 61.5 Q572 -16 383 -16 Q207 -16 134 63 L120 0 L-44 0 L20 270 Z M926 1411 L681 1105 L419 1105 L322 1411 L459 1411 L581 1252 L788 1411 L926 1411 Z " />
<glyph glyph-name="brokenbar" unicode="&#xa6;" horiz-adv-x="1079" d="M507 1415 L664 1415 L664 637 L507 637 L507 1415 Z M507 322 L664 322 L664 -456 L507 -456 L507 322 Z " />
<glyph glyph-name="Eth" unicode="&#xd0;" horiz-adv-x="1450" d="M239 629 L57 629 L88 762 L271 762 L380 1228 L239 1228 L277 1391 L609 1391 Q825 1391 940 1375 Q1055 1359 1168 1286.5 Q1281 1214 1346 1089.5 Q1411 965 1411 818 Q1411 612 1327 441 Q1243 270 1119 171 Q995 72 829.5 36 Q664 0 332 0 L-26 0 L12 163 L130 163 L239 629 Z M441 629 L332 163 L418 163 Q690 163 840 215.5 Q990 268 1094.5 449.5 Q1199 631 1199 828 Q1199 968 1127.5 1069 Q1056 1170 951 1199 Q846 1228 657 1228 L582 1228 L473 762 L784 762 L754 629 L441 629 Z " />
<glyph glyph-name="eth" unicode="&#xf0;" horiz-adv-x="1173" d="M839 1318 L1040 1391 L1072 1309 L892 1245 Q1094 944 1094 654 Q1094 383 933.5 177.5 Q773 -28 494 -28 Q308 -28 192.5 88.5 Q77 205 77 385 Q77 642 248.5 818.5 Q420 995 654 995 Q762 995 865 927 Q823 1056 740 1191 L441 1085 L411 1163 L692 1265 Q644 1332 592 1391 L775 1391 Q803 1364 839 1318 Z M629 825 Q477 825 375.5 698 Q274 571 274 399 Q274 275 342 208.5 Q410 142 519 142 Q692 142 791 277 Q890 412 890 565 Q890 683 823 754 Q756 825 629 825 Z " />
<glyph glyph-name="Yacute" unicode="&#xdd;" horiz-adv-x="1174" d="M488 626 L279 1228 L134 1228 L172 1391 L631 1391 L592 1228 L462 1228 L624 769 L1049 1228 L881 1228 L920 1391 L1400 1391 L1362 1228 L1246 1228 L690 626 L581 163 L722 163 L684 0 L207 0 L246 163 L379 163 L488 626 Z M707 1516 L872 1802 L1229 1802 L847 1516 L707 1516 Z " />
<glyph glyph-name="yacute" unicode="&#xfd;" horiz-adv-x="1044" d="M81 -274 L273 6 L228 805 L117 805 L156 968 L536 968 L498 805 L397 805 L431 237 L824 805 L691 805 L729 968 L1125 968 L1087 805 L996 805 L146 -437 L-141 -437 L-103 -274 L81 -274 Z M549 1125 L714 1411 L1071 1411 L689 1125 L549 1125 Z " />
<glyph glyph-name="Thorn" unicode="&#xde;" horiz-adv-x="1110" d="M129 163 L379 1228 L245 1228 L283 1391 L755 1391 L717 1228 L581 1228 L557 1126 L595 1126 Q733 1126 805.5 1114.5 Q878 1103 953 1054.5 Q1028 1006 1071.5 922.5 Q1115 839 1115 739 Q1115 590 1037 470 Q959 350 828.5 308 Q698 266 478 266 L355 266 L331 163 L490 163 L455 0 L-37 0 L1 163 L129 163 Z M393 427 L502 427 Q651 427 728.5 450 Q806 473 860 551 Q914 629 914 743 Q914 828 873 881.5 Q832 935 774.5 949 Q717 963 601 963 L519 963 L393 427 Z " />
<glyph glyph-name="thorn" unicode="&#xfe;" horiz-adv-x="1237" d="M252 1391 L575 1391 L445 845 Q593 983 771 983 Q933 983 1046 861.5 Q1159 740 1159 548 Q1159 317 1003.5 144.5 Q848 -28 624 -28 Q409 -28 279 140 L182 -274 L334 -274 L295 -437 L-153 -437 L-115 -274 L1 -274 L353 1228 L214 1228 L252 1391 Z M345 391 Q345 268 416.5 199 Q488 130 598 130 Q762 130 867 257.5 Q972 385 972 553 Q972 679 900.5 748.5 Q829 818 717 818 Q555 818 450 680 Q345 542 345 391 Z " />
<glyph glyph-name="multiply" unicode="&#xd7;" horiz-adv-x="1366" d="M222 301 L618 697 L222 1093 L333 1204 L729 808 L1125 1204 L1236 1093 L840 697 L1236 301 L1125 190 L729 586 L333 190 L222 301 Z " />
<glyph glyph-name="onesuperior" unicode="&#xb9;" horiz-adv-x="662" d="M334 777 L477 1307 L383 1307 L409 1403 L634 1403 L464 777 L551 777 L525 680 L213 680 L239 777 L334 777 Z " />
<glyph glyph-name="twosuperior" unicode="&#xb2;" horiz-adv-x="662" d="M553 938 L675 938 L605 680 L128 680 Q145 787 216.5 871 Q288 955 450 1060 Q554 1128 581.5 1171 Q609 1214 609 1252 Q609 1289 583.5 1308.5 Q558 1328 527 1328 Q470 1328 422.5 1272.5 Q375 1217 358 1126 L231 1126 Q286 1415 519 1415 Q608 1415 662.5 1367.5 Q717 1320 717 1248 Q717 1173 673 1117 Q629 1061 512 985 Q303 849 292 777 L509 777 L553 938 Z " />
<glyph glyph-name="threesuperior" unicode="&#xb3;" horiz-adv-x="662" d="M166 928 L293 928 Q289 894 289 880 Q289 759 408 759 Q485 759 524.5 806 Q564 853 564 906 Q564 1013 421 1013 Q408 1013 376 1011 L401 1102 Q630 1102 630 1242 Q630 1328 532 1328 Q430 1328 390 1200 L267 1200 Q288 1297 358.5 1356 Q429 1415 536 1415 Q631 1415 695.5 1367 Q760 1319 760 1239 Q760 1171 712.5 1117 Q665 1063 592 1050 Q637 1040 669 997.5 Q701 955 701 905 Q701 807 622 738.5 Q543 670 409 670 Q295 670 227.5 727.5 Q160 785 160 874 Q160 897 166 928 Z " />
<glyph glyph-name="onehalf" unicode="&#xbd;" horiz-adv-x="2048" d="M315 777 L459 1307 L365 1307 L391 1403 L616 1403 L446 777 L533 777 L507 680 L195 680 L221 777 L315 777 Z M111 0 L1539 1391 L1672 1391 L243 0 L111 0 Z M1429 257 L1552 257 L1482 0 L1005 0 Q1022 107 1093.5 191 Q1165 275 1327 380 Q1430 448 1458 490.5 Q1486 533 1486 571 Q1486 609 1460.5 628 Q1435 647 1404 647 Q1339 647 1293.5 583.5 Q1248 520 1234 446 L1108 446 Q1163 735 1396 735 Q1485 735 1539.5 687.5 Q1594 640 1594 568 Q1594 492 1550 436.5 Q1506 381 1389 305 Q1180 169 1169 96 L1386 96 L1429 257 Z " />
<glyph glyph-name="onequarter" unicode="&#xbc;" horiz-adv-x="2048" d="M310 777 L454 1307 L360 1307 L386 1403 L611 1403 L441 777 L528 777 L502 680 L190 680 L216 777 L310 777 Z M118 0 L1546 1391 L1679 1391 L250 0 L118 0 Z M1327 195 L1049 195 Q1049 245 1015 284 L1493 728 L1603 728 L1482 277 L1603 277 L1582 195 L1458 195 L1431 96 L1509 96 L1482 0 L1198 0 L1225 96 L1301 96 L1327 195 Z M1350 277 L1420 537 L1140 277 L1350 277 Z " />
<glyph glyph-name="threequarters" unicode="&#xbe;" horiz-adv-x="2048" d="M217 928 L344 928 Q340 894 340 880 Q340 759 459 759 Q536 759 575.5 806 Q615 853 615 906 Q615 1013 472 1013 Q459 1013 427 1011 L452 1102 Q681 1102 681 1242 Q681 1328 583 1328 Q481 1328 441 1200 L318 1200 Q339 1297 409.5 1356 Q480 1415 587 1415 Q682 1415 746.5 1367 Q811 1319 811 1239 Q811 1171 763.5 1117 Q716 1063 643 1050 Q688 1040 720 997.5 Q752 955 752 905 Q752 807 673 738.5 Q594 670 460 670 Q346 670 278.5 727.5 Q211 785 211 874 Q211 897 217 928 Z M213 0 L1641 1391 L1773 1391 L345 0 L213 0 Z M1410 195 L1132 195 Q1131 245 1097 284 L1575 728 L1686 728 L1564 277 L1686 277 L1664 195 L1541 195 L1514 96 L1592 96 L1564 0 L1281 0 L1307 96 L1383 96 L1410 195 Z M1432 277 L1503 537 L1223 277 L1432 277 Z " />
<glyph glyph-name="uni00AF" unicode="&#xaf;" horiz-adv-x="1024" d="M207 1647 L1255 1647 L1255 1545 L207 1545 L207 1647 Z " />
<glyph glyph-name="currency" unicode="&#xa4;" horiz-adv-x="1366" d="M229 1091 L333 1198 L465 1067 Q579 1153 727 1153 Q870 1153 993 1067 L1124 1198 L1228 1091 L1098 961 Q1184 836 1184 693 Q1184 551 1098 434 L1228 305 L1124 200 L993 329 Q868 241 724 241 Q582 241 465 329 L335 200 L229 305 L360 434 Q274 566 274 704 Q274 841 360 961 L229 1091 Z M729 1004 Q603 1004 512.5 914 Q422 824 422 697 Q422 570 512.5 480 Q603 390 729 390 Q856 390 946.5 480 Q1037 570 1037 697 Q1037 829 945.5 916.5 Q854 1004 729 1004 Z " />
</font>
</svg>
