<?xml version="1.0" encoding="UTF-8"?>
<svg xmlns="http://www.w3.org/2000/svg" xmlns:xlink="http://www.w3.org/1999/xlink" version="1.2" >
<font id="Rockwell">
<font-face  font-family="Rockwell" units-per-em="2048" ascent="1419" descent="-456" font-style="normal" font-weight="400" font-stretch="normal" cap-height="1536" x-height="1024" underline-position="-160" underline-thickness="102" />
<missing-glyph  horiz-adv-x="1536" d="M256 0 L256 1280 L1280 1280 L1280 0 L256 0 Z M288 32 L1248 32 L1248 1248 L288 1248 L288 32 Z " />
<glyph glyph-name="space" unicode="&#x20;" horiz-adv-x="512" d="" />
<glyph glyph-name="exclam" unicode="&#x21;" horiz-adv-x="598" d="M349 377 L247 377 L197 968 L197 1391 L399 1391 L399 968 L349 377 Z M176 0 L176 246 L422 246 L422 0 L176 0 Z " />
<glyph glyph-name="quotedbl" unicode="&#x22;" horiz-adv-x="831" d="M209 829 L154 1125 Q132 1246 132 1290 Q132 1413 229 1413 Q273 1413 302.5 1383.5 Q332 1354 332 1306 Q332 1264 306 1123 L252 829 L209 829 Z M575 829 L521 1120 Q497 1248 497 1291 Q497 1413 599 1413 Q644 1413 671.5 1382.5 Q699 1352 699 1307 Q699 1220 680 1121 L623 829 L575 829 Z " />
<glyph glyph-name="numbersign" unicode="&#x23;" horiz-adv-x="1366" d="M552 1019 L948 1019 L1029 1410 L1176 1410 L1095 1019 L1280 1019 L1280 872 L1064 872 L991 519 L1280 519 L1280 372 L960 372 L879 -19 L732 -19 L813 372 L417 372 L336 -19 L189 -19 L270 372 L85 372 L85 519 L301 519 L374 872 L85 872 L85 1019 L405 1019 L486 1410 L633 1410 L552 1019 Z M521 872 L448 519 L844 519 L917 872 L521 872 Z " />
<glyph glyph-name="dollar" unicode="&#x24;" horiz-adv-x="1110" d="M471 -20 Q285 -12 174 105.5 Q63 223 63 392 Q63 401 64 420 L246 420 Q261 170 471 142 L471 602 Q90 677 90 988 Q90 1154 191.5 1260 Q293 1366 471 1381 L471 1444 L622 1444 L622 1381 Q754 1368 857.5 1279 Q961 1190 961 965 L961 941 L785 941 Q785 1069 747 1131.5 Q709 1194 622 1214 L622 770 Q862 725 943 631.5 Q1024 538 1024 395 Q1024 213 919 106.5 Q814 0 622 -20 L622 -175 L471 -175 L471 -20 Z M471 804 L471 1222 Q290 1190 290 1017 Q290 853 471 804 Z M622 570 L622 144 Q832 183 832 367 Q832 442 791 493 Q750 544 622 570 Z " />
<glyph glyph-name="percent" unicode="&#x25;" horiz-adv-x="1985" d="M164 1040 Q164 1207 239 1310 Q314 1413 461 1413 Q598 1413 678 1316 Q758 1219 758 1040 Q758 870 681.5 769 Q605 668 461 668 Q324 668 244 764.5 Q164 861 164 1040 Z M308 1041 Q308 764 461 764 Q613 764 613 1040 Q613 1317 461 1317 Q308 1317 308 1041 Z M367 0 L1471 1391 L1613 1391 L517 0 L367 0 Z M1226 351 Q1226 531 1306.5 627 Q1387 723 1522 723 Q1671 723 1745 619.5 Q1819 516 1819 351 Q1819 171 1739 74.5 Q1659 -22 1523 -22 Q1386 -22 1306 74.5 Q1226 171 1226 351 Z M1370 351 Q1370 74 1522 74 Q1675 74 1675 350 Q1675 627 1523 627 Q1370 627 1370 351 Z " />
<glyph glyph-name="ampersand" unicode="&#x26;" horiz-adv-x="1386" d="M1055 736 L1340 736 L1340 566 L1193 566 Q1139 373 1055 268 L1128 174 L1340 174 L1340 0 L1023 0 L931 122 Q750 -22 561 -22 Q345 -22 204 112 Q63 246 63 447 Q63 725 380 864 Q285 985 285 1107 Q285 1241 386.5 1327 Q488 1413 623 1413 Q763 1413 859.5 1327.5 Q956 1242 956 1115 Q956 1004 888 933 Q820 862 664 798 L947 415 Q1023 548 1055 736 Z M564 930 Q684 980 727.5 1024 Q771 1068 771 1121 Q771 1170 734 1209.5 Q697 1249 627 1249 Q564 1249 522 1211 Q480 1173 480 1112 Q480 1058 552 948 L564 930 Z M486 736 Q270 640 270 456 Q270 334 361 242.5 Q452 151 582 151 Q715 151 824 262 L486 736 Z " />
<glyph glyph-name="quotesingle" unicode="&#x27;" horiz-adv-x="362" d="M158 828 L104 1124 Q81 1248 81 1284 Q81 1413 178 1413 Q226 1413 254 1382 Q282 1351 282 1307 Q282 1267 256 1123 L202 828 L158 828 Z " />
<glyph glyph-name="parenleft" unicode="&#x28;" horiz-adv-x="768" d="M711 1416 L711 1261 Q603 1204 515.5 1082.5 Q428 961 398.5 827 Q369 693 369 485 Q369 251 407 112 Q445 -27 527.5 -127.5 Q610 -228 711 -289 L711 -445 Q503 -360 334.5 -121.5 Q166 117 166 487 Q166 816 313.5 1063 Q461 1310 711 1416 Z " />
<glyph glyph-name="parenright" unicode="&#x29;" horiz-adv-x="768" d="M57 1416 Q299 1308 450.5 1070 Q602 832 602 486 Q602 152 461.5 -80 Q321 -312 57 -445 L57 -289 Q181 -214 261.5 -99 Q342 16 370.5 148.5 Q399 281 399 485 Q399 701 367.5 836 Q336 971 246.5 1089 Q157 1207 57 1261 L57 1416 Z " />
<glyph glyph-name="asterisk" unicode="&#x2a;" horiz-adv-x="1067" d="M622 1413 L622 1244 Q562 1121 560 997 Q694 1045 775 1133 L942 1186 L997 1009 L833 954 Q800 960 772 960 Q664 960 588 938 Q683 819 775 780 L876 640 L728 533 L622 674 Q609 800 532 905 Q455 800 442 674 L336 533 L188 640 L289 780 Q381 819 476 938 Q400 960 292 960 Q265 960 231 954 L67 1009 L122 1186 L289 1133 Q370 1045 504 997 Q502 1121 442 1244 L442 1413 L622 1413 Z " />
<glyph glyph-name="plus" unicode="&#x2b;" horiz-adv-x="1366" d="M135 774 L605 774 L605 1243 L761 1243 L761 774 L1231 774 L1231 617 L761 617 L761 148 L605 148 L605 617 L135 617 L135 774 Z " />
<glyph glyph-name="comma" unicode="&#x2c;" horiz-adv-x="598" d="M176 0 L176 246 L422 246 L422 32 Q422 -77 405 -137 Q388 -197 332.5 -235.5 Q277 -274 176 -277 L176 -173 Q296 -155 296 -24 Q296 -16 295 0 L176 0 Z " />
<glyph glyph-name="&amp;#x2d;" unicode="&#x2d;" horiz-adv-x="725" d="M63 575 L663 575 L663 385 L63 385 L63 575 Z " />
<glyph glyph-name="&amp;#xad;" unicode="&#xad;" horiz-adv-x="725" d="M63 575 L663 575 L663 385 L63 385 L63 575 Z " />
<glyph glyph-name="period" unicode="&#x2e;" horiz-adv-x="598" d="M176 0 L176 246 L422 246 L422 0 L176 0 Z " />
<glyph glyph-name="slash" unicode="&#x2f;" horiz-adv-x="897" d="M720 1419 L886 1419 L176 -22 L10 -22 L720 1419 Z " />
<glyph glyph-name="zero" unicode="0" horiz-adv-x="1110" d="M72 695 Q72 1039 201.5 1226 Q331 1413 555 1413 Q787 1413 912 1219 Q1037 1025 1037 695 Q1037 353 908 165.5 Q779 -22 555 -22 Q321 -22 196.5 173 Q72 368 72 695 Z M276 695 Q276 397 348 268.5 Q420 140 555 140 Q690 140 762 269 Q834 398 834 695 Q834 997 761 1124 Q688 1251 555 1251 Q405 1251 340.5 1106.5 Q276 962 276 695 Z " />
<glyph glyph-name="one" unicode="1" horiz-adv-x="1110" d="M485 169 L485 1222 L295 1222 L295 1389 L675 1389 L675 169 L856 169 L856 0 L295 0 L295 169 L485 169 Z " />
<glyph glyph-name="two" unicode="2" horiz-adv-x="1110" d="M984 497 L971 0 L82 0 Q82 144 133.5 275 Q185 406 278.5 504 Q372 602 564 742 Q685 831 728 890.5 Q771 950 771 1029 Q771 1126 710 1187.5 Q649 1249 542 1249 Q417 1249 359 1179 Q301 1109 301 949 Q301 909 303 873 L118 873 Q117 909 117 932 Q117 1158 224 1285.5 Q331 1413 538 1413 Q747 1413 858.5 1304 Q970 1195 970 1036 Q970 903 897 809 Q824 715 618 570 Q418 428 355.5 339 Q293 250 283 181 L807 181 L815 497 L984 497 Z " />
<glyph glyph-name="three" unicode="3" horiz-adv-x="1110" d="M419 640 L419 812 Q565 812 631.5 829 Q698 846 735 896.5 Q772 947 772 1024 Q772 1117 717.5 1184 Q663 1251 556 1251 Q438 1251 384 1180.5 Q330 1110 325 970 L132 970 Q132 1210 250.5 1311.5 Q369 1413 541 1413 Q750 1413 856 1310 Q962 1207 962 1047 Q962 929 901.5 848 Q841 767 765 733 Q1025 656 1025 401 Q1025 189 882.5 83.5 Q740 -22 548 -22 Q303 -22 185.5 109 Q68 240 68 471 L252 471 Q257 311 339.5 226.5 Q422 142 559 142 Q684 142 755.5 211.5 Q827 281 827 387 Q827 498 743 569.5 Q659 641 475 641 Q451 641 419 640 Z " />
<glyph glyph-name="four" unicode="4" horiz-adv-x="1110" d="M617 374 L149 374 Q125 467 60 531 L639 1402 L800 1402 L800 542 L1022 542 L1022 374 L800 374 L800 169 L927 169 L927 0 L469 0 L469 169 L617 169 L617 374 Z M617 542 L617 1090 L252 542 L617 542 Z " />
<glyph glyph-name="five" unicode="5" horiz-adv-x="1110" d="M73 444 L253 444 Q269 304 344.5 221 Q420 138 544 138 Q669 138 745 224 Q821 310 821 445 Q821 588 747 663.5 Q673 739 563 739 Q398 739 284 572 Q220 635 139 673 L196 1389 L938 1389 L938 1020 L766 1020 L766 1210 L340 1210 L309 803 Q436 906 592 906 Q790 906 904.5 774 Q1019 642 1019 447 Q1019 241 893.5 109.5 Q768 -22 542 -22 Q332 -22 210 97 Q88 216 73 444 Z " />
<glyph glyph-name="six" unicode="6" horiz-adv-x="1110" d="M986 980 L817 980 Q802 1099 733.5 1174 Q665 1249 567 1249 Q434 1249 360 1110.5 Q286 972 283 731 Q425 885 610 885 Q769 885 882.5 767.5 Q996 650 996 453 Q996 257 884 117.5 Q772 -22 578 -22 Q361 -22 230.5 156.5 Q100 335 100 687 Q100 1022 226 1217.5 Q352 1413 589 1413 Q775 1413 877.5 1290.5 Q980 1168 986 980 Z M293 521 Q338 143 569 143 Q687 143 753 230 Q819 317 819 438 Q819 557 756.5 630 Q694 703 588 703 Q439 703 293 521 Z " />
<glyph glyph-name="seven" unicode="7" horiz-adv-x="1110" d="M223 0 L223 169 L408 169 Q423 438 533 732 Q643 1026 772 1210 L293 1210 L293 1023 L121 1023 L121 1389 L990 1389 L990 1247 Q854 1084 732 752.5 Q610 421 610 169 L772 169 L772 0 L223 0 Z " />
<glyph glyph-name="eight" unicode="8" horiz-adv-x="1110" d="M315 727 Q111 846 111 1048 Q111 1225 238 1319 Q365 1413 543 1413 Q753 1413 875 1315 Q997 1217 997 1048 Q997 848 793 727 Q1040 630 1040 383 Q1040 199 911.5 88.5 Q783 -22 565 -22 Q320 -22 194 88.5 Q68 199 68 383 Q68 630 315 727 Z M299 1030 Q299 920 369 862.5 Q439 805 560 805 Q663 805 736 860.5 Q809 916 809 1030 Q809 1248 548 1248 Q435 1248 367 1192 Q299 1136 299 1030 Z M270 391 Q270 281 346 210.5 Q422 140 554 140 Q679 140 758.5 208 Q838 276 838 392 Q838 503 763.5 573 Q689 643 548 643 Q426 643 348 576 Q270 509 270 391 Z " />
<glyph glyph-name="nine" unicode="9" horiz-adv-x="1110" d="M104 411 L273 411 Q288 292 357 217 Q426 142 523 142 Q657 142 731 281 Q805 420 807 660 Q666 506 481 506 Q316 506 205 625 Q94 744 94 938 Q94 1134 206 1273.5 Q318 1413 513 1413 Q730 1413 860 1234.5 Q990 1056 990 704 Q990 369 864.5 173.5 Q739 -22 501 -22 Q316 -22 213 100.5 Q110 223 104 411 Z M797 870 Q754 1248 521 1248 Q406 1248 338.5 1162.5 Q271 1077 271 953 Q271 840 330.5 764 Q390 688 503 688 Q651 688 797 870 Z " />
<glyph glyph-name="colon" unicode="&#x3a;" horiz-adv-x="598" d="M176 722 L176 968 L422 968 L422 722 L176 722 Z M176 0 L176 246 L422 246 L422 0 L176 0 Z " />
<glyph glyph-name="semicolon" unicode="&#x3b;" horiz-adv-x="598" d="M176 722 L176 968 L422 968 L422 722 L176 722 Z M176 0 L176 246 L422 246 L422 32 Q422 -77 405 -137 Q388 -197 332.5 -235.5 Q277 -274 176 -277 L176 -173 Q296 -155 296 -24 Q296 -16 295 0 L176 0 Z " />
<glyph glyph-name="less" unicode="&#x3c;" horiz-adv-x="1366" d="M1231 165 L135 625 L135 766 L1231 1226 L1231 1056 L349 695 L1231 335 L1231 165 Z " />
<glyph glyph-name="equal" unicode="&#x3d;" horiz-adv-x="1366" d="M135 1009 L1231 1009 L1231 852 L135 852 L135 1009 Z M135 539 L1231 539 L1231 382 L135 382 L135 539 Z " />
<glyph glyph-name="greater" unicode="&#x3e;" horiz-adv-x="1366" d="M135 1226 L1231 766 L1231 625 L135 165 L135 335 L1017 695 L135 1056 L135 1226 Z " />
<glyph glyph-name="question" unicode="&#x3f;" horiz-adv-x="961" d="M486 375 L383 375 L359 817 Q406 805 453 805 Q584 805 642 871 Q700 937 700 1028 Q700 1134 637.5 1192.5 Q575 1251 479 1251 Q362 1251 305.5 1184 Q249 1117 249 1017 Q249 996 250 968 L63 968 Q62 995 62 1014 Q62 1219 183.5 1316 Q305 1413 473 1413 Q675 1413 786 1304.5 Q897 1196 897 1019 Q897 848 791.5 746 Q686 644 543 644 Q532 644 511 645 L486 375 Z M311 0 L311 246 L556 246 L556 0 L311 0 Z " />
<glyph glyph-name="at" unicode="&#x40;" horiz-adv-x="2068" d="M1164 138 Q1019 -28 857 -28 Q710 -28 602.5 95.5 Q495 219 495 420 Q495 657 654 857.5 Q813 1058 1014 1058 Q1204 1058 1316 875 L1350 1030 L1529 1030 L1385 358 Q1355 219 1355 203 Q1355 174 1377 155.5 Q1399 137 1423 137 Q1476 137 1573.5 204.5 Q1671 272 1741 406 Q1811 540 1811 691 Q1811 965 1604.5 1143.5 Q1398 1322 1096 1322 Q726 1322 494 1071.5 Q262 821 262 462 Q262 90 492 -109 Q722 -308 1123 -308 Q1358 -308 1542.5 -229 Q1727 -150 1827 -6 L2008 -6 Q1925 -178 1698 -317 Q1471 -456 1126 -456 Q642 -456 378 -210.5 Q114 35 114 443 Q114 853 374 1160 Q634 1467 1105 1467 Q1489 1467 1724 1239.5 Q1959 1012 1959 687 Q1959 410 1771 190.5 Q1583 -29 1356 -29 Q1256 -29 1214 12 Q1172 53 1164 138 Z M680 403 Q680 278 743 199 Q806 120 893 120 Q1030 120 1144.5 272.5 Q1259 425 1259 624 Q1259 757 1192.5 833.5 Q1126 910 1027 910 Q875 910 777.5 743 Q680 576 680 403 Z " />
<glyph glyph-name="A" unicode="A" horiz-adv-x="1430" d="M970 489 L470 489 L363 174 L532 174 L532 0 L-16 0 L-16 174 L152 174 L532 1234 L363 1234 L363 1391 L1074 1391 L1074 1234 L901 1234 L1290 174 L1446 174 L1446 0 L901 0 L901 174 L1074 174 L970 489 Z M918 652 L733 1234 L714 1234 L522 652 L918 652 Z " />
<glyph glyph-name="B" unicode="B" horiz-adv-x="1194" d="M217 174 L217 1217 L46 1217 L46 1391 L509 1391 Q700 1391 795.5 1368 Q891 1345 964 1251.5 Q1037 1158 1037 1032 Q1037 935 993.5 857 Q950 779 866 739 Q982 699 1044.5 606.5 Q1107 514 1107 395 Q1107 292 1060.5 208 Q1014 124 937 78 Q860 32 768.5 16 Q677 0 519 0 L46 0 L46 174 L217 174 Z M427 812 L558 812 Q708 812 767.5 864.5 Q827 917 827 1019 Q827 1217 558 1217 L427 1217 L427 812 Z M427 174 L506 174 Q661 174 733 189.5 Q805 205 850.5 262.5 Q896 320 896 410 Q896 492 852.5 547.5 Q809 603 740.5 621.5 Q672 640 547 640 L427 640 L427 174 Z " />
<glyph glyph-name="C" unicode="C" horiz-adv-x="1556" d="M1277 566 L1458 465 Q1397 233 1211.5 105.5 Q1026 -22 785 -22 Q469 -22 278 183 Q87 388 87 690 Q87 1021 279 1217 Q471 1413 780 1413 Q1053 1413 1239 1264 L1239 1391 L1419 1391 L1419 944 L1239 944 Q1179 1080 1054 1154.5 Q929 1229 791 1229 Q583 1229 449.5 1079 Q316 929 316 700 Q316 465 459 316 Q602 167 798 167 Q959 167 1091 270.5 Q1223 374 1277 566 Z " />
<glyph glyph-name="D" unicode="D" horiz-adv-x="1493" d="M215 174 L215 1217 L26 1217 L26 1391 L564 1391 Q787 1391 907.5 1368 Q1028 1345 1141 1264 Q1254 1183 1321.5 1041.5 Q1389 900 1389 719 Q1389 513 1324 361 Q1259 209 1153.5 134 Q1048 59 902.5 29.5 Q757 0 532 0 L26 0 L26 174 L215 174 Z M425 174 L535 174 Q719 174 826.5 197 Q934 220 1008 275.5 Q1082 331 1128 443 Q1174 555 1174 707 Q1174 888 1098.5 1014 Q1023 1140 905.5 1178.5 Q788 1217 544 1217 L425 1217 L425 174 Z " />
<glyph glyph-name="E" unicode="E" horiz-adv-x="1280" d="M236 174 L236 1217 L56 1217 L56 1391 L1212 1391 L1212 972 L1040 972 L1040 1217 L446 1217 L446 803 L963 803 L963 629 L446 629 L446 174 L1040 174 L1040 427 L1212 427 L1212 0 L56 0 L56 174 L236 174 Z " />
<glyph glyph-name="F" unicode="F" horiz-adv-x="1130" d="M213 174 L213 1217 L37 1217 L37 1391 L1116 1391 L1116 972 L944 972 L944 1217 L423 1217 L423 805 L872 805 L872 631 L423 631 L423 174 L601 174 L601 0 L37 0 L37 174 L213 174 Z " />
<glyph glyph-name="G" unicode="G" horiz-adv-x="1642" d="M1038 671 L1544 671 Q1545 644 1545 623 Q1545 330 1353 154 Q1161 -22 846 -22 Q469 -22 284 192.5 Q99 407 99 700 Q99 1007 288 1210 Q477 1413 801 1413 Q1092 1413 1289 1236 L1289 1391 L1466 1391 L1466 934 L1289 934 Q1239 1049 1111.5 1138.5 Q984 1228 820 1228 Q592 1228 460 1074 Q328 920 328 703 Q328 454 478.5 308 Q629 162 841 162 Q1007 162 1137 254.5 Q1267 347 1289 497 L1038 497 L1038 671 Z " />
<glyph glyph-name="H" unicode="H" horiz-adv-x="1450" d="M213 174 L213 1217 L55 1217 L55 1391 L587 1391 L587 1217 L423 1217 L423 819 L1028 819 L1028 1217 L865 1217 L865 1391 L1397 1391 L1397 1217 L1238 1217 L1238 174 L1397 174 L1397 0 L865 0 L865 174 L1028 174 L1028 645 L423 645 L423 174 L587 174 L587 0 L55 0 L55 174 L213 174 Z " />
<glyph glyph-name="I" unicode="I" horiz-adv-x="641" d="M215 174 L215 1217 L64 1217 L64 1391 L576 1391 L576 1217 L425 1217 L425 174 L576 174 L576 0 L64 0 L64 174 L215 174 Z " />
<glyph glyph-name="J" unicode="J" horiz-adv-x="641" d="M-72 -413 L-72 -218 Q6 -238 78 -238 Q168 -238 197.5 -188.5 Q227 -139 227 10 L227 1217 L49 1217 L49 1391 L615 1391 L615 1217 L437 1217 L437 0 Q437 -157 413.5 -238.5 Q390 -320 300.5 -378 Q211 -436 88 -436 Q3 -436 -72 -413 Z " />
<glyph glyph-name="K" unicode="K" horiz-adv-x="1280" d="M211 174 L211 1217 L37 1217 L37 1391 L600 1391 L600 1217 L421 1217 L421 174 L581 174 L581 0 L37 0 L37 174 L211 174 Z M428 734 L874 1217 L715 1217 L715 1391 L1260 1391 L1260 1217 L1112 1217 L684 734 L1124 174 L1273 174 L1273 0 L708 0 L708 174 L858 174 L428 734 Z " />
<glyph glyph-name="L" unicode="L" horiz-adv-x="1067" d="M209 174 L209 1217 L29 1217 L29 1391 L598 1391 L598 1217 L427 1217 L427 174 L853 174 L853 647 L1049 647 L1049 0 L29 0 L29 174 L209 174 Z " />
<glyph glyph-name="M" unicode="M" horiz-adv-x="1792" d="M217 174 L217 1217 L50 1217 L50 1391 L526 1391 L892 438 L1262 1391 L1743 1391 L1743 1217 L1575 1217 L1575 174 L1743 174 L1743 0 L1219 0 L1219 174 L1385 174 L1385 1217 L905 -14 L864 -14 L389 1217 L389 174 L542 174 L542 0 L50 0 L50 174 L217 174 Z " />
<glyph glyph-name="N" unicode="N" horiz-adv-x="1473" d="M209 174 L209 1217 L10 1217 L10 1391 L485 1391 L1095 310 L1095 1217 L898 1217 L898 1391 L1469 1391 L1469 1217 L1264 1217 L1264 -14 L1048 -14 L381 1173 L381 174 L580 174 L580 0 L10 0 L10 174 L209 174 Z " />
<glyph glyph-name="O" unicode="O" horiz-adv-x="1642" d="M102 702 Q102 1005 300 1209 Q498 1413 816 1413 Q1137 1413 1339 1209 Q1541 1005 1541 698 Q1541 385 1335.5 181.5 Q1130 -22 813 -22 Q611 -22 441.5 74.5 Q272 171 187 343.5 Q102 516 102 702 Z M331 701 Q331 472 465 317 Q599 162 817 162 Q1033 162 1172 320.5 Q1311 479 1311 699 Q1311 921 1169.5 1074.5 Q1028 1228 814 1228 Q601 1228 466 1077 Q331 926 331 701 Z " />
<glyph glyph-name="P" unicode="P" horiz-adv-x="1174" d="M216 174 L216 1217 L41 1217 L41 1391 L538 1391 Q757 1391 866 1360 Q975 1329 1048.5 1219.5 Q1122 1110 1122 961 Q1122 842 1073.5 747.5 Q1025 653 953.5 608 Q882 563 792.5 547.5 Q703 532 522 532 L426 532 L426 174 L606 174 L606 0 L41 0 L41 174 L216 174 Z M426 700 L546 700 Q751 700 830 758.5 Q909 817 909 965 Q909 1059 867 1121 Q825 1183 763 1200 Q701 1217 556 1217 L426 1217 L426 700 Z " />
<glyph glyph-name="Q" unicode="Q" horiz-adv-x="1642" d="M916 -15 L957 -33 Q1120 -100 1208 -100 Q1236 -100 1281 -91 L1207 -263 Q1177 -268 1152 -268 Q1053 -268 879 -184 Q729 -112 643 -112 Q554 -112 500 -161 L441 -76 Q500 -12 595 8 Q427 61 310.5 178.5 Q194 296 148 431.5 Q102 567 102 701 Q102 996 297 1204.5 Q492 1413 816 1413 Q1140 1413 1340 1210 Q1540 1007 1540 698 Q1540 534 1477 385.5 Q1414 237 1261 119 Q1108 1 916 -15 Z M331 701 Q331 472 465 317 Q599 162 817 162 Q1033 162 1172 320.5 Q1311 479 1311 699 Q1311 921 1169.5 1074.5 Q1028 1228 814 1228 Q601 1228 466 1077 Q331 926 331 701 Z " />
<glyph glyph-name="R" unicode="R" horiz-adv-x="1237" d="M217 174 L217 1217 L26 1217 L26 1391 L591 1391 Q768 1391 872 1363.5 Q976 1336 1044 1247.5 Q1112 1159 1112 1027 Q1112 751 825 680 L1071 174 L1241 174 L1241 0 L940 0 L623 650 L427 650 L427 174 L605 174 L605 0 L26 0 L26 174 L217 174 Z M427 824 L591 824 Q710 824 766.5 839.5 Q823 855 859 902.5 Q895 950 895 1030 Q895 1098 858.5 1145 Q822 1192 768.5 1204.5 Q715 1217 605 1217 L427 1217 L427 824 Z " />
<glyph glyph-name="S" unicode="S" horiz-adv-x="1087" d="M71 0 L71 505 L245 505 L245 382 Q370 155 572 155 Q675 155 746 218 Q817 281 817 383 Q817 482 759 525.5 Q701 569 540 612 Q353 662 263 706.5 Q173 751 119.5 833.5 Q66 916 66 1029 Q66 1204 182.5 1308.5 Q299 1413 475 1413 Q642 1413 785 1305 L785 1398 L955 1398 L955 976 L785 976 L785 1073 Q678 1234 490 1234 Q376 1234 315 1181.5 Q254 1129 254 1056 Q254 1000 285 957.5 Q316 915 364 895 Q412 875 553 839 Q737 791 820 749.5 Q903 708 963 611 Q1023 514 1023 388 Q1023 210 897.5 94 Q772 -22 587 -22 Q397 -22 245 115 L245 0 L71 0 Z " />
<glyph glyph-name="T" unicode="T" horiz-adv-x="1174" d="M483 174 L483 1217 L196 1217 L196 862 L24 862 L24 1391 L1151 1391 L1151 862 L979 862 L979 1217 L693 1217 L693 174 L874 174 L874 0 L305 0 L305 174 L483 174 Z " />
<glyph glyph-name="U" unicode="U" horiz-adv-x="1386" d="M409 1217 L409 521 Q409 359 425.5 297 Q442 235 508 191.5 Q574 148 678 148 Q802 148 868 185.5 Q934 223 955.5 286.5 Q977 350 977 511 L977 1217 L816 1217 L816 1391 L1360 1391 L1360 1217 L1186 1217 L1186 490 Q1186 343 1173.5 276.5 Q1161 210 1106 137.5 Q1051 65 951 21.5 Q851 -22 708 -22 Q550 -22 445 18.5 Q340 59 287 127 Q234 195 216.5 272 Q199 349 199 511 L199 1217 L27 1217 L27 1391 L574 1391 L574 1217 L409 1217 Z " />
<glyph glyph-name="V" unicode="V" horiz-adv-x="1450" d="M635 -14 L168 1217 L-4 1217 L-4 1391 L545 1391 L545 1217 L384 1217 L738 283 L1083 1217 L921 1217 L921 1391 L1455 1391 L1455 1217 L1286 1217 L828 -14 L635 -14 Z " />
<glyph glyph-name="W" unicode="W" horiz-adv-x="2048" d="M521 -14 L167 1217 L0 1217 L0 1391 L532 1391 L532 1217 L365 1217 L628 307 L881 1217 L715 1217 L715 1391 L1354 1391 L1354 1217 L1191 1217 L1445 307 L1703 1217 L1538 1217 L1538 1391 L2049 1391 L2049 1217 L1885 1217 L1538 -14 L1339 -14 L1026 1086 L715 -14 L521 -14 Z " />
<glyph glyph-name="X" unicode="X" horiz-adv-x="1343" d="M207 174 L561 701 L207 1217 L28 1217 L28 1391 L588 1391 L588 1217 L431 1217 L672 864 L915 1217 L754 1217 L754 1391 L1288 1391 L1288 1217 L1114 1217 L771 718 L1144 174 L1325 174 L1325 0 L754 0 L754 174 L915 174 L660 552 L406 174 L575 174 L575 0 L21 0 L21 174 L207 174 Z " />
<glyph glyph-name="Y" unicode="Y" horiz-adv-x="1323" d="M563 174 L563 633 L149 1217 L-21 1217 L-21 1391 L551 1391 L551 1217 L376 1217 L683 788 L963 1217 L788 1217 L788 1391 L1343 1391 L1343 1217 L1159 1217 L773 633 L773 174 L963 174 L963 0 L376 0 L376 174 L563 174 Z " />
<glyph glyph-name="Z" unicode="Z" horiz-adv-x="1153" d="M51 0 L51 174 L796 1217 L257 1217 L257 972 L85 972 L85 1391 L1062 1391 L1062 1237 L304 174 L913 174 L913 443 L1085 443 L1085 0 L51 0 Z " />
<glyph glyph-name="bracketleft" unicode="&#x5b;" horiz-adv-x="768" d="M709 1391 L709 1252 L405 1252 L405 -278 L709 -278 L709 -417 L215 -417 L215 1391 L709 1391 Z " />
<glyph glyph-name="backslash" unicode="&#x5c;" horiz-adv-x="897" d="M176 1419 L886 -22 L720 -22 L10 1419 L176 1419 Z " />
<glyph glyph-name="bracketright" unicode="&#x5d;" horiz-adv-x="768" d="M59 1391 L553 1391 L553 -417 L59 -417 L59 -278 L363 -278 L363 1252 L59 1252 L59 1391 Z " />
<glyph glyph-name="asciicircum" unicode="&#x5e;" horiz-adv-x="961" d="M239 590 L54 590 L407 1391 L552 1391 L907 590 L726 590 L479 1187 L239 590 Z " />
<glyph glyph-name="underscore" unicode="&#x5f;" horiz-adv-x="1024" d="M-12 -154 L1036 -154 L1036 -256 L-12 -256 L-12 -154 Z " />
<glyph glyph-name="grave" unicode="&#x60;" horiz-adv-x="682" d="M528 1096 L400 1096 L111 1413 L387 1413 L528 1096 Z " />
<glyph glyph-name="a" unicode="a" horiz-adv-x="1087" d="M1061 169 L1061 0 L729 0 L729 118 Q591 -16 421 -16 Q289 -16 191.5 70 Q94 156 94 290 Q94 425 197.5 514 Q301 603 447 603 Q583 603 710 521 L710 617 Q710 691 696 731 Q682 771 630.5 803 Q579 835 496 835 Q353 835 289 721 L107 769 Q228 995 525 995 Q634 995 713.5 965.5 Q793 936 832 889.5 Q871 843 884.5 789 Q898 735 898 617 L898 169 L1061 169 Z M710 360 Q587 456 461 456 Q382 456 329 410 Q276 364 276 291 Q276 223 322.5 177 Q369 131 449 131 Q587 131 710 247 L710 360 Z " />
<glyph glyph-name="b" unicode="b" horiz-adv-x="1323" d="M54 0 L54 169 L226 169 L226 1222 L54 1222 L54 1391 L412 1391 L412 831 Q555 995 763 995 Q963 995 1098.5 857.5 Q1234 720 1234 495 Q1234 279 1101.5 131.5 Q969 -16 762 -16 Q646 -16 550 34 Q454 84 412 145 L412 0 L54 0 Z M418 482 Q418 331 510.5 242.5 Q603 154 724 154 Q851 154 943 248 Q1035 342 1035 500 Q1035 653 943.5 737.5 Q852 822 729 822 Q608 822 513 734.5 Q418 647 418 482 Z " />
<glyph glyph-name="c" unicode="c" horiz-adv-x="1067" d="M990 968 L990 602 L820 602 Q807 707 734.5 763 Q662 819 566 819 Q438 819 358 728.5 Q278 638 278 491 Q278 354 354 249.5 Q430 145 574 145 Q774 145 864 335 L1021 261 Q891 -28 566 -28 Q336 -28 204 129 Q72 286 72 491 Q72 710 216 852.5 Q360 995 548 995 Q709 995 820 900 L820 968 L990 968 Z " />
<glyph glyph-name="d" unicode="d" horiz-adv-x="1280" d="M1275 169 L1275 0 L911 0 L911 142 Q769 -16 565 -16 Q376 -16 233 113 Q90 242 90 480 Q90 719 237 857 Q384 995 569 995 Q765 995 911 839 L911 1222 L725 1222 L725 1391 L1101 1391 L1101 169 L1275 169 Z M293 485 Q293 325 383.5 239 Q474 153 600 153 Q722 153 816.5 243.5 Q911 334 911 494 Q911 655 814.5 737 Q718 819 598 819 Q469 819 381 722.5 Q293 626 293 485 Z " />
<glyph glyph-name="e" unicode="e" horiz-adv-x="1174" d="M1098 436 L284 436 Q302 302 390 219 Q478 136 615 136 Q814 136 930 296 L1098 222 Q1016 95 885 33.5 Q754 -28 611 -28 Q389 -28 231.5 110.5 Q74 249 74 484 Q74 707 227.5 851 Q381 995 580 995 Q775 995 933.5 854.5 Q1092 714 1098 436 Z M902 574 Q882 676 796 758.5 Q710 841 585 841 Q471 841 390 766.5 Q309 692 291 574 L902 574 Z " />
<glyph glyph-name="f" unicode="f" horiz-adv-x="598" d="M197 169 L197 799 L56 799 L56 967 L197 967 L197 1107 Q197 1284 272 1351.5 Q347 1419 449 1419 Q669 1419 704 1196 L535 1170 Q525 1263 462 1263 Q419 1263 403 1233.5 Q387 1204 387 1107 L387 967 L553 967 L553 799 L387 799 L387 169 L571 169 L571 0 L56 0 L56 169 L197 169 Z " />
<glyph glyph-name="g" unicode="g" horiz-adv-x="1280" d="M1257 968 L1257 799 L1083 799 L1083 78 Q1083 -68 1068 -138.5 Q1053 -209 995.5 -282.5 Q938 -356 823 -406 Q708 -456 566 -456 Q352 -456 184 -327 L308 -189 Q434 -287 582 -287 Q664 -287 734 -255.5 Q804 -224 838.5 -179 Q873 -134 883 -93.5 Q893 -53 893 43 L893 131 Q848 74 752 23 Q656 -28 542 -28 Q334 -28 203 116 Q72 260 72 470 Q72 700 216.5 841.5 Q361 983 551 983 Q743 983 893 830 L893 968 L1257 968 Z M274 474 Q274 327 359.5 234 Q445 141 578 141 Q708 141 802 234.5 Q896 328 896 475 Q896 624 802 714.5 Q708 805 584 805 Q460 805 367 715.5 Q274 626 274 474 Z " />
<glyph glyph-name="h" unicode="h" horiz-adv-x="1174" d="M217 169 L217 1222 L42 1222 L42 1391 L407 1391 L407 857 Q578 995 732 995 Q828 995 890 955 Q952 915 974.5 849.5 Q997 784 997 658 L997 169 L1162 169 L1162 0 L807 0 L807 592 Q807 702 800 739 Q793 776 761.5 800 Q730 824 687 824 Q577 824 407 699 L407 169 L575 169 L575 0 L42 0 L42 169 L217 169 Z " />
<glyph glyph-name="i" unicode="i" horiz-adv-x="598" d="M190 1297 Q190 1343 222.5 1377 Q255 1411 305 1411 Q352 1411 386 1378 Q420 1345 420 1297 Q420 1249 386 1215.5 Q352 1182 305 1182 Q257 1182 223.5 1216 Q190 1250 190 1297 Z M217 169 L217 799 L66 799 L66 968 L407 968 L407 169 L556 169 L556 0 L66 0 L66 169 L217 169 Z " />
<glyph glyph-name="j" unicode="j" horiz-adv-x="598" d="M202 1297 Q202 1344 236 1377.5 Q270 1411 317 1411 Q365 1411 398.5 1378 Q432 1345 432 1297 Q432 1249 398 1215.5 Q364 1182 317 1182 Q268 1182 235 1216.5 Q202 1251 202 1297 Z M-38 -416 L-38 -244 Q10 -250 54 -250 Q129 -250 166.5 -227 Q204 -204 216.5 -160 Q229 -116 229 113 L229 799 L77 799 L77 968 L419 968 L419 144 Q419 -105 403 -203 Q387 -301 308 -363.5 Q229 -426 74 -426 Q15 -426 -38 -416 Z " />
<glyph glyph-name="k" unicode="k" horiz-adv-x="1174" d="M224 169 L224 1222 L50 1222 L50 1391 L414 1391 L414 522 L776 811 L615 811 L615 968 L1150 968 L1150 811 L1002 811 L639 509 L980 169 L1150 169 L1150 0 L901 0 L414 487 L414 169 L581 169 L581 0 L50 0 L50 169 L224 169 Z " />
<glyph glyph-name="l" unicode="l" horiz-adv-x="598" d="M213 169 L213 1222 L41 1222 L41 1391 L403 1391 L403 169 L551 169 L551 0 L41 0 L41 169 L213 169 Z " />
<glyph glyph-name="m" unicode="m" horiz-adv-x="1772" d="M227 169 L227 799 L66 799 L66 968 L417 968 L417 846 Q589 983 754 983 Q920 983 983 832 Q1172 983 1335 983 Q1429 983 1489.5 941.5 Q1550 900 1571 836.5 Q1592 773 1592 649 L1592 169 L1761 169 L1761 0 L1402 0 L1402 615 Q1402 699 1394.5 733.5 Q1387 768 1356.5 790.5 Q1326 813 1283 813 Q1161 813 1006 688 L1006 169 L1172 169 L1172 0 L816 0 L816 633 Q816 728 788.5 770.5 Q761 813 695 813 Q587 813 417 688 L417 169 L587 169 L587 0 L54 0 L54 169 L227 169 Z " />
<glyph glyph-name="n" unicode="n" horiz-adv-x="1174" d="M415 968 L415 851 Q598 983 749 983 Q843 983 904.5 938.5 Q966 894 985 829.5 Q1004 765 1004 641 L1004 169 L1167 169 L1167 0 L814 0 L814 633 Q814 743 781 776.5 Q748 810 700 810 Q574 810 415 687 L415 169 L582 169 L582 0 L55 0 L55 169 L225 169 L225 799 L55 799 L55 968 L415 968 Z " />
<glyph glyph-name="o" unicode="o" horiz-adv-x="1174" d="M78 484 Q78 708 226 851.5 Q374 995 587 995 Q796 995 946 853.5 Q1096 712 1096 484 Q1096 256 946.5 114 Q797 -28 587 -28 Q371 -28 224.5 116 Q78 260 78 484 Z M279 484 Q279 341 368.5 249.5 Q458 158 587 158 Q718 158 806.5 250.5 Q895 343 895 484 Q895 626 805 718 Q715 810 587 810 Q453 810 366 716 Q279 622 279 484 Z " />
<glyph glyph-name="p" unicode="p" horiz-adv-x="1280" d="M191 -265 L191 799 L28 799 L28 968 L381 968 L381 816 Q523 983 725 983 Q929 983 1062.5 843 Q1196 703 1196 479 Q1196 244 1051 108 Q906 -28 721 -28 Q529 -28 381 120 L381 -265 L569 -265 L569 -434 L14 -434 L14 -265 L191 -265 Z M378 470 Q378 390 411 317 Q444 244 516 194.5 Q588 145 685 145 Q821 145 909.5 236 Q998 327 998 486 Q998 641 905.5 728 Q813 815 695 815 Q569 815 473.5 720.5 Q378 626 378 470 Z " />
<glyph glyph-name="q" unicode="q" horiz-adv-x="1260" d="M1079 -265 L1256 -265 L1256 -434 L701 -434 L701 -265 L889 -265 L889 122 Q745 -28 546 -28 Q365 -28 219.5 107 Q74 242 74 481 Q74 707 209 845 Q344 983 545 983 Q747 983 889 816 L889 968 L1242 968 L1242 799 L1079 799 L1079 -265 Z M892 470 Q892 626 796.5 720.5 Q701 815 575 815 Q453 815 362.5 726 Q272 637 272 483 Q272 342 353.5 243.5 Q435 145 583 145 Q732 145 812 245 Q892 345 892 470 Z " />
<glyph glyph-name="r" unicode="r" horiz-adv-x="854" d="M240 169 L240 799 L45 799 L45 968 L392 968 L392 750 Q424 835 481 891 Q538 947 601.5 965 Q665 983 775 983 L825 983 L825 791 L787 791 Q642 791 570.5 762 Q499 733 464.5 656.5 Q430 580 430 382 L430 169 L641 169 L641 0 L45 0 L45 169 L240 169 Z " />
<glyph glyph-name="s" unicode="s" horiz-adv-x="938" d="M84 0 L84 332 L254 332 L254 300 Q263 232 327.5 188 Q392 144 480 144 Q572 144 627 176 Q682 208 682 265 Q682 320 636.5 346 Q591 372 456 394 Q256 428 170.5 503.5 Q85 579 85 699 Q85 820 178 901.5 Q271 983 423 983 Q560 983 659 927 L659 968 L828 968 L828 647 L659 647 L659 706 Q582 825 435 825 Q360 825 311.5 792.5 Q263 760 263 706 Q263 651 307.5 630.5 Q352 610 499 587 Q640 565 712 535.5 Q784 506 831.5 437.5 Q879 369 879 278 Q879 143 775.5 63.5 Q672 -16 507 -16 Q352 -16 254 54 L254 0 L84 0 Z " />
<glyph glyph-name="t" unicode="t" horiz-adv-x="618" d="M62 799 L62 968 L188 968 L188 1117 L378 1291 L378 968 L557 968 L557 799 L378 799 L378 329 Q378 216 390.5 189.5 Q403 163 453 163 Q506 163 557 183 L557 10 Q484 -16 411 -16 Q324 -16 270 22.5 Q216 61 202 119 Q188 177 188 319 L188 799 L62 799 Z " />
<glyph glyph-name="u" unicode="u" horiz-adv-x="1153" d="M1133 169 L1133 0 L776 0 L776 111 Q609 -16 456 -16 Q359 -16 295.5 26.5 Q232 69 211 136.5 Q190 204 190 354 L190 799 L53 799 L53 968 L380 968 L380 378 Q380 271 386 234 Q392 197 421 173 Q450 149 494 149 Q626 149 776 275 L776 799 L605 799 L605 968 L966 968 L966 169 L1133 169 Z " />
<glyph glyph-name="v" unicode="v" horiz-adv-x="1110" d="M483 -16 L167 799 L-4 799 L-4 968 L483 968 L483 799 L357 799 L565 250 L774 799 L640 799 L640 968 L1113 968 L1113 799 L964 799 L655 -16 L483 -16 Z " />
<glyph glyph-name="w" unicode="w" horiz-adv-x="1579" d="M374 -16 L115 799 L-3 799 L-3 968 L405 968 L405 799 L278 799 L463 215 L648 799 L542 799 L542 968 L1010 968 L1010 799 L904 799 L1089 215 L1275 799 L1142 799 L1142 968 L1579 968 L1579 799 L1440 799 L1180 -16 L1001 -16 L779 684 L553 -16 L374 -16 Z " />
<glyph glyph-name="x" unicode="x" horiz-adv-x="1130" d="M569 385 L381 169 L505 169 L505 0 L36 0 L36 169 L179 169 L470 498 L192 799 L61 799 L61 968 L516 968 L516 799 L395 799 L569 612 L737 799 L638 799 L638 968 L1095 968 L1095 799 L936 799 L671 498 L973 169 L1095 169 L1095 0 L638 0 L638 169 L772 169 L569 385 Z " />
<glyph glyph-name="y" unicode="y" horiz-adv-x="1153" d="M496 17 L178 799 L17 799 L17 968 L496 968 L496 799 L380 799 L589 263 L794 799 L666 799 L666 968 L1135 968 L1135 799 L991 799 L512 -434 L191 -434 L191 -268 L380 -268 L496 17 Z " />
<glyph glyph-name="z" unicode="z" horiz-adv-x="918" d="M33 0 L33 158 L640 811 L242 811 L242 625 L80 625 L80 968 L866 968 L866 799 L257 158 L700 158 L700 356 L866 356 L866 0 L33 0 Z " />
<glyph glyph-name="braceleft" unicode="&#x7b;" horiz-adv-x="682" d="M58 556 Q130 558 178 592 Q226 626 245.5 691 Q265 756 265 924 Q265 1139 289 1223 Q313 1307 381 1349 Q449 1391 581 1391 L637 1391 L637 1242 L606 1242 Q506 1242 470 1208.5 Q434 1175 434 1049 Q434 827 424 738 Q414 649 369 586 Q324 523 225 478 Q330 438 382 348.5 Q434 259 434 55 Q434 -133 439.5 -183 Q445 -233 477.5 -259 Q510 -285 606 -285 L637 -285 L637 -434 L581 -434 Q483 -434 427 -415 Q371 -396 329.5 -343.5 Q288 -291 276.5 -213.5 Q265 -136 265 33 Q265 201 245.5 266 Q226 331 177.5 365 Q129 399 58 401 L58 556 Z " />
<glyph glyph-name="bar" unicode="&#x7c;" horiz-adv-x="1079" d="M461 1419 L618 1419 L618 -456 L461 -456 L461 1419 Z " />
<glyph glyph-name="braceright" unicode="&#x7d;" horiz-adv-x="682" d="M624 401 Q552 399 504 365 Q456 331 436.5 265.5 Q417 200 417 33 Q417 -182 393 -266.5 Q369 -351 301 -392.5 Q233 -434 101 -434 L45 -434 L45 -286 L76 -286 Q176 -286 212 -252.5 Q248 -219 248 -93 Q248 130 258 219 Q268 308 313 370.5 Q358 433 457 478 Q352 518 300 608 Q248 698 248 901 Q248 1089 242 1139.5 Q236 1190 203.5 1216 Q171 1242 76 1242 L45 1242 L45 1391 L101 1391 Q199 1391 255 1372 Q311 1353 352.5 1300.5 Q394 1248 405.5 1170.5 Q417 1093 417 924 Q417 756 436 691 Q455 626 504 591.5 Q553 557 624 556 L624 401 Z " />
<glyph glyph-name="asciitilde" unicode="&#x7e;" horiz-adv-x="1194" d="M1145 666 Q990 538 852 538 Q791 538 733 556 Q675 574 540 637 Q413 696 347 696 Q212 696 49 556 L49 725 Q206 853 354 853 Q447 853 647 759 Q783 696 851 696 Q984 696 1145 835 L1145 666 Z " />
<glyph glyph-name="Adieresis" unicode="&#xc4;" horiz-adv-x="1430" d="M970 489 L470 489 L363 174 L532 174 L532 0 L-16 0 L-16 174 L152 174 L532 1234 L363 1234 L363 1391 L1074 1391 L1074 1234 L901 1234 L1290 174 L1446 174 L1446 0 L901 0 L901 174 L1074 174 L970 489 Z M918 652 L733 1234 L714 1234 L522 652 L918 652 Z M427 1617 Q427 1662 459.5 1695 Q492 1728 538 1728 Q584 1728 616.5 1695.5 Q649 1663 649 1617 Q649 1570 616.5 1538 Q584 1506 538 1506 Q493 1506 460 1538.5 Q427 1571 427 1617 Z M789 1617 Q789 1661 820.5 1694.5 Q852 1728 900 1728 Q946 1728 978.5 1695 Q1011 1662 1011 1617 Q1011 1571 978.5 1538.5 Q946 1506 900 1506 Q853 1506 821 1538.5 Q789 1571 789 1617 Z " />
<glyph glyph-name="Aring" unicode="&#xc5;" horiz-adv-x="1430" d="M634 1391 Q498 1449 498 1593 Q498 1682 561.5 1746 Q625 1810 715 1810 Q806 1810 869 1746 Q932 1682 932 1593 Q932 1449 796 1391 L1074 1391 L1074 1234 L901 1234 L1290 174 L1446 174 L1446 0 L901 0 L901 174 L1074 174 L970 489 L470 489 L363 174 L532 174 L532 0 L-16 0 L-16 174 L152 174 L532 1234 L363 1234 L363 1391 L634 1391 Z M594 1592 Q594 1544 629 1508 Q664 1472 715 1472 Q765 1472 800.5 1507.5 Q836 1543 836 1592 Q836 1642 801 1677.5 Q766 1713 715 1713 Q665 1713 629.5 1677.5 Q594 1642 594 1592 Z M918 652 L733 1234 L714 1234 L522 652 L918 652 Z " />
<glyph glyph-name="Ccedilla" unicode="&#xc7;" horiz-adv-x="1556" d="M729 -19 Q429 2 258 205 Q87 408 87 691 Q87 1021 279 1217 Q471 1413 780 1413 Q1053 1413 1239 1264 L1239 1391 L1419 1391 L1419 944 L1239 944 Q1179 1080 1054 1154.5 Q929 1229 791 1229 Q583 1229 449.5 1079 Q316 929 316 700 Q316 465 459 316 Q602 167 798 167 Q959 167 1091 270.5 Q1223 374 1277 566 L1458 465 Q1403 254 1243.5 128.5 Q1084 3 865 -19 L857 -68 Q1031 -92 1031 -243 Q1031 -316 972 -385 Q913 -454 696 -454 Q658 -454 611 -453 L611 -339 Q733 -339 776 -323.5 Q819 -308 819 -270 Q819 -234 791.5 -219 Q764 -204 693 -204 L729 -19 Z " />
<glyph glyph-name="Eacute" unicode="&#xc9;" horiz-adv-x="1280" d="M236 174 L236 1217 L56 1217 L56 1391 L1212 1391 L1212 972 L1040 972 L1040 1217 L446 1217 L446 803 L963 803 L963 629 L446 629 L446 174 L1040 174 L1040 427 L1212 427 L1212 0 L56 0 L56 174 L236 174 Z M510 1473 L651 1790 L927 1790 L638 1473 L510 1473 Z " />
<glyph glyph-name="Ntilde" unicode="&#xd1;" horiz-adv-x="1473" d="M209 174 L209 1217 L10 1217 L10 1391 L485 1391 L1095 310 L1095 1217 L898 1217 L898 1391 L1469 1391 L1469 1217 L1264 1217 L1264 -14 L1048 -14 L381 1173 L381 174 L580 174 L580 0 L10 0 L10 174 L209 174 Z M959 1768 L1071 1768 Q1067 1614 1012.5 1552 Q958 1490 888 1490 Q817 1490 707 1557 Q610 1615 580 1615 Q549 1615 536 1590.5 Q523 1566 523 1505 L408 1505 Q409 1649 462 1711 Q515 1773 590 1773 Q650 1773 774 1701 Q860 1650 888 1650 Q955 1650 959 1768 Z " />
<glyph glyph-name="Odieresis" unicode="&#xd6;" horiz-adv-x="1642" d="M102 702 Q102 1005 300 1209 Q498 1413 816 1413 Q1137 1413 1339 1209 Q1541 1005 1541 698 Q1541 385 1335.5 181.5 Q1130 -22 813 -22 Q611 -22 441.5 74.5 Q272 171 187 343.5 Q102 516 102 702 Z M331 701 Q331 472 465 317 Q599 162 817 162 Q1033 162 1172 320.5 Q1311 479 1311 699 Q1311 921 1169.5 1074.5 Q1028 1228 814 1228 Q601 1228 466 1077 Q331 926 331 701 Z M529 1617 Q529 1662 561.5 1695 Q594 1728 640 1728 Q686 1728 718.5 1695.5 Q751 1663 751 1617 Q751 1570 718.5 1538 Q686 1506 640 1506 Q595 1506 562 1538.5 Q529 1571 529 1617 Z M891 1617 Q891 1661 922.5 1694.5 Q954 1728 1002 1728 Q1048 1728 1080.5 1695 Q1113 1662 1113 1617 Q1113 1571 1080.5 1538.5 Q1048 1506 1002 1506 Q955 1506 923 1538.5 Q891 1571 891 1617 Z " />
<glyph glyph-name="Udieresis" unicode="&#xdc;" horiz-adv-x="1386" d="M409 1217 L409 521 Q409 359 425.5 297 Q442 235 508 191.5 Q574 148 678 148 Q802 148 868 185.5 Q934 223 955.5 286.5 Q977 350 977 511 L977 1217 L816 1217 L816 1391 L1360 1391 L1360 1217 L1186 1217 L1186 490 Q1186 343 1173.5 276.5 Q1161 210 1106 137.5 Q1051 65 951 21.5 Q851 -22 708 -22 Q550 -22 445 18.5 Q340 59 287 127 Q234 195 216.5 272 Q199 349 199 511 L199 1217 L27 1217 L27 1391 L574 1391 L574 1217 L409 1217 Z M402 1617 Q402 1662 434.5 1695 Q467 1728 513 1728 Q559 1728 591.5 1695.5 Q624 1663 624 1617 Q624 1570 591.5 1538 Q559 1506 513 1506 Q468 1506 435 1538.5 Q402 1571 402 1617 Z M764 1617 Q764 1661 795.5 1694.5 Q827 1728 875 1728 Q921 1728 953.5 1695 Q986 1662 986 1617 Q986 1571 953.5 1538.5 Q921 1506 875 1506 Q828 1506 796 1538.5 Q764 1571 764 1617 Z " />
<glyph glyph-name="aacute" unicode="&#xe1;" horiz-adv-x="1087" d="M1061 169 L1061 0 L729 0 L729 118 Q591 -16 421 -16 Q289 -16 191.5 70 Q94 156 94 290 Q94 425 197.5 514 Q301 603 447 603 Q583 603 710 521 L710 617 Q710 691 696 731 Q682 771 630.5 803 Q579 835 496 835 Q353 835 289 721 L107 769 Q228 995 525 995 Q634 995 713.5 965.5 Q793 936 832 889.5 Q871 843 884.5 789 Q898 735 898 617 L898 169 L1061 169 Z M710 360 Q587 456 461 456 Q382 456 329 410 Q276 364 276 291 Q276 223 322.5 177 Q369 131 449 131 Q587 131 710 247 L710 360 Z M356 1096 L497 1413 L773 1413 L484 1096 L356 1096 Z " />
<glyph glyph-name="agrave" unicode="&#xe0;" horiz-adv-x="1087" d="M1061 169 L1061 0 L729 0 L729 118 Q591 -16 421 -16 Q289 -16 191.5 70 Q94 156 94 290 Q94 425 197.5 514 Q301 603 447 603 Q583 603 710 521 L710 617 Q710 691 696 731 Q682 771 630.5 803 Q579 835 496 835 Q353 835 289 721 L107 769 Q228 995 525 995 Q634 995 713.5 965.5 Q793 936 832 889.5 Q871 843 884.5 789 Q898 735 898 617 L898 169 L1061 169 Z M710 360 Q587 456 461 456 Q382 456 329 410 Q276 364 276 291 Q276 223 322.5 177 Q369 131 449 131 Q587 131 710 247 L710 360 Z M708 1096 L580 1096 L291 1413 L567 1413 L708 1096 Z " />
<glyph glyph-name="acircumflex" unicode="&#xe2;" horiz-adv-x="1087" d="M1061 169 L1061 0 L729 0 L729 118 Q591 -16 421 -16 Q289 -16 191.5 70 Q94 156 94 290 Q94 425 197.5 514 Q301 603 447 603 Q583 603 710 521 L710 617 Q710 691 696 731 Q682 771 630.5 803 Q579 835 496 835 Q353 835 289 721 L107 769 Q228 995 525 995 Q634 995 713.5 965.5 Q793 936 832 889.5 Q871 843 884.5 789 Q898 735 898 617 L898 169 L1061 169 Z M710 360 Q587 456 461 456 Q382 456 329 410 Q276 364 276 291 Q276 223 322.5 177 Q369 131 449 131 Q587 131 710 247 L710 360 Z M522 1273 L357 1099 L222 1099 L390 1411 L657 1411 L830 1099 L689 1099 L522 1273 Z " />
<glyph glyph-name="adieresis" unicode="&#xe4;" horiz-adv-x="1087" d="M1061 169 L1061 0 L729 0 L729 118 Q591 -16 421 -16 Q289 -16 191.5 70 Q94 156 94 290 Q94 425 197.5 514 Q301 603 447 603 Q583 603 710 521 L710 617 Q710 691 696 731 Q682 771 630.5 803 Q579 835 496 835 Q353 835 289 721 L107 769 Q228 995 525 995 Q634 995 713.5 965.5 Q793 936 832 889.5 Q871 843 884.5 789 Q898 735 898 617 L898 169 L1061 169 Z M710 360 Q587 456 461 456 Q382 456 329 410 Q276 364 276 291 Q276 223 322.5 177 Q369 131 449 131 Q587 131 710 247 L710 360 Z M229 1255 Q229 1300 261.5 1333 Q294 1366 340 1366 Q386 1366 418.5 1333.5 Q451 1301 451 1255 Q451 1208 418.5 1176 Q386 1144 340 1144 Q295 1144 262 1176.5 Q229 1209 229 1255 Z M591 1255 Q591 1299 622.5 1332.5 Q654 1366 702 1366 Q748 1366 780.5 1333 Q813 1300 813 1255 Q813 1209 780.5 1176.5 Q748 1144 702 1144 Q655 1144 623 1176.5 Q591 1209 591 1255 Z " />
<glyph glyph-name="atilde" unicode="&#xe3;" horiz-adv-x="1087" d="M1061 169 L1061 0 L729 0 L729 118 Q591 -16 421 -16 Q289 -16 191.5 70 Q94 156 94 290 Q94 425 197.5 514 Q301 603 447 603 Q583 603 710 521 L710 617 Q710 691 696 731 Q682 771 630.5 803 Q579 835 496 835 Q353 835 289 721 L107 769 Q228 995 525 995 Q634 995 713.5 965.5 Q793 936 832 889.5 Q871 843 884.5 789 Q898 735 898 617 L898 169 L1061 169 Z M710 360 Q587 456 461 456 Q382 456 329 410 Q276 364 276 291 Q276 223 322.5 177 Q369 131 449 131 Q587 131 710 247 L710 360 Z M746 1391 L858 1391 Q854 1237 799.5 1175 Q745 1113 675 1113 Q604 1113 494 1180 Q397 1238 367 1238 Q336 1238 323 1213.5 Q310 1189 310 1128 L195 1128 Q196 1272 249 1334 Q302 1396 377 1396 Q437 1396 561 1324 Q647 1273 675 1273 Q742 1273 746 1391 Z " />
<glyph glyph-name="aring" unicode="&#xe5;" horiz-adv-x="1087" d="M1061 169 L1061 0 L729 0 L729 118 Q591 -16 421 -16 Q289 -16 191.5 70 Q94 156 94 290 Q94 425 197.5 514 Q301 603 447 603 Q583 603 710 521 L710 617 Q710 691 696 731 Q682 771 630.5 803 Q579 835 496 835 Q353 835 289 721 L107 769 Q228 995 525 995 Q634 995 713.5 965.5 Q793 936 832 889.5 Q871 843 884.5 789 Q898 735 898 617 L898 169 L1061 169 Z M710 360 Q587 456 461 456 Q382 456 329 410 Q276 364 276 291 Q276 223 322.5 177 Q369 131 449 131 Q587 131 710 247 L710 360 Z M322 1255 Q322 1334 379 1394 Q436 1454 521 1454 Q604 1454 662 1395.5 Q720 1337 720 1255 Q720 1173 661.5 1114.5 Q603 1056 521 1056 Q436 1056 379 1115.5 Q322 1175 322 1255 Z M400 1255 Q400 1206 435 1170 Q470 1134 521 1134 Q571 1134 606.5 1169.5 Q642 1205 642 1255 Q642 1304 606.5 1339.5 Q571 1375 521 1375 Q469 1375 434.5 1339 Q400 1303 400 1255 Z " />
<glyph glyph-name="ccedilla" unicode="&#xe7;" horiz-adv-x="1067" d="M597 -27 L584 -97 Q726 -132 726 -260 Q726 -340 657 -398.5 Q588 -457 424 -457 L352 -457 L352 -346 Q458 -346 497 -328 Q536 -310 536 -270 Q536 -212 439 -212 L474 -21 Q294 7 183 155.5 Q72 304 72 491 Q72 710 216 852.5 Q360 995 548 995 Q709 995 820 900 L820 968 L990 968 L990 602 L820 602 Q807 707 734.5 763 Q662 819 566 819 Q438 819 358 728.5 Q278 638 278 491 Q278 354 354 249.5 Q430 145 574 145 Q774 145 864 335 L1021 261 Q899 -9 597 -27 Z " />
<glyph glyph-name="eacute" unicode="&#xe9;" horiz-adv-x="1174" d="M1098 436 L284 436 Q302 302 390 219 Q478 136 615 136 Q814 136 930 296 L1098 222 Q1016 95 885 33.5 Q754 -28 611 -28 Q389 -28 231.5 110.5 Q74 249 74 484 Q74 707 227.5 851 Q381 995 580 995 Q775 995 933.5 854.5 Q1092 714 1098 436 Z M902 574 Q882 676 796 758.5 Q710 841 585 841 Q471 841 390 766.5 Q309 692 291 574 L902 574 Z M438 1096 L579 1413 L855 1413 L566 1096 L438 1096 Z " />
<glyph glyph-name="egrave" unicode="&#xe8;" horiz-adv-x="1174" d="M1098 436 L284 436 Q302 302 390 219 Q478 136 615 136 Q814 136 930 296 L1098 222 Q1016 95 885 33.5 Q754 -28 611 -28 Q389 -28 231.5 110.5 Q74 249 74 484 Q74 707 227.5 851 Q381 995 580 995 Q775 995 933.5 854.5 Q1092 714 1098 436 Z M902 574 Q882 676 796 758.5 Q710 841 585 841 Q471 841 390 766.5 Q309 692 291 574 L902 574 Z M740 1096 L612 1096 L323 1413 L599 1413 L740 1096 Z " />
<glyph glyph-name="ecircumflex" unicode="&#xea;" horiz-adv-x="1174" d="M1098 436 L284 436 Q302 302 390 219 Q478 136 615 136 Q814 136 930 296 L1098 222 Q1016 95 885 33.5 Q754 -28 611 -28 Q389 -28 231.5 110.5 Q74 249 74 484 Q74 707 227.5 851 Q381 995 580 995 Q775 995 933.5 854.5 Q1092 714 1098 436 Z M902 574 Q882 676 796 758.5 Q710 841 585 841 Q471 841 390 766.5 Q309 692 291 574 L902 574 Z M582 1273 L417 1099 L282 1099 L450 1411 L717 1411 L890 1099 L749 1099 L582 1273 Z " />
<glyph glyph-name="edieresis" unicode="&#xeb;" horiz-adv-x="1174" d="M1098 436 L284 436 Q302 302 390 219 Q478 136 615 136 Q814 136 930 296 L1098 222 Q1016 95 885 33.5 Q754 -28 611 -28 Q389 -28 231.5 110.5 Q74 249 74 484 Q74 707 227.5 851 Q381 995 580 995 Q775 995 933.5 854.5 Q1092 714 1098 436 Z M902 574 Q882 676 796 758.5 Q710 841 585 841 Q471 841 390 766.5 Q309 692 291 574 L902 574 Z M294 1255 Q294 1300 326.5 1333 Q359 1366 405 1366 Q451 1366 483.5 1333.5 Q516 1301 516 1255 Q516 1208 483.5 1176 Q451 1144 405 1144 Q360 1144 327 1176.5 Q294 1209 294 1255 Z M656 1255 Q656 1299 687.5 1332.5 Q719 1366 767 1366 Q813 1366 845.5 1333 Q878 1300 878 1255 Q878 1209 845.5 1176.5 Q813 1144 767 1144 Q720 1144 688 1176.5 Q656 1209 656 1255 Z " />
<glyph glyph-name="iacute" unicode="&#xed;" horiz-adv-x="598" d="M217 169 L217 799 L66 799 L66 968 L407 968 L407 169 L556 169 L556 0 L66 0 L66 169 L217 169 Z M145 1096 L286 1413 L562 1413 L273 1096 L145 1096 Z " />
<glyph glyph-name="igrave" unicode="&#xec;" horiz-adv-x="598" d="M217 169 L217 799 L66 799 L66 968 L407 968 L407 169 L556 169 L556 0 L66 0 L66 169 L217 169 Z M441 1096 L313 1096 L24 1413 L300 1413 L441 1096 Z " />
<glyph glyph-name="icircumflex" unicode="&#xee;" horiz-adv-x="598" d="M217 169 L217 799 L66 799 L66 968 L407 968 L407 169 L556 169 L556 0 L66 0 L66 169 L217 169 Z M296 1273 L131 1099 L-4 1099 L164 1411 L431 1411 L604 1099 L463 1099 L296 1273 Z " />
<glyph glyph-name="idieresis" unicode="&#xef;" horiz-adv-x="598" d="M217 169 L217 799 L66 799 L66 968 L407 968 L407 169 L556 169 L556 0 L66 0 L66 169 L217 169 Z M8 1255 Q8 1300 40.5 1333 Q73 1366 119 1366 Q165 1366 197.5 1333.5 Q230 1301 230 1255 Q230 1208 197.5 1176 Q165 1144 119 1144 Q74 1144 41 1176.5 Q8 1209 8 1255 Z M370 1255 Q370 1299 401.5 1332.5 Q433 1366 481 1366 Q527 1366 559.5 1333 Q592 1300 592 1255 Q592 1209 559.5 1176.5 Q527 1144 481 1144 Q434 1144 402 1176.5 Q370 1209 370 1255 Z " />
<glyph glyph-name="ntilde" unicode="&#xf1;" horiz-adv-x="1174" d="M415 968 L415 851 Q598 983 749 983 Q843 983 904.5 938.5 Q966 894 985 829.5 Q1004 765 1004 641 L1004 169 L1167 169 L1167 0 L814 0 L814 633 Q814 743 781 776.5 Q748 810 700 810 Q574 810 415 687 L415 169 L582 169 L582 0 L55 0 L55 169 L225 169 L225 799 L55 799 L55 968 L415 968 Z M831 1391 L943 1391 Q939 1237 884.5 1175 Q830 1113 760 1113 Q689 1113 579 1180 Q482 1238 452 1238 Q421 1238 408 1213.5 Q395 1189 395 1128 L280 1128 Q281 1272 334 1334 Q387 1396 462 1396 Q522 1396 646 1324 Q732 1273 760 1273 Q827 1273 831 1391 Z " />
<glyph glyph-name="oacute" unicode="&#xf3;" horiz-adv-x="1174" d="M78 484 Q78 708 226 851.5 Q374 995 587 995 Q796 995 946 853.5 Q1096 712 1096 484 Q1096 256 946.5 114 Q797 -28 587 -28 Q371 -28 224.5 116 Q78 260 78 484 Z M279 484 Q279 341 368.5 249.5 Q458 158 587 158 Q718 158 806.5 250.5 Q895 343 895 484 Q895 626 805 718 Q715 810 587 810 Q453 810 366 716 Q279 622 279 484 Z M451 1096 L592 1413 L868 1413 L579 1096 L451 1096 Z " />
<glyph glyph-name="ograve" unicode="&#xf2;" horiz-adv-x="1174" d="M78 484 Q78 708 226 851.5 Q374 995 587 995 Q796 995 946 853.5 Q1096 712 1096 484 Q1096 256 946.5 114 Q797 -28 587 -28 Q371 -28 224.5 116 Q78 260 78 484 Z M279 484 Q279 341 368.5 249.5 Q458 158 587 158 Q718 158 806.5 250.5 Q895 343 895 484 Q895 626 805 718 Q715 810 587 810 Q453 810 366 716 Q279 622 279 484 Z M723 1096 L595 1096 L306 1413 L582 1413 L723 1096 Z " />
<glyph glyph-name="ocircumflex" unicode="&#xf4;" horiz-adv-x="1174" d="M78 484 Q78 708 226 851.5 Q374 995 587 995 Q796 995 946 853.5 Q1096 712 1096 484 Q1096 256 946.5 114 Q797 -28 587 -28 Q371 -28 224.5 116 Q78 260 78 484 Z M279 484 Q279 341 368.5 249.5 Q458 158 587 158 Q718 158 806.5 250.5 Q895 343 895 484 Q895 626 805 718 Q715 810 587 810 Q453 810 366 716 Q279 622 279 484 Z M583 1273 L418 1099 L283 1099 L451 1411 L718 1411 L891 1099 L750 1099 L583 1273 Z " />
<glyph glyph-name="odieresis" unicode="&#xf6;" horiz-adv-x="1174" d="M78 484 Q78 708 226 851.5 Q374 995 587 995 Q796 995 946 853.5 Q1096 712 1096 484 Q1096 256 946.5 114 Q797 -28 587 -28 Q371 -28 224.5 116 Q78 260 78 484 Z M279 484 Q279 341 368.5 249.5 Q458 158 587 158 Q718 158 806.5 250.5 Q895 343 895 484 Q895 626 805 718 Q715 810 587 810 Q453 810 366 716 Q279 622 279 484 Z M295 1255 Q295 1300 327.5 1333 Q360 1366 406 1366 Q452 1366 484.5 1333.5 Q517 1301 517 1255 Q517 1208 484.5 1176 Q452 1144 406 1144 Q361 1144 328 1176.5 Q295 1209 295 1255 Z M657 1255 Q657 1299 688.5 1332.5 Q720 1366 768 1366 Q814 1366 846.5 1333 Q879 1300 879 1255 Q879 1209 846.5 1176.5 Q814 1144 768 1144 Q721 1144 689 1176.5 Q657 1209 657 1255 Z " />
<glyph glyph-name="otilde" unicode="&#xf5;" horiz-adv-x="1174" d="M78 484 Q78 708 226 851.5 Q374 995 587 995 Q796 995 946 853.5 Q1096 712 1096 484 Q1096 256 946.5 114 Q797 -28 587 -28 Q371 -28 224.5 116 Q78 260 78 484 Z M279 484 Q279 341 368.5 249.5 Q458 158 587 158 Q718 158 806.5 250.5 Q895 343 895 484 Q895 626 805 718 Q715 810 587 810 Q453 810 366 716 Q279 622 279 484 Z M807 1391 L919 1391 Q915 1237 860.5 1175 Q806 1113 736 1113 Q665 1113 555 1180 Q458 1238 428 1238 Q397 1238 384 1213.5 Q371 1189 371 1128 L256 1128 Q257 1272 310 1334 Q363 1396 438 1396 Q498 1396 622 1324 Q708 1273 736 1273 Q803 1273 807 1391 Z " />
<glyph glyph-name="uacute" unicode="&#xfa;" horiz-adv-x="1153" d="M1133 169 L1133 0 L776 0 L776 111 Q609 -16 456 -16 Q359 -16 295.5 26.5 Q232 69 211 136.5 Q190 204 190 354 L190 799 L53 799 L53 968 L380 968 L380 378 Q380 271 386 234 Q392 197 421 173 Q450 149 494 149 Q626 149 776 275 L776 799 L605 799 L605 968 L966 968 L966 169 L1133 169 Z M433 1096 L574 1413 L850 1413 L561 1096 L433 1096 Z " />
<glyph glyph-name="ugrave" unicode="&#xf9;" horiz-adv-x="1153" d="M1133 169 L1133 0 L776 0 L776 111 Q609 -16 456 -16 Q359 -16 295.5 26.5 Q232 69 211 136.5 Q190 204 190 354 L190 799 L53 799 L53 968 L380 968 L380 378 Q380 271 386 234 Q392 197 421 173 Q450 149 494 149 Q626 149 776 275 L776 799 L605 799 L605 968 L966 968 L966 169 L1133 169 Z M739 1096 L611 1096 L322 1413 L598 1413 L739 1096 Z " />
<glyph glyph-name="ucircumflex" unicode="&#xfb;" horiz-adv-x="1153" d="M1133 169 L1133 0 L776 0 L776 111 Q609 -16 456 -16 Q359 -16 295.5 26.5 Q232 69 211 136.5 Q190 204 190 354 L190 799 L53 799 L53 968 L380 968 L380 378 Q380 271 386 234 Q392 197 421 173 Q450 149 494 149 Q626 149 776 275 L776 799 L605 799 L605 968 L966 968 L966 169 L1133 169 Z M589 1273 L424 1099 L289 1099 L457 1411 L724 1411 L897 1099 L756 1099 L589 1273 Z " />
<glyph glyph-name="udieresis" unicode="&#xfc;" horiz-adv-x="1153" d="M1133 169 L1133 0 L776 0 L776 111 Q609 -16 456 -16 Q359 -16 295.5 26.5 Q232 69 211 136.5 Q190 204 190 354 L190 799 L53 799 L53 968 L380 968 L380 378 Q380 271 386 234 Q392 197 421 173 Q450 149 494 149 Q626 149 776 275 L776 799 L605 799 L605 968 L966 968 L966 169 L1133 169 Z M301 1255 Q301 1300 333.5 1333 Q366 1366 412 1366 Q458 1366 490.5 1333.5 Q523 1301 523 1255 Q523 1208 490.5 1176 Q458 1144 412 1144 Q367 1144 334 1176.5 Q301 1209 301 1255 Z M663 1255 Q663 1299 694.5 1332.5 Q726 1366 774 1366 Q820 1366 852.5 1333 Q885 1300 885 1255 Q885 1209 852.5 1176.5 Q820 1144 774 1144 Q727 1144 695 1176.5 Q663 1209 663 1255 Z " />
<glyph glyph-name="dagger" unicode="&#x2020;" horiz-adv-x="1067" d="M431 1413 L641 1413 L641 1183 Q575 1065 572 907 Q735 910 832 968 L1020 968 L1020 776 L832 776 Q735 834 589 834 L572 834 Q572 660 641 551 L641 310 L572 -445 L496 -445 L431 310 L431 551 Q494 665 496 834 Q343 833 240 776 L47 776 L47 968 L240 968 Q353 907 496 907 Q496 1093 431 1183 L431 1413 Z " />
<glyph glyph-name="degree" unicode="&#xb0;" horiz-adv-x="811" d="M406 1413 Q548 1413 650 1311.5 Q752 1210 752 1067 Q752 925 650.5 823 Q549 721 406 721 Q262 721 161 822.5 Q60 924 60 1067 Q60 1210 161.5 1311.5 Q263 1413 406 1413 Z M406 1283 Q318 1283 254.5 1220 Q191 1157 191 1068 Q191 979 254 916 Q317 853 406 853 Q495 853 558 916.5 Q621 980 621 1068 Q621 1159 557 1221 Q493 1283 406 1283 Z " />
<glyph glyph-name="cent" unicode="&#xa2;" horiz-adv-x="1067" d="M347 23 Q222 91 152 218.5 Q82 346 82 491 Q82 705 224.5 850 Q367 995 553 995 Q623 995 686 973 L843 1421 L932 1421 L763 947 Q800 927 830 900 L830 973 L1000 973 L1000 602 L843 602 Q821 730 706 788 L483 161 Q527 145 581 145 Q784 145 874 335 L1031 261 Q901 -28 574 -28 Q492 -28 423 -8 L268 -442 L181 -442 L347 23 Z M410 202 L628 814 Q600 819 575 819 Q446 819 367 728 Q288 637 288 491 Q288 303 410 202 Z " />
<glyph glyph-name="sterling" unicode="&#xa3;" horiz-adv-x="1110" d="M572 597 Q585 528 585 463 Q585 365 554 260 Q716 178 777 178 Q934 178 950 353 L1071 353 Q1066 153 982.5 65.5 Q899 -22 773 -22 Q647 -22 481 100 Q386 -22 262 -22 Q184 -22 126 27 Q68 76 68 161 Q68 252 130.5 305 Q193 358 273 358 Q338 358 420 322 Q422 350 422 364 Q422 460 372 597 L67 597 L67 758 L311 758 Q232 957 232 1086 Q232 1249 341.5 1331 Q451 1413 600 1413 Q758 1413 867.5 1326 Q977 1239 977 1056 Q977 1044 976 1021 L785 1021 L787 1075 Q787 1139 746.5 1196 Q706 1253 609 1253 Q427 1253 427 1092 Q427 1010 524 758 L773 758 L773 597 L572 597 Z M382 175 Q298 238 245 238 Q214 238 190.5 217.5 Q167 197 167 162 Q167 86 250 86 Q323 86 382 175 Z " />
<glyph glyph-name="section" unicode="&#xa7;" horiz-adv-x="981" d="M871 1050 L683 1050 Q677 1158 612 1203.5 Q547 1249 463 1249 Q388 1249 332.5 1210 Q277 1171 277 1102 Q277 1033 336.5 989 Q396 945 557 887 Q759 815 845 741.5 Q931 668 931 544 Q931 365 734 251 Q900 156 900 -17 Q900 -157 796 -257.5 Q692 -358 509 -358 Q345 -358 234 -270.5 Q123 -183 117 14 L303 14 Q306 -84 364 -135 Q422 -186 513 -186 Q608 -186 658.5 -142.5 Q709 -99 709 -38 Q709 23 650.5 68 Q592 113 420 174 Q279 224 209 263 Q139 302 94.5 370.5 Q50 439 50 517 Q50 691 253 804 Q87 901 87 1078 Q87 1228 196.5 1320.5 Q306 1413 473 1413 Q666 1413 768.5 1316.5 Q871 1220 871 1068 L871 1050 Z M370 744 Q230 668 230 568 Q230 513 269.5 473 Q309 433 610 314 Q757 385 757 496 Q757 556 706.5 594 Q656 632 502 690 Q429 718 370 744 Z " />
<glyph glyph-name="bullet" unicode="&#x2022;" horiz-adv-x="725" d="M364 946 Q465 946 540 874.5 Q615 803 615 695 Q615 592 541 518.5 Q467 445 364 445 Q260 445 186.5 518.5 Q113 592 113 695 Q113 799 187 872.5 Q261 946 364 946 Z " />
<glyph glyph-name="paragraph" unicode="&#xb6;" horiz-adv-x="1110" d="M404 -434 L404 563 Q219 571 109.5 683.5 Q0 796 0 973 Q0 1151 115 1271 Q230 1391 473 1391 L1106 1391 L1106 1218 L962 1218 L962 -434 L795 -434 L795 1218 L572 1218 L572 -434 L404 -434 Z " />
<glyph glyph-name="germandbls" unicode="&#xdf;" horiz-adv-x="1323" d="M418 169 L568 169 L568 0 L56 0 L56 169 L228 169 L228 840 Q228 1054 262.5 1163 Q297 1272 410 1345.5 Q523 1419 685 1419 Q863 1419 983 1329 Q1103 1239 1103 1078 Q1103 888 924 799 Q1073 768 1151.5 658.5 Q1230 549 1230 402 Q1230 213 1126.5 98.5 Q1023 -16 851 -16 Q756 -16 678 22 L678 182 Q740 147 805 147 Q907 147 968.5 217.5 Q1030 288 1030 404 Q1030 508 981.5 576.5 Q933 645 863.5 670 Q794 695 678 698 L678 855 Q784 855 844.5 913 Q905 971 905 1059 Q905 1146 845 1199.5 Q785 1253 687 1253 Q582 1253 521 1209.5 Q460 1166 439 1087 Q418 1008 418 840 L418 169 Z " />
<glyph glyph-name="registered" unicode="&#xae;" horiz-adv-x="1516" d="M758 1413 Q948 1413 1126.5 1316.5 Q1305 1220 1408.5 1039.5 Q1512 859 1512 658 Q1512 346 1291.5 124.5 Q1071 -97 758 -97 Q445 -97 224 124.5 Q3 346 3 658 Q3 861 106 1039 Q209 1217 386 1315 Q563 1413 758 1413 Z M758 1287 Q600 1287 451 1206.5 Q302 1126 215 976 Q128 826 128 658 Q128 398 312.5 213.5 Q497 29 758 29 Q1019 29 1203 213.5 Q1387 398 1387 658 Q1387 919 1202 1103 Q1017 1287 758 1287 Z M427 241 L427 1052 L706 1052 Q827 1052 893 1036 Q959 1020 1006 963 Q1053 906 1053 832 Q1053 746 990 678.5 Q927 611 821 603 Q896 582 1010 399 L1109 241 L949 241 L877 369 Q795 513 752 549 Q709 585 635 585 L558 585 L558 241 L427 241 Z M558 697 L717 697 Q914 697 914 821 Q914 887 867 914.5 Q820 942 707 942 L558 942 L558 697 Z " />
<glyph glyph-name="copyright" unicode="&#xa9;" horiz-adv-x="1516" d="M758 1413 Q948 1413 1126.5 1316.5 Q1305 1220 1408.5 1039.5 Q1512 859 1512 658 Q1512 346 1291.5 124.5 Q1071 -97 758 -97 Q445 -97 224 124.5 Q3 346 3 658 Q3 861 106 1039 Q209 1217 386 1315 Q563 1413 758 1413 Z M758 1287 Q600 1287 451 1206.5 Q302 1126 215 976 Q128 826 128 658 Q128 398 312.5 213.5 Q497 29 758 29 Q1019 29 1203 213.5 Q1387 398 1387 658 Q1387 919 1202 1103 Q1017 1287 758 1287 Z M1000 535 L1123 499 Q1095 375 995.5 300.5 Q896 226 761 226 Q635 226 543.5 283 Q452 340 407.5 437 Q363 534 363 656 Q363 852 470.5 966.5 Q578 1081 767 1081 Q900 1081 989.5 1016.5 Q1079 952 1108 845 L989 816 Q928 970 763 970 Q636 970 567.5 880 Q499 790 499 653 Q499 506 568 424.5 Q637 343 752 343 Q837 343 908 393.5 Q979 444 1000 535 Z " />
<glyph glyph-name="trademark" unicode="&#x2122;" horiz-adv-x="2048" d="M494 577 L494 1270 L230 1270 L230 1391 L896 1391 L896 1270 L630 1270 L630 577 L494 577 Z M987 577 L987 1391 L1187 1391 L1393 740 L1592 1391 L1788 1391 L1788 577 L1664 577 L1664 1260 L1454 577 L1331 577 L1112 1270 L1112 577 L987 577 Z " />
<glyph glyph-name="acute" unicode="&#xb4;" horiz-adv-x="682" d="M156 1096 L297 1413 L573 1413 L284 1096 L156 1096 Z " />
<glyph glyph-name="dieresis" unicode="&#xa8;" horiz-adv-x="682" d="M49 1255 Q49 1300 81.5 1333 Q114 1366 160 1366 Q206 1366 238.5 1333.5 Q271 1301 271 1255 Q271 1208 238.5 1176 Q206 1144 160 1144 Q115 1144 82 1176.5 Q49 1209 49 1255 Z M411 1255 Q411 1299 442.5 1332.5 Q474 1366 522 1366 Q568 1366 600.5 1333 Q633 1300 633 1255 Q633 1209 600.5 1176.5 Q568 1144 522 1144 Q475 1144 443 1176.5 Q411 1209 411 1255 Z " />
<glyph glyph-name="notequal" unicode="&#x2260;" horiz-adv-x="1366" d="M873 1009 L1231 1009 L1231 852 L812 852 L689 539 L1231 539 L1231 382 L628 382 L421 -146 L286 -146 L492 382 L135 382 L135 539 L554 539 L677 852 L135 852 L135 1009 L738 1009 L945 1537 L1080 1537 L873 1009 Z " />
<glyph glyph-name="AE" unicode="&#xc6;" horiz-adv-x="1921" d="M853 634 L460 634 L221 174 L372 174 L372 0 L-121 0 L-121 174 L13 174 L551 1217 L331 1217 L331 1391 L1837 1391 L1837 972 L1665 972 L1665 1217 L1063 1217 L1063 808 L1585 808 L1585 634 L1063 634 L1063 174 L1665 174 L1665 428 L1837 428 L1837 0 L630 0 L630 174 L853 174 L853 634 Z M853 808 L853 1217 L762 1217 L547 808 L853 808 Z " />
<glyph glyph-name="Oslash" unicode="&#xd8;" horiz-adv-x="1642" d="M1354 1194 Q1541 996 1541 696 Q1541 385 1335 181.5 Q1129 -22 817 -22 Q573 -22 390 107 L277 -20 L175 66 L289 195 Q102 402 102 707 Q102 1002 300.5 1207.5 Q499 1413 815 1413 Q1068 1413 1252 1282 L1365 1410 L1467 1322 L1354 1194 Z M433 357 L1114 1126 Q982 1228 815 1228 Q601 1228 466 1077 Q331 926 331 702 Q331 506 433 357 Z M1207 1029 L526 261 Q652 162 818 162 Q1032 162 1171.5 321.5 Q1311 481 1311 698 Q1311 886 1207 1029 Z " />
<glyph glyph-name="infinity" unicode="&#x221e;" horiz-adv-x="1195" d="M556 791 Q673 941 743 982.5 Q813 1024 889 1024 Q999 1024 1088 945.5 Q1177 867 1177 703 Q1177 535 1093 451 Q1009 367 889 367 Q801 367 731.5 416.5 Q662 466 556 600 Q420 429 268 429 Q156 429 88.5 511.5 Q21 594 21 696 Q21 789 84.5 876 Q148 963 268 963 Q420 963 556 791 Z M625 697 Q707 569 766.5 524 Q826 479 886 479 Q955 479 1010.5 529.5 Q1066 580 1066 693 Q1066 797 1014.5 854 Q963 911 883 911 Q827 911 775 871 Q723 831 625 697 Z M487 696 Q365 853 267 853 Q206 853 169 810 Q132 767 132 699 Q132 631 171 586.5 Q210 542 269 542 Q369 542 487 696 Z " />
<glyph glyph-name="plusminus" unicode="&#xb1;" horiz-adv-x="1366" d="M135 943 L605 943 L605 1413 L761 1413 L761 943 L1231 943 L1231 786 L761 786 L761 317 L605 317 L605 786 L135 786 L135 943 Z M135 135 L1231 135 L1231 -22 L135 -22 L135 135 Z " />
<glyph glyph-name="lessequal" unicode="&#x2264;" horiz-adv-x="1366" d="M1231 368 L135 828 L135 969 L1231 1429 L1231 1259 L349 898 L1231 538 L1231 368 Z M135 119 L1231 119 L1231 -38 L135 -38 L135 119 Z " />
<glyph glyph-name="greaterequal" unicode="&#x2265;" horiz-adv-x="1366" d="M135 1429 L1231 969 L1231 828 L135 368 L135 538 L1017 898 L135 1259 L135 1429 Z M135 119 L1231 119 L1231 -38 L135 -38 L135 119 Z " />
<glyph glyph-name="yen" unicode="&#xa5;" horiz-adv-x="1323" d="M875 788 L1246 788 L1246 671 L798 671 L773 633 L773 462 L1246 462 L1246 345 L773 345 L773 174 L963 174 L963 0 L376 0 L376 174 L563 174 L563 345 L76 345 L76 462 L563 462 L563 633 L537 671 L76 671 L76 788 L454 788 L149 1217 L-21 1217 L-21 1391 L551 1391 L551 1217 L376 1217 L683 788 L963 1217 L788 1217 L788 1391 L1343 1391 L1343 1217 L1159 1217 L875 788 Z " />
<glyph glyph-name="mu" unicode="&#xb5;" horiz-adv-x="1130" d="M993 968 L993 0 L832 0 L832 126 Q743 -25 563 -25 Q408 -25 313 107 L313 -434 L135 -434 L135 968 L313 968 L313 612 Q313 421 327.5 337 Q342 253 404.5 195.5 Q467 138 558 138 Q649 138 716 193 Q783 248 799.5 328 Q816 408 816 609 L816 968 L993 968 Z " />
<glyph glyph-name="partialdiff" unicode="&#x2202;" horiz-adv-x="1012" d="M426 1138 L291 1198 Q355 1348 454.5 1419.5 Q554 1491 651 1491 Q799 1491 886 1352 Q973 1213 973 926 Q973 675 900 452.5 Q827 230 676.5 102.5 Q526 -25 362 -25 Q227 -25 141.5 66.5 Q56 158 56 321 Q56 490 148 632 Q240 774 420.5 848 Q601 922 858 924 Q856 1174 801 1268.5 Q746 1363 653 1363 Q510 1363 426 1138 Z M854 796 Q613 784 496.5 729 Q380 674 308 550 Q236 426 236 303 Q236 215 289.5 163.5 Q343 112 406 112 Q550 112 685 281.5 Q820 451 854 796 Z " />
<glyph glyph-name="summation" unicode="&#x2211;" horiz-adv-x="1460" d="M139 1419 L1376 1419 L1376 1255 L388 1255 L995 503 L346 -292 L1386 -292 L1386 -456 L122 -456 L122 -266 L742 496 L139 1243 L139 1419 Z " />
<glyph glyph-name="product" unicode="&#x220f;" horiz-adv-x="1686" d="M162 1419 L1524 1419 L1524 -456 L1333 -456 L1333 1245 L353 1245 L353 -456 L162 -456 L162 1419 Z " />
<glyph glyph-name="pi1" unicode="&#x3c0;" horiz-adv-x="1280" d="M51 1063 L1230 1063 L1230 905 L1071 905 L1071 0 L882 0 L882 905 L398 905 L398 0 L210 0 L210 905 L51 905 L51 1063 Z " />
<glyph glyph-name="integral" unicode="&#x222b;" horiz-adv-x="555" d="M198 608 Q198 1182 251 1352.5 Q304 1523 434 1523 Q480 1523 518.5 1493.5 Q557 1464 557 1415 Q557 1372 532 1342 Q507 1312 465 1312 Q430 1312 389 1347 Q366 1367 349 1367 Q309 1367 309 1304 Q309 1262 318 1159 Q355 749 355 476 Q355 -161 308.5 -360.5 Q262 -560 116 -560 Q60 -560 28.5 -526.5 Q-3 -493 -3 -439 Q-3 -396 22 -368 Q47 -340 87 -340 Q127 -340 157 -373 Q185 -404 205 -404 Q244 -404 244 -343 Q244 -302 235 -223 Q198 93 198 608 Z " />
<glyph glyph-name="ordfeminine" unicode="&#xaa;" horiz-adv-x="705" d="M676 917 L676 816 L461 816 L461 886 Q372 806 261 806 Q179 806 113.5 856 Q48 906 48 990 Q48 1075 117.5 1126.5 Q187 1178 279 1178 Q365 1178 448 1128 L448 1186 Q448 1250 417.5 1283.5 Q387 1317 310 1317 Q217 1317 175 1248 L56 1277 Q135 1413 326 1413 Q419 1413 476.5 1385 Q534 1357 552.5 1314.5 Q571 1272 571 1186 L571 917 L676 917 Z M448 1032 Q369 1089 289 1089 Q233 1089 199.5 1060.5 Q166 1032 166 990 Q166 953 194.5 923.5 Q223 894 280 894 Q368 894 448 963 L448 1032 Z " />
<glyph glyph-name="ordmasculine" unicode="&#xba;" horiz-adv-x="768" d="M53 1106 Q53 1243 150 1328 Q247 1413 384 1413 Q521 1413 618 1327.5 Q715 1242 715 1106 Q715 969 618 884 Q521 799 384 799 Q246 799 149.5 885 Q53 971 53 1106 Z M184 1106 Q184 1020 242.5 965 Q301 910 384 910 Q467 910 525.5 965.5 Q584 1021 584 1106 Q584 1194 524.5 1247.5 Q465 1301 384 1301 Q302 1301 243 1247.5 Q184 1194 184 1106 Z " />
<glyph glyph-name="Ohm" unicode="&#x2126;" horiz-adv-x="1621" d="M504 160 Q158 361 158 811 Q158 989 232.5 1151 Q307 1313 457 1408 Q607 1503 816 1503 Q1114 1503 1288.5 1303 Q1463 1103 1463 803 Q1463 387 1119 160 L1486 166 L1486 0 L908 0 L908 177 Q1073 252 1164 418 Q1255 584 1255 777 Q1255 1009 1144 1174.5 Q1033 1340 814 1340 Q590 1340 480 1175.5 Q370 1011 370 786 Q370 563 463 404.5 Q556 246 712 180 L712 0 L135 0 L135 168 L504 160 Z " />
<glyph glyph-name="ae" unicode="&#xe6;" horiz-adv-x="1812" d="M1725 435 L939 435 Q948 300 1042.5 218 Q1137 136 1259 136 Q1345 136 1426 179.5 Q1507 223 1556 290 L1725 215 Q1661 104 1533.5 38 Q1406 -28 1264 -28 Q993 -28 832 180 Q780 103 671.5 37.5 Q563 -28 437 -28 Q291 -28 188 54 Q85 136 85 278 Q85 428 202 512.5 Q319 597 463 597 Q602 597 745 516 L745 616 Q745 698 727.5 738 Q710 778 658.5 806.5 Q607 835 523 835 Q352 835 280 717 L96 768 Q226 995 543 995 Q781 995 888 845 Q1023 995 1231 995 Q1443 995 1582.5 837 Q1722 679 1725 435 Z M1518 579 Q1496 699 1413.5 763.5 Q1331 828 1227 828 Q1123 828 1041.5 759.5 Q960 691 938 579 L1518 579 Z M745 347 Q624 442 492 442 Q403 442 347.5 395.5 Q292 349 292 277 Q292 209 346 168 Q400 127 472 127 Q628 127 745 250 L745 347 Z " />
<glyph glyph-name="oslash" unicode="&#xf8;" horiz-adv-x="1174" d="M220 120 Q78 266 78 485 Q78 708 227 851.5 Q376 995 586 995 Q755 995 887 902 L984 1016 L1050 958 L954 845 Q1096 701 1096 483 Q1096 259 947 115.5 Q798 -28 589 -28 Q422 -28 289 63 L192 -51 L123 7 L220 120 Z M349 271 L761 755 Q681 810 587 810 Q459 810 369 718 Q279 626 279 485 Q279 360 349 271 Z M826 694 L415 211 Q493 158 588 158 Q711 158 803 247.5 Q895 337 895 483 Q895 608 826 694 Z " />
<glyph glyph-name="questiondown" unicode="&#xbf;" horiz-adv-x="961" d="M664 977 L664 732 L418 732 L418 977 L664 977 Z M489 602 L592 602 L616 160 Q569 172 521 172 Q391 172 333 106 Q275 40 275 -50 Q275 -158 337 -216 Q399 -274 496 -274 Q614 -274 670 -206 Q726 -138 726 -36 Q726 -14 725 14 L912 14 Q913 -14 913 -34 Q913 -239 791.5 -337.5 Q670 -436 502 -436 Q298 -436 188 -328 Q78 -220 78 -42 Q78 129 183.5 231 Q289 333 432 333 Q443 333 464 332 L489 602 Z " />
<glyph glyph-name="exclamdown" unicode="&#xa1;" horiz-adv-x="598" d="M176 977 L422 977 L422 732 L176 732 L176 977 Z M349 604 L399 8 L399 -410 L197 -410 L197 8 L247 604 L349 604 Z " />
<glyph glyph-name="logicalnot" unicode="&#xac;" horiz-adv-x="1366" d="M135 1009 L1231 1009 L1231 382 L1074 382 L1074 852 L135 852 L135 1009 Z " />
<glyph glyph-name="radical" unicode="&#x221a;" horiz-adv-x="1131" d="M1053 1869 L1127 1869 L815 -78 L319 943 L121 852 L87 916 L388 1067 L793 244 L1053 1869 Z " />
<glyph glyph-name="florin" unicode="&#x192;" horiz-adv-x="1130" d="M46 -405 L81 -250 Q181 -272 233 -272 Q286 -272 315 -244 Q344 -216 361 -120 L538 922 L337 922 L361 1062 L562 1062 L586 1195 Q609 1318 638 1373.5 Q667 1429 726 1460.5 Q785 1492 866 1492 Q950 1492 1085 1454 L1050 1301 Q950 1325 896 1325 Q832 1325 807.5 1292.5 Q783 1260 765 1165 L746 1062 L950 1062 L925 922 L721 922 L530 -170 Q504 -317 443 -374 Q382 -431 276 -431 Q176 -431 46 -405 Z " />
<glyph glyph-name="approxequal" unicode="&#x2248;" horiz-adv-x="1366" d="M1231 901 Q1076 773 938 773 Q877 773 819 791 Q761 809 626 872 Q499 932 433 932 Q298 932 135 791 L135 960 Q292 1089 440 1089 Q533 1089 733 995 Q869 931 937 931 Q1070 931 1231 1070 L1231 901 Z M1231 431 Q1076 303 938 303 Q877 303 819 320.5 Q761 338 626 401 Q499 461 433 461 Q298 461 135 321 L135 490 Q292 618 440 618 Q533 618 733 524 Q869 460 937 460 Q1066 460 1231 600 L1231 431 Z " />
<glyph glyph-name="increment" unicode="&#x2206;" horiz-adv-x="1259" d="M1229 0 L29 0 L657 1387 L1229 0 Z M993 82 L594 1049 L154 82 L993 82 Z " />
<glyph glyph-name="guillemotleft" unicode="&#xab;" horiz-adv-x="981" d="M33 484 L330 968 L530 968 L238 484 L530 0 L330 0 L33 484 Z M461 484 L758 968 L958 968 L666 484 L958 0 L758 0 L461 484 Z " />
<glyph glyph-name="guillemotright" unicode="&#xbb;" horiz-adv-x="981" d="M520 484 L223 0 L23 0 L316 484 L23 968 L223 968 L520 484 Z M948 484 L651 0 L451 0 L744 484 L451 968 L651 968 L948 484 Z " />
<glyph glyph-name="ellipsis" unicode="&#x2026;" horiz-adv-x="2048" d="M219 0 L219 246 L465 246 L465 0 L219 0 Z M902 0 L902 246 L1147 246 L1147 0 L902 0 Z M1584 0 L1584 246 L1830 246 L1830 0 L1584 0 Z " />
<glyph glyph-name="nbspace" unicode="&#xa0;" horiz-adv-x="512" d="" />
<glyph glyph-name="Agrave" unicode="&#xc0;" horiz-adv-x="1430" d="M970 489 L470 489 L363 174 L532 174 L532 0 L-16 0 L-16 174 L152 174 L532 1234 L363 1234 L363 1391 L1074 1391 L1074 1234 L901 1234 L1290 174 L1446 174 L1446 0 L901 0 L901 174 L1074 174 L970 489 Z M918 652 L733 1234 L714 1234 L522 652 L918 652 Z M851 1473 L723 1473 L434 1790 L710 1790 L851 1473 Z " />
<glyph glyph-name="Atilde" unicode="&#xc3;" horiz-adv-x="1430" d="M970 489 L470 489 L363 174 L532 174 L532 0 L-16 0 L-16 174 L152 174 L532 1234 L363 1234 L363 1391 L1074 1391 L1074 1234 L901 1234 L1290 174 L1446 174 L1446 0 L901 0 L901 174 L1074 174 L970 489 Z M918 652 L733 1234 L714 1234 L522 652 L918 652 Z M939 1768 L1051 1768 Q1047 1614 992.5 1552 Q938 1490 868 1490 Q797 1490 687 1557 Q590 1615 560 1615 Q529 1615 516 1590.5 Q503 1566 503 1505 L388 1505 Q389 1649 442 1711 Q495 1773 570 1773 Q630 1773 754 1701 Q840 1650 868 1650 Q935 1650 939 1768 Z " />
<glyph glyph-name="Otilde" unicode="&#xd5;" horiz-adv-x="1642" d="M102 702 Q102 1005 300 1209 Q498 1413 816 1413 Q1137 1413 1339 1209 Q1541 1005 1541 698 Q1541 385 1335.5 181.5 Q1130 -22 813 -22 Q611 -22 441.5 74.5 Q272 171 187 343.5 Q102 516 102 702 Z M331 701 Q331 472 465 317 Q599 162 817 162 Q1033 162 1172 320.5 Q1311 479 1311 699 Q1311 921 1169.5 1074.5 Q1028 1228 814 1228 Q601 1228 466 1077 Q331 926 331 701 Z M1041 1768 L1153 1768 Q1149 1614 1094.5 1552 Q1040 1490 970 1490 Q899 1490 789 1557 Q692 1615 662 1615 Q631 1615 618 1590.5 Q605 1566 605 1505 L490 1505 Q491 1649 544 1711 Q597 1773 672 1773 Q732 1773 856 1701 Q942 1650 970 1650 Q1037 1650 1041 1768 Z " />
<glyph glyph-name="OE" unicode="&#x152;" horiz-adv-x="2091" d="M1256 1217 L1256 808 L1771 808 L1771 634 L1256 634 L1256 174 L1852 174 L1852 425 L2023 425 L2023 0 L969 0 Q722 0 612.5 18 Q503 36 373 122.5 Q243 209 162.5 360 Q82 511 82 682 Q82 860 155.5 1012 Q229 1164 338.5 1245.5 Q448 1327 573 1359 Q698 1391 921 1391 L2023 1391 L2023 972 L1852 972 L1852 1217 L1256 1217 Z M1046 1217 L864 1217 Q722 1217 637 1197 Q552 1177 470 1116 Q388 1055 339.5 945.5 Q291 836 291 696 Q291 513 367.5 390 Q444 267 566.5 220.5 Q689 174 890 174 L1046 174 L1046 1217 Z " />
<glyph glyph-name="oe" unicode="&#x153;" horiz-adv-x="1942" d="M1862 435 L1062 435 Q1068 315 1155.5 227 Q1243 139 1377 139 Q1565 139 1695 298 L1862 226 Q1780 92 1646.5 32 Q1513 -28 1380 -28 Q1117 -28 963 169 Q824 -28 579 -28 Q369 -28 221 115.5 Q73 259 73 485 Q73 630 141.5 746.5 Q210 863 331 929 Q452 995 573 995 Q805 995 963 799 Q1107 995 1351 995 Q1564 995 1713 837 Q1862 679 1862 435 Z M1648 579 Q1626 693 1540 759.5 Q1454 826 1346 826 Q1243 826 1165.5 762 Q1088 698 1067 579 L1648 579 Z M279 481 Q279 337 365 246.5 Q451 156 578 156 Q708 156 790.5 250 Q873 344 873 487 Q873 645 776 724 Q679 803 573 803 Q448 803 363.5 712 Q279 621 279 481 Z " />
<glyph glyph-name="endash" unicode="&#x2013;" horiz-adv-x="1024" d="M-12 601 L1036 601 L1036 424 L-12 424 L-12 601 Z " />
<glyph glyph-name="emdash" unicode="&#x2014;" horiz-adv-x="2048" d="M-12 601 L2060 601 L2060 424 L-12 424 L-12 601 Z " />
<glyph glyph-name="quotedblleft" unicode="&#x201c;" horiz-adv-x="1067" d="M410 1114 L410 868 L164 868 L164 1082 Q164 1191 181 1251 Q198 1311 253 1349.5 Q308 1388 410 1391 L410 1287 Q290 1269 290 1138 L290 1114 L410 1114 Z M904 1114 L904 868 L659 868 L659 1082 Q659 1191 675.5 1251 Q692 1311 747.5 1349.5 Q803 1388 904 1391 L904 1287 Q784 1269 784 1138 Q784 1130 785 1114 L904 1114 Z " />
<glyph glyph-name="quotedblright" unicode="&#x201d;" horiz-adv-x="1067" d="M163 1145 L163 1391 L409 1391 L409 1178 Q409 1068 392 1008 Q375 948 319.5 910 Q264 872 163 868 L163 973 Q283 991 283 1121 Q283 1129 282 1145 L163 1145 Z M658 1145 L658 1391 L903 1391 L903 1178 Q903 1068 886 1008 Q869 948 814 910 Q759 872 658 868 L658 973 Q778 991 778 1121 Q778 1129 777 1145 L658 1145 Z " />
<glyph glyph-name="quoteleft" unicode="&#x2018;" horiz-adv-x="598" d="M422 1114 L422 868 L176 868 L176 1082 Q176 1191 193 1251 Q210 1311 265 1349.5 Q320 1388 422 1391 L422 1287 Q302 1269 302 1138 L302 1114 L422 1114 Z " />
<glyph glyph-name="quoteright" unicode="&#x2019;" horiz-adv-x="598" d="M176 1145 L176 1391 L422 1391 L422 1178 Q422 1068 405 1008 Q388 948 332.5 910 Q277 872 176 868 L176 973 Q296 991 296 1121 Q296 1129 295 1145 L176 1145 Z " />
<glyph glyph-name="divide" unicode="&#xf7;" horiz-adv-x="1366" d="M683 1212 Q723 1212 752 1183.5 Q781 1155 781 1114 Q781 1073 752 1045 Q723 1017 683 1017 Q643 1017 614 1045.5 Q585 1074 585 1114 Q585 1157 614.5 1184.5 Q644 1212 683 1212 Z M135 774 L1231 774 L1231 617 L135 617 L135 774 Z M683 374 Q723 374 752 346 Q781 318 781 277 Q781 236 752 207.5 Q723 179 683 179 Q643 179 614 207.5 Q585 236 585 277 Q585 318 614 346 Q643 374 683 374 Z " />
<glyph glyph-name="lozenge" unicode="&#x25ca;" horiz-adv-x="1012" d="M548 1422 L966 709 L548 0 L437 0 L46 709 L437 1422 L548 1422 Z M494 1325 L154 709 L494 94 L853 709 L494 1325 Z " />
<glyph glyph-name="ydieresis" unicode="&#xff;" horiz-adv-x="1153" d="M496 17 L178 799 L17 799 L17 968 L496 968 L496 799 L380 799 L589 263 L794 799 L666 799 L666 968 L1135 968 L1135 799 L991 799 L512 -434 L191 -434 L191 -268 L380 -268 L496 17 Z M296 1255 Q296 1300 328.5 1333 Q361 1366 407 1366 Q453 1366 485.5 1333.5 Q518 1301 518 1255 Q518 1208 485.5 1176 Q453 1144 407 1144 Q362 1144 329 1176.5 Q296 1209 296 1255 Z M658 1255 Q658 1299 689.5 1332.5 Q721 1366 769 1366 Q815 1366 847.5 1333 Q880 1300 880 1255 Q880 1209 847.5 1176.5 Q815 1144 769 1144 Q722 1144 690 1176.5 Q658 1209 658 1255 Z " />
<glyph glyph-name="Ydieresis" unicode="&#x178;" horiz-adv-x="1323" d="M563 174 L563 633 L149 1217 L-21 1217 L-21 1391 L551 1391 L551 1217 L376 1217 L683 788 L963 1217 L788 1217 L788 1391 L1343 1391 L1343 1217 L1159 1217 L773 633 L773 174 L963 174 L963 0 L376 0 L376 174 L563 174 Z M369 1617 Q369 1662 401.5 1695 Q434 1728 480 1728 Q526 1728 558.5 1695.5 Q591 1663 591 1617 Q591 1570 558.5 1538 Q526 1506 480 1506 Q435 1506 402 1538.5 Q369 1571 369 1617 Z M731 1617 Q731 1661 762.5 1694.5 Q794 1728 842 1728 Q888 1728 920.5 1695 Q953 1662 953 1617 Q953 1571 920.5 1538.5 Q888 1506 842 1506 Q795 1506 763 1538.5 Q731 1571 731 1617 Z " />
<glyph glyph-name="fraction" unicode="&#x2215;" horiz-adv-x="618" d="M-303 0 L801 1389 L921 1389 L-182 0 L-303 0 Z " />
<glyph glyph-name="Euro" unicode="&#x20ac;" horiz-adv-x="1110" d="M352 764 L350 700 L352 635 L721 635 L721 483 L367 483 Q415 145 670 145 Q753 145 816 218.5 Q879 292 905 410 L1087 330 Q1055 169 942.5 73 Q830 -23 655 -23 Q219 -23 156 483 L25 483 L25 635 L143 635 L143 694 Q143 743 145 764 L25 764 L25 915 L156 915 Q214 1413 651 1413 Q799 1413 868 1317 L868 1403 L1049 1403 L1049 989 L868 989 Q853 1111 794.5 1180 Q736 1249 649 1249 Q522 1249 453 1168.5 Q384 1088 362 915 L721 915 L721 764 L352 764 Z " />
<glyph glyph-name="guilsinglleft" unicode="&#x2039;" horiz-adv-x="598" d="M55 484 L358 968 L552 968 L260 484 L552 0 L358 0 L55 484 Z " />
<glyph glyph-name="guilsinglright" unicode="&#x203a;" horiz-adv-x="598" d="M542 484 L239 0 L45 0 L337 484 L45 968 L239 968 L542 484 Z " />
<glyph glyph-name="fi" unicode="&#xf001;" horiz-adv-x="1174" d="M723 1192 L553 1169 Q544 1264 478 1264 Q433 1264 418 1224.5 Q403 1185 403 1067 L403 968 L990 968 L990 169 L1144 169 L1144 0 L649 0 L649 169 L800 169 L800 799 L403 799 L403 169 L553 169 L553 0 L61 0 L61 169 L213 169 L213 799 L61 799 L61 968 L213 968 L213 1067 Q213 1283 294 1351 Q375 1419 474 1419 Q585 1419 648 1351 Q711 1283 723 1192 Z M899 1410 Q945 1410 979.5 1377.5 Q1014 1345 1014 1296 Q1014 1248 980 1214 Q946 1180 899 1180 Q851 1180 817.5 1214 Q784 1248 784 1296 Q784 1345 818 1377.5 Q852 1410 899 1410 Z " />
<glyph glyph-name="fl" unicode="&#xf002;" horiz-adv-x="1174" d="M62 169 L208 169 L208 799 L62 799 L62 968 L208 968 L208 1052 Q208 1252 278.5 1335.5 Q349 1419 460 1419 Q514 1419 583 1391 L987 1391 L987 169 L1143 169 L1143 0 L647 0 L647 169 L797 169 L797 1222 L547 1222 Q513 1259 481 1259 Q441 1259 419.5 1221.5 Q398 1184 398 1062 L398 968 L565 968 L565 799 L398 799 L398 169 L547 169 L547 0 L62 0 L62 169 Z " />
<glyph glyph-name="daggerdbl" unicode="&#x2021;" horiz-adv-x="1067" d="M429 1413 L639 1413 L639 1185 Q577 1077 570 941 Q728 950 808 999 L986 999 L986 813 L808 813 Q707 865 570 868 Q584 669 669 494 Q580 312 570 112 Q724 117 808 169 L986 169 L986 -15 L808 -15 Q730 30 570 39 Q583 -104 639 -197 L639 -434 L429 -434 L429 -197 Q479 -108 495 39 Q365 39 265 -15 L80 -15 L80 169 L265 169 Q339 124 495 112 Q484 332 405 494 Q480 646 495 868 Q359 865 265 813 L80 813 L80 999 L265 999 Q356 948 495 941 Q487 1094 429 1185 L429 1413 Z " />
<glyph glyph-name="periodcentered" unicode="&#x2219;" horiz-adv-x="598" d="M176 573 L176 818 L422 818 L422 573 L176 573 Z " />
<glyph glyph-name="quotesinglbase" unicode="&#x201a;" horiz-adv-x="598" d="M176 0 L176 246 L422 246 L422 32 Q422 -77 405 -137 Q388 -197 332.5 -235.5 Q277 -274 176 -277 L176 -173 Q296 -155 296 -24 Q296 -16 295 0 L176 0 Z " />
<glyph glyph-name="quotedblbase" unicode="&#x201e;" horiz-adv-x="1067" d="M163 0 L163 246 L409 246 L409 32 Q409 -77 392 -137 Q375 -197 319.5 -235.5 Q264 -274 163 -277 L163 -173 Q283 -155 283 -24 Q283 -16 282 0 L163 0 Z M658 0 L658 246 L903 246 L903 32 Q903 -77 886 -137 Q869 -197 814 -235.5 Q759 -274 658 -277 L658 -173 Q778 -155 778 -24 Q778 -16 777 0 L658 0 Z " />
<glyph glyph-name="perthousand" unicode="&#x2030;" horiz-adv-x="2218" d="M56 1040 Q56 1207 131 1310 Q206 1413 353 1413 Q490 1413 570 1316 Q650 1219 650 1040 Q650 870 573.5 769 Q497 668 353 668 Q216 668 136 764.5 Q56 861 56 1040 Z M200 1041 Q200 764 353 764 Q505 764 505 1040 Q505 1317 353 1317 Q200 1317 200 1041 Z M120 0 L1223 1391 L1365 1391 L270 0 L120 0 Z M823 351 Q823 531 903.5 627 Q984 723 1120 723 Q1257 723 1337 626 Q1417 529 1417 351 Q1417 171 1336.5 74.5 Q1256 -22 1120 -22 Q974 -22 898.5 80.5 Q823 183 823 351 Z M968 351 Q968 74 1120 74 Q1273 74 1273 350 Q1273 627 1120 627 Q968 627 968 351 Z M1571 351 Q1571 531 1651.5 627 Q1732 723 1868 723 Q2005 723 2085 626 Q2165 529 2165 351 Q2165 171 2084.5 74.5 Q2004 -22 1868 -22 Q1722 -22 1646.5 80.5 Q1571 183 1571 351 Z M1716 351 Q1716 74 1868 74 Q2021 74 2021 350 Q2021 627 1868 627 Q1716 627 1716 351 Z " />
<glyph glyph-name="Acircumflex" unicode="&#xc2;" horiz-adv-x="1430" d="M970 489 L470 489 L363 174 L532 174 L532 0 L-16 0 L-16 174 L152 174 L532 1234 L363 1234 L363 1391 L1074 1391 L1074 1234 L901 1234 L1290 174 L1446 174 L1446 0 L901 0 L901 174 L1074 174 L970 489 Z M918 652 L733 1234 L714 1234 L522 652 L918 652 Z M715 1650 L550 1476 L415 1476 L583 1788 L850 1788 L1023 1476 L882 1476 L715 1650 Z " />
<glyph glyph-name="Ecircumflex" unicode="&#xca;" horiz-adv-x="1280" d="M236 174 L236 1217 L56 1217 L56 1391 L1212 1391 L1212 972 L1040 972 L1040 1217 L446 1217 L446 803 L963 803 L963 629 L446 629 L446 174 L1040 174 L1040 427 L1212 427 L1212 0 L56 0 L56 174 L236 174 Z M630 1650 L465 1476 L330 1476 L498 1788 L765 1788 L938 1476 L797 1476 L630 1650 Z " />
<glyph glyph-name="Aacute" unicode="&#xc1;" horiz-adv-x="1430" d="M970 489 L470 489 L363 174 L532 174 L532 0 L-16 0 L-16 174 L152 174 L532 1234 L363 1234 L363 1391 L1074 1391 L1074 1234 L901 1234 L1290 174 L1446 174 L1446 0 L901 0 L901 174 L1074 174 L970 489 Z M918 652 L733 1234 L714 1234 L522 652 L918 652 Z M579 1473 L720 1790 L996 1790 L707 1473 L579 1473 Z " />
<glyph glyph-name="Edieresis" unicode="&#xcb;" horiz-adv-x="1280" d="M236 174 L236 1217 L56 1217 L56 1391 L1212 1391 L1212 972 L1040 972 L1040 1217 L446 1217 L446 803 L963 803 L963 629 L446 629 L446 174 L1040 174 L1040 427 L1212 427 L1212 0 L56 0 L56 174 L236 174 Z M342 1617 Q342 1662 374.5 1695 Q407 1728 453 1728 Q499 1728 531.5 1695.5 Q564 1663 564 1617 Q564 1570 531.5 1538 Q499 1506 453 1506 Q408 1506 375 1538.5 Q342 1571 342 1617 Z M704 1617 Q704 1661 735.5 1694.5 Q767 1728 815 1728 Q861 1728 893.5 1695 Q926 1662 926 1617 Q926 1571 893.5 1538.5 Q861 1506 815 1506 Q768 1506 736 1538.5 Q704 1571 704 1617 Z " />
<glyph glyph-name="Egrave" unicode="&#xc8;" horiz-adv-x="1280" d="M236 174 L236 1217 L56 1217 L56 1391 L1212 1391 L1212 972 L1040 972 L1040 1217 L446 1217 L446 803 L963 803 L963 629 L446 629 L446 174 L1040 174 L1040 427 L1212 427 L1212 0 L56 0 L56 174 L236 174 Z M782 1473 L654 1473 L365 1790 L641 1790 L782 1473 Z " />
<glyph glyph-name="Iacute" unicode="&#xcd;" horiz-adv-x="641" d="M215 174 L215 1217 L64 1217 L64 1391 L576 1391 L576 1217 L425 1217 L425 174 L576 174 L576 0 L64 0 L64 174 L215 174 Z M178 1473 L319 1790 L595 1790 L306 1473 L178 1473 Z " />
<glyph glyph-name="Icircumflex" unicode="&#xce;" horiz-adv-x="641" d="M215 174 L215 1217 L64 1217 L64 1391 L576 1391 L576 1217 L425 1217 L425 174 L576 174 L576 0 L64 0 L64 174 L215 174 Z M316 1650 L151 1476 L16 1476 L184 1788 L451 1788 L624 1476 L483 1476 L316 1650 Z " />
<glyph glyph-name="Idieresis" unicode="&#xcf;" horiz-adv-x="641" d="M215 174 L215 1217 L64 1217 L64 1391 L576 1391 L576 1217 L425 1217 L425 174 L576 174 L576 0 L64 0 L64 174 L215 174 Z M28 1617 Q28 1662 60.5 1695 Q93 1728 139 1728 Q185 1728 217.5 1695.5 Q250 1663 250 1617 Q250 1570 217.5 1538 Q185 1506 139 1506 Q94 1506 61 1538.5 Q28 1571 28 1617 Z M390 1617 Q390 1661 421.5 1694.5 Q453 1728 501 1728 Q547 1728 579.5 1695 Q612 1662 612 1617 Q612 1571 579.5 1538.5 Q547 1506 501 1506 Q454 1506 422 1538.5 Q390 1571 390 1617 Z " />
<glyph glyph-name="Igrave" unicode="&#xcc;" horiz-adv-x="641" d="M215 174 L215 1217 L64 1217 L64 1391 L576 1391 L576 1217 L425 1217 L425 174 L576 174 L576 0 L64 0 L64 174 L215 174 Z M482 1473 L354 1473 L65 1790 L341 1790 L482 1473 Z " />
<glyph glyph-name="Oacute" unicode="&#xd3;" horiz-adv-x="1642" d="M102 702 Q102 1005 300 1209 Q498 1413 816 1413 Q1137 1413 1339 1209 Q1541 1005 1541 698 Q1541 385 1335.5 181.5 Q1130 -22 813 -22 Q611 -22 441.5 74.5 Q272 171 187 343.5 Q102 516 102 702 Z M331 701 Q331 472 465 317 Q599 162 817 162 Q1033 162 1172 320.5 Q1311 479 1311 699 Q1311 921 1169.5 1074.5 Q1028 1228 814 1228 Q601 1228 466 1077 Q331 926 331 701 Z M721 1473 L862 1790 L1138 1790 L849 1473 L721 1473 Z " />
<glyph glyph-name="Ocircumflex" unicode="&#xd4;" horiz-adv-x="1642" d="M102 702 Q102 1005 300 1209 Q498 1413 816 1413 Q1137 1413 1339 1209 Q1541 1005 1541 698 Q1541 385 1335.5 181.5 Q1130 -22 813 -22 Q611 -22 441.5 74.5 Q272 171 187 343.5 Q102 516 102 702 Z M331 701 Q331 472 465 317 Q599 162 817 162 Q1033 162 1172 320.5 Q1311 479 1311 699 Q1311 921 1169.5 1074.5 Q1028 1228 814 1228 Q601 1228 466 1077 Q331 926 331 701 Z M818 1650 L653 1476 L518 1476 L686 1788 L953 1788 L1126 1476 L985 1476 L818 1650 Z " />
<glyph glyph-name="Ograve" unicode="&#xd2;" horiz-adv-x="1642" d="M102 702 Q102 1005 300 1209 Q498 1413 816 1413 Q1137 1413 1339 1209 Q1541 1005 1541 698 Q1541 385 1335.5 181.5 Q1130 -22 813 -22 Q611 -22 441.5 74.5 Q272 171 187 343.5 Q102 516 102 702 Z M331 701 Q331 472 465 317 Q599 162 817 162 Q1033 162 1172 320.5 Q1311 479 1311 699 Q1311 921 1169.5 1074.5 Q1028 1228 814 1228 Q601 1228 466 1077 Q331 926 331 701 Z M921 1473 L793 1473 L504 1790 L780 1790 L921 1473 Z " />
<glyph glyph-name="Uacute" unicode="&#xda;" horiz-adv-x="1386" d="M409 1217 L409 521 Q409 359 425.5 297 Q442 235 508 191.5 Q574 148 678 148 Q802 148 868 185.5 Q934 223 955.5 286.5 Q977 350 977 511 L977 1217 L816 1217 L816 1391 L1360 1391 L1360 1217 L1186 1217 L1186 490 Q1186 343 1173.5 276.5 Q1161 210 1106 137.5 Q1051 65 951 21.5 Q851 -22 708 -22 Q550 -22 445 18.5 Q340 59 287 127 Q234 195 216.5 272 Q199 349 199 511 L199 1217 L27 1217 L27 1391 L574 1391 L574 1217 L409 1217 Z M581 1473 L722 1790 L998 1790 L709 1473 L581 1473 Z " />
<glyph glyph-name="Ucircumflex" unicode="&#xdb;" horiz-adv-x="1386" d="M409 1217 L409 521 Q409 359 425.5 297 Q442 235 508 191.5 Q574 148 678 148 Q802 148 868 185.5 Q934 223 955.5 286.5 Q977 350 977 511 L977 1217 L816 1217 L816 1391 L1360 1391 L1360 1217 L1186 1217 L1186 490 Q1186 343 1173.5 276.5 Q1161 210 1106 137.5 Q1051 65 951 21.5 Q851 -22 708 -22 Q550 -22 445 18.5 Q340 59 287 127 Q234 195 216.5 272 Q199 349 199 511 L199 1217 L27 1217 L27 1391 L574 1391 L574 1217 L409 1217 Z M690 1650 L525 1476 L390 1476 L558 1788 L825 1788 L998 1476 L857 1476 L690 1650 Z " />
<glyph glyph-name="Ugrave" unicode="&#xd9;" horiz-adv-x="1386" d="M409 1217 L409 521 Q409 359 425.5 297 Q442 235 508 191.5 Q574 148 678 148 Q802 148 868 185.5 Q934 223 955.5 286.5 Q977 350 977 511 L977 1217 L816 1217 L816 1391 L1360 1391 L1360 1217 L1186 1217 L1186 490 Q1186 343 1173.5 276.5 Q1161 210 1106 137.5 Q1051 65 951 21.5 Q851 -22 708 -22 Q550 -22 445 18.5 Q340 59 287 127 Q234 195 216.5 272 Q199 349 199 511 L199 1217 L27 1217 L27 1391 L574 1391 L574 1217 L409 1217 Z M805 1473 L677 1473 L388 1790 L664 1790 L805 1473 Z " />
<glyph glyph-name="dotlessi" unicode="&#x131;" horiz-adv-x="598" d="M217 169 L217 799 L66 799 L66 968 L407 968 L407 169 L556 169 L556 0 L66 0 L66 169 L217 169 Z " />
<glyph glyph-name="circumflex" unicode="&#x2c6;" horiz-adv-x="682" d="M337 1273 L172 1099 L37 1099 L205 1411 L472 1411 L645 1099 L504 1099 L337 1273 Z " />
<glyph glyph-name="tilde" unicode="&#x2dc;" horiz-adv-x="682" d="M561 1391 L673 1391 Q669 1237 614.5 1175 Q560 1113 490 1113 Q419 1113 309 1180 Q212 1238 182 1238 Q151 1238 138 1213.5 Q125 1189 125 1128 L10 1128 Q11 1272 64 1334 Q117 1396 192 1396 Q252 1396 376 1324 Q462 1273 490 1273 Q557 1273 561 1391 Z " />
<glyph glyph-name="macron" unicode="&#x2c9;" horiz-adv-x="682" d="M49 1167 L49 1326 L633 1326 L633 1167 L49 1167 Z " />
<glyph glyph-name="breve" unicode="&#x2d8;" horiz-adv-x="682" d="M33 1397 L176 1397 Q200 1252 341 1252 Q484 1252 507 1397 L650 1397 Q640 1272 555 1192 Q470 1112 341 1112 Q212 1112 127.5 1192 Q43 1272 33 1397 Z " />
<glyph glyph-name="dotaccent" unicode="&#x2d9;" horiz-adv-x="682" d="M227 1255 Q227 1302 260.5 1335.5 Q294 1369 342 1369 Q389 1369 422.5 1335.5 Q456 1302 456 1255 Q456 1207 422.5 1173.5 Q389 1140 342 1140 Q293 1140 260 1174.5 Q227 1209 227 1255 Z " />
<glyph glyph-name="ring" unicode="&#x2da;" horiz-adv-x="682" d="M142 1255 Q142 1334 199 1394 Q256 1454 341 1454 Q424 1454 482 1395.5 Q540 1337 540 1255 Q540 1173 481.5 1114.5 Q423 1056 341 1056 Q256 1056 199 1115.5 Q142 1175 142 1255 Z M220 1255 Q220 1206 255 1170 Q290 1134 341 1134 Q391 1134 426.5 1169.5 Q462 1205 462 1255 Q462 1304 426.5 1339.5 Q391 1375 341 1375 Q289 1375 254.5 1339 Q220 1303 220 1255 Z " />
<glyph glyph-name="cedilla" unicode="&#xb8;" horiz-adv-x="682" d="M422 21 L401 -97 Q543 -132 543 -260 Q543 -357 463 -407 Q383 -457 241 -457 L169 -457 L169 -346 Q275 -346 313.5 -328 Q352 -310 352 -270 Q352 -212 256 -212 L297 21 L422 21 Z " />
<glyph glyph-name="hungarumlaut" unicode="&#x2dd;" horiz-adv-x="682" d="M-39 1096 L102 1413 L378 1413 L89 1096 L-39 1096 Z M303 1096 L444 1413 L720 1413 L431 1096 L303 1096 Z " />
<glyph glyph-name="ogonek" unicode="&#x2db;" horiz-adv-x="682" d="M215 0 L375 0 Q335 -72 335 -144 Q335 -274 446 -274 Q487 -274 528 -254 L528 -388 Q438 -432 360 -432 Q269 -432 212 -374 Q155 -316 155 -221 Q155 -132 215 0 Z " />
<glyph glyph-name="caron" unicode="&#x2c7;" horiz-adv-x="682" d="M345 1236 L511 1411 L645 1411 L477 1099 L211 1099 L37 1411 L178 1411 L345 1236 Z " />
<glyph glyph-name="Scaron" unicode="&#x160;" horiz-adv-x="1087" d="M71 0 L71 505 L245 505 L245 382 Q370 155 572 155 Q675 155 746 218 Q817 281 817 383 Q817 482 759 525.5 Q701 569 540 612 Q353 662 263 706.5 Q173 751 119.5 833.5 Q66 916 66 1029 Q66 1204 182.5 1308.5 Q299 1413 475 1413 Q642 1413 785 1305 L785 1398 L955 1398 L955 976 L785 976 L785 1073 Q678 1234 490 1234 Q376 1234 315 1181.5 Q254 1129 254 1056 Q254 1000 285 957.5 Q316 915 364 895 Q412 875 553 839 Q737 791 820 749.5 Q903 708 963 611 Q1023 514 1023 388 Q1023 210 897.5 94 Q772 -22 587 -22 Q397 -22 245 115 L245 0 L71 0 Z M525 1613 L691 1788 L825 1788 L657 1476 L391 1476 L217 1788 L358 1788 L525 1613 Z " />
<glyph glyph-name="scaron" unicode="&#x161;" horiz-adv-x="938" d="M84 0 L84 332 L254 332 L254 300 Q263 232 327.5 188 Q392 144 480 144 Q572 144 627 176 Q682 208 682 265 Q682 320 636.5 346 Q591 372 456 394 Q256 428 170.5 503.5 Q85 579 85 699 Q85 820 178 901.5 Q271 983 423 983 Q560 983 659 927 L659 968 L828 968 L828 647 L659 647 L659 706 Q582 825 435 825 Q360 825 311.5 792.5 Q263 760 263 706 Q263 651 307.5 630.5 Q352 610 499 587 Q640 565 712 535.5 Q784 506 831.5 437.5 Q879 369 879 278 Q879 143 775.5 63.5 Q672 -16 507 -16 Q352 -16 254 54 L254 0 L84 0 Z M485 1236 L651 1411 L785 1411 L617 1099 L351 1099 L177 1411 L318 1411 L485 1236 Z " />
<glyph glyph-name="brokenbar" unicode="&#xa6;" horiz-adv-x="1079" d="M461 1419 L618 1419 L618 640 L461 640 L461 1419 Z M461 322 L618 322 L618 -456 L461 -456 L461 322 Z " />
<glyph glyph-name="Eth" unicode="&#xd0;" horiz-adv-x="1493" d="M216 621 L8 621 L8 770 L216 770 L216 1217 L27 1217 L27 1391 L565 1391 Q788 1391 908.5 1368 Q1029 1345 1142 1264 Q1255 1183 1322.5 1041.5 Q1390 900 1390 719 Q1390 513 1325 361 Q1260 209 1154 134 Q1048 59 903 29.5 Q758 0 533 0 L27 0 L27 174 L216 174 L216 621 Z M426 621 L426 174 L535 174 Q720 174 827.5 197 Q935 220 1009 275.5 Q1083 331 1129 443 Q1175 555 1175 707 Q1175 888 1099.5 1014 Q1024 1140 906.5 1178.5 Q789 1217 544 1217 L426 1217 L426 770 L743 770 L743 621 L426 621 Z " />
<glyph glyph-name="eth" unicode="&#xf0;" horiz-adv-x="1174" d="M704 1317 L882 1391 L915 1312 L767 1251 Q1094 885 1094 533 Q1094 290 951 131 Q808 -28 579 -28 Q351 -28 215 129 Q79 286 79 487 Q79 621 140 734 Q201 847 307 921 Q413 995 551 995 Q695 995 814 906 Q728 1064 617 1188 L304 1057 L271 1136 L555 1255 Q501 1311 412 1391 L616 1391 Q665 1354 704 1317 Z M581 813 Q457 813 368 722.5 Q279 632 279 479 Q279 343 362.5 249 Q446 155 582 155 Q714 155 803 254 Q892 353 892 490 Q892 598 839.5 674.5 Q787 751 712 782 Q637 813 581 813 Z " />
<glyph glyph-name="Yacute" unicode="&#xdd;" horiz-adv-x="1323" d="M563 174 L563 633 L149 1217 L-21 1217 L-21 1391 L551 1391 L551 1217 L376 1217 L683 788 L963 1217 L788 1217 L788 1391 L1343 1391 L1343 1217 L1159 1217 L773 633 L773 174 L963 174 L963 0 L376 0 L376 174 L563 174 Z M579 1473 L720 1790 L996 1790 L707 1473 L579 1473 Z " />
<glyph glyph-name="yacute" unicode="&#xfd;" horiz-adv-x="1153" d="M496 17 L178 799 L17 799 L17 968 L496 968 L496 799 L380 799 L589 263 L794 799 L666 799 L666 968 L1135 968 L1135 799 L991 799 L512 -434 L191 -434 L191 -268 L380 -268 L496 17 Z M462 1096 L603 1413 L879 1413 L590 1096 L462 1096 Z " />
<glyph glyph-name="Thorn" unicode="&#xde;" horiz-adv-x="1174" d="M216 174 L216 1217 L41 1217 L41 1391 L606 1391 L606 1217 L426 1217 L426 1125 L538 1125 Q757 1125 866 1094 Q975 1063 1048.5 953.5 Q1122 844 1122 695 Q1122 576 1073.5 481.5 Q1025 387 953.5 342 Q882 297 792.5 281.5 Q703 266 522 266 L426 266 L426 174 L606 174 L606 0 L41 0 L41 174 L216 174 Z M426 434 L546 434 Q751 434 830 492.5 Q909 551 909 699 Q909 793 867 855 Q825 917 763 934 Q701 951 556 951 L426 951 L426 434 Z " />
<glyph glyph-name="thorn" unicode="&#xfe;" horiz-adv-x="1280" d="M191 -265 L191 1222 L28 1222 L28 1391 L381 1391 L381 816 Q523 983 725 983 Q929 983 1062.5 843 Q1196 703 1196 479 Q1196 244 1051 108 Q906 -28 721 -28 Q529 -28 381 120 L381 -265 L569 -265 L569 -434 L14 -434 L14 -265 L191 -265 Z M378 470 Q378 390 411 317 Q444 244 516 194.5 Q588 145 685 145 Q821 145 909.5 236 Q998 327 998 486 Q998 641 905.5 728 Q813 815 695 815 Q569 815 473.5 720.5 Q378 626 378 470 Z " />
<glyph glyph-name="multiply" unicode="&#xd7;" horiz-adv-x="1366" d="M176 300 L572 695 L176 1091 L287 1202 L683 806 L1079 1202 L1190 1091 L794 695 L1190 300 L1079 189 L683 585 L287 189 L176 300 Z " />
<glyph glyph-name="onesuperior" unicode="&#xb9;" horiz-adv-x="682" d="M267 778 L267 1302 L155 1302 L155 1400 L404 1400 L404 778 L510 778 L510 679 L155 679 L155 778 L267 778 Z " />
<glyph glyph-name="twosuperior" unicode="&#xb2;" horiz-adv-x="682" d="M606 946 L598 679 L49 679 Q49 796 111 880.5 Q173 965 341 1071 Q416 1118 436 1146.5 Q456 1175 456 1210 Q456 1316 331 1316 Q261 1316 231.5 1281.5 Q202 1247 202 1167 Q202 1148 204 1124 L70 1124 L70 1160 Q70 1413 335 1413 Q456 1413 526.5 1357 Q597 1301 597 1214 Q597 1145 552.5 1096 Q508 1047 381 969 Q212 866 194 785 L479 785 L479 946 L606 946 Z " />
<glyph glyph-name="threesuperior" unicode="&#xb3;" horiz-adv-x="682" d="M248 1005 L248 1106 Q378 1106 417 1127.5 Q456 1149 456 1208 Q456 1252 428 1284.5 Q400 1317 341 1317 Q217 1317 216 1174 L78 1174 Q78 1413 337 1413 Q461 1413 526.5 1356.5 Q592 1300 592 1216 Q592 1117 496 1058 Q630 1011 630 887 Q630 788 547.5 728 Q465 668 331 668 Q41 668 41 933 L173 933 Q179 765 342 765 Q411 765 450 797.5 Q489 830 489 884 Q489 1006 289 1006 Q276 1006 248 1005 Z " />
<glyph glyph-name="onehalf" unicode="&#xbd;" horiz-adv-x="1985" d="M252 778 L252 1302 L140 1302 L140 1400 L389 1400 L389 778 L495 778 L495 679 L140 679 L140 778 L252 778 Z M199 0 L1302 1389 L1423 1389 L322 0 L199 0 Z M1581 266 L1573 0 L1025 0 Q1025 117 1087 201.5 Q1149 286 1317 392 Q1390 438 1411 466.5 Q1432 495 1432 531 Q1432 637 1306 637 Q1233 637 1205.5 599.5 Q1178 562 1178 489 Q1178 472 1180 445 L1046 445 Q1045 467 1045 483 Q1045 614 1119.5 673.5 Q1194 733 1311 733 Q1432 733 1502.5 677 Q1573 621 1573 535 Q1573 466 1528.5 417 Q1484 368 1357 290 Q1188 187 1170 105 L1455 105 L1455 266 L1581 266 Z " />
<glyph glyph-name="onequarter" unicode="&#xbc;" horiz-adv-x="1985" d="M267 778 L267 1302 L155 1302 L155 1400 L404 1400 L404 778 L510 778 L510 679 L155 679 L155 778 L267 778 Z M250 0 L1353 1389 L1474 1389 L373 0 L250 0 Z M1291 190 L1016 190 Q1002 244 961 277 L1308 728 L1423 728 L1423 290 L1554 290 L1554 190 L1423 190 L1423 99 L1498 99 L1498 0 L1203 0 L1203 99 L1291 99 L1291 190 Z M1291 290 L1291 531 L1105 290 L1291 290 Z " />
<glyph glyph-name="threequarters" unicode="&#xbe;" horiz-adv-x="1985" d="M332 1005 L332 1106 Q462 1106 501 1127.5 Q540 1149 540 1208 Q540 1252 512 1284.5 Q484 1317 425 1317 Q301 1317 300 1174 L162 1174 Q162 1413 421 1413 Q545 1413 610.5 1356.5 Q676 1300 676 1216 Q676 1117 580 1058 Q714 1011 714 887 Q714 788 631.5 728 Q549 668 415 668 Q125 668 125 933 L257 933 Q263 765 426 765 Q495 765 534 797.5 Q573 830 573 884 Q573 1006 373 1006 Q360 1006 332 1005 Z M332 0 L1435 1389 L1556 1389 L452 0 L332 0 Z M1445 190 L1170 190 Q1156 244 1115 277 L1462 728 L1577 728 L1577 290 L1708 290 L1708 190 L1577 190 L1577 99 L1652 99 L1652 0 L1357 0 L1357 99 L1445 99 L1445 190 Z M1445 290 L1445 531 L1259 290 L1445 290 Z " />
<glyph glyph-name="overscore" unicode="&#xaf;" horiz-adv-x="1024" d="M-12 1647 L1036 1647 L1036 1545 L-12 1545 L-12 1647 Z " />
<glyph glyph-name="currency" unicode="&#xa4;" horiz-adv-x="1366" d="M183 1089 L287 1196 L419 1065 Q533 1152 681 1152 Q824 1152 947 1065 L1078 1196 L1182 1089 L1052 959 Q1138 834 1138 691 Q1138 549 1052 432 L1182 303 L1078 198 L947 327 Q822 239 678 239 Q536 239 419 327 L289 198 L183 303 L314 432 Q228 564 228 702 Q228 839 314 959 L183 1089 Z M683 1002 Q557 1002 466.5 912.5 Q376 823 376 695 Q376 568 466 478 Q556 388 683 388 Q810 388 900.5 478.5 Q991 569 991 695 Q991 823 900.5 912.5 Q810 1002 683 1002 Z " />
</font>
</svg>
