<?xml version="1.0" encoding="UTF-8"?>
<svg xmlns="http://www.w3.org/2000/svg" xmlns:xlink="http://www.w3.org/1999/xlink" version="1.2" >
<font id="ITC Century Std Book">
<font-face  font-family="ITC Century Std" units-per-em="1000" ascent="688" descent="-312" font-style="normal" font-weight="400" font-stretch="normal" cap-height="688" x-height="470" underline-position="-75" underline-thickness="50" />
<missing-glyph  horiz-adv-x="500" d="M0 0 L500 0 L500 700 L0 700 L0 0 Z M250 395 L80 650 L420 650 L250 395 Z M280 350 L450 605 L450 95 L280 350 Z M80 50 L250 305 L420 50 L80 50 Z M50 605 L220 350 L50 95 L50 605 Z " />
<glyph glyph-name="NULL" d="" />
<glyph glyph-name="CR" unicode="&#xd;" horiz-adv-x="250" d="" />
<glyph glyph-name="space" unicode="&#x20;" horiz-adv-x="250" d="" />
<glyph glyph-name="exclam" unicode="&#x21;" horiz-adv-x="278" d="M139 110 C107 110 81 88 81 52 C81 16 107 -6 139 -6 C171 -6 197 16 197 52 C197 88 171 110 139 110 L139 110 Z M154 222 L186 530 C189 558 197 591 197 620 C197 662 182 688 139 688 C96 688 81 662 81 620 C81 591 89 558 92 530 L124 222 L154 222 L154 222 Z " />
<glyph glyph-name="quotedbl" unicode="&#x22;" horiz-adv-x="333" d="M270 591 C272 612 273 632 273 646 C273 672 266 700 238 700 C210 700 203 672 203 646 C203 632 204 612 206 591 L221 415 C223 395 227 384 238 384 C249 384 253 395 255 415 L270 591 L270 591 Z M127 591 C129 612 130 632 130 646 C130 672 123 700 95 700 C67 700 60 672 60 646 C60 632 61 612 63 591 L78 415 C80 395 84 384 95 384 C106 384 110 395 112 415 L127 591 L127 591 Z " />
<glyph glyph-name="numbersign" unicode="&#x23;" horiz-adv-x="500" d="M468 274 L366 274 L387 426 L496 426 L496 476 L394 476 L426 700 L370 700 L339 476 L204 476 L236 700 L180 700 L149 476 L32 476 L32 426 L142 426 L121 274 L4 274 L4 224 L114 224 L82 0 L138 0 L169 224 L304 224 L272 0 L328 0 L359 224 L468 224 L468 274 L468 274 Z M332 426 L311 274 L176 274 L197 426 L332 426 L332 426 Z " />
<glyph glyph-name="dollar" unicode="&#x24;" horiz-adv-x="500" d="M234 412 C178 430 134 453 134 517 C134 584 177 626 234 638 L234 412 L234 412 Z M276 313 C345 293 388 269 388 197 C388 126 340 74 276 61 L276 313 L276 313 Z M155 199 C155 234 133 255 98 255 C58 255 39 218 39 190 C39 85 131 22 234 22 L234 -72 L276 -72 L276 28 C393 53 462 139 462 229 C462 342 382 372 276 401 L276 640 C324 639 368 626 381 591 C378 591 374 592 370 592 C344 592 319 576 319 540 C319 513 338 488 371 488 C401 488 427 504 427 552 C427 634 349 674 276 674 L276 760 L234 760 L234 673 C144 659 68 580 68 487 C68 394 141 349 234 326 L234 56 C162 56 98 81 84 149 C89 148 94 147 101 147 C133 147 155 169 155 199 L155 199 Z " />
<glyph glyph-name="percent" unicode="&#x25;" horiz-adv-x="667" d="M142 676 C66 676 -2 600 -2 479 C-2 358 66 282 142 282 C218 282 286 358 286 479 C286 600 218 676 142 676 L142 676 Z M142 648 C184 648 216 604 216 479 C216 354 184 310 142 310 C100 310 68 354 68 479 C68 604 100 648 142 648 L142 648 Z M534 394 C458 394 390 318 390 197 C390 76 458 0 534 0 C610 0 678 76 678 197 C678 318 610 394 534 394 L534 394 Z M534 366 C576 366 608 322 608 197 C608 72 576 28 534 28 C492 28 460 72 460 197 C460 322 492 366 534 366 L534 366 Z M143 -12 L592 700 L540 700 L91 -12 L143 -12 L143 -12 Z " />
<glyph glyph-name="ampersand" unicode="&#x26;" horiz-adv-x="722" d="M436 340 C499 340 536 330 536 263 C536 216 522 167 492 131 C429 191 354 320 320 379 C395 413 504 460 504 556 C504 637 433 688 355 688 C253 688 170 613 170 513 C170 461 187 409 214 365 C120 331 26 283 26 169 C26 48 158 -12 264 -12 C333 -12 386 1 446 42 C483 9 516 -12 560 -12 C653 -12 710 51 710 141 L682 141 C676 93 657 52 600 52 C564 52 538 85 515 107 C556 156 572 213 582 248 C601 318 616 340 696 340 L696 374 L436 374 L436 340 L436 340 Z M128 195 C128 259 170 310 227 338 C271 263 363 124 422 66 C384 39 338 22 291 22 C190 22 128 101 128 195 L128 195 Z M307 404 C279 446 252 505 252 555 C252 604 276 654 334 654 C395 654 430 603 430 549 C430 472 374 433 307 404 L307 404 Z " />
<glyph glyph-name="quotesingle" unicode="&#x27;" horiz-adv-x="222" d="M143 591 C145 612 146 632 146 646 C146 672 139 700 111 700 C83 700 76 672 76 646 C76 632 77 612 79 591 L94 415 C96 395 100 384 111 384 C122 384 126 395 128 415 L143 591 L143 591 Z " />
<glyph glyph-name="parenleft" unicode="&#x28;" horiz-adv-x="389" d="M373 700 C182 684 57 474 57 249 C57 24 182 -186 373 -202 L373 -168 C232 -164 139 8 139 249 C139 490 232 662 373 666 L373 700 L373 700 Z " />
<glyph glyph-name="parenright" unicode="&#x29;" horiz-adv-x="389" d="M16 -202 C207 -186 332 24 332 249 C332 474 207 684 16 700 L16 666 C157 662 250 490 250 249 C250 8 157 -164 16 -168 L16 -202 L16 -202 Z " />
<glyph glyph-name="asterisk" unicode="&#x2a;" horiz-adv-x="444" d="M222 700 C201 700 181 682 181 658 C181 620 211 598 211 508 L204 503 C111 557 113 612 69 612 C45 612 27 594 27 570 C27 548 45 530 67 530 C93 530 135 524 196 490 L196 480 C153 446 103 438 72 438 C52 438 27 427 27 402 C27 374 39 358 67 358 C107 358 127 422 203 468 L211 460 C211 370 181 348 181 310 C181 286 201 268 222 268 C243 268 263 286 263 310 C263 348 233 370 233 460 L241 468 C317 422 337 358 377 358 C405 358 417 374 417 402 C417 427 392 438 372 438 C341 438 291 446 248 480 L248 490 C309 524 351 530 377 530 C399 530 417 548 417 570 C417 594 399 612 375 612 C331 612 333 557 240 503 L233 508 C233 598 263 620 263 658 C263 682 243 700 222 700 L222 700 Z " />
<glyph glyph-name="plus" unicode="&#x2b;" horiz-adv-x="600" d="M272 263 L65 263 L65 207 L272 207 L272 0 L328 0 L328 207 L535 207 L535 263 L328 263 L328 470 L272 470 L272 263 L272 263 Z " />
<glyph glyph-name="comma" unicode="&#x2c;" horiz-adv-x="250" d="M64 -192 C127 -140 178 -64 178 21 C178 64 159 110 109 110 C81 110 54 88 54 59 C54 14 85 -3 126 -6 C126 -72 90 -128 44 -168 L64 -192 L64 -192 Z " />
<glyph glyph-name="hyphen" unicode="&#x2d;" horiz-adv-x="278" d="M263 202 L263 268 L15 268 L15 202 L263 202 L263 202 Z " />
<glyph glyph-name="period" unicode="&#x2e;" horiz-adv-x="250" d="M112 110 C80 110 54 88 54 52 C54 16 80 -6 112 -6 C144 -6 170 16 170 52 C170 88 144 110 112 110 L112 110 Z " />
<glyph glyph-name="slash" unicode="&#x2f;" horiz-adv-x="278" d="M31 -12 L306 700 L247 700 L-28 -12 L31 -12 L31 -12 Z " />
<glyph glyph-name="zero" unicode="0" horiz-adv-x="500" d="M250 22 C172 22 132 101 132 344 C132 587 172 666 250 666 C328 666 368 587 368 344 C368 101 328 22 250 22 L250 22 Z M250 700 C130 700 30 560 30 344 C30 128 130 -12 250 -12 C370 -12 470 128 470 344 C470 560 370 700 250 700 L250 700 Z " />
<glyph glyph-name="one" unicode="1" horiz-adv-x="500" d="M112 600 C194 600 214 586 214 556 L214 112 C214 56 190 34 94 34 L94 0 L428 0 L428 34 C332 34 308 56 308 112 L308 694 L281 694 C252 662 190 634 112 634 L112 600 L112 600 Z " />
<glyph glyph-name="two" unicode="2" horiz-adv-x="500" d="M442 0 L450 210 L424 210 C412 114 378 82 290 82 L80 82 C151 261 448 309 448 520 C448 638 345 700 236 700 C131 700 36 632 36 521 C36 464 58 434 99 434 C137 434 158 463 158 492 C158 534 133 550 106 550 C90 550 80 544 70 539 C78 617 135 666 213 666 C304 666 354 606 354 514 C354 312 24 219 24 0 L442 0 L442 0 Z " />
<glyph glyph-name="three" unicode="3" horiz-adv-x="500" d="M468 204 C468 300 390 358 301 367 L301 369 C376 388 448 441 448 525 C448 647 333 700 226 700 C123 700 41 628 41 538 C41 492 67 460 99 460 C133 460 158 482 158 519 C158 551 138 572 109 572 C98 572 87 569 79 564 C86 637 154 666 219 666 C311 666 354 606 354 520 C354 455 317 374 243 374 C228 374 216 378 200 378 C183 378 168 372 168 358 C168 343 182 340 193 340 C213 340 235 346 256 346 C339 346 366 264 366 197 C366 91 312 22 202 22 C133 22 60 52 58 131 C68 126 81 122 95 122 C123 122 149 147 149 178 C149 208 125 234 91 234 C45 234 20 197 20 145 C20 38 111 -12 203 -12 C340 -12 468 69 468 204 L468 204 Z " />
<glyph glyph-name="four" unicode="4" horiz-adv-x="500" d="M374 694 L317 694 L14 222 L14 178 L280 178 L280 112 C280 56 256 34 178 34 L178 0 L458 0 L458 34 C398 34 374 56 374 112 L374 178 L479 178 L479 222 L374 222 L374 694 L374 694 Z M54 222 L278 574 L280 574 L280 222 L54 222 L54 222 Z " />
<glyph glyph-name="five" unicode="5" horiz-adv-x="500" d="M125 594 C156 586 192 578 231 578 C296 578 416 602 434 694 C380 679 341 672 285 672 C208 672 152 684 98 694 L67 354 C65 336 60 318 60 301 C60 291 64 284 76 284 C88 284 94 290 96 306 C104 373 149 410 222 410 C334 410 376 310 376 215 C376 104 323 22 207 22 C140 22 76 53 76 128 C84 124 94 120 107 120 C135 120 163 136 163 178 C163 209 140 232 108 232 C66 232 40 201 40 146 C40 49 117 -12 210 -12 C341 -12 470 94 470 226 C470 356 366 444 246 444 C186 444 138 424 107 389 L105 391 L125 594 L125 594 Z " />
<glyph glyph-name="six" unicode="6" horiz-adv-x="500" d="M476 233 C476 335 397 440 288 440 C212 440 168 402 138 337 L136 337 C136 401 145 486 150 516 C162 590 212 666 294 666 C324 666 365 660 384 634 C378 635 373 635 367 635 C340 635 321 614 321 583 C321 550 343 527 377 527 C413 527 437 556 437 591 C437 661 362 700 301 700 C156 700 34 538 34 301 C34 163 97 -12 260 -12 C397 -12 476 105 476 233 L476 233 Z M259 406 C326 406 382 374 382 211 C382 55 326 22 259 22 C192 22 136 81 136 211 C136 344 192 406 259 406 L259 406 Z " />
<glyph glyph-name="seven" unicode="7" horiz-adv-x="500" d="M87 466 C98 576 147 606 249 606 L424 606 C328 462 182 251 182 70 C182 14 198 -12 238 -12 C266 -12 286 10 286 53 C286 80 284 110 284 138 C284 318 362 465 484 644 L484 688 L64 688 L54 466 L87 466 L87 466 Z " />
<glyph glyph-name="eight" unicode="8" horiz-adv-x="500" d="M328 378 C393 412 447 464 447 542 C447 645 349 700 257 700 C149 700 48 626 48 510 C48 429 106 369 175 339 C104 308 24 249 24 163 C24 48 132 -12 236 -12 C358 -12 476 58 476 191 C476 289 411 341 328 378 L328 378 Z M96 176 C96 246 145 298 208 324 C292 295 394 262 394 158 C394 71 322 22 240 22 C146 22 96 90 96 176 L96 176 Z M120 534 C120 606 174 666 250 666 C334 666 381 603 381 525 C381 466 353 415 297 393 C231 418 120 447 120 534 L120 534 Z " />
<glyph glyph-name="nine" unicode="9" horiz-adv-x="500" d="M24 455 C24 353 103 244 221 244 C285 244 336 268 361 323 L363 323 C363 306 364 287 364 269 C364 164 331 22 201 22 C161 22 99 42 82 82 C90 79 98 78 108 78 C133 78 155 98 155 132 C155 167 133 190 99 190 C63 190 39 165 39 117 C39 39 106 -12 199 -12 C344 -12 466 150 466 387 C466 525 403 700 240 700 C103 700 24 583 24 455 L24 455 Z M241 278 C174 278 118 314 118 475 C118 633 174 666 241 666 C308 666 364 633 364 475 C364 314 308 278 241 278 L241 278 Z " />
<glyph glyph-name="colon" unicode="&#x3a;" horiz-adv-x="250" d="M112 110 C80 110 54 88 54 52 C54 16 80 -6 112 -6 C144 -6 170 16 170 52 C170 88 144 110 112 110 L112 110 Z M112 450 C80 450 54 428 54 392 C54 356 80 334 112 334 C144 334 170 356 170 392 C170 428 144 450 112 450 L112 450 Z " />
<glyph glyph-name="semicolon" unicode="&#x3b;" horiz-adv-x="250" d="M64 -192 C127 -140 178 -64 178 21 C178 64 159 110 109 110 C81 110 54 88 54 59 C54 14 85 -3 126 -6 C126 -72 90 -128 44 -168 L64 -192 L64 -192 Z M112 450 C80 450 54 428 54 392 C54 356 80 334 112 334 C144 334 170 356 170 392 C170 428 144 450 112 450 L112 450 Z " />
<glyph glyph-name="less" unicode="&#x3c;" horiz-adv-x="600" d="M535 55 L130 235 L535 415 L535 470 L65 263 L65 207 L535 0 L535 55 L535 55 Z " />
<glyph glyph-name="equal" unicode="&#x3d;" horiz-adv-x="600" d="M535 355 L65 355 L65 299 L535 299 L535 355 L535 355 Z M535 171 L65 171 L65 115 L535 115 L535 171 L535 171 Z " />
<glyph glyph-name="greater" unicode="&#x3e;" horiz-adv-x="600" d="M65 0 L535 207 L535 263 L65 470 L65 415 L470 235 L65 55 L65 0 L65 0 Z " />
<glyph glyph-name="question" unicode="&#x3f;" horiz-adv-x="444" d="M222 204 C222 261 229 303 247 321 C303 377 416 446 416 532 C416 642 311 688 216 688 C136 688 38 631 38 543 C38 497 57 460 106 460 C135 460 160 485 160 515 C160 545 140 566 108 566 C96 566 88 564 80 562 C80 621 144 654 197 654 C273 654 322 596 322 523 C322 394 190 388 190 268 L190 204 L222 204 L222 204 Z M212 110 C180 110 154 88 154 52 C154 16 180 -6 212 -6 C244 -6 270 16 270 52 C270 88 244 110 212 110 L212 110 Z " />
<glyph glyph-name="at" unicode="&#x40;" horiz-adv-x="800" d="M514 422 C514 300 440 194 381 194 C348 194 323 226 323 274 C323 393 407 484 462 484 C500 484 514 460 514 422 L514 422 Z M530 472 C517 497 500 526 454 526 C330 526 253 367 253 271 C253 198 298 150 345 150 C412 150 443 189 471 223 L473 223 C480 192 506 150 566 150 C689 150 757 291 757 396 C757 570 609 700 418 700 C215 700 42 551 42 328 C42 190 160 -12 429 -12 C510 -12 579 17 646 46 L633 73 C574 46 519 22 428 22 C240 22 122 170 122 317 C122 544 253 666 418 666 C612 666 723 511 723 395 C723 305 672 184 581 184 C551 184 539 202 539 220 C539 231 541 242 543 251 L611 512 L541 512 L530 472 L530 472 Z " />
<glyph glyph-name="A" unicode="A" horiz-adv-x="667" d="M249 0 L249 34 C163 34 143 48 143 86 C143 114 172 174 189 230 L425 230 C452 172 481 92 481 71 C481 42 477 34 402 34 L402 0 L680 0 L680 34 C622 34 599 52 569 129 L350 692 L314 692 L112 140 C90 79 69 34 -12 34 L-12 0 L249 0 L249 0 Z M203 272 L303 535 L409 272 L203 272 L203 272 Z " />
<glyph glyph-name="B" unicode="B" horiz-adv-x="667" d="M117 100 C117 52 100 34 25 34 L25 0 L406 0 C575 0 634 124 634 188 C634 294 552 360 404 365 L404 367 C510 367 600 430 600 518 C600 600 538 688 348 688 L25 688 L25 654 C100 654 117 636 117 588 L117 100 L117 100 Z M378 344 C476 344 518 282 518 188 C518 89 474 34 322 34 C238 34 219 51 219 103 L219 344 L378 344 L378 344 Z M219 378 L219 604 C219 632 228 654 310 654 C432 654 484 614 484 510 C484 432 452 378 318 378 L219 378 L219 378 Z " />
<glyph glyph-name="C" unicode="C" horiz-adv-x="667" d="M578 682 C572 664 555 644 537 644 C520 644 448 700 359 700 C177 700 43 529 43 344 C43 159 177 -12 348 -12 C536 -12 614 96 623 260 L595 260 C583 127 525 22 366 22 C279 22 159 104 159 344 C159 561 225 666 369 666 C497 666 544 557 575 446 L602 446 L602 682 L578 682 L578 682 Z " />
<glyph glyph-name="D" unicode="D" horiz-adv-x="722" d="M226 582 C226 640 241 654 330 654 C486 654 564 584 564 343 C564 156 528 34 330 34 C241 34 226 48 226 106 L226 582 L226 582 Z M30 654 C107 654 124 636 124 588 L124 100 C124 52 107 34 30 34 L30 0 L362 0 C504 0 680 110 680 344 C680 578 502 688 354 688 L30 688 L30 654 L30 654 Z " />
<glyph glyph-name="E" unicode="E" horiz-adv-x="667" d="M619 257 L588 257 C544 64 440 34 306 34 C245 34 224 46 224 78 L224 342 C329 340 374 330 390 222 L418 222 L418 498 L390 497 C374 388 329 378 224 376 L224 588 C224 638 274 654 333 654 C466 654 522 594 570 442 L601 442 L595 688 L29 688 L29 654 C105 654 122 636 122 588 L122 100 C122 52 105 34 29 34 L29 0 L613 0 L619 257 L619 257 Z " />
<glyph glyph-name="F" unicode="F" horiz-adv-x="611" d="M610 446 L604 688 L28 688 L28 654 C103 654 120 636 120 588 L120 100 C120 52 103 34 28 34 L28 0 L332 0 L332 34 C241 34 222 52 222 100 L222 344 C330 342 369 332 403 215 L431 215 L431 506 L403 506 C369 390 330 380 222 378 L222 588 C222 636 242 654 340 654 C488 654 550 586 579 446 L610 446 L610 446 Z " />
<glyph glyph-name="G" unicode="G" horiz-adv-x="722" d="M391 324 L391 290 C481 290 508 268 508 189 C508 82 474 22 360 22 C252 22 158 107 158 326 C158 509 194 666 362 666 C488 666 551 559 569 446 L597 446 L597 678 L565 678 C558 664 550 650 534 650 C496 650 474 700 356 700 C186 700 42 542 42 328 C42 169 171 -12 357 -12 C468 -12 516 48 536 48 C548 48 558 23 572 0 L606 0 L606 226 C606 273 623 290 699 290 L699 324 L391 324 L391 324 Z " />
<glyph glyph-name="H" unicode="H" horiz-adv-x="722" d="M312 0 L312 34 C229 34 212 52 212 100 L212 344 L508 344 L508 100 C508 52 491 34 416 34 L416 0 L704 0 L704 34 C627 34 610 52 610 100 L610 588 C610 636 627 654 700 654 L700 688 L414 688 L414 654 C491 654 508 636 508 588 L508 378 L212 378 L212 588 C212 636 229 654 310 654 L310 688 L18 688 L18 654 C93 654 110 636 110 588 L110 100 C110 52 93 34 18 34 L18 0 L312 0 L312 0 Z " />
<glyph glyph-name="I" unicode="I" horiz-adv-x="333" d="M19 688 L19 654 C98 654 115 636 115 588 L115 100 C115 52 98 34 19 34 L19 0 L313 0 L313 34 C234 34 217 52 217 100 L217 588 C217 636 234 654 313 654 L313 688 L19 688 L19 688 Z " />
<glyph glyph-name="J" unicode="J" horiz-adv-x="444" d="M142 688 L142 654 C223 654 240 636 240 588 L240 137 C240 63 202 22 127 22 C89 22 30 51 26 94 C35 90 49 88 65 88 C93 88 119 112 119 147 C119 190 96 206 51 206 C9 206 -16 164 -16 123 C-16 52 38 -12 137 -12 C274 -12 342 48 342 153 L342 588 C342 636 359 654 440 654 L440 688 L142 688 L142 688 Z " />
<glyph glyph-name="K" unicode="K" horiz-adv-x="667" d="M134 100 C134 52 117 34 38 34 L38 0 L322 0 L322 34 C253 34 236 52 236 100 L236 253 L311 336 L431 139 C450 107 472 85 472 56 C472 38 444 34 405 34 L405 0 L680 0 L680 34 C615 34 597 55 569 101 L376 414 L534 584 C567 620 601 654 666 654 L666 688 L414 688 L414 654 C469 654 496 648 496 629 C496 602 481 584 452 552 L236 308 L236 588 C236 636 253 654 322 654 L322 688 L38 688 L38 654 C117 654 134 636 134 588 L134 100 L134 100 Z " />
<glyph glyph-name="L" unicode="L" horiz-adv-x="556" d="M547 257 L516 257 C472 64 368 34 282 34 C231 34 209 52 209 100 L209 588 C209 636 226 654 305 654 L305 688 L19 688 L19 654 C90 654 107 636 107 588 L107 100 C107 52 90 34 17 34 L17 0 L541 0 L547 257 L547 257 Z " />
<glyph glyph-name="M" unicode="M" horiz-adv-x="833" d="M585 688 L418 176 L416 176 L253 688 L18 688 L18 654 C99 654 116 636 116 588 L116 150 C116 64 99 34 18 34 L18 0 L258 0 L258 34 C175 34 158 64 158 150 L158 646 L160 646 L365 0 L400 0 L613 650 L615 650 L615 100 C615 52 598 34 525 34 L525 0 L815 0 L815 34 C734 34 717 52 717 100 L717 588 C717 636 734 654 806 654 L806 688 L585 688 L585 688 Z " />
<glyph glyph-name="N" unicode="N" horiz-adv-x="722" d="M29 688 L29 654 C80 654 98 650 130 613 L130 100 C130 52 113 34 31 34 L31 0 L277 0 L277 34 C189 34 172 52 172 100 L172 550 L174 550 L567 -6 L606 -6 L606 588 C606 636 623 654 693 654 L693 688 L465 688 L465 654 C547 654 564 636 564 588 L564 173 L562 173 L202 688 L29 688 L29 688 Z " />
<glyph glyph-name="O" unicode="O" horiz-adv-x="722" d="M361 700 C169 700 35 529 35 344 C35 159 169 -12 361 -12 C553 -12 687 159 687 344 C687 529 553 700 361 700 L361 700 Z M361 666 C505 666 571 561 571 344 C571 127 505 22 361 22 C217 22 151 127 151 344 C151 561 217 666 361 666 L361 666 Z " />
<glyph glyph-name="P" unicode="P" horiz-adv-x="611" d="M223 350 L223 582 C223 634 250 654 334 654 C436 654 482 596 482 497 C482 390 436 350 344 350 L223 350 L223 350 Z M25 0 L319 0 L319 34 C240 34 223 52 223 100 L223 316 L374 316 C511 316 598 390 598 506 C598 584 541 688 364 688 L31 688 L31 654 C104 654 121 636 121 588 L121 100 C121 52 104 34 25 34 L25 0 L25 0 Z " />
<glyph glyph-name="Q" unicode="Q" horiz-adv-x="722" d="M351 178 C399 178 431 144 431 100 C431 76 427 54 419 31 C404 25 388 22 372 22 C325 22 282 56 282 105 C282 145 306 178 351 178 L351 178 Z M657 26 C651 -17 630 -72 579 -72 C526 -72 513 -16 506 26 C617 84 687 210 687 344 C687 529 553 700 361 700 C169 700 35 529 35 344 C35 159 169 -12 361 -12 C372 -12 379 -11 387 -11 C395 -10 404 -8 416 -7 C415 -14 414 -20 414 -28 C414 -97 467 -142 534 -142 C637 -142 685 -72 685 26 L657 26 L657 26 Z M361 666 C505 666 571 561 571 344 C571 207 545 113 494 67 C471 157 437 212 354 212 C297 212 244 178 244 116 C244 72 265 47 280 34 L278 32 C191 69 151 173 151 344 C151 561 217 666 361 666 L361 666 Z " />
<glyph glyph-name="R" unicode="R" horiz-adv-x="667" d="M622 144 C622 111 612 64 585 64 C500 64 561 308 368 339 L368 341 C485 341 607 390 607 516 C607 584 556 688 391 688 L30 688 L30 654 C106 654 123 636 123 588 L123 100 C123 52 106 34 30 34 L30 0 L324 0 L324 34 C242 34 225 52 225 100 L225 334 L264 334 C370 334 418 312 418 152 C418 60 456 -6 531 -6 C623 -6 650 62 650 144 L622 144 L622 144 Z M225 596 C225 637 252 654 338 654 C456 654 499 593 499 502 C499 397 430 368 340 368 C294 368 254 369 225 370 L225 596 L225 596 Z " />
<glyph glyph-name="S" unicode="S" horiz-adv-x="556" d="M45 -6 L73 -6 C85 19 94 40 120 40 C158 40 194 -12 288 -12 C421 -12 528 72 528 211 C528 457 128 354 128 545 C128 625 185 666 261 666 C377 666 434 555 460 456 L488 456 L488 688 L454 688 C451 678 438 642 423 642 C399 642 351 700 260 700 C153 700 46 630 46 510 C46 244 446 377 446 152 C446 71 372 22 297 22 C172 22 92 142 73 254 L45 254 L45 -6 L45 -6 Z " />
<glyph glyph-name="T" unicode="T" horiz-adv-x="611" d="M595 452 L589 688 L305 688 L21 688 L15 452 L46 452 C67 578 113 654 254 654 L254 100 C254 52 237 34 158 34 L158 0 L452 0 L452 34 C373 34 356 52 356 100 L356 654 C497 654 543 578 564 452 L595 452 L595 452 Z " />
<glyph glyph-name="U" unicode="U" horiz-adv-x="722" d="M307 688 L13 688 L13 654 C92 654 109 636 109 588 L109 190 C109 50 208 -12 362 -12 C506 -12 611 68 611 212 L611 558 C611 612 621 654 709 654 L709 688 L468 688 L468 654 C565 654 575 612 575 558 L575 220 C575 108 520 22 374 22 C264 22 211 80 211 187 L211 588 C211 636 228 654 307 654 L307 688 L307 688 Z " />
<glyph glyph-name="V" unicode="V" horiz-adv-x="611" d="M-8 654 C44 654 68 645 90 580 L286 0 L328 0 L534 590 C549 633 573 654 620 654 L620 688 L408 688 L408 654 C459 654 488 649 488 609 C488 588 485 567 478 548 L342 148 L340 148 L204 535 C193 566 182 592 182 614 C182 638 207 654 271 654 L271 688 L-8 688 L-8 654 L-8 654 Z " />
<glyph glyph-name="W" unicode="W" horiz-adv-x="889" d="M22 654 C70 654 80 643 94 598 L275 0 L309 0 L449 450 L451 450 L585 0 L619 0 L791 551 C815 627 831 654 892 654 L892 688 L671 688 L671 654 C742 654 756 644 756 610 C756 581 748 553 742 534 L635 176 L633 176 L527 530 C518 561 504 592 504 614 C504 644 526 654 581 654 L581 688 L326 688 L326 654 C382 654 392 644 402 610 L429 519 L326 185 L324 185 L214 555 C208 576 200 600 200 616 C200 644 218 654 273 654 L273 688 L22 688 L22 654 L22 654 Z " />
<glyph glyph-name="X" unicode="X" horiz-adv-x="667" d="M269 34 C204 34 180 48 180 72 C180 112 297 264 322 306 C343 264 448 106 448 71 C448 44 414 34 363 34 L363 0 L670 0 L670 34 C620 34 588 50 567 85 L383 392 L494 555 C531 609 558 654 643 654 L643 688 L403 688 L403 654 C461 654 477 646 477 626 C477 590 380 462 361 431 C351 462 253 590 253 626 C253 648 271 654 326 654 L326 688 L23 688 L23 654 C86 654 115 647 138 609 L300 341 L139 102 C108 56 75 34 8 34 L8 0 L269 0 L269 34 L269 34 Z " />
<glyph glyph-name="Y" unicode="Y" horiz-adv-x="611" d="M4 654 C56 654 75 646 102 593 L255 292 L255 100 C255 52 238 34 151 34 L151 0 L465 0 L465 34 C374 34 357 52 357 100 L357 292 L498 559 C535 629 548 654 620 654 L620 688 L391 688 L391 654 C454 654 476 642 476 621 C476 570 357 384 338 342 C321 387 204 586 204 620 C204 644 228 654 288 654 L288 688 L4 688 L4 654 L4 654 Z " />
<glyph glyph-name="Z" unicode="Z" horiz-adv-x="556" d="M525 257 L494 257 C450 64 346 34 219 34 L146 34 L514 650 L514 688 L45 688 L39 458 L70 458 C79 615 190 654 331 654 L402 654 L22 18 L22 0 L519 0 L525 257 L525 257 Z " />
<glyph glyph-name="bracketleft" unicode="&#x5b;" horiz-adv-x="333" d="M100 -186 L276 -186 L276 -152 C200 -152 174 -134 174 -78 L174 576 C174 632 200 650 276 650 L276 684 L100 684 L100 -186 L100 -186 Z " />
<glyph glyph-name="backslash" unicode="&#x5c;" horiz-adv-x="278" d="M306 -12 L31 700 L-28 700 L247 -12 L306 -12 L306 -12 Z " />
<glyph glyph-name="bracketright" unicode="&#x5d;" horiz-adv-x="333" d="M233 684 L57 684 L57 650 C133 650 159 632 159 576 L159 -78 C159 -134 133 -152 57 -152 L57 -186 L233 -186 L233 684 L233 684 Z " />
<glyph glyph-name="asciicircum" unicode="&#x5e;" horiz-adv-x="600" d="M153 335 L300 630 L447 335 L509 335 L326 700 L274 700 L91 335 L153 335 L153 335 Z " />
<glyph glyph-name="underscore" unicode="&#x5f;" horiz-adv-x="500" d="M500 -125 L500 -75 L0 -75 L0 -125 L500 -125 L500 -125 Z " />
<glyph glyph-name="grave" unicode="&#x60;" horiz-adv-x="278" d="M214 530 L67 679 C55 692 43 702 24 702 C0 702 -10 688 -10 669 C-10 655 2 639 20 628 L174 530 L214 530 L214 530 Z " />
<glyph glyph-name="a" unicode="a" horiz-adv-x="500" d="M486 116 C486 92 479 46 447 46 C428 46 416 52 416 102 L416 344 C416 450 352 482 222 482 C131 482 52 431 52 370 C52 340 76 312 110 312 C144 312 168 340 168 370 C168 398 152 418 125 423 C155 442 184 448 219 448 C257 448 322 436 322 386 L322 293 C237 264 26 218 26 103 C26 25 96 -12 167 -12 C241 -12 300 10 328 84 L330 84 C338 32 352 -6 411 -6 C482 -6 514 51 514 116 L486 116 L486 116 Z M322 174 C322 89 267 30 204 30 C157 30 134 62 134 107 C134 194 252 244 322 261 L322 174 L322 174 Z " />
<glyph glyph-name="b" unicode="b" horiz-adv-x="556" d="M412 232 C412 115 376 22 282 22 C201 22 168 72 168 186 L168 232 C168 358 214 448 290 448 C376 448 412 358 412 232 L412 232 Z M298 482 C242 482 200 452 170 398 L168 398 L168 688 L4 682 L4 648 C56 648 74 638 74 606 L74 106 C74 68 68 30 61 -2 L95 2 C102 16 110 42 131 42 C155 42 196 -12 278 -12 C402 -12 514 102 514 241 C514 376 425 482 298 482 L298 482 Z " />
<glyph glyph-name="c" unicode="c" horiz-adv-x="500" d="M448 114 C413 62 368 22 296 22 C189 22 143 121 143 246 C143 379 203 448 300 448 C355 448 395 435 410 406 C403 407 396 408 389 408 C356 408 338 390 338 360 C338 330 361 306 400 306 C438 306 462 336 462 370 C462 442 378 482 296 482 C162 482 35 378 35 235 C35 92 140 -12 277 -12 C370 -12 432 32 473 102 L448 114 L448 114 Z " />
<glyph glyph-name="d" unicode="d" horiz-adv-x="556" d="M383 405 L381 405 C350 461 312 482 257 482 C131 482 35 368 35 235 C35 102 131 -12 233 -12 C308 -12 360 26 387 88 L389 88 L389 -6 L545 0 L545 28 C495 28 477 38 477 70 L477 688 L307 682 L307 648 C365 648 383 638 383 606 L383 405 L383 405 Z M258 22 C187 22 143 89 143 238 C143 361 179 448 265 448 C341 448 387 376 387 238 C387 103 336 22 258 22 L258 22 Z " />
<glyph glyph-name="e" unicode="e" horiz-adv-x="500" d="M466 238 C466 400 371 482 254 482 C130 482 34 368 34 235 C34 102 130 -12 254 -12 C361 -12 416 32 461 98 L437 114 C399 63 354 22 287 22 C201 22 142 100 142 238 L466 238 L466 238 Z M142 272 C142 344 156 448 252 448 C350 448 364 344 364 272 L142 272 L142 272 Z " />
<glyph glyph-name="f" unicode="f" horiz-adv-x="333" d="M314 470 L196 470 L196 579 C196 617 218 654 274 654 C284 654 292 653 300 650 C288 640 280 622 280 605 C280 575 303 558 331 558 C364 558 388 580 388 615 C388 656 355 688 278 688 C181 688 102 626 102 524 L102 470 L13 470 L13 436 L102 436 L102 76 C102 44 84 34 12 34 L12 0 L296 0 L296 34 C214 34 196 44 196 76 L196 436 L314 436 L314 470 L314 470 Z " />
<glyph glyph-name="g" unicode="g" horiz-adv-x="500" d="M156 33 C98 29 22 -13 22 -74 C22 -146 118 -202 238 -202 C342 -202 482 -151 482 -32 C482 152 132 64 132 132 C132 159 166 170 280 178 C379 185 436 268 436 332 C436 358 430 379 419 397 C408 415 393 432 372 447 L372 460 C372 485 388 498 398 498 C400 498 403 498 406 497 C405 492 403 483 403 473 C403 453 420 440 443 440 C466 440 483 458 483 480 C483 526 452 536 422 536 C374 536 346 508 346 460 C320 474 292 482 235 482 C124 482 52 404 52 330 C52 257 107 209 171 187 L171 185 C135 178 58 148 58 104 C58 51 113 36 156 35 L156 33 L156 33 Z M94 -63 C94 -24 134 16 227 16 C352 16 410 -16 410 -65 C410 -119 348 -168 238 -168 C160 -168 94 -119 94 -63 L94 -63 Z M244 448 C298 448 334 409 334 327 C334 245 298 206 244 206 C190 206 154 245 154 327 C154 409 190 448 244 448 L244 448 Z " />
<glyph glyph-name="h" unicode="h" horiz-adv-x="556" d="M473 299 C473 445 395 482 324 482 C254 482 206 443 179 382 L177 382 L177 688 L12 682 L12 648 C65 648 83 638 83 606 L83 76 C83 44 65 34 12 34 L12 0 L255 0 L255 34 C195 34 177 44 177 76 L177 273 C177 349 225 442 299 442 C336 442 379 421 379 334 L379 0 L544 0 L544 34 C491 34 473 44 473 76 L473 299 L473 299 Z " />
<glyph glyph-name="i" unicode="i" horiz-adv-x="278" d="M262 0 L262 34 C204 34 186 44 186 76 L186 476 L16 470 L16 436 C74 436 92 426 92 394 L92 76 C92 44 74 34 16 34 L16 0 L262 0 L262 0 Z M128 682 C98 682 72 658 72 626 C72 594 98 570 128 570 C158 570 184 594 184 626 C184 658 158 682 128 682 L128 682 Z " />
<glyph glyph-name="j" unicode="j" horiz-adv-x="278" d="M204 476 L46 470 L46 436 C92 436 110 426 110 394 L110 -65 C110 -131 72 -148 38 -148 C14 -148 -6 -143 -15 -128 C10 -119 25 -102 25 -74 C25 -43 2 -25 -28 -25 C-64 -25 -83 -47 -83 -88 C-83 -139 -25 -182 34 -182 C109 -182 204 -150 204 -19 L204 476 L204 476 Z M146 682 C116 682 90 658 90 626 C90 594 116 570 146 570 C176 570 202 594 202 626 C202 658 176 682 146 682 L146 682 Z " />
<glyph glyph-name="k" unicode="k" horiz-adv-x="556" d="M324 470 L324 436 C376 436 394 431 394 413 C394 400 375 385 366 377 L200 228 L200 688 L34 682 L34 648 C88 648 106 638 106 606 L106 76 C106 44 88 34 30 34 L30 0 L274 0 L274 34 C218 34 200 44 200 76 L200 186 L254 232 L408 0 L549 0 L549 34 C502 34 493 39 467 78 L330 284 L459 402 C488 429 505 436 548 436 L548 470 L324 470 L324 470 Z " />
<glyph glyph-name="l" unicode="l" horiz-adv-x="278" d="M262 0 L262 34 C204 34 186 44 186 76 L186 688 L16 682 L16 648 C74 648 92 638 92 606 L92 76 C92 44 74 34 16 34 L16 0 L262 0 L262 0 Z " />
<glyph glyph-name="m" unicode="m" horiz-adv-x="833" d="M819 0 L819 34 C764 34 746 44 746 76 L746 327 C746 455 662 482 599 482 C537 482 485 449 452 375 C429 450 380 482 306 482 C243 482 200 444 178 386 L176 386 L176 476 L14 470 L14 436 C70 436 88 426 88 394 L88 76 C88 44 70 34 14 34 L14 0 L260 0 L260 34 C200 34 182 44 182 76 L182 279 C182 405 238 442 285 442 C348 442 370 405 370 335 L370 0 L535 0 L535 34 C482 34 464 44 464 76 L464 279 C464 405 520 442 567 442 C630 442 652 405 652 335 L652 0 L819 0 L819 0 Z " />
<glyph glyph-name="n" unicode="n" horiz-adv-x="556" d="M12 470 L12 436 C65 436 83 426 83 394 L83 76 C83 44 65 34 12 34 L12 0 L255 0 L255 34 C195 34 177 44 177 76 L177 273 C177 349 225 442 299 442 C336 442 379 421 379 334 L379 0 L544 0 L544 34 C491 34 473 44 473 76 L473 299 C473 445 395 482 324 482 C255 482 207 444 171 382 L169 382 L169 476 L12 470 L12 470 Z " />
<glyph glyph-name="o" unicode="o" horiz-adv-x="556" d="M278 22 C197 22 143 71 143 235 C143 399 197 448 278 448 C359 448 413 399 413 235 C413 71 359 22 278 22 L278 22 Z M278 482 C143 482 35 380 35 235 C35 90 143 -12 278 -12 C413 -12 521 90 521 235 C521 380 413 482 278 482 L278 482 Z " />
<glyph glyph-name="p" unicode="p" horiz-adv-x="556" d="M160 470 L-2 464 L-2 430 C56 430 74 420 74 388 L74 -106 C74 -138 56 -148 -6 -148 L-6 -182 L258 -182 L258 -148 C186 -148 168 -138 168 -106 L168 69 L170 69 C200 12 233 -12 304 -12 C424 -12 514 108 514 240 C514 365 420 482 303 482 C223 482 187 434 162 378 L160 378 L160 470 L160 470 Z M290 448 C376 448 412 358 412 232 C412 84 376 22 282 22 C249 22 168 53 168 205 L168 232 C168 358 214 448 290 448 L290 448 Z " />
<glyph glyph-name="q" unicode="q" horiz-adv-x="500" d="M524 -182 L524 -148 C464 -148 446 -138 446 -106 L446 470 L417 470 C411 455 390 426 374 426 C354 426 318 482 242 482 C138 482 20 374 20 236 C20 102 90 -12 232 -12 C289 -12 317 5 349 52 L352 52 L352 -106 C352 -138 333 -148 275 -148 L275 -182 L524 -182 L524 -182 Z M240 22 C166 22 128 84 128 238 C128 389 166 448 240 448 C314 448 352 389 352 238 C352 84 314 22 240 22 L240 22 Z " />
<glyph glyph-name="r" unicode="r" horiz-adv-x="389" d="M278 34 C190 34 184 52 184 135 C184 325 234 448 301 448 C307 448 310 447 314 446 C300 437 293 423 293 407 C293 379 310 360 342 360 C373 360 395 386 395 413 C395 443 371 482 316 482 C233 482 200 420 179 340 L177 340 L177 476 L18 470 L18 436 C72 436 90 426 90 394 L90 76 C90 44 72 34 14 34 L14 0 L278 0 L278 34 L278 34 Z " />
<glyph glyph-name="s" unicode="s" horiz-adv-x="444" d="M55 -6 C59 6 64 26 82 26 C113 26 140 -12 231 -12 C329 -12 417 43 417 150 C417 335 110 258 110 380 C110 430 157 448 201 448 C287 448 323 403 353 328 L387 328 L387 474 L353 474 C351 464 346 448 330 448 C313 448 285 482 200 482 C109 482 30 431 30 343 C30 164 337 244 337 105 C337 51 277 22 230 22 C141 22 76 81 55 166 L27 166 L27 -6 L55 -6 L55 -6 Z " />
<glyph glyph-name="t" unicode="t" horiz-adv-x="333" d="M133 626 C107 504 95 478 2 470 L2 436 L75 436 L75 110 C75 11 129 -12 199 -12 C298 -12 325 44 325 134 L325 151 L297 151 L297 130 C297 50 263 22 224 22 C195 22 169 32 169 74 L169 436 L308 436 L308 470 L169 470 L169 626 L133 626 L133 626 Z " />
<glyph glyph-name="u" unicode="u" horiz-adv-x="556" d="M543 0 L543 34 C491 34 473 44 473 76 L473 470 L301 470 L301 436 C361 436 379 426 379 394 L379 170 C370 104 334 28 252 28 C199 28 177 68 177 124 L177 470 L12 470 L12 436 C65 436 83 426 83 394 L83 168 C83 50 142 -12 232 -12 C301 -12 349 26 385 88 L387 88 L387 -6 L543 0 L543 0 Z " />
<glyph glyph-name="v" unicode="v" horiz-adv-x="500" d="M-14 436 C33 436 45 425 61 386 L223 0 L268 0 L430 386 C444 420 469 436 514 436 L514 470 L324 470 L324 436 C380 436 392 430 392 398 C392 371 370 336 273 104 L271 104 C171 351 152 388 152 407 C152 432 165 436 223 436 L223 470 L-14 470 L-14 436 L-14 436 Z " />
<glyph glyph-name="w" unicode="w" horiz-adv-x="778" d="M7 436 C40 436 70 434 78 413 L226 0 L266 0 L389 326 L505 0 L544 0 L686 382 C703 427 727 436 771 436 L771 470 L580 470 L580 436 C631 436 650 432 650 403 C650 379 638 358 554 134 L552 134 C467 377 454 393 454 416 C454 434 463 436 518 436 L518 470 L290 470 L290 436 C340 436 351 436 358 416 L368 389 L274 132 L272 132 C188 378 178 395 178 410 C178 433 186 436 235 436 L235 470 L7 470 L7 436 L7 436 Z " />
<glyph glyph-name="x" unicode="x" horiz-adv-x="556" d="M225 0 L225 34 C183 34 165 38 165 60 C165 81 180 90 256 189 C340 80 353 70 353 50 C353 36 335 34 297 34 L297 0 L549 0 L549 34 C509 34 482 39 468 57 L312 254 L412 376 C456 429 473 436 534 436 L534 470 L320 470 L320 436 C371 436 381 428 381 410 C381 391 368 381 290 283 C207 387 193 403 193 418 C193 432 204 436 255 436 L255 470 L13 470 L13 436 C63 436 67 429 82 410 L234 218 L126 86 C91 43 60 34 7 34 L7 0 L225 0 L225 0 Z " />
<glyph glyph-name="y" unicode="y" horiz-adv-x="500" d="M-1 436 C45 436 52 430 67 394 L232 -5 C215 -60 176 -148 114 -148 C101 -148 91 -143 82 -136 C105 -128 121 -108 121 -81 C121 -58 105 -31 65 -31 C25 -31 5 -60 5 -94 C5 -149 45 -182 105 -182 C210 -182 248 -93 326 113 L432 393 C446 431 458 436 501 436 L501 470 L317 470 L317 436 C374 436 386 429 386 403 C386 375 369 350 278 112 L276 112 C178 355 161 395 161 415 C161 433 169 436 227 436 L227 470 L-1 470 L-1 436 L-1 436 Z " />
<glyph glyph-name="z" unicode="z" horiz-adv-x="444" d="M63 322 C82 412 132 436 183 436 L295 436 L21 38 L21 0 L413 0 L413 180 L385 180 C345 60 269 34 211 34 L129 34 L412 442 L412 470 L35 470 L35 322 L63 322 L63 322 Z " />
<glyph glyph-name="braceleft" unicode="&#x7b;" horiz-adv-x="333" d="M100 -56 C100 -181 153 -202 242 -202 L242 -186 C191 -170 174 -134 174 -62 L174 114 C174 188 163 230 87 248 L87 250 C163 268 174 310 174 384 L174 560 C174 632 191 668 242 684 L242 700 C153 700 100 679 100 554 L100 368 C100 301 87 268 37 249 C87 230 100 197 100 130 L100 -56 L100 -56 Z " />
<glyph glyph-name="bar" unicode="&#x7c;" horiz-adv-x="222" d="M83 0 L139 0 L139 688 L83 688 L83 0 L83 0 Z " />
<glyph glyph-name="braceright" unicode="&#x7d;" horiz-adv-x="333" d="M233 554 C233 679 180 700 91 700 L91 684 C142 668 159 632 159 560 L159 384 C159 310 170 268 246 250 L246 248 C170 230 159 188 159 114 L159 -62 C159 -134 142 -170 91 -186 L91 -202 C180 -202 233 -181 233 -56 L233 130 C233 197 246 230 296 249 C246 268 233 301 233 368 L233 554 L233 554 Z " />
<glyph glyph-name="asciitilde" unicode="&#x7e;" horiz-adv-x="600" d="M495 301 C472 266 447 229 407 229 C380 229 342 249 305 265 C267 282 228 297 194 297 C127 297 91 253 69 211 L105 169 C121 204 145 241 189 241 C235 241 269 224 302 207 C335 190 366 173 406 173 C468 173 501 217 531 259 L495 301 L495 301 Z " />
<glyph glyph-name="uni00A0" unicode="&#xa0;" horiz-adv-x="250" d="" />
<glyph glyph-name="exclamdown" unicode="&#xa1;" horiz-adv-x="278" d="M139 384 C171 384 197 406 197 442 C197 478 171 500 139 500 C107 500 81 478 81 442 C81 406 107 384 139 384 L139 384 Z M124 272 L92 -36 C89 -64 81 -97 81 -126 C81 -168 96 -194 139 -194 C182 -194 197 -168 197 -126 C197 -97 189 -64 186 -36 L154 272 L124 272 L124 272 Z " />
<glyph glyph-name="cent" unicode="&#xa2;" horiz-adv-x="500" d="M236 160 C165 192 144 274 144 346 C144 419 154 513 236 538 L236 160 L236 160 Z M236 578 C126 551 42 464 42 348 C42 229 120 140 236 118 L236 -12 L278 -12 L278 116 C357 121 401 160 444 222 L421 237 C385 188 343 148 278 150 L278 546 C341 546 371 533 382 504 C378 505 374 506 370 506 C343 506 320 493 320 460 C320 427 348 412 378 412 C411 412 428 442 428 470 C428 548 344 580 278 580 L278 700 L236 700 L236 578 L236 578 Z " />
<glyph glyph-name="sterling" unicode="&#xa3;" horiz-adv-x="500" d="M39 296 L229 296 C270 268 298 218 298 180 C298 147 282 113 261 89 C210 119 143 170 82 170 C28 170 -30 147 -30 84 C-30 15 56 -12 113 -12 C167 -12 221 2 265 31 C299 9 335 -4 375 -4 C432 -4 476 42 508 84 L480 104 C452 68 424 38 375 38 C355 38 322 50 306 62 C346 97 386 137 386 198 C386 234 373 268 351 296 L480 296 L480 330 L318 330 C219 421 130 462 130 564 C130 624 189 666 243 666 C281 666 313 653 336 634 C309 628 288 607 288 580 C288 556 308 534 341 534 C375 534 396 561 396 589 C396 657 320 700 243 700 C132 700 54 630 54 522 C54 437 131 386 189 330 L39 330 L39 296 L39 296 Z M46 76 C46 102 71 114 93 114 C133 114 192 77 225 54 C199 37 161 22 130 22 C72 22 46 48 46 76 L46 76 Z " />
<glyph glyph-name="currency" unicode="&#xa4;" horiz-adv-x="500" d="M23 154 L59 117 L107 172 C149 135 198 119 249 119 C300 119 349 135 391 172 L439 117 L476 154 L425 206 C462 245 475 295 475 345 C475 394 462 445 425 483 L476 535 L439 571 L391 517 C349 554 300 569 249 569 C198 569 149 554 107 517 L59 571 L23 535 L73 483 C36 445 23 394 23 345 C23 295 36 245 73 206 L23 154 L23 154 Z M249 519 C342 519 420 441 420 345 C420 247 342 169 249 169 C156 169 78 247 78 345 C78 441 156 519 249 519 L249 519 Z " />
<glyph glyph-name="yen" unicode="&#xa5;" horiz-adv-x="500" d="M205 238 L205 100 C205 52 189 34 106 34 L106 0 L397 0 L397 34 C314 34 299 52 299 100 L299 238 L468 238 L468 272 L299 272 L299 291 L320 340 L468 340 L468 374 L335 374 L414 559 C444 630 460 654 511 654 L511 688 L330 688 L330 654 C373 654 393 642 393 621 C393 608 387 587 376 562 L281 342 L192 565 C181 592 173 611 173 620 C173 644 195 654 235 654 L235 688 L3 688 L3 654 C36 654 56 647 79 593 L170 374 L35 374 L35 340 L184 340 L205 291 L205 272 L35 272 L35 238 L205 238 L205 238 Z " />
<glyph glyph-name="brokenbar" unicode="&#xa6;" horiz-adv-x="222" d="M83 0 L139 0 L139 275 L83 275 L83 0 L83 0 Z M83 413 L139 413 L139 688 L83 688 L83 413 L83 413 Z " />
<glyph glyph-name="section" unicode="&#xa7;" horiz-adv-x="500" d="M379 600 C379 665 307 700 254 700 C176 700 111 657 111 581 C111 507 151 479 205 430 L203 428 C130 428 73 385 73 306 C73 140 331 88 331 -30 C331 -79 292 -106 246 -106 C204 -106 175 -84 175 -69 C175 -52 207 -50 207 -15 C207 14 180 31 156 31 C124 31 105 6 105 -26 C105 -90 184 -126 243 -126 C321 -126 387 -83 387 2 C387 64 338 110 296 147 L298 150 C307 148 316 146 325 146 C371 146 427 190 427 268 C427 414 167 508 167 602 C167 652 205 680 252 680 C281 680 314 666 314 648 C314 631 281 625 281 593 C281 569 299 548 325 548 C357 548 379 569 379 600 L379 600 Z M375 237 C375 190 346 166 304 166 C279 166 262 176 240 191 C168 240 125 293 125 333 C125 370 152 404 194 404 C234 404 283 366 340 307 C371 275 375 256 375 237 L375 237 Z " />
<glyph glyph-name="dieresis" unicode="&#xa8;" horiz-adv-x="278" d="M39 646 C10 646 -10 624 -10 597 C-10 570 10 548 39 548 C68 548 88 570 88 597 C88 624 68 646 39 646 L39 646 Z M239 646 C210 646 190 624 190 597 C190 570 210 548 239 548 C268 548 288 570 288 597 C288 624 268 646 239 646 L239 646 Z " />
<glyph glyph-name="copyright" unicode="&#xa9;" horiz-adv-x="800" d="M400 700 C208 700 52 538 52 344 C52 150 208 -12 400 -12 C592 -12 748 150 748 344 C748 538 592 700 400 700 L400 700 Z M400 660 C560 660 696 514 696 344 C696 174 560 28 400 28 C240 28 104 174 104 344 C104 514 240 660 400 660 L400 660 Z M557 255 C539 210 503 172 424 172 C322 172 274 248 274 350 C274 452 322 528 424 528 C508 528 536 484 540 438 L556 438 L556 510 C556 519 549 527 534 532 C507 541 482 552 424 552 C306 552 204 494 204 350 C204 206 306 148 424 148 C470 148 509 158 530 165 C546 170 553 174 556 185 L573 255 L557 255 L557 255 Z " />
<glyph glyph-name="ordfeminine" unicode="&#xaa;" horiz-adv-x="300" d="M289 481 C289 466 286 442 266 442 C253 442 245 445 245 472 L245 628 C245 685 188 700 135 700 C92 700 8 686 8 633 C8 614 23 597 47 597 C69 597 84 614 84 633 C84 649 74 661 56 665 C74 675 97 680 119 680 C159 680 183 669 183 632 L183 587 C129 569 -8 542 -8 473 C-8 426 37 404 84 404 C132 404 170 417 188 461 L190 461 C195 430 204 404 242 404 C288 404 309 442 309 481 L289 481 L289 481 Z M183 515 C183 464 149 428 108 428 C77 428 62 448 62 475 C62 527 139 557 183 568 L183 515 L183 515 Z " />
<glyph glyph-name="guillemotleft" unicode="&#xab;" horiz-adv-x="500" d="M56 225 C97 186 145 152 172 122 C215 75 246 49 253 49 C263 49 266 57 266 61 C266 78 157 214 143 235 C157 252 266 371 266 403 C266 410 263 415 258 415 C248 415 244 409 236 400 C203 363 119 285 56 235 L56 225 L56 225 Z M234 225 C275 186 323 152 350 122 C393 75 424 49 431 49 C441 49 444 57 444 61 C444 78 335 214 321 235 C335 252 444 371 444 403 C444 410 441 415 436 415 C426 415 422 409 414 400 C381 363 297 285 234 235 L234 225 L234 225 Z " />
<glyph glyph-name="logicalnot" unicode="&#xac;" horiz-adv-x="600" d="M479 115 L535 115 L535 355 L65 355 L65 299 L479 299 L479 115 L479 115 Z " />
<glyph glyph-name="uni00AD" unicode="&#xad;" horiz-adv-x="278" d="M263 202 L263 268 L15 268 L15 202 L263 202 L263 202 Z " />
<glyph glyph-name="registered" unicode="&#xae;" horiz-adv-x="800" d="M450 337 C497 353 534 391 534 445 C534 510 475 540 413 540 L235 540 L235 524 C279 524 285 512 285 478 L285 220 C285 186 279 174 235 174 L235 158 L397 158 L397 174 C353 174 347 186 347 220 L347 326 L401 326 C472 224 495 158 531 158 L592 158 L592 167 C571 180 538 217 510 255 L450 337 L450 337 Z M347 520 L392 520 C434 520 472 500 472 441 C472 382 446 346 395 346 L347 346 L347 520 L347 520 Z M400 700 C208 700 52 538 52 344 C52 150 208 -12 400 -12 C592 -12 748 150 748 344 C748 538 592 700 400 700 L400 700 Z M400 660 C560 660 696 514 696 344 C696 174 560 28 400 28 C240 28 104 174 104 344 C104 514 240 660 400 660 L400 660 Z " />
<glyph glyph-name="macron" unicode="&#xaf;" horiz-adv-x="278" d="M294 572 L294 628 L-16 628 L-16 572 L294 572 L294 572 Z " />
<glyph glyph-name="degree" unicode="&#xb0;" horiz-adv-x="400" d="M200 672 C256 672 300 625 300 569 C300 513 256 466 200 466 C144 466 100 513 100 569 C100 625 144 672 200 672 L200 672 Z M200 712 C120 712 56 649 56 569 C56 489 120 426 200 426 C280 426 344 489 344 569 C344 649 280 712 200 712 L200 712 Z " />
<glyph glyph-name="plusminus" unicode="&#xb1;" horiz-adv-x="600" d="M272 309 L65 309 L65 253 L272 253 L272 90 L328 90 L328 253 L535 253 L535 309 L328 309 L328 470 L272 470 L272 309 L272 309 Z M65 0 L535 0 L535 56 L65 56 L65 0 L65 0 Z " />
<glyph glyph-name="twosuperior" unicode="&#xb2;" horiz-adv-x="300" d="M284 280 L290 406 L265 406 C257 348 235 328 178 328 L52 328 C91 433 285 454 285 588 C285 663 217 700 146 700 C78 700 16 659 16 593 C16 558 31 540 57 540 C82 540 96 558 96 575 C96 600 79 610 62 610 C52 610 45 606 39 603 C44 650 81 676 131 676 C191 676 223 644 223 588 C223 467 9 421 9 280 L284 280 L284 280 Z " />
<glyph glyph-name="threesuperior" unicode="&#xb3;" horiz-adv-x="300" d="M295 402 C295 460 245 495 187 499 L187 501 C235 512 283 545 283 595 C283 668 207 700 138 700 C71 700 18 657 18 603 C18 574 35 555 55 555 C77 555 94 568 94 590 C94 611 81 623 62 623 C55 623 48 621 42 618 C47 660 91 676 133 676 C193 676 221 642 221 592 C221 553 197 504 149 504 C139 504 131 507 121 507 C110 507 100 503 100 495 C100 486 109 484 116 484 C129 484 144 488 157 488 C211 488 229 438 229 397 C229 336 194 297 122 297 C75 297 31 313 29 359 C35 356 44 353 53 353 C71 353 88 368 88 388 C88 406 72 421 50 421 C21 421 5 399 5 367 C5 303 63 273 123 273 C212 273 295 321 295 402 L295 402 Z " />
<glyph glyph-name="acute" unicode="&#xb4;" horiz-adv-x="278" d="M104 538 L258 636 C276 647 288 663 288 677 C288 696 278 710 254 710 C235 710 223 700 211 687 L64 538 L104 538 L104 538 Z " />
<glyph glyph-name="mu" unicode="&#xb5;" horiz-adv-x="556" d="M543 0 L543 34 C491 34 473 44 473 76 L473 470 L301 470 L301 436 C361 436 379 426 379 394 L379 170 C370 104 334 28 252 28 C199 28 177 68 177 124 L177 470 L12 470 L12 436 C65 436 83 426 83 401 L83 -106 C83 -138 65 -148 12 -148 L12 -182 L177 -182 L177 -4 C194 -9 213 -12 232 -12 C301 -12 349 26 385 88 L387 88 L387 -6 L543 0 L543 0 Z " />
<glyph glyph-name="paragraph" unicode="&#xb6;" horiz-adv-x="600" d="M258 688 C110 688 50 629 50 490 C50 364 110 278 249 278 L249 -127 L305 -127 L305 654 L368 654 L368 -127 L424 -127 L424 594 C424 638 456 654 506 654 L506 688 L258 688 L258 688 Z " />
<glyph glyph-name="periodcentered" unicode="&#xb7;" horiz-adv-x="250" d="M54 235 C54 203 80 177 112 177 C144 177 170 203 170 235 C170 267 144 293 112 293 C80 293 54 267 54 235 L54 235 Z " />
<glyph glyph-name="cedilla" unicode="&#xb8;" horiz-adv-x="278" d="M73 -93 L81 -97 C90 -96 99 -94 108 -94 C142 -94 162 -103 162 -127 C162 -164 135 -172 103 -172 C83 -172 61 -167 42 -161 L28 -192 C55 -205 86 -210 108 -210 C184 -210 236 -174 236 -124 C236 -78 195 -56 153 -56 C143 -56 134 -58 124 -59 L149 6 L115 6 L73 -93 L73 -93 Z " />
<glyph glyph-name="onesuperior" unicode="&#xb9;" horiz-adv-x="300" d="M53 640 C106 640 119 631 119 613 L119 347 C119 313 104 300 41 300 L41 280 L259 280 L259 300 C197 300 181 313 181 347 L181 696 L163 696 C144 677 104 660 53 660 L53 640 L53 640 Z " />
<glyph glyph-name="ordmasculine" unicode="&#xba;" horiz-adv-x="334" d="M167 682 C219 682 254 652 254 552 C254 452 219 422 167 422 C114 422 79 452 79 552 C79 652 114 682 167 682 L167 682 Z M167 700 C79 700 9 639 9 552 C9 465 79 404 167 404 C254 404 324 465 324 552 C324 639 254 700 167 700 L167 700 Z " />
<glyph glyph-name="guillemotright" unicode="&#xbb;" horiz-adv-x="500" d="M266 245 C225 284 177 318 150 348 C107 395 76 421 69 421 C59 421 56 413 56 409 C56 392 165 256 179 235 C165 218 56 99 56 67 C56 60 59 55 64 55 C74 55 78 61 86 70 C119 107 203 185 266 235 L266 245 L266 245 Z M444 245 C403 284 355 318 328 348 C285 395 254 421 247 421 C237 421 234 413 234 409 C234 392 343 256 357 235 C343 218 234 99 234 67 C234 60 237 55 242 55 C252 55 256 61 264 70 C297 107 381 185 444 235 L444 245 L444 245 Z " />
<glyph glyph-name="onequarter" unicode="&#xbc;" horiz-adv-x="750" d="M663 416 L625 416 L428 132 L428 110 L601 110 L601 67 C601 33 585 20 535 20 L535 0 L717 0 L718 20 C679 20 663 33 663 67 L663 110 L730 110 L730 130 L663 130 L663 416 L663 416 Z M461 130 L599 328 L601 328 L601 130 L461 130 L461 130 Z M203 -12 L652 700 L600 700 L151 -12 L203 -12 L203 -12 Z M57 638 C110 638 123 629 123 611 L123 345 C123 311 108 298 45 298 L45 278 L263 278 L263 298 C201 298 185 311 185 345 L185 694 L167 694 C148 675 108 658 57 658 L57 638 L57 638 Z " />
<glyph glyph-name="onehalf" unicode="&#xbd;" horiz-adv-x="750" d="M179 -12 L628 700 L576 700 L127 -12 L179 -12 L179 -12 Z M729 0 L735 126 L710 126 C702 68 680 48 623 48 L497 48 C536 153 730 174 730 308 C730 383 662 420 591 420 C523 420 461 379 461 313 C461 278 476 260 502 260 C527 260 541 278 541 295 C541 320 524 330 507 330 C497 330 490 326 484 323 C489 370 526 396 576 396 C636 396 668 364 668 308 C668 187 454 141 454 0 L729 0 L729 0 Z M57 640 C110 640 123 631 123 613 L123 347 C123 313 108 300 45 300 L45 280 L263 280 L263 300 C201 300 185 313 185 347 L185 696 L167 696 C148 677 108 660 57 660 L57 640 L57 640 Z " />
<glyph glyph-name="threequarters" unicode="&#xbe;" horiz-adv-x="750" d="M203 -12 L652 700 L600 700 L151 -12 L203 -12 L203 -12 Z M294 402 C294 460 244 495 186 499 L186 501 C234 512 282 545 282 595 C282 668 206 700 137 700 C70 700 17 657 17 603 C17 574 34 555 54 555 C76 555 93 568 93 590 C93 611 80 623 61 623 C54 623 47 621 41 618 C46 660 90 676 132 676 C192 676 220 642 220 592 C220 554 196 508 148 508 C138 508 130 511 120 511 C109 511 99 506 99 497 C99 486 108 484 115 484 C128 484 143 488 156 488 C210 488 228 438 228 397 C228 336 193 297 121 297 C74 297 30 313 28 359 C34 356 43 353 52 353 C70 353 87 368 87 388 C87 406 71 421 49 421 C20 421 4 399 4 367 C4 303 62 273 122 273 C211 273 294 321 294 402 L294 402 Z M660 416 L622 416 L425 132 L425 110 L598 110 L598 67 C598 33 582 20 532 20 L532 0 L714 0 L715 20 C676 20 660 33 660 67 L660 110 L727 110 L727 130 L660 130 L660 416 L660 416 Z M458 130 L596 328 L598 328 L598 130 L458 130 L458 130 Z " />
<glyph glyph-name="questiondown" unicode="&#xbf;" horiz-adv-x="444" d="M222 290 C222 233 215 191 197 173 C141 117 28 48 28 -38 C28 -148 133 -194 228 -194 C308 -194 406 -137 406 -49 C406 -3 387 34 338 34 C309 34 284 9 284 -21 C284 -51 304 -72 336 -72 C348 -72 356 -70 364 -68 C364 -127 300 -160 247 -160 C171 -160 122 -102 122 -29 C122 100 254 106 254 226 L254 290 L222 290 L222 290 Z M232 384 C264 384 290 406 290 442 C290 478 264 500 232 500 C200 500 174 478 174 442 C174 406 200 384 232 384 L232 384 Z " />
<glyph glyph-name="Agrave" unicode="&#xc0;" horiz-adv-x="667" d="M249 0 L249 34 C163 34 143 48 143 86 C143 114 172 174 189 230 L425 230 C452 172 481 92 481 71 C481 42 477 34 402 34 L402 0 L680 0 L680 34 C622 34 599 52 569 129 L350 692 L314 692 L112 140 C90 79 69 34 -12 34 L-12 0 L249 0 L249 0 Z M203 272 L303 535 L409 272 L203 272 L203 272 Z M409 727 L262 876 C250 889 238 899 219 899 C195 899 185 885 185 866 C185 852 197 836 215 825 L369 727 L409 727 L409 727 Z " />
<glyph glyph-name="Aacute" unicode="&#xc1;" horiz-adv-x="667" d="M249 0 L249 34 C163 34 143 48 143 86 C143 114 172 174 189 230 L425 230 C452 172 481 92 481 71 C481 42 477 34 402 34 L402 0 L680 0 L680 34 C622 34 599 52 569 129 L350 692 L314 692 L112 140 C90 79 69 34 -12 34 L-12 0 L249 0 L249 0 Z M203 272 L303 535 L409 272 L203 272 L203 272 Z M299 735 L453 833 C471 844 483 860 483 874 C483 893 473 907 449 907 C430 907 418 897 406 884 L259 735 L299 735 L299 735 Z " />
<glyph glyph-name="Acircumflex" unicode="&#xc2;" horiz-adv-x="667" d="M249 0 L249 34 C163 34 143 48 143 86 C143 114 172 174 189 230 L425 230 C452 172 481 92 481 71 C481 42 477 34 402 34 L402 0 L680 0 L680 34 C622 34 599 52 569 129 L350 692 L314 692 L112 140 C90 79 69 34 -12 34 L-12 0 L249 0 L249 0 Z M203 272 L303 535 L409 272 L203 272 L203 272 Z M334 838 L454 735 L489 735 L365 903 L303 903 L179 735 L211 735 L334 838 L334 838 Z " />
<glyph glyph-name="Atilde" unicode="&#xc3;" horiz-adv-x="667" d="M249 0 L249 34 C163 34 143 48 143 86 C143 114 172 174 189 230 L425 230 C452 172 481 92 481 71 C481 42 477 34 402 34 L402 0 L680 0 L680 34 C622 34 599 52 569 129 L350 692 L314 692 L112 140 C90 79 69 34 -12 34 L-12 0 L249 0 L249 0 Z M203 272 L303 535 L409 272 L203 272 L203 272 Z M470 859 C464 832 442 809 414 809 C394 809 374 821 353 832 C327 846 299 855 278 855 C217 855 183 812 169 755 L198 755 C205 779 223 799 254 799 C294 799 337 753 389 753 C456 753 487 798 499 859 L470 859 L470 859 Z " />
<glyph glyph-name="Adieresis" unicode="&#xc4;" horiz-adv-x="667" d="M249 0 L249 34 C163 34 143 48 143 86 C143 114 172 174 189 230 L425 230 C452 172 481 92 481 71 C481 42 477 34 402 34 L402 0 L680 0 L680 34 C622 34 599 52 569 129 L350 692 L314 692 L112 140 C90 79 69 34 -12 34 L-12 0 L249 0 L249 0 Z M203 272 L303 535 L409 272 L203 272 L203 272 Z M234 843 C205 843 185 821 185 794 C185 767 205 745 234 745 C263 745 283 767 283 794 C283 821 263 843 234 843 L234 843 Z M434 843 C405 843 385 821 385 794 C385 767 405 745 434 745 C463 745 483 767 483 794 C483 821 463 843 434 843 L434 843 Z " />
<glyph glyph-name="Aring" unicode="&#xc5;" horiz-adv-x="667" d="M249 0 L249 34 C163 34 143 48 143 86 C143 114 172 174 189 230 L425 230 C452 172 481 92 481 71 C481 42 477 34 402 34 L402 0 L680 0 L680 34 C622 34 599 52 569 129 L350 692 L314 692 L112 140 C90 79 69 34 -12 34 L-12 0 L249 0 L249 0 Z M203 272 L303 535 L409 272 L203 272 L203 272 Z M334 927 C277 927 235 881 235 827 C235 773 277 727 334 727 C391 727 433 773 433 827 C433 881 391 927 334 927 L334 927 Z M334 893 C371 893 399 863 399 827 C399 791 371 761 334 761 C297 761 269 791 269 827 C269 863 297 893 334 893 L334 893 Z " />
<glyph glyph-name="AE" unicode="&#xc6;" horiz-adv-x="944" d="M887 261 L856 261 C831 95 736 34 619 34 C557 34 533 46 533 78 L533 342 C623 340 668 330 684 222 L712 222 L712 498 L684 498 C668 388 623 378 533 376 L533 588 C533 638 586 654 642 654 C752 654 822 576 846 452 L877 452 L871 688 L297 688 L297 654 C344 654 371 650 371 635 C371 620 358 603 343 578 L66 124 C30 65 6 40 -44 34 L-44 0 L208 0 L208 34 C133 31 102 46 102 74 C102 116 160 184 194 244 L431 244 L431 100 C431 52 417 34 335 34 L335 0 L881 0 L887 261 L887 261 Z M214 286 C294 395 357 517 428 632 L431 632 L431 286 L214 286 L214 286 Z " />
<glyph glyph-name="Ccedilla" unicode="&#xc7;" horiz-adv-x="667" d="M578 682 C572 664 555 644 537 644 C520 644 448 700 359 700 C177 700 43 529 43 344 C43 167 166 3 326 -11 L291 -93 L299 -97 C308 -96 317 -94 326 -94 C360 -94 380 -103 380 -127 C380 -164 353 -172 321 -172 C301 -172 279 -167 260 -161 L246 -192 C273 -205 304 -210 326 -210 C402 -210 454 -174 454 -124 C454 -78 413 -56 371 -56 C361 -56 352 -58 342 -59 L360 -12 C539 -7 614 100 623 260 L595 260 C583 127 525 22 366 22 C279 22 159 104 159 344 C159 561 225 666 369 666 C497 666 544 557 575 446 L602 446 L602 682 L578 682 L578 682 Z " />
<glyph glyph-name="Egrave" unicode="&#xc8;" horiz-adv-x="667" d="M619 257 L588 257 C544 64 440 34 306 34 C245 34 224 46 224 78 L224 342 C329 340 374 330 390 222 L418 222 L418 498 L390 497 C374 388 329 378 224 376 L224 588 C224 638 274 654 333 654 C466 654 522 594 570 442 L601 442 L595 688 L29 688 L29 654 C105 654 122 636 122 588 L122 100 C122 52 105 34 29 34 L29 0 L613 0 L619 257 L619 257 Z M415 727 L268 876 C256 889 244 899 225 899 C201 899 191 885 191 866 C191 852 203 836 221 825 L375 727 L415 727 L415 727 Z " />
<glyph glyph-name="Eacute" unicode="&#xc9;" horiz-adv-x="667" d="M619 257 L588 257 C544 64 440 34 306 34 C245 34 224 46 224 78 L224 342 C329 340 374 330 390 222 L418 222 L418 498 L390 497 C374 388 329 378 224 376 L224 588 C224 638 274 654 333 654 C466 654 522 594 570 442 L601 442 L595 688 L29 688 L29 654 C105 654 122 636 122 588 L122 100 C122 52 105 34 29 34 L29 0 L613 0 L619 257 L619 257 Z M305 735 L459 833 C477 844 489 860 489 874 C489 893 479 907 455 907 C436 907 424 897 412 884 L265 735 L305 735 L305 735 Z " />
<glyph glyph-name="Ecircumflex" unicode="&#xca;" horiz-adv-x="667" d="M619 257 L588 257 C544 64 440 34 306 34 C245 34 224 46 224 78 L224 342 C329 340 374 330 390 222 L418 222 L418 498 L390 497 C374 388 329 378 224 376 L224 588 C224 638 274 654 333 654 C466 654 522 594 570 442 L601 442 L595 688 L29 688 L29 654 C105 654 122 636 122 588 L122 100 C122 52 105 34 29 34 L29 0 L613 0 L619 257 L619 257 Z M340 838 L460 735 L495 735 L371 903 L309 903 L185 735 L217 735 L340 838 L340 838 Z " />
<glyph glyph-name="Edieresis" unicode="&#xcb;" horiz-adv-x="667" d="M619 257 L588 257 C544 64 440 34 306 34 C245 34 224 46 224 78 L224 342 C329 340 374 330 390 222 L418 222 L418 498 L390 497 C374 388 329 378 224 376 L224 588 C224 638 274 654 333 654 C466 654 522 594 570 442 L601 442 L595 688 L29 688 L29 654 C105 654 122 636 122 588 L122 100 C122 52 105 34 29 34 L29 0 L613 0 L619 257 L619 257 Z M240 843 C211 843 191 821 191 794 C191 767 211 745 240 745 C269 745 289 767 289 794 C289 821 269 843 240 843 L240 843 Z M440 843 C411 843 391 821 391 794 C391 767 411 745 440 745 C469 745 489 767 489 794 C489 821 469 843 440 843 L440 843 Z " />
<glyph glyph-name="Igrave" unicode="&#xcc;" horiz-adv-x="333" d="M19 688 L19 654 C98 654 115 636 115 588 L115 100 C115 52 98 34 19 34 L19 0 L313 0 L313 34 C234 34 217 52 217 100 L217 588 C217 636 234 654 313 654 L313 688 L19 688 L19 688 Z M242 727 L95 876 C83 889 71 899 52 899 C28 899 18 885 18 866 C18 852 30 836 48 825 L202 727 L242 727 L242 727 Z " />
<glyph glyph-name="Iacute" unicode="&#xcd;" horiz-adv-x="333" d="M19 688 L19 654 C98 654 115 636 115 588 L115 100 C115 52 98 34 19 34 L19 0 L313 0 L313 34 C234 34 217 52 217 100 L217 588 C217 636 234 654 313 654 L313 688 L19 688 L19 688 Z M132 735 L286 833 C304 844 316 860 316 874 C316 893 306 907 282 907 C263 907 251 897 239 884 L92 735 L132 735 L132 735 Z " />
<glyph glyph-name="Icircumflex" unicode="&#xce;" horiz-adv-x="333" d="M19 688 L19 654 C98 654 115 636 115 588 L115 100 C115 52 98 34 19 34 L19 0 L313 0 L313 34 C234 34 217 52 217 100 L217 588 C217 636 234 654 313 654 L313 688 L19 688 L19 688 Z M167 838 L287 735 L322 735 L198 903 L136 903 L12 735 L44 735 L167 838 L167 838 Z " />
<glyph glyph-name="Idieresis" unicode="&#xcf;" horiz-adv-x="333" d="M19 688 L19 654 C98 654 115 636 115 588 L115 100 C115 52 98 34 19 34 L19 0 L313 0 L313 34 C234 34 217 52 217 100 L217 588 C217 636 234 654 313 654 L313 688 L19 688 L19 688 Z M67 843 C38 843 18 821 18 794 C18 767 38 745 67 745 C96 745 116 767 116 794 C116 821 96 843 67 843 L67 843 Z M267 843 C238 843 218 821 218 794 C218 767 238 745 267 745 C296 745 316 767 316 794 C316 821 296 843 267 843 L267 843 Z " />
<glyph glyph-name="Eth" unicode="&#xd0;" horiz-adv-x="722" d="M124 401 L34 401 L34 359 L124 359 L124 100 C124 52 107 34 30 34 L30 0 L362 0 C504 0 680 110 680 344 C680 578 502 688 354 688 L30 688 L30 654 C107 654 124 636 124 588 L124 401 L124 401 Z M226 582 C226 640 241 654 330 654 C486 654 564 584 564 343 C564 156 528 34 330 34 C241 34 226 48 226 106 L226 359 L426 359 L426 401 L226 401 L226 582 L226 582 Z " />
<glyph glyph-name="Ntilde" unicode="&#xd1;" horiz-adv-x="722" d="M29 688 L29 654 C80 654 98 650 130 613 L130 100 C130 52 113 34 31 34 L31 0 L277 0 L277 34 C189 34 172 52 172 100 L172 550 L174 550 L567 -6 L606 -6 L606 588 C606 636 623 654 693 654 L693 688 L465 688 L465 654 C547 654 564 636 564 588 L564 173 L562 173 L202 688 L29 688 L29 688 Z M509 859 C503 832 481 809 453 809 C433 809 413 821 392 832 C366 846 338 855 317 855 C256 855 222 812 208 755 L237 755 C244 779 262 799 293 799 C333 799 376 753 428 753 C495 753 526 798 538 859 L509 859 L509 859 Z " />
<glyph glyph-name="Ograve" unicode="&#xd2;" horiz-adv-x="722" d="M361 700 C169 700 35 529 35 344 C35 159 169 -12 361 -12 C553 -12 687 159 687 344 C687 529 553 700 361 700 L361 700 Z M361 666 C505 666 571 561 571 344 C571 127 505 22 361 22 C217 22 151 127 151 344 C151 561 217 666 361 666 L361 666 Z M436 727 L289 876 C277 889 265 899 246 899 C222 899 212 885 212 866 C212 852 224 836 242 825 L396 727 L436 727 L436 727 Z " />
<glyph glyph-name="Oacute" unicode="&#xd3;" horiz-adv-x="722" d="M361 700 C169 700 35 529 35 344 C35 159 169 -12 361 -12 C553 -12 687 159 687 344 C687 529 553 700 361 700 L361 700 Z M361 666 C505 666 571 561 571 344 C571 127 505 22 361 22 C217 22 151 127 151 344 C151 561 217 666 361 666 L361 666 Z M326 735 L480 833 C498 844 510 860 510 874 C510 893 500 907 476 907 C457 907 445 897 433 884 L286 735 L326 735 L326 735 Z " />
<glyph glyph-name="Ocircumflex" unicode="&#xd4;" horiz-adv-x="722" d="M361 700 C169 700 35 529 35 344 C35 159 169 -12 361 -12 C553 -12 687 159 687 344 C687 529 553 700 361 700 L361 700 Z M361 666 C505 666 571 561 571 344 C571 127 505 22 361 22 C217 22 151 127 151 344 C151 561 217 666 361 666 L361 666 Z M361 838 L481 735 L516 735 L392 903 L330 903 L206 735 L238 735 L361 838 L361 838 Z " />
<glyph glyph-name="Otilde" unicode="&#xd5;" horiz-adv-x="722" d="M361 700 C169 700 35 529 35 344 C35 159 169 -12 361 -12 C553 -12 687 159 687 344 C687 529 553 700 361 700 L361 700 Z M361 666 C505 666 571 561 571 344 C571 127 505 22 361 22 C217 22 151 127 151 344 C151 561 217 666 361 666 L361 666 Z M497 859 C491 832 469 809 441 809 C421 809 401 821 380 832 C354 846 326 855 305 855 C244 855 210 812 196 755 L225 755 C232 779 250 799 281 799 C321 799 364 753 416 753 C483 753 514 798 526 859 L497 859 L497 859 Z " />
<glyph glyph-name="Odieresis" unicode="&#xd6;" horiz-adv-x="722" d="M361 700 C169 700 35 529 35 344 C35 159 169 -12 361 -12 C553 -12 687 159 687 344 C687 529 553 700 361 700 L361 700 Z M361 666 C505 666 571 561 571 344 C571 127 505 22 361 22 C217 22 151 127 151 344 C151 561 217 666 361 666 L361 666 Z M261 843 C232 843 212 821 212 794 C212 767 232 745 261 745 C290 745 310 767 310 794 C310 821 290 843 261 843 L261 843 Z M461 843 C432 843 412 821 412 794 C412 767 432 745 461 745 C490 745 510 767 510 794 C510 821 490 843 461 843 L461 843 Z " />
<glyph glyph-name="multiply" unicode="&#xd7;" horiz-adv-x="600" d="M260 235 L65 40 L104 0 L300 196 L496 0 L535 40 L340 235 L535 430 L496 470 L300 274 L104 470 L65 430 L260 235 L260 235 Z " />
<glyph glyph-name="Oslash" unicode="&#xd8;" horiz-adv-x="722" d="M191 125 C163 176 151 250 151 344 C151 561 217 666 361 666 C423 666 471 646 505 606 L191 125 L191 125 Z M532 565 C558 514 571 440 571 344 C571 127 505 22 361 22 C298 22 250 42 217 83 L532 565 L532 565 Z M61 -74 L115 -74 L190 41 C238 7 297 -12 361 -12 C553 -12 687 159 687 344 C687 450 643 551 568 620 L647 742 L594 742 L532 647 C484 680 426 700 361 700 C169 700 35 529 35 344 C35 237 80 135 154 69 L61 -74 L61 -74 Z " />
<glyph glyph-name="Ugrave" unicode="&#xd9;" horiz-adv-x="722" d="M307 688 L13 688 L13 654 C92 654 109 636 109 588 L109 190 C109 50 208 -12 362 -12 C506 -12 611 68 611 212 L611 558 C611 612 621 654 709 654 L709 688 L468 688 L468 654 C565 654 575 612 575 558 L575 220 C575 108 520 22 374 22 C264 22 211 80 211 187 L211 588 C211 636 228 654 307 654 L307 688 L307 688 Z M448 727 L301 876 C289 889 277 899 258 899 C234 899 224 885 224 866 C224 852 236 836 254 825 L408 727 L448 727 L448 727 Z " />
<glyph glyph-name="Uacute" unicode="&#xda;" horiz-adv-x="722" d="M307 688 L13 688 L13 654 C92 654 109 636 109 588 L109 190 C109 50 208 -12 362 -12 C506 -12 611 68 611 212 L611 558 C611 612 621 654 709 654 L709 688 L468 688 L468 654 C565 654 575 612 575 558 L575 220 C575 108 520 22 374 22 C264 22 211 80 211 187 L211 588 C211 636 228 654 307 654 L307 688 L307 688 Z M338 735 L492 833 C510 844 522 860 522 874 C522 893 512 907 488 907 C469 907 457 897 445 884 L298 735 L338 735 L338 735 Z " />
<glyph glyph-name="Ucircumflex" unicode="&#xdb;" horiz-adv-x="722" d="M307 688 L13 688 L13 654 C92 654 109 636 109 588 L109 190 C109 50 208 -12 362 -12 C506 -12 611 68 611 212 L611 558 C611 612 621 654 709 654 L709 688 L468 688 L468 654 C565 654 575 612 575 558 L575 220 C575 108 520 22 374 22 C264 22 211 80 211 187 L211 588 C211 636 228 654 307 654 L307 688 L307 688 Z M373 838 L493 735 L528 735 L404 903 L342 903 L218 735 L250 735 L373 838 L373 838 Z " />
<glyph glyph-name="Udieresis" unicode="&#xdc;" horiz-adv-x="722" d="M307 688 L13 688 L13 654 C92 654 109 636 109 588 L109 190 C109 50 208 -12 362 -12 C506 -12 611 68 611 212 L611 558 C611 612 621 654 709 654 L709 688 L468 688 L468 654 C565 654 575 612 575 558 L575 220 C575 108 520 22 374 22 C264 22 211 80 211 187 L211 588 C211 636 228 654 307 654 L307 688 L307 688 Z M273 843 C244 843 224 821 224 794 C224 767 244 745 273 745 C302 745 322 767 322 794 C322 821 302 843 273 843 L273 843 Z M473 843 C444 843 424 821 424 794 C424 767 444 745 473 745 C502 745 522 767 522 794 C522 821 502 843 473 843 L473 843 Z " />
<glyph glyph-name="Yacute" unicode="&#xdd;" horiz-adv-x="611" d="M4 654 C56 654 75 646 102 593 L255 292 L255 100 C255 52 238 34 151 34 L151 0 L465 0 L465 34 C374 34 357 52 357 100 L357 292 L498 559 C535 629 548 654 620 654 L620 688 L391 688 L391 654 C454 654 476 642 476 621 C476 570 357 384 338 342 C321 387 204 586 204 620 C204 644 228 654 288 654 L288 688 L4 688 L4 654 L4 654 Z M271 735 L425 833 C443 844 455 860 455 874 C455 893 445 907 421 907 C402 907 390 897 378 884 L231 735 L271 735 L271 735 Z " />
<glyph glyph-name="Thorn" unicode="&#xde;" horiz-adv-x="611" d="M124 100 C124 52 107 34 28 34 L28 0 L322 0 L322 34 C243 34 226 52 226 100 L226 190 C268 189 313 188 357 188 C509 188 595 270 595 375 C595 482 509 560 357 560 C313 560 267 559 226 558 L226 588 C226 636 243 654 322 654 L322 688 L28 688 L28 654 C107 654 124 636 124 588 L124 100 L124 100 Z M226 499 C245 520 278 526 331 526 C432 526 479 463 479 369 C479 261 439 222 321 222 C289 222 256 224 226 224 L226 499 L226 499 Z " />
<glyph glyph-name="germandbls" unicode="&#xdf;" horiz-adv-x="611" d="M186 0 L186 494 C186 612 242 654 318 654 C388 654 444 603 444 532 C444 376 268 446 268 342 C268 214 511 248 511 112 C511 50 460 22 404 22 C323 22 282 99 272 169 L244 169 L244 0 L272 0 C276 9 280 25 293 25 C304 25 340 -12 405 -12 C500 -12 577 46 577 152 C577 316 330 310 330 370 C330 400 532 386 532 526 C532 634 409 688 312 688 C201 688 92 609 92 479 L92 470 L16 470 L16 436 L92 436 L92 76 C92 44 74 34 20 34 L20 0 L186 0 L186 0 Z " />
<glyph glyph-name="agrave" unicode="&#xe0;" horiz-adv-x="500" d="M486 116 C486 92 479 46 447 46 C428 46 416 52 416 102 L416 344 C416 450 352 482 222 482 C131 482 52 431 52 370 C52 340 76 312 110 312 C144 312 168 340 168 370 C168 398 152 418 125 423 C155 442 184 448 219 448 C257 448 322 436 322 386 L322 293 C237 264 26 218 26 103 C26 25 96 -12 167 -12 C241 -12 300 10 328 84 L330 84 C338 32 352 -6 411 -6 C482 -6 514 51 514 116 L486 116 L486 116 Z M322 174 C322 89 267 30 204 30 C157 30 134 62 134 107 C134 194 252 244 322 261 L322 174 L322 174 Z M313 530 L166 679 C154 692 142 702 123 702 C99 702 89 688 89 669 C89 655 101 639 119 628 L273 530 L313 530 L313 530 Z " />
<glyph glyph-name="aacute" unicode="&#xe1;" horiz-adv-x="500" d="M486 116 C486 92 479 46 447 46 C428 46 416 52 416 102 L416 344 C416 450 352 482 222 482 C131 482 52 431 52 370 C52 340 76 312 110 312 C144 312 168 340 168 370 C168 398 152 418 125 423 C155 442 184 448 219 448 C257 448 322 436 322 386 L322 293 C237 264 26 218 26 103 C26 25 96 -12 167 -12 C241 -12 300 10 328 84 L330 84 C338 32 352 -6 411 -6 C482 -6 514 51 514 116 L486 116 L486 116 Z M322 174 C322 89 267 30 204 30 C157 30 134 62 134 107 C134 194 252 244 322 261 L322 174 L322 174 Z M203 538 L357 636 C375 647 387 663 387 677 C387 696 377 710 353 710 C334 710 322 700 310 687 L163 538 L203 538 L203 538 Z " />
<glyph glyph-name="acircumflex" unicode="&#xe2;" horiz-adv-x="500" d="M486 116 C486 92 479 46 447 46 C428 46 416 52 416 102 L416 344 C416 450 352 482 222 482 C131 482 52 431 52 370 C52 340 76 312 110 312 C144 312 168 340 168 370 C168 398 152 418 125 423 C155 442 184 448 219 448 C257 448 322 436 322 386 L322 293 C237 264 26 218 26 103 C26 25 96 -12 167 -12 C241 -12 300 10 328 84 L330 84 C338 32 352 -6 411 -6 C482 -6 514 51 514 116 L486 116 L486 116 Z M322 174 C322 89 267 30 204 30 C157 30 134 62 134 107 C134 194 252 244 322 261 L322 174 L322 174 Z M238 641 L358 538 L393 538 L269 706 L207 706 L83 538 L115 538 L238 641 L238 641 Z " />
<glyph glyph-name="atilde" unicode="&#xe3;" horiz-adv-x="500" d="M486 116 C486 92 479 46 447 46 C428 46 416 52 416 102 L416 344 C416 450 352 482 222 482 C131 482 52 431 52 370 C52 340 76 312 110 312 C144 312 168 340 168 370 C168 398 152 418 125 423 C155 442 184 448 219 448 C257 448 322 436 322 386 L322 293 C237 264 26 218 26 103 C26 25 96 -12 167 -12 C241 -12 300 10 328 84 L330 84 C338 32 352 -6 411 -6 C482 -6 514 51 514 116 L486 116 L486 116 Z M322 174 C322 89 267 30 204 30 C157 30 134 62 134 107 C134 194 252 244 322 261 L322 174 L322 174 Z M374 662 C368 635 346 612 318 612 C298 612 278 624 257 635 C231 649 203 658 182 658 C121 658 87 615 73 558 L102 558 C109 582 127 602 158 602 C198 602 241 556 293 556 C360 556 391 601 403 662 L374 662 L374 662 Z " />
<glyph glyph-name="adieresis" unicode="&#xe4;" horiz-adv-x="500" d="M486 116 C486 92 479 46 447 46 C428 46 416 52 416 102 L416 344 C416 450 352 482 222 482 C131 482 52 431 52 370 C52 340 76 312 110 312 C144 312 168 340 168 370 C168 398 152 418 125 423 C155 442 184 448 219 448 C257 448 322 436 322 386 L322 293 C237 264 26 218 26 103 C26 25 96 -12 167 -12 C241 -12 300 10 328 84 L330 84 C338 32 352 -6 411 -6 C482 -6 514 51 514 116 L486 116 L486 116 Z M322 174 C322 89 267 30 204 30 C157 30 134 62 134 107 C134 194 252 244 322 261 L322 174 L322 174 Z M138 646 C109 646 89 624 89 597 C89 570 109 548 138 548 C167 548 187 570 187 597 C187 624 167 646 138 646 L138 646 Z M338 646 C309 646 289 624 289 597 C289 570 309 548 338 548 C367 548 387 570 387 597 C387 624 367 646 338 646 L338 646 Z " />
<glyph glyph-name="aring" unicode="&#xe5;" horiz-adv-x="500" d="M486 116 C486 92 479 46 447 46 C428 46 416 52 416 102 L416 344 C416 450 352 482 222 482 C131 482 52 431 52 370 C52 340 76 312 110 312 C144 312 168 340 168 370 C168 398 152 418 125 423 C155 442 184 448 219 448 C257 448 322 436 322 386 L322 293 C237 264 26 218 26 103 C26 25 96 -12 167 -12 C241 -12 300 10 328 84 L330 84 C338 32 352 -6 411 -6 C482 -6 514 51 514 116 L486 116 L486 116 Z M322 174 C322 89 267 30 204 30 C157 30 134 62 134 107 C134 194 252 244 322 261 L322 174 L322 174 Z M238 730 C181 730 139 684 139 630 C139 576 181 530 238 530 C295 530 337 576 337 630 C337 684 295 730 238 730 L238 730 Z M238 696 C275 696 303 666 303 630 C303 594 275 564 238 564 C201 564 173 594 173 630 C173 666 201 696 238 696 L238 696 Z " />
<glyph glyph-name="ae" unicode="&#xe6;" horiz-adv-x="778" d="M322 174 C322 89 267 30 204 30 C157 30 134 62 134 107 C134 194 252 244 322 261 L322 174 L322 174 Z M26 103 C26 25 96 -12 167 -12 C230 -12 280 3 374 73 C409 21 465 -12 532 -12 C639 -12 694 32 739 98 L715 114 C677 63 632 22 565 22 C479 22 420 100 420 238 L744 238 C744 400 649 482 532 482 C478 482 431 460 397 425 C368 469 305 482 222 482 C131 482 52 431 52 370 C52 340 76 312 110 312 C144 312 168 340 168 370 C168 398 152 418 125 423 C155 442 184 448 219 448 C257 448 322 436 322 386 L322 293 C237 264 26 218 26 103 L26 103 Z M420 272 C420 344 434 448 530 448 C628 448 642 344 642 272 L420 272 L420 272 Z " />
<glyph glyph-name="ccedilla" unicode="&#xe7;" horiz-adv-x="500" d="M448 114 C413 62 368 22 296 22 C189 22 143 121 143 246 C143 379 203 448 300 448 C355 448 395 435 410 406 C403 407 396 408 389 408 C356 408 338 390 338 360 C338 330 361 306 400 306 C438 306 462 336 462 370 C462 442 378 482 296 482 C162 482 35 378 35 235 C35 102 125 3 248 -11 L213 -93 L221 -97 C230 -96 239 -94 248 -94 C282 -94 302 -103 302 -127 C302 -164 275 -172 243 -172 C223 -172 201 -167 182 -161 L168 -192 C195 -205 226 -210 248 -210 C324 -210 376 -174 376 -124 C376 -78 335 -56 293 -56 C283 -56 274 -58 264 -59 L282 -12 C372 -10 432 34 472 103 L448 114 L448 114 Z " />
<glyph glyph-name="egrave" unicode="&#xe8;" horiz-adv-x="500" d="M466 238 C466 400 371 482 254 482 C130 482 34 368 34 235 C34 102 130 -12 254 -12 C361 -12 416 32 461 98 L437 114 C399 63 354 22 287 22 C201 22 142 100 142 238 L466 238 L466 238 Z M142 272 C142 344 156 448 252 448 C350 448 364 344 364 272 L142 272 L142 272 Z M337 530 L190 679 C178 692 166 702 147 702 C123 702 113 688 113 669 C113 655 125 639 143 628 L297 530 L337 530 L337 530 Z " />
<glyph glyph-name="eacute" unicode="&#xe9;" horiz-adv-x="500" d="M466 238 C466 400 371 482 254 482 C130 482 34 368 34 235 C34 102 130 -12 254 -12 C361 -12 416 32 461 98 L437 114 C399 63 354 22 287 22 C201 22 142 100 142 238 L466 238 L466 238 Z M142 272 C142 344 156 448 252 448 C350 448 364 344 364 272 L142 272 L142 272 Z M227 538 L381 636 C399 647 411 663 411 677 C411 696 401 710 377 710 C358 710 346 700 334 687 L187 538 L227 538 L227 538 Z " />
<glyph glyph-name="ecircumflex" unicode="&#xea;" horiz-adv-x="500" d="M466 238 C466 400 371 482 254 482 C130 482 34 368 34 235 C34 102 130 -12 254 -12 C361 -12 416 32 461 98 L437 114 C399 63 354 22 287 22 C201 22 142 100 142 238 L466 238 L466 238 Z M142 272 C142 344 156 448 252 448 C350 448 364 344 364 272 L142 272 L142 272 Z M262 641 L382 538 L417 538 L293 706 L231 706 L107 538 L139 538 L262 641 L262 641 Z " />
<glyph glyph-name="edieresis" unicode="&#xeb;" horiz-adv-x="500" d="M466 238 C466 400 371 482 254 482 C130 482 34 368 34 235 C34 102 130 -12 254 -12 C361 -12 416 32 461 98 L437 114 C399 63 354 22 287 22 C201 22 142 100 142 238 L466 238 L466 238 Z M142 272 C142 344 156 448 252 448 C350 448 364 344 364 272 L142 272 L142 272 Z M162 646 C133 646 113 624 113 597 C113 570 133 548 162 548 C191 548 211 570 211 597 C211 624 191 646 162 646 L162 646 Z M362 646 C333 646 313 624 313 597 C313 570 333 548 362 548 C391 548 411 570 411 597 C411 624 391 646 362 646 L362 646 Z " />
<glyph glyph-name="igrave" unicode="&#xec;" horiz-adv-x="278" d="M262 0 L262 34 C204 34 186 44 186 76 L186 476 L16 470 L16 436 C74 436 92 426 92 394 L92 76 C92 44 74 34 16 34 L16 0 L262 0 L262 0 Z M208 530 L61 679 C49 692 37 702 18 702 C-6 702 -16 688 -16 669 C-16 655 -4 639 14 628 L168 530 L208 530 L208 530 Z " />
<glyph glyph-name="iacute" unicode="&#xed;" horiz-adv-x="278" d="M262 0 L262 34 C204 34 186 44 186 76 L186 476 L16 470 L16 436 C74 436 92 426 92 394 L92 76 C92 44 74 34 16 34 L16 0 L262 0 L262 0 Z M98 538 L252 636 C270 647 282 663 282 677 C282 696 272 710 248 710 C229 710 217 700 205 687 L58 538 L98 538 L98 538 Z " />
<glyph glyph-name="icircumflex" unicode="&#xee;" horiz-adv-x="278" d="M262 0 L262 34 C204 34 186 44 186 76 L186 476 L16 470 L16 436 C74 436 92 426 92 394 L92 76 C92 44 74 34 16 34 L16 0 L262 0 L262 0 Z M133 641 L253 538 L288 538 L164 706 L102 706 L-22 538 L10 538 L133 641 L133 641 Z " />
<glyph glyph-name="idieresis" unicode="&#xef;" horiz-adv-x="278" d="M262 0 L262 34 C204 34 186 44 186 76 L186 476 L16 470 L16 436 C74 436 92 426 92 394 L92 76 C92 44 74 34 16 34 L16 0 L262 0 L262 0 Z M33 646 C4 646 -16 624 -16 597 C-16 570 4 548 33 548 C62 548 82 570 82 597 C82 624 62 646 33 646 L33 646 Z M233 646 C204 646 184 624 184 597 C184 570 204 548 233 548 C262 548 282 570 282 597 C282 624 262 646 233 646 L233 646 Z " />
<glyph glyph-name="eth" unicode="&#xf0;" horiz-adv-x="556" d="M278 22 C197 22 143 71 143 231 C143 386 199 432 278 432 C357 432 413 386 413 231 C413 71 359 22 278 22 L278 22 Z M193 569 L300 623 C357 585 387 522 399 436 C362 457 320 466 278 466 C143 466 35 367 35 231 C35 90 143 -12 278 -12 C413 -12 521 80 521 275 C521 436 470 578 354 651 L428 689 L403 718 L312 672 C270 690 220 700 163 700 L159 666 C197 663 230 657 259 645 L167 598 L193 569 L193 569 Z " />
<glyph glyph-name="ntilde" unicode="&#xf1;" horiz-adv-x="556" d="M12 470 L12 436 C65 436 83 426 83 394 L83 76 C83 44 65 34 12 34 L12 0 L255 0 L255 34 C195 34 177 44 177 76 L177 273 C177 349 225 442 299 442 C336 442 379 421 379 334 L379 0 L544 0 L544 34 C491 34 473 44 473 76 L473 299 C473 445 395 482 324 482 C255 482 207 444 171 382 L169 382 L169 476 L12 470 L12 470 Z M414 662 C408 635 386 612 358 612 C338 612 318 624 297 635 C271 649 243 658 222 658 C161 658 127 615 113 558 L142 558 C149 582 167 602 198 602 C238 602 281 556 333 556 C400 556 431 601 443 662 L414 662 L414 662 Z " />
<glyph glyph-name="ograve" unicode="&#xf2;" horiz-adv-x="556" d="M278 22 C197 22 143 71 143 235 C143 399 197 448 278 448 C359 448 413 399 413 235 C413 71 359 22 278 22 L278 22 Z M278 482 C143 482 35 380 35 235 C35 90 143 -12 278 -12 C413 -12 521 90 521 235 C521 380 413 482 278 482 L278 482 Z M353 530 L206 679 C194 692 182 702 163 702 C139 702 129 688 129 669 C129 655 141 639 159 628 L313 530 L353 530 L353 530 Z " />
<glyph glyph-name="oacute" unicode="&#xf3;" horiz-adv-x="556" d="M278 22 C197 22 143 71 143 235 C143 399 197 448 278 448 C359 448 413 399 413 235 C413 71 359 22 278 22 L278 22 Z M278 482 C143 482 35 380 35 235 C35 90 143 -12 278 -12 C413 -12 521 90 521 235 C521 380 413 482 278 482 L278 482 Z M243 538 L397 636 C415 647 427 663 427 677 C427 696 417 710 393 710 C374 710 362 700 350 687 L203 538 L243 538 L243 538 Z " />
<glyph glyph-name="ocircumflex" unicode="&#xf4;" horiz-adv-x="556" d="M278 22 C197 22 143 71 143 235 C143 399 197 448 278 448 C359 448 413 399 413 235 C413 71 359 22 278 22 L278 22 Z M278 482 C143 482 35 380 35 235 C35 90 143 -12 278 -12 C413 -12 521 90 521 235 C521 380 413 482 278 482 L278 482 Z M278 641 L398 538 L433 538 L309 706 L247 706 L123 538 L155 538 L278 641 L278 641 Z " />
<glyph glyph-name="otilde" unicode="&#xf5;" horiz-adv-x="556" d="M278 22 C197 22 143 71 143 235 C143 399 197 448 278 448 C359 448 413 399 413 235 C413 71 359 22 278 22 L278 22 Z M278 482 C143 482 35 380 35 235 C35 90 143 -12 278 -12 C413 -12 521 90 521 235 C521 380 413 482 278 482 L278 482 Z M414 662 C408 635 386 612 358 612 C338 612 318 624 297 635 C271 649 243 658 222 658 C161 658 127 615 113 558 L142 558 C149 582 167 602 198 602 C238 602 281 556 333 556 C400 556 431 601 443 662 L414 662 L414 662 Z " />
<glyph glyph-name="odieresis" unicode="&#xf6;" horiz-adv-x="556" d="M278 22 C197 22 143 71 143 235 C143 399 197 448 278 448 C359 448 413 399 413 235 C413 71 359 22 278 22 L278 22 Z M278 482 C143 482 35 380 35 235 C35 90 143 -12 278 -12 C413 -12 521 90 521 235 C521 380 413 482 278 482 L278 482 Z M178 646 C149 646 129 624 129 597 C129 570 149 548 178 548 C207 548 227 570 227 597 C227 624 207 646 178 646 L178 646 Z M378 646 C349 646 329 624 329 597 C329 570 349 548 378 548 C407 548 427 570 427 597 C427 624 407 646 378 646 L378 646 Z " />
<glyph glyph-name="divide" unicode="&#xf7;" horiz-adv-x="600" d="M535 207 L535 263 L65 263 L65 207 L535 207 L535 207 Z M298 482 C269 482 242 456 242 426 C242 396 269 370 298 370 C327 370 354 396 354 426 C354 456 327 482 298 482 L298 482 Z M298 100 C269 100 242 74 242 44 C242 14 269 -12 298 -12 C327 -12 354 14 354 44 C354 74 327 100 298 100 L298 100 Z " />
<glyph glyph-name="oslash" unicode="&#xf8;" horiz-adv-x="556" d="M387 383 C404 350 413 302 413 235 C413 71 359 22 278 22 C243 22 213 31 191 55 L387 383 L387 383 Z M167 91 C151 123 143 170 143 235 C143 399 197 448 278 448 C312 448 341 439 363 417 L167 91 L167 91 Z M440 546 L387 457 C354 473 317 482 278 482 C143 482 35 380 35 235 C35 149 73 78 133 34 L59 -90 L104 -90 L166 14 C200 -3 238 -12 278 -12 C413 -12 521 90 521 235 C521 323 482 395 420 438 L485 546 L440 546 L440 546 Z " />
<glyph glyph-name="ugrave" unicode="&#xf9;" horiz-adv-x="556" d="M543 0 L543 34 C491 34 473 44 473 76 L473 470 L301 470 L301 436 C361 436 379 426 379 394 L379 170 C370 104 334 28 252 28 C199 28 177 68 177 124 L177 470 L12 470 L12 436 C65 436 83 426 83 394 L83 168 C83 50 142 -12 232 -12 C301 -12 349 26 385 88 L387 88 L387 -6 L543 0 L543 0 Z M347 530 L200 679 C188 692 176 702 157 702 C133 702 123 688 123 669 C123 655 135 639 153 628 L307 530 L347 530 L347 530 Z " />
<glyph glyph-name="uacute" unicode="&#xfa;" horiz-adv-x="556" d="M543 0 L543 34 C491 34 473 44 473 76 L473 470 L301 470 L301 436 C361 436 379 426 379 394 L379 170 C370 104 334 28 252 28 C199 28 177 68 177 124 L177 470 L12 470 L12 436 C65 436 83 426 83 394 L83 168 C83 50 142 -12 232 -12 C301 -12 349 26 385 88 L387 88 L387 -6 L543 0 L543 0 Z M237 538 L391 636 C409 647 421 663 421 677 C421 696 411 710 387 710 C368 710 356 700 344 687 L197 538 L237 538 L237 538 Z " />
<glyph glyph-name="ucircumflex" unicode="&#xfb;" horiz-adv-x="556" d="M543 0 L543 34 C491 34 473 44 473 76 L473 470 L301 470 L301 436 C361 436 379 426 379 394 L379 170 C370 104 334 28 252 28 C199 28 177 68 177 124 L177 470 L12 470 L12 436 C65 436 83 426 83 394 L83 168 C83 50 142 -12 232 -12 C301 -12 349 26 385 88 L387 88 L387 -6 L543 0 L543 0 Z M272 641 L392 538 L427 538 L303 706 L241 706 L117 538 L149 538 L272 641 L272 641 Z " />
<glyph glyph-name="udieresis" unicode="&#xfc;" horiz-adv-x="556" d="M543 0 L543 34 C491 34 473 44 473 76 L473 470 L301 470 L301 436 C361 436 379 426 379 394 L379 170 C370 104 334 28 252 28 C199 28 177 68 177 124 L177 470 L12 470 L12 436 C65 436 83 426 83 394 L83 168 C83 50 142 -12 232 -12 C301 -12 349 26 385 88 L387 88 L387 -6 L543 0 L543 0 Z M172 646 C143 646 123 624 123 597 C123 570 143 548 172 548 C201 548 221 570 221 597 C221 624 201 646 172 646 L172 646 Z M372 646 C343 646 323 624 323 597 C323 570 343 548 372 548 C401 548 421 570 421 597 C421 624 401 646 372 646 L372 646 Z " />
<glyph glyph-name="yacute" unicode="&#xfd;" horiz-adv-x="500" d="M-1 436 C45 436 52 430 67 394 L232 -5 C215 -60 176 -148 114 -148 C101 -148 91 -143 82 -136 C105 -128 121 -108 121 -81 C121 -58 105 -31 65 -31 C25 -31 5 -60 5 -94 C5 -149 45 -182 105 -182 C210 -182 248 -93 326 113 L432 393 C446 431 458 436 501 436 L501 470 L317 470 L317 436 C374 436 386 429 386 403 C386 375 369 350 278 112 L276 112 C178 355 161 395 161 415 C161 433 169 436 227 436 L227 470 L-1 470 L-1 436 L-1 436 Z M215 538 L369 636 C387 647 399 663 399 677 C399 696 389 710 365 710 C346 710 334 700 322 687 L175 538 L215 538 L215 538 Z " />
<glyph glyph-name="thorn" unicode="&#xfe;" horiz-adv-x="556" d="M168 688 L-2 682 L-2 648 C56 648 74 638 74 606 L74 -106 C74 -138 56 -148 -6 -148 L-6 -182 L258 -182 L258 -148 C186 -148 168 -138 168 -106 L168 69 L170 69 C200 12 233 -12 304 -12 C424 -12 514 108 514 240 C514 365 420 482 303 482 C226 482 187 434 170 384 L168 384 L168 688 L168 688 Z M290 448 C376 448 412 358 412 232 C412 84 376 22 282 22 C249 22 168 53 168 205 L168 232 C168 358 214 448 290 448 L290 448 Z " />
<glyph glyph-name="ydieresis" unicode="&#xff;" horiz-adv-x="500" d="M-1 436 C45 436 52 430 67 394 L232 -5 C215 -60 176 -148 114 -148 C101 -148 91 -143 82 -136 C105 -128 121 -108 121 -81 C121 -58 105 -31 65 -31 C25 -31 5 -60 5 -94 C5 -149 45 -182 105 -182 C210 -182 248 -93 326 113 L432 393 C446 431 458 436 501 436 L501 470 L317 470 L317 436 C374 436 386 429 386 403 C386 375 369 350 278 112 L276 112 C178 355 161 395 161 415 C161 433 169 436 227 436 L227 470 L-1 470 L-1 436 L-1 436 Z M162 646 C133 646 113 624 113 597 C113 570 133 548 162 548 C191 548 211 570 211 597 C211 624 191 646 162 646 L162 646 Z M362 646 C333 646 313 624 313 597 C313 570 333 548 362 548 C391 548 411 570 411 597 C411 624 391 646 362 646 L362 646 Z " />
<glyph glyph-name="dotlessi" unicode="&#x131;" horiz-adv-x="278" d="M262 0 L262 34 C204 34 186 44 186 76 L186 476 L16 470 L16 436 C74 436 92 426 92 394 L92 76 C92 44 74 34 16 34 L16 0 L262 0 L262 0 Z " />
<glyph glyph-name="Lslash" unicode="&#x141;" horiz-adv-x="556" d="M547 257 L516 257 C472 64 368 34 282 34 C231 34 209 52 209 100 L209 341 L380 410 L380 456 L209 387 L209 588 C209 636 226 654 305 654 L305 688 L19 688 L19 654 C90 654 107 636 107 588 L107 346 L4 304 L4 258 L107 300 L107 100 C107 52 90 34 17 34 L17 0 L541 0 L547 257 L547 257 Z " />
<glyph glyph-name="lslash" unicode="&#x142;" horiz-adv-x="278" d="M91 324 L91 76 C91 44 73 34 15 34 L15 0 L261 0 L261 34 C203 34 185 44 185 76 L185 370 L282 417 L282 455 L185 408 L185 688 L15 682 L15 648 C73 648 91 638 91 606 L91 362 L-4 316 L-4 278 L91 324 L91 324 Z " />
<glyph glyph-name="OE" unicode="&#x152;" horiz-adv-x="1000" d="M514 136 C514 64 454 34 368 34 C236 34 140 110 140 344 C140 578 236 654 368 654 C454 654 514 624 514 552 L514 136 L514 136 Z M964 261 L933 261 C902 121 837 34 684 34 C631 34 616 48 616 100 L616 344 C704 342 743 332 765 223 L793 223 L793 502 L765 502 C743 390 704 380 616 378 L616 612 C616 642 641 654 712 654 C840 654 897 563 922 452 L953 452 L947 688 L368 688 C158 688 24 540 24 344 C24 148 158 0 368 0 L958 0 L964 261 L964 261 Z " />
<glyph glyph-name="oe" unicode="&#x153;" horiz-adv-x="889" d="M143 235 C143 399 197 448 274 448 C351 448 405 399 405 235 C405 71 351 22 274 22 C197 22 143 71 143 235 L143 235 Z M35 235 C35 90 143 -12 278 -12 C348 -12 414 34 454 94 C509 23 573 -12 652 -12 C734 -12 789 32 834 98 L810 114 C772 63 727 22 664 22 C572 22 513 100 513 238 L839 238 C839 400 744 482 634 482 C566 482 506 450 452 382 C412 442 340 482 278 482 C143 482 35 380 35 235 L35 235 Z M513 272 C513 344 550 448 632 448 C723 448 737 344 737 272 L513 272 L513 272 Z " />
<glyph glyph-name="Scaron" unicode="&#x160;" horiz-adv-x="556" d="M45 -6 L73 -6 C85 19 94 40 120 40 C158 40 194 -12 288 -12 C421 -12 528 72 528 211 C528 457 128 354 128 545 C128 625 185 666 261 666 C377 666 434 555 460 456 L488 456 L488 688 L454 688 C451 678 438 642 423 642 C399 642 351 700 260 700 C153 700 46 630 46 510 C46 244 446 377 446 152 C446 71 372 22 297 22 C172 22 92 142 73 254 L45 254 L45 -6 L45 -6 Z M278 800 L158 903 L123 903 L247 735 L309 735 L433 903 L401 903 L278 800 L278 800 Z " />
<glyph glyph-name="scaron" unicode="&#x161;" horiz-adv-x="444" d="M55 -6 C59 6 64 26 82 26 C113 26 140 -12 231 -12 C329 -12 417 43 417 150 C417 335 110 258 110 380 C110 430 157 448 201 448 C287 448 323 403 353 328 L387 328 L387 474 L353 474 C351 464 346 448 330 448 C313 448 285 482 200 482 C109 482 30 431 30 343 C30 164 337 244 337 105 C337 51 277 22 230 22 C141 22 76 81 55 166 L27 166 L27 -6 L55 -6 L55 -6 Z M222 603 L102 706 L67 706 L191 538 L253 538 L377 706 L345 706 L222 603 L222 603 Z " />
<glyph glyph-name="Ydieresis" unicode="&#x178;" horiz-adv-x="611" d="M4 654 C56 654 75 646 102 593 L255 292 L255 100 C255 52 238 34 151 34 L151 0 L465 0 L465 34 C374 34 357 52 357 100 L357 292 L498 559 C535 629 548 654 620 654 L620 688 L391 688 L391 654 C454 654 476 642 476 621 C476 570 357 384 338 342 C321 387 204 586 204 620 C204 644 228 654 288 654 L288 688 L4 688 L4 654 L4 654 Z M218 843 C189 843 169 821 169 794 C169 767 189 745 218 745 C247 745 267 767 267 794 C267 821 247 843 218 843 L218 843 Z M418 843 C389 843 369 821 369 794 C369 767 389 745 418 745 C447 745 467 767 467 794 C467 821 447 843 418 843 L418 843 Z " />
<glyph glyph-name="Zcaron" unicode="&#x17d;" horiz-adv-x="556" d="M525 257 L494 257 C450 64 346 34 219 34 L146 34 L514 650 L514 688 L45 688 L39 458 L70 458 C79 615 190 654 331 654 L402 654 L22 18 L22 0 L519 0 L525 257 L525 257 Z M278 800 L158 903 L123 903 L247 735 L309 735 L433 903 L401 903 L278 800 L278 800 Z " />
<glyph glyph-name="zcaron" unicode="&#x17e;" horiz-adv-x="444" d="M63 322 C82 412 132 436 183 436 L295 436 L21 38 L21 0 L413 0 L413 180 L385 180 C345 60 269 34 211 34 L129 34 L412 442 L412 470 L35 470 L35 322 L63 322 L63 322 Z M222 603 L102 706 L67 706 L191 538 L253 538 L377 706 L345 706 L222 603 L222 603 Z " />
<glyph glyph-name="florin" unicode="&#x192;" horiz-adv-x="500" d="M284 416 C298 592 320 666 374 666 C385 666 394 664 402 657 C383 643 374 628 374 606 C374 579 395 561 423 561 C460 561 482 580 482 624 C482 672 436 700 374 700 C245 700 198 575 193 416 L84 416 L84 382 L191 382 L168 68 C153 -133 119 -168 76 -168 C70 -168 61 -165 56 -161 C72 -150 81 -136 81 -116 C81 -86 61 -61 31 -61 C-8 -61 -27 -91 -27 -126 C-27 -174 21 -202 63 -202 C177 -202 235 -114 248 27 L281 382 L403 382 L403 416 L284 416 L284 416 Z " />
<glyph glyph-name="circumflex" unicode="&#x2c6;" horiz-adv-x="278" d="M139 641 L259 538 L294 538 L170 706 L108 706 L-16 538 L16 538 L139 641 L139 641 Z " />
<glyph glyph-name="caron" unicode="&#x2c7;" horiz-adv-x="278" d="M139 603 L19 706 L-16 706 L108 538 L170 538 L294 706 L262 706 L139 603 L139 603 Z " />
<glyph glyph-name="uni02C9" unicode="&#x2c9;" horiz-adv-x="278" d="M294 572 L294 628 L-16 628 L-16 572 L294 572 L294 572 Z " />
<glyph glyph-name="breve" unicode="&#x2d8;" horiz-adv-x="278" d="M251 696 C235 636 201 600 135 600 C74 600 34 636 27 696 L-1 696 C-1 604 44 538 129 538 C229 538 272 604 279 696 L251 696 L251 696 Z " />
<glyph glyph-name="dotaccent" unicode="&#x2d9;" horiz-adv-x="278" d="M139 646 C110 646 90 624 90 597 C90 570 110 548 139 548 C168 548 188 570 188 597 C188 624 168 646 139 646 L139 646 Z " />
<glyph glyph-name="ring" unicode="&#x2da;" horiz-adv-x="278" d="M139 730 C82 730 40 684 40 630 C40 576 82 530 139 530 C196 530 238 576 238 630 C238 684 196 730 139 730 L139 730 Z M139 696 C176 696 204 666 204 630 C204 594 176 564 139 564 C102 564 74 594 74 630 C74 666 102 696 139 696 L139 696 Z " />
<glyph glyph-name="ogonek" unicode="&#x2db;" horiz-adv-x="278" d="M258 19 C158 0 30 -44 30 -126 C30 -168 74 -210 123 -210 C181 -210 229 -183 275 -154 L262 -124 C234 -142 194 -166 160 -166 C136 -166 104 -152 104 -122 C104 -60 162 -22 258 10 L258 19 L258 19 Z " />
<glyph glyph-name="tilde" unicode="&#x2dc;" horiz-adv-x="278" d="M275 662 C269 635 247 612 219 612 C199 612 179 624 158 635 C132 649 104 658 83 658 C22 658 -12 615 -26 558 L3 558 C10 582 28 602 59 602 C99 602 142 556 194 556 C261 556 292 601 304 662 L275 662 L275 662 Z " />
<glyph glyph-name="hungarumlaut" unicode="&#x2dd;" horiz-adv-x="278" d="M74 538 L194 625 C220 644 238 658 238 677 C238 696 228 710 204 710 C176 710 156 683 126 646 L37 538 L74 538 L74 538 Z M215 538 L369 636 C387 647 399 663 399 677 C399 696 389 710 365 710 C346 710 334 700 322 687 L175 538 L215 538 L215 538 Z " />
<glyph glyph-name="uni03A9" unicode="&#x3a9;" horiz-adv-x="654" d="M623 143 L597 144 C578 80 566 72 529 72 L432 72 C499 143 591 247 591 391 C591 582 480 696 328 696 C179 696 62 576 62 385 C62 226 159 127 217 72 L126 72 C90 72 74 82 55 144 L30 143 L51 0 L266 0 L274 18 C226 118 164 245 164 378 C164 594 236 665 326 665 C410 665 488 590 489 382 C490 246 417 110 378 18 L385 0 L601 0 L623 143 Z " />
<glyph glyph-name="uni03BC" unicode="&#x3bc;" horiz-adv-x="556" d="M543 0 L543 34 C491 34 473 44 473 76 L473 470 L301 470 L301 436 C361 436 379 426 379 394 L379 170 C370 104 334 28 252 28 C199 28 177 68 177 124 L177 470 L12 470 L12 436 C65 436 83 426 83 401 L83 -106 C83 -138 65 -148 12 -148 L12 -182 L177 -182 L177 -4 C194 -9 213 -12 232 -12 C301 -12 349 26 385 88 L387 88 L387 -6 L543 0 L543 0 Z " />
<glyph glyph-name="pi" unicode="&#x3c0;" horiz-adv-x="523" d="M473 465 C459 439 449 434 418 434 C329 434 244 436 175 437 C77 438 40 381 14 349 L28 326 C64 352 86 368 147 367 C147 265 129 99 59 5 L65 -12 C81 -11 107 -3 125 5 C139 24 186 120 186 349 L186 366 C224 366 272 364 321 364 C316 284 311 209 311 117 C311 14 349 -12 397 -12 C433 -12 472 12 496 55 L483 76 C467 58 456 48 438 48 C409 48 399 78 398 138 C398 206 398 299 403 362 C428 362 450 362 465 366 C476 384 491 419 498 457 L473 465 Z " />
<glyph glyph-name="endash" unicode="&#x2013;" horiz-adv-x="500" d="M500 207 L500 263 L0 263 L0 207 L500 207 L500 207 Z " />
<glyph glyph-name="emdash" unicode="&#x2014;" horiz-adv-x="1000" d="M1000 207 L1000 263 L0 263 L0 207 L1000 207 L1000 207 Z " />
<glyph glyph-name="quoteleft" unicode="&#x2018;" horiz-adv-x="222" d="M140 716 C91 669 46 601 46 529 C46 478 84 446 118 446 C150 446 176 472 176 504 C176 546 145 566 102 566 C102 612 114 640 164 692 L140 716 L140 716 Z " />
<glyph glyph-name="quoteright" unicode="&#x2019;" horiz-adv-x="222" d="M82 446 C131 493 176 561 176 633 C176 684 138 716 104 716 C72 716 46 690 46 658 C46 616 77 596 120 596 C120 550 108 522 58 470 L82 446 L82 446 Z " />
<glyph glyph-name="quotesinglbase" unicode="&#x201a;" horiz-adv-x="222" d="M82 -154 C131 -107 176 -39 176 33 C176 84 138 116 104 116 C72 116 46 90 46 58 C46 16 77 -4 120 -4 C120 -50 108 -78 58 -130 L82 -154 L82 -154 Z " />
<glyph glyph-name="quotedblleft" unicode="&#x201c;" horiz-adv-x="389" d="M307 716 C258 669 213 601 213 529 C213 478 251 446 285 446 C317 446 343 472 343 504 C343 546 312 566 269 566 C269 612 281 640 331 692 L307 716 L307 716 Z M140 716 C91 669 46 601 46 529 C46 478 84 446 118 446 C150 446 176 472 176 504 C176 546 145 566 102 566 C102 612 114 640 164 692 L140 716 L140 716 Z " />
<glyph glyph-name="quotedblright" unicode="&#x201d;" horiz-adv-x="389" d="M82 446 C131 493 176 561 176 633 C176 684 138 716 104 716 C72 716 46 690 46 658 C46 616 77 596 120 596 C120 550 108 522 58 470 L82 446 L82 446 Z M249 446 C298 493 343 561 343 633 C343 684 305 716 271 716 C239 716 213 690 213 658 C213 616 244 596 287 596 C287 550 275 522 225 470 L249 446 L249 446 Z " />
<glyph glyph-name="quotedblbase" unicode="&#x201e;" horiz-adv-x="389" d="M82 -154 C131 -107 176 -39 176 33 C176 84 138 116 104 116 C72 116 46 90 46 58 C46 16 77 -4 120 -4 C120 -50 108 -78 58 -130 L82 -154 L82 -154 Z M249 -154 C298 -107 343 -39 343 33 C343 84 305 116 271 116 C239 116 213 90 213 58 C213 16 244 -4 287 -4 C287 -50 275 -78 225 -130 L249 -154 L249 -154 Z " />
<glyph glyph-name="dagger" unicode="&#x2020;" horiz-adv-x="500" d="M260 -128 C260 56 266 198 301 277 C264 312 260 382 260 460 C346 460 364 428 398 428 C429 428 443 443 443 472 C443 501 429 516 398 516 C364 516 346 480 260 480 C260 567 295 627 295 651 C295 683 282 700 249 700 C216 700 203 683 203 651 C203 627 240 567 240 480 C154 480 136 516 102 516 C71 516 57 501 57 472 C57 443 71 428 102 428 C136 428 154 460 240 460 C240 382 236 312 199 277 C234 198 240 56 240 -128 L260 -128 L260 -128 Z " />
<glyph glyph-name="daggerdbl" unicode="&#x2021;" horiz-adv-x="500" d="M249 700 C216 700 203 683 203 651 C203 627 240 567 240 480 C154 480 136 516 102 516 C71 516 57 501 57 472 C57 443 71 428 102 428 C136 428 154 460 240 460 C240 382 232 317 199 286 C232 255 240 190 240 112 C154 112 136 144 102 144 C71 144 57 129 57 100 C57 71 71 56 102 56 C136 56 154 92 240 92 C240 5 203 -55 203 -79 C203 -111 216 -128 249 -128 C282 -128 295 -111 295 -79 C295 -55 260 5 260 92 C346 92 364 56 398 56 C429 56 443 71 443 100 C443 129 429 144 398 144 C364 144 346 112 260 112 C260 190 268 255 301 286 C268 317 260 382 260 460 C346 460 364 428 398 428 C429 428 443 443 443 472 C443 501 429 516 398 516 C364 516 346 480 260 480 C260 567 295 627 295 651 C295 683 282 700 249 700 L249 700 Z " />
<glyph glyph-name="bullet" unicode="&#x2022;" horiz-adv-x="500" d="M250 516 C152 516 78 439 78 344 C79 248 153 172 250 172 C347 172 422 249 422 344 C422 439 347 516 250 516 L250 516 Z " />
<glyph glyph-name="ellipsis" unicode="&#x2026;" horiz-adv-x="1000" d="M167 110 C135 110 109 88 109 52 C109 16 135 -6 167 -6 C199 -6 225 16 225 52 C225 88 199 110 167 110 L167 110 Z M500 110 C468 110 442 88 442 52 C442 16 468 -6 500 -6 C532 -6 558 16 558 52 C558 88 532 110 500 110 L500 110 Z M833 110 C801 110 775 88 775 52 C775 16 801 -6 833 -6 C865 -6 891 16 891 52 C891 88 865 110 833 110 L833 110 Z " />
<glyph glyph-name="perthousand" unicode="&#x2030;" horiz-adv-x="944" d="M158 676 C87 676 35 592 35 479 C35 366 87 282 158 282 C229 282 281 366 281 479 C281 592 229 676 158 676 L158 676 Z M158 648 C201 648 223 598 223 479 C223 360 201 310 158 310 C115 310 93 360 93 479 C93 598 115 648 158 648 L158 648 Z M497 394 C426 394 374 310 374 197 C374 84 426 0 497 0 C568 0 620 84 620 197 C620 310 568 394 497 394 L497 394 Z M497 366 C540 366 562 316 562 197 C562 78 540 28 497 28 C454 28 432 78 432 197 C432 316 454 366 497 366 L497 366 Z M786 394 C715 394 663 310 663 197 C663 84 715 0 786 0 C857 0 909 84 909 197 C909 310 857 394 786 394 L786 394 Z M786 366 C829 366 851 316 851 197 C851 78 829 28 786 28 C743 28 721 78 721 197 C721 316 743 366 786 366 L786 366 Z M157 -12 L537 688 L498 688 L118 -12 L157 -12 L157 -12 Z " />
<glyph glyph-name="guilsinglleft" unicode="&#x2039;" horiz-adv-x="278" d="M34 225 C75 186 123 152 150 122 C193 75 224 49 231 49 C241 49 244 57 244 61 C244 78 135 214 121 235 C135 252 244 371 244 403 C244 410 241 415 236 415 C226 415 222 409 214 400 C181 363 97 285 34 235 L34 225 L34 225 Z " />
<glyph glyph-name="guilsinglright" unicode="&#x203a;" horiz-adv-x="278" d="M244 245 C203 284 155 318 128 348 C85 395 54 421 47 421 C37 421 34 413 34 409 C34 392 143 256 157 235 C143 218 34 99 34 67 C34 60 37 55 42 55 C52 55 56 61 64 70 C97 107 181 185 244 235 L244 245 L244 245 Z " />
<glyph glyph-name="fraction" unicode="&#x2044;" horiz-adv-x="167" d="M-115 -12 L334 700 L282 700 L-167 -12 L-115 -12 L-115 -12 Z " />
<glyph glyph-name="Euro" unicode="&#x20ac;" horiz-adv-x="500" d="M344 308 L169 308 C169 320 168 332 168 344 C168 358 169 374 169 392 L361 392 L373 426 L170 426 C176 533 202 666 308 666 C377 666 426 597 456 486 L482 486 L481 682 L463 682 C459 664 446 644 433 644 C420 644 366 700 300 700 C178 700 96 568 72 426 L13 426 L1 392 L67 392 C65 376 65 360 65 344 C65 332 65 320 66 308 L13 308 L1 274 L69 274 C90 109 184 -12 296 -12 C419 -12 473 69 497 220 L468 220 C446 112 413 22 306 22 C224 22 181 137 171 274 L332 274 L344 308 Z " />
<glyph glyph-name="afii61289" unicode="&#x2113;" horiz-adv-x="387" d="M351 117 C326 79 295 49 252 49 C199 49 173 86 173 216 L173 311 C249 393 307 482 307 600 C307 674 277 731 220 731 C189 731 159 713 135 680 C96 631 86 579 86 422 L86 292 L21 238 L33 214 L86 254 L86 172 C86 88 96 58 117 28 C136 4 168 -10 215 -10 C284 -10 336 30 371 100 L351 117 Z M173 478 C173 648 183 700 216 700 C243 700 256 661 256 599 C256 513 222 420 173 359 L173 478 Z " />
<glyph glyph-name="trademark" unicode="&#x2122;" horiz-adv-x="990" d="M240 680 L292 680 C333 680 351 650 360 612 L380 612 L380 700 L40 700 L40 612 L60 612 C68 650 85 680 127 680 L178 680 L178 358 C178 328 167 316 128 316 L128 296 L290 296 L290 316 C251 316 240 328 240 358 L240 680 L240 680 Z M672 294 L681 294 L836 607 L839 607 L839 358 C839 328 828 316 789 316 L789 296 L951 296 L951 316 C912 316 901 328 901 358 L901 638 C901 668 912 680 959 680 L959 700 L860 700 L696 385 L539 700 L424 700 L424 680 C452 680 481 660 494 631 L494 380 C494 336 484 320 440 316 L440 296 L570 296 L570 316 C527 320 518 336 518 380 L518 604 L520 604 L672 294 L672 294 Z " />
<glyph glyph-name="Omega" unicode="&#x2126;" horiz-adv-x="654" d="M623 143 L597 144 C578 80 566 72 529 72 L432 72 C499 143 591 247 591 391 C591 582 480 696 328 696 C179 696 62 576 62 385 C62 226 159 127 217 72 L126 72 C90 72 74 82 55 144 L30 143 L51 0 L266 0 L274 18 C226 118 164 245 164 378 C164 594 236 665 326 665 C410 665 488 590 489 382 C490 246 417 110 378 18 L385 0 L601 0 L623 143 Z " />
<glyph glyph-name="estimated" unicode="&#x212e;" horiz-adv-x="857" d="M823 334 L823 343 C823 540 646 698 428 698 C210 698 33 540 33 343 C33 147 210 -11 428 -11 C555 -11 669 43 740 126 L683 126 C621 55 531 9 429 9 C334 9 249 50 187 114 C181 120 178 127 178 136 L178 329 C178 332 180 334 184 334 L823 334 Z M678 359 C678 357 677 352 674 352 L184 352 C180 352 178 357 178 359 L178 549 C178 559 181 567 188 573 C250 636 335 677 429 677 C522 677 606 637 668 576 C675 570 678 562 678 553 L678 359 Z " />
<glyph glyph-name="partialdiff" unicode="&#x2202;" horiz-adv-x="490" d="M244 424 C184 424 128 392 94 350 C65 312 40 253 40 185 C40 61 107 -10 208 -10 C297 -10 361 52 399 141 C430 212 443 312 443 387 C443 448 433 543 396 619 C354 707 291 761 203 761 C150 761 106 742 75 721 C67 699 89 655 104 657 C136 684 180 711 229 711 C288 711 330 666 348 623 C368 572 373 518 371 469 C370 430 366 393 362 361 C332 405 285 424 245 424 L244 424 Z M264 384 C309 384 344 344 354 318 C344 238 334 185 309 126 C288 76 254 20 208 20 C156 20 127 71 127 134 C127 203 141 278 169 327 C197 370 228 384 263 384 L264 384 Z " />
<glyph glyph-name="Delta" unicode="&#x2206;" horiz-adv-x="584" d="M551 0 L551 26 L307 696 L268 685 L31 26 L31 0 L551 0 Z M441 49 L85 49 L261 552 L441 49 Z " />
<glyph glyph-name="product" unicode="&#x220f;" horiz-adv-x="635" d="M609 687 L24 687 L24 660 C103 654 109 647 109 585 L109 23 C109 -46 102 -53 27 -60 L27 -86 L266 -86 L266 -60 C198 -53 199 -43 199 23 L199 624 C199 650 203 653 231 653 L401 653 C430 653 436 649 436 621 L436 23 C436 -49 431 -54 362 -60 L362 -86 L608 -86 L608 -60 C532 -53 525 -45 525 24 L525 585 C525 646 530 654 609 660 L609 687 Z " />
<glyph glyph-name="summation" unicode="&#x2211;" horiz-adv-x="509" d="M488 95 L460 102 C423 -4 410 -10 330 -10 L103 -10 L311 335 L141 654 L303 654 C372 654 388 646 401 620 C414 597 423 568 431 525 L459 530 C454 593 449 669 448 687 L30 687 L30 662 L233 270 L26 -66 L26 -90 L447 -90 L488 95 Z " />
<glyph glyph-name="minus" unicode="&#x2212;" horiz-adv-x="600" d="M535 207 L535 263 L65 263 L65 207 L535 207 L535 207 Z " />
<glyph glyph-name="uni2215" unicode="&#x2215;" horiz-adv-x="167" d="M-115 -12 L334 700 L282 700 L-167 -12 L-115 -12 L-115 -12 Z " />
<glyph glyph-name="uni2219" unicode="&#x2219;" horiz-adv-x="250" d="M54 235 C54 203 80 177 112 177 C144 177 170 203 170 235 C170 267 144 293 112 293 C80 293 54 267 54 235 L54 235 Z " />
<glyph glyph-name="radical" unicode="&#x221a;" horiz-adv-x="515" d="M499 874 L460 883 L332 22 L330 22 L182 441 L30 373 L41 340 L122 377 L321 -164 L342 -154 L499 874 Z " />
<glyph glyph-name="infinity" unicode="&#x221e;" horiz-adv-x="711" d="M666 285 C666 373 607 432 527 433 C447 433 401 375 359 328 C311 388 261 433 192 433 C107 433 44 369 44 280 C44 192 110 130 186 130 C260 130 309 178 356 236 C419 158 466 130 522 130 C596 130 666 188 666 284 L666 285 Z M193 185 C140 185 102 227 102 279 C101 334 133 378 189 378 C250 378 286 328 325 277 C289 235 248 185 194 185 L193 185 Z M521 378 C573 378 608 339 608 280 C608 236 578 185 524 185 C476 185 445 214 388 283 C418 316 462 378 520 378 L521 378 Z " />
<glyph glyph-name="integral" unicode="&#x222b;" horiz-adv-x="360" d="M152 7 C156 -88 144 -148 116 -148 C96 -148 96 -97 68 -97 C41 -97 14 -117 16 -146 C16 -172 41 -194 76 -194 C165 -194 246 -99 229 253 L212 625 C206 755 228 784 248 784 C270 784 265 736 298 736 C321 736 344 751 344 781 C344 813 310 829 284 829 C205 829 116 760 132 412 L152 7 Z " />
<glyph glyph-name="approxequal" unicode="&#x2248;" horiz-adv-x="492" d="M418 426 C394 384 372 357 337 357 C310 357 291 371 259 390 C237 403 206 425 163 425 C108 425 61 387 35 332 L73 301 C95 336 117 368 157 368 C186 368 209 354 236 337 C275 312 301 300 336 300 C390 300 431 342 456 394 L418 426 Z M418 262 C393 220 373 193 337 193 C309 193 287 209 259 226 C237 239 208 261 163 261 C109 261 61 223 35 168 L73 136 C94 171 116 205 157 205 C185 205 208 190 236 173 C275 149 300 136 336 136 C390 136 431 178 456 230 L418 262 Z " />
<glyph glyph-name="notequal" unicode="&#x2260;" horiz-adv-x="492" d="M358 484 L312 503 L267 401 L44 401 L44 342 L245 342 L191 214 L44 214 L44 156 L168 156 L131 71 L177 53 L222 156 L448 156 L448 214 L244 214 L299 342 L448 342 L448 401 L321 401 L358 484 Z " />
<glyph glyph-name="lessequal" unicode="&#x2264;" horiz-adv-x="492" d="M445 102 L445 172 L108 341 L108 343 L445 512 L445 581 L49 373 L49 311 L445 102 Z M449 5 L449 65 L45 65 L45 5 L449 5 Z " />
<glyph glyph-name="greaterequal" unicode="&#x2265;" horiz-adv-x="492" d="M51 581 L51 512 L388 343 L388 341 L50 172 L50 102 L447 310 L447 373 L51 581 Z M448 5 L448 65 L46 65 L46 5 L448 5 Z " />
<glyph glyph-name="lozenge" unicode="&#x25ca;" horiz-adv-x="518" d="M472 332 L295 733 L225 733 L46 332 L223 -65 L294 -65 L472 332 Z M407 332 L261 -3 L259 -3 L111 333 L258 668 L261 668 L407 332 Z " />
<glyph glyph-name="fi" unicode="&#xfb01;" horiz-adv-x="556" d="M186 470 L186 523 C186 594 241 654 316 654 C348 654 384 641 395 626 C373 616 364 600 364 582 C364 556 384 535 419 535 C447 535 472 552 472 595 C472 652 406 688 311 688 C190 688 92 615 92 509 L92 470 L3 470 L3 436 L92 436 L92 76 C92 44 74 34 2 34 L2 0 L270 0 L270 34 C204 34 186 44 186 76 L186 436 L312 436 C362 436 380 426 380 394 L380 76 C380 44 362 34 312 34 L312 0 L554 0 L554 34 C492 34 474 44 474 76 L474 470 L186 470 L186 470 Z " />
<glyph glyph-name="fl" unicode="&#xfb02;" horiz-adv-x="556" d="M373 678 C349 682 325 688 301 688 C187 688 92 614 92 487 L92 470 L4 470 L4 436 L92 436 L92 76 C92 44 74 34 2 34 L2 0 L270 0 L270 34 C204 34 186 44 186 76 L186 436 L380 436 L380 76 C380 44 362 34 314 34 L314 0 L554 0 L554 34 C492 34 474 44 474 76 L474 688 L373 678 L373 678 Z M186 470 L186 493 C186 600 240 654 313 654 C336 654 357 642 371 624 C361 615 351 596 351 583 C351 564 362 550 380 544 L380 470 L186 470 L186 470 Z " />
</font>
</svg>
