<?xml version="1.0" encoding="UTF-8"?>
<svg xmlns="http://www.w3.org/2000/svg" xmlns:xlink="http://www.w3.org/1999/xlink" version="1.2" >
<font id="ITC Century Std Book Italic">
<font-face  font-family="ITC Century Std" units-per-em="1000" ascent="688" descent="-312" font-style="italic" font-weight="400" font-stretch="normal" slope="-16" cap-height="688" x-height="470" underline-position="-75" underline-thickness="50" />
<missing-glyph  horiz-adv-x="616" d="M116 0 L616 0 L616 700 L116 700 L116 0 Z M366 395 L196 650 L536 650 L366 395 Z M396 350 L566 605 L566 95 L396 350 Z M196 50 L366 305 L536 50 L196 50 Z M166 605 L336 350 L166 95 L166 605 Z " />
<glyph glyph-name="NULL" d="" />
<glyph glyph-name="CR" unicode="&#xd;" horiz-adv-x="250" d="" />
<glyph glyph-name="space" unicode="&#x20;" horiz-adv-x="278" d="" />
<glyph glyph-name="exclam" unicode="&#x21;" horiz-adv-x="333" d="M145 190 C238 490 303 532 303 618 C303 652 282 676 248 676 C210 676 182 636 176 588 C161 469 145 343 111 190 L145 190 L145 190 Z M34 50 C34 18 58 -6 92 -6 C124 -6 150 18 150 50 C150 82 124 106 92 106 C60 106 34 82 34 50 L34 50 Z " />
<glyph glyph-name="quotedbl" unicode="&#x22;" horiz-adv-x="333" d="M286 415 C288 390 294 384 302 384 C311 384 316 391 318 415 L337 641 C340 674 327 700 302 700 C278 700 264 679 268 632 L286 415 L286 415 Z M142 415 C144 390 150 384 158 384 C167 384 172 391 174 415 L193 641 C196 674 183 700 158 700 C134 700 120 679 124 632 L142 415 L142 415 Z " />
<glyph glyph-name="numbersign" unicode="&#x23;" horiz-adv-x="556" d="M507 270 L405 270 L426 418 L535 418 L535 468 L433 468 L465 688 L409 688 L378 468 L243 468 L275 688 L219 688 L188 468 L71 468 L71 418 L181 418 L160 270 L43 270 L43 220 L153 220 L121 0 L177 0 L208 220 L343 220 L311 0 L367 0 L398 220 L507 220 L507 270 L507 270 Z M371 418 L350 270 L215 270 L236 418 L371 418 L371 418 Z " />
<glyph glyph-name="dollar" unicode="&#x24;" horiz-adv-x="556" d="M304 309 C347 280 382 250 382 193 C382 138 336 72 240 60 L304 309 L304 309 Z M297 432 C261 457 234 481 234 517 C234 590 286 628 350 635 L297 432 L297 432 Z M376 738 L358 665 C256 663 162 599 162 499 C162 406 216 365 271 330 L201 58 C143 60 97 95 97 117 C97 138 162 127 162 183 C162 210 144 234 109 234 C66 234 43 196 43 158 C43 99 95 35 194 28 L170 -66 L208 -66 L232 28 C367 36 454 128 454 229 C454 326 389 372 330 410 L388 635 C425 632 443 617 443 609 C443 600 411 593 411 557 C411 528 429 507 462 507 C496 507 513 530 513 564 C513 611 470 655 396 664 L414 738 L376 738 L376 738 Z " />
<glyph glyph-name="percent" unicode="&#x25;" horiz-adv-x="667" d="M129 316 C91 316 72 339 72 392 C72 478 136 662 230 662 C262 662 281 646 281 592 C281 518 228 316 129 316 L129 316 Z M122 290 C254 290 339 436 339 545 C339 633 296 688 227 688 C123 688 14 555 14 428 C14 339 59 290 122 290 L122 290 Z M480 26 C442 26 423 49 423 102 C423 188 487 372 581 372 C613 372 632 356 632 302 C632 228 579 26 480 26 L480 26 Z M473 0 C605 0 690 146 690 255 C690 343 647 398 578 398 C474 398 365 265 365 138 C365 49 410 0 473 0 L473 0 Z M109 -12 L155 -12 L601 700 L553 700 L109 -12 L109 -12 Z " />
<glyph glyph-name="ampersand" unicode="&#x26;" horiz-adv-x="778" d="M686 141 C668 111 637 46 588 46 C544 46 522 76 499 112 C549 171 568 217 585 258 C600 295 612 322 618 322 C628 322 637 293 669 293 C700 293 722 314 722 343 C722 376 698 399 661 399 C626 399 596 383 566 312 C537 243 521 193 483 143 C448 189 407 300 372 380 C560 450 608 502 608 575 C608 634 548 700 450 700 C340 700 244 610 244 482 C244 449 255 408 266 378 C204 344 36 312 36 169 C36 64 129 -12 234 -12 C301 -12 370 8 425 47 C459 13 482 -12 534 -12 C592 -12 668 28 713 127 L686 141 L686 141 Z M146 178 C146 274 196 311 276 346 C310 258 350 156 407 74 C373 45 324 30 280 30 C198 30 146 97 146 178 L146 178 Z M336 544 C336 617 390 670 442 670 C493 670 530 632 530 569 C530 503 470 446 360 412 C341 455 336 495 336 544 L336 544 Z " />
<glyph glyph-name="quotesingle" unicode="&#x27;" horiz-adv-x="222" d="M140 415 C142 390 148 384 156 384 C165 384 170 391 172 415 L191 641 C194 674 181 700 156 700 C132 700 118 679 122 632 L140 415 L140 415 Z " />
<glyph glyph-name="parenleft" unicode="&#x28;" horiz-adv-x="444" d="M287 -164 C180 -142 144 -76 144 68 C144 236 211 485 322 596 C388 662 468 674 515 674 L521 700 C474 700 433 700 372 673 C220 606 62 384 62 140 C62 -70 158 -176 281 -190 L287 -164 L287 -164 Z " />
<glyph glyph-name="parenright" unicode="&#x29;" horiz-adv-x="444" d="M129 674 C236 652 272 586 272 442 C272 274 205 25 94 -86 C28 -152 -52 -164 -99 -164 L-105 -190 C-58 -190 -17 -190 44 -163 C196 -96 354 126 354 370 C354 580 258 686 135 700 L129 674 L129 674 Z " />
<glyph glyph-name="asterisk" unicode="&#x2a;" horiz-adv-x="444" d="M316 700 C290 700 273 684 273 660 C273 646 280 624 280 591 C280 571 277 546 267 517 L258 514 C178 585 201 658 141 658 C121 658 104 638 104 617 C104 566 172 584 242 504 L242 493 C225 490 209 489 196 489 C161 489 129 504 104 504 C72 504 59 488 59 464 C59 442 74 429 96 429 C142 429 166 474 246 474 L252 469 C234 392 179 344 179 316 C179 300 195 280 221 280 C246 280 263 296 263 319 C263 333 256 355 256 387 C256 408 259 433 269 463 L278 466 C358 395 335 322 392 322 C408 322 432 334 432 363 C432 414 364 396 293 476 L293 487 C309 490 325 490 338 490 C383 490 406 476 432 476 C464 476 477 492 477 516 C477 538 462 551 440 551 C394 551 370 506 290 506 L284 511 C302 588 357 629 357 662 C357 680 348 700 316 700 L316 700 Z " />
<glyph glyph-name="plus" unicode="&#x2b;" horiz-adv-x="600" d="M252 262 L44 262 L44 208 L252 208 L252 0 L306 0 L306 208 L514 208 L514 262 L306 262 L306 470 L252 470 L252 262 L252 262 Z " />
<glyph glyph-name="comma" unicode="&#x2c;" horiz-adv-x="278" d="M42 -190 C131 -112 159 -50 159 21 C159 76 132 112 89 112 C48 112 24 87 24 48 C24 15 44 -10 94 -20 C99 -21 101 -24 101 -33 C101 -65 89 -105 19 -168 L42 -190 L42 -190 Z " />
<glyph glyph-name="hyphen" unicode="&#x2d;" horiz-adv-x="333" d="M27 204 L263 204 L281 266 L45 266 L27 204 L27 204 Z " />
<glyph glyph-name="period" unicode="&#x2e;" horiz-adv-x="278" d="M28 50 C28 18 54 -6 86 -6 C118 -6 144 18 144 50 C144 82 118 106 86 106 C54 106 28 82 28 50 L28 50 Z " />
<glyph glyph-name="slash" unicode="&#x2f;" horiz-adv-x="278" d="M-12 -12 L380 700 L326 700 L-66 -12 L-12 -12 L-12 -12 Z " />
<glyph glyph-name="zero" unicode="0" horiz-adv-x="556" d="M35 260 C35 86 113 -12 210 -12 C404 -12 550 264 550 427 C550 617 463 700 365 700 C191 700 35 426 35 260 L35 260 Z M121 143 C121 257 213 670 372 670 C436 670 464 623 464 543 C464 494 399 18 210 18 C160 18 121 55 121 143 L121 143 Z " />
<glyph glyph-name="one" unicode="1" horiz-adv-x="556" d="M392 0 L398 30 C309 30 288 43 288 81 C288 99 433 634 447 688 L414 688 C346 644 287 624 213 620 L206 584 L323 584 L192 96 C181 55 155 35 56 30 L49 0 L392 0 L392 0 Z " />
<glyph glyph-name="two" unicode="2" horiz-adv-x="556" d="M305 563 C288 476 242 424 185 424 C154 424 134 445 134 485 C134 569 221 670 330 670 C400 670 442 631 442 560 C442 464 388 384 288 322 C6 146 -21 81 -21 39 C-21 10 -8 0 18 0 C46 0 55 14 55 32 C55 52 49 67 49 79 C49 91 59 98 82 98 C112 98 137 70 168 43 C199 16 236 -12 289 -12 C382 -12 452 96 492 210 L465 215 C432 134 390 80 336 80 C302 80 271 95 241 110 C211 125 181 140 146 140 C109 140 80 126 55 110 L53 112 C202 280 544 336 544 528 C544 630 476 700 336 700 C211 700 98 598 98 485 C98 434 131 394 188 394 C266 394 323 472 334 554 L305 563 L305 563 Z " />
<glyph glyph-name="three" unicode="3" horiz-adv-x="556" d="M218 345 C218 332 224 326 249 326 C282 326 315 338 328 338 C348 338 384 304 384 234 C384 119 300 18 184 18 C93 18 43 76 43 106 C43 118 46 121 51 121 C63 121 66 115 93 115 C116 115 143 138 143 172 C143 198 122 221 82 221 C36 221 7 174 7 123 C7 60 78 -12 186 -12 C369 -12 482 86 482 200 C482 320 384 337 360 346 L360 348 C399 363 546 391 546 545 C546 626 474 700 350 700 C233 700 126 620 126 502 C126 466 156 417 212 417 C276 417 329 477 357 553 L333 565 C293 480 258 447 216 447 C182 447 162 472 162 502 C162 604 252 670 330 670 C405 670 444 628 444 546 C444 435 372 358 320 358 C300 358 286 362 254 362 C227 362 218 356 218 345 L218 345 Z " />
<glyph glyph-name="four" unicode="4" horiz-adv-x="556" d="M269 688 C238 519 191 382 116 248 C101 248 85 251 66 251 C10 251 -8 232 -8 209 C-8 191 8 179 25 179 C63 179 97 206 126 221 C190 192 225 128 301 128 L255 -56 L341 -56 L391 130 C451 144 506 182 536 236 L520 253 C487 218 456 186 405 186 L490 518 L403 518 L314 188 C295 188 204 226 141 244 C218 342 354 556 369 688 L269 688 L269 688 Z " />
<glyph glyph-name="five" unicode="5" horiz-adv-x="556" d="M128 322 C166 383 226 424 288 424 C349 424 386 380 386 298 C386 126 297 18 183 18 C111 18 61 65 61 99 C61 104 63 107 67 107 C71 107 77 105 88 105 C126 105 145 125 145 159 C145 192 123 211 87 211 C51 211 19 182 19 129 C19 56 70 -12 193 -12 C379 -12 488 117 488 253 C488 364 405 454 300 454 C238 454 184 429 151 387 L149 389 L215 580 C243 577 269 574 306 574 C396 574 490 608 556 672 L546 700 C502 686 427 676 381 676 C354 676 326 677 298 679 C270 681 243 684 215 688 L96 342 L128 322 L128 322 Z " />
<glyph glyph-name="six" unicode="6" horiz-adv-x="556" d="M506 260 C506 364 445 470 328 470 C283 470 213 434 192 393 L190 395 C237 593 331 670 416 670 C458 670 478 651 478 646 C478 640 477 638 472 638 C445 638 418 622 418 589 C418 557 440 536 478 536 C512 536 536 560 536 603 C536 637 502 700 410 700 C254 700 64 487 64 260 C64 100 128 -12 252 -12 C387 -12 506 107 506 260 L506 260 Z M408 326 C408 156 354 18 250 18 C179 18 142 69 142 159 C142 282 228 440 316 440 C378 440 408 392 408 326 L408 326 Z " />
<glyph glyph-name="seven" unicode="7" horiz-adv-x="556" d="M128 445 C165 531 224 614 267 614 C311 614 346 558 418 558 C472 558 508 570 539 585 L541 583 C473 515 404 445 340 381 C261 302 164 200 164 72 C164 10 187 -12 235 -12 C258 -12 278 -1 278 20 C278 35 274 47 274 58 C274 162 357 337 421 410 C522 526 568 579 602 619 C614 633 616 642 616 659 C616 680 608 692 588 692 C568 692 558 681 558 664 C558 646 563 638 563 627 C563 614 541 600 506 600 C460 600 412 700 336 700 C264 700 200 625 168 565 L166 567 L206 678 L172 678 L95 445 L128 445 L128 445 Z " />
<glyph glyph-name="eight" unicode="8" horiz-adv-x="556" d="M141 521 C141 459 191 397 240 370 C103 320 10 267 10 159 C10 67 92 -12 233 -12 C393 -12 503 85 503 194 C503 276 447 335 385 380 C454 413 559 455 559 556 C559 636 484 700 367 700 C221 700 141 626 141 521 L141 521 Z M411 168 C411 81 335 18 234 18 C143 18 82 76 82 164 C82 266 182 315 261 348 C307 322 411 258 411 168 L411 168 Z M491 560 C491 477 435 433 352 400 C299 427 219 487 219 555 C219 627 276 670 365 670 C447 670 491 621 491 560 L491 560 Z " />
<glyph glyph-name="nine" unicode="9" horiz-adv-x="556" d="M79 436 C79 316 151 228 253 228 C332 228 373 265 407 310 L409 310 C364 130 280 18 162 18 C112 18 88 31 88 43 C88 68 140 50 140 108 C140 137 121 163 83 163 C42 163 20 139 20 96 C20 56 48 -12 161 -12 C332 -12 534 184 534 442 C534 584 472 700 336 700 C207 700 79 584 79 436 L79 436 Z M171 375 C171 512 240 670 336 670 C402 670 442 615 442 535 C442 362 350 258 270 258 C212 258 171 294 171 375 L171 375 Z " />
<glyph glyph-name="colon" unicode="&#x3a;" horiz-adv-x="278" d="M23 50 C23 18 48 -6 81 -6 C112 -6 139 18 139 50 C139 82 112 106 81 106 C48 106 23 82 23 50 L23 50 Z M113 394 C113 362 138 338 171 338 C202 338 229 362 229 394 C229 426 202 450 171 450 C138 450 113 426 113 394 L113 394 Z " />
<glyph glyph-name="semicolon" unicode="&#x3b;" horiz-adv-x="278" d="M32 -190 C121 -112 149 -50 149 21 C149 76 122 112 79 112 C38 112 14 87 14 48 C14 15 34 -10 84 -20 C89 -21 91 -24 91 -33 C91 -65 79 -105 9 -168 L32 -190 L32 -190 Z M113 394 C113 362 138 338 171 338 C202 338 229 362 229 394 C229 426 202 450 171 450 C138 450 113 426 113 394 L113 394 Z " />
<glyph glyph-name="less" unicode="&#x3c;" horiz-adv-x="600" d="M55 208 L545 -16 L545 43 L125 235 L545 427 L545 486 L55 263 L55 208 L55 208 Z " />
<glyph glyph-name="equal" unicode="&#x3d;" horiz-adv-x="600" d="M514 353 L44 353 L44 299 L514 299 L514 353 L514 353 Z M514 171 L44 171 L44 117 L514 117 L514 171 L514 171 Z " />
<glyph glyph-name="greater" unicode="&#x3e;" horiz-adv-x="600" d="M545 262 L55 486 L55 427 L475 235 L55 43 L55 -16 L545 207 L545 262 L545 262 Z " />
<glyph glyph-name="question" unicode="&#x3f;" horiz-adv-x="500" d="M289 288 C271 242 252 220 223 220 C197 220 178 234 178 260 C178 295 197 326 362 388 C444 419 483 470 483 537 C483 633 399 688 300 688 C201 688 131 623 131 538 C131 509 137 486 154 462 L177 475 C168 492 163 510 163 530 C163 606 218 658 287 658 C342 658 391 614 391 558 C391 495 377 473 324 438 C197 354 146 332 146 270 C146 223 177 190 221 190 C266 190 295 217 318 274 L289 288 L289 288 Z M94 50 C94 18 118 -6 152 -6 C184 -6 210 18 210 50 C210 82 184 106 152 106 C120 106 94 82 94 50 L94 50 Z " />
<glyph glyph-name="at" unicode="&#x40;" horiz-adv-x="800" d="M514 422 C514 300 440 194 381 194 C348 194 323 226 323 274 C323 393 407 484 462 484 C500 484 514 460 514 422 L514 422 Z M530 472 C517 497 500 526 454 526 C330 526 253 367 253 271 C253 198 298 150 345 150 C412 150 443 189 471 223 L473 223 C480 192 506 150 566 150 C689 150 757 291 757 396 C757 570 609 700 418 700 C215 700 42 551 42 328 C42 190 160 -12 429 -12 C510 -12 579 17 646 46 L633 72 C574 45 519 20 428 20 C240 20 122 169 122 317 C122 547 253 674 418 674 C614 674 725 514 725 395 C725 303 674 182 582 182 C551 182 539 200 539 220 C539 231 541 242 543 251 L611 512 L541 512 L530 472 L530 472 Z " />
<glyph glyph-name="A" unicode="A" horiz-adv-x="667" d="M193 0 L199 30 C123 33 109 48 109 66 C109 94 175 198 193 234 L426 234 C438 144 448 106 448 89 C448 53 433 39 343 30 L337 0 L625 0 L631 30 C565 35 554 45 545 103 L457 688 L414 688 L112 165 C74 100 26 42 -63 30 L-70 0 L193 0 L193 0 Z M382 563 L384 563 L421 270 L218 270 L382 563 L382 563 Z " />
<glyph glyph-name="B" unicode="B" horiz-adv-x="667" d="M139 688 L132 658 C196 658 214 646 214 616 C214 602 204 572 194 532 L88 125 C71 61 50 38 -42 30 L-49 0 L296 0 C506 0 614 80 614 194 C614 300 542 358 413 364 L413 366 C604 374 669 451 669 553 C669 656 610 688 428 688 L139 688 L139 688 Z M360 350 C466 350 504 310 504 235 C504 170 478 77 390 48 C350 35 299 30 250 30 C194 30 173 40 173 69 C173 85 184 110 190 134 L245 350 L360 350 L360 350 Z M255 386 L305 575 C321 635 348 658 444 658 C525 658 559 632 559 571 C559 445 487 386 393 386 L255 386 L255 386 Z " />
<glyph glyph-name="C" unicode="C" horiz-adv-x="667" d="M572 254 C532 130 454 24 324 24 C234 24 156 64 157 204 C158 444 274 664 462 664 C602 664 620 566 621 442 L646 444 L706 684 L677 684 C659 659 647 632 637 632 C625 632 586 700 466 700 C276 700 47 516 47 286 C47 115 162 -12 316 -12 C466 -12 569 109 607 251 L572 254 L572 254 Z " />
<glyph glyph-name="D" unicode="D" horiz-adv-x="722" d="M100 153 C78 69 61 37 -33 30 L-40 0 L287 0 C608 0 699 278 699 417 C699 517 650 688 471 688 L144 688 L136 658 C200 658 218 646 218 616 C218 602 202 548 190 502 L100 153 L100 153 Z M589 486 C589 370 541 180 474 108 C422 52 362 30 278 30 C206 30 186 46 186 82 C186 98 205 168 217 212 L313 573 C330 637 360 658 434 658 C537 658 589 620 589 486 L589 486 Z " />
<glyph glyph-name="E" unicode="E" horiz-adv-x="667" d="M589 252 L556 252 C497 104 414 30 245 30 C194 30 178 46 178 72 C178 93 191 131 199 160 L248 348 C359 346 375 342 375 224 L403 224 L472 498 L443 498 C402 402 380 380 258 384 L308 578 C321 630 344 658 432 658 C557 658 602 606 602 496 C602 480 600 460 600 444 L630 444 L689 688 L141 688 L133 658 C199 656 212 645 212 610 C212 593 199 550 188 509 L85 110 C70 51 46 31 -34 30 L-41 0 L517 0 L589 252 L589 252 Z " />
<glyph glyph-name="F" unicode="F" horiz-adv-x="611" d="M141 688 L133 658 C199 656 212 645 212 610 C212 593 199 550 188 509 L85 110 C70 51 46 31 -34 30 L-41 0 L273 0 L281 30 C194 30 178 48 178 74 C178 87 198 154 213 211 L248 348 C367 346 383 342 383 224 L411 224 L480 498 L451 498 C410 402 390 382 258 384 L303 558 C324 639 344 658 446 658 C559 658 604 606 604 496 C604 480 602 460 602 444 L632 444 L691 688 L141 688 L141 688 Z " />
<glyph glyph-name="G" unicode="G" horiz-adv-x="722" d="M398 327 L391 297 C461 297 481 274 481 240 C481 114 404 24 302 24 C228 24 154 66 154 190 C154 440 274 664 452 664 C564 664 596 590 598 438 L630 438 L682 688 L652 688 C649 683 626 636 618 636 C610 636 558 700 450 700 C260 700 44 508 44 286 C44 138 149 -12 300 -12 C405 -12 460 50 472 50 C480 50 494 5 496 0 L527 0 L581 216 C596 277 618 297 700 297 L706 327 L398 327 L398 327 Z " />
<glyph glyph-name="H" unicode="H" horiz-adv-x="778" d="M265 0 L271 30 C202 30 184 47 184 77 C184 99 197 138 212 196 L253 350 L551 350 L492 115 C474 42 454 30 363 30 L356 0 L668 0 L675 30 C606 28 584 38 584 67 C584 86 599 129 608 164 L703 533 C731 640 752 658 837 658 L843 688 L539 688 L532 658 C606 656 619 636 619 618 C619 602 609 565 598 523 L561 386 L263 386 L313 562 C337 646 349 658 441 658 L447 688 L142 688 L137 658 C211 659 222 650 222 623 C222 609 210 566 202 535 L86 113 C67 44 51 34 -34 30 L-41 0 L265 0 L265 0 Z " />
<glyph glyph-name="I" unicode="I" horiz-adv-x="389" d="M274 0 L282 30 C212 26 192 42 192 72 C192 102 219 184 235 247 L323 589 C335 636 354 658 438 658 L442 688 L153 688 L145 658 C212 658 225 638 225 618 C225 596 212 546 198 494 L97 105 C80 41 56 26 -14 30 L-24 0 L274 0 L274 0 Z " />
<glyph glyph-name="J" unicode="J" horiz-adv-x="500" d="M276 688 L269 658 C346 658 360 646 360 616 C360 600 353 570 342 525 L246 135 C232 77 202 18 118 18 C44 18 17 72 17 105 C17 115 22 124 28 124 C41 124 51 113 69 113 C103 113 124 133 124 171 C124 209 99 229 61 229 C2 229 -25 177 -25 135 C-25 53 26 -12 137 -12 C253 -12 322 50 350 161 L459 594 C472 645 502 656 563 658 L567 688 L276 688 L276 688 Z " />
<glyph glyph-name="K" unicode="K" horiz-adv-x="722" d="M288 0 L294 30 C232 30 198 38 198 63 C198 79 207 101 211 116 L248 262 L358 351 L457 111 C463 97 466 86 466 74 C466 42 429 30 368 30 L361 0 L679 0 L684 30 C632 30 603 35 583 83 L446 419 L624 563 C677 606 731 647 804 658 L808 688 L549 688 L542 658 C605 658 612 655 612 629 C612 613 599 596 579 580 L268 328 L266 330 L326 567 C347 649 374 659 454 658 L461 688 L153 688 L146 658 C216 660 232 642 232 617 C232 604 224 573 218 551 L99 100 C88 58 55 30 -28 30 L-35 0 L288 0 L288 0 Z " />
<glyph glyph-name="L" unicode="L" horiz-adv-x="611" d="M516 0 L588 252 L557 255 C498 104 415 30 247 30 C199 30 183 48 183 79 C183 97 191 121 201 160 L310 572 C329 646 347 658 433 658 L438 688 L137 688 L130 658 C207 658 216 646 216 616 C216 598 208 561 201 536 L80 84 C70 47 52 34 -37 30 L-44 0 L516 0 L516 0 Z " />
<glyph glyph-name="M" unicode="M" horiz-adv-x="833" d="M200 0 L206 29 C138 29 117 46 117 78 C117 102 131 140 141 180 L261 644 L263 644 L294 0 L331 0 L700 652 L702 650 L552 80 C543 46 526 30 442 30 L435 0 L726 0 L734 28 C674 26 655 40 655 74 C655 100 664 123 682 192 L778 551 C797 622 817 658 897 658 L903 688 L672 688 L382 168 L380 168 L358 688 L132 688 L127 658 C170 662 213 652 213 622 C213 596 199 561 187 515 L78 110 C65 60 38 34 -41 30 L-48 0 L200 0 L200 0 Z " />
<glyph glyph-name="N" unicode="N" horiz-adv-x="722" d="M198 0 L204 30 C139 30 116 49 116 84 C116 110 128 147 137 183 L235 562 L237 562 L488 0 L525 0 L675 564 C692 629 724 658 789 658 L794 688 L563 688 L556 658 C624 654 639 626 639 606 C639 582 633 558 613 481 L528 156 L526 156 L289 688 L127 688 L120 658 C195 655 209 632 209 612 C209 590 194 544 181 497 L73 102 C61 57 23 36 -43 30 L-50 0 L198 0 L198 0 Z " />
<glyph glyph-name="O" unicode="O" horiz-adv-x="722" d="M695 400 C695 566 586 700 444 700 C252 700 52 500 52 302 C52 104 156 -12 296 -12 C496 -12 695 184 695 400 L695 400 Z M597 476 C597 336 518 24 306 24 C224 24 150 66 150 192 C150 336 218 664 440 664 C542 664 597 594 597 476 L597 476 Z " />
<glyph glyph-name="P" unicode="P" horiz-adv-x="611" d="M260 0 L266 30 C190 30 172 58 172 76 C172 98 184 139 192 169 L231 315 L306 315 C554 315 643 394 643 521 C643 619 590 688 404 688 L130 688 L123 658 C188 658 201 640 201 614 C201 602 193 574 183 536 L70 108 C54 49 38 38 -45 30 L-52 0 L260 0 L260 0 Z M241 351 L302 584 C318 645 354 658 420 658 C498 658 533 610 533 564 C533 396 460 351 340 351 L241 351 L241 351 Z " />
<glyph glyph-name="Q" unicode="Q" horiz-adv-x="722" d="M213 112 C213 165 238 186 276 186 C311 186 336 162 336 111 C336 82 332 48 330 27 C323 26 312 24 303 24 C255 24 213 60 213 112 L213 112 Z M695 400 C695 566 586 700 444 700 C252 700 52 500 52 302 C52 115 155 -12 296 -12 C307 -12 317 -11 330 -10 C334 -97 364 -146 427 -146 C506 -146 563 -92 597 16 L575 27 C556 -12 529 -68 485 -68 C447 -68 429 -36 422 14 C571 72 695 230 695 400 L695 400 Z M597 476 C597 362 545 135 414 54 C402 161 347 216 279 216 C218 216 181 173 181 119 C181 100 189 74 199 58 L199 56 C170 84 150 126 150 192 C150 336 218 664 440 664 C542 664 597 594 597 476 L597 476 Z " />
<glyph glyph-name="R" unicode="R" horiz-adv-x="667" d="M617 151 C607 125 580 50 547 50 C524 50 510 63 510 104 C510 267 471 313 389 344 L389 346 L424 346 C561 346 657 422 657 523 C657 613 600 688 445 688 L130 688 L123 658 C197 658 209 649 209 620 C209 603 203 573 195 542 L91 140 C72 66 44 32 -44 30 L-52 0 L265 0 L273 30 C194 30 179 46 179 79 C179 103 191 132 200 167 L243 332 L314 332 C380 332 406 308 409 264 C412 222 392 147 392 86 C392 32 428 -12 491 -12 C579 -12 619 72 646 143 L617 151 L617 151 Z M315 600 C325 637 361 652 438 652 C506 652 547 618 547 544 C547 432 490 372 368 372 L255 372 L315 600 L315 600 Z " />
<glyph glyph-name="S" unicode="S" horiz-adv-x="556" d="M9 0 C13 9 37 47 49 47 C70 47 106 -12 233 -12 C388 -12 504 86 504 214 C504 412 202 396 202 543 C202 625 270 670 343 670 C450 670 498 606 498 494 L498 438 L526 438 L586 688 L554 688 C549 679 531 636 516 636 C503 636 468 700 355 700 C202 700 104 604 104 483 C104 304 406 320 406 166 C406 60 312 18 230 18 C145 18 70 56 70 191 L70 251 L42 251 L-25 0 L9 0 L9 0 Z " />
<glyph glyph-name="T" unicode="T" horiz-adv-x="611" d="M386 0 L394 30 C316 28 302 46 302 70 C302 94 314 130 330 192 L451 658 C570 658 602 620 602 502 L602 449 L632 449 L691 688 L137 688 L67 451 L96 451 C154 580 216 657 353 658 L209 111 C193 50 162 32 79 30 L71 0 L386 0 L386 0 Z " />
<glyph glyph-name="U" unicode="U" horiz-adv-x="722" d="M118 688 L111 658 C186 658 196 649 196 621 C196 594 83 233 83 160 C83 72 167 -12 313 -12 C451 -12 546 50 581 181 L687 581 C704 646 738 656 794 658 L799 688 L567 688 L563 658 C628 658 646 649 646 605 C646 569 631 527 619 482 L543 190 C520 100 475 24 328 24 C247 24 181 63 181 131 C181 165 195 211 204 244 L296 593 C310 645 328 658 413 658 L419 688 L118 688 L118 688 Z " />
<glyph glyph-name="V" unicode="V" horiz-adv-x="611" d="M65 688 L60 658 C130 658 137 619 146 561 L231 0 L279 0 L574 533 C624 624 644 658 694 658 L700 688 L493 688 L488 658 C541 654 562 638 562 617 C562 602 547 573 513 510 L310 128 L305 129 L259 494 C252 546 246 580 246 606 C246 638 287 658 339 658 L343 688 L65 688 L65 688 Z " />
<glyph glyph-name="W" unicode="W" horiz-adv-x="833" d="M74 688 L67 658 C125 651 134 645 141 568 L190 0 L234 0 L457 485 L459 485 L502 0 L543 0 L791 529 C838 629 852 648 912 658 L919 688 L722 688 L715 658 C773 654 785 645 785 621 C785 605 767 577 750 541 L582 174 L580 174 L554 532 C552 558 550 580 550 599 C550 634 563 658 628 658 L634 688 L384 688 L377 658 C430 656 452 638 452 603 L452 557 L272 176 L270 176 L244 523 C242 548 239 572 239 609 C239 636 252 658 324 658 L329 688 L74 688 L74 688 Z " />
<glyph glyph-name="X" unicode="X" horiz-adv-x="667" d="M204 0 L211 30 C135 34 123 52 123 74 C123 102 181 154 219 198 L315 308 L349 218 C368 168 396 104 396 72 C396 46 372 32 308 30 L301 0 L586 0 L593 30 C539 31 516 45 498 93 L392 380 L576 576 C625 628 677 659 735 658 L741 688 L481 688 L475 658 C528 658 544 638 544 622 C544 600 528 577 497 544 L377 416 L345 500 C327 548 306 601 306 616 C306 646 317 658 391 658 L398 688 L111 688 L106 658 C167 658 190 643 205 602 L301 346 L66 91 C35 58 -20 40 -66 30 L-71 0 L204 0 L204 0 Z " />
<glyph glyph-name="Y" unicode="Y" horiz-adv-x="611" d="M374 0 L382 30 C307 32 293 43 293 78 C293 95 298 114 307 146 L346 288 L593 585 C632 632 661 653 705 658 L711 688 L484 688 L479 658 C538 658 552 648 552 622 C552 592 518 558 506 543 L333 336 L276 562 C272 579 265 595 265 612 C265 639 300 662 355 658 L361 688 L97 688 L93 658 C146 658 157 648 163 624 L244 290 L196 100 C183 49 162 36 82 30 L76 0 L374 0 L374 0 Z " />
<glyph glyph-name="Z" unicode="Z" horiz-adv-x="611" d="M482 0 L555 249 L526 249 C453 94 371 36 163 36 L130 36 L645 670 L650 688 L196 688 L128 444 L158 444 C227 596 283 652 454 652 L509 652 L-5 22 L-10 0 L482 0 L482 0 Z " />
<glyph glyph-name="bracketleft" unicode="&#x5b;" horiz-adv-x="444" d="M34 -178 L194 -178 L203 -142 C139 -142 128 -127 133 -99 C142 -45 286 471 317 593 C332 652 355 658 421 658 L429 688 L271 688 L34 -178 L34 -178 Z " />
<glyph glyph-name="backslash" unicode="&#x5c;" horiz-adv-x="278" d="M-69 700 L295 -12 L349 -12 L-15 700 L-69 700 L-69 700 Z " />
<glyph glyph-name="bracketright" unicode="&#x5d;" horiz-adv-x="444" d="M384 688 L224 688 L215 652 C279 652 290 637 285 609 C276 555 132 39 101 -83 C86 -142 63 -148 -3 -148 L-11 -178 L147 -178 L384 688 L384 688 Z " />
<glyph glyph-name="asciicircum" unicode="&#x5e;" horiz-adv-x="600" d="M153 323 L300 616 L447 323 L509 323 L326 688 L274 688 L91 323 L153 323 L153 323 Z " />
<glyph glyph-name="underscore" unicode="&#x5f;" horiz-adv-x="500" d="M500 -125 L500 -75 L0 -75 L0 -125 L500 -125 L500 -125 Z " />
<glyph glyph-name="grave" unicode="&#x60;" horiz-adv-x="352" d="M314 534 L216 661 C186 700 178 706 159 706 C140 706 124 692 124 668 C124 647 145 639 201 597 L284 534 L314 534 L314 534 Z " />
<glyph glyph-name="a" unicode="a" horiz-adv-x="556" d="M388 470 L365 367 L363 367 C356 442 331 482 271 482 C182 482 23 364 23 174 C23 66 84 -12 164 -12 C242 -12 284 62 307 105 L310 103 C306 23 346 -12 390 -12 C467 -12 505 96 543 179 L519 185 C482 92 440 18 409 18 C389 18 378 31 378 53 C378 62 383 85 391 119 L476 470 L388 470 L388 470 Z M339 322 C339 183 250 18 172 18 C132 18 109 41 109 108 C109 248 188 452 276 452 C315 452 339 403 339 322 L339 322 Z " />
<glyph glyph-name="b" unicode="b" horiz-adv-x="500" d="M79 646 C139 645 151 638 151 612 C151 547 36 251 36 152 C36 58 88 -12 186 -12 C326 -12 452 140 452 298 C452 410 385 482 319 482 C254 482 206 434 183 382 L181 384 L256 676 L85 672 L79 646 L79 646 Z M366 365 C366 298 316 18 188 18 C147 18 118 49 118 93 C118 204 199 452 312 452 C346 452 366 422 366 365 L366 365 Z " />
<glyph glyph-name="c" unicode="c" horiz-adv-x="444" d="M426 382 C426 449 385 482 304 482 C200 482 18 363 18 179 C18 55 100 -12 184 -12 C298 -12 358 74 399 169 L375 180 C345 110 288 18 202 18 C132 18 110 52 110 128 C110 232 180 452 314 452 C350 452 378 438 378 426 C378 404 317 416 317 360 C317 328 344 310 366 310 C396 310 426 334 426 382 L426 382 Z " />
<glyph glyph-name="d" unicode="d" horiz-adv-x="556" d="M272 456 C311 456 335 407 335 324 C335 183 246 18 172 18 C128 18 105 47 105 110 C105 247 184 456 272 456 L272 456 Z M353 646 C413 645 423 628 423 606 C423 587 412 552 394 486 L361 367 L359 367 C352 442 327 482 267 482 C178 482 19 371 19 173 C19 72 73 -12 154 -12 C235 -12 273 42 306 104 L308 104 C309 29 326 -12 378 -12 C474 -12 510 105 544 174 L520 184 C505 149 446 24 398 24 C379 24 370 34 370 58 C370 83 411 217 420 252 L532 676 L359 672 L353 646 L353 646 Z " />
<glyph glyph-name="e" unicode="e" horiz-adv-x="444" d="M24 176 C24 58 102 -12 185 -12 C291 -12 340 63 409 146 L388 167 C341 105 275 18 194 18 C138 18 106 53 106 117 C106 142 110 166 115 190 C364 228 430 315 430 388 C430 445 393 482 310 482 C198 482 24 363 24 176 L24 176 Z M362 394 C362 290 241 233 121 217 C151 368 244 452 305 452 C342 452 362 426 362 394 L362 394 Z " />
<glyph glyph-name="f" unicode="f" horiz-adv-x="333" d="M56 440 L140 440 C107 330 96 161 71 16 C50 -107 -6 -160 -68 -160 C-94 -160 -98 -157 -98 -151 C-98 -140 -73 -141 -73 -100 C-73 -79 -89 -59 -121 -59 C-154 -59 -175 -87 -175 -112 C-175 -159 -129 -190 -83 -190 C17 -190 130 -106 180 132 C201 233 219 354 233 440 L337 440 L345 470 L238 470 C260 598 326 658 375 658 C385 658 392 655 392 651 C392 643 378 641 378 616 C378 594 398 578 419 578 C447 578 470 597 470 627 C470 658 443 688 394 688 C325 688 203 617 149 470 L65 470 L56 440 L56 440 Z " />
<glyph glyph-name="g" unicode="g" horiz-adv-x="500" d="M116 110 C116 232 188 452 276 452 C320 452 344 415 344 320 C344 175 248 18 179 18 C139 18 116 47 116 110 L116 110 Z M403 470 L374 356 L372 356 C364 418 352 482 278 482 C182 482 30 362 30 173 C30 72 80 -12 170 -12 C228 -12 267 26 297 78 L299 76 C259 -108 192 -160 90 -160 C61 -160 49 -154 49 -148 C49 -136 68 -125 68 -100 C68 -71 52 -54 23 -54 C-6 -54 -30 -69 -30 -103 C-30 -170 41 -190 107 -190 C191 -190 291 -150 337 -62 C353 -31 365 2 374 38 L486 470 L403 470 L403 470 Z " />
<glyph glyph-name="h" unicode="h" horiz-adv-x="556" d="M90 0 C125 184 248 452 345 452 C374 452 380 426 380 402 C380 334 276 195 276 106 C276 34 312 -12 376 -12 C444 -12 496 60 550 174 L525 185 C465 64 427 24 394 24 C375 24 354 37 354 66 C354 96 380 143 406 196 C432 249 458 307 458 358 C458 432 418 482 352 482 C265 482 206 366 167 301 L165 301 L261 676 L78 672 L71 646 C143 644 157 638 157 614 C157 593 144 551 139 531 L1 0 L90 0 L90 0 Z " />
<glyph glyph-name="i" unicode="i" horiz-adv-x="389" d="M338 178 C284 68 240 18 206 18 C180 18 171 33 171 57 C171 120 266 263 266 366 C266 421 232 482 174 482 C99 482 52 400 14 309 L38 301 C78 388 114 452 159 452 C183 452 194 437 194 404 C194 354 170 308 145 259 C120 210 93 158 93 94 C93 40 130 -12 188 -12 C258 -12 316 70 362 168 L338 178 L338 178 Z M208 629 C208 595 233 570 266 570 C297 570 324 596 324 629 C324 661 297 688 266 688 C234 688 208 662 208 629 L208 629 Z " />
<glyph glyph-name="j" unicode="j" horiz-adv-x="333" d="M264 280 C274 314 288 371 288 396 C288 451 254 482 193 482 C104 482 45 381 11 312 L36 300 C56 338 117 452 171 452 C192 452 202 442 202 424 C202 396 195 362 183 321 L81 -38 C63 -102 27 -160 -47 -160 C-74 -160 -83 -153 -83 -148 C-83 -141 -48 -127 -48 -97 C-48 -73 -66 -58 -94 -58 C-125 -58 -146 -82 -146 -115 C-146 -145 -112 -190 -26 -190 C80 -190 150 -116 178 -19 L264 280 L264 280 Z M230 629 C230 595 255 570 288 570 C319 570 346 596 346 629 C346 661 319 688 288 688 C256 688 230 662 230 629 L230 629 Z " />
<glyph glyph-name="k" unicode="k" horiz-adv-x="500" d="M84 0 L147 244 C226 238 239 228 239 182 C239 132 231 97 231 62 C231 15 257 -12 306 -12 C370 -12 426 26 483 170 L461 184 C408 67 373 30 344 30 C302 30 350 174 302 222 C288 236 255 249 226 253 L226 257 C255 263 281 274 307 327 C320 353 357 446 384 446 C387 446 388 445 388 441 C388 436 382 425 382 416 C382 389 399 372 423 372 C454 372 474 392 474 424 C474 464 444 482 410 482 C361 482 333 461 291 361 C260 288 228 274 156 274 L261 676 L90 672 L84 646 C144 645 152 635 152 614 C152 596 147 578 142 560 L-3 0 L84 0 L84 0 Z " />
<glyph glyph-name="l" unicode="l" horiz-adv-x="278" d="M14 88 C14 28 52 -12 105 -12 C196 -12 236 107 269 163 L246 175 C228 141 172 18 122 18 C104 18 92 30 92 50 C92 77 105 125 110 142 L253 676 L80 672 L74 646 C128 645 144 638 144 614 C144 596 135 570 130 552 L29 176 C20 142 14 118 14 88 L14 88 Z " />
<glyph glyph-name="m" unicode="m" horiz-adv-x="889" d="M159 0 L192 119 C225 237 326 452 394 452 C414 452 428 438 428 410 C428 382 418 338 410 307 L328 0 L419 0 L450 123 C480 243 585 451 660 451 C686 451 700 430 700 396 C700 358 677 307 653 253 C629 199 606 143 607 94 C608 28 646 -12 701 -12 C762 -12 814 58 869 169 L841 177 C780 58 746 24 716 24 C696 24 679 39 679 59 C679 90 702 139 724 192 C746 246 768 302 768 346 C768 421 728 482 668 482 C600 482 537 405 488 289 L486 291 C488 308 490 327 490 352 C490 456 440 482 402 482 C346 482 280 406 232 292 L230 292 L230 294 C230 319 234 345 234 371 C234 434 206 482 152 482 C82 482 32 412 -4 306 L23 297 C65 410 107 452 144 452 C164 452 172 436 172 413 C172 392 166 349 149 289 L69 0 L159 0 L159 0 Z " />
<glyph glyph-name="n" unicode="n" horiz-adv-x="611" d="M148 0 L179 104 C210 209 304 452 404 452 C429 452 444 437 444 406 C444 372 420 322 396 268 C371 214 347 155 347 101 C347 32 380 -12 432 -12 C496 -12 548 60 598 167 L575 177 C518 60 480 24 452 24 C433 24 419 33 419 64 C419 89 442 142 466 199 C489 256 512 318 512 360 C512 424 486 482 408 482 C333 482 268 388 219 284 L217 286 C222 308 227 343 227 384 C227 438 198 482 146 482 C73 482 24 384 -6 310 L20 301 C52 388 100 452 135 452 C155 452 165 437 165 411 C165 379 133 272 99 140 L63 0 L148 0 L148 0 Z " />
<glyph glyph-name="o" unicode="o" horiz-adv-x="500" d="M284 482 C154 482 24 352 24 198 C24 84 82 -12 188 -12 C324 -12 448 138 448 272 C448 386 390 482 284 482 L284 482 Z M284 452 C341 452 370 416 370 352 C370 258 318 18 188 18 C135 18 102 58 102 126 C102 212 158 452 284 452 L284 452 Z " />
<glyph glyph-name="p" unicode="p" horiz-adv-x="556" d="M162 413 C162 382 150 341 139 299 L43 -70 C27 -132 12 -146 -73 -148 L-78 -178 L200 -178 L206 -148 C144 -146 122 -142 122 -118 C122 -98 131 -69 137 -41 L166 88 L168 88 C168 28 212 -12 260 -12 C378 -12 515 138 515 284 C515 404 450 482 373 482 C296 482 247 404 224 340 L222 342 C225 358 224 377 224 388 C224 438 192 482 150 482 C73 482 33 389 -5 304 L20 296 C56 379 92 446 135 446 C152 446 162 436 162 413 L162 413 Z M363 452 C409 452 429 423 429 351 C429 267 378 18 260 18 C219 18 192 45 192 124 C192 250 287 452 363 452 L363 452 Z " />
<glyph glyph-name="q" unicode="q" horiz-adv-x="500" d="M399 -178 L405 -148 C343 -148 330 -140 330 -114 C330 -94 341 -64 346 -42 L472 470 L442 470 L391 396 C370 449 337 482 277 482 C179 482 22 344 22 169 C22 72 80 -12 154 -12 C215 -12 250 29 292 91 L294 89 L248 -81 C237 -122 226 -146 132 -148 L127 -178 L399 -178 L399 -178 Z M108 96 C108 181 168 452 280 452 C325 452 349 421 349 362 C349 231 248 18 168 18 C130 18 108 46 108 96 L108 96 Z " />
<glyph glyph-name="r" unicode="r" horiz-adv-x="444" d="M150 0 L181 104 C212 209 306 452 397 452 C403 452 409 449 409 443 C409 436 371 427 371 393 C371 367 392 351 420 351 C455 351 477 380 477 414 C477 456 448 482 407 482 C337 482 272 388 223 284 L221 286 C226 308 231 343 231 384 C231 438 202 482 150 482 C77 482 28 384 -2 310 L24 301 C56 388 104 452 139 452 C159 452 169 437 169 411 C169 379 137 272 103 140 L67 0 L150 0 L150 0 Z " />
<glyph glyph-name="s" unicode="s" horiz-adv-x="444" d="M374 150 C374 284 156 274 156 372 C156 418 206 452 267 452 C296 452 338 443 338 433 C338 418 308 414 308 384 C308 358 330 339 356 339 C382 339 410 359 410 392 C410 434 366 482 264 482 C166 482 78 432 78 342 C78 203 296 204 296 111 C296 65 249 18 151 18 C107 18 66 42 66 53 C66 69 111 63 111 116 C111 146 91 166 58 166 C21 166 1 139 1 106 C1 48 61 -12 162 -12 C275 -12 374 56 374 150 L374 150 Z " />
<glyph glyph-name="t" unicode="t" horiz-adv-x="333" d="M276 612 L192 612 L151 470 L66 470 L58 440 L143 440 L72 180 C64 152 55 114 55 84 C55 27 86 -12 144 -12 C214 -12 272 70 318 168 L294 178 C240 68 196 18 162 18 C136 18 127 33 127 57 C127 86 143 130 168 223 L227 440 L318 440 L326 470 L235 470 L276 612 L276 612 Z " />
<glyph glyph-name="u" unicode="u" horiz-adv-x="611" d="M80 101 C80 32 120 -12 188 -12 C276 -12 335 103 360 153 L362 151 C358 130 353 104 353 66 C353 25 384 -12 428 -12 C506 -12 542 78 588 168 L565 181 C516 78 490 24 444 24 C422 24 415 38 415 58 C415 80 431 135 448 195 L528 470 L440 470 L382 268 C354 171 266 24 207 24 C178 24 162 40 162 66 C162 120 252 276 250 368 C249 428 222 482 152 482 C84 482 42 417 3 313 L28 301 C70 404 104 452 147 452 C171 452 182 437 182 406 C182 378 157 324 131 266 C106 208 80 146 80 101 L80 101 Z " />
<glyph glyph-name="v" unicode="v" horiz-adv-x="500" d="M27 304 C60 388 98 452 143 452 C167 452 178 439 178 412 C178 376 157 333 135 284 C114 235 92 181 92 120 C92 37 134 -12 222 -12 C380 -12 475 240 475 376 C475 438 445 482 405 482 C378 482 361 461 361 438 C361 381 427 387 427 298 C427 200 326 18 228 18 C194 18 170 36 170 80 C170 120 189 161 209 216 C230 272 250 329 250 366 C250 444 216 482 158 482 C72 482 32 388 2 311 L27 304 L27 304 Z " />
<glyph glyph-name="w" unicode="w" horiz-adv-x="778" d="M30 295 C61 391 107 452 148 452 C169 452 180 433 180 415 C180 375 159 330 138 280 C117 231 96 179 96 124 C96 48 136 -12 192 -12 C287 -12 334 96 372 164 L374 164 C369 70 386 -12 488 -12 C656 -12 737 264 737 376 C737 448 711 482 671 482 C638 482 621 464 621 434 C621 387 695 380 695 332 C695 219 610 18 501 18 C454 18 446 50 446 92 C446 154 476 252 484 281 L534 470 L442 470 L406 330 C374 205 283 18 218 18 C189 18 174 41 174 69 C174 110 194 155 213 204 C232 253 252 307 252 366 C252 424 220 482 151 482 C77 482 19 378 2 303 L30 295 L30 295 Z " />
<glyph glyph-name="x" unicode="x" horiz-adv-x="556" d="M60 297 C93 398 138 452 192 452 C230 452 250 421 250 373 C250 294 185 14 68 14 C39 14 27 24 27 35 C27 45 72 47 72 88 C72 112 54 131 28 131 C-2 131 -26 108 -26 70 C-26 22 8 -12 63 -12 C127 -12 184 32 223 146 L225 144 C225 134 224 126 224 117 C224 46 254 -12 324 -12 C375 -12 442 27 511 175 L486 185 C434 77 384 18 333 18 C306 18 292 36 292 75 C292 187 373 456 471 456 C481 456 486 452 486 447 C486 442 464 433 464 402 C464 378 484 361 514 361 C542 361 562 384 562 416 C562 453 532 482 487 482 C407 482 356 415 314 311 L312 311 C316 413 275 482 203 482 C109 482 57 380 34 302 L60 297 L60 297 Z " />
<glyph glyph-name="y" unicode="y" horiz-adv-x="556" d="M458 470 L405 275 C375 163 280 24 218 24 C190 24 168 36 168 67 C168 90 191 141 215 199 C238 257 262 320 262 366 C262 421 232 482 170 482 C89 482 53 402 11 310 L38 301 C87 404 114 452 159 452 C183 452 194 437 194 406 C194 372 169 318 143 267 C118 217 90 162 90 101 C90 32 132 -12 189 -12 C262 -12 325 52 348 97 L350 95 C306 -116 239 -160 130 -160 C99 -160 87 -155 87 -149 C87 -139 106 -123 106 -94 C106 -69 84 -50 58 -50 C29 -50 8 -73 8 -104 C8 -154 78 -190 148 -190 C316 -190 385 -97 419 23 L544 470 L458 470 L458 470 Z " />
<glyph glyph-name="z" unicode="z" horiz-adv-x="500" d="M75 305 C94 350 126 404 166 404 C186 404 206 391 231 378 C256 365 286 352 326 352 C374 352 394 359 417 372 L419 370 C376 312 158 236 43 124 C10 92 -8 67 -8 40 C-8 11 7 -4 27 -4 C46 -4 60 10 60 30 C60 53 50 55 50 69 C50 81 63 88 85 88 C112 88 133 63 159 38 C186 13 219 -12 269 -12 C351 -12 421 72 448 182 L419 185 C403 139 382 74 324 74 C297 74 271 87 243 99 C215 112 184 124 146 124 C118 124 75 114 47 99 L45 101 C86 130 136 162 253 221 C410 301 478 374 478 440 C478 463 468 482 446 482 C422 482 414 470 414 455 C414 438 424 428 424 414 C424 403 410 382 386 382 C361 382 343 407 320 432 C297 457 270 482 227 482 C146 482 76 396 50 311 L75 305 L75 305 Z " />
<glyph glyph-name="braceleft" unicode="&#x7b;" horiz-adv-x="444" d="M179 350 C164 298 130 272 77 255 C112 242 130 222 130 194 C130 158 52 -73 52 -110 C52 -165 79 -190 168 -190 L173 -170 C147 -166 124 -148 124 -113 C124 -85 143 -26 161 34 C179 93 198 154 198 186 C198 229 174 246 143 254 L144 256 C210 274 237 299 263 388 L314 562 C335 633 364 669 424 680 L427 700 C337 700 277 680 240 556 L179 350 L179 350 Z " />
<glyph glyph-name="bar" unicode="&#x7c;" horiz-adv-x="222" d="M148 0 L148 676 L94 676 L94 0 L148 0 L148 0 Z " />
<glyph glyph-name="braceright" unicode="&#x7d;" horiz-adv-x="444" d="M238 160 C253 212 287 238 340 255 C305 268 287 288 287 316 C287 352 365 583 365 620 C365 675 338 700 249 700 L244 680 C270 676 293 660 293 623 C293 595 274 536 256 476 C238 417 219 356 219 324 C219 281 243 264 274 256 L273 254 C207 236 180 211 154 122 L103 -52 C82 -123 53 -159 -7 -170 L-10 -190 C80 -190 140 -170 177 -46 L238 160 L238 160 Z " />
<glyph glyph-name="asciitilde" unicode="&#x7e;" horiz-adv-x="600" d="M495 301 C472 266 447 229 406 229 C382 229 347 246 313 261 C272 279 233 297 194 297 C127 297 91 253 69 211 L105 169 C129 216 149 239 193 239 C225 239 271 225 312 202 C339 186 367 173 406 173 C468 173 501 217 531 259 L495 301 L495 301 Z " />
<glyph glyph-name="uni00A0" unicode="&#xa0;" horiz-adv-x="278" d="" />
<glyph glyph-name="exclamdown" unicode="&#xa1;" horiz-adv-x="333" d="M157 308 C64 8 -1 -34 -1 -120 C-1 -154 20 -178 54 -178 C92 -178 120 -138 126 -90 C141 29 157 155 191 308 L157 308 L157 308 Z M268 448 C268 480 244 504 210 504 C178 504 152 480 152 448 C152 416 178 392 210 392 C242 392 268 416 268 448 L268 448 Z " />
<glyph glyph-name="cent" unicode="&#xa2;" horiz-adv-x="556" d="M195 157 C166 169 146 205 146 249 C146 350 201 505 293 544 L195 157 L195 157 Z M190 -12 L223 118 C302 128 370 174 418 296 L394 307 C361 229 308 157 232 150 L333 553 C338 554 342 554 347 554 C373 554 396 545 396 532 C396 508 342 516 342 468 C342 443 361 423 391 423 C419 423 444 449 444 485 C444 553 390 578 340 578 L370 700 L332 700 L301 575 C179 552 68 434 68 300 C68 202 117 138 186 123 L152 -12 L190 -12 L190 -12 Z " />
<glyph glyph-name="sterling" unicode="&#xa3;" horiz-adv-x="556" d="M295 333 C328 287 355 246 355 194 C355 160 344 132 334 118 C267 152 210 185 135 185 C85 185 17 152 17 89 C17 43 52 -12 146 -12 C218 -12 266 10 316 43 C340 24 384 -6 454 -6 C550 -6 599 76 633 156 L610 175 C589 120 546 72 490 72 C436 72 396 86 369 102 C394 132 423 186 423 240 C423 274 415 304 404 334 L548 334 L557 364 L386 364 C344 418 289 486 289 545 C289 621 347 670 430 670 C487 670 511 650 511 636 C511 624 456 618 456 578 C456 546 478 527 510 527 C542 527 570 550 570 592 C570 640 522 700 421 700 C315 700 207 622 207 516 C207 456 238 410 273 365 L135 365 L128 333 L295 333 L295 333 Z M53 90 C53 126 81 149 126 149 C181 149 247 90 285 64 C250 35 193 18 148 18 C94 18 53 43 53 90 L53 90 Z " />
<glyph glyph-name="currency" unicode="&#xa4;" horiz-adv-x="556" d="M549 135 L496 191 C532 236 548 290 548 344 C548 400 532 456 495 498 L550 552 L508 594 L452 538 C410 574 356 592 300 592 C244 592 190 574 148 538 L92 594 L50 552 L105 498 C68 456 52 400 52 344 C52 290 68 236 104 191 L51 135 L91 95 L145 153 C188 114 243 96 300 96 C357 96 412 114 455 153 L509 95 L549 135 L549 135 Z M114 344 C114 446 194 534 300 534 C406 534 486 446 486 344 C486 242 406 154 300 154 C194 154 114 242 114 344 L114 344 Z " />
<glyph glyph-name="yen" unicode="&#xa5;" horiz-adv-x="556" d="M500 254 L512 284 L345 284 L346 288 L403 356 L524 356 L536 386 L428 386 L593 585 C632 632 661 653 705 658 L711 688 L484 688 L479 658 C538 658 552 648 552 622 C552 592 518 558 506 543 L333 336 L278 555 C274 571 265 604 265 620 C265 640 300 662 355 658 L361 688 L97 688 L93 658 C146 658 157 648 163 624 L221 386 L110 386 L98 356 L228 356 L244 290 L243 284 L86 284 L74 254 L235 254 L196 100 C183 49 162 36 82 30 L76 0 L374 0 L382 30 C307 32 293 43 293 78 C293 95 298 114 307 146 L337 254 L500 254 L500 254 Z " />
<glyph glyph-name="brokenbar" unicode="&#xa6;" horiz-adv-x="222" d="M94 0 L148 0 L148 253 L94 253 L94 0 L94 0 Z M94 423 L148 423 L148 676 L94 676 L94 423 L94 423 Z " />
<glyph glyph-name="section" unicode="&#xa7;" horiz-adv-x="500" d="M420 267 C420 381 241 513 241 585 C241 638 273 678 339 678 C388 678 399 662 399 649 C399 632 363 625 363 590 C363 564 383 546 408 546 C440 546 461 572 461 605 C461 653 420 700 335 700 C259 700 183 657 183 570 C183 518 209 477 242 435 L240 433 C226 444 209 448 192 448 C121 448 76 388 76 320 C76 162 255 86 255 -13 C255 -60 216 -106 148 -106 C101 -106 78 -92 78 -76 C78 -50 124 -42 124 -3 C124 27 103 41 78 41 C46 41 20 17 20 -28 C20 -73 70 -132 150 -132 C252 -132 317 -56 317 16 C317 68 280 108 258 135 L259 137 C272 133 286 131 298 131 C363 131 420 182 420 267 L420 267 Z M134 348 C134 396 164 418 210 418 C271 418 358 294 358 228 C358 188 326 157 289 157 C253 157 236 171 192 229 C148 287 134 316 134 348 L134 348 Z " />
<glyph glyph-name="dieresis" unicode="&#xa8;" horiz-adv-x="352" d="M110 600 C110 571 131 550 160 550 C187 550 208 573 208 600 C208 625 185 648 160 648 C133 648 110 627 110 600 L110 600 Z M311 600 C311 571 332 550 361 550 C388 550 409 573 409 600 C409 625 386 648 361 648 C334 648 311 627 311 600 L311 600 Z " />
<glyph glyph-name="copyright" unicode="&#xa9;" horiz-adv-x="800" d="M389 700 C196 700 39 538 39 344 C39 150 196 -12 389 -12 C582 -12 739 150 739 344 C739 538 582 700 389 700 L389 700 Z M389 30 C229 30 93 174 93 344 C93 514 229 658 389 658 C549 658 685 514 685 344 C685 174 549 30 389 30 L389 30 Z M546 255 C528 210 492 174 413 174 C311 174 262 248 262 350 C262 452 311 526 413 526 C497 526 525 484 529 438 L545 438 L545 510 C545 519 538 527 523 532 C496 541 471 552 413 552 C295 552 194 494 194 350 C194 206 295 148 413 148 C459 148 498 158 519 165 C535 170 542 174 545 185 L562 255 L546 255 L546 255 Z " />
<glyph glyph-name="ordfeminine" unicode="&#xaa;" horiz-adv-x="334" d="M290 693 L273 631 L271 631 C267 676 253 700 213 700 C155 700 52 633 52 515 C52 454 87 404 143 404 C195 404 225 454 233 474 L235 474 C235 424 257 404 288 404 C327 404 351 433 391 519 L373 523 C340 450 320 425 298 425 C290 425 283 430 283 441 C283 451 326 609 348 693 L290 693 L290 693 Z M114 477 C114 565 167 680 213 680 C238 680 257 663 257 608 C257 507 190 424 149 424 C130 424 114 436 114 477 L114 477 Z " />
<glyph glyph-name="guillemotleft" unicode="&#xab;" horiz-adv-x="500" d="M215 229 C288 154 344 54 355 54 C362 54 367 58 367 64 C367 74 321 156 286 230 C311 254 443 392 443 409 C443 412 440 416 433 416 C420 416 343 333 215 241 L215 229 L215 229 Z M55 229 C128 154 184 54 195 54 C202 54 207 58 207 64 C207 74 161 156 126 230 C151 254 283 392 283 409 C283 412 280 416 273 416 C260 416 183 333 55 241 L55 229 L55 229 Z " />
<glyph glyph-name="logicalnot" unicode="&#xac;" horiz-adv-x="600" d="M460 100 L514 100 L514 353 L44 353 L44 299 L460 299 L460 100 L460 100 Z " />
<glyph glyph-name="uni00AD" unicode="&#xad;" horiz-adv-x="333" d="M27 204 L263 204 L281 266 L45 266 L27 204 L27 204 Z " />
<glyph glyph-name="registered" unicode="&#xae;" horiz-adv-x="800" d="M387 158 L387 176 C340 180 335 186 335 213 L335 325 L392 325 C482 181 497 158 522 158 L584 158 L584 168 C563 181 529 218 501 256 L440 337 C488 353 525 391 525 445 C525 499 481 539 403 539 L221 539 L221 521 C268 517 273 511 273 484 L273 213 C273 186 268 180 221 176 L221 158 L387 158 L387 158 Z M335 517 L382 517 C433 517 463 493 463 439 C463 382 437 347 380 347 L335 347 L335 517 L335 517 Z M389 700 C196 700 39 538 39 344 C39 150 196 -12 389 -12 C582 -12 739 150 739 344 C739 538 582 700 389 700 L389 700 Z M389 30 C229 30 93 174 93 344 C93 514 229 658 389 658 C549 658 685 514 685 344 C685 174 549 30 389 30 L389 30 Z " />
<glyph glyph-name="macron" unicode="&#xaf;" horiz-adv-x="352" d="M414 628 L113 628 L102 574 L403 574 L414 628 L414 628 Z " />
<glyph glyph-name="degree" unicode="&#xb0;" horiz-adv-x="400" d="M119 557 C119 614 164 664 220 664 C276 664 321 614 321 557 C321 500 276 450 221 450 C164 450 119 500 119 557 L119 557 Z M77 557 C77 477 140 414 220 414 C300 414 363 477 363 557 C363 637 300 700 220 700 C140 700 77 637 77 557 L77 557 Z " />
<glyph glyph-name="plusminus" unicode="&#xb1;" horiz-adv-x="600" d="M252 307 L44 307 L44 253 L252 253 L252 90 L306 90 L306 253 L514 253 L514 307 L306 307 L306 470 L252 470 L252 307 L252 307 Z M44 0 L514 0 L514 54 L44 54 L44 0 L44 0 Z " />
<glyph glyph-name="twosuperior" unicode="&#xb2;" horiz-adv-x="333" d="M224 623 C221 588 188 538 150 538 C128 538 119 547 119 568 C119 629 175 678 238 678 C292 678 313 655 313 621 C313 563 280 512 200 466 C30 368 12 325 12 303 C12 284 20 276 38 276 C56 276 66 284 66 295 C66 307 59 315 59 324 C59 332 65 336 76 336 C93 336 104 332 138 301 C155 286 177 273 215 273 C276 273 320 331 348 410 L330 413 C314 378 293 331 246 331 C223 331 203 340 184 350 C165 360 146 369 123 369 C98 369 80 356 65 346 C62 347 65 346 62 347 C173 457 381 478 381 602 C381 654 345 700 246 700 C165 700 91 639 91 571 C91 540 113 516 149 516 C198 516 240 562 248 617 L224 623 L224 623 Z " />
<glyph glyph-name="threesuperior" unicode="&#xb3;" horiz-adv-x="333" d="M240 623 C220 568 191 555 164 555 C147 555 137 567 137 587 C137 638 190 678 246 678 C286 678 310 655 310 618 C310 542 262 495 234 495 C226 495 210 498 195 498 C174 498 168 494 168 487 C168 479 172 476 188 476 C207 476 229 480 238 480 C249 480 272 462 272 425 C272 351 216 295 144 295 C87 295 55 322 55 344 C55 351 57 353 60 353 C66 353 71 348 86 348 C101 348 120 361 120 384 C120 405 107 416 83 416 C52 416 27 397 27 359 C27 308 73 273 146 273 C266 273 340 330 340 400 C340 480 261 483 261 489 C261 494 382 506 382 607 C382 655 338 700 258 700 C178 700 109 648 109 584 C109 554 128 533 161 533 C213 533 247 572 261 617 L240 623 L240 623 Z " />
<glyph glyph-name="acute" unicode="&#xb4;" horiz-adv-x="352" d="M183 534 L218 534 L388 640 C400 648 406 653 406 669 C406 693 390 706 370 706 C356 706 353 701 322 671 L183 534 L183 534 Z " />
<glyph glyph-name="mu" unicode="&#xb5;" horiz-adv-x="611" d="M440 470 L382 268 C354 171 266 24 207 24 C178 24 162 40 162 66 C162 120 252 276 250 368 C249 428 222 482 152 482 C84 482 42 417 3 313 L28 301 C70 404 104 452 147 452 C171 452 182 437 182 410 C182 356 -14 -68 -14 -134 C-14 -166 4 -192 38 -192 C112 -192 114 -74 137 -1 C151 -8 168 -12 188 -12 C276 -12 335 103 360 153 L362 151 C358 130 353 104 353 66 C353 25 384 -12 428 -12 C506 -12 542 78 588 168 L565 181 C516 78 490 24 444 24 C422 24 415 38 415 58 C415 80 431 135 448 195 L528 470 L440 470 L440 470 Z " />
<glyph glyph-name="paragraph" unicode="&#xb6;" horiz-adv-x="600" d="M326 -178 L541 606 C551 644 569 658 636 658 L644 688 L363 688 C182 688 120 511 120 407 C120 328 163 280 272 277 L147 -178 L205 -178 L435 658 L498 658 L268 -178 L326 -178 L326 -178 Z " />
<glyph glyph-name="periodcentered" unicode="&#xb7;" horiz-adv-x="278" d="M76 235 C76 203 102 177 134 177 C166 177 192 203 192 235 C192 267 166 293 134 293 C102 293 76 267 76 235 L76 235 Z " />
<glyph glyph-name="cedilla" unicode="&#xb8;" horiz-adv-x="352" d="M76 4 L15 -92 L24 -100 C36 -96 46 -94 58 -94 C89 -94 105 -114 105 -135 C105 -158 83 -176 50 -176 C30 -176 4 -170 -18 -160 L-35 -190 C-17 -202 23 -212 59 -212 C128 -212 177 -179 177 -126 C177 -80 135 -58 99 -58 C90 -58 81 -59 73 -62 L71 -60 L115 4 L76 4 L76 4 Z " />
<glyph glyph-name="onesuperior" unicode="&#xb9;" horiz-adv-x="333" d="M277 280 L281 302 C223 302 209 310 209 333 C209 344 303 665 312 693 L291 693 C247 667 208 655 160 652 L156 630 L231 630 C205 537 173 440 147 342 C140 317 123 305 58 302 L54 280 L277 280 L277 280 Z " />
<glyph glyph-name="ordmasculine" unicode="&#xba;" horiz-adv-x="300" d="M61 535 C61 460 103 404 165 404 C257 404 337 495 337 569 C337 644 295 700 233 700 C140 700 61 609 61 535 L61 535 Z M283 623 C283 582 257 424 166 424 C132 424 115 443 115 481 C115 522 141 680 231 680 C266 680 283 661 283 623 L283 623 Z " />
<glyph glyph-name="guillemotright" unicode="&#xbb;" horiz-adv-x="500" d="M267 241 C194 316 138 416 127 416 C120 416 115 412 115 406 C115 396 161 314 196 240 C171 216 39 78 39 61 C39 58 42 54 49 54 C62 54 139 137 267 229 L267 241 L267 241 Z M427 241 C354 316 298 416 287 416 C280 416 275 412 275 406 C275 396 321 314 356 240 C331 216 199 78 199 61 C199 58 202 54 209 54 C222 54 299 137 427 229 L427 241 L427 241 Z " />
<glyph glyph-name="onequarter" unicode="&#xbc;" horiz-adv-x="834" d="M764 153 C746 132 723 114 690 114 L746 310 L683 310 L627 114 C614 114 577 134 514 146 C564 205 652 333 662 412 L593 412 C573 311 543 229 494 148 C484 150 474 152 461 152 C425 152 413 139 413 125 C413 112 424 104 438 104 C459 104 481 122 500 132 C535 118 553 100 586 84 C594 79 606 78 618 78 L587 -34 L649 -34 L681 78 C719 87 751 106 775 142 L764 153 L764 153 Z M278 280 L282 302 C224 302 210 310 210 333 C210 344 304 665 313 693 L292 693 C248 667 209 655 161 652 L157 630 L232 630 C206 537 174 440 148 342 C141 317 124 305 59 302 L55 280 L278 280 L278 280 Z M679 700 L624 700 L178 -12 L233 -12 L679 700 L679 700 Z " />
<glyph glyph-name="onehalf" unicode="&#xbd;" horiz-adv-x="834" d="M278 280 L282 302 C224 302 210 310 210 333 C210 344 304 665 313 693 L292 693 C248 667 209 655 161 652 L157 630 L232 630 C206 537 174 440 148 342 C141 317 124 305 59 302 L55 280 L278 280 L278 280 Z M679 700 L624 700 L178 -12 L233 -12 L679 700 L679 700 Z M645 343 C642 308 609 258 571 258 C549 258 540 267 540 288 C540 349 596 398 659 398 C713 398 734 375 734 341 C734 283 701 232 621 186 C451 88 433 45 433 23 C433 4 441 -4 459 -4 C477 -4 487 4 487 15 C487 27 480 35 480 44 C480 52 486 56 497 56 C514 56 525 52 559 21 C576 6 598 -7 636 -7 C697 -7 741 51 769 130 L751 133 C735 98 714 51 667 51 C644 51 624 60 605 70 C586 80 567 89 544 89 C519 89 501 76 486 66 C483 67 486 66 483 67 C594 177 802 198 802 322 C802 374 766 420 667 420 C586 420 512 359 512 291 C512 260 534 236 570 236 C619 236 661 282 669 337 L645 343 L645 343 Z " />
<glyph glyph-name="threequarters" unicode="&#xbe;" horiz-adv-x="834" d="M764 153 C746 132 723 114 690 114 L746 310 L683 310 L627 114 C614 114 577 134 514 146 C564 205 652 333 662 412 L593 412 C573 311 543 229 494 148 C484 150 474 152 461 152 C425 152 413 139 413 125 C413 112 424 104 438 104 C459 104 481 122 500 132 C535 118 553 100 586 84 C594 79 606 78 618 78 L587 -34 L649 -34 L681 78 C719 87 751 106 775 142 L764 153 L764 153 Z M240 623 C220 568 191 555 164 555 C147 555 137 567 137 587 C137 638 190 678 246 678 C286 678 310 655 310 618 C310 542 262 495 234 495 C226 495 210 498 195 498 C174 498 168 494 168 487 C168 479 172 476 188 476 C207 476 229 480 238 480 C249 480 272 462 272 425 C272 351 216 295 144 295 C87 295 55 322 55 344 C55 351 57 353 60 353 C66 353 71 348 86 348 C101 348 120 361 120 384 C120 405 107 416 83 416 C52 416 27 397 27 359 C27 308 73 273 146 273 C266 273 340 330 340 400 C340 480 261 483 261 489 C261 494 382 506 382 607 C382 655 338 700 258 700 C178 700 109 648 109 584 C109 554 128 533 161 533 C213 533 247 572 261 617 L240 623 L240 623 Z M679 700 L624 700 L178 -12 L233 -12 L679 700 L679 700 Z " />
<glyph glyph-name="questiondown" unicode="&#xbf;" horiz-adv-x="500" d="M191 210 C209 256 228 278 257 278 C283 278 302 264 302 238 C302 203 283 172 118 110 C36 79 -3 28 -3 -39 C-3 -135 81 -190 180 -190 C279 -190 349 -125 349 -40 C349 -11 343 12 326 36 L303 23 C312 6 317 -12 317 -32 C317 -108 262 -160 193 -160 C138 -160 89 -116 89 -60 C89 3 103 25 156 60 C283 144 334 166 334 228 C334 275 303 308 259 308 C214 308 185 281 162 224 L191 210 L191 210 Z M386 448 C386 480 362 504 328 504 C296 504 270 480 270 448 C270 416 296 392 328 392 C360 392 386 416 386 448 L386 448 Z " />
<glyph glyph-name="Agrave" unicode="&#xc0;" horiz-adv-x="667" d="M193 0 L199 30 C123 33 109 48 109 66 C109 94 175 198 193 234 L426 234 C438 144 448 106 448 89 C448 53 433 39 343 30 L337 0 L625 0 L631 30 C565 35 554 45 545 103 L457 688 L414 688 L112 165 C74 100 26 42 -63 30 L-70 0 L193 0 L193 0 Z M382 563 L384 563 L421 270 L218 270 L382 563 L382 563 Z M507 716 L409 843 C379 882 371 888 352 888 C333 888 317 874 317 850 C317 829 338 821 394 779 L477 716 L507 716 L507 716 Z " />
<glyph glyph-name="Aacute" unicode="&#xc1;" horiz-adv-x="667" d="M193 0 L199 30 C123 33 109 48 109 66 C109 94 175 198 193 234 L426 234 C438 144 448 106 448 89 C448 53 433 39 343 30 L337 0 L625 0 L631 30 C565 35 554 45 545 103 L457 688 L414 688 L112 165 C74 100 26 42 -63 30 L-70 0 L193 0 L193 0 Z M382 563 L384 563 L421 270 L218 270 L382 563 L382 563 Z M376 716 L411 716 L581 822 C593 830 599 835 599 851 C599 875 583 888 563 888 C549 888 546 883 515 853 L376 716 L376 716 Z " />
<glyph glyph-name="Acircumflex" unicode="&#xc2;" horiz-adv-x="667" d="M193 0 L199 30 C123 33 109 48 109 66 C109 94 175 198 193 234 L426 234 C438 144 448 106 448 89 C448 53 433 39 343 30 L337 0 L625 0 L631 30 C565 35 554 45 545 103 L457 688 L414 688 L112 165 C74 100 26 42 -63 30 L-70 0 L193 0 L193 0 Z M382 563 L384 563 L421 270 L218 270 L382 563 L382 563 Z M438 884 L281 716 L319 716 L457 820 L539 716 L575 716 L487 884 L438 884 L438 884 Z " />
<glyph glyph-name="Atilde" unicode="&#xc3;" horiz-adv-x="667" d="M193 0 L199 30 C123 33 109 48 109 66 C109 94 175 198 193 234 L426 234 C438 144 448 106 448 89 C448 53 433 39 343 30 L337 0 L625 0 L631 30 C565 35 554 45 545 103 L457 688 L414 688 L112 165 C74 100 26 42 -63 30 L-70 0 L193 0 L193 0 Z M382 563 L384 563 L421 270 L218 270 L382 563 L382 563 Z M325 740 C333 772 349 788 376 788 C401 788 427 777 452 765 C477 753 502 742 525 742 C572 742 609 779 624 848 L595 848 C584 814 571 803 537 803 C520 803 500 814 477 825 C454 836 426 846 394 846 C343 846 311 809 296 740 L325 740 L325 740 Z " />
<glyph glyph-name="Adieresis" unicode="&#xc4;" horiz-adv-x="667" d="M193 0 L199 30 C123 33 109 48 109 66 C109 94 175 198 193 234 L426 234 C438 144 448 106 448 89 C448 53 433 39 343 30 L337 0 L625 0 L631 30 C565 35 554 45 545 103 L457 688 L414 688 L112 165 C74 100 26 42 -63 30 L-70 0 L193 0 L193 0 Z M382 563 L384 563 L421 270 L218 270 L382 563 L382 563 Z M303 782 C303 753 324 732 353 732 C380 732 401 755 401 782 C401 807 378 830 353 830 C326 830 303 809 303 782 L303 782 Z M504 782 C504 753 525 732 554 732 C581 732 602 755 602 782 C602 807 579 830 554 830 C527 830 504 809 504 782 L504 782 Z " />
<glyph glyph-name="Aring" unicode="&#xc5;" horiz-adv-x="667" d="M193 0 L199 30 C123 33 109 48 109 66 C109 94 175 198 193 234 L426 234 C438 144 448 106 448 89 C448 53 433 39 343 30 L337 0 L625 0 L631 30 C565 35 554 45 545 103 L457 688 L414 688 L112 165 C74 100 26 42 -63 30 L-70 0 L193 0 L193 0 Z M382 563 L384 563 L421 270 L218 270 L382 563 L382 563 Z M357 815 C357 759 402 716 457 716 C511 716 556 760 556 815 C556 869 512 915 457 915 C401 915 357 870 357 815 L357 815 Z M393 816 C393 850 420 879 456 879 C491 879 520 850 520 816 C520 780 491 752 456 752 C420 752 393 780 393 816 L393 816 Z " />
<glyph glyph-name="AE" unicode="&#xc6;" horiz-adv-x="944" d="M838 252 L807 255 C748 104 665 30 538 30 C499 30 483 48 483 72 C483 87 536 284 553 348 C633 347 648 320 648 224 L676 224 L737 498 L708 498 C680 414 651 386 563 384 L615 589 C626 634 650 658 714 658 C796 658 841 606 841 496 C841 480 839 460 839 444 L869 444 L928 688 L389 688 L382 658 C420 654 454 654 454 634 C454 618 434 593 411 563 L69 114 C20 50 -10 28 -43 30 L-50 0 L175 0 L181 30 C106 30 93 41 93 66 C93 80 128 129 154 163 L279 328 L447 328 L386 89 C376 49 359 36 287 30 L280 0 L766 0 L838 252 L838 252 Z M304 364 L524 658 L536 658 L457 364 L304 364 L304 364 Z " />
<glyph glyph-name="Ccedilla" unicode="&#xc7;" horiz-adv-x="667" d="M572 254 C532 130 454 24 324 24 C234 24 156 64 157 204 C158 444 274 664 462 664 C602 664 620 566 621 442 L646 444 L706 684 L677 684 C659 659 647 632 637 632 C625 632 586 700 466 700 C276 700 47 516 47 286 C47 123 151 0 294 -12 L242 -92 L251 -100 C263 -96 273 -94 285 -94 C316 -94 332 -114 332 -135 C332 -158 310 -176 277 -176 C257 -176 231 -170 209 -160 L192 -190 C210 -202 250 -212 286 -212 C355 -212 404 -179 404 -126 C404 -80 362 -58 326 -58 C317 -58 308 -59 300 -62 L298 -60 L331 -12 C473 -4 570 114 607 251 L572 254 L572 254 Z " />
<glyph glyph-name="Egrave" unicode="&#xc8;" horiz-adv-x="667" d="M589 252 L556 252 C497 104 414 30 245 30 C194 30 178 46 178 72 C178 93 191 131 199 160 L248 348 C359 346 375 342 375 224 L403 224 L472 498 L443 498 C402 402 380 380 258 384 L308 578 C321 630 344 658 432 658 C557 658 602 606 602 496 C602 480 600 460 600 444 L630 444 L689 688 L141 688 L133 658 C199 656 212 645 212 610 C212 593 199 550 188 509 L85 110 C70 51 46 31 -34 30 L-41 0 L517 0 L589 252 L589 252 Z M524 716 L426 843 C396 882 388 888 369 888 C350 888 334 874 334 850 C334 829 355 821 411 779 L494 716 L524 716 L524 716 Z " />
<glyph glyph-name="Eacute" unicode="&#xc9;" horiz-adv-x="667" d="M589 252 L556 252 C497 104 414 30 245 30 C194 30 178 46 178 72 C178 93 191 131 199 160 L248 348 C359 346 375 342 375 224 L403 224 L472 498 L443 498 C402 402 380 380 258 384 L308 578 C321 630 344 658 432 658 C557 658 602 606 602 496 C602 480 600 460 600 444 L630 444 L689 688 L141 688 L133 658 C199 656 212 645 212 610 C212 593 199 550 188 509 L85 110 C70 51 46 31 -34 30 L-41 0 L517 0 L589 252 L589 252 Z M393 716 L428 716 L598 822 C610 830 616 835 616 851 C616 875 600 888 580 888 C566 888 563 883 532 853 L393 716 L393 716 Z " />
<glyph glyph-name="Ecircumflex" unicode="&#xca;" horiz-adv-x="667" d="M589 252 L556 252 C497 104 414 30 245 30 C194 30 178 46 178 72 C178 93 191 131 199 160 L248 348 C359 346 375 342 375 224 L403 224 L472 498 L443 498 C402 402 380 380 258 384 L308 578 C321 630 344 658 432 658 C557 658 602 606 602 496 C602 480 600 460 600 444 L630 444 L689 688 L141 688 L133 658 C199 656 212 645 212 610 C212 593 199 550 188 509 L85 110 C70 51 46 31 -34 30 L-41 0 L517 0 L589 252 L589 252 Z M455 884 L298 716 L336 716 L474 820 L556 716 L592 716 L504 884 L455 884 L455 884 Z " />
<glyph glyph-name="Edieresis" unicode="&#xcb;" horiz-adv-x="667" d="M589 252 L556 252 C497 104 414 30 245 30 C194 30 178 46 178 72 C178 93 191 131 199 160 L248 348 C359 346 375 342 375 224 L403 224 L472 498 L443 498 C402 402 380 380 258 384 L308 578 C321 630 344 658 432 658 C557 658 602 606 602 496 C602 480 600 460 600 444 L630 444 L689 688 L141 688 L133 658 C199 656 212 645 212 610 C212 593 199 550 188 509 L85 110 C70 51 46 31 -34 30 L-41 0 L517 0 L589 252 L589 252 Z M320 782 C320 753 341 732 370 732 C397 732 418 755 418 782 C418 807 395 830 370 830 C343 830 320 809 320 782 L320 782 Z M521 782 C521 753 542 732 571 732 C598 732 619 755 619 782 C619 807 596 830 571 830 C544 830 521 809 521 782 L521 782 Z " />
<glyph glyph-name="Igrave" unicode="&#xcc;" horiz-adv-x="389" d="M274 0 L282 30 C212 26 192 42 192 72 C192 102 219 184 235 247 L323 589 C335 636 354 658 438 658 L442 688 L153 688 L145 658 C212 658 225 638 225 618 C225 596 212 546 198 494 L97 105 C80 41 56 26 -14 30 L-24 0 L274 0 L274 0 Z M385 716 L287 843 C257 882 249 888 230 888 C211 888 195 874 195 850 C195 829 216 821 272 779 L355 716 L385 716 L385 716 Z " />
<glyph glyph-name="Iacute" unicode="&#xcd;" horiz-adv-x="389" d="M274 0 L282 30 C212 26 192 42 192 72 C192 102 219 184 235 247 L323 589 C335 636 354 658 438 658 L442 688 L153 688 L145 658 C212 658 225 638 225 618 C225 596 212 546 198 494 L97 105 C80 41 56 26 -14 30 L-24 0 L274 0 L274 0 Z M254 716 L289 716 L459 822 C471 830 477 835 477 851 C477 875 461 888 441 888 C427 888 424 883 393 853 L254 716 L254 716 Z " />
<glyph glyph-name="Icircumflex" unicode="&#xce;" horiz-adv-x="389" d="M274 0 L282 30 C212 26 192 42 192 72 C192 102 219 184 235 247 L323 589 C335 636 354 658 438 658 L442 688 L153 688 L145 658 C212 658 225 638 225 618 C225 596 212 546 198 494 L97 105 C80 41 56 26 -14 30 L-24 0 L274 0 L274 0 Z M316 884 L159 716 L197 716 L335 820 L417 716 L453 716 L365 884 L316 884 L316 884 Z " />
<glyph glyph-name="Idieresis" unicode="&#xcf;" horiz-adv-x="389" d="M274 0 L282 30 C212 26 192 42 192 72 C192 102 219 184 235 247 L323 589 C335 636 354 658 438 658 L442 688 L153 688 L145 658 C212 658 225 638 225 618 C225 596 212 546 198 494 L97 105 C80 41 56 26 -14 30 L-24 0 L274 0 L274 0 Z M181 782 C181 753 202 732 231 732 C258 732 279 755 279 782 C279 807 256 830 231 830 C204 830 181 809 181 782 L181 782 Z M382 782 C382 753 403 732 432 732 C459 732 480 755 480 782 C480 807 457 830 432 830 C405 830 382 809 382 782 L382 782 Z " />
<glyph glyph-name="Eth" unicode="&#xd0;" horiz-adv-x="722" d="M80 401 L68 359 L153 359 L100 153 C78 69 61 37 -33 30 L-40 0 L287 0 C608 0 699 278 699 417 C699 517 650 688 471 688 L144 688 L136 658 C200 658 218 646 218 616 C218 602 202 548 190 502 L164 401 L80 401 L80 401 Z M313 573 C330 637 360 658 434 658 C537 658 589 620 589 486 C589 370 541 180 474 108 C422 52 362 30 278 30 C206 30 186 46 186 82 C186 98 205 168 217 212 L256 359 L448 359 L460 401 L267 401 L313 573 L313 573 Z " />
<glyph glyph-name="Ntilde" unicode="&#xd1;" horiz-adv-x="722" d="M198 0 L204 30 C139 30 116 49 116 84 C116 110 128 147 137 183 L235 562 L237 562 L488 0 L525 0 L675 564 C692 629 724 658 789 658 L794 688 L563 688 L556 658 C624 654 639 626 639 606 C639 582 633 558 613 481 L528 156 L526 156 L289 688 L127 688 L120 658 C195 655 209 632 209 612 C209 590 194 544 181 497 L73 102 C61 57 23 36 -43 30 L-50 0 L198 0 L198 0 Z M369 740 C377 772 393 788 420 788 C445 788 471 777 496 765 C521 753 546 742 569 742 C616 742 653 779 668 848 L639 848 C628 814 615 803 581 803 C564 803 544 814 521 825 C498 836 470 846 438 846 C387 846 355 809 340 740 L369 740 L369 740 Z " />
<glyph glyph-name="Ograve" unicode="&#xd2;" horiz-adv-x="722" d="M695 400 C695 566 586 700 444 700 C252 700 52 500 52 302 C52 104 156 -12 296 -12 C496 -12 695 184 695 400 L695 400 Z M597 476 C597 336 518 24 306 24 C224 24 150 66 150 192 C150 336 218 664 440 664 C542 664 597 594 597 476 L597 476 Z M551 716 L453 843 C423 882 415 888 396 888 C377 888 361 874 361 850 C361 829 382 821 438 779 L521 716 L551 716 L551 716 Z " />
<glyph glyph-name="Oacute" unicode="&#xd3;" horiz-adv-x="722" d="M695 400 C695 566 586 700 444 700 C252 700 52 500 52 302 C52 104 156 -12 296 -12 C496 -12 695 184 695 400 L695 400 Z M597 476 C597 336 518 24 306 24 C224 24 150 66 150 192 C150 336 218 664 440 664 C542 664 597 594 597 476 L597 476 Z M420 716 L455 716 L625 822 C637 830 643 835 643 851 C643 875 627 888 607 888 C593 888 590 883 559 853 L420 716 L420 716 Z " />
<glyph glyph-name="Ocircumflex" unicode="&#xd4;" horiz-adv-x="722" d="M695 400 C695 566 586 700 444 700 C252 700 52 500 52 302 C52 104 156 -12 296 -12 C496 -12 695 184 695 400 L695 400 Z M597 476 C597 336 518 24 306 24 C224 24 150 66 150 192 C150 336 218 664 440 664 C542 664 597 594 597 476 L597 476 Z M482 884 L325 716 L363 716 L501 820 L583 716 L619 716 L531 884 L482 884 L482 884 Z " />
<glyph glyph-name="Otilde" unicode="&#xd5;" horiz-adv-x="722" d="M695 400 C695 566 586 700 444 700 C252 700 52 500 52 302 C52 104 156 -12 296 -12 C496 -12 695 184 695 400 L695 400 Z M597 476 C597 336 518 24 306 24 C224 24 150 66 150 192 C150 336 218 664 440 664 C542 664 597 594 597 476 L597 476 Z M369 740 C377 772 393 788 420 788 C445 788 471 777 496 765 C521 753 546 742 569 742 C616 742 653 779 668 848 L639 848 C628 814 615 803 581 803 C564 803 544 814 521 825 C498 836 470 846 438 846 C387 846 355 809 340 740 L369 740 L369 740 Z " />
<glyph glyph-name="Odieresis" unicode="&#xd6;" horiz-adv-x="722" d="M695 400 C695 566 586 700 444 700 C252 700 52 500 52 302 C52 104 156 -12 296 -12 C496 -12 695 184 695 400 L695 400 Z M597 476 C597 336 518 24 306 24 C224 24 150 66 150 192 C150 336 218 664 440 664 C542 664 597 594 597 476 L597 476 Z M347 782 C347 753 368 732 397 732 C424 732 445 755 445 782 C445 807 422 830 397 830 C370 830 347 809 347 782 L347 782 Z M548 782 C548 753 569 732 598 732 C625 732 646 755 646 782 C646 807 623 830 598 830 C571 830 548 809 548 782 L548 782 Z " />
<glyph glyph-name="multiply" unicode="&#xd7;" horiz-adv-x="600" d="M241 235 L44 38 L82 0 L279 197 L476 0 L514 38 L317 235 L514 432 L476 470 L279 273 L82 470 L44 432 L241 235 L241 235 Z " />
<glyph glyph-name="Oslash" unicode="&#xd8;" horiz-adv-x="722" d="M565 602 C587 570 597 527 597 476 C597 336 518 24 306 24 C265 24 226 34 198 61 L565 602 L565 602 Z M172 95 C158 120 150 152 150 192 C150 336 218 664 440 664 C481 664 514 653 539 632 L172 95 L172 95 Z M642 782 L562 666 C528 687 488 700 444 700 C252 700 52 500 52 302 C52 189 86 103 141 50 L44 -92 L94 -92 L173 24 C208 1 250 -12 296 -12 C496 -12 695 184 695 400 C695 500 656 588 593 643 L688 782 L642 782 L642 782 Z " />
<glyph glyph-name="Ugrave" unicode="&#xd9;" horiz-adv-x="722" d="M118 688 L111 658 C186 658 196 649 196 621 C196 594 83 233 83 160 C83 72 167 -12 313 -12 C451 -12 546 50 581 181 L687 581 C704 646 738 656 794 658 L799 688 L567 688 L563 658 C628 658 646 649 646 605 C646 569 631 527 619 482 L543 190 C520 100 475 24 328 24 C247 24 181 63 181 131 C181 165 195 211 204 244 L296 593 C310 645 328 658 413 658 L419 688 L118 688 L118 688 Z M551 716 L453 843 C423 882 415 888 396 888 C377 888 361 874 361 850 C361 829 382 821 438 779 L521 716 L551 716 L551 716 Z " />
<glyph glyph-name="Uacute" unicode="&#xda;" horiz-adv-x="722" d="M118 688 L111 658 C186 658 196 649 196 621 C196 594 83 233 83 160 C83 72 167 -12 313 -12 C451 -12 546 50 581 181 L687 581 C704 646 738 656 794 658 L799 688 L567 688 L563 658 C628 658 646 649 646 605 C646 569 631 527 619 482 L543 190 C520 100 475 24 328 24 C247 24 181 63 181 131 C181 165 195 211 204 244 L296 593 C310 645 328 658 413 658 L419 688 L118 688 L118 688 Z M420 716 L455 716 L625 822 C637 830 643 835 643 851 C643 875 627 888 607 888 C593 888 590 883 559 853 L420 716 L420 716 Z " />
<glyph glyph-name="Ucircumflex" unicode="&#xdb;" horiz-adv-x="722" d="M118 688 L111 658 C186 658 196 649 196 621 C196 594 83 233 83 160 C83 72 167 -12 313 -12 C451 -12 546 50 581 181 L687 581 C704 646 738 656 794 658 L799 688 L567 688 L563 658 C628 658 646 649 646 605 C646 569 631 527 619 482 L543 190 C520 100 475 24 328 24 C247 24 181 63 181 131 C181 165 195 211 204 244 L296 593 C310 645 328 658 413 658 L419 688 L118 688 L118 688 Z M482 884 L325 716 L363 716 L501 820 L583 716 L619 716 L531 884 L482 884 L482 884 Z " />
<glyph glyph-name="Udieresis" unicode="&#xdc;" horiz-adv-x="722" d="M118 688 L111 658 C186 658 196 649 196 621 C196 594 83 233 83 160 C83 72 167 -12 313 -12 C451 -12 546 50 581 181 L687 581 C704 646 738 656 794 658 L799 688 L567 688 L563 658 C628 658 646 649 646 605 C646 569 631 527 619 482 L543 190 C520 100 475 24 328 24 C247 24 181 63 181 131 C181 165 195 211 204 244 L296 593 C310 645 328 658 413 658 L419 688 L118 688 L118 688 Z M347 782 C347 753 368 732 397 732 C424 732 445 755 445 782 C445 807 422 830 397 830 C370 830 347 809 347 782 L347 782 Z M548 782 C548 753 569 732 598 732 C625 732 646 755 646 782 C646 807 623 830 598 830 C571 830 548 809 548 782 L548 782 Z " />
<glyph glyph-name="Yacute" unicode="&#xdd;" horiz-adv-x="611" d="M374 0 L382 30 C307 32 293 43 293 78 C293 95 298 114 307 146 L346 288 L593 585 C632 632 661 653 705 658 L711 688 L484 688 L479 658 C538 658 552 648 552 622 C552 592 518 558 506 543 L333 336 L276 562 C272 579 265 595 265 612 C265 639 300 662 355 658 L361 688 L97 688 L93 658 C146 658 157 648 163 624 L244 290 L196 100 C183 49 162 36 82 30 L76 0 L374 0 L374 0 Z M359 716 L394 716 L564 822 C576 830 582 835 582 851 C582 875 566 888 546 888 C532 888 529 883 498 853 L359 716 L359 716 Z " />
<glyph glyph-name="Thorn" unicode="&#xde;" horiz-adv-x="611" d="M69 105 C52 41 28 26 -42 30 L-52 0 L246 0 L254 30 C184 26 164 42 164 72 C164 94 178 142 191 191 C220 190 250 189 278 189 C498 189 596 266 596 392 C596 506 536 559 382 559 C330 559 303 558 287 557 L295 589 C307 636 326 658 410 658 L414 688 L125 688 L117 658 C184 658 197 638 197 618 C197 596 184 546 170 494 L69 105 L69 105 Z M271 496 C291 520 328 529 374 529 C451 529 486 495 486 425 C486 278 446 225 262 225 C240 225 215 227 201 227 L271 496 L271 496 Z " />
<glyph glyph-name="germandbls" unicode="&#xdf;" horiz-adv-x="611" d="M-198 -111 C-198 -162 -158 -190 -106 -190 C-3 -190 88 -99 132 44 C184 212 181 320 208 440 C243 596 300 658 389 658 C455 658 495 619 495 553 C495 378 274 470 274 327 C274 239 462 214 462 122 C462 48 416 18 351 18 C298 18 259 38 259 53 C259 64 304 64 304 113 C304 142 284 162 252 162 C216 162 194 130 194 86 C194 40 238 -12 360 -12 C470 -12 548 76 548 147 C548 284 356 299 356 372 C356 441 587 373 587 546 C587 630 521 688 400 688 C302 688 195 634 126 470 L54 470 L45 440 L117 440 C89 330 78 192 48 16 C27 -107 -29 -160 -91 -160 C-117 -160 -121 -157 -121 -151 C-121 -145 -96 -134 -96 -106 C-96 -83 -112 -59 -147 -59 C-179 -59 -198 -85 -198 -111 L-198 -111 Z " />
<glyph glyph-name="agrave" unicode="&#xe0;" horiz-adv-x="556" d="M388 470 L365 367 L363 367 C356 442 331 482 271 482 C182 482 23 364 23 174 C23 66 84 -12 164 -12 C242 -12 284 62 307 105 L310 103 C306 23 346 -12 390 -12 C467 -12 505 96 543 179 L519 185 C482 92 440 18 409 18 C389 18 378 31 378 53 C378 62 383 85 391 119 L476 470 L388 470 L388 470 Z M339 322 C339 183 250 18 172 18 C132 18 109 41 109 108 C109 248 188 452 276 452 C315 452 339 403 339 322 L339 322 Z M416 534 L318 661 C288 700 280 706 261 706 C242 706 226 692 226 668 C226 647 247 639 303 597 L386 534 L416 534 L416 534 Z " />
<glyph glyph-name="aacute" unicode="&#xe1;" horiz-adv-x="556" d="M388 470 L365 367 L363 367 C356 442 331 482 271 482 C182 482 23 364 23 174 C23 66 84 -12 164 -12 C242 -12 284 62 307 105 L310 103 C306 23 346 -12 390 -12 C467 -12 505 96 543 179 L519 185 C482 92 440 18 409 18 C389 18 378 31 378 53 C378 62 383 85 391 119 L476 470 L388 470 L388 470 Z M339 322 C339 183 250 18 172 18 C132 18 109 41 109 108 C109 248 188 452 276 452 C315 452 339 403 339 322 L339 322 Z M285 534 L320 534 L490 640 C502 648 508 653 508 669 C508 693 492 706 472 706 C458 706 455 701 424 671 L285 534 L285 534 Z " />
<glyph glyph-name="acircumflex" unicode="&#xe2;" horiz-adv-x="556" d="M388 470 L365 367 L363 367 C356 442 331 482 271 482 C182 482 23 364 23 174 C23 66 84 -12 164 -12 C242 -12 284 62 307 105 L310 103 C306 23 346 -12 390 -12 C467 -12 505 96 543 179 L519 185 C482 92 440 18 409 18 C389 18 378 31 378 53 C378 62 383 85 391 119 L476 470 L388 470 L388 470 Z M339 322 C339 183 250 18 172 18 C132 18 109 41 109 108 C109 248 188 452 276 452 C315 452 339 403 339 322 L339 322 Z M347 702 L190 534 L228 534 L366 638 L448 534 L484 534 L396 702 L347 702 L347 702 Z " />
<glyph glyph-name="atilde" unicode="&#xe3;" horiz-adv-x="556" d="M388 470 L365 367 L363 367 C356 442 331 482 271 482 C182 482 23 364 23 174 C23 66 84 -12 164 -12 C242 -12 284 62 307 105 L310 103 C306 23 346 -12 390 -12 C467 -12 505 96 543 179 L519 185 C482 92 440 18 409 18 C389 18 378 31 378 53 C378 62 383 85 391 119 L476 470 L388 470 L388 470 Z M339 322 C339 183 250 18 172 18 C132 18 109 41 109 108 C109 248 188 452 276 452 C315 452 339 403 339 322 L339 322 Z M234 558 C242 590 258 606 285 606 C310 606 336 595 361 583 C386 571 411 560 434 560 C481 560 518 597 533 666 L504 666 C493 632 480 621 446 621 C429 621 409 632 386 643 C363 654 335 664 303 664 C252 664 220 627 205 558 L234 558 L234 558 Z " />
<glyph glyph-name="adieresis" unicode="&#xe4;" horiz-adv-x="556" d="M388 470 L365 367 L363 367 C356 442 331 482 271 482 C182 482 23 364 23 174 C23 66 84 -12 164 -12 C242 -12 284 62 307 105 L310 103 C306 23 346 -12 390 -12 C467 -12 505 96 543 179 L519 185 C482 92 440 18 409 18 C389 18 378 31 378 53 C378 62 383 85 391 119 L476 470 L388 470 L388 470 Z M339 322 C339 183 250 18 172 18 C132 18 109 41 109 108 C109 248 188 452 276 452 C315 452 339 403 339 322 L339 322 Z M212 600 C212 571 233 550 262 550 C289 550 310 573 310 600 C310 625 287 648 262 648 C235 648 212 627 212 600 L212 600 Z M413 600 C413 571 434 550 463 550 C490 550 511 573 511 600 C511 625 488 648 463 648 C436 648 413 627 413 600 L413 600 Z " />
<glyph glyph-name="aring" unicode="&#xe5;" horiz-adv-x="556" d="M388 470 L365 367 L363 367 C356 442 331 482 271 482 C182 482 23 364 23 174 C23 66 84 -12 164 -12 C242 -12 284 62 307 105 L310 103 C306 23 346 -12 390 -12 C467 -12 505 96 543 179 L519 185 C482 92 440 18 409 18 C389 18 378 31 378 53 C378 62 383 85 391 119 L476 470 L388 470 L388 470 Z M339 322 C339 183 250 18 172 18 C132 18 109 41 109 108 C109 248 188 452 276 452 C315 452 339 403 339 322 L339 322 Z M266 633 C266 577 311 534 366 534 C420 534 465 578 465 633 C465 687 421 733 366 733 C310 733 266 688 266 633 L266 633 Z M302 634 C302 668 329 697 365 697 C400 697 429 668 429 634 C429 598 400 570 365 570 C329 570 302 598 302 634 L302 634 Z " />
<glyph glyph-name="ae" unicode="&#xe6;" horiz-adv-x="722" d="M109 110 C109 247 188 452 270 452 C314 452 337 403 337 324 C337 183 250 18 172 18 C132 18 109 47 109 110 L109 110 Z M378 472 L363 388 L361 388 C355 442 331 482 265 482 C182 482 23 371 23 173 C23 72 77 -12 164 -12 C242 -12 306 74 325 108 L327 108 C338 34 385 -12 460 -12 C566 -12 615 63 684 146 L663 167 C616 105 550 18 469 18 C413 18 381 53 381 117 C381 142 385 166 390 190 C639 228 705 315 705 388 C705 445 668 482 596 482 C525 482 459 435 412 367 L410 369 L439 472 L378 472 L378 472 Z M637 394 C637 290 516 233 396 217 C426 368 519 452 580 452 C617 452 637 426 637 394 L637 394 Z " />
<glyph glyph-name="ccedilla" unicode="&#xe7;" horiz-adv-x="444" d="M426 382 C426 449 385 482 304 482 C200 482 18 363 18 179 C18 77 73 14 139 -6 L84 -92 L93 -100 C105 -96 115 -94 127 -94 C158 -94 174 -114 174 -135 C174 -158 152 -176 119 -176 C99 -176 73 -170 51 -160 L34 -190 C52 -202 92 -212 128 -212 C197 -212 246 -179 246 -126 C246 -80 204 -58 168 -58 C159 -58 150 -59 142 -62 L140 -60 L173 -12 L185 -12 C298 -12 358 74 399 169 L375 180 C345 110 288 18 202 18 C132 18 110 52 110 128 C110 232 180 452 314 452 C350 452 378 438 378 426 C378 404 317 416 317 360 C317 328 344 310 366 310 C396 310 426 334 426 382 L426 382 Z " />
<glyph glyph-name="egrave" unicode="&#xe8;" horiz-adv-x="444" d="M24 176 C24 58 102 -12 185 -12 C291 -12 340 63 409 146 L388 167 C341 105 275 18 194 18 C138 18 106 53 106 117 C106 142 110 166 115 190 C364 228 430 315 430 388 C430 445 393 482 310 482 C198 482 24 363 24 176 L24 176 Z M362 394 C362 290 241 233 121 217 C151 368 244 452 305 452 C342 452 362 426 362 394 L362 394 Z M383 534 L285 661 C255 700 247 706 228 706 C209 706 193 692 193 668 C193 647 214 639 270 597 L353 534 L383 534 L383 534 Z " />
<glyph glyph-name="eacute" unicode="&#xe9;" horiz-adv-x="444" d="M24 176 C24 58 102 -12 185 -12 C291 -12 340 63 409 146 L388 167 C341 105 275 18 194 18 C138 18 106 53 106 117 C106 142 110 166 115 190 C364 228 430 315 430 388 C430 445 393 482 310 482 C198 482 24 363 24 176 L24 176 Z M362 394 C362 290 241 233 121 217 C151 368 244 452 305 452 C342 452 362 426 362 394 L362 394 Z M252 534 L287 534 L457 640 C469 648 475 653 475 669 C475 693 459 706 439 706 C425 706 422 701 391 671 L252 534 L252 534 Z " />
<glyph glyph-name="ecircumflex" unicode="&#xea;" horiz-adv-x="444" d="M24 176 C24 58 102 -12 185 -12 C291 -12 340 63 409 146 L388 167 C341 105 275 18 194 18 C138 18 106 53 106 117 C106 142 110 166 115 190 C364 228 430 315 430 388 C430 445 393 482 310 482 C198 482 24 363 24 176 L24 176 Z M362 394 C362 290 241 233 121 217 C151 368 244 452 305 452 C342 452 362 426 362 394 L362 394 Z M314 702 L157 534 L195 534 L333 638 L415 534 L451 534 L363 702 L314 702 L314 702 Z " />
<glyph glyph-name="edieresis" unicode="&#xeb;" horiz-adv-x="444" d="M24 176 C24 58 102 -12 185 -12 C291 -12 340 63 409 146 L388 167 C341 105 275 18 194 18 C138 18 106 53 106 117 C106 142 110 166 115 190 C364 228 430 315 430 388 C430 445 393 482 310 482 C198 482 24 363 24 176 L24 176 Z M362 394 C362 290 241 233 121 217 C151 368 244 452 305 452 C342 452 362 426 362 394 L362 394 Z M179 600 C179 571 200 550 229 550 C256 550 277 573 277 600 C277 625 254 648 229 648 C202 648 179 627 179 600 L179 600 Z M380 600 C380 571 401 550 430 550 C457 550 478 573 478 600 C478 625 455 648 430 648 C403 648 380 627 380 600 L380 600 Z " />
<glyph glyph-name="igrave" unicode="&#xec;" horiz-adv-x="389" d="M338 178 C284 68 240 18 206 18 C180 18 171 33 171 57 C171 120 266 263 266 366 C266 421 232 482 174 482 C99 482 52 400 14 309 L38 301 C78 388 114 452 159 452 C183 452 194 437 194 404 C194 354 170 308 145 259 C120 210 93 158 93 94 C93 40 130 -12 188 -12 C258 -12 316 70 362 168 L338 178 L338 178 Z M309 534 L211 661 C181 700 173 706 154 706 C135 706 119 692 119 668 C119 647 140 639 196 597 L279 534 L309 534 L309 534 Z " />
<glyph glyph-name="iacute" unicode="&#xed;" horiz-adv-x="389" d="M338 178 C284 68 240 18 206 18 C180 18 171 33 171 57 C171 120 266 263 266 366 C266 421 232 482 174 482 C99 482 52 400 14 309 L38 301 C78 388 114 452 159 452 C183 452 194 437 194 404 C194 354 170 308 145 259 C120 210 93 158 93 94 C93 40 130 -12 188 -12 C258 -12 316 70 362 168 L338 178 L338 178 Z M178 534 L213 534 L383 640 C395 648 401 653 401 669 C401 693 385 706 365 706 C351 706 348 701 317 671 L178 534 L178 534 Z " />
<glyph glyph-name="icircumflex" unicode="&#xee;" horiz-adv-x="389" d="M338 178 C284 68 240 18 206 18 C180 18 171 33 171 57 C171 120 266 263 266 366 C266 421 232 482 174 482 C99 482 52 400 14 309 L38 301 C78 388 114 452 159 452 C183 452 194 437 194 404 C194 354 170 308 145 259 C120 210 93 158 93 94 C93 40 130 -12 188 -12 C258 -12 316 70 362 168 L338 178 L338 178 Z M240 702 L83 534 L121 534 L259 638 L341 534 L377 534 L289 702 L240 702 L240 702 Z " />
<glyph glyph-name="idieresis" unicode="&#xef;" horiz-adv-x="389" d="M338 178 C284 68 240 18 206 18 C180 18 171 33 171 57 C171 120 266 263 266 366 C266 421 232 482 174 482 C99 482 52 400 14 309 L38 301 C78 388 114 452 159 452 C183 452 194 437 194 404 C194 354 170 308 145 259 C120 210 93 158 93 94 C93 40 130 -12 188 -12 C258 -12 316 70 362 168 L338 178 L338 178 Z M105 600 C105 571 126 550 155 550 C182 550 203 573 203 600 C203 625 180 648 155 648 C128 648 105 627 105 600 L105 600 Z M306 600 C306 571 327 550 356 550 C383 550 404 573 404 600 C404 625 381 648 356 648 C329 648 306 627 306 600 L306 600 Z " />
<glyph glyph-name="eth" unicode="&#xf0;" horiz-adv-x="500" d="M284 444 C341 444 370 409 370 346 C370 254 318 18 188 18 C135 18 102 57 102 124 C102 208 158 444 284 444 L284 444 Z M331 605 C369 566 385 509 385 435 C359 460 325 474 284 474 C154 474 24 346 24 195 C24 82 82 -12 188 -12 C338 -12 462 116 462 404 C462 500 439 580 377 633 L472 691 L445 718 L345 657 C312 677 269 693 216 700 L200 674 C242 664 275 650 302 631 L202 570 L229 543 L331 605 L331 605 Z " />
<glyph glyph-name="ntilde" unicode="&#xf1;" horiz-adv-x="611" d="M148 0 L179 104 C210 209 304 452 404 452 C429 452 444 437 444 406 C444 372 420 322 396 268 C371 214 347 155 347 101 C347 32 380 -12 432 -12 C496 -12 548 60 598 167 L575 177 C518 60 480 24 452 24 C433 24 419 33 419 64 C419 89 442 142 466 199 C489 256 512 318 512 360 C512 424 486 482 408 482 C333 482 268 388 219 284 L217 286 C222 308 227 343 227 384 C227 438 198 482 146 482 C73 482 24 384 -6 310 L20 301 C52 388 100 452 135 452 C155 452 165 437 165 411 C165 379 133 272 99 140 L63 0 L148 0 L148 0 Z M250 558 C258 590 274 606 301 606 C326 606 352 595 377 583 C402 571 427 560 450 560 C497 560 534 597 549 666 L520 666 C509 632 496 621 462 621 C445 621 425 632 402 643 C379 654 351 664 319 664 C268 664 236 627 221 558 L250 558 L250 558 Z " />
<glyph glyph-name="ograve" unicode="&#xf2;" horiz-adv-x="500" d="M284 482 C154 482 24 352 24 198 C24 84 82 -12 188 -12 C324 -12 448 138 448 272 C448 386 390 482 284 482 L284 482 Z M284 452 C341 452 370 416 370 352 C370 258 318 18 188 18 C135 18 102 58 102 126 C102 212 158 452 284 452 L284 452 Z M376 534 L278 661 C248 700 240 706 221 706 C202 706 186 692 186 668 C186 647 207 639 263 597 L346 534 L376 534 L376 534 Z " />
<glyph glyph-name="oacute" unicode="&#xf3;" horiz-adv-x="500" d="M284 482 C154 482 24 352 24 198 C24 84 82 -12 188 -12 C324 -12 448 138 448 272 C448 386 390 482 284 482 L284 482 Z M284 452 C341 452 370 416 370 352 C370 258 318 18 188 18 C135 18 102 58 102 126 C102 212 158 452 284 452 L284 452 Z M245 534 L280 534 L450 640 C462 648 468 653 468 669 C468 693 452 706 432 706 C418 706 415 701 384 671 L245 534 L245 534 Z " />
<glyph glyph-name="ocircumflex" unicode="&#xf4;" horiz-adv-x="500" d="M284 482 C154 482 24 352 24 198 C24 84 82 -12 188 -12 C324 -12 448 138 448 272 C448 386 390 482 284 482 L284 482 Z M284 452 C341 452 370 416 370 352 C370 258 318 18 188 18 C135 18 102 58 102 126 C102 212 158 452 284 452 L284 452 Z M307 702 L150 534 L188 534 L326 638 L408 534 L444 534 L356 702 L307 702 L307 702 Z " />
<glyph glyph-name="otilde" unicode="&#xf5;" horiz-adv-x="500" d="M284 482 C154 482 24 352 24 198 C24 84 82 -12 188 -12 C324 -12 448 138 448 272 C448 386 390 482 284 482 L284 482 Z M284 452 C341 452 370 416 370 352 C370 258 318 18 188 18 C135 18 102 58 102 126 C102 212 158 452 284 452 L284 452 Z M194 558 C202 590 218 606 245 606 C270 606 296 595 321 583 C346 571 371 560 394 560 C441 560 478 597 493 666 L464 666 C453 632 440 621 406 621 C389 621 369 632 346 643 C323 654 295 664 263 664 C212 664 180 627 165 558 L194 558 L194 558 Z " />
<glyph glyph-name="odieresis" unicode="&#xf6;" horiz-adv-x="500" d="M284 482 C154 482 24 352 24 198 C24 84 82 -12 188 -12 C324 -12 448 138 448 272 C448 386 390 482 284 482 L284 482 Z M284 452 C341 452 370 416 370 352 C370 258 318 18 188 18 C135 18 102 58 102 126 C102 212 158 452 284 452 L284 452 Z M172 600 C172 571 193 550 222 550 C249 550 270 573 270 600 C270 625 247 648 222 648 C195 648 172 627 172 600 L172 600 Z M373 600 C373 571 394 550 423 550 C450 550 471 573 471 600 C471 625 448 648 423 648 C396 648 373 627 373 600 L373 600 Z " />
<glyph glyph-name="divide" unicode="&#xf7;" horiz-adv-x="600" d="M514 208 L514 262 L44 262 L44 208 L514 208 L514 208 Z M223 44 C223 13 248 -12 279 -12 C310 -12 335 13 335 44 C335 75 310 100 279 100 C248 100 223 75 223 44 L223 44 Z M223 426 C223 395 248 370 279 370 C310 370 335 395 335 426 C335 457 310 482 279 482 C248 482 223 457 223 426 L223 426 Z " />
<glyph glyph-name="oslash" unicode="&#xf8;" horiz-adv-x="500" d="M114 65 C106 82 102 102 102 126 C102 212 158 452 284 452 C304 452 321 447 335 437 L114 65 L114 65 Z M359 409 C366 395 370 375 370 352 C370 258 318 18 188 18 C168 18 151 23 138 35 L359 409 L359 409 Z M18 -96 L60 -96 L120 5 C139 -6 162 -12 188 -12 C324 -12 448 138 448 272 C448 344 425 409 381 447 L452 566 L412 566 L352 466 C333 476 310 482 284 482 C154 482 24 352 24 198 C24 127 47 63 90 24 L18 -96 L18 -96 Z " />
<glyph glyph-name="ugrave" unicode="&#xf9;" horiz-adv-x="611" d="M80 101 C80 32 120 -12 188 -12 C276 -12 335 103 360 153 L362 151 C358 130 353 104 353 66 C353 25 384 -12 428 -12 C506 -12 542 78 588 168 L565 181 C516 78 490 24 444 24 C422 24 415 38 415 58 C415 80 431 135 448 195 L528 470 L440 470 L382 268 C354 171 266 24 207 24 C178 24 162 40 162 66 C162 120 252 276 250 368 C249 428 222 482 152 482 C84 482 42 417 3 313 L28 301 C70 404 104 452 147 452 C171 452 182 437 182 406 C182 378 157 324 131 266 C106 208 80 146 80 101 L80 101 Z M432 534 L334 661 C304 700 296 706 277 706 C258 706 242 692 242 668 C242 647 263 639 319 597 L402 534 L432 534 L432 534 Z " />
<glyph glyph-name="uacute" unicode="&#xfa;" horiz-adv-x="611" d="M80 101 C80 32 120 -12 188 -12 C276 -12 335 103 360 153 L362 151 C358 130 353 104 353 66 C353 25 384 -12 428 -12 C506 -12 542 78 588 168 L565 181 C516 78 490 24 444 24 C422 24 415 38 415 58 C415 80 431 135 448 195 L528 470 L440 470 L382 268 C354 171 266 24 207 24 C178 24 162 40 162 66 C162 120 252 276 250 368 C249 428 222 482 152 482 C84 482 42 417 3 313 L28 301 C70 404 104 452 147 452 C171 452 182 437 182 406 C182 378 157 324 131 266 C106 208 80 146 80 101 L80 101 Z M301 534 L336 534 L506 640 C518 648 524 653 524 669 C524 693 508 706 488 706 C474 706 471 701 440 671 L301 534 L301 534 Z " />
<glyph glyph-name="ucircumflex" unicode="&#xfb;" horiz-adv-x="611" d="M80 101 C80 32 120 -12 188 -12 C276 -12 335 103 360 153 L362 151 C358 130 353 104 353 66 C353 25 384 -12 428 -12 C506 -12 542 78 588 168 L565 181 C516 78 490 24 444 24 C422 24 415 38 415 58 C415 80 431 135 448 195 L528 470 L440 470 L382 268 C354 171 266 24 207 24 C178 24 162 40 162 66 C162 120 252 276 250 368 C249 428 222 482 152 482 C84 482 42 417 3 313 L28 301 C70 404 104 452 147 452 C171 452 182 437 182 406 C182 378 157 324 131 266 C106 208 80 146 80 101 L80 101 Z M363 702 L206 534 L244 534 L382 638 L464 534 L500 534 L412 702 L363 702 L363 702 Z " />
<glyph glyph-name="udieresis" unicode="&#xfc;" horiz-adv-x="611" d="M80 101 C80 32 120 -12 188 -12 C276 -12 335 103 360 153 L362 151 C358 130 353 104 353 66 C353 25 384 -12 428 -12 C506 -12 542 78 588 168 L565 181 C516 78 490 24 444 24 C422 24 415 38 415 58 C415 80 431 135 448 195 L528 470 L440 470 L382 268 C354 171 266 24 207 24 C178 24 162 40 162 66 C162 120 252 276 250 368 C249 428 222 482 152 482 C84 482 42 417 3 313 L28 301 C70 404 104 452 147 452 C171 452 182 437 182 406 C182 378 157 324 131 266 C106 208 80 146 80 101 L80 101 Z M228 600 C228 571 249 550 278 550 C305 550 326 573 326 600 C326 625 303 648 278 648 C251 648 228 627 228 600 L228 600 Z M429 600 C429 571 450 550 479 550 C506 550 527 573 527 600 C527 625 504 648 479 648 C452 648 429 627 429 600 L429 600 Z " />
<glyph glyph-name="yacute" unicode="&#xfd;" horiz-adv-x="556" d="M458 470 L405 275 C375 163 280 24 218 24 C190 24 168 36 168 67 C168 90 191 141 215 199 C238 257 262 320 262 366 C262 421 232 482 170 482 C89 482 53 402 11 310 L38 301 C87 404 114 452 159 452 C183 452 194 437 194 406 C194 372 169 318 143 267 C118 217 90 162 90 101 C90 32 132 -12 189 -12 C262 -12 325 52 348 97 L350 95 C306 -116 239 -160 130 -160 C99 -160 87 -155 87 -149 C87 -139 106 -123 106 -94 C106 -69 84 -50 58 -50 C29 -50 8 -73 8 -104 C8 -154 78 -190 148 -190 C316 -190 385 -97 419 23 L544 470 L458 470 L458 470 Z M285 534 L320 534 L490 640 C502 648 508 653 508 669 C508 693 492 706 472 706 C458 706 455 701 424 671 L285 534 L285 534 Z " />
<glyph glyph-name="thorn" unicode="&#xfe;" horiz-adv-x="556" d="M200 -178 L206 -148 C129 -148 122 -142 122 -121 C122 -81 144 -16 166 88 L168 88 C171 30 206 -12 261 -12 C380 -12 515 142 515 284 C515 404 450 482 373 482 C296 482 247 404 224 340 L222 342 L313 676 L142 672 L136 646 C196 645 208 638 208 614 C208 598 200 580 189 535 L54 -19 C25 -138 20 -144 -73 -148 L-78 -178 L200 -178 L200 -178 Z M363 452 C409 452 429 423 429 351 C429 267 378 18 260 18 C219 18 192 45 192 124 C192 250 287 452 363 452 L363 452 Z " />
<glyph glyph-name="ydieresis" unicode="&#xff;" horiz-adv-x="556" d="M458 470 L405 275 C375 163 280 24 218 24 C190 24 168 36 168 67 C168 90 191 141 215 199 C238 257 262 320 262 366 C262 421 232 482 170 482 C89 482 53 402 11 310 L38 301 C87 404 114 452 159 452 C183 452 194 437 194 406 C194 372 169 318 143 267 C118 217 90 162 90 101 C90 32 132 -12 189 -12 C262 -12 325 52 348 97 L350 95 C306 -116 239 -160 130 -160 C99 -160 87 -155 87 -149 C87 -139 106 -123 106 -94 C106 -69 84 -50 58 -50 C29 -50 8 -73 8 -104 C8 -154 78 -190 148 -190 C316 -190 385 -97 419 23 L544 470 L458 470 L458 470 Z M212 600 C212 571 233 550 262 550 C289 550 310 573 310 600 C310 625 287 648 262 648 C235 648 212 627 212 600 L212 600 Z M413 600 C413 571 434 550 463 550 C490 550 511 573 511 600 C511 625 488 648 463 648 C436 648 413 627 413 600 L413 600 Z " />
<glyph glyph-name="dotlessi" unicode="&#x131;" horiz-adv-x="389" d="M338 178 C284 68 240 18 206 18 C180 18 171 33 171 57 C171 120 266 263 266 366 C266 421 232 482 174 482 C99 482 52 400 14 309 L38 301 C78 388 114 452 159 452 C183 452 194 437 194 404 C194 354 170 308 145 259 C120 210 93 158 93 94 C93 40 130 -12 188 -12 C258 -12 316 70 362 168 L338 178 L338 178 Z " />
<glyph glyph-name="Lslash" unicode="&#x141;" horiz-adv-x="611" d="M136 295 L80 84 C70 47 52 34 -37 30 L-44 0 L516 0 L588 252 L557 255 C498 104 415 30 247 30 C199 30 183 48 183 79 C183 97 191 121 201 160 L248 336 L431 405 L434 445 L259 380 L310 572 C330 646 347 658 433 658 L438 688 L137 688 L130 658 C207 658 216 646 216 616 C216 598 208 561 201 536 L148 338 L38 297 L35 257 L136 295 L136 295 Z " />
<glyph glyph-name="lslash" unicode="&#x142;" horiz-adv-x="278" d="M75 344 L29 176 C20 142 14 118 14 88 C14 28 52 -12 105 -12 C196 -12 236 107 269 163 L246 175 C228 141 172 18 122 18 C104 18 92 30 92 50 C92 77 105 125 110 142 L176 388 L254 422 L252 452 L185 423 L253 676 L80 672 L74 646 C128 645 144 638 144 614 C144 596 135 570 130 552 L84 379 L5 345 L7 315 L75 344 L75 344 Z " />
<glyph glyph-name="OE" unicode="&#x152;" horiz-adv-x="944" d="M811 0 L883 252 L852 256 C793 104 710 30 592 30 C540 30 523 40 523 66 C523 86 545 165 556 208 L591 348 C674 348 692 332 692 224 L720 224 L788 502 L755 502 C724 408 688 384 600 384 L651 589 C663 636 700 658 758 658 C847 658 892 606 892 496 C892 480 890 460 890 444 L920 444 L979 688 L474 688 C230 688 38 528 38 293 C38 129 124 0 309 0 L811 0 L811 0 Z M435 126 C422 75 382 36 293 36 C195 36 130 88 130 188 C130 346 208 652 424 652 C506 652 543 629 543 583 C543 561 533 520 526 492 L435 126 L435 126 Z " />
<glyph glyph-name="oe" unicode="&#x153;" horiz-adv-x="778" d="M692 394 C692 290 571 233 451 217 C481 368 574 452 635 452 C672 452 692 426 692 394 L692 394 Z M284 452 C341 452 370 416 370 352 C370 258 318 18 188 18 C138 18 102 52 102 122 C102 206 154 452 284 452 L284 452 Z M718 167 C671 105 605 18 524 18 C468 18 436 53 436 117 C436 142 440 166 445 190 C694 228 760 315 760 388 C760 445 723 482 640 482 C576 482 490 443 428 374 C405 438 355 482 284 482 C154 482 24 360 24 184 C24 80 92 -12 184 -12 C266 -12 324 28 372 85 C399 23 457 -12 515 -12 C621 -12 670 63 739 146 L718 167 L718 167 Z " />
<glyph glyph-name="Scaron" unicode="&#x160;" horiz-adv-x="556" d="M9 0 C13 9 37 47 49 47 C70 47 106 -12 233 -12 C388 -12 504 86 504 214 C504 412 202 396 202 543 C202 625 270 670 343 670 C450 670 498 606 498 494 L498 438 L526 438 L586 688 L554 688 C549 679 531 636 516 636 C503 636 468 700 355 700 C202 700 104 604 104 483 C104 304 406 320 406 166 C406 60 312 18 230 18 C145 18 70 56 70 191 L70 251 L42 251 L-25 0 L9 0 L9 0 Z M414 716 L577 884 L542 884 L399 779 L309 884 L272 884 L368 716 L414 716 L414 716 Z " />
<glyph glyph-name="scaron" unicode="&#x161;" horiz-adv-x="444" d="M374 150 C374 284 156 274 156 372 C156 418 206 452 267 452 C296 452 338 443 338 433 C338 418 308 414 308 384 C308 358 330 339 356 339 C382 339 410 359 410 392 C410 434 366 482 264 482 C166 482 78 432 78 342 C78 203 296 204 296 111 C296 65 249 18 151 18 C107 18 66 42 66 53 C66 69 111 63 111 116 C111 146 91 166 58 166 C21 166 1 139 1 106 C1 48 61 -12 162 -12 C275 -12 374 56 374 150 L374 150 Z M312 534 L475 702 L440 702 L297 597 L207 702 L170 702 L266 534 L312 534 L312 534 Z " />
<glyph glyph-name="Ydieresis" unicode="&#x178;" horiz-adv-x="611" d="M374 0 L382 30 C307 32 293 43 293 78 C293 95 298 114 307 146 L346 288 L593 585 C632 632 661 653 705 658 L711 688 L484 688 L479 658 C538 658 552 648 552 622 C552 592 518 558 506 543 L333 336 L276 562 C272 579 265 595 265 612 C265 639 300 662 355 658 L361 688 L97 688 L93 658 C146 658 157 648 163 624 L244 290 L196 100 C183 49 162 36 82 30 L76 0 L374 0 L374 0 Z M286 782 C286 753 307 732 336 732 C363 732 384 755 384 782 C384 807 361 830 336 830 C309 830 286 809 286 782 L286 782 Z M487 782 C487 753 508 732 537 732 C564 732 585 755 585 782 C585 807 562 830 537 830 C510 830 487 809 487 782 L487 782 Z " />
<glyph glyph-name="Zcaron" unicode="&#x17d;" horiz-adv-x="611" d="M482 0 L555 249 L526 249 C453 94 371 36 163 36 L130 36 L645 670 L650 688 L196 688 L128 444 L158 444 C227 596 283 652 454 652 L509 652 L-5 22 L-10 0 L482 0 L482 0 Z M442 716 L605 884 L570 884 L427 779 L337 884 L300 884 L396 716 L442 716 L442 716 Z " />
<glyph glyph-name="zcaron" unicode="&#x17e;" horiz-adv-x="500" d="M75 305 C94 350 126 404 166 404 C186 404 206 391 231 378 C256 365 286 352 326 352 C374 352 394 359 417 372 L419 370 C376 312 158 236 43 124 C10 92 -8 67 -8 40 C-8 11 7 -4 27 -4 C46 -4 60 10 60 30 C60 53 50 55 50 69 C50 81 63 88 85 88 C112 88 133 63 159 38 C186 13 219 -12 269 -12 C351 -12 421 72 448 182 L419 185 C403 139 382 74 324 74 C297 74 271 87 243 99 C215 112 184 124 146 124 C118 124 75 114 47 99 L45 101 C86 130 136 162 253 221 C410 301 478 374 478 440 C478 463 468 482 446 482 C422 482 414 470 414 455 C414 438 424 428 424 414 C424 403 410 382 386 382 C361 382 343 407 320 432 C297 457 270 482 227 482 C146 482 76 396 50 311 L75 305 L75 305 Z M340 534 L503 702 L468 702 L325 597 L235 702 L198 702 L294 534 L340 534 L340 534 Z " />
<glyph glyph-name="florin" unicode="&#x192;" horiz-adv-x="556" d="M447 418 L328 418 C371 616 400 670 451 670 C470 670 480 664 480 659 C480 653 443 642 443 606 C443 578 461 562 487 562 C521 562 553 588 553 630 C553 665 526 700 456 700 C369 700 279 645 237 418 L131 418 L122 388 L231 388 L160 53 C122 -128 83 -160 42 -160 C25 -160 16 -157 16 -153 C16 -146 52 -131 52 -93 C52 -68 30 -52 11 -52 C-30 -52 -54 -87 -54 -118 C-54 -160 -20 -190 33 -190 C88 -190 196 -160 238 24 L321 388 L439 388 L447 418 L447 418 Z " />
<glyph glyph-name="circumflex" unicode="&#x2c6;" horiz-adv-x="352" d="M245 702 L88 534 L126 534 L264 638 L346 534 L382 534 L294 702 L245 702 L245 702 Z " />
<glyph glyph-name="caron" unicode="&#x2c7;" horiz-adv-x="352" d="M266 534 L429 702 L394 702 L251 597 L161 702 L124 702 L220 534 L266 534 L266 534 Z " />
<glyph glyph-name="uni02C9" unicode="&#x2c9;" horiz-adv-x="352" d="M414 628 L113 628 L102 574 L403 574 L414 628 L414 628 Z " />
<glyph glyph-name="breve" unicode="&#x2d8;" horiz-adv-x="352" d="M392 692 C369 634 323 592 256 592 C193 592 151 627 148 692 L120 692 C120 589 155 534 251 534 C347 534 403 600 421 692 L392 692 L392 692 Z " />
<glyph glyph-name="dotaccent" unicode="&#x2d9;" horiz-adv-x="352" d="M208 600 C208 571 229 550 258 550 C285 550 306 573 306 600 C306 625 283 648 258 648 C231 648 208 627 208 600 L208 600 Z " />
<glyph glyph-name="ring" unicode="&#x2da;" horiz-adv-x="352" d="M164 633 C164 577 209 534 264 534 C318 534 363 578 363 633 C363 687 319 733 264 733 C208 733 164 688 164 633 L164 633 Z M200 634 C200 668 227 697 263 697 C298 697 327 668 327 634 C327 598 298 570 263 570 C227 570 200 598 200 634 L200 634 Z " />
<glyph glyph-name="ogonek" unicode="&#x2db;" horiz-adv-x="352" d="M221 18 C136 0 -25 -30 -25 -144 C-25 -184 17 -212 58 -212 C116 -212 166 -182 218 -153 L204 -127 C171 -146 131 -170 92 -170 C67 -170 47 -155 47 -130 C47 -77 104 -27 221 9 L221 18 L221 18 Z " />
<glyph glyph-name="tilde" unicode="&#x2dc;" horiz-adv-x="352" d="M132 558 C140 590 156 606 183 606 C208 606 234 595 259 583 C284 571 309 560 332 560 C379 560 416 597 431 666 L402 666 C391 632 378 621 344 621 C327 621 307 632 284 643 C261 654 233 664 201 664 C150 664 118 627 103 558 L132 558 L132 558 Z " />
<glyph glyph-name="hungarumlaut" unicode="&#x2dd;" horiz-adv-x="352" d="M255 534 L290 534 L460 640 C472 648 478 653 478 669 C478 693 462 706 442 706 C428 706 425 701 394 671 L255 534 L255 534 Z M104 534 L134 534 L217 597 C273 639 294 647 294 668 C294 692 278 706 259 706 C240 706 232 700 202 661 L104 534 L104 534 Z " />
<glyph glyph-name="uni03A9" unicode="&#x3a9;" horiz-adv-x="728" d="M648 138 L624 139 C583 70 570 62 527 62 L417 62 C511 136 638 244 680 387 C735 581 647 696 481 696 C317 696 154 573 98 379 C52 217 128 117 174 62 L67 62 C28 62 15 73 13 139 L-9 138 L-26 0 L204 0 L217 19 C189 111 146 229 187 372 C249 588 362 667 470 667 C570 667 647 591 587 377 C546 229 417 98 351 18 L352 0 L585 0 L648 138 Z " />
<glyph glyph-name="uni03BC" unicode="&#x3bc;" horiz-adv-x="611" d="M440 470 L382 268 C354 171 266 24 207 24 C178 24 162 40 162 66 C162 120 252 276 250 368 C249 428 222 482 152 482 C84 482 42 417 3 313 L28 301 C70 404 104 452 147 452 C171 452 182 437 182 410 C182 356 -14 -68 -14 -134 C-14 -166 4 -192 38 -192 C112 -192 114 -74 137 -1 C151 -8 168 -12 188 -12 C276 -12 335 103 360 153 L362 151 C358 130 353 104 353 66 C353 25 384 -12 428 -12 C506 -12 542 78 588 168 L565 181 C516 78 490 24 444 24 C422 24 415 38 415 58 C415 80 431 135 448 195 L528 470 L440 470 L440 470 Z " />
<glyph glyph-name="pi" unicode="&#x3c0;" horiz-adv-x="560" d="M559 471 C534 443 520 438 490 438 C393 438 297 441 225 441 C124 442 72 387 33 353 L41 333 C84 360 116 380 183 380 C153 276 83 95 -16 4 L-15 -12 C0 -10 27 -2 46 5 C65 22 148 131 213 358 L218 378 C259 378 321 377 380 376 C352 296 320 206 294 114 C265 14 293 -12 343 -12 C379 -12 424 8 463 54 L455 74 C432 53 417 42 396 42 C363 42 361 75 377 134 C397 204 427 313 450 374 C479 374 503 374 521 378 C538 395 561 425 580 462 L559 471 Z " />
<glyph glyph-name="endash" unicode="&#x2013;" horiz-adv-x="500" d="M-21 208 L491 208 L503 262 L-9 262 L-21 208 L-21 208 Z " />
<glyph glyph-name="emdash" unicode="&#x2014;" horiz-adv-x="1000" d="M-21 208 L991 208 L1003 262 L-9 262 L-21 208 L-21 208 Z " />
<glyph glyph-name="quoteleft" unicode="&#x2018;" horiz-adv-x="222" d="M210 712 C159 667 96 590 96 519 C96 463 127 436 159 436 C196 436 220 464 220 500 C220 557 154 550 154 571 C154 599 200 651 234 688 L210 712 L210 712 Z " />
<glyph glyph-name="quoteright" unicode="&#x2019;" horiz-adv-x="222" d="M128 424 C179 469 242 546 242 617 C242 673 211 700 179 700 C138 700 118 672 118 636 C118 579 184 586 184 565 C184 537 138 485 104 448 L128 424 L128 424 Z " />
<glyph glyph-name="quotesinglbase" unicode="&#x201a;" horiz-adv-x="222" d="M7 -164 C58 -119 121 -42 121 29 C121 85 90 112 58 112 C17 112 -3 84 -3 48 C-3 -9 63 -2 63 -23 C63 -51 17 -103 -17 -140 L7 -164 L7 -164 Z " />
<glyph glyph-name="quotedblleft" unicode="&#x201c;" horiz-adv-x="389" d="M407 712 C356 667 293 590 293 519 C293 463 324 436 356 436 C397 436 417 464 417 500 C417 557 351 550 351 571 C351 599 397 651 431 688 L407 712 L407 712 Z M203 712 C152 667 89 590 89 519 C89 463 120 436 152 436 C193 436 213 464 213 500 C213 557 147 550 147 571 C147 599 193 651 227 688 L203 712 L203 712 Z " />
<glyph glyph-name="quotedblright" unicode="&#x201d;" horiz-adv-x="389" d="M118 424 C169 469 232 546 232 617 C232 673 201 700 169 700 C128 700 108 672 108 636 C108 579 174 586 174 565 C174 537 128 485 94 448 L118 424 L118 424 Z M322 424 C373 469 436 546 436 617 C436 673 405 700 373 700 C332 700 312 672 312 636 C312 579 378 586 378 565 C378 537 332 485 298 448 L322 424 L322 424 Z " />
<glyph glyph-name="quotedblbase" unicode="&#x201e;" horiz-adv-x="389" d="M-15 -164 C36 -119 99 -42 99 29 C99 85 68 112 36 112 C-5 112 -25 84 -25 48 C-25 -9 41 -2 41 -23 C41 -51 -5 -103 -39 -140 L-15 -164 L-15 -164 Z M189 -164 C240 -119 303 -42 303 29 C303 85 272 112 240 112 C199 112 179 84 179 48 C179 -9 245 -2 245 -23 C245 -51 199 -103 165 -140 L189 -164 L189 -164 Z " />
<glyph glyph-name="dagger" unicode="&#x2020;" horiz-adv-x="500" d="M203 65 C219 123 266 250 300 293 C289 326 287 348 287 368 C287 389 294 433 302 460 C393 460 399 428 445 428 C473 428 491 452 491 473 C491 497 472 508 446 508 C409 508 388 478 307 478 C323 572 387 604 387 659 C387 684 370 700 351 700 C317 700 295 676 295 643 C295 616 301 593 301 564 C301 526 292 514 286 478 C196 478 191 508 148 508 C124 508 102 495 102 468 C102 446 118 428 141 428 C186 428 194 460 281 460 C268 394 236 333 200 298 C202 280 201 260 201 235 C201 205 188 103 160 -2 L128 -124 L150 -124 L203 65 L203 65 Z " />
<glyph glyph-name="daggerdbl" unicode="&#x2021;" horiz-adv-x="500" d="M491 473 C491 497 472 508 446 508 C409 508 388 478 307 478 C323 572 387 604 387 659 C387 684 370 700 351 700 C317 700 295 676 295 643 C295 616 301 593 301 564 C301 526 292 514 286 478 C196 478 191 508 148 508 C124 508 102 495 102 468 C102 446 118 428 141 428 C186 428 194 460 281 460 C268 394 236 333 200 298 C208 271 212 251 212 223 C212 197 205 156 198 131 C107 131 101 163 55 163 C27 163 9 139 9 118 C9 94 28 83 54 83 C91 83 112 113 193 113 C177 19 113 -13 113 -68 C113 -93 130 -109 149 -109 C183 -109 205 -85 205 -52 C205 -25 199 -2 199 27 C199 65 208 77 214 113 C304 113 309 83 352 83 C376 83 398 96 398 123 C398 145 382 163 359 163 C314 163 306 131 219 131 C232 197 264 258 300 293 C292 320 288 340 288 368 C288 399 295 430 302 460 C393 460 399 428 445 428 C473 428 491 452 491 473 L491 473 Z " />
<glyph glyph-name="bullet" unicode="&#x2022;" horiz-adv-x="500" d="M418 344 C418 439 341 516 246 516 C149 516 74 439 74 344 C75 248 150 172 246 172 C341 172 418 249 418 344 L418 344 Z " />
<glyph glyph-name="ellipsis" unicode="&#x2026;" horiz-adv-x="1000" d="M52 50 C52 17 77 -6 110 -6 C142 -6 168 18 168 50 C168 81 141 106 110 106 C78 106 52 82 52 50 L52 50 Z M385 50 C385 17 410 -6 443 -6 C475 -6 501 18 501 50 C501 81 474 106 443 106 C411 106 385 82 385 50 L385 50 Z M718 50 C718 17 743 -6 776 -6 C808 -6 834 18 834 50 C834 81 807 106 776 106 C744 106 718 82 718 50 L718 50 Z " />
<glyph glyph-name="perthousand" unicode="&#x2030;" horiz-adv-x="944" d="M135 317 C109 317 91 337 91 392 C91 480 151 662 220 662 C246 662 263 638 263 594 C263 486 201 317 135 317 L135 317 Z M134 291 C241 291 317 432 317 545 C317 638 276 688 220 688 C138 688 37 568 37 427 C37 340 77 291 134 291 L134 291 Z M437 26 C411 26 393 46 393 101 C393 189 453 371 522 371 C548 371 565 347 565 303 C565 195 503 26 437 26 L437 26 Z M436 0 C543 0 619 141 619 254 C619 347 578 397 522 397 C440 397 339 277 339 136 C339 49 379 0 436 0 L436 0 Z M741 26 C715 26 697 46 697 101 C697 189 757 371 826 371 C852 371 869 347 869 303 C869 195 807 26 741 26 L741 26 Z M740 0 C847 0 923 141 923 254 C923 347 882 397 826 397 C744 397 643 277 643 136 C643 49 683 0 740 0 L740 0 Z M118 -12 L159 -12 L543 700 L502 700 L118 -12 L118 -12 Z " />
<glyph glyph-name="guilsinglleft" unicode="&#x2039;" horiz-adv-x="333" d="M44 229 C117 154 173 54 184 54 C191 54 196 58 196 64 C196 74 150 156 115 230 C140 254 272 392 272 409 C272 412 269 416 262 416 C249 416 172 333 44 241 L44 229 L44 229 Z " />
<glyph glyph-name="guilsinglright" unicode="&#x203a;" horiz-adv-x="333" d="M270 241 C197 316 141 416 130 416 C123 416 118 412 118 406 C118 396 164 314 199 240 C174 216 42 78 42 61 C42 58 45 54 52 54 C65 54 142 137 270 229 L270 241 L270 241 Z " />
<glyph glyph-name="fraction" unicode="&#x2044;" horiz-adv-x="167" d="M334 700 L279 700 L-167 -12 L-112 -12 L334 700 L334 700 Z " />
<glyph glyph-name="Euro" unicode="&#x20ac;" horiz-adv-x="556" d="M412 308 L187 308 C190 335 195 364 201 392 L432 392 L444 422 L208 422 C241 549 306 667 421 667 C533 667 557 559 556 482 L582 482 L622 684 L599 684 C584 659 574 632 566 632 C556 632 524 700 425 700 C292 700 156 576 103 422 L35 422 L23 392 L93 392 C86 365 82 336 80 308 L14 308 L2 278 L79 278 C82 107 177 -12 301 -12 C409 -12 488 78 534 213 L500 216 C458 99 398 22 308 22 C243 22 180 64 180 204 C180 226 182 251 184 278 L400 278 L412 308 Z " />
<glyph glyph-name="afii61289" unicode="&#x2113;" horiz-adv-x="403" d="M315 114 C276 74 232 42 185 42 C128 42 105 78 143 212 L170 306 C276 390 367 483 401 602 C421 672 410 733 352 733 C321 733 290 718 257 688 C199 638 175 585 127 419 L91 292 L2 234 L8 211 L81 257 L57 173 C34 92 35 57 50 29 C63 4 91 -10 137 -10 C207 -10 271 28 329 98 L315 114 Z M220 479 C266 642 297 703 335 703 C366 703 369 659 353 600 C327 512 259 417 182 349 L220 479 Z " />
<glyph glyph-name="trademark" unicode="&#x2122;" horiz-adv-x="990" d="M332 284 L332 304 C288 308 282 315 282 343 L282 668 L331 668 C367 668 387 654 403 598 L421 598 L421 688 L82 688 L82 598 L100 598 C116 654 136 668 172 668 L220 668 L220 343 C220 315 214 308 170 304 L170 284 L332 284 L332 284 Z M714 284 L723 284 L878 595 L880 595 L880 343 C880 315 874 308 830 304 L830 284 L993 284 L993 304 C949 308 942 315 942 343 L942 610 C942 645 956 665 1000 667 L1000 688 L902 688 L738 373 L581 688 L466 688 L466 667 C495 667 524 647 536 617 L536 368 C536 323 523 308 482 304 L482 284 L612 284 L612 304 C571 308 558 323 558 368 L558 592 L562 592 L714 284 L714 284 Z " />
<glyph glyph-name="Omega" unicode="&#x2126;" horiz-adv-x="728" d="M648 138 L624 139 C583 70 570 62 527 62 L417 62 C511 136 638 244 680 387 C735 581 647 696 481 696 C317 696 154 573 98 379 C52 217 128 117 174 62 L67 62 C28 62 15 73 13 139 L-9 138 L-26 0 L204 0 L217 19 C189 111 146 229 187 372 C249 588 362 667 470 667 C570 667 647 591 587 377 C546 229 417 98 351 18 L352 0 L585 0 L648 138 Z " />
<glyph glyph-name="estimated" unicode="&#x212e;" horiz-adv-x="973" d="M939 334 L939 343 C939 540 763 698 544 698 C326 698 150 540 150 343 C150 147 326 -11 544 -11 C671 -11 786 43 856 126 L799 126 C737 55 647 9 545 9 C450 9 365 50 303 114 C298 120 295 127 295 136 L295 329 C295 332 297 334 300 334 L939 334 Z M794 359 C794 357 793 352 790 352 L300 352 C297 352 295 357 295 359 L295 549 C295 559 298 567 304 573 C366 636 451 677 545 677 C639 677 723 637 785 576 C791 570 794 562 794 553 L794 359 Z " />
<glyph glyph-name="partialdiff" unicode="&#x2202;" horiz-adv-x="525" d="M300 430 C237 430 168 398 120 356 C77 318 34 259 14 191 C-20 66 29 -10 138 -10 C232 -10 315 53 382 143 C439 219 480 321 501 395 C518 454 537 550 519 626 C499 714 450 766 356 766 C298 766 246 747 205 725 C190 703 201 665 217 667 C261 696 317 723 368 723 C432 723 468 670 474 622 C480 570 471 514 455 463 C444 425 430 390 418 358 C398 408 347 430 301 430 L300 430 Z M309 392 C364 392 394 344 399 317 C365 237 340 185 294 124 C256 73 202 20 146 20 C82 20 61 80 83 153 C102 220 135 287 179 333 C224 377 266 392 308 392 L309 392 Z " />
<glyph glyph-name="Delta" unicode="&#x2206;" horiz-adv-x="629" d="M509 0 L515 23 L444 696 L405 685 L-42 23 L-48 0 L509 0 Z M423 44 L15 44 L370 579 L423 44 Z " />
<glyph glyph-name="product" unicode="&#x220f;" horiz-adv-x="788" d="M761 688 L140 688 L140 663 C226 657 231 652 231 598 L231 14 C231 -49 223 -55 144 -62 L144 -86 L386 -86 L386 -62 C309 -55 309 -47 309 14 L309 628 C309 653 314 656 342 656 L559 656 C588 656 594 653 594 624 L594 14 C594 -52 588 -56 509 -62 L509 -86 L759 -86 L759 -62 C678 -56 671 -48 671 14 L671 598 C671 651 676 657 761 663 L761 688 Z " />
<glyph glyph-name="summation" unicode="&#x2211;" horiz-adv-x="661" d="M638 93 L612 100 C572 -15 560 -20 474 -20 L213 -20 L436 333 L247 657 L447 657 C522 657 537 649 550 626 C563 606 574 573 582 525 L608 530 C603 593 597 670 596 688 L147 688 L147 665 L367 282 L142 -67 L142 -89 L596 -89 L638 93 Z " />
<glyph glyph-name="minus" unicode="&#x2212;" horiz-adv-x="600" d="M514 208 L514 262 L44 262 L44 208 L514 208 L514 208 Z " />
<glyph glyph-name="uni2215" unicode="&#x2215;" horiz-adv-x="167" d="M334 700 L279 700 L-167 -12 L-112 -12 L334 700 L334 700 Z " />
<glyph glyph-name="uni2219" unicode="&#x2219;" horiz-adv-x="278" d="M76 235 C76 203 102 177 134 177 C166 177 192 203 192 235 C192 267 166 293 134 293 C102 293 76 267 76 235 L76 235 Z " />
<glyph glyph-name="radical" unicode="&#x221a;" horiz-adv-x="660" d="M643 883 L607 893 L470 8 L468 8 L297 454 L147 383 L158 352 L244 394 L461 -154 L480 -144 L643 883 Z " />
<glyph glyph-name="infinity" unicode="&#x221e;" horiz-adv-x="789" d="M741 285 C741 374 682 435 599 436 C517 436 468 376 420 322 C369 383 314 436 242 436 C154 436 89 370 89 280 C89 193 156 128 235 128 C313 128 366 183 416 242 C483 163 533 128 592 128 C669 128 741 188 741 284 L741 285 Z M241 178 C182 178 142 223 141 279 C141 338 176 387 236 387 C304 387 346 331 388 279 C349 236 303 178 243 178 L241 178 Z M593 387 C649 387 689 347 689 280 C689 231 655 178 595 178 C544 178 508 212 446 283 C479 318 529 387 592 387 L593 387 Z " />
<glyph glyph-name="integral" unicode="&#x222b;" horiz-adv-x="481" d="M277 18 C282 -84 265 -151 234 -151 C213 -151 212 -106 186 -106 C160 -106 138 -125 139 -149 C139 -173 162 -194 196 -194 C281 -194 361 -116 344 245 L326 630 C320 768 348 799 370 799 C393 799 390 756 421 756 C442 756 461 769 461 796 C461 826 428 840 404 840 C320 840 242 766 258 429 L277 18 Z " />
<glyph glyph-name="approxequal" unicode="&#x2248;" horiz-adv-x="576" d="M500 425 C473 379 448 353 409 353 C376 353 355 367 321 386 C295 401 261 425 214 425 C158 425 108 388 79 332 L114 303 C138 341 164 374 208 374 C240 374 267 359 296 342 C341 316 368 302 408 302 C466 302 507 343 534 395 L500 425 Z M500 258 C472 212 448 186 410 186 C375 186 351 203 321 220 C295 234 262 258 214 258 C158 258 108 221 79 165 L114 136 C137 173 163 208 209 208 C240 208 267 193 296 175 C341 150 368 136 408 136 C466 136 507 177 534 229 L500 258 Z " />
<glyph glyph-name="notequal" unicode="&#x2260;" horiz-adv-x="600" d="M448 492 L406 510 L356 399 L111 399 L111 348 L335 348 L273 209 L111 209 L111 158 L251 158 L209 63 L250 45 L301 158 L552 158 L552 209 L322 209 L385 348 L552 348 L552 399 L406 399 L448 492 Z " />
<glyph glyph-name="lessequal" unicode="&#x2264;" horiz-adv-x="622" d="M572 99 L572 160 L194 343 L194 345 L572 526 L572 588 L139 371 L139 316 L572 99 Z M575 6 L575 60 L134 60 L134 6 L575 6 Z " />
<glyph glyph-name="greaterequal" unicode="&#x2265;" horiz-adv-x="622" d="M140 588 L140 526 L517 344 L517 342 L140 160 L140 99 L573 316 L573 371 L140 588 Z M574 6 L574 60 L134 60 L134 6 L574 6 Z " />
<glyph glyph-name="lozenge" unicode="&#x25ca;" horiz-adv-x="667" d="M620 332 L423 735 L364 735 L165 332 L362 -69 L423 -69 L620 332 Z M561 332 L395 -13 L392 -13 L225 333 L392 677 L395 677 L561 332 Z " />
<glyph glyph-name="fi" unicode="&#xfb01;" horiz-adv-x="556" d="M386 440 L351 306 C334 240 305 133 305 90 C305 40 342 -12 400 -12 C470 -12 528 70 574 168 L550 178 C496 68 452 18 418 18 C392 18 383 33 383 60 C383 97 399 144 408 179 L483 470 L202 470 C221 600 303 658 390 658 C404 658 417 658 425 650 C417 644 413 632 413 619 C413 594 432 576 457 576 C488 576 505 599 505 628 C505 661 471 688 399 688 C278 688 162 586 121 470 L27 470 L20 440 L109 440 L92 379 C76 321 61 180 34 16 C21 -62 -17 -160 -105 -160 C-131 -160 -135 -157 -135 -151 C-135 -140 -110 -141 -110 -100 C-110 -79 -126 -59 -158 -59 C-191 -59 -212 -87 -212 -112 C-212 -159 -166 -190 -120 -190 C-17 -190 74 -99 118 44 C157 171 178 330 197 440 L386 440 L386 440 Z " />
<glyph glyph-name="fl" unicode="&#xfb02;" horiz-adv-x="556" d="M393 440 L323 176 C314 142 308 118 308 88 C308 28 346 -12 399 -12 C490 -12 530 107 563 163 L540 175 C522 141 466 18 416 18 C398 18 386 30 386 50 C386 77 399 125 404 142 L547 676 L472 674 C453 686 433 688 410 688 C289 688 173 586 132 470 L38 470 L31 440 L120 440 L103 379 C87 321 72 180 45 16 C32 -62 -6 -160 -94 -160 C-120 -160 -124 -157 -124 -151 C-124 -140 -99 -141 -99 -100 C-99 -79 -115 -59 -147 -59 C-180 -59 -201 -87 -201 -112 C-201 -159 -155 -190 -106 -190 C52 -190 131 -11 173 241 L206 440 L393 440 L393 440 Z M210 470 C237 596 313 658 402 658 C414 658 428 653 431 646 C423 638 419 628 419 616 C419 603 424 592 432 586 L401 470 L210 470 L210 470 Z " />
</font>
</svg>
