<?xml version="1.0" encoding="UTF-8"?>
<svg xmlns="http://www.w3.org/2000/svg" xmlns:xlink="http://www.w3.org/1999/xlink" version="1.2" >
<font id="ITC Century Std Bold Italic">
<font-face  font-family="ITC Century Std" units-per-em="1000" ascent="688" descent="-312" font-style="italic" font-weight="700" font-stretch="normal" slope="-16" cap-height="688" x-height="470" underline-position="-75" underline-thickness="50" />
<missing-glyph  horiz-adv-x="596" d="M96 0 L596 0 L596 700 L96 700 L96 0 Z M346 395 L176 650 L516 650 L346 395 Z M376 350 L546 605 L546 95 L376 350 Z M176 50 L346 305 L516 50 L176 50 Z M146 605 L316 350 L146 95 L146 605 Z " />
<glyph glyph-name="NULL" d="" />
<glyph glyph-name="CR" unicode="&#xd;" horiz-adv-x="250" d="" />
<glyph glyph-name="space" unicode="&#x20;" horiz-adv-x="287" d="" />
<glyph glyph-name="exclam" unicode="&#x21;" horiz-adv-x="370" d="M166 206 C211 381 334 519 334 620 C334 678 310 700 260 700 C202 700 148 621 148 525 C148 360 137 283 118 206 L166 206 L166 206 Z M30 62 C30 20 63 -12 104 -12 C145 -12 178 20 178 62 C178 104 145 136 104 136 C63 136 30 104 30 62 L30 62 Z " />
<glyph glyph-name="quotedbl" unicode="&#x22;" horiz-adv-x="333" d="M148 596 C150 616 152 630 152 642 C152 680 133 700 102 700 C71 700 52 680 52 642 C52 630 54 616 56 596 L72 428 C74 402 87 388 102 388 C117 388 130 402 132 428 L148 596 L148 596 Z M328 596 C330 616 332 630 332 642 C332 680 313 700 282 700 C251 700 232 680 232 642 C232 630 234 616 236 596 L252 428 C254 402 267 388 282 388 C297 388 310 402 312 428 L328 596 L328 596 Z " />
<glyph glyph-name="numbersign" unicode="&#x23;" horiz-adv-x="574" d="M500 285 L423 285 L439 403 L530 403 L530 491 L452 491 L479 688 L387 688 L360 491 L264 491 L291 688 L199 688 L172 491 L74 491 L74 403 L159 403 L143 285 L44 285 L44 197 L130 197 L103 0 L195 0 L222 197 L318 197 L291 0 L383 0 L410 197 L500 197 L500 285 L500 285 Z M347 403 L331 285 L235 285 L251 403 L347 403 L347 403 Z " />
<glyph glyph-name="dollar" unicode="&#x24;" horiz-adv-x="574" d="M150 -68 L196 -68 L218 6 C349 16 476 100 476 243 C476 341 407 395 332 444 L384 640 C411 640 453 633 466 605 C442 595 408 586 408 535 C408 493 433 466 476 466 C521 466 546 505 546 548 C546 630 464 672 396 682 L418 766 L372 766 L350 684 C243 676 120 601 120 480 C120 392 181 348 248 299 L184 52 C133 52 68 98 68 125 C68 132 71 133 75 133 C80 133 87 130 92 130 C122 130 166 144 166 198 C166 236 138 264 100 264 C47 264 16 218 16 166 C16 83 91 15 173 9 L150 -68 L150 -68 Z M286 270 C319 243 348 221 348 175 C348 112 291 58 230 54 L286 270 L286 270 Z M292 469 C261 488 248 508 248 545 C248 596 289 632 338 638 L292 469 L292 469 Z " />
<glyph glyph-name="percent" unicode="&#x25;" horiz-adv-x="889" d="M118 362 C118 406 174 678 262 678 C282 678 294 666 294 638 C294 594 238 322 150 322 C130 322 118 334 118 362 L118 362 Z M672 700 L612 700 L124 -12 L184 -12 L672 700 L672 700 Z M504 50 C504 94 560 366 648 366 C668 366 680 354 680 326 C680 282 624 10 536 10 C516 10 504 22 504 50 L504 50 Z M38 442 C38 348 88 300 150 300 C270 300 374 438 374 558 C374 652 324 700 262 700 C142 700 38 562 38 442 L38 442 Z M424 130 C424 36 474 -12 536 -12 C656 -12 760 126 760 246 C760 340 710 388 648 388 C528 388 424 250 424 130 L424 130 Z " />
<glyph glyph-name="ampersand" unicode="&#x26;" horiz-adv-x="833" d="M188 189 C188 248 218 297 266 330 C298 236 350 151 410 74 C383 54 356 40 322 40 C258 40 188 94 188 189 L188 189 Z M374 507 C374 612 412 658 484 658 C533 658 556 631 556 584 C556 493 464 441 388 418 C379 448 374 477 374 507 L374 507 Z M512 336 C566 334 583 324 583 290 C583 251 542 191 518 162 C468 226 431 302 400 380 C493 416 644 451 644 578 C644 658 562 700 485 700 C344 700 236 617 236 457 C236 432 247 396 252 372 C154 342 40 297 40 176 C40 70 157 -12 273 -12 C336 -12 387 2 441 41 C467 13 516 -6 554 -6 C646 -6 700 68 738 150 L706 172 C670 112 650 82 613 82 C585 82 564 105 546 124 C578 160 591 193 627 251 C661 306 686 334 766 336 L776 378 L522 378 L512 336 L512 336 Z " />
<glyph glyph-name="quotesingle" unicode="&#x27;" horiz-adv-x="222" d="M190 596 C192 616 194 630 194 642 C194 680 175 700 144 700 C113 700 94 680 94 642 C94 630 96 616 98 596 L114 428 C116 402 129 388 144 388 C159 388 172 402 174 428 L190 596 L190 596 Z " />
<glyph glyph-name="parenleft" unicode="&#x28;" horiz-adv-x="463" d="M494 700 C234 680 20 440 20 161 C20 -33 132 -168 278 -182 L284 -144 C194 -134 132 -63 132 96 C132 345 276 631 488 658 L494 700 L494 700 Z " />
<glyph glyph-name="parenright" unicode="&#x29;" horiz-adv-x="463" d="M-104 -182 C156 -162 370 78 370 357 C370 551 258 686 112 700 L106 662 C196 652 258 581 258 422 C258 173 114 -113 -98 -140 L-104 -182 L-104 -182 Z " />
<glyph glyph-name="asterisk" unicode="&#x2a;" horiz-adv-x="519" d="M338 700 C305 700 282 677 282 642 C282 602 306 574 292 516 L282 512 C218 553 245 654 168 654 C136 654 122 628 122 602 C122 550 205 558 270 500 L268 494 C225 469 182 496 142 496 C111 496 82 480 82 445 C82 417 105 394 133 394 C182 394 197 455 270 474 L276 466 C267 391 202 376 202 320 C202 296 224 276 248 276 C281 276 304 299 304 334 C304 374 280 402 294 460 L304 464 C371 420 337 322 422 322 C444 322 464 351 464 372 C464 435 381 418 316 476 L318 482 C361 507 404 480 444 480 C475 480 504 496 504 531 C504 559 481 582 453 582 C404 582 389 521 316 502 L310 510 C319 585 384 600 384 656 C384 680 362 700 338 700 L338 700 Z " />
<glyph glyph-name="plus" unicode="&#x2b;" horiz-adv-x="600" d="M249 286 L65 286 L65 184 L249 184 L249 0 L351 0 L351 184 L535 184 L535 286 L351 286 L351 470 L249 470 L249 286 L249 286 Z " />
<glyph glyph-name="comma" unicode="&#x2c;" horiz-adv-x="287" d="M0 -222 C84 -166 172 -50 172 41 C172 108 130 146 89 146 C47 146 14 109 14 68 C14 18 43 -6 98 -6 C96 -96 5 -163 -30 -184 L0 -222 L0 -222 Z " />
<glyph glyph-name="hyphen" unicode="&#x2d;" horiz-adv-x="333" d="M268 280 L18 280 L-2 190 L248 190 L268 280 L268 280 Z " />
<glyph glyph-name="period" unicode="&#x2e;" horiz-adv-x="287" d="M14 67 C14 23 45 -12 93 -12 C141 -12 172 23 172 67 C172 111 141 146 93 146 C45 146 14 111 14 67 L14 67 Z " />
<glyph glyph-name="slash" unicode="&#x2f;" horiz-adv-x="278" d="M-18 -12 L416 700 L296 700 L-138 -12 L-18 -12 L-18 -12 Z " />
<glyph glyph-name="zero" unicode="0" horiz-adv-x="574" d="M22 240 C22 76 96 -12 198 -12 C392 -12 540 256 540 448 C540 612 466 700 364 700 C170 700 22 432 22 240 L22 240 Z M418 582 C418 467 319 30 196 30 C165 30 144 52 144 106 C144 221 243 658 366 658 C397 658 418 636 418 582 L418 582 Z " />
<glyph glyph-name="one" unicode="1" horiz-adv-x="574" d="M392 0 L402 42 C317 44 300 58 300 87 C300 114 440 613 460 688 L408 688 C338 654 256 632 166 626 L156 586 L278 582 L152 117 C141 77 106 44 -4 42 L-14 0 L392 0 L392 0 Z " />
<glyph glyph-name="two" unicode="2" horiz-adv-x="574" d="M284 571 C264 535 225 458 174 458 C151 458 132 478 132 501 C132 560 204 648 298 648 C356 648 388 622 388 546 C388 334 -32 232 -32 41 C-32 10 -16 -6 5 -6 C32 -6 46 14 46 51 C46 65 44 78 44 92 C44 99 46 102 58 102 C122 102 140 -12 270 -12 C366 -12 422 58 480 250 L446 268 C417 195 386 142 297 142 C254 142 215 166 156 166 C130 166 107 159 82 154 L80 156 C276 338 542 326 542 531 C542 634 450 700 332 700 C200 700 90 604 90 497 C90 444 136 410 171 410 C246 410 290 493 319 550 L284 571 L284 571 Z " />
<glyph glyph-name="three" unicode="3" horiz-adv-x="574" d="M285 575 C243 501 218 462 166 462 C146 462 132 477 132 502 C132 574 227 652 301 652 C360 652 398 625 398 559 C398 466 316 374 258 374 C240 374 222 380 204 380 C180 380 148 375 148 345 C148 331 169 318 194 318 C220 318 240 328 268 328 C305 328 326 299 326 241 C326 152 252 36 143 36 C92 36 36 64 34 124 C47 111 65 102 83 102 C125 102 154 134 154 176 C154 219 122 250 80 250 C30 250 -18 210 -18 130 C-18 46 58 -12 176 -12 C340 -12 480 106 480 219 C480 304 424 335 351 356 L351 358 C440 379 546 441 546 544 C546 618 476 700 330 700 C170 700 84 580 84 499 C84 444 118 414 162 414 C222 414 276 458 316 553 L285 575 L285 575 Z " />
<glyph glyph-name="four" unicode="4" horiz-adv-x="574" d="M220 688 C207 532 171 374 80 244 C67 245 54 248 37 248 C14 248 -8 236 -8 214 C-8 194 6 184 26 184 C46 184 69 200 96 200 C127 200 199 132 262 112 L210 -90 L344 -90 L398 112 C446 129 487 163 522 202 L500 226 C473 203 445 182 412 170 L500 510 L366 510 L280 182 C240 196 192 222 132 230 C232 328 341 511 374 688 L220 688 L220 688 Z " />
<glyph glyph-name="five" unicode="5" horiz-adv-x="574" d="M118 324 C144 364 188 394 235 394 C303 394 328 346 328 277 C328 164 259 30 149 30 C82 30 48 71 48 96 C48 109 51 114 56 114 C60 114 66 100 95 100 C136 100 164 127 164 162 C164 205 136 234 94 234 C42 234 0 192 0 132 C0 40 68 -12 164 -12 C328 -12 482 106 482 266 C482 356 394 446 281 446 C206 446 172 422 152 402 L150 404 L194 544 C230 539 266 534 302 534 C414 534 500 582 578 676 L554 700 C502 668 442 660 364 660 C294 660 265 672 192 688 L82 336 L118 324 L118 324 Z " />
<glyph glyph-name="six" unicode="6" horiz-adv-x="574" d="M36 225 C36 72 132 -12 226 -12 C374 -12 496 116 496 250 C496 370 412 438 338 438 C278 438 253 420 223 390 L221 392 C250 508 294 658 410 658 C442 658 464 650 464 644 C464 641 400 638 400 568 C400 526 430 500 474 500 C508 500 548 534 548 592 C548 648 504 700 416 700 C217 700 36 480 36 225 L36 225 Z M305 390 C346 390 358 364 358 327 C358 255 308 26 222 26 C190 26 164 42 164 107 C164 218 223 390 305 390 L305 390 Z " />
<glyph glyph-name="seven" unicode="7" horiz-adv-x="574" d="M112 410 C158 546 198 566 257 566 C292 566 308 552 377 552 C428 552 471 565 512 596 L514 594 C444 504 122 284 122 82 C122 18 146 -12 198 -12 C252 -12 276 20 276 148 C276 338 594 594 594 666 C594 688 584 700 560 700 C534 700 530 680 530 667 C530 644 526 634 515 634 C482 634 424 700 342 700 C266 700 219 651 166 588 L164 590 L194 688 L154 688 L74 420 L112 410 L112 410 Z " />
<glyph glyph-name="eight" unicode="8" horiz-adv-x="574" d="M10 161 C10 40 115 -12 225 -12 C352 -12 492 62 492 211 C492 298 426 348 388 380 L388 382 C462 405 544 444 544 535 C544 624 480 700 342 700 C206 700 100 616 100 490 C100 428 140 370 190 340 C106 314 10 266 10 161 L10 161 Z M108 151 C108 232 159 280 230 312 C271 277 358 222 358 159 C358 78 302 30 223 30 C150 30 108 81 108 151 L108 151 Z M228 555 C228 620 278 658 342 658 C424 658 458 614 458 546 C458 473 410 436 348 408 C298 446 228 472 228 555 L228 555 Z " />
<glyph glyph-name="nine" unicode="9" horiz-adv-x="574" d="M214 380 C214 448 258 662 351 662 C381 662 398 643 398 606 C398 472 356 308 264 308 C234 308 214 328 214 380 L214 380 Z M83 210 C34 210 0 174 0 119 C0 40 72 -12 158 -12 C354 -12 532 203 532 476 C532 612 458 700 336 700 C206 700 70 583 70 437 C70 342 123 256 226 256 C271 256 308 276 342 298 L344 296 C290 95 238 30 144 30 C112 30 68 51 67 71 C72 69 76 69 81 69 C110 69 154 89 154 139 C154 178 130 210 83 210 L83 210 Z " />
<glyph glyph-name="colon" unicode="&#x3a;" horiz-adv-x="287" d="M14 67 C14 23 45 -12 93 -12 C141 -12 172 23 172 67 C172 111 141 146 93 146 C45 146 14 111 14 67 L14 67 Z M90 371 C90 327 121 292 169 292 C217 292 248 327 248 371 C248 415 217 450 169 450 C121 450 90 415 90 371 L90 371 Z " />
<glyph glyph-name="semicolon" unicode="&#x3b;" horiz-adv-x="287" d="M0 -222 C84 -166 172 -50 172 41 C172 108 130 146 89 146 C47 146 14 109 14 68 C14 18 43 -6 98 -6 C96 -96 5 -163 -30 -184 L0 -222 L0 -222 Z M90 371 C90 327 121 292 169 292 C217 292 248 327 248 371 C248 415 217 450 169 450 C121 450 90 415 90 371 L90 371 Z " />
<glyph glyph-name="less" unicode="&#x3c;" horiz-adv-x="600" d="M535 94 L199 235 L535 376 L535 478 L65 278 L65 192 L535 -8 L535 94 L535 94 Z " />
<glyph glyph-name="equal" unicode="&#x3d;" horiz-adv-x="600" d="M535 386 L65 386 L65 284 L535 284 L535 386 L535 386 Z M535 186 L65 186 L65 84 L535 84 L535 186 L535 186 Z " />
<glyph glyph-name="greater" unicode="&#x3e;" horiz-adv-x="600" d="M65 376 L401 235 L65 94 L65 -8 L535 192 L535 278 L65 478 L65 376 L65 376 Z " />
<glyph glyph-name="question" unicode="&#x3f;" horiz-adv-x="519" d="M271 281 C258 260 233 222 204 222 C176 222 164 243 164 264 C164 404 502 316 502 532 C502 632 399 700 288 700 C181 700 94 630 94 537 C94 504 100 471 122 445 L162 468 C149 489 142 506 142 528 C142 596 194 648 258 648 C310 648 354 611 354 555 C354 352 116 424 116 264 C116 206 156 174 194 174 C242 174 290 212 306 257 L271 281 L271 281 Z M74 67 C74 23 105 -12 153 -12 C201 -12 232 23 232 67 C232 111 201 146 153 146 C105 146 74 111 74 67 L74 67 Z " />
<glyph glyph-name="at" unicode="&#x40;" horiz-adv-x="800" d="M504 410 C504 324 456 212 397 212 C368 212 348 233 348 285 C348 390 410 470 460 470 C486 470 504 456 504 410 L504 410 Z M528 482 C511 516 488 532 450 532 C319 532 254 366 254 277 C254 188 300 150 353 150 C415 150 464 208 471 225 L473 225 C474 202 503 150 566 150 C689 150 758 291 758 396 C758 570 610 700 419 700 C215 700 42 551 42 328 C42 190 160 -12 430 -12 C510 -12 580 17 643 52 L633 112 C574 82 520 62 429 62 C294 62 164 170 164 318 C164 546 307 626 419 626 C582 626 682 507 682 395 C682 311 630 198 582 198 C559 198 553 217 553 238 C553 251 555 264 559 280 L617 516 L538 516 L528 482 L528 482 Z " />
<glyph glyph-name="A" unicode="A" horiz-adv-x="704" d="M156 0 L166 42 C88 42 76 49 76 71 C76 89 94 115 103 128 L168 224 L382 224 L385 188 C388 155 396 121 396 87 C396 62 372 40 302 42 L292 0 L626 0 L636 42 C574 44 561 56 556 94 L474 694 L422 694 L60 154 C13 83 -4 52 -90 42 L-100 0 L156 0 L156 0 Z M346 486 L374 276 L202 276 L346 486 L346 486 Z " />
<glyph glyph-name="B" unicode="B" horiz-adv-x="741" d="M114 646 C184 645 195 631 195 607 C195 595 186 571 181 551 L57 94 C48 59 22 44 -54 42 L-64 0 L370 0 C544 0 650 86 650 203 C650 278 596 348 470 364 L470 366 C608 374 698 436 698 537 C698 632 612 688 468 688 L124 688 L114 646 L114 646 Z M356 340 C438 340 474 304 474 229 C474 102 388 38 287 38 C240 38 224 58 224 89 C224 117 231 137 237 158 L288 340 L356 340 L356 340 Z M299 382 L350 574 C363 622 390 646 441 646 C498 646 530 618 530 558 C530 460 460 382 366 382 L299 382 L299 382 Z " />
<glyph glyph-name="C" unicode="C" horiz-adv-x="741" d="M688 682 C680 670 675 654 652 654 C629 654 586 700 488 700 C266 700 36 504 36 270 C36 126 144 -12 334 -12 C500 -12 598 101 650 272 L602 272 C570 156 476 30 338 30 C262 30 200 82 200 188 C200 368 306 658 490 658 C600 658 634 590 634 492 C634 475 630 456 628 438 L674 438 L734 682 L688 682 L688 682 Z " />
<glyph glyph-name="D" unicode="D" horiz-adv-x="796" d="M114 646 C182 644 196 632 196 608 C196 586 172 539 68 123 L59 87 C51 56 26 44 -48 42 L-58 0 L332 0 C552 0 754 176 754 406 C754 552 646 688 446 688 L124 688 L114 646 L114 646 Z M355 583 C366 623 381 646 451 646 C524 646 584 602 584 473 C584 310 496 42 304 42 C240 42 228 64 228 90 C228 107 233 122 242 157 L355 583 L355 583 Z " />
<glyph glyph-name="E" unicode="E" horiz-adv-x="759" d="M638 264 L590 264 C553 128 454 42 310 42 C236 42 224 58 224 89 C224 119 235 151 244 183 L288 342 C385 340 400 315 402 222 L440 222 L516 504 L468 504 C438 412 398 386 298 384 L348 578 C362 632 384 646 472 646 C576 646 626 604 626 499 C626 478 625 457 622 436 L664 436 L728 688 L124 688 L114 646 C182 644 192 630 192 605 C192 587 181 541 171 506 L62 104 C49 56 30 44 -48 42 L-58 0 L564 0 L638 264 L638 264 Z " />
<glyph glyph-name="F" unicode="F" horiz-adv-x="685" d="M306 0 L316 42 C232 42 220 58 220 89 C220 119 231 151 240 183 L284 342 C381 340 396 315 398 222 L436 222 L512 504 L464 504 C434 412 394 386 294 384 L344 578 C358 632 380 646 468 646 C572 646 622 604 622 499 C622 478 621 457 618 436 L660 436 L724 688 L124 688 L114 646 C180 644 193 636 194 610 C195 593 187 559 178 527 L64 109 C50 58 28 44 -48 42 L-58 0 L306 0 L306 0 Z " />
<glyph glyph-name="G" unicode="G" horiz-adv-x="778" d="M750 676 L708 676 C696 664 689 650 676 650 C657 650 598 700 497 700 C256 700 36 490 36 274 C36 120 148 -12 316 -12 C381 -12 459 4 510 46 L532 6 L572 6 L624 202 C644 279 684 284 736 286 L746 328 L386 328 L376 286 C450 284 470 264 470 238 C470 224 464 196 457 171 L434 91 C422 50 388 30 340 30 C271 30 200 70 200 196 C200 336 298 658 501 658 C595 658 642 606 642 507 C642 482 640 456 638 432 L684 432 L750 676 L750 676 Z " />
<glyph glyph-name="H" unicode="H" horiz-adv-x="815" d="M284 0 L294 42 C226 44 216 56 216 80 C216 93 227 132 235 161 L284 336 L516 336 L458 114 C443 58 426 44 348 42 L338 0 L688 0 L698 42 C636 44 612 52 612 80 C612 114 625 144 635 183 L733 552 C753 629 778 644 856 646 L866 688 L522 688 L512 646 C572 644 586 632 586 612 C586 590 577 560 565 515 L530 388 L296 388 L346 568 C359 616 373 644 456 646 L466 688 L118 688 L108 646 C174 644 192 636 192 610 C192 575 183 552 171 508 L68 132 C46 53 23 44 -56 42 L-66 0 L284 0 L284 0 Z " />
<glyph glyph-name="I" unicode="I" horiz-adv-x="444" d="M118 646 C196 644 206 638 206 610 C206 594 191 547 182 515 L66 95 C56 58 38 48 -48 42 L-58 0 L308 0 L318 42 C240 44 230 56 230 74 C230 90 239 118 249 153 L365 574 C380 630 398 640 484 646 L494 688 L128 688 L118 646 L118 646 Z " />
<glyph glyph-name="J" unicode="J" horiz-adv-x="630" d="M340 688 L330 646 C386 644 408 638 408 606 C408 576 365 446 299 182 C270 63 214 30 146 30 C80 30 38 76 38 117 C38 134 44 138 48 138 C54 138 59 110 108 110 C150 110 178 142 178 189 C178 228 150 266 102 266 C39 266 -8 218 -8 144 C-8 60 54 -12 184 -12 C329 -12 428 63 456 174 L558 573 C571 622 583 639 668 646 L678 688 L340 688 L340 688 Z " />
<glyph glyph-name="K" unicode="K" horiz-adv-x="778" d="M290 0 L300 42 C240 44 228 56 228 85 C228 96 236 128 244 157 L288 310 L352 354 L430 141 C439 115 448 95 448 78 C448 56 420 44 366 42 L356 0 L690 0 L700 42 C642 44 633 49 614 100 L482 454 L668 598 C714 634 745 643 804 646 L814 688 L532 688 L522 646 C584 644 600 636 600 623 C600 606 567 582 530 554 L306 382 L304 384 L362 586 C373 623 396 640 466 646 L476 688 L130 688 L120 646 C190 644 204 634 204 614 C204 600 201 585 194 560 L70 104 C58 61 32 44 -42 42 L-52 0 L290 0 L290 0 Z " />
<glyph glyph-name="L" unicode="L" horiz-adv-x="685" d="M566 0 L640 260 L598 268 C552 130 466 42 314 42 C250 42 232 58 232 90 C232 108 247 148 254 175 L358 570 C372 625 402 644 474 646 L484 688 L126 688 L116 646 C188 644 202 634 202 608 C202 593 195 565 188 541 L66 96 C55 57 34 44 -48 42 L-58 0 L566 0 L566 0 Z " />
<glyph glyph-name="M" unicode="M" horiz-adv-x="889" d="M120 646 C178 644 196 634 196 604 C196 585 189 566 180 533 L77 163 C52 74 28 50 -40 42 L-50 0 L178 0 L188 42 C118 46 108 60 108 91 C108 106 116 133 128 176 L250 620 L252 620 L256 0 L326 0 L676 624 L678 622 L542 113 C528 60 512 46 438 42 L428 0 L746 0 L756 42 C698 44 684 52 684 77 C684 93 692 124 698 146 L814 571 C827 619 854 642 920 646 L930 688 L662 688 L400 224 L398 224 L398 688 L130 688 L120 646 L120 646 Z " />
<glyph glyph-name="N" unicode="N" horiz-adv-x="778" d="M196 0 L205 42 C122 48 110 60 110 92 C110 116 116 134 125 168 L228 544 L230 544 L482 -12 L556 -12 L710 562 C724 616 748 636 824 646 L834 688 L586 688 L574 646 C650 644 664 624 664 601 C664 575 655 543 651 527 L562 186 L560 186 L330 688 L120 688 L110 646 C180 644 194 626 194 604 C194 586 182 552 178 537 L58 106 C43 53 10 48 -55 42 L-66 0 L196 0 L196 0 Z " />
<glyph glyph-name="O" unicode="O" horiz-adv-x="778" d="M36 274 C36 112 164 -12 312 -12 C530 -12 742 208 742 414 C742 576 614 700 466 700 C248 700 36 480 36 274 L36 274 Z M196 166 C196 246 254 662 468 662 C546 662 582 616 582 522 C582 442 524 26 310 26 C232 26 196 72 196 166 L196 166 Z " />
<glyph glyph-name="P" unicode="P" horiz-adv-x="685" d="M312 0 L322 42 C234 44 220 50 220 90 C220 108 224 133 232 160 L280 332 L366 332 C574 332 676 412 676 522 C676 631 590 688 430 688 L126 688 L116 646 C180 644 194 635 194 612 C194 596 187 570 179 539 L56 92 C46 56 24 44 -48 42 L-58 0 L312 0 L312 0 Z M431 646 C482 646 512 612 512 554 C512 510 498 469 473 432 C441 385 391 374 331 374 L294 374 L347 574 C360 624 386 646 431 646 L431 646 Z " />
<glyph glyph-name="Q" unicode="Q" horiz-adv-x="778" d="M322 186 C345 186 358 167 358 145 C358 120 340 82 330 30 C283 32 268 72 268 107 C268 157 295 186 322 186 L322 186 Z M614 50 C603 10 573 -54 524 -54 C489 -54 464 -36 456 20 C616 88 742 256 742 414 C742 576 614 700 466 700 C248 700 36 480 36 274 C36 112 164 -12 312 -12 C317 -12 322 -12 326 -11 L326 -19 C326 -90 380 -150 453 -150 C564 -150 628 -65 652 36 L614 50 L614 50 Z M468 662 C546 662 582 616 582 522 C582 463 550 216 444 95 C427 177 398 228 327 228 C256 228 220 176 220 121 C220 95 229 70 241 47 L239 45 C209 70 196 109 196 166 C196 246 254 662 468 662 L468 662 Z " />
<glyph glyph-name="R" unicode="R" horiz-adv-x="741" d="M300 0 L310 42 C232 44 224 54 224 81 C224 99 232 122 239 147 L290 326 C364 324 380 300 380 228 C380 197 376 167 376 124 C376 40 424 -12 500 -12 C584 -12 643 75 668 146 L628 162 C619 145 591 84 566 84 C552 84 541 98 540 175 C539 270 479 305 390 336 L390 338 C624 338 696 426 696 534 C696 616 612 688 478 688 L122 688 L112 646 C184 644 196 632 196 604 C196 586 186 562 180 541 L63 114 C47 57 34 44 -56 42 L-66 0 L300 0 L300 0 Z M300 368 L357 578 C370 624 398 646 445 646 C491 646 526 619 526 571 C526 446 466 368 348 368 L300 368 L300 368 Z " />
<glyph glyph-name="S" unicode="S" horiz-adv-x="667" d="M-20 6 L22 6 C36 23 46 38 71 38 C94 38 148 -12 245 -12 C408 -12 564 84 564 238 C564 435 258 396 258 544 C258 604 308 658 398 658 C508 658 558 593 558 492 L558 452 L600 452 L658 682 L610 682 C603 666 593 646 574 646 C547 646 508 700 402 700 C240 700 114 588 114 477 C114 270 420 296 420 160 C420 104 348 30 250 30 C120 30 88 98 88 204 L88 260 L46 260 L-20 6 L-20 6 Z " />
<glyph glyph-name="T" unicode="T" horiz-adv-x="704" d="M434 0 L444 42 C378 44 360 48 360 77 C360 96 370 133 378 162 L505 645 C512 646 521 646 531 646 C618 646 644 567 644 490 C644 475 643 460 641 446 L684 446 L740 688 L132 688 L66 446 L108 446 C147 563 216 646 327 646 C334 646 341 645 348 645 L209 113 C193 53 176 44 94 42 L84 0 L434 0 L434 0 Z " />
<glyph glyph-name="U" unicode="U" horiz-adv-x="778" d="M120 688 L110 646 C171 646 190 640 190 606 C190 580 78 244 78 166 C78 68 172 -12 334 -12 C496 -12 574 60 608 188 L708 568 C724 628 750 644 826 646 L836 688 L590 688 L580 646 C648 644 662 632 662 610 C662 592 650 545 642 514 L551 175 C526 82 454 30 360 30 C296 30 228 58 228 132 C228 160 240 204 254 255 L336 558 C357 636 378 644 454 646 L464 688 L120 688 L120 688 Z " />
<glyph glyph-name="V" unicode="V" horiz-adv-x="685" d="M418 688 L82 688 L72 646 C138 644 156 634 160 564 L194 0 L266 0 L668 598 C690 630 712 644 762 646 L772 688 L532 688 L522 646 C596 644 606 640 606 620 C606 602 595 578 572 543 L336 186 L334 186 L311 500 C309 534 308 533 308 588 C308 634 322 644 408 646 L418 688 L418 688 Z " />
<glyph glyph-name="W" unicode="W" horiz-adv-x="907" d="M462 422 L464 422 L494 0 L566 0 L872 595 C893 635 904 646 966 646 L976 688 L756 688 L746 646 C818 646 826 638 826 619 C826 603 814 579 789 530 L628 210 L626 210 L607 523 C606 542 602 572 602 597 C602 640 620 646 686 646 L696 688 L400 688 L390 646 C440 646 446 637 448 616 L456 506 L312 220 L310 220 L289 498 C286 543 284 579 284 607 C284 638 304 646 358 646 L368 688 L72 688 L62 646 C118 646 132 641 136 588 L178 0 L248 0 L462 422 L462 422 Z " />
<glyph glyph-name="X" unicode="X" horiz-adv-x="741" d="M206 0 L216 42 C144 44 128 54 128 74 C128 86 147 108 167 128 L319 274 L366 147 C379 112 386 94 386 79 C386 57 372 44 294 42 L284 0 L624 0 L634 42 C572 44 563 48 547 90 L434 390 L615 568 C673 625 696 640 776 646 L786 688 L514 688 L504 646 C556 646 570 634 570 612 C570 590 540 562 418 436 L376 538 C367 560 356 590 356 606 C356 636 378 646 446 646 L456 688 L128 688 L118 646 C170 644 180 632 188 612 L300 324 L73 103 C38 68 4 52 -62 42 L-72 0 L206 0 L206 0 Z " />
<glyph glyph-name="Y" unicode="Y" horiz-adv-x="667" d="M420 0 L430 42 C350 44 340 56 340 83 C340 95 350 129 359 162 L396 296 L622 583 C659 629 690 644 746 646 L756 688 L506 688 L496 646 C564 644 574 636 574 620 C574 604 551 572 526 540 L384 358 L336 518 C326 552 316 579 316 608 C316 638 340 644 404 646 L414 688 L86 688 L76 646 C132 644 141 632 147 610 L232 308 L178 112 C166 68 154 44 52 42 L42 0 L420 0 L420 0 Z " />
<glyph glyph-name="Z" unicode="Z" horiz-adv-x="685" d="M588 260 L546 268 C500 130 414 48 220 48 L166 48 L680 632 L686 688 L182 688 L116 458 L162 450 C194 580 288 640 424 640 L504 640 L-2 68 L-20 0 L514 0 L588 260 L588 260 Z " />
<glyph glyph-name="bracketleft" unicode="&#x5b;" horiz-adv-x="426" d="M8 -170 L226 -170 L236 -128 C167 -126 146 -108 146 -85 C146 -40 252 303 304 520 C329 625 349 644 442 646 L452 688 L242 688 L8 -170 L8 -170 Z " />
<glyph glyph-name="backslash" unicode="&#x5c;" horiz-adv-x="278" d="M304 -12 L86 700 L-26 700 L192 -12 L304 -12 L304 -12 Z " />
<glyph glyph-name="bracketright" unicode="&#x5d;" horiz-adv-x="426" d="M362 688 L144 688 L134 646 C203 644 224 626 224 603 C224 558 118 215 66 -2 C41 -107 21 -126 -72 -128 L-82 -170 L128 -170 L362 688 L362 688 Z " />
<glyph glyph-name="asciicircum" unicode="&#x5e;" horiz-adv-x="600" d="M187 329 L300 580 L413 329 L521 329 L349 688 L251 688 L79 329 L187 329 L187 329 Z " />
<glyph glyph-name="underscore" unicode="&#x5f;" horiz-adv-x="500" d="M500 -125 L500 -75 L0 -75 L0 -125 L500 -125 L500 -125 Z " />
<glyph glyph-name="grave" unicode="&#x60;" horiz-adv-x="333" d="M308 542 L208 675 C178 715 163 722 142 722 C114 722 96 700 96 679 C96 662 108 646 125 634 L262 542 L308 542 L308 542 Z " />
<glyph glyph-name="a" unicode="a" horiz-adv-x="648" d="M408 472 L392 402 L390 402 C374 449 344 482 282 482 C142 482 0 334 0 181 C0 42 92 -12 178 -12 C251 -12 290 32 330 94 L332 94 C342 26 376 -12 432 -12 C523 -12 570 71 602 145 L569 163 C559 132 510 40 472 40 C460 40 458 50 458 58 C458 67 463 94 468 116 L556 472 L408 472 L408 472 Z M366 343 C366 238 293 40 204 40 C170 40 154 62 154 112 C154 208 212 430 304 430 C344 430 366 402 366 343 L366 343 Z " />
<glyph glyph-name="b" unicode="b" horiz-adv-x="611" d="M313 678 L79 674 L69 638 C124 636 139 628 139 605 C139 588 124 549 112 506 L38 242 C24 192 21 171 21 130 C21 48 86 -12 196 -12 C378 -12 545 120 545 304 C545 398 484 482 384 482 C324 482 281 447 241 406 L239 408 L313 678 L313 678 Z M397 356 C397 248 314 26 214 26 C176 26 165 48 165 86 C165 260 268 430 346 430 C384 430 397 400 397 356 L397 356 Z " />
<glyph glyph-name="c" unicode="c" horiz-adv-x="500" d="M378 172 C356 118 294 30 228 30 C189 30 144 60 144 145 C144 247 204 440 323 440 C338 440 346 437 346 431 C346 426 292 423 292 368 C292 321 328 302 360 302 C410 302 440 339 440 385 C440 433 395 482 307 482 C158 482 -4 360 -4 189 C-4 63 96 -12 203 -12 C307 -12 375 58 411 150 L378 172 L378 172 Z " />
<glyph glyph-name="d" unicode="d" horiz-adv-x="630" d="M190 36 C161 36 140 58 140 100 C140 236 222 434 291 434 C323 434 348 415 348 352 C348 190 254 36 190 36 L190 36 Z M360 638 C411 636 426 622 426 597 C426 582 396 486 378 410 L376 410 C359 455 325 482 268 482 C146 482 -4 358 -4 184 C-4 60 72 -12 171 -12 C240 -12 291 37 314 94 L316 94 C326 23 365 -12 419 -12 C507 -12 556 67 586 139 L553 160 C542 136 493 36 458 36 C446 36 443 47 443 56 C443 70 446 83 456 124 L598 678 L370 674 L360 638 L360 638 Z " />
<glyph glyph-name="e" unicode="e" horiz-adv-x="519" d="M399 156 C362 99 299 30 226 30 C170 30 144 57 144 126 C144 149 152 190 157 212 C265 214 458 232 458 379 C458 437 405 482 312 482 C187 482 -4 373 -4 192 C-4 54 100 -12 208 -12 C317 -12 374 47 430 134 L399 156 L399 156 Z M336 395 C336 306 249 254 168 254 C176 308 232 440 302 440 C327 440 336 420 336 395 L336 395 Z " />
<glyph glyph-name="f" unicode="f" horiz-adv-x="370" d="M112 428 L6 -11 C-20 -118 -68 -144 -92 -144 C-100 -144 -108 -144 -108 -139 C-108 -135 -82 -121 -82 -94 C-82 -60 -106 -34 -147 -34 C-196 -34 -226 -66 -226 -103 C-226 -156 -179 -182 -118 -182 C-15 -182 144 -85 191 138 L252 428 L364 428 L374 470 L260 470 C280 581 326 650 387 650 C393 650 401 648 401 642 C401 637 362 624 362 588 C362 548 389 523 426 523 C477 523 506 558 506 600 C506 648 459 688 385 688 C253 688 159 591 124 470 L36 470 L26 428 L112 428 L112 428 Z " />
<glyph glyph-name="g" unicode="g" horiz-adv-x="611" d="M404 470 L388 400 L386 400 C370 452 340 482 280 482 C148 482 -4 342 -4 178 C-4 62 82 -12 160 -12 C210 -12 260 12 290 52 L292 50 C256 -104 206 -144 123 -144 C87 -144 63 -135 56 -121 C74 -114 92 -96 92 -72 C92 -40 64 -8 20 -8 C-26 -8 -62 -32 -62 -81 C-62 -133 10 -182 136 -182 C259 -182 389 -133 432 26 L552 470 L404 470 L404 470 Z M306 430 C334 430 356 409 356 335 C356 244 287 40 191 40 C168 40 150 62 150 116 C150 199 210 430 306 430 L306 430 Z " />
<glyph glyph-name="h" unicode="h" horiz-adv-x="630" d="M80 638 C134 638 150 628 150 610 C150 592 145 574 139 551 L-12 0 L130 0 C208 310 292 424 353 424 C372 424 384 412 384 382 C384 315 298 178 298 97 C298 28 334 -12 398 -12 C483 -12 538 62 573 130 L541 149 C529 129 481 52 452 52 C442 52 434 56 434 63 C434 117 520 251 520 338 C520 419 470 482 394 482 C316 482 275 431 236 377 L234 379 L314 678 L90 674 L80 638 L80 638 Z " />
<glyph glyph-name="i" unicode="i" horiz-adv-x="352" d="M30 432 C80 430 92 422 92 398 C92 348 16 181 16 90 C16 23 60 -12 120 -12 C206 -12 266 67 297 138 L265 156 C252 135 210 52 177 52 C166 52 160 60 160 81 C160 116 257 442 266 472 L40 468 L30 432 L30 432 Z M144 611 C144 567 184 534 224 534 C264 534 304 567 304 611 C304 655 264 688 224 688 C184 688 144 655 144 611 L144 611 Z " />
<glyph glyph-name="j" unicode="j" horiz-adv-x="333" d="M54 468 L44 432 C72 434 102 429 102 408 C102 392 93 360 85 327 L13 15 C-8 -74 -12 -144 -78 -144 C-98 -144 -108 -137 -118 -124 C-84 -119 -56 -96 -56 -64 C-56 -32 -80 -8 -124 -8 C-164 -8 -192 -33 -192 -79 C-192 -130 -152 -182 -58 -182 C46 -182 128 -109 156 10 L266 472 L54 468 L54 468 Z M146 611 C146 567 186 534 226 534 C266 534 306 567 306 611 C306 655 266 688 226 688 C186 688 146 655 146 611 L146 611 Z " />
<glyph glyph-name="k" unicode="k" horiz-adv-x="611" d="M92 638 C138 636 156 630 156 606 C156 578 139 537 132 512 L-16 0 L138 0 L200 226 C266 224 278 204 278 80 C278 16 310 -12 372 -12 C442 -12 492 38 544 132 L510 150 C480 104 456 62 436 62 C416 62 436 115 411 166 C394 201 367 244 296 252 L296 254 C373 286 411 400 424 400 C429 400 432 397 432 385 C432 363 453 340 485 340 C525 340 558 373 558 416 C558 446 532 482 485 482 C354 482 350 268 232 268 L212 268 L330 678 L102 674 L92 638 L92 638 Z " />
<glyph glyph-name="l" unicode="l" horiz-adv-x="333" d="M313 678 L79 674 L69 638 C124 636 139 628 139 605 C139 594 133 577 130 565 L56 294 C31 203 14 156 14 89 C14 32 47 -12 114 -12 C193 -12 247 60 279 124 L251 143 C216 88 183 40 160 40 C150 40 144 45 144 54 C144 67 155 110 174 177 L313 678 L313 678 Z " />
<glyph glyph-name="m" unicode="m" horiz-adv-x="889" d="M130 0 C198 284 284 424 342 424 C360 424 370 414 370 397 C370 387 361 350 349 306 L267 0 L405 0 L423 68 C478 277 558 424 615 424 C637 424 648 408 648 388 C648 327 564 183 564 94 C564 18 612 -12 656 -12 C741 -12 794 66 830 132 L798 152 C790 132 740 52 713 52 C703 52 698 58 698 71 C698 128 778 268 778 347 C778 426 724 482 664 482 C594 482 544 436 497 362 L495 362 C494 434 464 482 390 482 C318 482 274 440 226 364 L224 366 C236 410 242 450 248 472 L52 468 L42 432 C90 430 98 422 98 404 C98 393 95 374 78 311 L-4 0 L130 0 L130 0 Z " />
<glyph glyph-name="n" unicode="n" horiz-adv-x="630" d="M44 432 C95 430 102 422 102 404 C102 390 86 343 75 302 L-8 0 L134 0 L160 101 C210 294 292 424 352 424 C378 424 390 409 390 386 C390 318 302 171 302 91 C302 16 354 -12 399 -12 C484 -12 539 65 576 132 L546 154 C536 139 485 52 458 52 C444 52 440 62 440 72 C440 120 524 268 524 348 C524 420 478 482 400 482 C323 482 279 429 236 372 L234 374 C242 410 250 448 256 472 L54 468 L44 432 L44 432 Z " />
<glyph glyph-name="o" unicode="o" horiz-adv-x="574" d="M-4 194 C-4 80 91 -12 206 -12 C368 -12 508 119 508 276 C508 390 413 482 298 482 C152 482 -4 351 -4 194 L-4 194 Z M204 26 C160 26 140 48 140 104 C140 204 204 444 300 444 C344 444 364 422 364 366 C364 242 296 26 204 26 L204 26 Z " />
<glyph glyph-name="p" unicode="p" horiz-adv-x="611" d="M209 -170 L219 -132 C129 -130 113 -120 113 -99 C113 -77 124 -45 132 -14 L146 42 L148 42 C160 0 202 -12 234 -12 C386 -12 545 134 545 293 C545 396 488 482 384 482 C322 482 287 443 249 402 L247 404 L263 472 L37 468 L27 432 C82 430 97 422 97 399 C97 382 88 352 79 318 L-32 -91 C-42 -126 -63 -130 -129 -132 L-139 -170 L209 -170 L209 -170 Z M178 90 C178 234 272 430 356 430 C385 430 397 405 397 343 C397 227 310 30 228 30 C210 30 178 40 178 90 L178 90 Z " />
<glyph glyph-name="q" unicode="q" horiz-adv-x="611" d="M144 105 C144 228 214 440 308 440 C336 440 356 416 356 368 C356 254 276 30 184 30 C160 30 144 50 144 105 L144 105 Z M498 470 L420 406 C402 442 352 482 284 482 C114 482 -4 328 -4 185 C-4 58 78 -12 160 -12 C222 -12 260 16 296 64 L298 62 C285 23 276 -18 248 -92 C238 -118 218 -130 132 -132 L122 -170 L467 -170 L477 -132 C409 -130 399 -124 399 -105 C399 -72 524 397 545 470 L498 470 L498 470 Z " />
<glyph glyph-name="r" unicode="r" horiz-adv-x="481" d="M135 0 L173 129 C217 280 288 404 342 424 L344 422 C342 417 334 407 334 382 C334 348 352 326 392 326 C438 326 470 360 470 404 C470 449 433 482 389 482 C328 482 262 430 224 346 L222 348 L246 472 L48 468 L38 432 C79 430 94 422 94 399 C94 381 90 364 85 345 L0 0 L135 0 L135 0 Z " />
<glyph glyph-name="s" unicode="s" horiz-adv-x="519" d="M46 326 C46 172 286 198 286 94 C286 64 244 26 162 26 C100 26 66 42 66 57 C66 61 116 68 116 122 C116 152 88 182 50 182 C2 182 -28 155 -28 113 C-28 30 64 -12 156 -12 C324 -12 422 62 422 152 C422 302 178 287 178 373 C178 414 225 444 276 444 C326 444 354 431 354 426 C354 423 312 420 312 374 C312 341 339 318 378 318 C426 318 448 340 448 384 C448 422 408 482 268 482 C147 482 46 418 46 326 L46 326 Z " />
<glyph glyph-name="t" unicode="t" horiz-adv-x="389" d="M293 612 L150 608 L112 470 L28 470 L18 428 L100 428 L42 217 C33 184 26 151 26 117 C26 48 71 -12 144 -12 C229 -12 281 66 310 137 L277 155 C259 120 220 36 170 36 C154 36 148 49 148 63 C148 88 158 123 165 147 L242 428 L352 428 L362 470 L254 470 L293 612 L293 612 Z " />
<glyph glyph-name="u" unicode="u" horiz-adv-x="630" d="M40 432 C82 432 102 424 102 396 C102 364 34 228 34 120 C34 30 90 -12 147 -12 C228 -12 274 44 322 116 L324 114 C323 105 322 97 322 89 C322 35 349 -12 413 -12 C496 -12 547 71 580 136 L548 152 C538 133 493 52 465 52 C456 52 448 58 448 78 C448 96 455 126 464 159 L546 472 L402 468 L385 394 C329 150 240 46 192 46 C171 46 160 65 160 85 C160 120 230 338 270 472 L50 468 L40 432 L40 432 Z " />
<glyph glyph-name="v" unicode="v" horiz-adv-x="537" d="M40 434 C86 430 96 420 96 400 C96 360 28 212 28 142 C28 52 94 -12 174 -12 C330 -12 456 202 456 370 C456 460 424 482 384 482 C344 482 322 460 322 421 C322 386 346 358 380 358 C394 358 405 364 408 364 C412 364 414 358 414 342 C414 246 312 30 200 30 C174 30 158 48 158 86 C158 124 172 163 182 198 L264 472 L50 468 L40 434 L40 434 Z " />
<glyph glyph-name="w" unicode="w" horiz-adv-x="815" d="M36 432 C77 430 98 414 98 395 C98 354 26 197 26 122 C26 45 73 -12 145 -12 C234 -12 276 58 316 114 L318 114 C318 38 360 -12 437 -12 C618 -12 728 192 728 366 C728 442 702 482 656 482 C617 482 590 460 590 420 C590 386 612 362 646 362 C663 362 671 368 678 368 C682 368 686 362 686 350 C686 224 592 30 478 30 C458 30 444 40 444 65 C444 105 532 407 548 470 L400 470 C377 390 352 272 316 190 C286 121 237 40 188 40 C172 40 162 49 162 68 C162 127 206 249 221 301 L270 472 L46 468 L36 432 L36 432 Z " />
<glyph glyph-name="x" unicode="x" horiz-adv-x="593" d="M68 444 C107 442 122 438 133 421 C152 392 158 343 174 277 L194 194 L138 116 C127 101 87 52 73 52 C70 52 68 54 68 57 C68 63 74 64 74 80 C74 114 52 132 19 132 C-20 132 -52 97 -52 59 C-52 10 -17 -12 28 -12 C92 -12 138 55 158 80 L208 144 L223 99 C249 20 268 -12 332 -12 C402 -12 463 71 488 127 L460 150 C448 132 418 72 391 72 C376 72 365 99 360 122 L326 270 C366 320 410 392 432 392 C434 371 453 342 487 342 C527 342 554 380 554 418 C554 458 526 482 492 482 C414 482 370 380 312 322 L274 482 L78 482 L68 444 L68 444 Z " />
<glyph glyph-name="y" unicode="y" horiz-adv-x="611" d="M36 432 C88 430 100 416 100 393 C100 350 28 214 28 132 C28 44 82 -4 144 -4 C218 -4 254 25 300 80 L302 78 C290 36 276 -29 255 -75 C237 -115 190 -144 138 -144 C110 -144 96 -136 96 -129 C111 -120 126 -103 126 -80 C126 -48 102 -16 47 -16 C-4 -16 -28 -48 -28 -86 C-28 -135 16 -182 132 -182 C287 -182 396 -121 435 24 L556 470 L414 470 L347 243 C323 160 245 48 191 48 C176 48 164 62 164 86 C164 122 180 168 274 472 L46 468 L36 432 L36 432 Z " />
<glyph glyph-name="z" unicode="z" horiz-adv-x="574" d="M440 180 C426 140 397 104 352 104 C302 104 278 142 206 142 C151 142 124 123 68 94 L66 96 C98 127 121 152 180 180 C348 258 453 315 534 460 L506 482 C480 453 455 442 416 442 C376 442 304 482 244 482 C160 482 80 400 50 304 L80 286 C104 348 124 366 149 366 C197 366 236 344 294 344 C341 344 389 362 430 384 L432 382 C407 349 346 314 267 275 C155 220 18 134 -42 4 L-10 -12 C20 24 35 36 80 36 C164 36 198 -12 271 -12 C382 -12 437 68 472 166 L440 180 L440 180 Z " />
<glyph glyph-name="braceleft" unicode="&#x7b;" horiz-adv-x="426" d="M424 700 C302 700 243 679 210 558 L160 377 C141 310 121 278 58 260 C91 248 104 230 104 202 C104 186 102 166 95 142 L45 -39 C38 -63 34 -83 34 -100 C34 -168 83 -182 180 -182 L184 -168 C152 -158 140 -139 140 -105 C140 -88 143 -68 150 -44 L197 127 C204 153 210 175 210 194 C210 226 194 247 156 258 L156 260 C227 278 250 319 270 391 L317 563 C336 633 365 671 420 686 L424 700 L424 700 Z " />
<glyph glyph-name="bar" unicode="&#x7c;" horiz-adv-x="222" d="M60 0 L162 0 L162 700 L60 700 L60 0 L60 0 Z " />
<glyph glyph-name="braceright" unicode="&#x7d;" horiz-adv-x="426" d="M-53 -182 C69 -182 128 -161 161 -40 L211 141 C230 208 250 240 313 258 C280 270 267 288 267 316 C267 332 269 352 276 376 L326 557 C333 581 337 601 337 618 C337 686 288 700 191 700 L187 686 C219 676 231 657 231 623 C231 606 228 586 221 562 L174 391 C167 365 161 343 161 324 C161 292 177 271 215 260 L215 258 C144 240 121 199 101 127 L54 -45 C35 -115 6 -153 -49 -168 L-53 -182 L-53 -182 Z " />
<glyph glyph-name="asciitilde" unicode="&#x7e;" horiz-adv-x="600" d="M487 324 C464 289 439 252 400 252 C373 252 336 272 300 288 C262 304 224 320 191 320 C125 320 89 276 68 234 L103 146 C119 181 143 218 186 218 C231 218 267 200 299 183 C331 165 363 150 399 150 C460 150 492 193 522 236 L487 324 L487 324 Z " />
<glyph glyph-name="uni00A0" unicode="&#xa0;" horiz-adv-x="287" d="" />
<glyph glyph-name="exclamdown" unicode="&#xa1;" horiz-adv-x="370" d="M154 312 C109 137 -14 -1 -14 -102 C-14 -160 10 -182 60 -182 C118 -182 172 -103 172 -7 C172 158 183 235 202 312 L154 312 L154 312 Z M290 456 C290 498 257 530 216 530 C175 530 142 498 142 456 C142 414 175 382 216 382 C257 382 290 414 290 456 L290 456 Z " />
<glyph glyph-name="cent" unicode="&#xa2;" horiz-adv-x="574" d="M495 680 L450 680 L406 574 C391 576 376 578 363 578 C220 578 72 462 72 304 C72 196 144 148 216 124 L158 -12 L200 -12 L254 116 C260 115 268 115 279 115 C355 115 426 151 475 267 L443 281 C416 220 366 157 297 157 C289 157 281 158 272 160 L384 424 C401 416 415 406 435 406 C476 406 506 441 506 480 C506 516 484 550 446 568 L495 680 L495 680 Z M240 174 C206 192 194 234 194 270 C194 406 306 536 382 536 C390 536 400 533 400 523 C400 506 380 500 370 477 L240 174 L240 174 Z " />
<glyph glyph-name="sterling" unicode="&#xa3;" horiz-adv-x="574" d="M244 296 C263 275 273 246 273 218 C273 184 250 132 224 110 C170 148 107 192 39 192 C-38 192 -82 146 -82 89 C-82 30 -28 -12 72 -12 C124 -12 176 7 222 30 C250 9 293 -6 328 -6 C418 -6 466 56 514 122 L482 146 C449 102 388 46 342 46 C319 46 303 58 285 70 C354 122 407 180 407 270 C407 279 407 287 406 296 L538 296 L546 338 L392 338 C368 396 250 480 250 554 C250 612 296 662 354 662 C382 662 404 652 404 643 C404 636 370 636 370 581 C370 540 398 520 438 520 C472 520 504 544 504 600 C504 652 454 700 345 700 C242 700 116 628 116 519 C116 439 166 396 214 338 L40 338 L32 296 L244 296 L244 296 Z M10 75 C10 96 26 108 54 108 C102 108 140 83 170 62 C141 44 110 30 76 30 C34 30 10 54 10 75 L10 75 Z " />
<glyph glyph-name="currency" unicode="&#xa4;" horiz-adv-x="574" d="M91 82 L149 139 C177 114 231 96 287 96 C343 96 397 114 425 139 L483 82 L547 146 L492 202 C519 232 535 288 535 344 C535 400 519 456 492 486 L547 542 L483 606 L425 549 C397 574 343 592 287 592 C231 592 177 574 149 549 L91 606 L27 542 L82 486 C55 456 39 400 39 344 C39 288 55 232 82 202 L27 146 L91 82 L91 82 Z M147 344 C147 422 206 490 287 490 C368 490 427 422 427 344 C427 266 368 198 287 198 C206 198 147 266 147 344 L147 344 Z " />
<glyph glyph-name="yen" unicode="&#xa5;" horiz-adv-x="574" d="M24 246 L167 246 L133 112 C122 68 112 44 20 42 L11 0 L351 0 L360 42 C288 44 279 56 279 83 C279 95 288 129 296 162 L317 246 L468 246 L478 288 L327 288 L329 296 L367 350 L512 350 L524 392 L397 392 L532 583 C565 630 593 644 644 646 L653 688 L428 688 L419 646 C480 644 489 636 489 620 C489 604 469 572 446 540 L319 358 L275 518 C266 552 257 579 257 608 C257 638 279 644 336 646 L345 688 L51 688 L42 646 C92 644 100 632 106 610 L161 392 L64 392 L52 350 L172 350 L182 308 L177 288 L34 288 L24 246 L24 246 Z " />
<glyph glyph-name="brokenbar" unicode="&#xa6;" horiz-adv-x="222" d="M60 0 L162 0 L162 262 L60 262 L60 0 L60 0 Z M60 438 L162 438 L162 700 L60 700 L60 438 L60 438 Z " />
<glyph glyph-name="section" unicode="&#xa7;" horiz-adv-x="500" d="M214 436 C199 447 183 448 171 448 C101 448 46 396 46 310 C46 184 230 70 230 -24 C230 -62 196 -92 140 -92 C100 -92 76 -78 76 -68 C76 -59 112 -52 112 -14 C112 18 90 36 61 36 C24 36 0 14 0 -28 C0 -72 48 -126 133 -126 C246 -126 310 -52 310 24 C310 58 289 93 256 136 C267 135 277 134 286 134 C353 134 418 195 418 278 C418 388 232 517 232 596 C232 637 267 666 320 666 C358 666 367 657 377 641 C362 633 342 617 342 590 C342 566 364 542 392 542 C430 542 454 570 454 602 C454 656 405 700 320 700 C234 700 164 644 164 556 C164 512 181 475 216 438 L214 436 L214 436 Z M338 230 C338 196 314 164 275 164 C251 164 218 183 172 244 C142 284 120 319 120 354 C120 395 153 418 185 418 C217 418 257 376 307 308 C331 275 338 257 338 230 L338 230 Z " />
<glyph glyph-name="dieresis" unicode="&#xa8;" horiz-adv-x="333" d="M280 617 C280 582 309 552 345 552 C381 552 410 582 410 617 C410 652 381 682 345 682 C309 682 280 652 280 617 L280 617 Z M66 617 C66 582 95 552 131 552 C167 552 196 582 196 617 C196 652 167 682 131 682 C95 682 66 652 66 617 L66 617 Z " />
<glyph glyph-name="copyright" unicode="&#xa9;" horiz-adv-x="800" d="M52 344 C52 142 199 -12 400 -12 C601 -12 748 142 748 344 C748 546 601 700 400 700 C199 700 52 546 52 344 L52 344 Z M138 344 C138 508 246 638 400 638 C554 638 662 508 662 344 C662 180 554 50 400 50 C246 50 138 180 138 344 L138 344 Z M547 268 C521 213 480 176 428 176 C347 176 327 258 327 361 C327 461 359 528 430 528 C489 528 516 483 531 442 L553 442 L553 518 C553 534 485 554 428 554 C251 554 201 441 201 356 C201 222 283 150 419 150 C453 150 552 172 555 190 L569 268 L547 268 L547 268 Z " />
<glyph glyph-name="ordfeminine" unicode="&#xaa;" horiz-adv-x="389" d="M314 694 L304 652 L302 652 C291 680 270 700 235 700 C136 700 48 610 48 520 C48 455 97 404 159 404 C211 404 237 430 263 466 L264 466 C268 430 289 404 333 404 C388 404 420 456 440 496 L419 505 C411 487 381 434 357 434 C350 434 346 440 346 446 C346 461 402 665 410 694 L314 694 L314 694 Z M148 478 C148 554 195 670 248 670 C272 670 286 652 286 617 C286 554 240 434 181 434 C159 434 148 448 148 478 L148 478 Z " />
<glyph glyph-name="guillemotleft" unicode="&#xab;" horiz-adv-x="500" d="M6 225 C102 131 136 51 153 51 C160 51 166 56 166 65 C166 83 134 171 98 227 C160 290 234 383 234 403 C234 416 229 419 223 419 C211 419 126 331 6 237 L6 225 L6 225 Z M192 225 C288 131 322 51 339 51 C346 51 352 56 352 65 C352 83 320 171 284 227 C346 290 420 383 420 403 C420 416 415 419 409 419 C397 419 312 331 192 237 L192 225 L192 225 Z " />
<glyph glyph-name="logicalnot" unicode="&#xac;" horiz-adv-x="600" d="M433 84 L535 84 L535 386 L65 386 L65 284 L433 284 L433 84 L433 84 Z " />
<glyph glyph-name="uni00AD" unicode="&#xad;" horiz-adv-x="333" d="M268 280 L18 280 L-2 190 L248 190 L268 280 L268 280 Z " />
<glyph glyph-name="registered" unicode="&#xae;" horiz-adv-x="800" d="M410 184 C372 186 368 190 368 224 L368 328 L392 328 C432 263 464 162 494 162 L588 162 L588 176 C569 200 549 228 528 258 L471 341 C520 356 548 400 548 442 C548 511 500 544 438 544 L232 544 L232 522 C270 520 274 516 274 482 L274 224 C274 190 270 186 232 184 L232 162 L410 162 L410 184 L410 184 Z M368 518 L395 518 C430 518 446 499 446 436 C446 392 434 354 394 354 L368 354 L368 518 L368 518 Z M52 344 C52 142 199 -12 400 -12 C601 -12 748 142 748 344 C748 546 601 700 400 700 C199 700 52 546 52 344 L52 344 Z M138 344 C138 508 246 638 400 638 C554 638 662 508 662 344 C662 180 554 50 400 50 C246 50 138 180 138 344 L138 344 Z " />
<glyph glyph-name="macron" unicode="&#xaf;" horiz-adv-x="333" d="M406 648 L80 648 L64 580 L390 580 L406 648 L406 648 Z " />
<glyph glyph-name="degree" unicode="&#xb0;" horiz-adv-x="400" d="M109 558 C109 609 150 654 200 654 C250 654 291 609 291 558 C291 507 250 462 200 462 C150 462 109 507 109 558 L109 558 Z M59 558 C59 480 122 416 200 416 C278 416 341 480 341 558 C341 638 279 700 200 700 C122 700 59 636 59 558 L59 558 Z " />
<glyph glyph-name="plusminus" unicode="&#xb1;" horiz-adv-x="600" d="M249 354 L65 354 L65 252 L249 252 L249 136 L351 136 L351 252 L535 252 L535 354 L351 354 L351 470 L249 470 L249 354 L249 354 Z M65 0 L535 0 L535 102 L65 102 L65 0 L65 0 Z " />
<glyph glyph-name="twosuperior" unicode="&#xb2;" horiz-adv-x="344" d="M208 623 C195 601 169 555 140 555 C125 555 114 567 114 580 C114 612 158 662 217 662 C254 662 275 648 275 606 C275 480 2 436 2 305 C2 285 13 275 26 275 C44 275 54 287 54 310 C54 319 52 327 52 337 C52 341 53 342 61 342 C90 342 114 273 203 273 C269 273 305 315 343 430 L313 441 C294 397 274 363 216 363 C188 363 163 380 124 380 C108 380 93 375 76 372 L75 374 C202 474 379 472 379 599 C379 660 316 700 239 700 C153 700 80 642 80 578 C80 545 109 525 138 525 C187 525 216 576 234 610 L208 623 L208 623 Z " />
<glyph glyph-name="threesuperior" unicode="&#xb3;" horiz-adv-x="344" d="M208 623 C183 582 159 557 136 557 C121 557 112 567 112 584 C112 624 166 666 215 666 C258 666 282 650 282 614 C282 569 233 505 186 505 C176 505 167 508 157 508 C130 508 120 500 120 487 C120 473 133 464 152 464 C165 464 183 471 196 471 C215 471 236 458 236 422 C236 371 191 307 116 307 C83 307 48 318 48 354 C56 347 68 342 79 342 C105 342 124 360 124 386 C124 411 103 430 76 430 C43 430 12 406 12 358 C12 309 56 273 142 273 C245 273 336 344 336 411 C336 462 299 481 252 493 L252 495 C310 507 378 545 378 606 C378 651 333 700 238 700 C132 700 76 621 76 579 C76 552 98 528 129 528 C164 528 209 560 229 611 L208 623 L208 623 Z " />
<glyph glyph-name="acute" unicode="&#xb4;" horiz-adv-x="333" d="M200 542 L350 627 C381 645 390 653 390 678 C390 701 369 722 343 722 C323 722 306 709 256 655 L152 542 L200 542 L200 542 Z " />
<glyph glyph-name="mu" unicode="&#xb5;" horiz-adv-x="630" d="M402 468 L385 394 C329 150 240 46 192 46 C171 46 160 65 160 85 C160 120 230 338 270 472 L50 468 L40 432 C82 432 102 424 102 396 C102 335 -30 -20 -30 -104 C-30 -147 -20 -182 30 -182 C112 -182 122 -79 133 -10 C139 -11 143 -12 147 -12 C228 -12 274 44 322 116 L324 114 C323 105 322 97 322 89 C322 35 349 -12 413 -12 C496 -12 547 71 580 136 L548 152 C538 133 493 52 465 52 C456 52 448 58 448 78 C448 96 455 126 464 159 L546 472 L402 468 L402 468 Z " />
<glyph glyph-name="paragraph" unicode="&#xb6;" horiz-adv-x="620" d="M648 688 L320 688 C184 688 82 590 82 424 C82 335 123 284 198 284 L92 -158 L204 -158 L398 648 L454 648 L260 -158 L372 -158 L556 605 C563 634 584 648 642 650 L648 688 L648 688 Z " />
<glyph glyph-name="periodcentered" unicode="&#xb7;" horiz-adv-x="287" d="M37 235 C37 193 70 152 120 152 C170 152 203 193 203 235 C203 277 170 318 120 318 C70 318 37 277 37 235 L37 235 Z " />
<glyph glyph-name="cedilla" unicode="&#xb8;" horiz-adv-x="333" d="M-48 -196 C-15 -210 19 -220 62 -220 C138 -220 188 -188 188 -130 C188 -93 152 -60 97 -60 C89 -60 80 -62 72 -64 L116 2 L72 2 L6 -94 L18 -108 C28 -104 41 -102 51 -102 C79 -102 96 -119 96 -139 C96 -164 78 -178 43 -178 C15 -178 -5 -173 -26 -162 L-48 -196 L-48 -196 Z " />
<glyph glyph-name="onesuperior" unicode="&#xb9;" horiz-adv-x="344" d="M280 280 L286 306 C230 308 220 316 220 331 C220 347 310 647 324 692 L290 692 C244 671 190 658 132 656 L126 632 L204 628 C177 538 136 387 119 340 C113 323 93 308 20 306 L14 280 L280 280 L280 280 Z " />
<glyph glyph-name="ordmasculine" unicode="&#xba;" horiz-adv-x="344" d="M46 527 C46 459 108 404 182 404 C287 404 380 482 380 577 C380 645 318 700 244 700 C139 700 46 622 46 527 L46 527 Z M140 473 C140 509 173 676 244 676 C272 676 286 664 286 631 C286 595 253 428 182 428 C154 428 140 440 140 473 L140 473 Z " />
<glyph glyph-name="guillemotright" unicode="&#xbb;" horiz-adv-x="500" d="M420 245 C324 339 290 419 273 419 C266 419 260 414 260 405 C260 387 292 299 328 243 C266 180 192 87 192 67 C192 54 197 51 203 51 C215 51 300 139 420 233 L420 245 L420 245 Z M234 245 C138 339 104 419 87 419 C80 419 74 414 74 405 C74 387 106 299 142 243 C80 180 6 87 6 67 C6 54 11 51 17 51 C29 51 114 139 234 233 L234 245 L234 245 Z " />
<glyph glyph-name="onequarter" unicode="&#xbc;" horiz-adv-x="861" d="M614 413 C605 319 581 224 524 147 C514 149 505 151 497 151 C473 151 464 145 464 126 C464 115 475 107 487 107 C500 107 517 117 532 117 C557 117 599 79 640 68 L608 -54 L694 -54 L728 68 C760 77 787 98 810 122 L796 136 C777 122 759 109 738 102 L794 306 L708 306 L652 110 C626 118 595 133 556 138 C621 197 692 307 712 413 L614 413 L614 413 Z M697 700 L641 700 L196 -12 L252 -12 L697 700 L697 700 Z M272 280 L278 306 C222 308 212 316 212 331 C212 347 302 647 316 692 L282 692 C236 671 182 658 124 656 L118 632 L196 628 C169 538 128 387 111 340 C105 323 85 308 12 306 L6 280 L272 280 L272 280 Z " />
<glyph glyph-name="onehalf" unicode="&#xbd;" horiz-adv-x="861" d="M675 700 L619 700 L174 -12 L230 -12 L675 700 L675 700 Z M264 280 L270 306 C214 308 204 316 204 331 C204 347 294 647 308 692 L274 692 C228 671 174 658 116 656 L110 632 L188 628 C161 538 120 387 103 340 C97 323 77 308 4 306 L-2 280 L264 280 L264 280 Z M666 338 C653 316 627 270 598 270 C583 270 572 282 572 295 C572 327 616 377 675 377 C712 377 733 363 733 321 C733 195 460 151 460 20 C460 0 471 -10 484 -10 C502 -10 512 2 512 25 C512 34 510 42 510 52 C510 56 511 57 519 57 C548 57 572 -12 661 -12 C727 -12 763 30 801 145 L771 156 C752 112 732 78 674 78 C646 78 621 95 582 95 C566 95 551 90 534 87 L533 89 C660 189 837 187 837 314 C837 375 774 415 697 415 C611 415 538 357 538 293 C538 260 567 240 596 240 C645 240 674 291 692 325 L666 338 L666 338 Z " />
<glyph glyph-name="threequarters" unicode="&#xbe;" horiz-adv-x="861" d="M612 413 C603 319 579 224 522 147 C512 149 503 151 495 151 C471 151 462 145 462 126 C462 115 473 107 485 107 C498 107 515 117 530 117 C555 117 597 79 638 68 L606 -54 L692 -54 L726 68 C758 77 785 98 808 122 L794 136 C775 122 757 109 736 102 L792 306 L706 306 L650 110 C624 118 593 133 554 138 C619 197 690 307 710 413 L612 413 L612 413 Z M705 700 L649 700 L204 -12 L260 -12 L705 700 L705 700 Z M224 623 C199 582 175 557 152 557 C137 557 128 567 128 584 C128 624 182 666 231 666 C274 666 298 650 298 614 C298 569 249 505 202 505 C192 505 183 508 173 508 C146 508 136 500 136 487 C136 473 149 464 168 464 C181 464 199 471 212 471 C231 471 252 458 252 422 C252 371 207 307 132 307 C99 307 64 318 64 354 C72 347 84 342 95 342 C121 342 140 360 140 386 C140 411 119 430 92 430 C59 430 28 406 28 358 C28 309 72 273 158 273 C261 273 352 344 352 411 C352 462 315 481 268 493 L268 495 C326 507 394 545 394 606 C394 651 349 700 254 700 C148 700 92 621 92 579 C92 552 114 528 145 528 C180 528 225 560 245 611 L224 623 L224 623 Z " />
<glyph glyph-name="questiondown" unicode="&#xbf;" horiz-adv-x="519" d="M203 237 C216 258 241 296 270 296 C298 296 310 275 310 254 C310 114 -28 202 -28 -14 C-28 -114 75 -182 186 -182 C293 -182 380 -112 380 -19 C380 14 374 47 352 73 L312 50 C325 29 332 12 332 -10 C332 -78 280 -130 216 -130 C164 -130 120 -93 120 -37 C120 166 358 94 358 254 C358 312 318 344 280 344 C232 344 184 306 168 261 L203 237 L203 237 Z M400 451 C400 495 369 530 321 530 C273 530 242 495 242 451 C242 407 273 372 321 372 C369 372 400 407 400 451 L400 451 Z " />
<glyph glyph-name="Agrave" unicode="&#xc0;" horiz-adv-x="704" d="M156 0 L166 42 C88 42 76 49 76 71 C76 89 94 115 103 128 L168 224 L382 224 L385 188 C388 155 396 121 396 87 C396 62 372 40 302 42 L292 0 L626 0 L636 42 C574 44 561 56 556 94 L474 694 L422 694 L60 154 C13 83 -4 52 -90 42 L-100 0 L156 0 L156 0 Z M346 486 L374 276 L202 276 L346 486 L346 486 Z M546 717 L446 850 C416 890 401 897 380 897 C352 897 334 875 334 854 C334 837 346 821 363 809 L500 717 L546 717 L546 717 Z " />
<glyph glyph-name="Aacute" unicode="&#xc1;" horiz-adv-x="704" d="M156 0 L166 42 C88 42 76 49 76 71 C76 89 94 115 103 128 L168 224 L382 224 L385 188 C388 155 396 121 396 87 C396 62 372 40 302 42 L292 0 L626 0 L636 42 C574 44 561 56 556 94 L474 694 L422 694 L60 154 C13 83 -4 52 -90 42 L-100 0 L156 0 L156 0 Z M346 486 L374 276 L202 276 L346 486 L346 486 Z M438 717 L588 802 C619 820 628 828 628 853 C628 876 607 897 581 897 C561 897 544 884 494 830 L390 717 L438 717 L438 717 Z " />
<glyph glyph-name="Acircumflex" unicode="&#xc2;" horiz-adv-x="704" d="M156 0 L166 42 C88 42 76 49 76 71 C76 89 94 115 103 128 L168 224 L382 224 L385 188 C388 155 396 121 396 87 C396 62 372 40 302 42 L292 0 L626 0 L636 42 C574 44 561 56 556 94 L474 694 L422 694 L60 154 C13 83 -4 52 -90 42 L-100 0 L156 0 L156 0 Z M346 486 L374 276 L202 276 L346 486 L346 486 Z M450 891 L290 717 L342 717 L480 813 L568 717 L618 717 L532 891 L450 891 L450 891 Z " />
<glyph glyph-name="Atilde" unicode="&#xc3;" horiz-adv-x="704" d="M156 0 L166 42 C88 42 76 49 76 71 C76 89 94 115 103 128 L168 224 L382 224 L385 188 C388 155 396 121 396 87 C396 62 372 40 302 42 L292 0 L626 0 L636 42 C574 44 561 56 556 94 L474 694 L422 694 L60 154 C13 83 -4 52 -90 42 L-100 0 L156 0 L156 0 Z M346 486 L374 276 L202 276 L346 486 L346 486 Z M340 739 C346 763 360 781 387 781 C427 781 496 737 535 737 C608 737 644 792 658 857 L616 857 C607 835 592 815 566 815 C532 815 454 859 414 859 C349 859 309 797 298 739 L340 739 L340 739 Z " />
<glyph glyph-name="Adieresis" unicode="&#xc4;" horiz-adv-x="704" d="M156 0 L166 42 C88 42 76 49 76 71 C76 89 94 115 103 128 L168 224 L382 224 L385 188 C388 155 396 121 396 87 C396 62 372 40 302 42 L292 0 L626 0 L636 42 C574 44 561 56 556 94 L474 694 L422 694 L60 154 C13 83 -4 52 -90 42 L-100 0 L156 0 L156 0 Z M346 486 L374 276 L202 276 L346 486 L346 486 Z M518 792 C518 757 547 727 583 727 C619 727 648 757 648 792 C648 827 619 857 583 857 C547 857 518 827 518 792 L518 792 Z M304 792 C304 757 333 727 369 727 C405 727 434 757 434 792 C434 827 405 857 369 857 C333 857 304 827 304 792 L304 792 Z " />
<glyph glyph-name="Aring" unicode="&#xc5;" horiz-adv-x="704" d="M156 0 L166 42 C88 42 76 49 76 71 C76 89 94 115 103 128 L168 224 L382 224 L385 188 C388 155 396 121 396 87 C396 62 372 40 302 42 L292 0 L626 0 L636 42 C574 44 561 56 556 94 L474 694 L422 694 L60 154 C13 83 -4 52 -90 42 L-100 0 L156 0 L156 0 Z M346 486 L374 276 L202 276 L346 486 L346 486 Z M366 820 C366 763 411 717 469 717 C527 717 572 763 572 820 C572 877 527 923 469 923 C411 923 366 877 366 820 L366 820 Z M410 820 C410 853 436 879 469 879 C502 879 528 853 528 820 C528 787 502 761 469 761 C436 761 410 787 410 820 L410 820 Z " />
<glyph glyph-name="AE" unicode="&#xc6;" horiz-adv-x="944" d="M834 256 L788 256 C744 128 690 42 544 42 C498 42 484 50 484 75 C484 94 490 114 497 142 L546 336 C602 334 620 320 622 222 L660 222 L726 498 L684 498 C662 412 624 380 556 378 L608 591 C618 634 630 646 696 646 C772 646 826 611 826 530 C826 491 825 466 822 442 L866 442 L924 688 L308 688 L298 646 C364 646 384 641 384 628 C384 613 375 602 367 590 L18 89 C4 68 -28 45 -54 42 L-64 0 L130 0 L140 42 C82 44 72 54 72 68 C72 87 87 106 98 121 L204 272 L390 272 L344 92 C335 57 320 44 252 42 L242 0 L774 0 L834 256 L834 256 Z M236 324 L451 629 C464 647 469 654 475 654 C478 654 479 651 479 647 C479 639 475 626 468 596 L402 324 L236 324 L236 324 Z " />
<glyph glyph-name="Ccedilla" unicode="&#xc7;" horiz-adv-x="741" d="M688 682 C680 670 675 654 652 654 C629 654 586 700 488 700 C266 700 36 504 36 270 C36 127 143 -10 331 -12 L274 -94 L286 -108 C296 -104 309 -102 319 -102 C347 -102 364 -119 364 -139 C364 -164 346 -178 311 -178 C283 -178 263 -173 242 -162 L220 -196 C253 -210 287 -220 330 -220 C406 -220 456 -188 456 -130 C456 -93 420 -60 365 -60 C357 -60 348 -62 340 -64 L376 -9 C517 8 603 116 650 272 L602 272 C570 156 476 30 338 30 C262 30 200 82 200 188 C200 368 306 658 490 658 C600 658 634 590 634 492 C634 475 630 456 628 438 L674 438 L734 682 L688 682 L688 682 Z " />
<glyph glyph-name="Egrave" unicode="&#xc8;" horiz-adv-x="759" d="M638 264 L590 264 C553 128 454 42 310 42 C236 42 224 58 224 89 C224 119 235 151 244 183 L288 342 C385 340 400 315 402 222 L440 222 L516 504 L468 504 C438 412 398 386 298 384 L348 578 C362 632 384 646 472 646 C576 646 626 604 626 499 C626 478 625 457 622 436 L664 436 L728 688 L124 688 L114 646 C182 644 192 630 192 605 C192 587 181 541 171 506 L62 104 C49 56 30 44 -48 42 L-58 0 L564 0 L638 264 L638 264 Z M562 717 L462 850 C432 890 417 897 396 897 C368 897 350 875 350 854 C350 837 362 821 379 809 L516 717 L562 717 L562 717 Z " />
<glyph glyph-name="Eacute" unicode="&#xc9;" horiz-adv-x="759" d="M638 264 L590 264 C553 128 454 42 310 42 C236 42 224 58 224 89 C224 119 235 151 244 183 L288 342 C385 340 400 315 402 222 L440 222 L516 504 L468 504 C438 412 398 386 298 384 L348 578 C362 632 384 646 472 646 C576 646 626 604 626 499 C626 478 625 457 622 436 L664 436 L728 688 L124 688 L114 646 C182 644 192 630 192 605 C192 587 181 541 171 506 L62 104 C49 56 30 44 -48 42 L-58 0 L564 0 L638 264 L638 264 Z M454 717 L604 802 C635 820 644 828 644 853 C644 876 623 897 597 897 C577 897 560 884 510 830 L406 717 L454 717 L454 717 Z " />
<glyph glyph-name="Ecircumflex" unicode="&#xca;" horiz-adv-x="759" d="M638 264 L590 264 C553 128 454 42 310 42 C236 42 224 58 224 89 C224 119 235 151 244 183 L288 342 C385 340 400 315 402 222 L440 222 L516 504 L468 504 C438 412 398 386 298 384 L348 578 C362 632 384 646 472 646 C576 646 626 604 626 499 C626 478 625 457 622 436 L664 436 L728 688 L124 688 L114 646 C182 644 192 630 192 605 C192 587 181 541 171 506 L62 104 C49 56 30 44 -48 42 L-58 0 L564 0 L638 264 L638 264 Z M466 891 L306 717 L358 717 L496 813 L584 717 L634 717 L548 891 L466 891 L466 891 Z " />
<glyph glyph-name="Edieresis" unicode="&#xcb;" horiz-adv-x="759" d="M638 264 L590 264 C553 128 454 42 310 42 C236 42 224 58 224 89 C224 119 235 151 244 183 L288 342 C385 340 400 315 402 222 L440 222 L516 504 L468 504 C438 412 398 386 298 384 L348 578 C362 632 384 646 472 646 C576 646 626 604 626 499 C626 478 625 457 622 436 L664 436 L728 688 L124 688 L114 646 C182 644 192 630 192 605 C192 587 181 541 171 506 L62 104 C49 56 30 44 -48 42 L-58 0 L564 0 L638 264 L638 264 Z M534 792 C534 757 563 727 599 727 C635 727 664 757 664 792 C664 827 635 857 599 857 C563 857 534 827 534 792 L534 792 Z M320 792 C320 757 349 727 385 727 C421 727 450 757 450 792 C450 827 421 857 385 857 C349 857 320 827 320 792 L320 792 Z " />
<glyph glyph-name="Igrave" unicode="&#xcc;" horiz-adv-x="444" d="M118 646 C196 644 206 638 206 610 C206 594 191 547 182 515 L66 95 C56 58 38 48 -48 42 L-58 0 L308 0 L318 42 C240 44 230 56 230 74 C230 90 239 118 249 153 L365 574 C380 630 398 640 484 646 L494 688 L128 688 L118 646 L118 646 Z M405 717 L305 850 C275 890 260 897 239 897 C211 897 193 875 193 854 C193 837 205 821 222 809 L359 717 L405 717 L405 717 Z " />
<glyph glyph-name="Iacute" unicode="&#xcd;" horiz-adv-x="444" d="M118 646 C196 644 206 638 206 610 C206 594 191 547 182 515 L66 95 C56 58 38 48 -48 42 L-58 0 L308 0 L318 42 C240 44 230 56 230 74 C230 90 239 118 249 153 L365 574 C380 630 398 640 484 646 L494 688 L128 688 L118 646 L118 646 Z M297 717 L447 802 C478 820 487 828 487 853 C487 876 466 897 440 897 C420 897 403 884 353 830 L249 717 L297 717 L297 717 Z " />
<glyph glyph-name="Icircumflex" unicode="&#xce;" horiz-adv-x="444" d="M118 646 C196 644 206 638 206 610 C206 594 191 547 182 515 L66 95 C56 58 38 48 -48 42 L-58 0 L308 0 L318 42 C240 44 230 56 230 74 C230 90 239 118 249 153 L365 574 C380 630 398 640 484 646 L494 688 L128 688 L118 646 L118 646 Z M309 891 L149 717 L201 717 L339 813 L427 717 L477 717 L391 891 L309 891 L309 891 Z " />
<glyph glyph-name="Idieresis" unicode="&#xcf;" horiz-adv-x="444" d="M118 646 C196 644 206 638 206 610 C206 594 191 547 182 515 L66 95 C56 58 38 48 -48 42 L-58 0 L308 0 L318 42 C240 44 230 56 230 74 C230 90 239 118 249 153 L365 574 C380 630 398 640 484 646 L494 688 L128 688 L118 646 L118 646 Z M377 792 C377 757 406 727 442 727 C478 727 507 757 507 792 C507 827 478 857 442 857 C406 857 377 827 377 792 L377 792 Z M163 792 C163 757 192 727 228 727 C264 727 293 757 293 792 C293 827 264 857 228 857 C192 857 163 827 163 792 L163 792 Z " />
<glyph glyph-name="Eth" unicode="&#xd0;" horiz-adv-x="796" d="M131 352 L68 123 L59 87 C51 56 26 44 -48 42 L-58 0 L332 0 C552 0 754 176 754 406 C754 552 646 688 446 688 L124 688 L114 646 C182 644 196 632 196 608 C196 594 191 571 146 408 L54 408 L39 352 L131 352 L131 352 Z M453 352 L468 408 L309 408 L355 583 C365 623 381 646 451 646 C524 646 584 602 584 473 C584 310 496 42 304 42 C240 42 228 64 228 90 C228 107 233 122 242 157 L294 352 L453 352 L453 352 Z " />
<glyph glyph-name="Ntilde" unicode="&#xd1;" horiz-adv-x="778" d="M196 0 L205 42 C122 48 110 60 110 92 C110 116 116 134 125 168 L228 544 L230 544 L482 -12 L556 -12 L710 562 C724 616 748 636 824 646 L834 688 L586 688 L574 646 C650 644 664 624 664 601 C664 575 655 543 651 527 L562 186 L560 186 L330 688 L120 688 L110 646 C180 644 194 626 194 604 C194 586 182 552 178 537 L58 106 C43 53 10 48 -55 42 L-66 0 L196 0 L196 0 Z M366 739 C372 763 386 781 413 781 C453 781 522 737 561 737 C634 737 670 792 684 857 L642 857 C633 835 618 815 592 815 C558 815 480 859 440 859 C375 859 335 797 324 739 L366 739 L366 739 Z " />
<glyph glyph-name="Ograve" unicode="&#xd2;" horiz-adv-x="778" d="M36 274 C36 112 164 -12 312 -12 C530 -12 742 208 742 414 C742 576 614 700 466 700 C248 700 36 480 36 274 L36 274 Z M196 166 C196 246 254 662 468 662 C546 662 582 616 582 522 C582 442 524 26 310 26 C232 26 196 72 196 166 L196 166 Z M572 717 L472 850 C442 890 427 897 406 897 C378 897 360 875 360 854 C360 837 372 821 389 809 L526 717 L572 717 L572 717 Z " />
<glyph glyph-name="Oacute" unicode="&#xd3;" horiz-adv-x="778" d="M36 274 C36 112 164 -12 312 -12 C530 -12 742 208 742 414 C742 576 614 700 466 700 C248 700 36 480 36 274 L36 274 Z M196 166 C196 246 254 662 468 662 C546 662 582 616 582 522 C582 442 524 26 310 26 C232 26 196 72 196 166 L196 166 Z M464 717 L614 802 C645 820 654 828 654 853 C654 876 633 897 607 897 C587 897 570 884 520 830 L416 717 L464 717 L464 717 Z " />
<glyph glyph-name="Ocircumflex" unicode="&#xd4;" horiz-adv-x="778" d="M36 274 C36 112 164 -12 312 -12 C530 -12 742 208 742 414 C742 576 614 700 466 700 C248 700 36 480 36 274 L36 274 Z M196 166 C196 246 254 662 468 662 C546 662 582 616 582 522 C582 442 524 26 310 26 C232 26 196 72 196 166 L196 166 Z M476 891 L316 717 L368 717 L506 813 L594 717 L644 717 L558 891 L476 891 L476 891 Z " />
<glyph glyph-name="Otilde" unicode="&#xd5;" horiz-adv-x="778" d="M36 274 C36 112 164 -12 312 -12 C530 -12 742 208 742 414 C742 576 614 700 466 700 C248 700 36 480 36 274 L36 274 Z M196 166 C196 246 254 662 468 662 C546 662 582 616 582 522 C582 442 524 26 310 26 C232 26 196 72 196 166 L196 166 Z M366 739 C372 763 386 781 413 781 C453 781 522 737 561 737 C634 737 670 792 684 857 L642 857 C633 835 618 815 592 815 C558 815 480 859 440 859 C375 859 335 797 324 739 L366 739 L366 739 Z " />
<glyph glyph-name="Odieresis" unicode="&#xd6;" horiz-adv-x="778" d="M36 274 C36 112 164 -12 312 -12 C530 -12 742 208 742 414 C742 576 614 700 466 700 C248 700 36 480 36 274 L36 274 Z M196 166 C196 246 254 662 468 662 C546 662 582 616 582 522 C582 442 524 26 310 26 C232 26 196 72 196 166 L196 166 Z M544 792 C544 757 573 727 609 727 C645 727 674 757 674 792 C674 827 645 857 609 857 C573 857 544 827 544 792 L544 792 Z M330 792 C330 757 359 727 395 727 C431 727 460 757 460 792 C460 827 431 857 395 857 C359 857 330 827 330 792 L330 792 Z " />
<glyph glyph-name="multiply" unicode="&#xd7;" horiz-adv-x="600" d="M228 235 L65 72 L137 0 L300 163 L463 0 L535 72 L372 235 L535 398 L463 470 L300 307 L137 470 L65 398 L228 235 L228 235 Z " />
<glyph glyph-name="Oslash" unicode="&#xd8;" horiz-adv-x="778" d="M196 165 C196 246 254 662 468 662 C524 662 568 628 573 589 L196 165 L196 165 Z M582 521 C582 442 524 26 310 26 C254 26 220 50 205 97 L582 521 L582 521 Z M-2 -58 L68 -58 L155 40 C200 7 254 -12 312 -12 C530 -12 742 208 742 414 C742 493 712 563 664 613 L768 730 L698 730 L625 647 C578 681 524 700 466 700 C248 700 36 480 36 274 C36 195 66 125 115 74 L-2 -58 L-2 -58 Z " />
<glyph glyph-name="Ugrave" unicode="&#xd9;" horiz-adv-x="778" d="M120 688 L110 646 C171 646 190 640 190 606 C190 580 78 244 78 166 C78 68 172 -12 334 -12 C496 -12 574 60 608 188 L708 568 C724 628 750 644 826 646 L836 688 L590 688 L580 646 C648 644 662 632 662 610 C662 592 650 545 642 514 L551 175 C526 82 454 30 360 30 C296 30 228 58 228 132 C228 160 240 204 254 255 L336 558 C357 636 378 644 454 646 L464 688 L120 688 L120 688 Z M577 717 L477 850 C447 890 432 897 411 897 C383 897 365 875 365 854 C365 837 377 821 394 809 L531 717 L577 717 L577 717 Z " />
<glyph glyph-name="Uacute" unicode="&#xda;" horiz-adv-x="778" d="M120 688 L110 646 C171 646 190 640 190 606 C190 580 78 244 78 166 C78 68 172 -12 334 -12 C496 -12 574 60 608 188 L708 568 C724 628 750 644 826 646 L836 688 L590 688 L580 646 C648 644 662 632 662 610 C662 592 650 545 642 514 L551 175 C526 82 454 30 360 30 C296 30 228 58 228 132 C228 160 240 204 254 255 L336 558 C357 636 378 644 454 646 L464 688 L120 688 L120 688 Z M469 717 L619 802 C650 820 659 828 659 853 C659 876 638 897 612 897 C592 897 575 884 525 830 L421 717 L469 717 L469 717 Z " />
<glyph glyph-name="Ucircumflex" unicode="&#xdb;" horiz-adv-x="778" d="M120 688 L110 646 C171 646 190 640 190 606 C190 580 78 244 78 166 C78 68 172 -12 334 -12 C496 -12 574 60 608 188 L708 568 C724 628 750 644 826 646 L836 688 L590 688 L580 646 C648 644 662 632 662 610 C662 592 650 545 642 514 L551 175 C526 82 454 30 360 30 C296 30 228 58 228 132 C228 160 240 204 254 255 L336 558 C357 636 378 644 454 646 L464 688 L120 688 L120 688 Z M481 891 L321 717 L373 717 L511 813 L599 717 L649 717 L563 891 L481 891 L481 891 Z " />
<glyph glyph-name="Udieresis" unicode="&#xdc;" horiz-adv-x="778" d="M120 688 L110 646 C171 646 190 640 190 606 C190 580 78 244 78 166 C78 68 172 -12 334 -12 C496 -12 574 60 608 188 L708 568 C724 628 750 644 826 646 L836 688 L590 688 L580 646 C648 644 662 632 662 610 C662 592 650 545 642 514 L551 175 C526 82 454 30 360 30 C296 30 228 58 228 132 C228 160 240 204 254 255 L336 558 C357 636 378 644 454 646 L464 688 L120 688 L120 688 Z M549 792 C549 757 578 727 614 727 C650 727 679 757 679 792 C679 827 650 857 614 857 C578 857 549 827 549 792 L549 792 Z M335 792 C335 757 364 727 400 727 C436 727 465 757 465 792 C465 827 436 857 400 857 C364 857 335 827 335 792 L335 792 Z " />
<glyph glyph-name="Yacute" unicode="&#xdd;" horiz-adv-x="667" d="M420 0 L430 42 C350 44 340 56 340 83 C340 95 350 129 359 162 L396 296 L622 583 C659 629 690 644 746 646 L756 688 L506 688 L496 646 C564 644 574 636 574 620 C574 604 551 572 526 540 L384 358 L336 518 C326 552 316 579 316 608 C316 638 340 644 404 646 L414 688 L86 688 L76 646 C132 644 141 632 147 610 L232 308 L178 112 C166 68 154 44 52 42 L42 0 L420 0 L420 0 Z M431 717 L581 802 C612 820 621 828 621 853 C621 876 600 897 574 897 C554 897 537 884 487 830 L383 717 L431 717 L431 717 Z " />
<glyph glyph-name="Thorn" unicode="&#xde;" horiz-adv-x="685" d="M262 208 L317 408 C331 458 358 480 409 480 C454 480 484 446 484 392 C484 294 424 208 332 208 L262 208 L262 208 Z M310 0 L320 42 C244 44 232 52 232 70 C232 89 239 120 252 166 L338 166 C546 166 648 246 648 356 C648 465 562 522 402 522 L349 522 L366 588 C374 620 396 644 482 646 L492 688 L128 688 L118 646 C196 644 206 636 206 614 C206 599 200 576 193 550 L66 95 C56 58 38 48 -48 42 L-58 0 L310 0 L310 0 Z " />
<glyph glyph-name="germandbls" unicode="&#xdf;" horiz-adv-x="648" d="M105 428 C72 295 47 162 -12 -39 C-31 -104 -74 -144 -102 -144 C-112 -144 -118 -141 -118 -139 C-118 -136 -94 -128 -94 -92 C-94 -54 -126 -30 -162 -30 C-205 -30 -238 -60 -238 -103 C-238 -155 -180 -182 -134 -182 C24 -182 149 -13 180 134 L252 477 C275 589 322 650 388 650 C436 650 467 614 467 556 C467 374 278 460 278 320 C278 216 458 215 458 109 C458 54 406 18 343 18 C311 18 285 29 268 58 C276 56 283 54 290 54 C320 54 342 78 342 112 C342 142 319 170 280 170 C240 170 206 147 206 96 C206 40 266 -20 362 -20 C480 -20 574 64 574 164 C574 316 376 334 376 372 C376 428 603 376 603 534 C603 646 486 688 398 688 C250 688 157 604 116 470 L30 470 L20 428 L105 428 L105 428 Z " />
<glyph glyph-name="agrave" unicode="&#xe0;" horiz-adv-x="648" d="M408 472 L392 402 L390 402 C374 449 344 482 282 482 C142 482 0 334 0 181 C0 42 92 -12 178 -12 C251 -12 290 32 330 94 L332 94 C342 26 376 -12 432 -12 C523 -12 570 71 602 145 L569 163 C559 132 510 40 472 40 C460 40 458 50 458 58 C458 67 463 94 468 116 L556 472 L408 472 L408 472 Z M366 343 C366 238 293 40 204 40 C170 40 154 62 154 112 C154 208 212 430 304 430 C344 430 366 402 366 343 L366 343 Z M466 542 L366 675 C336 715 321 722 300 722 C272 722 254 700 254 679 C254 662 266 646 283 634 L420 542 L466 542 L466 542 Z " />
<glyph glyph-name="aacute" unicode="&#xe1;" horiz-adv-x="648" d="M408 472 L392 402 L390 402 C374 449 344 482 282 482 C142 482 0 334 0 181 C0 42 92 -12 178 -12 C251 -12 290 32 330 94 L332 94 C342 26 376 -12 432 -12 C523 -12 570 71 602 145 L569 163 C559 132 510 40 472 40 C460 40 458 50 458 58 C458 67 463 94 468 116 L556 472 L408 472 L408 472 Z M366 343 C366 238 293 40 204 40 C170 40 154 62 154 112 C154 208 212 430 304 430 C344 430 366 402 366 343 L366 343 Z M358 542 L508 627 C539 645 548 653 548 678 C548 701 527 722 501 722 C481 722 464 709 414 655 L310 542 L358 542 L358 542 Z " />
<glyph glyph-name="acircumflex" unicode="&#xe2;" horiz-adv-x="648" d="M408 472 L392 402 L390 402 C374 449 344 482 282 482 C142 482 0 334 0 181 C0 42 92 -12 178 -12 C251 -12 290 32 330 94 L332 94 C342 26 376 -12 432 -12 C523 -12 570 71 602 145 L569 163 C559 132 510 40 472 40 C460 40 458 50 458 58 C458 67 463 94 468 116 L556 472 L408 472 L408 472 Z M366 343 C366 238 293 40 204 40 C170 40 154 62 154 112 C154 208 212 430 304 430 C344 430 366 402 366 343 L366 343 Z M370 716 L210 542 L262 542 L400 638 L488 542 L538 542 L452 716 L370 716 L370 716 Z " />
<glyph glyph-name="atilde" unicode="&#xe3;" horiz-adv-x="648" d="M408 472 L392 402 L390 402 C374 449 344 482 282 482 C142 482 0 334 0 181 C0 42 92 -12 178 -12 C251 -12 290 32 330 94 L332 94 C342 26 376 -12 432 -12 C523 -12 570 71 602 145 L569 163 C559 132 510 40 472 40 C460 40 458 50 458 58 C458 67 463 94 468 116 L556 472 L408 472 L408 472 Z M366 343 C366 238 293 40 204 40 C170 40 154 62 154 112 C154 208 212 430 304 430 C344 430 366 402 366 343 L366 343 Z M260 564 C266 588 280 606 307 606 C347 606 416 562 455 562 C528 562 564 617 578 682 L536 682 C527 660 512 640 486 640 C452 640 374 684 334 684 C269 684 229 622 218 564 L260 564 L260 564 Z " />
<glyph glyph-name="adieresis" unicode="&#xe4;" horiz-adv-x="648" d="M408 472 L392 402 L390 402 C374 449 344 482 282 482 C142 482 0 334 0 181 C0 42 92 -12 178 -12 C251 -12 290 32 330 94 L332 94 C342 26 376 -12 432 -12 C523 -12 570 71 602 145 L569 163 C559 132 510 40 472 40 C460 40 458 50 458 58 C458 67 463 94 468 116 L556 472 L408 472 L408 472 Z M366 343 C366 238 293 40 204 40 C170 40 154 62 154 112 C154 208 212 430 304 430 C344 430 366 402 366 343 L366 343 Z M438 617 C438 582 467 552 503 552 C539 552 568 582 568 617 C568 652 539 682 503 682 C467 682 438 652 438 617 L438 617 Z M224 617 C224 582 253 552 289 552 C325 552 354 582 354 617 C354 652 325 682 289 682 C253 682 224 652 224 617 L224 617 Z " />
<glyph glyph-name="aring" unicode="&#xe5;" horiz-adv-x="648" d="M408 472 L392 402 L390 402 C374 449 344 482 282 482 C142 482 0 334 0 181 C0 42 92 -12 178 -12 C251 -12 290 32 330 94 L332 94 C342 26 376 -12 432 -12 C523 -12 570 71 602 145 L569 163 C559 132 510 40 472 40 C460 40 458 50 458 58 C458 67 463 94 468 116 L556 472 L408 472 L408 472 Z M366 343 C366 238 293 40 204 40 C170 40 154 62 154 112 C154 208 212 430 304 430 C344 430 366 402 366 343 L366 343 Z M286 645 C286 588 331 542 389 542 C447 542 492 588 492 645 C492 702 447 748 389 748 C331 748 286 702 286 645 L286 645 Z M330 645 C330 678 356 704 389 704 C422 704 448 678 448 645 C448 612 422 586 389 586 C356 586 330 612 330 645 L330 645 Z " />
<glyph glyph-name="ae" unicode="&#xe6;" horiz-adv-x="833" d="M386 476 L376 354 L374 354 C374 422 331 482 243 482 C128 482 -4 340 -4 166 C-4 51 74 -12 160 -12 C249 -12 310 32 352 158 L354 158 C356 40 430 -12 531 -12 C654 -12 714 94 740 140 L712 156 C668 94 628 30 550 30 C498 30 462 64 462 142 C462 164 464 183 468 205 C478 204 488 204 511 204 C659 204 774 265 774 368 C774 430 723 482 636 482 C560 482 482 424 444 350 L442 352 L476 476 L386 476 L386 476 Z M128 146 C128 240 187 440 276 440 C316 440 344 406 344 330 C344 216 288 30 196 30 C144 30 128 76 128 146 L128 146 Z M476 242 C488 299 547 440 632 440 C656 440 674 422 674 386 C674 290 596 242 476 242 L476 242 Z " />
<glyph glyph-name="ccedilla" unicode="&#xe7;" horiz-adv-x="500" d="M378 172 C356 118 294 30 228 30 C189 30 144 60 144 145 C144 247 204 440 323 440 C338 440 346 437 346 431 C346 426 292 423 292 368 C292 321 328 302 360 302 C410 302 440 339 440 385 C440 433 395 482 307 482 C158 482 -4 360 -4 189 C-4 84 65 14 150 -6 L90 -94 L102 -108 C112 -104 125 -102 135 -102 C163 -102 180 -119 180 -139 C180 -164 162 -178 127 -178 C99 -178 79 -173 58 -162 L36 -196 C69 -210 103 -220 146 -220 C222 -220 272 -188 272 -130 C272 -93 236 -60 181 -60 C173 -60 164 -62 156 -64 L191 -12 L203 -12 C307 -12 375 58 411 150 L378 172 L378 172 Z " />
<glyph glyph-name="egrave" unicode="&#xe8;" horiz-adv-x="519" d="M399 156 C362 99 299 30 226 30 C170 30 144 57 144 126 C144 149 152 190 157 212 C265 214 458 232 458 379 C458 437 405 482 312 482 C187 482 -4 373 -4 192 C-4 54 100 -12 208 -12 C317 -12 374 47 430 134 L399 156 L399 156 Z M336 395 C336 306 249 254 168 254 C176 308 232 440 302 440 C327 440 336 420 336 395 L336 395 Z M413 542 L313 675 C283 715 268 722 247 722 C219 722 201 700 201 679 C201 662 213 646 230 634 L367 542 L413 542 L413 542 Z " />
<glyph glyph-name="eacute" unicode="&#xe9;" horiz-adv-x="519" d="M399 156 C362 99 299 30 226 30 C170 30 144 57 144 126 C144 149 152 190 157 212 C265 214 458 232 458 379 C458 437 405 482 312 482 C187 482 -4 373 -4 192 C-4 54 100 -12 208 -12 C317 -12 374 47 430 134 L399 156 L399 156 Z M336 395 C336 306 249 254 168 254 C176 308 232 440 302 440 C327 440 336 420 336 395 L336 395 Z M305 542 L455 627 C486 645 495 653 495 678 C495 701 474 722 448 722 C428 722 411 709 361 655 L257 542 L305 542 L305 542 Z " />
<glyph glyph-name="ecircumflex" unicode="&#xea;" horiz-adv-x="519" d="M399 156 C362 99 299 30 226 30 C170 30 144 57 144 126 C144 149 152 190 157 212 C265 214 458 232 458 379 C458 437 405 482 312 482 C187 482 -4 373 -4 192 C-4 54 100 -12 208 -12 C317 -12 374 47 430 134 L399 156 L399 156 Z M336 395 C336 306 249 254 168 254 C176 308 232 440 302 440 C327 440 336 420 336 395 L336 395 Z M317 716 L157 542 L209 542 L347 638 L435 542 L485 542 L399 716 L317 716 L317 716 Z " />
<glyph glyph-name="edieresis" unicode="&#xeb;" horiz-adv-x="519" d="M399 156 C362 99 299 30 226 30 C170 30 144 57 144 126 C144 149 152 190 157 212 C265 214 458 232 458 379 C458 437 405 482 312 482 C187 482 -4 373 -4 192 C-4 54 100 -12 208 -12 C317 -12 374 47 430 134 L399 156 L399 156 Z M336 395 C336 306 249 254 168 254 C176 308 232 440 302 440 C327 440 336 420 336 395 L336 395 Z M385 617 C385 582 414 552 450 552 C486 552 515 582 515 617 C515 652 486 682 450 682 C414 682 385 652 385 617 L385 617 Z M171 617 C171 582 200 552 236 552 C272 552 301 582 301 617 C301 652 272 682 236 682 C200 682 171 652 171 617 L171 617 Z " />
<glyph glyph-name="igrave" unicode="&#xec;" horiz-adv-x="352" d="M30 432 C80 430 92 422 92 398 C92 348 16 181 16 90 C16 23 60 -12 120 -12 C206 -12 266 67 297 138 L265 156 C252 135 210 52 177 52 C166 52 160 60 160 81 C160 116 257 442 266 472 L40 468 L30 432 L30 432 Z M294 542 L194 675 C164 715 149 722 128 722 C100 722 82 700 82 679 C82 662 94 646 111 634 L248 542 L294 542 L294 542 Z " />
<glyph glyph-name="iacute" unicode="&#xed;" horiz-adv-x="352" d="M30 432 C80 430 92 422 92 398 C92 348 16 181 16 90 C16 23 60 -12 120 -12 C206 -12 266 67 297 138 L265 156 C252 135 210 52 177 52 C166 52 160 60 160 81 C160 116 257 442 266 472 L40 468 L30 432 L30 432 Z M186 542 L336 627 C367 645 376 653 376 678 C376 701 355 722 329 722 C309 722 292 709 242 655 L138 542 L186 542 L186 542 Z " />
<glyph glyph-name="icircumflex" unicode="&#xee;" horiz-adv-x="352" d="M30 432 C80 430 92 422 92 398 C92 348 16 181 16 90 C16 23 60 -12 120 -12 C206 -12 266 67 297 138 L265 156 C252 135 210 52 177 52 C166 52 160 60 160 81 C160 116 257 442 266 472 L40 468 L30 432 L30 432 Z M198 716 L38 542 L90 542 L228 638 L316 542 L366 542 L280 716 L198 716 L198 716 Z " />
<glyph glyph-name="idieresis" unicode="&#xef;" horiz-adv-x="352" d="M30 432 C80 430 92 422 92 398 C92 348 16 181 16 90 C16 23 60 -12 120 -12 C206 -12 266 67 297 138 L265 156 C252 135 210 52 177 52 C166 52 160 60 160 81 C160 116 257 442 266 472 L40 468 L30 432 L30 432 Z M266 617 C266 582 295 552 331 552 C367 552 396 582 396 617 C396 652 367 682 331 682 C295 682 266 652 266 617 L266 617 Z M52 617 C52 582 81 552 117 552 C153 552 182 582 182 617 C182 652 153 682 117 682 C81 682 52 652 52 617 L52 617 Z " />
<glyph glyph-name="eth" unicode="&#xf0;" horiz-adv-x="574" d="M297 430 C341 430 360 409 360 355 C360 235 293 26 203 26 C159 26 140 47 140 101 C140 198 203 430 297 430 L297 430 Z M201 559 L299 612 C339 579 361 527 366 456 C344 464 320 468 295 468 C151 468 -4 341 -4 188 C-4 77 91 -12 205 -12 C405 -12 508 126 508 332 C508 454 464 579 360 645 L433 685 L405 718 L314 669 C276 686 231 696 179 700 L163 668 C201 663 232 653 259 639 L171 592 L201 559 L201 559 Z " />
<glyph glyph-name="ntilde" unicode="&#xf1;" horiz-adv-x="630" d="M44 432 C95 430 102 422 102 404 C102 390 86 343 75 302 L-8 0 L134 0 L160 101 C210 294 292 424 352 424 C378 424 390 409 390 386 C390 318 302 171 302 91 C302 16 354 -12 399 -12 C484 -12 539 65 576 132 L546 154 C536 139 485 52 458 52 C444 52 440 62 440 72 C440 120 524 268 524 348 C524 420 478 482 400 482 C323 482 279 429 236 372 L234 374 C242 410 250 448 256 472 L54 468 L44 432 L44 432 Z M234 564 C240 588 254 606 281 606 C321 606 390 562 429 562 C502 562 538 617 552 682 L510 682 C501 660 486 640 460 640 C426 640 348 684 308 684 C243 684 203 622 192 564 L234 564 L234 564 Z " />
<glyph glyph-name="ograve" unicode="&#xf2;" horiz-adv-x="574" d="M-4 194 C-4 80 91 -12 206 -12 C368 -12 508 119 508 276 C508 390 413 482 298 482 C152 482 -4 351 -4 194 L-4 194 Z M204 26 C160 26 140 48 140 104 C140 204 204 444 300 444 C344 444 364 422 364 366 C364 242 296 26 204 26 L204 26 Z M429 542 L329 675 C299 715 284 722 263 722 C235 722 217 700 217 679 C217 662 229 646 246 634 L383 542 L429 542 L429 542 Z " />
<glyph glyph-name="oacute" unicode="&#xf3;" horiz-adv-x="574" d="M-4 194 C-4 80 91 -12 206 -12 C368 -12 508 119 508 276 C508 390 413 482 298 482 C152 482 -4 351 -4 194 L-4 194 Z M204 26 C160 26 140 48 140 104 C140 204 204 444 300 444 C344 444 364 422 364 366 C364 242 296 26 204 26 L204 26 Z M321 542 L471 627 C502 645 511 653 511 678 C511 701 490 722 464 722 C444 722 427 709 377 655 L273 542 L321 542 L321 542 Z " />
<glyph glyph-name="ocircumflex" unicode="&#xf4;" horiz-adv-x="574" d="M-4 194 C-4 80 91 -12 206 -12 C368 -12 508 119 508 276 C508 390 413 482 298 482 C152 482 -4 351 -4 194 L-4 194 Z M204 26 C160 26 140 48 140 104 C140 204 204 444 300 444 C344 444 364 422 364 366 C364 242 296 26 204 26 L204 26 Z M333 716 L173 542 L225 542 L363 638 L451 542 L501 542 L415 716 L333 716 L333 716 Z " />
<glyph glyph-name="otilde" unicode="&#xf5;" horiz-adv-x="574" d="M-4 194 C-4 80 91 -12 206 -12 C368 -12 508 119 508 276 C508 390 413 482 298 482 C152 482 -4 351 -4 194 L-4 194 Z M204 26 C160 26 140 48 140 104 C140 204 204 444 300 444 C344 444 364 422 364 366 C364 242 296 26 204 26 L204 26 Z M223 564 C229 588 243 606 270 606 C310 606 379 562 418 562 C491 562 527 617 541 682 L499 682 C490 660 475 640 449 640 C415 640 337 684 297 684 C232 684 192 622 181 564 L223 564 L223 564 Z " />
<glyph glyph-name="odieresis" unicode="&#xf6;" horiz-adv-x="574" d="M-4 194 C-4 80 91 -12 206 -12 C368 -12 508 119 508 276 C508 390 413 482 298 482 C152 482 -4 351 -4 194 L-4 194 Z M204 26 C160 26 140 48 140 104 C140 204 204 444 300 444 C344 444 364 422 364 366 C364 242 296 26 204 26 L204 26 Z M401 617 C401 582 430 552 466 552 C502 552 531 582 531 617 C531 652 502 682 466 682 C430 682 401 652 401 617 L401 617 Z M187 617 C187 582 216 552 252 552 C288 552 317 582 317 617 C317 652 288 682 252 682 C216 682 187 652 187 617 L187 617 Z " />
<glyph glyph-name="divide" unicode="&#xf7;" horiz-adv-x="600" d="M535 184 L535 286 L65 286 L65 184 L535 184 L535 184 Z M218 428 C218 384 256 346 300 346 C344 346 382 384 382 428 C382 472 344 510 300 510 C256 510 218 472 218 428 L218 428 Z M218 42 C218 -2 256 -40 300 -40 C344 -40 382 -2 382 42 C382 86 344 124 300 124 C256 124 218 86 218 42 L218 42 Z " />
<glyph glyph-name="oslash" unicode="&#xf8;" horiz-adv-x="574" d="M358 331 L360 329 C350 207 287 26 205 26 C171 26 151 40 145 73 L358 331 L358 331 Z M146 145 L144 147 C158 258 216 444 299 444 C331 444 351 432 358 401 L146 145 L146 145 Z M404 453 C373 471 337 482 298 482 C152 482 -4 351 -4 194 C-4 136 21 84 60 47 L-44 -76 L18 -76 L98 19 C130 -1 166 -12 206 -12 C368 -12 508 119 508 276 C508 335 483 388 442 425 L536 536 L474 536 L404 453 L404 453 Z " />
<glyph glyph-name="ugrave" unicode="&#xf9;" horiz-adv-x="630" d="M40 432 C82 432 102 424 102 396 C102 364 34 228 34 120 C34 30 90 -12 147 -12 C228 -12 274 44 322 116 L324 114 C323 105 322 97 322 89 C322 35 349 -12 413 -12 C496 -12 547 71 580 136 L548 152 C538 133 493 52 465 52 C456 52 448 58 448 78 C448 96 455 126 464 159 L546 472 L402 468 L385 394 C329 150 240 46 192 46 C171 46 160 65 160 85 C160 120 230 338 270 472 L50 468 L40 432 L40 432 Z M457 542 L357 675 C327 715 312 722 291 722 C263 722 245 700 245 679 C245 662 257 646 274 634 L411 542 L457 542 L457 542 Z " />
<glyph glyph-name="uacute" unicode="&#xfa;" horiz-adv-x="630" d="M40 432 C82 432 102 424 102 396 C102 364 34 228 34 120 C34 30 90 -12 147 -12 C228 -12 274 44 322 116 L324 114 C323 105 322 97 322 89 C322 35 349 -12 413 -12 C496 -12 547 71 580 136 L548 152 C538 133 493 52 465 52 C456 52 448 58 448 78 C448 96 455 126 464 159 L546 472 L402 468 L385 394 C329 150 240 46 192 46 C171 46 160 65 160 85 C160 120 230 338 270 472 L50 468 L40 432 L40 432 Z M349 542 L499 627 C530 645 539 653 539 678 C539 701 518 722 492 722 C472 722 455 709 405 655 L301 542 L349 542 L349 542 Z " />
<glyph glyph-name="ucircumflex" unicode="&#xfb;" horiz-adv-x="630" d="M40 432 C82 432 102 424 102 396 C102 364 34 228 34 120 C34 30 90 -12 147 -12 C228 -12 274 44 322 116 L324 114 C323 105 322 97 322 89 C322 35 349 -12 413 -12 C496 -12 547 71 580 136 L548 152 C538 133 493 52 465 52 C456 52 448 58 448 78 C448 96 455 126 464 159 L546 472 L402 468 L385 394 C329 150 240 46 192 46 C171 46 160 65 160 85 C160 120 230 338 270 472 L50 468 L40 432 L40 432 Z M361 716 L201 542 L253 542 L391 638 L479 542 L529 542 L443 716 L361 716 L361 716 Z " />
<glyph glyph-name="udieresis" unicode="&#xfc;" horiz-adv-x="630" d="M40 432 C82 432 102 424 102 396 C102 364 34 228 34 120 C34 30 90 -12 147 -12 C228 -12 274 44 322 116 L324 114 C323 105 322 97 322 89 C322 35 349 -12 413 -12 C496 -12 547 71 580 136 L548 152 C538 133 493 52 465 52 C456 52 448 58 448 78 C448 96 455 126 464 159 L546 472 L402 468 L385 394 C329 150 240 46 192 46 C171 46 160 65 160 85 C160 120 230 338 270 472 L50 468 L40 432 L40 432 Z M429 617 C429 582 458 552 494 552 C530 552 559 582 559 617 C559 652 530 682 494 682 C458 682 429 652 429 617 L429 617 Z M215 617 C215 582 244 552 280 552 C316 552 345 582 345 617 C345 652 316 682 280 682 C244 682 215 652 215 617 L215 617 Z " />
<glyph glyph-name="yacute" unicode="&#xfd;" horiz-adv-x="611" d="M36 432 C88 430 100 416 100 393 C100 350 28 214 28 132 C28 44 82 -4 144 -4 C218 -4 254 25 300 80 L302 78 C290 36 276 -29 255 -75 C237 -115 190 -144 138 -144 C110 -144 96 -136 96 -129 C111 -120 126 -103 126 -80 C126 -48 102 -16 47 -16 C-4 -16 -28 -48 -28 -86 C-28 -135 16 -182 132 -182 C287 -182 396 -121 435 24 L556 470 L414 470 L347 243 C323 160 245 48 191 48 C176 48 164 62 164 86 C164 122 180 168 274 472 L46 468 L36 432 L36 432 Z M339 542 L489 627 C520 645 529 653 529 678 C529 701 508 722 482 722 C462 722 445 709 395 655 L291 542 L339 542 L339 542 Z " />
<glyph glyph-name="thorn" unicode="&#xfe;" horiz-adv-x="611" d="M319 678 L88 674 L78 638 C133 636 148 628 148 605 C148 590 142 560 133 526 L-32 -91 C-41 -126 -63 -130 -129 -132 L-139 -170 L209 -170 L219 -132 C129 -130 113 -120 113 -99 C113 -77 124 -45 132 -14 L146 42 L148 42 C160 0 202 -12 234 -12 C386 -12 545 134 545 293 C545 396 488 482 384 482 C322 482 287 443 249 402 L247 404 L319 678 L319 678 Z M178 90 C178 234 272 430 356 430 C385 430 397 405 397 343 C397 227 310 30 228 30 C210 30 178 40 178 90 L178 90 Z " />
<glyph glyph-name="ydieresis" unicode="&#xff;" horiz-adv-x="611" d="M36 432 C88 430 100 416 100 393 C100 350 28 214 28 132 C28 44 82 -4 144 -4 C218 -4 254 25 300 80 L302 78 C290 36 276 -29 255 -75 C237 -115 190 -144 138 -144 C110 -144 96 -136 96 -129 C111 -120 126 -103 126 -80 C126 -48 102 -16 47 -16 C-4 -16 -28 -48 -28 -86 C-28 -135 16 -182 132 -182 C287 -182 396 -121 435 24 L556 470 L414 470 L347 243 C323 160 245 48 191 48 C176 48 164 62 164 86 C164 122 180 168 274 472 L46 468 L36 432 L36 432 Z M419 617 C419 582 448 552 484 552 C520 552 549 582 549 617 C549 652 520 682 484 682 C448 682 419 652 419 617 L419 617 Z M205 617 C205 582 234 552 270 552 C306 552 335 582 335 617 C335 652 306 682 270 682 C234 682 205 652 205 617 L205 617 Z " />
<glyph glyph-name="dotlessi" unicode="&#x131;" horiz-adv-x="352" d="M30 432 C80 430 92 422 92 398 C92 348 16 181 16 90 C16 23 60 -12 120 -12 C206 -12 266 67 297 138 L265 156 C252 135 210 52 177 52 C166 52 160 60 160 81 C160 116 257 442 266 472 L40 468 L30 432 L30 432 Z " />
<glyph glyph-name="Lslash" unicode="&#x141;" horiz-adv-x="685" d="M313 399 L358 570 C372 625 402 644 474 646 L484 688 L126 688 L116 646 C188 644 202 634 202 608 C202 593 195 565 188 541 L134 344 L-4 302 L-4 252 L119 289 L66 96 C55 57 34 44 -48 42 L-58 0 L566 0 L640 260 L598 268 C552 130 466 42 314 42 C250 42 232 58 232 90 C232 108 247 148 254 175 L298 342 L474 394 L474 448 L313 399 L313 399 Z " />
<glyph glyph-name="lslash" unicode="&#x142;" horiz-adv-x="333" d="M313 678 L79 674 L69 638 C124 636 139 628 139 605 C139 594 133 577 130 565 L75 364 L-26 322 L-26 270 L59 306 L56 294 C33 202 14 156 14 89 C14 32 47 -12 114 -12 C193 -12 247 60 279 124 L251 143 C216 88 183 40 160 40 C150 40 144 45 144 54 C144 67 155 110 174 177 L230 377 L332 420 L332 472 L246 436 L313 678 L313 678 Z " />
<glyph glyph-name="OE" unicode="&#x152;" horiz-adv-x="1000" d="M904 256 L858 256 C814 128 760 42 614 42 C568 42 554 50 554 75 C554 94 560 114 567 142 L616 336 C672 334 690 320 692 222 L730 222 L796 498 L754 498 C732 412 694 380 626 378 L678 591 C688 634 700 646 766 646 C842 646 896 611 896 530 C896 491 895 466 892 442 L936 442 L994 688 L598 688 C565 688 540 691 514 694 C488 697 461 700 422 700 C224 700 36 506 36 278 C36 118 128 -12 302 -12 C325 -12 348 -9 374 -6 C401 -3 432 0 472 0 L844 0 L904 256 L904 256 Z M427 130 C412 72 374 26 299 26 C207 26 172 100 172 181 C172 374 270 662 438 662 C496 662 538 638 538 598 C538 569 532 546 526 523 L427 130 L427 130 Z " />
<glyph glyph-name="oe" unicode="&#x153;" horiz-adv-x="852" d="M733 155 C702 102 658 30 565 30 C496 30 475 78 475 118 C475 150 485 197 491 212 C684 206 795 274 795 375 C795 450 735 482 654 482 C575 482 488 432 442 356 L440 356 C431 431 368 482 293 482 C138 482 -4 356 -4 190 C-4 64 84 -12 181 -12 C271 -12 341 24 378 91 C406 27 472 -12 542 -12 C652 -12 715 40 764 141 L733 155 L733 155 Z M132 108 C132 186 182 444 296 444 C335 444 361 422 361 362 C361 192 286 26 202 26 C158 26 132 54 132 108 L132 108 Z M503 254 C519 332 579 440 642 440 C669 440 687 426 687 393 C687 324 636 244 503 254 L503 254 Z " />
<glyph glyph-name="Scaron" unicode="&#x160;" horiz-adv-x="667" d="M-20 6 L22 6 C36 23 46 38 71 38 C94 38 148 -12 245 -12 C408 -12 564 84 564 238 C564 435 258 396 258 544 C258 604 308 658 398 658 C508 658 558 593 558 492 L558 452 L600 452 L658 682 L610 682 C603 666 593 646 574 646 C547 646 508 700 402 700 C240 700 114 588 114 477 C114 270 420 296 420 160 C420 104 348 30 250 30 C120 30 88 98 88 204 L88 260 L46 260 L-20 6 L-20 6 Z M393 717 L475 717 L637 891 L585 891 L447 795 L355 891 L305 891 L393 717 L393 717 Z " />
<glyph glyph-name="scaron" unicode="&#x161;" horiz-adv-x="519" d="M46 326 C46 172 286 198 286 94 C286 64 244 26 162 26 C100 26 66 42 66 57 C66 61 116 68 116 122 C116 152 88 182 50 182 C2 182 -28 155 -28 113 C-28 30 64 -12 156 -12 C324 -12 422 62 422 152 C422 302 178 287 178 373 C178 414 225 444 276 444 C326 444 354 431 354 426 C354 423 312 420 312 374 C312 341 339 318 378 318 C426 318 448 340 448 384 C448 422 408 482 268 482 C147 482 46 418 46 326 L46 326 Z M273 542 L355 542 L517 716 L465 716 L327 620 L235 716 L185 716 L273 542 L273 542 Z " />
<glyph glyph-name="Ydieresis" unicode="&#x178;" horiz-adv-x="667" d="M420 0 L430 42 C350 44 340 56 340 83 C340 95 350 129 359 162 L396 296 L622 583 C659 629 690 644 746 646 L756 688 L506 688 L496 646 C564 644 574 636 574 620 C574 604 551 572 526 540 L384 358 L336 518 C326 552 316 579 316 608 C316 638 340 644 404 646 L414 688 L86 688 L76 646 C132 644 141 632 147 610 L232 308 L178 112 C166 68 154 44 52 42 L42 0 L420 0 L420 0 Z M511 792 C511 757 540 727 576 727 C612 727 641 757 641 792 C641 827 612 857 576 857 C540 857 511 827 511 792 L511 792 Z M297 792 C297 757 326 727 362 727 C398 727 427 757 427 792 C427 827 398 857 362 857 C326 857 297 827 297 792 L297 792 Z " />
<glyph glyph-name="Zcaron" unicode="&#x17d;" horiz-adv-x="685" d="M588 260 L546 268 C500 130 414 48 220 48 L166 48 L680 632 L686 688 L182 688 L116 458 L162 450 C194 580 288 640 424 640 L504 640 L-2 68 L-20 0 L514 0 L588 260 L588 260 Z M402 717 L484 717 L646 891 L594 891 L456 795 L364 891 L314 891 L402 717 L402 717 Z " />
<glyph glyph-name="zcaron" unicode="&#x17e;" horiz-adv-x="574" d="M440 180 C426 140 397 104 352 104 C302 104 278 142 206 142 C151 142 124 123 68 94 L66 96 C98 127 121 152 180 180 C348 258 453 315 534 460 L506 482 C480 453 455 442 416 442 C376 442 304 482 244 482 C160 482 80 400 50 304 L80 286 C104 348 124 366 149 366 C197 366 236 344 294 344 C341 344 389 362 430 384 L432 382 C407 349 346 314 267 275 C155 220 18 134 -42 4 L-10 -12 C20 24 35 36 80 36 C164 36 198 -12 271 -12 C382 -12 437 68 472 166 L440 180 L440 180 Z M301 542 L383 542 L545 716 L493 716 L355 620 L263 716 L213 716 L301 542 L301 542 Z " />
<glyph glyph-name="florin" unicode="&#x192;" horiz-adv-x="574" d="M231 396 C203 262 173 129 154 -7 C144 -77 119 -140 58 -140 C44 -140 26 -139 16 -128 C41 -125 72 -96 72 -69 C72 -29 49 -6 9 -6 C-32 -6 -66 -36 -66 -89 C-66 -144 -18 -182 50 -182 C130 -182 219 -126 270 -22 C308 56 335 176 350 255 L376 396 L482 396 L492 438 L383 438 L399 547 C411 627 436 658 482 658 C490 658 500 656 508 650 C483 641 460 620 460 592 C460 556 486 536 518 536 C560 536 594 574 594 614 C594 657 560 700 484 700 C388 700 284 622 244 438 L136 438 L126 396 L231 396 L231 396 Z " />
<glyph glyph-name="circumflex" unicode="&#x2c6;" horiz-adv-x="333" d="M212 716 L52 542 L104 542 L242 638 L330 542 L380 542 L294 716 L212 716 L212 716 Z " />
<glyph glyph-name="caron" unicode="&#x2c7;" horiz-adv-x="333" d="M180 542 L262 542 L424 716 L372 716 L234 620 L142 716 L92 716 L180 542 L180 542 Z " />
<glyph glyph-name="uni02C9" unicode="&#x2c9;" horiz-adv-x="333" d="M406 648 L80 648 L64 580 L390 580 L406 648 L406 648 Z " />
<glyph glyph-name="breve" unicode="&#x2d8;" horiz-adv-x="333" d="M84 706 C84 584 128 542 218 542 C322 542 386 612 398 706 L360 706 C335 643 293 616 225 616 C169 616 126 647 126 706 L84 706 L84 706 Z " />
<glyph glyph-name="dotaccent" unicode="&#x2d9;" horiz-adv-x="333" d="M173 617 C173 582 202 552 238 552 C274 552 303 582 303 617 C303 652 274 682 238 682 C202 682 173 652 173 617 L173 617 Z " />
<glyph glyph-name="ring" unicode="&#x2da;" horiz-adv-x="333" d="M128 645 C128 588 173 542 231 542 C289 542 334 588 334 645 C334 702 289 748 231 748 C173 748 128 702 128 645 L128 645 Z M172 645 C172 678 198 704 231 704 C264 704 290 678 290 645 C290 612 264 586 231 586 C198 586 172 612 172 645 L172 645 Z " />
<glyph glyph-name="ogonek" unicode="&#x2db;" horiz-adv-x="333" d="M174 20 C88 12 -86 -38 -86 -144 C-86 -188 -40 -220 11 -220 C69 -220 122 -188 168 -156 L152 -126 C129 -140 85 -168 55 -168 C20 -168 6 -152 6 -121 C6 -57 127 -7 174 8 L174 20 L174 20 Z " />
<glyph glyph-name="tilde" unicode="&#x2dc;" horiz-adv-x="333" d="M102 564 C108 588 122 606 149 606 C189 606 258 562 297 562 C370 562 406 617 420 682 L378 682 C369 660 354 640 328 640 C294 640 216 684 176 684 C111 684 71 622 60 564 L102 564 L102 564 Z " />
<glyph glyph-name="hungarumlaut" unicode="&#x2dd;" horiz-adv-x="333" d="M316 542 L466 627 C497 645 506 653 506 678 C506 701 485 722 459 722 C439 722 422 709 372 655 L268 542 L316 542 L316 542 Z M138 542 L275 634 C292 646 304 662 304 679 C304 700 286 722 258 722 C236 722 220 712 192 675 L92 542 L138 542 L138 542 Z " />
<glyph glyph-name="uni03A9" unicode="&#x3a9;" horiz-adv-x="751" d="M657 158 L626 158 C586 94 571 85 528 85 L418 85 C519 157 646 251 686 391 C740 581 647 696 472 696 C298 696 131 575 76 383 C32 228 112 139 165 85 L64 85 C21 85 9 96 5 158 L-24 158 L-45 0 L206 0 L220 21 C197 119 164 242 202 375 C263 590 359 661 459 661 C552 661 615 588 556 380 C517 241 398 108 330 21 L333 0 L584 0 L657 158 Z " />
<glyph glyph-name="uni03BC" unicode="&#x3bc;" horiz-adv-x="630" d="M402 468 L385 394 C329 150 240 46 192 46 C171 46 160 65 160 85 C160 120 230 338 270 472 L50 468 L40 432 C82 432 102 424 102 396 C102 335 -30 -20 -30 -104 C-30 -147 -20 -182 30 -182 C112 -182 122 -79 133 -10 C139 -11 143 -12 147 -12 C228 -12 274 44 322 116 L324 114 C323 105 322 97 322 89 C322 35 349 -12 413 -12 C496 -12 547 71 580 136 L548 152 C538 133 493 52 465 52 C456 52 448 58 448 78 C448 96 455 126 464 159 L546 472 L402 468 L402 468 Z " />
<glyph glyph-name="pi" unicode="&#x3c0;" horiz-adv-x="589" d="M567 478 C543 450 528 444 496 444 C400 444 298 446 221 447 C111 448 57 389 13 349 L22 322 C70 349 100 365 164 364 C135 265 67 103 -33 7 L-31 -12 C-13 -11 14 -4 39 5 C60 24 138 119 204 348 L208 362 C248 362 296 361 352 360 C325 285 299 211 272 120 C242 15 278 -12 333 -12 C375 -12 429 14 467 57 L461 82 C440 66 426 57 406 57 C378 57 372 84 389 145 C409 215 431 295 455 358 C482 358 506 359 523 363 C542 381 573 428 591 469 L567 478 Z " />
<glyph glyph-name="endash" unicode="&#x2013;" horiz-adv-x="500" d="M10 272 L-10 198 L490 198 L510 272 L10 272 L10 272 Z " />
<glyph glyph-name="emdash" unicode="&#x2014;" horiz-adv-x="1000" d="M10 272 L-10 198 L990 198 L1010 272 L10 272 L10 272 Z " />
<glyph glyph-name="quoteleft" unicode="&#x2018;" horiz-adv-x="278" d="M286 700 C202 654 116 564 116 467 C116 400 152 366 206 366 C240 366 274 396 274 440 C274 486 246 510 186 512 C188 576 254 626 312 666 L286 700 L286 700 Z " />
<glyph glyph-name="quoteright" unicode="&#x2019;" horiz-adv-x="278" d="M100 366 C184 412 270 502 270 599 C270 666 234 700 180 700 C146 700 112 670 112 626 C112 580 140 556 200 554 C198 490 132 440 74 400 L100 366 L100 366 Z " />
<glyph glyph-name="quotesinglbase" unicode="&#x201a;" horiz-adv-x="278" d="M-40 -188 C44 -142 130 -52 130 45 C130 112 94 146 40 146 C6 146 -28 116 -28 72 C-28 26 0 2 60 0 C58 -64 -8 -114 -66 -154 L-40 -188 L-40 -188 Z " />
<glyph glyph-name="quotedblleft" unicode="&#x201c;" horiz-adv-x="537" d="M522 700 C438 654 352 564 352 467 C352 400 388 366 442 366 C476 366 510 396 510 440 C510 486 482 510 422 512 C424 576 490 626 548 666 L522 700 L522 700 Z M262 700 C178 654 92 564 92 467 C92 400 128 366 182 366 C216 366 250 396 250 440 C250 486 222 510 162 512 C164 576 230 626 288 666 L262 700 L262 700 Z " />
<glyph glyph-name="quotedblright" unicode="&#x201d;" horiz-adv-x="537" d="M122 366 C206 412 292 502 292 599 C292 666 256 700 202 700 C168 700 134 670 134 626 C134 580 162 556 222 554 C220 490 154 440 96 400 L122 366 L122 366 Z M382 366 C466 412 552 502 552 599 C552 666 516 700 462 700 C428 700 394 670 394 626 C394 580 422 556 482 554 C480 490 414 440 356 400 L382 366 L382 366 Z " />
<glyph glyph-name="quotedblbase" unicode="&#x201e;" horiz-adv-x="537" d="M-40 -188 C44 -142 130 -52 130 45 C130 112 94 146 40 146 C6 146 -28 116 -28 72 C-28 26 0 2 60 0 C58 -64 -8 -114 -66 -154 L-40 -188 L-40 -188 Z M220 -188 C304 -142 390 -52 390 45 C390 112 354 146 300 146 C266 146 232 116 232 72 C232 26 260 2 320 0 C318 -64 252 -114 194 -154 L220 -188 L220 -188 Z " />
<glyph glyph-name="dagger" unicode="&#x2020;" horiz-adv-x="500" d="M138 -124 C194 108 248 226 298 292 C285 327 280 355 280 386 C280 407 285 430 292 454 C354 453 386 418 426 418 C456 418 478 443 478 474 C478 504 456 522 434 522 C381 522 362 488 300 488 C319 591 378 590 378 650 C378 682 360 700 324 700 C288 700 264 676 264 641 C264 620 274 605 274 558 C274 539 272 516 264 488 C198 489 167 524 126 524 C96 524 74 499 74 470 C74 438 97 420 119 420 C172 420 191 454 256 454 C242 394 212 339 166 296 C169 276 170 265 170 246 C170 112 132 5 106 -124 L138 -124 L138 -124 Z " />
<glyph glyph-name="daggerdbl" unicode="&#x2021;" horiz-adv-x="500" d="M-14 100 C-14 70 8 52 30 52 C83 52 102 86 164 86 C145 -17 86 -16 86 -76 C86 -108 104 -126 140 -126 C176 -126 200 -102 200 -67 C200 -46 190 -31 190 16 C190 35 192 58 200 86 C266 85 297 50 338 50 C368 50 390 75 390 104 C390 136 367 154 345 154 C292 154 273 120 208 120 C215 186 256 252 296 284 C274 334 276 404 290 454 C352 453 384 418 424 418 C454 418 476 443 476 474 C476 504 454 522 432 522 C379 522 360 488 298 488 C317 591 376 590 376 650 C376 682 358 700 322 700 C286 700 262 676 262 641 C262 620 272 605 272 558 C272 539 270 516 262 488 C196 489 165 524 124 524 C94 524 72 499 72 470 C72 438 95 420 117 420 C170 420 189 454 254 454 C244 384 210 322 168 288 C187 225 191 184 172 120 C110 121 78 156 38 156 C8 156 -14 131 -14 100 L-14 100 Z " />
<glyph glyph-name="bullet" unicode="&#x2022;" horiz-adv-x="500" d="M422 344 C422 439 345 516 250 516 C153 516 78 439 78 344 C79 248 154 172 250 172 C345 172 422 249 422 344 L422 344 Z " />
<glyph glyph-name="ellipsis" unicode="&#x2026;" horiz-adv-x="1000" d="M20 67 C20 23 51 -12 99 -12 C147 -12 178 23 178 67 C178 111 147 146 99 146 C51 146 20 111 20 67 L20 67 Z M353 67 C353 23 384 -12 432 -12 C480 -12 511 23 511 67 C511 111 480 146 432 146 C384 146 353 111 353 67 L353 67 Z M686 67 C686 23 717 -12 765 -12 C813 -12 844 23 844 67 C844 111 813 146 765 146 C717 146 686 111 686 67 L686 67 Z " />
<glyph glyph-name="perthousand" unicode="&#x2030;" horiz-adv-x="1111" d="M836 48 C836 90 892 366 972 366 C992 366 1004 354 1004 328 C1004 286 948 10 868 10 C848 10 836 22 836 48 L836 48 Z M640 700 L584 700 L120 -12 L176 -12 L640 700 L640 700 Z M112 360 C112 402 168 678 248 678 C268 678 280 666 280 640 C280 598 224 322 144 322 C124 322 112 334 112 360 L112 360 Z M760 130 C760 40 802 -12 872 -12 C991 -12 1080 147 1080 246 C1080 336 1038 388 968 388 C849 388 760 229 760 130 L760 130 Z M36 442 C36 352 78 300 148 300 C267 300 356 459 356 558 C356 648 314 700 244 700 C125 700 36 541 36 442 L36 442 Z M404 130 C404 40 446 -12 516 -12 C635 -12 724 147 724 246 C724 336 682 388 612 388 C493 388 404 229 404 130 L404 130 Z M480 48 C480 90 536 366 616 366 C636 366 648 354 648 328 C648 286 592 10 512 10 C492 10 480 22 480 48 L480 48 Z " />
<glyph glyph-name="guilsinglleft" unicode="&#x2039;" horiz-adv-x="333" d="M16 225 C112 131 146 51 163 51 C170 51 176 56 176 65 C176 83 144 171 108 227 C170 290 244 383 244 403 C244 416 239 419 233 419 C221 419 136 331 16 237 L16 225 L16 225 Z " />
<glyph glyph-name="guilsinglright" unicode="&#x203a;" horiz-adv-x="333" d="M244 245 C148 339 114 419 97 419 C90 419 84 414 84 405 C84 387 116 299 152 243 C90 180 16 87 16 67 C16 54 21 51 27 51 C39 51 124 139 244 233 L244 245 L244 245 Z " />
<glyph glyph-name="fraction" unicode="&#x2044;" horiz-adv-x="167" d="M334 700 L278 700 L-167 -12 L-111 -12 L334 700 L334 700 Z " />
<glyph glyph-name="Euro" unicode="&#x20ac;" horiz-adv-x="574" d="M405 318 L224 318 C229 342 234 367 241 392 L419 392 L429 434 L253 434 C290 551 347 658 416 658 C502 658 534 589 520 478 L564 478 L602 682 L567 682 C561 670 556 654 539 654 C522 654 489 700 415 700 C269 700 157 570 104 434 L16 434 L6 392 L90 392 C83 367 77 342 74 318 L1 318 L-9 276 L71 276 L71 273 C70 138 146 -12 298 -12 C416 -12 505 107 530 229 L482 229 C465 146 400 30 301 30 C249 30 208 84 208 190 C208 213 211 242 216 276 L395 276 L405 318 Z " />
<glyph glyph-name="afii61289" unicode="&#x2113;" horiz-adv-x="439" d="M332 133 C293 93 246 57 198 57 C138 57 122 99 159 228 L183 312 C301 401 385 485 418 600 C439 674 424 737 356 737 C319 737 278 720 237 681 C179 629 152 575 108 423 L70 290 L-17 236 L-12 207 L59 249 L39 178 C13 90 18 59 33 29 C48 5 78 -10 132 -10 C212 -10 284 35 348 112 L332 133 Z M232 480 C280 650 304 703 340 703 C370 703 371 658 354 598 C327 506 266 423 198 364 L232 480 Z " />
<glyph glyph-name="trademark" unicode="&#x2122;" horiz-adv-x="1000" d="M260 662 L303 662 C341 662 358 634 364 602 L390 602 L390 688 L18 688 L18 602 L44 602 C50 634 68 662 105 662 L148 662 L148 358 C148 322 146 320 96 316 L96 290 L312 290 L312 316 C262 320 260 322 260 358 L260 662 L260 662 Z M662 290 L677 290 L816 564 L818 564 L818 358 C818 322 816 320 770 316 L770 290 L982 290 L982 316 C932 320 930 322 930 358 L930 620 C930 656 932 658 982 662 L982 688 L850 688 L712 423 L583 688 L430 688 L430 662 C459 662 484 643 498 610 L498 380 C498 325 488 318 450 316 L450 290 L582 290 L582 316 C540 318 530 325 530 380 L530 564 L532 564 L662 290 L662 290 Z " />
<glyph glyph-name="Omega" unicode="&#x2126;" horiz-adv-x="751" d="M657 158 L626 158 C586 94 571 85 528 85 L418 85 C519 157 646 251 686 391 C740 581 647 696 472 696 C298 696 131 575 76 383 C32 228 112 139 165 85 L64 85 C21 85 9 96 5 158 L-24 158 L-45 0 L206 0 L220 21 C197 119 164 242 202 375 C263 590 359 661 459 661 C552 661 615 588 556 380 C517 241 398 108 330 21 L333 0 L584 0 L657 158 Z " />
<glyph glyph-name="estimated" unicode="&#x212e;" horiz-adv-x="952" d="M918 334 L918 343 C918 540 742 698 523 698 C305 698 129 540 129 343 C129 147 305 -11 523 -11 C650 -11 765 43 835 126 L779 126 C717 55 626 9 524 9 C429 9 344 50 282 114 C277 120 274 127 274 136 L274 329 C274 332 276 334 279 334 L918 334 Z M773 359 C773 357 772 352 769 352 L279 352 C276 352 274 357 274 359 L274 549 C274 559 277 567 283 573 C345 636 430 677 524 677 C618 677 702 637 764 576 C770 570 773 562 773 553 L773 359 Z " />
<glyph glyph-name="partialdiff" unicode="&#x2202;" horiz-adv-x="555" d="M291 433 C225 433 155 403 103 359 C58 321 13 261 -6 191 C-42 66 12 -10 127 -10 C231 -10 320 52 390 142 C447 215 488 311 511 389 C528 451 545 546 525 623 C502 711 447 766 346 766 C280 766 228 746 186 725 C168 698 183 647 201 648 C246 678 308 711 364 711 C422 711 456 673 464 630 C472 581 461 526 445 476 C433 439 417 400 404 368 C385 412 338 433 292 433 L291 433 Z M306 388 C353 388 377 348 382 322 C347 241 320 188 276 128 C240 79 188 24 139 24 C85 24 68 71 87 136 C107 207 143 281 187 331 C231 376 269 388 305 388 L306 388 Z " />
<glyph glyph-name="Delta" unicode="&#x2206;" horiz-adv-x="660" d="M519 0 L528 31 L445 696 L391 683 L-60 31 L-69 0 L519 0 Z M397 56 L10 56 L341 543 L397 56 Z " />
<glyph glyph-name="product" unicode="&#x220f;" horiz-adv-x="812" d="M785 692 L119 692 L119 661 C208 655 214 647 214 579 L214 37 C214 -39 206 -47 123 -54 L123 -84 L401 -84 L401 -54 C327 -47 327 -37 327 37 L327 622 C327 650 331 653 362 653 L542 653 C573 653 579 649 579 618 L579 37 C579 -43 574 -48 498 -54 L498 -84 L783 -84 L783 -54 C698 -47 691 -38 691 37 L691 579 C691 646 697 655 785 661 L785 692 Z " />
<glyph glyph-name="summation" unicode="&#x2211;" horiz-adv-x="667" d="M644 116 L613 124 C569 9 557 4 466 4 L215 4 L442 342 L263 654 L435 654 C511 654 527 646 542 619 C556 595 569 559 579 513 L610 520 C605 588 598 673 597 692 L126 692 L126 662 L346 268 L121 -61 L121 -90 L598 -90 L644 116 Z " />
<glyph glyph-name="minus" unicode="&#x2212;" horiz-adv-x="600" d="M65 184 L535 184 L535 286 L65 286 L65 184 L65 184 Z " />
<glyph glyph-name="uni2215" unicode="&#x2215;" horiz-adv-x="167" d="M334 700 L278 700 L-167 -12 L-111 -12 L334 700 L334 700 Z " />
<glyph glyph-name="uni2219" unicode="&#x2219;" horiz-adv-x="287" d="M37 235 C37 193 70 152 120 152 C170 152 203 193 203 235 C203 277 170 318 120 318 C70 318 37 277 37 235 L37 235 Z " />
<glyph glyph-name="radical" unicode="&#x221a;" horiz-adv-x="662" d="M650 873 L604 883 L465 39 L463 39 L305 451 L129 371 L142 334 L231 375 L450 -168 L475 -155 L650 873 Z " />
<glyph glyph-name="infinity" unicode="&#x221e;" horiz-adv-x="786" d="M739 284 C739 381 674 445 588 445 C501 445 452 383 410 335 C359 399 305 445 232 445 C139 445 70 376 70 279 C70 182 142 115 224 115 C303 115 355 165 406 227 C472 142 525 115 583 115 C663 115 739 178 739 283 L739 284 Z M232 180 C177 180 137 224 137 278 C137 337 172 381 228 381 C293 381 329 330 370 276 C332 232 289 180 233 180 L232 180 Z M581 381 C635 381 672 339 672 278 C672 233 641 180 585 180 C535 180 503 208 443 282 C475 317 520 381 580 381 L581 381 Z " />
<glyph glyph-name="integral" unicode="&#x222b;" horiz-adv-x="492" d="M260 0 C265 -94 254 -155 226 -155 C204 -155 205 -94 174 -94 C143 -94 111 -118 113 -151 C113 -180 143 -205 182 -205 C281 -205 372 -97 354 254 L335 627 C329 757 349 785 369 785 C391 785 388 728 424 728 C451 728 477 745 477 781 C477 816 437 834 407 834 C323 834 221 759 239 401 L260 0 Z " />
<glyph glyph-name="approxequal" unicode="&#x2248;" horiz-adv-x="567" d="M485 441 C458 397 432 370 395 370 C364 370 344 383 308 405 C282 420 251 441 203 441 C143 441 88 399 58 342 L103 302 C128 339 154 373 198 373 C230 373 255 358 283 340 C327 315 354 301 395 301 C451 301 498 343 529 401 L485 441 Z M485 261 C456 217 433 189 394 189 C361 189 338 207 308 225 C282 239 251 261 203 261 C143 261 88 219 58 162 L103 122 C128 158 153 193 198 193 C229 193 254 178 283 160 C326 135 354 121 394 121 C452 121 498 163 529 220 L485 261 Z " />
<glyph glyph-name="notequal" unicode="&#x2260;" horiz-adv-x="591" d="M446 501 L391 524 L342 414 L93 414 L93 345 L315 345 L256 211 L93 211 L93 143 L228 143 L189 53 L243 30 L293 143 L544 143 L544 211 L320 211 L380 345 L544 345 L544 414 L407 414 L446 501 Z " />
<glyph glyph-name="lessequal" unicode="&#x2264;" horiz-adv-x="617" d="M567 101 L567 181 L194 356 L194 358 L567 532 L567 612 L124 394 L124 320 L567 101 Z M571 -6 L571 64 L120 64 L120 -6 L571 -6 Z " />
<glyph glyph-name="greaterequal" unicode="&#x2265;" horiz-adv-x="617" d="M125 612 L125 532 L498 358 L498 356 L125 181 L125 101 L569 319 L569 393 L125 612 Z M569 -6 L569 64 L120 64 L120 -6 L569 -6 Z " />
<glyph glyph-name="lozenge" unicode="&#x25ca;" horiz-adv-x="671" d="M625 331 L426 737 L344 737 L144 331 L342 -71 L425 -71 L625 331 Z M546 331 L387 -1 L384 -1 L222 332 L383 664 L387 664 L546 331 Z " />
<glyph glyph-name="fi" unicode="&#xfb01;" horiz-adv-x="704" d="M606 162 C596 140 557 56 525 56 C518 56 506 65 506 78 C506 91 516 132 531 193 L600 472 C557 471 513 470 470 470 L264 470 L277 520 C300 608 347 650 413 650 C451 650 478 637 478 629 C478 624 444 620 444 576 C444 538 478 520 512 520 C564 520 588 550 588 586 C588 638 522 688 399 688 C258 688 165 602 120 470 L32 470 L22 428 L108 428 L16 32 C-4 -53 -37 -144 -101 -144 C-107 -144 -112 -142 -112 -138 C-112 -136 -86 -120 -86 -90 C-86 -59 -111 -30 -156 -30 C-192 -30 -230 -62 -230 -102 C-230 -148 -184 -182 -126 -182 C-9 -182 140 -79 182 105 L256 428 L384 428 C426 428 432 420 432 402 C432 375 362 163 362 102 C362 25 399 -12 464 -12 C553 -12 611 68 642 143 L606 162 L606 162 Z " />
<glyph glyph-name="fl" unicode="&#xfb02;" horiz-adv-x="704" d="M262 470 L276 527 C298 615 346 650 415 650 C436 650 466 644 480 628 C460 620 448 597 448 576 C448 554 456 538 468 531 L452 470 L262 470 L262 470 Z M106 428 L5 7 C-19 -95 -64 -144 -93 -144 C-100 -144 -108 -139 -108 -132 C-108 -129 -86 -125 -86 -88 C-86 -58 -110 -30 -152 -30 C-196 -30 -230 -64 -230 -104 C-230 -150 -196 -182 -120 -182 C4 -182 139 -76 188 143 L252 428 L442 428 C417 322 366 174 366 97 C366 40 402 -12 461 -12 C541 -12 608 64 634 134 L601 151 C574 105 540 46 518 46 C506 46 502 54 502 66 C502 84 507 103 526 178 L656 680 C615 679 562 676 532 676 C516 676 494 679 471 682 C448 685 424 688 404 688 C259 688 169 610 118 470 L30 470 L20 428 L106 428 L106 428 Z " />
</font>
</svg>
